<svg width="61" height="61" viewBox="0 0 61 61" fill="none" xmlns="http://www.w3.org/2000/svg">
<g filter="url(#filter0_i_1306_24141)">
<path fill-rule="evenodd" clip-rule="evenodd" d="M30.5 -3.45707e-06C26.4894 -3.45707e-06 22.5339 0.78558 18.8265 2.3154C15.1328 3.84523 11.77 6.09173 8.93086 8.93086C6.09173 11.77 3.85901 15.1191 2.3154 18.8265C0.78558 22.5201 -3.45707e-06 26.4894 -3.45707e-06 30.5C-3.45707e-06 34.5106 0.78558 38.4661 2.3154 42.1735C3.84523 45.8671 6.09173 49.23 8.93086 52.0691C11.7562 54.8945 15.1191 57.141 18.8265 58.6846C22.5201 60.2144 26.4894 61 30.5 61C38.5901 61 46.3495 57.7887 52.0554 52.0691C57.7612 46.3495 61 38.5764 61 30.4862C61 22.3961 57.7887 14.6367 52.0691 8.93086C46.3495 3.21125 38.5901 -3.45707e-06 30.5 -3.45707e-06ZM32.8981 43.0556C32.2641 43.6896 31.3958 44.0479 30.5 44.0479C29.6042 44.0479 28.7359 43.6896 28.1019 43.0556C27.4679 42.4216 27.1096 41.5533 27.1096 40.6575C27.1096 39.7616 27.4679 38.8934 28.1019 38.2594L32.4846 33.8766H20.3287C19.4329 33.8766 18.5646 33.5183 17.9306 32.8843C17.2967 32.2503 16.9383 31.3821 16.9383 30.4862C16.9383 29.5904 17.2967 28.7221 17.9306 28.0881C18.5646 27.4541 19.4329 27.0958 20.3287 27.0958L32.4709 27.0958L28.0881 22.7131C27.4679 22.0791 27.1234 21.2246 27.1371 20.3287C27.1509 19.4467 27.4955 18.5922 28.1295 17.9582C28.7634 17.3242 29.6042 16.9797 30.5 16.9659C31.3821 16.9521 32.2503 17.2967 32.8843 17.9168L43.0418 28.0881C43.3588 28.4051 43.6069 28.7772 43.7723 29.1907C43.9376 29.6042 44.0341 30.0452 44.0341 30.4862C44.0341 30.9272 43.9514 31.3683 43.7723 31.7817C43.6069 32.1952 43.3588 32.5673 43.0418 32.8843L32.8981 43.0556Z" fill="#FBF7F9"/>
</g>
<defs>
<filter id="filter0_i_1306_24141" x="0" y="0" width="61" height="65" filterUnits="userSpaceOnUse" color-interpolation-filters="sRGB">
<feFlood flood-opacity="0" result="BackgroundImageFix"/>
<feBlend mode="normal" in="SourceGraphic" in2="BackgroundImageFix" result="shape"/>
<feColorMatrix in="SourceAlpha" type="matrix" values="0 0 0 0 0 0 0 0 0 0 0 0 0 0 0 0 0 0 127 0" result="hardAlpha"/>
<feOffset dy="4"/>
<feGaussianBlur stdDeviation="2"/>
<feComposite in2="hardAlpha" operator="arithmetic" k2="-1" k3="1"/>
<feColorMatrix type="matrix" values="0 0 0 0 0 0 0 0 0 0 0 0 0 0 0 0 0 0 0.07 0"/>
<feBlend mode="normal" in2="shape" result="effect1_innerShadow_1306_24141"/>
</filter>
</defs>
</svg>
