<svg width="42" height="42" viewBox="0 0 42 42" fill="none" xmlns="http://www.w3.org/2000/svg">
<g filter="url(#filter0_di_1288_10461)">
<path d="M31.7277 1.13652C32.0614 0.783733 32.4624 0.501423 32.9071 0.306275C33.3517 0.111128 33.831 0.00710367 34.3165 0.00035128C34.8021 -0.00640111 35.284 0.0842555 35.7339 0.266962C36.1839 0.449669 36.5926 0.720719 36.9359 1.06409C37.2793 1.40746 37.5503 1.81618 37.733 2.2661C37.9157 2.71601 38.0064 3.19799 37.9996 3.68355C37.9929 4.1691 37.8889 4.64837 37.6937 5.09303C37.4986 5.53769 37.2163 5.93872 36.8635 6.27241L26.2189 16.9172C26.2048 16.9312 26.1936 16.9479 26.186 16.9663C26.1784 16.9847 26.1744 17.0044 26.1744 17.0243C26.1744 17.0443 26.1784 17.064 26.186 17.0824C26.1936 17.1008 26.2048 17.1175 26.2189 17.1315L36.8635 27.7763C37.2054 28.1126 37.4773 28.5133 37.6636 28.9552C37.8499 29.3971 37.9468 29.8716 37.9488 30.3511C37.9509 30.8307 37.8579 31.306 37.6753 31.7494C37.4928 32.1929 37.2242 32.5958 36.8851 32.935C36.546 33.2742 36.1432 33.5428 35.6998 33.7255C35.2563 33.9082 34.7811 34.0013 34.3016 33.9994C33.822 33.9975 33.3475 33.9006 32.9056 33.7145C32.4636 33.5283 32.0629 33.2564 31.7265 32.9146L21.0819 22.2698C21.0679 22.2557 21.0511 22.2446 21.0328 22.2369C21.0144 22.2293 20.9947 22.2254 20.9747 22.2254C20.9548 22.2254 20.9351 22.2293 20.9167 22.2369C20.8983 22.2446 20.8816 22.2557 20.8676 22.2698L10.223 32.9146C9.88669 33.2565 9.48602 33.5285 9.0441 33.7147C8.60218 33.901 8.12775 33.998 7.64818 34C7.16861 34.002 6.69339 33.909 6.24992 33.7264C5.80645 33.5439 5.40352 33.2753 5.06437 32.9362C4.72522 32.5971 4.45656 32.1943 4.27388 31.7508C4.09121 31.3074 3.99813 30.8322 4.00003 30.3526C4.00192 29.873 4.09875 29.3986 4.28493 28.9566C4.47111 28.5146 4.74295 28.1139 5.08477 27.7775L15.7293 17.1327C15.7434 17.1187 15.7546 17.102 15.7623 17.0836C15.7699 17.0652 15.7738 17.0455 15.7738 17.0256C15.7738 17.0057 15.7699 16.9859 15.7623 16.9675C15.7546 16.9492 15.7434 16.9324 15.7293 16.9184L5.08477 6.27362C4.41254 5.5905 4.03747 4.66942 4.04126 3.71102C4.04505 2.75261 4.42739 1.83453 5.105 1.15674C5.78261 0.478963 6.70059 0.0963995 7.65897 0.0923845C8.61736 0.0883694 9.53851 0.463228 10.2218 1.13531L20.8664 11.7801C20.8804 11.7942 20.8971 11.8054 20.9155 11.813C20.9339 11.8206 20.9536 11.8245 20.9735 11.8245C20.9934 11.8245 21.0132 11.8206 21.0315 11.813C21.0499 11.8054 21.0666 11.7942 21.0807 11.7801L31.7253 1.13531L31.7277 1.13652Z" fill="white"/>
</g>
<defs>
<filter id="filter0_di_1288_10461" x="0" y="0" width="42" height="42" filterUnits="userSpaceOnUse" color-interpolation-filters="sRGB">
<feFlood flood-opacity="0" result="BackgroundImageFix"/>
<feColorMatrix in="SourceAlpha" type="matrix" values="0 0 0 0 0 0 0 0 0 0 0 0 0 0 0 0 0 0 127 0" result="hardAlpha"/>
<feOffset dy="4"/>
<feGaussianBlur stdDeviation="2"/>
<feComposite in2="hardAlpha" operator="out"/>
<feColorMatrix type="matrix" values="0 0 0 0 0 0 0 0 0 0 0 0 0 0 0 0 0 0 0.25 0"/>
<feBlend mode="normal" in2="BackgroundImageFix" result="effect1_dropShadow_1288_10461"/>
<feBlend mode="normal" in="SourceGraphic" in2="effect1_dropShadow_1288_10461" result="shape"/>
<feColorMatrix in="SourceAlpha" type="matrix" values="0 0 0 0 0 0 0 0 0 0 0 0 0 0 0 0 0 0 127 0" result="hardAlpha"/>
<feOffset dy="4"/>
<feGaussianBlur stdDeviation="3"/>
<feComposite in2="hardAlpha" operator="arithmetic" k2="-1" k3="1"/>
<feColorMatrix type="matrix" values="0 0 0 0 0 0 0 0 0 0 0 0 0 0 0 0 0 0 0.05 0"/>
<feBlend mode="normal" in2="shape" result="effect2_innerShadow_1288_10461"/>
</filter>
</defs>
</svg>
