<svg width="34" height="34" viewBox="0 0 34 34" fill="none" xmlns="http://www.w3.org/2000/svg">
<g filter="url(#filter0_i_1288_10463)">
<path d="M27.7277 1.13652C28.0614 0.783733 28.4624 0.501423 28.9071 0.306275C29.3517 0.111128 29.831 0.00710367 30.3165 0.00035128C30.8021 -0.00640111 31.284 0.0842555 31.7339 0.266962C32.1839 0.449669 32.5926 0.720719 32.9359 1.06409C33.2793 1.40746 33.5503 1.81618 33.733 2.2661C33.9157 2.71601 34.0064 3.19799 33.9996 3.68355C33.9929 4.1691 33.8889 4.64837 33.6937 5.09303C33.4986 5.53769 33.2163 5.93872 32.8635 6.27241L22.2189 16.9172C22.2048 16.9312 22.1936 16.9479 22.186 16.9663C22.1784 16.9847 22.1744 17.0044 22.1744 17.0243C22.1744 17.0443 22.1784 17.064 22.186 17.0824C22.1936 17.1008 22.2048 17.1175 22.2189 17.1315L32.8635 27.7763C33.2054 28.1126 33.4773 28.5133 33.6636 28.9552C33.8499 29.3971 33.9468 29.8716 33.9488 30.3511C33.9509 30.8307 33.8579 31.306 33.6753 31.7494C33.4928 32.1929 33.2242 32.5958 32.8851 32.935C32.546 33.2742 32.1432 33.5428 31.6998 33.7255C31.2563 33.9082 30.7811 34.0013 30.3016 33.9994C29.822 33.9975 29.3475 33.9006 28.9056 33.7145C28.4636 33.5283 28.0629 33.2564 27.7265 32.9146L17.0819 22.2698C17.0679 22.2557 17.0511 22.2446 17.0328 22.2369C17.0144 22.2293 16.9947 22.2254 16.9747 22.2254C16.9548 22.2254 16.9351 22.2293 16.9167 22.2369C16.8983 22.2446 16.8816 22.2557 16.8676 22.2698L6.22299 32.9146C5.88669 33.2565 5.48602 33.5285 5.0441 33.7147C4.60218 33.901 4.12775 33.998 3.64818 34C3.16861 34.002 2.69339 33.909 2.24992 33.7264C1.80645 33.5439 1.40352 33.2753 1.06437 32.9362C0.725221 32.5971 0.456558 32.1943 0.273882 31.7508C0.0912065 31.3074 -0.00186765 30.8322 2.83959e-05 30.3526C0.00192445 29.873 0.0987533 29.3986 0.28493 28.9566C0.471106 28.5146 0.742946 28.1139 1.08477 27.7775L11.7293 17.1327C11.7434 17.1187 11.7546 17.102 11.7623 17.0836C11.7699 17.0652 11.7738 17.0455 11.7738 17.0256C11.7738 17.0057 11.7699 16.9859 11.7623 16.9675C11.7546 16.9492 11.7434 16.9324 11.7293 16.9184L1.08477 6.27362C0.412539 5.5905 0.0374698 4.66942 0.0412589 3.71102C0.045048 2.75261 0.427389 1.83453 1.105 1.15674C1.78261 0.478963 2.70059 0.0963995 3.65897 0.0923845C4.61736 0.0883694 5.53851 0.463228 6.22178 1.13531L16.8664 11.7801C16.8804 11.7942 16.8971 11.8054 16.9155 11.813C16.9339 11.8206 16.9536 11.8245 16.9735 11.8245C16.9934 11.8245 17.0132 11.8206 17.0315 11.813C17.0499 11.8054 17.0666 11.7942 17.0807 11.7801L27.7253 1.13531L27.7277 1.13652Z" fill="white"/>
</g>
<defs>
<filter id="filter0_i_1288_10463" x="0" y="0" width="34" height="38" filterUnits="userSpaceOnUse" color-interpolation-filters="sRGB">
<feFlood flood-opacity="0" result="BackgroundImageFix"/>
<feBlend mode="normal" in="SourceGraphic" in2="BackgroundImageFix" result="shape"/>
<feColorMatrix in="SourceAlpha" type="matrix" values="0 0 0 0 0 0 0 0 0 0 0 0 0 0 0 0 0 0 127 0" result="hardAlpha"/>
<feOffset dy="4"/>
<feGaussianBlur stdDeviation="2"/>
<feComposite in2="hardAlpha" operator="arithmetic" k2="-1" k3="1"/>
<feColorMatrix type="matrix" values="0 0 0 0 0 0 0 0 0 0 0 0 0 0 0 0 0 0 0.1 0"/>
<feBlend mode="normal" in2="shape" result="effect1_innerShadow_1288_10463"/>
</filter>
</defs>
</svg>
