<?xml version="1.0" encoding="UTF-8"?>
<svg id="Calque_1" data-name="Calque 1" xmlns="http://www.w3.org/2000/svg" viewBox="0 0 144 144">
  <defs>
    <style>
      .cls-1 {
        fill: #f4f6f9;
      }

      .cls-2 {
        fill: #fff;
      }

      .cls-3 {
        fill: #cfdbef;
      }

      .cls-4 {
        fill: #6471af;
      }
    </style>
  </defs>
  <g>
    <circle class="cls-3" cx="72" cy="72" r="71.8"/>
    <path class="cls-2" d="M72,144C32.3,144,0,111.7,0,72S32.3,0,72,0s72,32.3,72,72-32.3,72-72,72h0ZM72,.41C32.52,.41,.41,32.52,.41,72s32.12,71.59,71.59,71.59,71.59-32.12,71.59-71.59S111.47,.41,72,.41Z"/>
  </g>
  <path class="cls-1" d="M72,8.23c5.95-.66,19.22-1.35,33.34,7.64,.64,.41,10.49,6.8,9.12,11.67-.52,1.85-2.65,3.45-4.52,3.35-2.19-.12-3.4-2.56-5.5-5.37,0,0-2.85-3.83-9.14-8.86-8.86-7.09-23.31-8.43-23.31-8.43h0Z"/>
  <path class="cls-1" d="M118.05,31.12c-.88-.51-2.21-.1-2.58,.94-.35,1.01,.35,2.19,1.41,2.34,.95,.14,1.86-.6,1.99-1.53,.1-.68-.22-1.42-.82-1.76h0Z"/>
  <g>
    <path class="cls-4" d="M15.69,48.82c-.5-.24-.75-.36-1.24-.6,1.51-2.22,2.28-3.34,3.85-5.59,.34,.18,.52,.28,.86,.47-1.43,2.3-2.12,3.45-3.48,5.72h0Zm2.92-.26c-.5-.25-.75-.37-1.25-.61,1.48-2.24,2.23-3.37,3.76-5.63,.35,.19,.52,.29,.88,.48-1.38,2.32-2.06,3.47-3.38,5.77h0Z"/>
    <path class="cls-4" d="M31.95,42.72c-.26,1.08-.38,1.63-.63,2.72-.73-1.04-1.58-1.51-2.61-1.43-1.13,.09-2.23,.73-3.3,1.9-1.07,1.16-1.82,2.53-2.19,4.11-.37,1.57-.25,2.85,.35,3.89s1.53,1.52,2.72,1.46c.62-.03,1.17-.19,1.64-.47,.27-.14,.54-.33,.84-.57,.3-.24,.62-.52,.95-.84-.19,1.11-.28,1.66-.45,2.76-1.13,.78-2.25,1.19-3.37,1.24-1.68,.07-3.01-.62-3.89-2.04-.88-1.43-1.06-3.19-.55-5.3,.46-1.89,1.4-3.61,2.74-5.18,1.65-1.92,3.37-2.98,5.16-3.14,.97-.09,1.82,.2,2.56,.87Z"/>
    <path class="cls-4" d="M38.36,52.44c-2.09,.09-3.13,.13-5.22,.23-.08,.79,.02,1.42,.29,1.87,.28,.45,.69,.66,1.24,.64,.42-.02,.8-.16,1.11-.44,.31-.27,.68-.78,1.13-1.51,.51,.4,.77,.6,1.29,1-.29,.51-.57,.95-.86,1.31-.29,.37-.59,.67-.91,.91-.31,.24-.64,.42-.98,.53-.34,.12-.71,.18-1.09,.2-1.11,.04-1.94-.39-2.47-1.29-.53-.9-.67-2.12-.41-3.65,.26-1.52,.81-2.77,1.61-3.75,.8-.97,1.73-1.48,2.76-1.54,1.04-.06,1.79,.35,2.25,1.23,.46,.88,.58,2.12,.35,3.73-.03,.21-.05,.32-.08,.53h0Zm-1.46-1.76c-.05-1.19-.5-1.76-1.39-1.71-.2,.01-.4,.06-.59,.15-.19,.09-.37,.22-.55,.38-.17,.16-.33,.35-.47,.58-.14,.22-.26,.48-.36,.75,1.34-.07,2.01-.1,3.35-.16Z"/>
    <path class="cls-4" d="M45.57,46.74c.66-.03,.99-.04,1.65-.07-.04,.36-.07,.55-.11,.91,.67-.81,1.36-1.23,2.08-1.26,.82-.03,1.43,.32,1.82,1.02,.34,.6,.45,1.61,.33,3.01-.2,2.43-.3,3.65-.46,6.08-.69,.01-1.03,.02-1.72,.03,.16-2.21,.25-3.32,.45-5.53,.09-.97,.05-1.65-.11-2.01-.15-.37-.49-.55-.99-.53-.55,.02-.97,.28-1.25,.79-.28,.5-.49,1.37-.61,2.6-.19,1.9-.28,2.86-.44,4.76-.69,.02-1.03,.02-1.72,.04,.35-3.94,.57-5.91,1.07-9.85h0Z"/>
    <path class="cls-4" d="M55.85,39.91c.53,.3,.8,.45,1.34,.75-.99,2.36-1.49,3.54-2.51,5.9-.42-.24-.64-.37-1.05-.62,.89-2.41,1.34-3.63,2.22-6.04h0Z"/>
    <path class="cls-4" d="M64.99,51.81c-2.09,.01-3.13,.02-5.22,.05,0,.82,.18,1.47,.51,1.95,.33,.47,.77,.71,1.31,.71,.42,0,.78-.14,1.06-.42,.28-.27,.6-.79,.97-1.53,.56,.43,.84,.65,1.4,1.08-.23,.51-.47,.96-.73,1.33-.26,.37-.53,.67-.82,.91s-.6,.41-.93,.53c-.33,.11-.69,.17-1.08,.17-1.11,0-1.98-.46-2.61-1.41-.63-.95-.9-2.23-.82-3.82,.08-1.58,.47-2.87,1.15-3.85,.67-.97,1.53-1.47,2.57-1.48,1.04-.02,1.85,.44,2.43,1.38,.58,.93,.86,2.21,.82,3.87,0,.22-.01,.33-.02,.55h0Zm-1.67-1.88c-.2-1.23-.73-1.84-1.61-1.83-.2,0-.39,.05-.57,.13-.18,.09-.35,.21-.5,.38s-.29,.36-.4,.58c-.11,.23-.2,.49-.27,.77,1.34-.02,2.01-.03,3.35-.04h0Z"/>
    <path class="cls-4" d="M71.04,47.95c-.55,.41-.82,.61-1.37,1.02-.22-.62-.48-.93-.8-.93-.15,0-.28,.07-.39,.21s-.16,.32-.17,.54c0,.38,.32,.76,.95,1.14,.88,.52,1.48,1.02,1.79,1.46,.31,.44,.47,1.05,.47,1.8,0,.97-.25,1.78-.77,2.43-.5,.62-1.13,.93-1.86,.93-1.24,0-2.12-.82-2.61-2.45,.58-.37,.88-.55,1.46-.92,.2,.48,.35,.78,.45,.91,.2,.26,.45,.39,.74,.39,.58,0,.86-.36,.86-1.07,0-.41-.22-.8-.66-1.15-.17-.12-.34-.23-.51-.34-.17-.11-.34-.22-.51-.34-.49-.33-.82-.66-1.02-.98-.25-.42-.37-.95-.35-1.61,.01-.87,.24-1.6,.67-2.16,.44-.57,.97-.86,1.58-.86,.91,0,1.58,.66,2.04,1.99h.01Z"/>
    <path class="cls-4" d="M74.7,48.42c.07,3.14,.1,4.71,.15,7.85-.69,0-1.03,0-1.71,0-.04-3.14-.05-4.71-.1-7.86h-.71c0-.86-.02-1.3-.02-2.16h.7c-.02-1.47-.04-2.2-.06-3.67,.64,0,.97,0,1.61,.01,.04,1.47,.06,2.2,.09,3.67,.51,0,.77,0,1.28,.01,.02,.86,.04,1.29,.07,2.16-.51,0-.77,0-1.29-.01h0Z"/>
    <path class="cls-4" d="M84.11,61.78c-.7,0-1.04,0-1.74-.02-.17-5.14-.41-10.28-.72-15.42,.66,.01,.98,.02,1.64,.03,.03,.43,.04,.65,.07,1.08,.59-.89,1.28-1.33,2.11-1.31,.97,.02,1.82,.56,2.55,1.58,.73,1.02,1.18,2.28,1.31,3.8,.12,1.49-.11,2.72-.7,3.7-.59,.97-1.39,1.45-2.4,1.44-.87-.01-1.67-.49-2.4-1.44,.13,2.62,.19,3.93,.29,6.55h0Zm3.49-10.27c-.07-.95-.32-1.73-.75-2.34-.43-.62-.93-.93-1.5-.94-.61-.02-1.08,.27-1.42,.85-.34,.58-.49,1.35-.43,2.3,.05,.93,.29,1.71,.71,2.32,.41,.6,.94,.91,1.56,.92,.59,.01,1.06-.29,1.4-.87,.35-.59,.49-1.33,.42-2.23h0Z"/>
    <path class="cls-4" d="M95.84,46.8c.66,.03,.99,.04,1.65,.07,.56,3.92,.8,5.88,1.21,9.8-.69-.02-1.03-.03-1.72-.05-.04-.41-.06-.62-.1-1.03-.62,.86-1.34,1.27-2.15,1.26-1.03-.02-1.92-.54-2.66-1.54-.75-1.02-1.17-2.3-1.31-3.8-.13-1.48,.07-2.71,.61-3.68,.53-.97,1.27-1.43,2.23-1.39,.82,.03,1.62,.54,2.41,1.5-.06-.46-.09-.69-.15-1.14h0Zm-3.37,4.75c.09,.95,.35,1.73,.78,2.33,.44,.61,.96,.93,1.55,.94,.63,.02,1.12-.26,1.44-.82,.33-.58,.43-1.34,.33-2.26s-.39-1.69-.84-2.3c-.44-.6-.97-.91-1.58-.93-.57-.02-1.02,.26-1.33,.84-.31,.58-.43,1.33-.34,2.21h0Z"/>
    <path class="cls-4" d="M103.97,48.84c-.48,.37-.72,.55-1.21,.92-.31-.61-.63-.92-.95-.94-.15,0-.27,.05-.36,.19-.09,.13-.11,.31-.08,.52,.06,.38,.44,.76,1.13,1.15,.96,.55,1.64,1.05,2.01,1.5,.38,.44,.62,1.03,.72,1.76,.13,.93-.02,1.71-.46,2.32-.43,.58-1.02,.86-1.75,.84-1.24-.04-2.21-.86-2.91-2.48,.54-.34,.8-.51,1.34-.84,.26,.47,.45,.78,.58,.91,.24,.26,.5,.4,.79,.41,.58,.02,.82-.31,.72-1.01-.05-.4-.33-.78-.82-1.15-.18-.12-.37-.24-.55-.35s-.37-.23-.56-.35c-.53-.34-.92-.68-1.16-1-.31-.42-.51-.95-.6-1.59-.12-.85-.01-1.55,.33-2.08,.34-.53,.82-.78,1.44-.75,.91,.05,1.7,.73,2.36,2.03h0Z"/>
    <path class="cls-4" d="M113.56,41.04c.63,.06,.95,.09,1.58,.16,1.66,5.33,3.02,10.77,4.03,16.27-.69-.03-1.03-.05-1.72-.08-.07-.4-.11-.59-.18-.99-.52,.8-1.22,1.19-2.07,1.15-1.02-.04-1.94-.55-2.76-1.54-.82-1-1.35-2.24-1.62-3.7-.26-1.43-.17-2.6,.27-3.51,.44-.91,1.11-1.34,2.07-1.27,.83,.06,1.68,.57,2.56,1.52-.77-3.21-1.2-4.81-2.16-8.01h0Zm-1.02,11.37c.18,.91,.5,1.67,.97,2.26,.49,.6,1.03,.91,1.62,.94,.63,.03,1.1-.22,1.37-.75,.28-.55,.32-1.27,.13-2.15-.19-.88-.54-1.63-1.05-2.23-.5-.59-1.06-.9-1.66-.94-.57-.04-.99,.22-1.24,.76-.26,.55-.31,1.26-.14,2.12h0Z"/>
    <path class="cls-4" d="M127.09,53.88c-2.09-.15-3.13-.22-5.22-.36,.22,.77,.55,1.39,1,1.86,.44,.46,.94,.71,1.48,.75,.42,.02,.75-.08,.96-.31,.21-.23,.42-.68,.59-1.33,.67,.44,1,.66,1.68,1.09-.11,.45-.24,.84-.42,1.16-.17,.32-.38,.58-.61,.78s-.51,.34-.82,.42-.66,.11-1.04,.09c-1.11-.06-2.08-.55-2.93-1.48-.85-.93-1.43-2.15-1.77-3.64-.34-1.48-.33-2.66,.06-3.51,.38-.84,1.09-1.22,2.12-1.13,1.04,.09,2,.6,2.86,1.51,.86,.91,1.51,2.11,1.92,3.61,.05,.2,.07,.3,.12,.5h.01Zm-2.18-1.87c-.54-1.15-1.26-1.76-2.14-1.84-.2-.02-.38,0-.53,.07s-.29,.17-.39,.31c-.11,.14-.18,.31-.23,.51-.05,.2-.07,.43-.06,.7,1.34,.1,2.01,.15,3.35,.25h0Z"/>
    <path class="cls-4" d="M21.56,73.78c-.15,2.96-.19,4.45-.18,7.42-.71-.01-1.07-.02-1.79-.03,0-2.95,.03-4.43,.18-7.38h-.76c.04-.81,.07-1.22,.13-2.02,.3,0,.45,0,.76,0,.09-1.38,.15-2.07,.29-3.45,.71-.01,1.06-.02,1.77-.03-.13,1.39-.18,2.08-.27,3.46,.55,0,.83,0,1.38-.01-.05,.82-.08,1.23-.12,2.04-.55,0-.83,0-1.38,0h0Z"/>
    <path class="cls-4" d="M30.08,71.68c.71,0,1.07,0,1.78-.01-.2,3.87-.24,5.8-.24,9.67-.72,0-1.08-.01-1.79-.02v-1.01c-.74,.85-1.53,1.27-2.37,1.26-1.07-.02-1.97-.51-2.65-1.47-.69-.97-1.02-2.19-.97-3.65,.04-1.43,.44-2.61,1.19-3.57s1.64-1.44,2.67-1.45c.89,0,1.67,.44,2.33,1.37,.02-.45,.03-.67,.06-1.12Zm-4.42,4.78c-.02,.91,.16,1.66,.55,2.24,.4,.59,.91,.88,1.53,.89,.66,0,1.21-.27,1.61-.84,.42-.58,.63-1.33,.65-2.23,.02-.91-.15-1.66-.54-2.23-.38-.57-.9-.86-1.55-.85-.61,0-1.14,.29-1.57,.87-.43,.58-.66,1.3-.69,2.16h0Z"/>
    <path class="cls-4" d="M40.85,73.73c-.09,3.08-.11,4.62-.11,7.71-.72,0-1.08-.01-1.79-.02,0-3.07,.02-4.62,.11-7.69h-.63c.03-.84,.04-1.26,.08-2.11h.63c.06-1.51,.1-2.27,.19-3.78,.07-1.23,.3-2.11,.66-2.62,.51-.71,1.19-1.08,2.07-1.1,.31,0,.69,.11,1.15,.33-.06,.93-.09,1.39-.13,2.32-.07-.05-.11-.07-.18-.12-.37-.24-.67-.37-.92-.36-.31,0-.53,.15-.66,.44-.13,.28-.21,.83-.25,1.64-.07,1.29-.1,1.94-.15,3.24,.77,0,1.16,0,1.93,0-.03,.85-.04,1.27-.07,2.12h-1.94Z"/>
    <path class="cls-4" d="M49.79,71.57c.71,0,1.07,0,1.78,0-.09,3.98-.12,5.97-.11,9.95-.72,0-1.08,0-1.79-.01v-1.04c-.74,.88-1.53,1.32-2.37,1.31-1.07,0-1.97-.51-2.65-1.5-.69-1-1.03-2.27-1-3.78,.02-1.48,.4-2.71,1.12-3.7,.72-.99,1.6-1.49,2.63-1.49,.89,0,1.68,.47,2.37,1.42,.01-.46,.02-.69,.03-1.15h0Zm-4.33,4.93c-.02,.95,.18,1.73,.57,2.32,.4,.6,.92,.91,1.53,.91,.66,0,1.2-.29,1.61-.87,.41-.6,.62-1.37,.63-2.3,.01-.93-.18-1.7-.58-2.3-.39-.59-.91-.88-1.56-.88-.61,0-1.14,.3-1.55,.9-.42,.6-.64,1.35-.65,2.23h0Z"/>
    <path class="cls-4" d="M55.59,71.56c-.04,2.29-.06,3.44-.07,5.73-.01,1.66,.49,2.48,1.5,2.49,1.01,0,1.52-.82,1.53-2.48,.01-2.3,.02-3.45,.06-5.74h1.77c-.03,2.32-.04,3.48-.05,5.8,0,.8-.08,1.5-.24,2.08-.14,.52-.41,.99-.77,1.41-.6,.68-1.37,1.01-2.3,1.01-.93,0-1.69-.35-2.3-1.03-.37-.42-.63-.89-.78-1.41-.14-.46-.22-1.15-.21-2.07,.02-2.31,.04-3.47,.09-5.77,.71,0,1.06,0,1.77,0h0Z"/>
    <path class="cls-4" d="M64.44,73.7c-.02,3.15-.02,4.72-.02,7.87h-1.79c0-3.15,0-4.72,.03-7.87h-.76c0-.86,.01-1.3,.02-2.16h.76c.01-1.47,.02-2.2,.04-3.67,.71,0,1.06,0,1.77,0-.02,1.47-.02,2.21-.03,3.67h1.38c0,.86,0,1.3-.01,2.16h-1.39Z"/>
    <path class="cls-4" d="M74.2,77.1h-5.53c.05,.82,.25,1.48,.62,1.97,.36,.48,.83,.72,1.4,.72,.44,0,.82-.14,1.11-.41,.29-.27,.61-.78,.97-1.53,.6,.44,.91,.66,1.51,1.09-.23,.51-.48,.96-.74,1.33s-.54,.67-.83,.91c-.3,.24-.62,.41-.96,.52-.34,.11-.72,.17-1.12,.17-1.15,0-2.08-.48-2.78-1.44-.7-.97-1.05-2.26-1.04-3.85,0-1.59,.34-2.88,1.02-3.85,.67-.97,1.58-1.45,2.7-1.45s2.03,.47,2.69,1.41c.66,.93,.99,2.23,1,3.88,0,.22,0,.33,0,.55h0Zm-1.84-1.9c-.25-1.24-.85-1.86-1.8-1.86-.22,0-.42,.04-.61,.13-.19,.09-.36,.21-.52,.37-.15,.16-.29,.35-.4,.58-.11,.23-.2,.49-.25,.77h3.58Z"/>
    <path class="cls-4" d="M77.26,78.59c.64,.32,.95,.48,1.59,.8-.9,2.35-1.35,3.53-2.27,5.88-.48-.26-.72-.39-1.2-.64,.76-2.42,1.14-3.63,1.88-6.04h0Z"/>
    <path class="cls-4" d="M87.97,73.71c.06,3.12,.07,4.69,.07,7.81-.71,0-1.07,0-1.79,0,0-3.13,0-4.7-.06-7.83h-.76c-.01-.86-.02-1.29-.04-2.15h.76c-.03-1.46-.05-2.19-.09-3.65,.71,0,1.06,0,1.77,.01,.05,1.46,.07,2.19,.1,3.65,.55,0,.83,0,1.38,0,.02,.86,.03,1.28,.05,2.15h-1.39Z"/>
    <path class="cls-4" d="M92.29,71.58c.07,2.28,.09,3.41,.12,5.69,.02,1.64,.53,2.46,1.54,2.46,1.01,0,1.52-.83,1.49-2.46-.03-2.27-.06-3.4-.13-5.67,.71,0,1.06,0,1.77,0,.08,2.28,.11,3.42,.14,5.71,.01,.79-.06,1.48-.21,2.05-.14,.51-.4,.98-.77,1.39-.6,.67-1.37,1.02-2.3,1.02-.93,0-1.69-.32-2.29-.99-.37-.41-.63-.88-.79-1.39-.14-.46-.23-1.15-.24-2.06-.02-2.3-.04-3.45-.11-5.75,.71,0,1.06,0,1.77,0h0Z"/>
    <path class="cls-4" d="M104.3,71.64c.71,0,1.07,0,1.78,.01,.02,.36,.02,.54,.04,.9,.59-.77,1.26-1.16,2.04-1.15,.89,0,1.61,.37,2.15,1.07,.46,.6,.73,1.58,.77,2.94,.08,2.36,.09,3.54,.09,5.9-.72,0-1.08,.01-1.79,.02,0-2.16,0-3.24-.07-5.4-.03-.95-.16-1.61-.38-1.97-.22-.37-.6-.56-1.15-.56-.59,0-1,.24-1.23,.73-.22,.48-.32,1.33-.29,2.54,.04,1.88,.05,2.81,.04,4.69-.72,0-1.08,.01-1.79,.02,0-3.9-.03-5.85-.21-9.74h0Z"/>
    <path class="cls-4" d="M114.33,65.48c.66,.32,.98,.48,1.64,.8-.66,2.21-1.02,3.32-1.79,5.56-.49-.25-.74-.38-1.24-.63,.6-2.3,.88-3.45,1.39-5.73h0Z"/>
    <path class="cls-4" d="M121.19,79.41c-1.42-3.04-2.18-4.58-3.76-7.68,.82,0,1.24,.01,2.06,.02,1.09,2.17,1.61,3.25,2.62,5.4,.82-2.16,1.21-3.23,1.92-5.36,.8,0,1.2,.01,2,.02-1.74,4.92-3.75,9.74-5.93,14.48-.82,.02-1.22,.04-2.04,.06,1.32-2.8,1.95-4.19,3.12-6.95h0Z"/>
    <path class="cls-4" d="M32.77,101.45c-2.15-.12-3.22-.18-5.37-.31,.15,.79,.44,1.43,.86,1.92,.42,.48,.9,.74,1.45,.78,.43,.03,.77-.08,1.01-.33,.24-.24,.49-.72,.75-1.41,.64,.45,.95,.68,1.59,1.14-.16,.49-.35,.9-.55,1.24-.2,.34-.43,.61-.68,.82-.25,.21-.53,.35-.84,.44-.31,.08-.66,.11-1.04,.09-1.1-.08-2.06-.6-2.87-1.57-.82-.97-1.34-2.21-1.54-3.73-.2-1.5-.02-2.71,.55-3.61,.56-.88,1.42-1.31,2.53-1.26,1.12,.05,2.04,.54,2.78,1.48,.73,.93,1.17,2.19,1.34,3.79,.02,.21,.03,.31,.05,.53h-.01Zm-1.99-1.93c-.37-1.2-1.02-1.82-1.95-1.87-.21-.01-.41,.02-.59,.09s-.33,.18-.47,.33c-.13,.15-.24,.33-.33,.53-.09,.21-.14,.45-.16,.72,1.4,.08,2.1,.12,3.5,.19h0Z"/>
    <path class="cls-4" d="M38.7,98c-.55,.38-.82,.56-1.37,.94-.28-.61-.59-.92-.92-.94-.16,0-.29,.06-.4,.19s-.14,.31-.13,.52c.03,.38,.41,.76,1.11,1.15,.97,.55,1.63,1.06,1.99,1.51,.36,.45,.57,1.04,.64,1.78,.09,.95-.09,1.73-.55,2.34-.44,.58-1.02,.84-1.75,.8-1.24-.07-2.22-.92-2.93-2.54,.54-.32,.82-.48,1.37-.81,.26,.48,.44,.78,.57,.91,.24,.27,.5,.4,.79,.42,.58,.03,.83-.3,.76-1-.04-.4-.31-.79-.79-1.16-.19-.12-.37-.24-.56-.35-.18-.11-.38-.23-.57-.35-.53-.35-.92-.68-1.16-1.01-.3-.42-.49-.95-.55-1.59-.08-.84,.09-1.54,.49-2.07,.41-.53,.96-.79,1.62-.77,.97,.04,1.74,.71,2.31,2.02h0Z"/>
    <path class="cls-4" d="M48.46,111.92c-.67-.03-1-.04-1.67-.08-.54-5.09-.94-10.18-1.22-15.29,.7,.02,1.05,.03,1.76,.04,.02,.43,.03,.65,.05,1.08,.64-.88,1.41-1.32,2.29-1.3,1.05,.02,1.93,.55,2.65,1.57s1.12,2.29,1.19,3.83c.07,1.5-.2,2.74-.8,3.72-.6,.97-1.39,1.44-2.39,1.41-.86-.03-1.67-.53-2.43-1.48,.2,2.61,.31,3.91,.57,6.51h0Zm3.28-10.19c-.05-.95-.29-1.74-.71-2.35-.43-.62-.95-.93-1.55-.95-.64-.02-1.15,.26-1.51,.84-.37,.58-.52,1.33-.46,2.28,.06,.93,.31,1.7,.75,2.32,.43,.6,.96,.92,1.59,.94,.6,.02,1.06-.27,1.42-.85,.35-.59,.52-1.33,.47-2.23h0Z"/>
    <path class="cls-4" d="M54.99,101.68c-.06-1.44,.28-2.66,1.03-3.66s1.7-1.49,2.83-1.48c1.13,.01,2.12,.53,2.92,1.57,.8,1.02,1.21,2.29,1.24,3.78,.03,1.5-.33,2.77-1.07,3.77-.74,1-1.67,1.49-2.78,1.47-1.11-.02-2.06-.56-2.85-1.6-.8-1.03-1.24-2.31-1.31-3.85h0Zm1.77,.08c.04,1,.27,1.8,.69,2.39,.43,.6,.98,.9,1.65,.91,.67,.01,1.2-.27,1.58-.85,.39-.58,.57-1.35,.54-2.33-.02-.97-.24-1.76-.67-2.34-.43-.6-.98-.9-1.66-.91-.67,0-1.2,.28-1.6,.86-.4,.58-.58,1.34-.54,2.27h0Z"/>
    <path class="cls-4" d="M66.53,96.88c.02,2.31,.03,3.46,.05,5.77,.02,1.66,.51,2.5,1.48,2.5,.97,0,1.46-.83,1.46-2.5,0-2.31,0-3.46,0-5.77h1.76c0,2.33-.01,3.49-.02,5.82,0,.81-.08,1.51-.23,2.09-.14,.52-.39,1-.74,1.42-.58,.68-1.31,1.02-2.2,1.02-.88,0-1.61-.35-2.21-1.03-.36-.42-.62-.9-.77-1.42-.14-.46-.23-1.17-.25-2.09-.04-2.33-.05-3.49-.08-5.82,.7,0,1.05,0,1.76,0h0Z"/>
    <path class="cls-4" d="M73.49,96.88c.7,0,1.05,0,1.76,0,0,.36,0,.54-.01,.9,.33-.45,.62-.76,.87-.93,.26-.17,.56-.26,.91-.27,.46,0,.95,.19,1.44,.58-.34,.85-.51,1.28-.84,2.13-.33-.31-.65-.47-.96-.46-.95,0-1.44,.97-1.47,2.88-.03,2.08-.05,3.13-.09,5.21-.68,0-1.02,0-1.7,.01,.05-4.03,.07-6.04,.1-10.06h0Z"/>
    <path class="cls-4" d="M84.4,96.77c.7-.01,1.05-.02,1.76-.03-.01,.35-.02,.53-.03,.89,.34-.45,.64-.76,.89-.93,.26-.18,.57-.27,.92-.27,.46,0,.94,.18,1.43,.56-.36,.85-.54,1.27-.9,2.12-.32-.31-.63-.46-.95-.45-.95,.02-1.46,.98-1.55,2.88-.09,2.07-.15,3.11-.27,5.18-.68,.02-1.02,.03-1.7,.04,.2-4,.29-6,.41-10h0Z"/>
    <path class="cls-4" d="M90.51,92.52c.01-.4,.13-.75,.37-1.05,.23-.3,.51-.45,.82-.45,.32,0,.59,.14,.81,.42,.21,.28,.32,.63,.3,1.04s-.14,.77-.38,1.06c-.23,.29-.51,.45-.82,.46s-.59-.13-.8-.42c-.22-.29-.31-.64-.3-1.06h0Zm1.86,4.09c-.19,3.97-.32,5.95-.64,9.93-.68,.02-1.02,.04-1.7,.06,.29-3.98,.41-5.97,.59-9.95,.7-.02,1.05-.02,1.76-.04h0Z"/>
    <path class="cls-4" d="M101.09,101.76c-2.15,.1-3.22,.14-5.37,.22-.02,.81,.13,1.45,.44,1.91,.31,.46,.74,.68,1.29,.65,.43-.02,.8-.17,1.1-.45,.3-.28,.66-.8,1.08-1.54,.54,.4,.82,.6,1.35,1-.28,.51-.56,.96-.84,1.33-.29,.37-.58,.68-.89,.93-.31,.24-.63,.43-.97,.55s-.7,.2-1.08,.21c-1.1,.05-1.94-.38-2.52-1.3-.59-.93-.82-2.18-.71-3.76,.11-1.57,.51-2.85,1.24-3.83,.72-.97,1.64-1.48,2.75-1.51,1.12-.03,1.98,.4,2.56,1.29,.58,.89,.8,2.14,.65,3.76-.02,.21-.03,.32-.06,.53h0Zm-1.62-1.77c-.14-1.2-.69-1.79-1.62-1.75-.21,0-.42,.06-.61,.15s-.37,.22-.53,.38c-.16,.16-.31,.36-.43,.59-.12,.23-.22,.48-.3,.77,1.4-.05,2.1-.07,3.5-.13h0Z"/>
    <path class="cls-4" d="M103.45,96.26c.71-.03,1.06-.04,1.77-.07-.03,.36-.04,.54-.07,.9,.68-.8,1.4-1.22,2.17-1.25,.88-.04,1.55,.29,1.97,.97,.37,.58,.49,1.55,.33,2.91-.27,2.36-.42,3.54-.76,5.91-.69,.04-1.03,.07-1.71,.11,.3-2.16,.44-3.24,.67-5.4,.11-.95,.06-1.61-.11-1.96s-.52-.53-1.05-.51c-.58,.02-1.02,.29-1.3,.8-.28,.5-.48,1.35-.6,2.57-.2,1.88-.31,2.82-.54,4.7-.69,.04-1.03,.06-1.71,.1,.47-3.91,.66-5.86,.95-9.76h0Z"/>
    <path class="cls-4" d="M114.35,89.56c.62,.29,.92,.42,1.53,.71-1.04,2.27-1.59,3.41-2.7,5.7-.45-.22-.68-.34-1.13-.56,.95-2.34,1.42-3.52,2.3-5.84h0Zm3.16-.11c.61,.28,.92,.42,1.53,.7-1.06,2.25-1.6,3.38-2.73,5.66-.45-.22-.67-.33-1.13-.55,.97-2.33,1.44-3.49,2.32-5.81Z"/>
  </g>
</svg>