<?xml version="1.0" encoding="UTF-8"?>
<svg id="Calque_1" data-name="Calque 1" xmlns="http://www.w3.org/2000/svg" viewBox="0 0 313 313">
  <defs>
    <style>
      .cls-1 {
        fill: #f4f6f9;
      }

      .cls-2 {
        fill: #fff;
      }

      .cls-3 {
        fill: #cfdbef;
      }

      .cls-4 {
        fill: #6471af;
      }
    </style>
  </defs>
  <g>
    <circle class="cls-3" cx="156.5" cy="156.5" r="156.06"/>
    <path class="cls-2" d="M156.5,312.99C70.21,312.99,0,242.79,0,156.5S70.21,0,156.5,0s156.5,70.21,156.5,156.5-70.21,156.5-156.5,156.5h0ZM156.5,.89C70.69,.89,.89,70.69,.89,156.5s69.81,155.61,155.61,155.61,155.61-69.81,155.61-155.61S242.3,.89,156.5,.89Z"/>
  </g>
  <path class="cls-1" d="M181.43,16.33c12.93,1.42,41.41,6.23,67.1,32.01,1.17,1.17,19.04,19.4,13.83,29.08-1.98,3.68-7.26,6.06-11.17,4.96-4.59-1.29-6-7.03-9.13-14.01,0,0-4.25-9.48-15.19-23.13-15.43-19.24-45.45-28.93-45.45-28.93h0Z"/>
  <path class="cls-1" d="M265.3,87.25c-1.91-1.1-4.81-.22-5.61,2.04-.77,2.19,.76,4.76,3.06,5.1,2.07,.3,4.03-1.31,4.33-3.32,.22-1.48-.48-3.08-1.78-3.82h0Z"/>
  <g>
    <path class="cls-4" d="M33.13,124.98c-.98-.54-1.47-.82-2.43-1.35,4.14-4.45,6.34-6.69,10.94-11.2,.6,.42,.91,.63,1.53,1.05-4.26,4.62-6.28,6.91-10.04,11.49h0Zm6.38-.27c-1-.55-1.49-.82-2.46-1.37,4.03-4.49,6.17-6.75,10.62-11.28,.62,.43,.93,.64,1.58,1.06-4.12,4.65-6.08,6.97-9.72,11.58h0Z"/>
    <path class="cls-4" d="M70.48,112.12c-3.71,7.97-5.21,11.95-7.48,19.92-.68,2.38-1.27,4.17-1.81,5.33-.6,1.31-1.31,2.46-2.17,3.39-1.69,1.83-3.59,2.77-5.76,2.79-1.64,.02-3.08-.46-4.27-1.44,1.11-1.58,1.68-2.38,2.84-3.96,.75,.74,1.55,1.09,2.38,1.08,1.16-.02,2.07-.57,2.77-1.61,.71-1.05,1.41-2.89,2.19-5.5,2.36-7.93,3.92-11.9,7.77-19.84,1.42-.07,2.13-.11,3.55-.17h0Z"/>
    <path class="cls-4" d="M82.41,133.86c-4.61,.08-6.91,.12-11.51,.21-.29,1.6-.13,2.88,.43,3.82,.57,.92,1.47,1.38,2.68,1.37,.93,0,1.76-.29,2.47-.84,.7-.54,1.58-1.55,2.63-3.02,1.08,.83,1.63,1.26,2.74,2.1-.67,1.02-1.34,1.9-2.01,2.62-.66,.73-1.35,1.33-2.05,1.81-.7,.47-1.43,.82-2.2,1.05-.76,.22-1.57,.34-2.42,.35-2.45,.03-4.27-.9-5.38-2.75-1.12-1.86-1.31-4.35-.5-7.46,.81-3.08,2.27-5.61,4.25-7.55,1.97-1.92,4.11-2.93,6.37-3,2.28-.07,3.79,.81,4.61,2.62,.82,1.8,.83,4.34,.13,7.6-.1,.43-.15,.65-.25,1.07h0Zm-2.94-3.64c.09-2.42-.78-3.6-2.71-3.55-.44,0-.88,.11-1.31,.28-.43,.18-.86,.43-1.27,.75-.41,.32-.79,.71-1.14,1.15-.35,.45-.66,.96-.94,1.52,2.95-.07,4.43-.1,7.38-.16h0Z"/>
    <path class="cls-4" d="M101.93,126.8c-1.23,6.28-1.71,9.42-2.42,15.7-1.52,0-2.27,.02-3.79,.03,.74-6.27,1.26-9.4,2.56-15.66-.62,0-.93,.02-1.55,.03,.36-1.72,.56-2.58,.97-4.3,.61-.02,.92-.02,1.53-.04,.68-2.93,1.05-4.39,1.85-7.31,1.39-.04,2.09-.05,3.48-.09-.75,2.93-1.11,4.4-1.75,7.33,1.12-.03,1.68-.04,2.79-.05-.36,1.73-.53,2.59-.85,4.32-1.13,.02-1.7,.03-2.83,.05h0Z"/>
    <path class="cls-4" d="M121.06,133.35c-4.61,.04-6.91,.06-11.51,.12-.12,1.65,.14,2.97,.8,3.94,.65,.96,1.59,1.44,2.79,1.42,.93,0,1.74-.29,2.4-.85,.66-.55,1.44-1.59,2.37-3.08,1.16,.87,1.75,1.3,2.93,2.17-.59,1.05-1.18,1.93-1.79,2.68-.61,.74-1.25,1.36-1.91,1.83-.66,.48-1.37,.83-2.12,1.05s-1.55,.34-2.4,.35c-2.45,.02-4.33-.94-5.59-2.85-1.26-1.92-1.67-4.49-1.18-7.69,.48-3.17,1.64-5.77,3.38-7.74,1.72-1.96,3.73-2.97,5.99-3.01,2.28-.04,3.92,.88,4.98,2.76,1.05,1.86,1.39,4.46,1.02,7.8-.05,.44-.08,.66-.13,1.1h-.02Zm-3.33-3.77c-.19-2.48-1.21-3.71-3.15-3.68-.44,0-.87,.1-1.29,.27s-.81,.43-1.18,.76-.71,.72-1,1.18c-.3,.46-.56,.98-.76,1.56,2.95-.04,4.43-.06,7.38-.09h0Z"/>
    <path class="cls-4" d="M145.3,125.38c-1.25,.83-1.88,1.25-3.14,2.08-.4-1.25-.94-1.87-1.63-1.87-.34,0-.63,.15-.89,.43s-.41,.66-.43,1.1c-.06,.78,.59,1.54,1.96,2.3,1.88,1.05,3.15,2.05,3.79,2.94,.64,.9,.92,2.12,.87,3.65-.08,1.97-.72,3.63-1.92,4.94-1.16,1.26-2.57,1.89-4.18,1.89-2.75,0-4.64-1.65-5.56-4.96,1.33-.74,1.99-1.13,3.31-1.87,.38,.98,.69,1.59,.91,1.85,.43,.52,.96,.79,1.6,.79,1.27,0,1.93-.73,2-2.18,.04-.83-.41-1.61-1.34-2.33-.36-.23-.73-.46-1.08-.68-.36-.22-.73-.45-1.1-.68-1.04-.66-1.75-1.33-2.13-1.99-.5-.84-.68-1.93-.58-3.27,.15-1.76,.75-3.24,1.78-4.39,1.04-1.16,2.25-1.75,3.6-1.76,1.99-.02,3.35,1.32,4.18,4h-.02Z"/>
    <path class="cls-4" d="M148.54,131.92c.12-2.94,1.05-5.44,2.76-7.52,1.7-2.07,3.69-3.11,5.98-3.11s4.27,1.04,5.89,3.11c1.6,2.07,2.44,4.64,2.46,7.66,.02,3.06-.81,5.63-2.49,7.69-1.68,2.05-3.8,3.08-6.28,3.08-2.46,0-4.5-1.05-6.11-3.13-1.59-2.06-2.33-4.65-2.21-7.77h0Zm3.78,.06c-.06,2.04,.33,3.65,1.17,4.83,.85,1.2,2.03,1.8,3.48,1.79,1.47,0,2.65-.59,3.54-1.78s1.32-2.77,1.33-4.75c0-1.98-.42-3.56-1.26-4.75-.85-1.2-1.98-1.8-3.39-1.79-1.39,0-2.53,.6-3.43,1.81-.9,1.21-1.39,2.75-1.44,4.64Z"/>
    <path class="cls-4" d="M172.94,121.87c.16,4.67,.22,7.01,.34,11.69,.08,3.38,1.17,5.06,3.3,5.07,2.13,0,3.14-1.68,3.01-5.05-.19-4.67-.29-7.01-.55-11.68,1.44,0,2.15,0,3.59,.02,.32,4.71,.45,7.06,.68,11.78,.08,1.63,0,3.05-.29,4.22-.26,1.05-.77,2.01-1.52,2.86-1.23,1.37-2.84,2.07-4.81,2.07s-3.6-.7-4.89-2.08c-.8-.85-1.36-1.83-1.69-2.87-.31-.94-.5-2.36-.52-4.23-.07-4.72-.12-7.08-.2-11.8,1.44,0,2.15,0,3.59,0h-.02Z"/>
    <path class="cls-4" d="M191.25,126.36c.55,6.37,.77,9.56,1.09,15.94-1.52,0-2.27,0-3.79,0-.27-6.38-.46-9.57-.95-15.95-.62,0-.93,0-1.55,0-.12-1.76-.19-2.63-.33-4.38,.61,0,.92,0,1.53,0-.25-2.98-.39-4.47-.68-7.45,1.39,.02,2.09,.02,3.48,.04,.34,2.98,.5,4.47,.79,7.44,1.12,0,1.68,.02,2.79,.03,.19,1.75,.27,2.62,.44,4.37-1.13,0-1.7-.02-2.83-.03h0Z"/>
    <path class="cls-4" d="M194.48,113.6c-.12-.82,0-1.52,.36-2.11,.35-.59,.82-.88,1.44-.87,.62,0,1.2,.32,1.73,.92,.52,.59,.87,1.3,1,2.15,.13,.84,.02,1.56-.34,2.15-.35,.59-.84,.88-1.48,.87-.64,0-1.21-.31-1.75-.91s-.84-1.33-.96-2.2h0Zm5.19,8.47c1.04,8.1,1.44,12.15,1.97,20.26-1.52,0-2.27,0-3.79-.02-.48-8.12-.84-12.17-1.77-20.28,1.44,.02,2.15,.03,3.59,.04Z"/>
    <path class="cls-4" d="M220.25,133.5c-4.61-.05-6.91-.08-11.51-.12,.28,1.66,.85,2.99,1.72,3.97,.86,.98,1.9,1.46,3.1,1.47,.93,0,1.68-.27,2.23-.81,.54-.54,1.11-1.56,1.68-3.04,1.37,.89,2.06,1.33,3.43,2.22-.35,1.03-.77,1.91-1.24,2.63-.46,.74-.99,1.33-1.57,1.81-.58,.47-1.22,.82-1.93,1.03-.71,.21-1.49,.32-2.34,.32-2.45-.02-4.49-.99-6.13-2.94-1.64-1.96-2.6-4.56-2.94-7.78-.35-3.2,.02-5.8,1.12-7.74,1.09-1.92,2.76-2.88,5.02-2.84,2.28,.04,4.25,1.01,5.93,2.92,1.67,1.9,2.8,4.49,3.3,7.81,.06,.43,.09,.66,.14,1.09h0Zm-4.35-3.84c-.89-2.48-2.32-3.74-4.25-3.78-.44,0-.84,.07-1.21,.24s-.68,.41-.95,.74c-.27,.32-.49,.71-.66,1.16s-.27,.97-.32,1.55c2.95,.04,4.43,.05,7.38,.09h0Z"/>
    <path class="cls-4" d="M222.27,122.44c1.44,.03,2.16,.04,3.6,.07,.17,.74,.25,1.11,.41,1.84,.92-1.58,2.13-2.34,3.71-2.3,1.8,.04,3.4,.82,4.77,2.29,1.18,1.26,2.13,3.29,2.72,6.09,1.04,4.87,1.45,7.3,2.11,12.18-1.52-.02-2.28-.02-3.8-.04-.57-4.45-.93-6.67-1.79-11.12-.38-1.96-.9-3.32-1.49-4.08-.59-.76-1.44-1.17-2.54-1.19-1.21-.03-1.95,.47-2.26,1.47-.3,.98-.21,2.73,.21,5.22,.65,3.86,.92,5.79,1.37,9.65-1.52,0-2.28-.02-3.8-.03-.87-8.02-1.52-12.03-3.21-20.04v-.02Z"/>
    <path class="cls-4" d="M250.21,126.45c-.97,.77-1.46,1.15-2.46,1.92-.8-1.22-1.55-1.84-2.25-1.86-.34,0-.59,.12-.74,.4s-.19,.62-.08,1.05c.2,.75,1.09,1.52,2.68,2.3,2.2,1.07,3.76,2.07,4.64,2.95s1.5,2.07,1.82,3.55c.4,1.9,.12,3.48-.83,4.73-.9,1.2-2.21,1.79-3.81,1.77-2.75-.03-4.9-1.67-6.59-4.92,1.16-.71,1.73-1.06,2.87-1.76,.62,.96,1.07,1.56,1.35,1.82,.55,.52,1.13,.78,1.77,.79,1.27,.02,1.78-.67,1.51-2.07-.16-.81-.81-1.57-1.92-2.29-.43-.24-.84-.46-1.27-.69-.42-.22-.85-.45-1.29-.69-1.21-.66-2.11-1.33-2.69-1.99-.74-.83-1.26-1.91-1.57-3.21-.42-1.72-.32-3.15,.3-4.23,.63-1.1,1.61-1.63,2.96-1.59,1.99,.05,3.88,1.4,5.6,4.02h0Z"/>
    <path class="cls-4" d="M259.51,137.03c1.47,.65,2.21,.98,3.68,1.62-.9,4.54-1.5,6.82-2.93,11.39-1.09-.51-1.64-.77-2.73-1.29,1.05-4.71,1.45-7.06,1.98-11.73h0Z"/>
    <path class="cls-4" d="M25.6,175.9c.97,5.87,1.72,8.8,3.8,14.67-1.49-.07-2.23-.11-3.72-.18-2.14-5.83-2.92-8.76-3.9-14.59-.66-.02-.98-.03-1.63-.04-.27-1.6-.39-2.4-.58-4,.66,.02,.98,.02,1.64,.04-.32-2.73-.41-4.1-.48-6.82,1.54,.02,2.31,.03,3.86,.04,.06,2.74,.16,4.11,.46,6.85,1.2,.03,1.79,.04,2.99,.06,.18,1.62,.28,2.43,.54,4.05-1.19-.04-1.78-.04-2.98-.08h0Z"/>
    <path class="cls-4" d="M34.48,172.07c.45,4.34,.81,6.52,1.82,10.87,.73,3.14,2.28,4.74,4.4,4.83,2.12,.08,2.71-1.45,2.03-4.62-.95-4.38-1.29-6.57-1.72-10.95,1.53,.03,2.3,.04,3.84,.07,.42,4.44,.75,6.66,1.69,11.1,.32,1.53,.49,2.87,.43,3.95-.04,.98-.35,1.86-.89,2.63-.89,1.24-2.27,1.82-4.21,1.74-1.92-.09-3.73-.8-5.4-2.14-1.02-.82-1.83-1.75-2.45-2.72-.55-.89-1.08-2.2-1.5-3.93-1.05-4.36-1.43-6.54-1.89-10.91,1.53,.04,2.3,.04,3.84,.08h0Z"/>
    <path class="cls-4" d="M60.48,172.53c1.54,.03,2.31,.04,3.86,.06,.05,.72,.09,1.08,.15,1.81,1.2-1.54,2.67-2.3,4.35-2.28,1.93,.03,3.48,.77,4.68,2.22,1.03,1.24,1.67,3.25,2.01,6.04,.6,4.84,1.01,7.26,2.06,12.09-1.5-.04-2.24-.07-3.73-.12-.99-4.4-1.39-6.6-2-10.98-.27-1.94-.66-3.29-1.18-4.03-.52-.75-1.37-1.15-2.54-1.17-1.27-.03-2.13,.46-2.54,1.44-.41,.97-.45,2.67-.06,5.11,.61,3.78,.99,5.66,1.91,9.43-1.5-.05-2.24-.08-3.74-.13-1.97-7.79-2.61-11.69-3.24-19.47h0Z"/>
    <path class="cls-4" d="M83.05,159.87c1.36,.64,2.03,.96,3.4,1.6-2.02,4.66-2.95,6.99-4.59,11.63-1.07-.52-1.6-.79-2.68-1.31,1.35-4.75,2.13-7.14,3.87-11.91h0Z"/>
    <path class="cls-4" d="M107.01,184.25c-4.7-.07-7.06-.11-11.75-.2,.29,1.65,.9,2.97,1.8,3.95,.9,.98,1.95,1.47,3.15,1.5,.93,.02,1.68-.24,2.21-.78,.53-.53,1.09-1.54,1.7-3.02,1.37,.9,2.06,1.35,3.42,2.24-.37,1.03-.79,1.91-1.23,2.63-.45,.73-.95,1.32-1.5,1.78-.55,.46-1.17,.8-1.85,1-.68,.2-1.44,.29-2.28,.27-2.4-.05-4.49-1.06-6.25-3.01-1.76-1.96-2.89-4.53-3.25-7.71-.36-3.16,.14-5.72,1.47-7.63,1.32-1.91,3.24-2.85,5.67-2.84,2.45,.03,4.42,.98,5.94,2.88,1.52,1.89,2.38,4.49,2.67,7.82,.04,.43,.05,.66,.08,1.1h0Zm-4.24-3.85c-.74-2.48-2.09-3.73-4.13-3.76-.46,0-.9,.07-1.29,.24s-.75,.41-1.05,.73c-.31,.32-.57,.7-.76,1.15-.2,.45-.34,.96-.41,1.53,3.06,.04,4.59,.07,7.66,.11h0Z"/>
    <path class="cls-4" d="M120.23,176.65c-1.23,.82-1.84,1.22-3.06,2.03-.57-1.25-1.21-1.88-1.95-1.89-.35,0-.65,.13-.88,.42-.23,.28-.34,.65-.31,1.09,.04,.77,.83,1.55,2.35,2.33,2.08,1.08,3.51,2.08,4.27,3s1.19,2.13,1.31,3.65c.15,1.96-.27,3.61-1.29,4.89-.98,1.23-2.26,1.83-3.84,1.81-2.69-.04-4.82-1.74-6.32-5.05,1.21-.72,1.81-1.07,3.02-1.8,.54,.98,.94,1.6,1.2,1.86,.51,.53,1.08,.81,1.71,.82,1.27,.02,1.83-.69,1.7-2.14-.07-.83-.63-1.61-1.68-2.35-.4-.24-.8-.47-1.2-.7-.4-.23-.81-.46-1.21-.7-1.15-.67-1.99-1.36-2.48-2.02-.64-.85-1.01-1.94-1.09-3.26-.12-1.76,.31-3.21,1.25-4.33,.95-1.13,2.17-1.7,3.62-1.69,2.13,.02,3.75,1.37,4.89,4.05h-.02Z"/>
    <path class="cls-4" d="M140.77,204.79c-1.44-.02-2.16-.03-3.6-.04-.95-10.47-1.53-20.96-1.76-31.47,1.53,0,2.3,0,3.84,.02,.02,.89,.03,1.33,.04,2.22,1.47-1.85,3.18-2.77,5.11-2.77,2.29,0,4.18,1.06,5.68,3.11,1.51,2.06,2.3,4.65,2.36,7.78,.05,3.07-.63,5.61-2.02,7.65-1.38,2.02-3.14,3.02-5.32,3.01-1.88,0-3.62-.98-5.21-2.91,.28,5.35,.45,8.03,.88,13.39h0Zm7.8-21.12c-.04-1.96-.51-3.55-1.39-4.79-.9-1.25-2-1.87-3.33-1.88-1.41,0-2.54,.59-3.38,1.79s-1.22,2.77-1.15,4.72c.07,1.91,.58,3.5,1.49,4.74,.9,1.22,2.04,1.83,3.42,1.84,1.3,0,2.35-.61,3.16-1.83,.82-1.22,1.23-2.77,1.19-4.61h0Z"/>
    <path class="cls-4" d="M168.63,173.33h3.86c-.05,8.17-.11,12.26-.28,20.44h-3.74c0-.86,.02-1.29,.03-2.15-1.56,1.83-3.21,2.73-4.96,2.73-2.22,0-4.09-1.03-5.55-3.07-1.48-2.07-2.25-4.69-2.3-7.81-.04-3.07,.68-5.61,2.15-7.66,1.48-2.04,3.34-3.06,5.58-3.06,1.93,0,3.67,.98,5.19,2.93,0-.95,0-1.42,0-2.37h0Zm-9.07,10.16c0,1.96,.44,3.56,1.29,4.79,.86,1.24,1.94,1.87,3.24,1.87,1.39,0,2.53-.6,3.38-1.81,.87-1.23,1.32-2.83,1.33-4.74,.02-1.91-.41-3.51-1.28-4.74-.85-1.21-2-1.83-3.4-1.83-1.31,0-2.43,.62-3.3,1.84-.87,1.23-1.29,2.78-1.29,4.62h.02Z"/>
    <path class="cls-4" d="M186.91,176.77c-1.29,.83-1.92,1.25-3.21,2.08-.47-1.26-1.07-1.88-1.81-1.88-.35,0-.66,.14-.91,.43-.26,.28-.39,.66-.4,1.1-.02,.78,.71,1.55,2.15,2.32,1.99,1.05,3.32,2.05,3.98,2.95s.96,2.12,.9,3.66c-.09,1.97-.75,3.63-1.98,4.96-1.17,1.27-2.55,1.91-4.13,1.91-2.69,.02-4.54-1.65-5.59-4.98,1.3-.75,1.95-1.13,3.26-1.88,.42,.98,.74,1.6,.96,1.86,.43,.53,.98,.79,1.6,.79,1.27,0,1.93-.74,1.99-2.19,.04-.84-.43-1.61-1.39-2.34-.37-.24-.74-.46-1.13-.68-.37-.22-.75-.45-1.14-.68-1.08-.66-1.84-1.34-2.28-2-.56-.85-.82-1.95-.81-3.29,.03-1.77,.54-3.25,1.54-4.41,1.01-1.16,2.26-1.75,3.71-1.75,2.13,0,3.7,1.34,4.66,4.02l.03-.02Z"/>
    <path class="cls-4" d="M211.81,176.6c-1.3,.83-1.96,1.25-3.27,2.08-.43-1.24-1.02-1.86-1.76-1.85-.35,0-.66,.15-.92,.43-.27,.28-.41,.66-.43,1.1-.04,.78,.66,1.54,2.08,2.29,1.95,1.04,3.24,2.01,3.87,2.91,.63,.9,.88,2.1,.74,3.62-.18,1.95-.93,3.61-2.22,4.93-1.24,1.27-2.66,1.91-4.24,1.93-2.69,.04-4.43-1.6-5.32-4.9,1.34-.75,2.01-1.13,3.35-1.9,.37,.97,.66,1.58,.87,1.84,.41,.52,.93,.78,1.57,.77,1.27-.02,1.97-.74,2.09-2.19,.07-.83-.35-1.6-1.29-2.31-.36-.23-.73-.45-1.09-.67-.36-.22-.74-.44-1.12-.67-1.05-.66-1.79-1.31-2.21-1.98-.52-.84-.76-1.93-.7-3.26,.08-1.76,.63-3.24,1.66-4.39,1.04-1.16,2.3-1.75,3.74-1.76,2.13-.02,3.68,1.31,4.58,3.97h0Z"/>
    <path class="cls-4" d="M230.71,184.09c-4.7,.08-7.06,.12-11.75,.19-.05,1.66,.24,2.97,.9,3.94,.66,.95,1.58,1.42,2.78,1.39,.93-.02,1.75-.31,2.42-.87,.67-.56,1.49-1.6,2.43-3.08,1.18,.85,1.76,1.28,2.92,2.12-.63,1.04-1.27,1.93-1.91,2.68-.65,.74-1.32,1.37-2.01,1.85-.69,.49-1.41,.85-2.16,1.08-.74,.24-1.54,.36-2.38,.38-2.4,.05-4.18-.88-5.42-2.78-1.23-1.91-1.7-4.49-1.44-7.72,.26-3.19,1.13-5.81,2.69-7.77,1.55-1.96,3.55-2.95,5.97-2.97,2.45-.02,4.35,.9,5.66,2.77,1.29,1.85,1.8,4.42,1.45,7.72-.05,.43-.08,.66-.13,1.09h-.02Zm-3.53-3.72c-.32-2.46-1.53-3.69-3.58-3.66-.46,0-.9,.1-1.33,.27-.42,.18-.81,.43-1.16,.75-.35,.33-.66,.72-.94,1.18-.27,.46-.49,.98-.66,1.56,3.06-.04,4.59-.06,7.66-.11h0Z"/>
    <path class="cls-4" d="M239.67,172.9c-.27,4.57-.48,6.86-1.07,11.43-.43,3.3,.35,4.92,2.46,4.88,2.12-.05,3.5-1.72,3.96-5.01,.64-4.55,.88-6.83,1.16-11.37,1.53-.02,2.3-.03,3.84-.05-.3,4.57-.55,6.87-1.23,11.44-.24,1.59-.62,2.97-1.15,4.11-.48,1.03-1.21,1.98-2.13,2.83-1.52,1.37-3.25,2.09-5.19,2.15-1.92,.05-3.39-.58-4.41-1.9-.63-.82-1.02-1.76-1.2-2.77-.16-.91-.13-2.3,.1-4.13,.57-4.63,.77-6.94,1.03-11.56,1.53-.02,2.3-.03,3.84-.04v-.02Z"/>
    <path class="cls-4" d="M258.93,158.25c.49,11.42-.62,22.89-3.21,34.02-1.49,.05-2.23,.07-3.72,.12,2.49-11.19,3.55-22.68,3.08-34.14h3.85Z"/>
    <path class="cls-4" d="M277.17,182.99c-4.7,.14-7.06,.2-11.75,.33-.18,1.6,0,2.86,.57,3.78,.57,.9,1.44,1.34,2.64,1.3,.93-.04,1.77-.32,2.5-.87,.73-.54,1.63-1.55,2.7-3.01,1.1,.8,1.65,1.2,2.72,1.99-.73,1-1.45,1.87-2.17,2.6-.73,.73-1.46,1.33-2.2,1.81-.74,.48-1.5,.84-2.28,1.08-.77,.24-1.58,.37-2.41,.41-2.4,.09-4.07-.77-5.11-2.59-1.04-1.83-1.25-4.32-.75-7.44,.5-3.09,1.5-5.63,3.14-7.54,1.63-1.91,3.66-2.87,6.08-2.92,2.45-.04,4.33,.83,5.54,2.61,1.21,1.76,1.59,4.23,.99,7.4-.09,.42-.13,.63-.22,1.05h0Zm-3.25-3.54c-.16-2.37-1.33-3.54-3.37-3.49-.46,0-.91,.1-1.34,.27s-.82,.43-1.2,.74-.71,.7-1,1.14c-.29,.44-.54,.95-.75,1.52,3.06-.07,4.59-.11,7.66-.19h0Z"/>
    <path class="cls-4" d="M297.69,159.66c1.4,.59,2.09,.9,3.47,1.48-1.83,4.41-2.92,6.64-5.35,11.11-.98-.47-1.48-.7-2.47-1.17,2.04-4.59,2.92-6.87,4.33-11.42h0Zm6.84-.04c1.4,.59,2.09,.89,3.48,1.47-1.83,4.37-2.92,6.58-5.36,11.01-.98-.46-1.47-.69-2.46-1.15,2.07-4.56,2.94-6.82,4.35-11.32h0Z"/>
  </g>
</svg>