<?xml version="1.0" encoding="UTF-8"?>
<svg id="Calque_1" data-name="Calque 1" xmlns="http://www.w3.org/2000/svg" viewBox="0 0 313 313">
  <defs>
    <style>
      .cls-1 {
        fill: #f4f6f9;
      }

      .cls-2 {
        fill: #fff;
      }

      .cls-3 {
        fill: #cfdbef;
      }

      .cls-4 {
        fill: #6471af;
      }
    </style>
  </defs>
  <g>
    <circle class="cls-3" cx="156.5" cy="156.5" r="156.06"/>
    <path class="cls-2" d="M156.5,312.99C70.21,312.99,0,242.79,0,156.5S70.21,0,156.5,0s156.5,70.21,156.5,156.5-70.21,156.5-156.5,156.5h0ZM156.5,.89C70.69,.89,.89,70.69,.89,156.5s69.81,155.61,155.61,155.61,155.61-69.81,155.61-155.61S242.3,.89,156.5,.89Z"/>
  </g>
  <path class="cls-1" d="M156.5,17.9c12.92-1.44,41.77-2.94,72.47,16.61,1.4,.9,22.81,14.79,19.83,25.37-1.13,4.02-5.76,7.5-9.82,7.29-4.77-.26-7.39-5.56-11.96-11.67,0,0-6.21-8.32-19.86-19.25-19.25-15.41-50.66-18.33-50.66-18.33h0Z"/>
  <path class="cls-1" d="M256.59,67.64c-1.91-1.1-4.81-.22-5.61,2.04-.77,2.19,.76,4.76,3.06,5.1,2.07,.3,4.03-1.31,4.33-3.32,.22-1.48-.48-3.08-1.78-3.82h0Z"/>
  <g>
    <path class="cls-4" d="M39.61,108.22c1.91-3.68,4.9-8.47,6.48-10.54,.69-.18,1.04-.27,1.73-.43-1.6,2.62-3.96,7.15-5.32,10.29-1.15,.27-1.73,.41-2.89,.68Zm4.49-.41c1.83-3.7,4.79-8.51,6.3-10.6,.69-.18,1.04-.26,1.73-.43-1.56,2.64-3.86,7.2-5.18,10.36-1.14,.27-1.71,.4-2.85,.67Z"/>
    <path class="cls-4" d="M57.38,96.73c-3.08,9.89-5.69,19.55-8,29.64-1.1,.05-1.65,.08-2.75,.14,2.37-10.07,5.04-19.68,8.2-29.53,1.02-.11,1.52-.15,2.54-.26Z"/>
    <path class="cls-4" d="M62.53,94.68c1.02-.1,1.53-.15,2.56-.24-3.24,10.35-5.89,20.88-7.91,31.55-1.11,.05-1.67,.08-2.78,.13,2.07-10.63,4.8-21.13,8.13-31.43h0Z"/>
    <path class="cls-4" d="M62.23,121.77c.66,.72,1.96,1.45,3.35,1.39,2.01-.09,3.2-1.58,3.54-3.38,.35-1.89-.23-2.92-2.01-3.86-2.38-1.25-3.19-3.31-2.57-5.89,.83-3.48,3.47-6.49,6.6-6.71,1.47-.11,2.61,.43,3.25,1.11-.53,1.17-.8,1.76-1.32,2.93-.45-.51-1.35-1.15-2.7-1.06-1.57,.11-2.77,1.51-3.16,3.12-.42,1.79,.29,2.54,1.99,3.51,2.28,1.29,3.23,3.12,2.64,6.37-.69,3.84-3.2,6.63-6.83,6.78-1.68,.07-3.12-.44-4.03-1.29,.5-1.21,.75-1.82,1.26-3.02Z"/>
    <path class="cls-4" d="M83.67,108.91c.43-2.28,.75-4.15,1.04-5.97,.94-.05,1.4-.08,2.34-.13-.22,1.46-.34,2.19-.54,3.65h.06c1.12-2.15,3.19-4.3,5.58-4.42,2.01-.11,4.75,1.58,3.64,9.24-.77,5.33-1.12,8-1.73,13.32-1.11,.04-1.67,.05-2.78,.08,.61-5.13,.96-7.7,1.74-12.84,.54-3.59,.17-6.54-2.34-6.41-1.76,.09-3.46,2.04-4.31,4.3-.21,.51-.39,1.2-.51,1.89-.9,5.32-1.31,7.99-2.02,13.31-1.11,.04-1.67,.05-2.78,.1,.9-6.44,1.42-9.66,2.61-16.1v-.02Z"/>
    <path class="cls-4" d="M105.26,92.65c-1.31,3.93-3.36,8.94-4.52,11.1-.69,.16-1.05,.24-1.74,.4,1.08-2.76,2.63-7.6,3.54-10.95,1.09-.22,1.64-.34,2.73-.56h0Z"/>
    <path class="cls-4" d="M111.97,124.14c0-1.13,0-1.7,.02-2.85h-.1c-1,1.79-2.77,3.41-4.96,3.47-3.1,.07-4.37-3.08-4.01-6.34,.6-5.42,4.18-8.52,9.91-8.64,.02-.19,.03-.28,.05-.47,.2-1.86,.24-5.21-2.75-5.11-1.36,.05-2.86,.75-4.02,1.82-.11-1.06-.15-1.6-.25-2.67,1.37-1.26,3.21-2.12,5.04-2.19,4.43-.17,4.99,4.52,4.55,9.05-.33,3.38-.48,5.07-.77,8.46-.17,1.96-.26,3.87-.19,5.42-1.01,.02-1.52,.03-2.53,.05h0Zm.63-11.51c-2.95,0-6.42,.89-6.88,5.26-.27,2.65,.8,3.87,2.22,3.84,1.98-.04,3.4-1.94,4.02-3.86,.13-.43,.24-.89,.27-1.31,.15-1.57,.22-2.35,.38-3.92h0Z"/>
    <path class="cls-4" d="M121.4,101.33c.65,5.06,1.02,7.6,1.83,12.68,.35,2.06,.62,3.92,.82,5.79h.1c.46-1.88,1.02-3.77,1.66-5.84,1.51-5.13,2.27-7.69,3.77-12.83,1.11-.03,1.66-.04,2.76-.06-2.88,9.15-4.36,13.71-7.27,22.84-1.06,.02-1.6,.03-2.65,.04-1.76-9.04-2.55-13.55-3.82-22.53,1.13-.04,1.69-.05,2.82-.09h0Z"/>
    <path class="cls-4" d="M142,123.71c-.06-1.15-.09-1.73-.14-2.87h-.1c-.9,1.8-2.59,3.41-4.77,3.43-3.1,.03-4.54-3.2-4.38-6.49,.27-5.5,3.63-8.57,9.36-8.58,0-.19,0-.28,.02-.47,.06-1.89-.14-5.28-3.13-5.24-1.36,.02-2.81,.7-3.9,1.76-.19-1.09-.27-1.63-.45-2.72,1.28-1.24,3.06-2.07,4.88-2.1,4.43-.06,5.36,4.7,5.24,9.27-.1,3.41-.14,5.12-.22,8.54-.04,1.98-.03,3.92,.12,5.47-1.01,0-1.52,0-2.53,.02h0Zm-.06-11.66c-2.96-.06-6.36,.78-6.56,5.2-.12,2.69,1.03,3.94,2.45,3.93,1.98-.02,3.3-1.91,3.79-3.85,.11-.43,.19-.9,.2-1.32,.04-1.59,.07-2.38,.12-3.96h0Z"/>
    <path class="cls-4" d="M152.16,94.41c0,1.4-.66,2.55-1.69,2.55-.92,0-1.55-1.13-1.52-2.54,.04-1.46,.74-2.6,1.67-2.61,.97,0,1.55,1.13,1.54,2.59Zm-3.4,29.27c.12-9.14,.2-13.7,.38-22.83,1.05,0,1.59,0,2.64,0-.12,9.13-.17,13.7-.25,22.84h-2.77Z"/>
    <path class="cls-4" d="M157.67,112.99c.08,5.62,2.47,7.93,5.24,7.94,1.98,0,3.16-.51,4.18-1.16,.21,1.19,.32,1.78,.53,2.98-.97,.66-2.62,1.4-5.06,1.39-4.71-.02-7.51-4.64-7.49-11.53,.02-6.89,2.61-12.32,6.84-12.3,4.73,.02,6.2,6.6,6.31,10.8,.03,.85-.03,1.51-.04,1.93-4.2-.04-6.31-.04-10.51-.04h0Zm7.92-2.94c-.03-2.64-.84-6.75-3.84-6.76-2.69,0-3.85,3.86-4.06,6.74,3.16,0,4.73,0,7.89,.03h0Z"/>
    <path class="cls-4" d="M171.43,107.08c-.09-2.36-.2-4.29-.35-6.18,.94,0,1.4,.02,2.34,.03,.13,1.51,.2,2.26,.32,3.77h.06c.63-2.15,2.2-4.25,4.6-4.21,2,.04,5.29,1.99,5.8,9.78,.35,5.43,.51,8.15,.79,13.58-1.11-.02-1.67-.03-2.77-.04-.24-5.25-.38-7.87-.68-13.12-.21-3.67-1.29-6.75-3.8-6.78-1.76-.03-3.02,1.88-3.38,4.18-.1,.51-.13,1.22-.11,1.93,.23,5.49,.33,8.23,.51,13.71-1.11,0-1.67-.02-2.77-.03-.19-6.66-.29-9.99-.54-16.64h0Z"/>
    <path class="cls-4" d="M190.26,94.8c.27,2.61,.4,3.9,.65,6.51,1.52,.04,2.27,.06,3.79,.12,.13,1.25,.2,1.88,.32,3.13-1.52-.04-2.29-.07-3.81-.11,.44,4.88,.65,7.33,1.01,12.22,.21,2.81,.85,4.41,2.39,4.44,.73,.02,1.25-.12,1.58-.25,.14,1.23,.21,1.85,.35,3.09-.51,.32-1.35,.53-2.43,.51-1.29-.03-2.38-.68-3.11-1.78-.82-1.22-1.28-3.25-1.46-5.93-.35-4.96-.53-7.43-.95-12.37-.9-.03-1.37-.04-2.27-.05-.1-1.26-.15-1.89-.25-3.15,.9,.02,1.35,.04,2.25,.05-.19-2.17-.29-3.26-.5-5.43,.98-.4,1.46-.6,2.43-1h0Z"/>
    <path class="cls-4" d="M204.93,109.1c-.35-2.88-.7-5.21-1.04-7.35,.95,.04,1.42,.05,2.37,.1,.26,1.54,.39,2.31,.64,3.86h.06c.74-2.69,2.2-4.25,4.57-4.14,3.5,.16,6.96,4.86,7.94,11.62,1.17,8.01-1.77,11.87-5.38,11.77-2.02-.05-3.92-1.4-5.06-3.65h-.06c.5,4.88,.72,7.33,1.1,12.22-1.12-.02-1.68-.04-2.79-.05-.73-9.75-1.2-14.63-2.35-24.37h0Zm3.38,6.08c.07,.6,.2,1.16,.31,1.68,.81,2.85,2.68,4.84,4.65,4.89,2.93,.09,4.22-3.37,3.51-8.49-.62-4.48-2.77-8.38-5.58-8.49-1.82-.08-3.23,1.85-3.37,4.89-.03,.51-.04,1.11,.02,1.67,.19,1.54,.27,2.31,.45,3.86h0Z"/>
    <path class="cls-4" d="M232.95,125.05c-.25-1.12-.37-1.68-.63-2.79h-.1c-.59,1.7-2.02,3.19-4.2,3.12-3.1-.11-5.06-3.32-5.5-6.54-.74-5.38,1.96-8.18,7.69-7.84-.04-.19-.05-.27-.08-.45-.34-1.83-1.3-5.12-4.29-5.29-1.36-.07-2.66,.5-3.52,1.45-.43-1.07-.64-1.61-1.07-2.69,.99-1.13,2.58-1.82,4.41-1.71,4.43,.26,6.49,4.92,7.31,9.33,.61,3.29,.9,4.94,1.44,8.23,.31,1.91,.66,3.78,1.06,5.28-1.01-.04-1.52-.05-2.53-.09h0Zm-2.18-11.28c-2.98-.23-6.2,.4-5.57,4.71,.38,2.61,1.73,3.89,3.15,3.94,1.98,.07,2.97-1.7,3.11-3.55,.03-.41,.02-.86-.04-1.27-.25-1.53-.38-2.3-.64-3.83h0Z"/>
    <path class="cls-4" d="M238.66,121.21c.94,.81,2.53,1.68,3.91,1.74,2.01,.09,2.7-1.31,2.37-3.1-.35-1.89-1.35-2.98-3.56-4.15-2.93-1.55-4.64-3.78-5.17-6.41-.72-3.54,.51-6.31,3.63-6.09,1.47,.11,2.92,.82,3.9,1.6,.02,1.13,.03,1.69,.03,2.83-.7-.58-1.93-1.37-3.29-1.45-1.57-.11-2.15,1.2-1.8,2.82,.38,1.81,1.44,2.67,3.6,3.86,2.88,1.59,4.63,3.55,5.26,6.77,.74,3.81-.89,6.41-4.53,6.26-1.68-.07-3.32-.72-4.53-1.67,.09-1.21,.12-1.81,.2-3.01h0Z"/>
    <path class="cls-4" d="M250.74,94.72c1.02,.1,1.53,.15,2.56,.25,3.43,10.25,6.24,20.71,8.39,31.3-1.11-.05-1.67-.08-2.78-.13-2.08-10.63-4.82-21.11-8.16-31.42Z"/>
    <path class="cls-4" d="M265.55,116.72c1.42,5.2,4.25,7.48,7,7.64,1.98,.12,3.06-.28,3.94-.82,.47,1.1,.69,1.65,1.14,2.74-.83,.54-2.35,1.14-4.78,1.01-4.71-.26-8.37-4.69-10-11.1-1.63-6.41-.63-11.23,3.59-10.85,4.73,.43,8.03,6.54,9.17,10.36,.23,.77,.35,1.37,.43,1.76-4.2-.31-6.31-.46-10.51-.75l.02,.02Zm7.19-2.15c-.68-2.42-2.62-6.24-5.61-6.5-2.69-.23-2.79,3.25-2.28,5.9,3.16,.23,4.73,.35,7.89,.59Z"/>
    <path class="cls-4" d="M63.96,147.57c-.84,8.7-1.26,17.58-1.23,26.31,0,1.93,.05,4.14,.18,5.63-1.05-.02-1.57-.03-2.61-.05-.08-1.51-.12-2.26-.18-3.77h-.06c-.88,2.41-2.78,4.21-5.39,4.15-3.86-.08-6.97-4.54-6.84-11.02,.14-7.1,3.78-11.51,7.66-11.53,2.43-.02,3.98,1.54,4.61,3.29h.06c.26-5.19,.44-7.77,.94-12.95,1.14-.02,1.72-.03,2.87-.04h0Zm-4.03,19.01c.02-.5,0-1.17-.08-1.66-.35-2.51-1.82-4.57-3.99-4.57-3,0-4.99,3.56-5.09,8.31-.1,4.34,1.53,7.97,4.67,8.02,1.95,.04,3.71-1.68,4.25-4.64,.11-.54,.14-1.07,.15-1.7,.02-1.51,.04-2.26,.08-3.77h0Z"/>
    <path class="cls-4" d="M67.7,164.54c.08-2.58,.15-4.8,.16-6.83,1.01,0,1.52,0,2.53,0-.05,1.72-.07,2.58-.1,4.31h.13c.84-2.94,2.69-4.82,4.63-4.83,.33,0,.56,.04,.82,.13-.08,1.52-.11,2.27-.17,3.79-.29-.09-.59-.13-.98-.13-2.04,0-3.58,2.14-4.06,5.13-.08,.54-.16,1.18-.18,1.86-.1,4.68-.1,7.02-.03,11.7-1.15-.02-1.72-.03-2.87-.05-.1-6.03-.08-9.04,.12-15.06h0Z"/>
    <path class="cls-4" d="M92.53,168.6c-.12,8.28-4.1,11.83-7.96,11.77-4.33-.06-7.77-4.5-7.66-11.49,.12-7.39,3.86-11.75,8.27-11.76,4.57-.02,7.45,4.63,7.35,11.47h0Zm-12.68,.18c-.08,4.85,1.98,8.54,4.82,8.57,2.77,.04,4.81-3.59,4.88-8.62,.05-3.79-1.14-8.57-4.57-8.57s-5.07,4.41-5.14,8.62Z"/>
    <path class="cls-4" d="M99.92,151.27c-.04,1.37-.8,2.51-1.94,2.52-1.02,0-1.69-1.1-1.62-2.49,.07-1.44,.89-2.55,1.92-2.56,1.07,0,1.68,1.12,1.64,2.54Zm-3.75,28.76c-.1-8.98-.04-13.46,.27-22.44,1.15,0,1.74,0,2.89,0-.3,8.98-.35,13.48-.27,22.48-1.16,0-1.75-.02-2.91-.04h0Z"/>
    <path class="cls-4" d="M107.84,151.08c-.11,2.59-.15,3.89-.22,6.48,1.66,0,2.48,0,4.14,0-.04,1.25-.04,1.88-.07,3.13h-4.15c-.12,4.87-.15,7.3-.16,12.18,0,2.8,.57,4.4,2.18,4.41,.76,0,1.32-.13,1.68-.27,.05,1.23,.09,1.85,.15,3.08-.56,.32-1.44,.55-2.57,.54-1.36,0-2.44-.67-3.15-1.76-.79-1.21-1.14-3.23-1.13-5.89,.02-4.92,.05-7.38,.18-12.3h-2.47c.04-1.25,.05-1.87,.09-3.11h2.46c.06-2.16,.11-3.24,.2-5.4,1.14-.43,1.71-.66,2.85-1.09h0Z"/>
    <path class="cls-4" d="M135.88,146.84c-.19,9.19-.28,18.4-.27,27.59,0,2.03,.04,4.34,.14,5.9-1.05,0-1.57,0-2.61,0-.06-1.59-.09-2.38-.14-3.96h-.06c-.89,2.54-2.83,4.47-5.43,4.45-3.86-.03-6.87-4.71-6.83-11.6,.04-7.54,3.42-12.22,7.3-12.22,2.43,0,4.05,1.64,4.75,3.48h.06c.06-5.45,.11-8.17,.23-13.62,1.14,0,1.72,0,2.87,0h0Zm-3.16,19.94c0-.51-.03-1.22-.12-1.75-.41-2.64-1.96-4.8-4.13-4.8-3,0-4.84,3.77-4.88,8.79-.03,4.61,1.57,8.43,4.71,8.44,1.95,0,3.72-1.83,4.26-4.94,.1-.57,.13-1.13,.13-1.79,0-1.59,0-2.38,.02-3.96h0Z"/>
    <path class="cls-4" d="M142.05,169.67c.05,5.62,2.57,7.94,5.48,7.95,2.08,0,3.33-.51,4.42-1.18,.2,1.2,.3,1.79,.5,2.98-1.02,.66-2.77,1.42-5.32,1.41-4.92,0-7.88-4.65-7.85-11.55,.02-6.9,2.91-12.32,7.54-12.33,5.19,0,6.56,6.57,6.56,10.78,0,.85-.07,1.52-.1,1.94h-11.23Zm8.52-2.97c.04-2.65-.74-6.76-4-6.76-2.93,0-4.24,3.87-4.48,6.75h8.47Z"/>
    <path class="cls-4" d="M164.27,180.37c0-7.89,0-11.83-.03-19.72h-2.24c0-1.27,0-1.9,0-3.16h2.23v-1.09c-.02-3.22,.47-6.14,1.78-7.99,1.06-1.5,2.49-2.12,3.83-2.12,1.01,0,1.9,.34,2.46,.66-.13,1.29-.2,1.92-.35,3.21-.43-.28-1.02-.52-1.83-.52-2.45,0-3.04,3.11-3.02,6.6v1.23h3.85c0,1.27,.02,1.9,.03,3.16h-3.86c.04,7.88,.04,11.83,.04,19.71h-2.87v.02Z"/>
    <path class="cls-4" d="M182.45,180.31c-.09-1.15-.13-1.73-.22-2.87h-.1c-.9,1.8-2.62,3.4-4.9,3.42-3.24,.02-4.88-3.24-4.88-6.55,0-5.53,3.41-8.55,9.57-8.51v-.47c-.02-1.89-.42-5.27-3.68-5.28-1.48,0-3.02,.66-4.13,1.69-.27-1.1-.41-1.64-.68-2.74,1.3-1.22,3.2-2.02,5.2-2.02,4.87,0,6.13,4.76,6.16,9.33,.03,3.41,.04,5.11,.04,8.53,0,1.98,.06,3.91,.25,5.46-1.05,0-1.59,0-2.64,.02h0Zm-.43-11.65c-3.17-.09-6.75,.72-6.75,5.16,0,2.69,1.25,3.96,2.74,3.96,2.08,0,3.4-1.9,3.86-3.84,.1-.43,.17-.9,.16-1.32,0-1.59,0-2.38-.02-3.96h0Z"/>
    <path class="cls-4" d="M192.43,151.15c.05,1.39-.62,2.54-1.76,2.53-1.02,0-1.76-1.13-1.8-2.54-.04-1.45,.68-2.58,1.72-2.57,1.07,0,1.78,1.15,1.84,2.59h0Zm-2.91,29.13c.05-9.1,.03-13.66-.15-22.75h2.89c.2,9.09,.22,13.63,.17,22.73-1.16,0-1.75,0-2.91,.02h0Z"/>
    <path class="cls-4" d="M197.2,164.6c-.04-2.67-.12-4.96-.27-7.07h2.54c.09,1.78,.12,2.67,.2,4.44h.13c.66-3.04,2.35-4.96,4.29-4.95,.33,0,.56,.04,.82,.14,.04,1.55,.06,2.32,.1,3.87-.3-.1-.59-.14-.99-.14-2.04,0-3.44,2.19-3.79,5.28-.06,.56-.12,1.21-.11,1.91,.04,4.83,.05,7.24,0,12.08-1.15,0-1.72,.02-2.87,.03,.04-6.25,.04-9.37-.05-15.61h0Z"/>
    <path class="cls-4" d="M209.33,169.57c.12,5.54,2.6,7.8,5.5,7.77,2.08-.02,3.34-.54,4.43-1.21,.2,1.16,.29,1.75,.48,2.91-1.03,.66-2.79,1.43-5.33,1.45-4.92,.05-7.79-4.49-7.85-11.3-.06-6.81,2.58-12.16,7.22-12.14,5.19,.02,6.8,6.44,6.86,10.56,0,.83-.04,1.48-.07,1.9-4.49,.03-6.74,.04-11.22,.05h0Zm8.47-2.94c0-2.6-.92-6.62-4.18-6.63-2.93,0-4.11,3.8-4.31,6.65,3.4,0,5.09,0,8.47-.02h0Z"/>
    <path class="cls-4" d="M242.64,178.83c-.7,.51-2.23,1.21-4.15,1.34-.35,.74-.53,1.1-.9,1.83,1.21,.2,2.28,1.37,2.22,3.09-.09,2.69-1.76,3.72-3.56,3.77-.82,.02-1.67-.28-2.21-.73,.23-.79,.34-1.19,.57-1.98,.51,.44,1.16,.66,1.76,.65,.73-.02,1.44-.41,1.46-1.49,.02-1.17-.98-1.71-2.52-1.86,.59-1.35,.88-2.01,1.45-3.36-4.08-.66-6.61-4.95-6.7-11.14-.1-6.83,3-11.77,8.19-11.75,1.71,0,3.25,.61,4.07,1.15-.2,1.23-.3,1.84-.52,3.08-.71-.55-1.82-1.05-3.4-1.05-3.65,0-5.47,3.74-5.4,8.36,.08,5.12,2.41,8.25,5.58,8.21,1.65-.03,2.75-.63,3.57-1.13,.2,1.2,.28,1.79,.47,2.99v.02Z"/>
    <path class="cls-4" d="M254.88,179.42c-.07-1.09-.11-1.64-.2-2.73h-.1c-.9,1.72-2.66,3.28-4.93,3.32-3.24,.06-4.83-3.03-4.83-6.21,0-5.29,3.31-8.2,9.48-8.17,0-.18,0-.27-.02-.45-.06-1.79-.58-5.02-3.83-5.03-1.48,0-3,.62-4.08,1.61-.31-1.05-.46-1.57-.78-2.62,1.26-1.17,3.12-1.92,5.12-1.91,4.87,.03,6.33,4.54,6.46,8.87,.1,3.24,.12,4.85,.12,8.08,0,1.87,.04,3.71,.21,5.17-1.05,.02-1.59,.04-2.64,.05v.03Zm-.44-11.05c-3.17-.07-6.72,.72-6.71,4.96,0,2.57,1.24,3.77,2.73,3.75,2.08-.04,3.42-1.85,3.87-3.69,.1-.41,.16-.85,.16-1.26,0-1.51-.03-2.26-.05-3.76h0Z"/>
    <path class="cls-4" d="M259.89,184.79c.83-2.64,1.83-7.42,2.2-10.66,1.29-.2,1.94-.29,3.24-.49-.75,3.77-2.34,8.71-3.35,10.82-.83,.13-1.25,.2-2.08,.33Z"/>
    <path class="cls-4" d="M86.12,234.03c-.63,.51-2.08,1.13-4.09,.98-4.5-.33-8.33-5.05-9.38-11.75-1.05-6.75,1.69-11.47,6.78-11.24,1.68,.08,3.22,.74,4.04,1.32-.12,1.23-.19,1.85-.3,3.08-.74-.59-1.85-1.13-3.39-1.21-3.55-.18-5.03,3.45-4.34,8.04,.76,5.09,3.56,8.39,6.55,8.6,1.55,.11,2.49-.43,3.19-.88,.37,1.22,.56,1.83,.93,3.06h0Z"/>
    <path class="cls-4" d="M90.04,203.68c-.48,3.86-1.44,8.73-2.13,10.81-.71,.1-1.06,.14-1.76,.24,.43-2.68,.84-7.44,.96-10.73,1.17-.12,1.76-.19,2.93-.32Z"/>
    <path class="cls-4" d="M94.17,224.98c.69,5.5,3.39,7.91,6.12,8.05,1.96,.1,3.08-.35,4.03-.96,.32,1.18,.47,1.77,.79,2.96-.89,.6-2.43,1.27-4.81,1.14-4.6-.25-8.03-4.95-8.83-11.68s1.52-11.93,6.05-11.76c5.09,.18,6.92,6.69,7.3,10.84,.08,.84,.07,1.49,.08,1.91-4.29-.18-6.44-.27-10.73-.48v-.02Zm7.87-2.56c-.21-2.61-1.31-6.67-4.49-6.8-2.85-.11-3.75,3.63-3.67,6.44,3.26,.15,4.89,.22,8.16,.35Z"/>
    <path class="cls-4" d="M108.65,231.94c.89,.82,2.4,1.73,3.77,1.78,1.99,.08,2.79-1.38,2.63-3.26-.16-1.97-1.04-3.09-3.17-4.27-2.84-1.56-4.36-3.84-4.57-6.54-.28-3.64,1.55-6.57,4.9-6.48,1.58,.04,3,.74,3.91,1.51-.21,1.2-.32,1.79-.53,2.99-.64-.58-1.81-1.36-3.25-1.4-1.67-.04-2.5,1.33-2.38,3.01,.13,1.87,1.13,2.74,3.21,3.93,2.77,1.59,4.26,3.6,4.52,6.98,.3,3.99-1.48,6.74-5.03,6.59-1.64-.07-3.21-.74-4.36-1.73,.14-1.24,.21-1.86,.36-3.1h0Z"/>
    <path class="cls-4" d="M123.39,207.41c.1,2.61,.15,3.93,.27,6.54,1.62,.04,2.43,.04,4.05,.08,.05,1.27,.07,1.9,.12,3.16-1.61-.03-2.42-.04-4.03-.08,.24,4.91,.37,7.38,.67,12.29,.18,2.83,.82,4.44,2.34,4.49,.72,.02,1.23-.11,1.57-.24,.12,1.25,.19,1.87,.31,3.12-.51,.32-1.32,.53-2.38,.5-1.27-.04-2.32-.72-3.06-1.83-.82-1.24-1.29-3.28-1.47-5.96-.34-4.96-.48-7.45-.74-12.42-.96-.02-1.44-.04-2.4-.05-.07-1.26-.11-1.89-.17-3.15,.97,.03,1.44,.04,2.41,.05-.11-2.18-.15-3.27-.25-5.45,1.1-.41,1.65-.62,2.75-1.03h0Z"/>
    <path class="cls-4" d="M140.75,207.76c.04,1.4-.63,2.55-1.76,2.54-1,0-1.74-1.15-1.77-2.57-.04-1.46,.69-2.59,1.74-2.58,1.07,0,1.76,1.17,1.8,2.61Zm-2.29,29.29c-.36-9.16-.51-13.74-.74-22.89,1.13,0,1.7,.02,2.83,.03,.2,9.16,.32,13.74,.63,22.91-1.09-.02-1.63-.03-2.72-.04h0Z"/>
    <path class="cls-4" d="M145.35,220.44c-.04-2.37-.11-4.31-.23-6.21,1,0,1.51,0,2.51,.02,.08,1.52,.12,2.28,.2,3.79h.06c.74-2.17,2.53-4.3,5.1-4.29,2.15,0,5.5,1.9,5.48,9.76-.02,5.48-.03,8.22-.05,13.7h-2.72c0-5.29,0-7.93-.02-13.23,0-3.7-.94-6.77-3.6-6.78-1.86,0-3.28,1.93-3.73,4.25-.12,.52-.18,1.23-.17,1.94,.08,5.51,.12,8.27,.22,13.78-1.09,0-1.63,0-2.72-.03-.16-6.69-.23-10.03-.35-16.72h.02Z"/>
    <path class="cls-4" d="M166.47,207.66c-.03,2.63-.04,3.94-.08,6.58,1.62,0,2.43-.02,4.05-.03-.03,1.27-.04,1.91-.06,3.17-1.61,.02-2.42,.02-4.03,.03-.07,4.95-.12,7.42-.2,12.37-.05,2.85,.44,4.45,1.97,4.43,.72,0,1.25-.16,1.6-.3,.02,1.25,.03,1.87,.04,3.12-.53,.34-1.37,.59-2.43,.59-1.27,.02-2.26-.63-2.9-1.73-.71-1.21-1-3.26-.97-5.97,.07-5.01,.1-7.51,.15-12.51-.96,0-1.44,0-2.4,0,0-1.27,0-1.91,.02-3.17h2.41c.02-2.2,.04-3.3,.05-5.5,1.12-.44,1.68-.66,2.8-1.1h0Z"/>
    <path class="cls-4" d="M174.65,226.37c-.12,5.63,2.15,7.91,4.88,7.85,1.96-.04,3.16-.59,4.24-1.28,.12,1.19,.18,1.77,.29,2.96-1,.68-2.68,1.48-5.06,1.53-4.6,.1-7.18-4.5-6.99-11.42,.2-6.91,3.07-12.37,7.61-12.44,5.09-.07,6.17,6.45,5.96,10.65-.04,.85-.14,1.51-.2,1.93-4.29,.1-6.44,.13-10.73,.2h0Zm8.28-3.1c.15-2.64-.46-6.73-3.63-6.68-2.85,.04-4.21,3.93-4.52,6.82,3.26-.04,4.89-.07,8.16-.13h0Z"/>
    <path class="cls-4" d="M189.21,221.05c.14-2.69,.22-4.99,.22-7.11,.99-.02,1.49-.03,2.48-.05-.04,1.78-.07,2.68-.13,4.47h.12c.87-3.08,2.67-5.03,4.57-5.08,.32,0,.54,.04,.8,.12-.09,1.56-.13,2.34-.22,3.89-.28-.09-.57-.12-.95-.12-1.99,.05-3.51,2.3-4.08,5.41-.1,.57-.2,1.22-.25,1.93-.3,4.85-.47,7.28-.84,12.14-1.07,.04-1.61,.05-2.69,.09,.44-6.28,.64-9.41,.97-15.68h0Z"/>
    <path class="cls-4" d="M213.91,202.79c-.49,9.06-1.25,18.16-2.28,27.18-.22,2-.46,4.27-.56,5.81-.98,.05-1.46,.08-2.44,.12,.13-1.56,.2-2.34,.32-3.9h-.06c-1.12,2.55-3.16,4.56-5.59,4.66-3.61,.16-5.93-4.39-5.43-11.27,.54-7.53,3.99-12.27,7.78-12.38,2.38-.07,3.88,1.51,4.44,3.3h.06c.43-5.38,.6-8.08,.9-13.46,1.14-.03,1.72-.04,2.87-.08v.02Zm-4.3,19.77c.04-.51,.08-1.21,.03-1.72-.19-2.59-1.56-4.68-3.68-4.61-2.92,.1-4.88,3.88-5.28,8.89-.36,4.59,.77,8.32,3.72,8.2,1.83-.08,3.71-1.98,4.53-5.07,.15-.57,.24-1.13,.3-1.77,.15-1.57,.23-2.35,.37-3.91h0Z"/>
    <path class="cls-4" d="M221.56,206.73c-.09,1.37-.87,2.52-2,2.56-1,.04-1.63-1.05-1.53-2.45,.1-1.44,.92-2.57,1.96-2.6,1.07-.04,1.67,1.07,1.58,2.48h0Zm-6.11,28.82c1.2-8.97,1.68-13.46,2.45-22.42,1.13-.04,1.7-.06,2.83-.11-.79,8.94-1.3,13.42-2.55,22.36-1.09,.06-1.63,.1-2.72,.16h0Z"/>
    <path class="cls-4" d="M229.43,206.3c-.21,2.55-.33,3.83-.59,6.38,1.62-.07,2.43-.11,4.05-.19-.13,1.22-.2,1.83-.34,3.07-1.61,.08-2.42,.12-4.03,.2-.52,4.8-.82,7.19-1.49,11.98-.38,2.76-.1,4.28,1.43,4.18,.72-.04,1.27-.22,1.63-.38-.14,1.21-.21,1.81-.37,3.01-.58,.35-1.45,.65-2.5,.72-1.27,.09-2.17-.49-2.67-1.51-.55-1.13-.59-3.11-.23-5.74,.66-4.86,.94-7.29,1.44-12.14-.96,.04-1.44,.06-2.4,.11,.12-1.23,.19-1.85,.3-3.08,.97-.04,1.44-.06,2.41-.1,.2-2.14,.3-3.2,.48-5.34,1.15-.46,1.73-.7,2.87-1.16h0Z"/>
    <path class="cls-4" d="M241.23,203.01c-1.09,3.84-3.01,8.78-4.12,10.91-.74,.17-1.1,.25-1.83,.41,.98-2.72,2.35-7.5,3-10.8,1.19-.21,1.78-.32,2.96-.53h0Zm4.81-.2c-1.11,3.82-3.06,8.73-4.19,10.87-.74,.17-1.1,.25-1.83,.42,1.04-2.71,2.4-7.47,3.06-10.74,1.19-.21,1.78-.32,2.97-.53h0Z"/>
  </g>
</svg>