<?xml version="1.0" encoding="utf-8"?>
<!-- Generator: Adobe Illustrator 26.5.0, SVG Export Plug-In . SVG Version: 6.00 Build 0)  -->
<svg version="1.1" id="Calque_1" xmlns="http://www.w3.org/2000/svg" xmlns:xlink="http://www.w3.org/1999/xlink" x="0px" y="0px"
	 viewBox="0 0 255 191" style="enable-background:new 0 0 255 191;" xml:space="preserve">
<style type="text/css">
	.st0{fill:#D0D9ED;}
	.st1{display:none;}
	.st2{display:inline;fill:#F5F5F5;}
	.st3{fill:#475A85;}
	.st4{fill:#242A3B;}
	.st5{fill:#FFBE9D;}
	.st6{fill:#EB996E;}
	.st7{fill:#A7336E;}
	.st8{opacity:0.3;}
	.st9{fill:#FFFFFF;}
	.st10{fill:#F5F5F5;}
	.st11{fill:none;stroke:#000000;stroke-miterlimit:10;}
	.st12{fill:#DF731C;}
	.st13{fill:#586FA9;}
	.st14{fill:#D789B4;}
</style>
<g id="Background_Complete">
	<g>
		<path class="st0" d="M72.8,132.1c-0.6,1.1-1.1,2.3-1,3.5c0.1,1.2,1,2.5,2.2,2.6c0.9,0.1,1.8-0.4,2.5-1c0.6-0.7,1.1-1.5,1.5-2.3
			c2.1-3.7,5.1-6.8,8-10C80.8,124.6,75.4,127.5,72.8,132.1z"/>
	</g>
	<g>
		<path class="st0" d="M205.4,80.3c-3.4-1.7-7.6-0.1-10.4,2.3c-2.9,2.5-5,5.7-7.9,8.1c-5.1,4.3-12.7,5.7-19,3.4l-0.9,0.1
			c3.7,3.4,8,6.2,12.5,8.3c5.5,2.5,11.7,4,17.4,2.4c6.5-1.8,11.7-7.8,12.6-14.5C210.1,86.6,208.9,82.1,205.4,80.3z"/>
	</g>
	<g>
		<path class="st0" d="M64.6,72.5c-6.2-2.2-11.5-7-14.2-13c-2.7-6-2.9-13.1-0.4-19.2c1.5-3.7,4.6-7.3,8.5-6.9
			c3.7,0.4,6.1,4.3,6.6,8.1c0.7,5.4-1.2,10.7-2.3,16S61.6,68.8,65,73"/>
	</g>
	<g>
		<path class="st0" d="M134.7,37.9c0.6-1.4,2.5-1.8,3.9-2.3s2.9-0.9,4.1-1.8c2.2-1.7,2.7-4.7,3.5-7.3c0.6-1.8,1.5-3.5,3-4.6
			c1.5-1.2,3.6-1.6,5.2-0.8c1.9,1,2.7,3.2,3,5.3c0.4,2.8,0.2,6-1.7,8.1c-2.4,2.8-6.6,3-10.3,2.6C141.8,36.8,137.9,36.2,134.7,37.9"
			/>
	</g>
	<g>
		<g>
			<path class="st0" d="M188.2,117c-2.3-5.3-6.6-9.6-11.8-12c3,2.7,4.8,9.3,4.4,13.3c-0.4,4-4.7,7.4-8.2,9.5
				c-1.5,0.9-3.1,1.4-4.4,2.5c-3.4,2.8-3.3,8.6-0.2,11.7c3.1,3.2,8.2,3.7,12.2,1.9c4-1.8,6.9-5.6,8.4-9.7
				C190.6,128.7,190.5,122.4,188.2,117z"/>
		</g>
	</g>
</g>
<g id="Background_Simple" class="st1">
	<path class="st2" d="M333.4-6.5c-3.9,5.2-7.8,10.3-11.7,15.5c-0.6-11.4-3.9-22.6-9.4-32.4c-2.6,7.3-8.5,13.2-15.6,15.5
		c2.5-48.7-32.3-93.5-75.2-112.6c-43-19.1-92.1-16.5-137.7-5.8c-29.5,7-59,17.5-82.9,36.9s-41.7,48.9-42,80.5
		c-2.6-4.9-5.1-9.8-7.7-14.8c-4.1,8.3-6,17.8-5.4,27.2C-58.1-2.1-62-7.8-65.9-13.4c-5.3,35.2,4.3,70.9,14.5,104.9
		c9.2,30.9,19.2,62.2,36.8,88.9c17.6,26.7,44,48.8,74.7,53.3l86.9,18.9c51.3-21.4,99-54.2,133.7-99.1S336.3,51.1,333.4-6.5z"/>
</g>
<g id="Shade">
	<g>
		<g>
			<path class="st3" d="M68.7,76.6c-12.8-5.1-16.9,11.5-16.9,11.5c-2.7,8.8-3.1,18.6,0.7,26.2c2.3,4.7,8.6,9.4,13.9,9.3
				c3.1-0.1,5.8-1.9,8.3-3.8c2.5-1.9,4.9-3.9,7.9-4.8c3-0.8,6.7,0,8.1,2.8c0.3-3-1.7-6-4.5-6.9c-2.7-0.8-5.7-1.3-8.5-0.9
				c-4.7,0.7-9.3-0.8-8.7-6.7c0,0,0.4-4.2,1.6-7.3C71.9,92.9,77.3,80,68.7,76.6z"/>
		</g>
		<g>
			<g>
				<path class="st4" d="M60.7,80.6c-1.6,0.6-2.7,2.3-3.4,3.8c-0.2,0.4-0.4,0.9-0.4,1.3s0.4,0.9,0.9,0.9c0.6,0,0.8-0.7,1.1-1.3
					c0.4-1,1.1-1.9,1.9-2.5c0.3-0.2,0.6-0.4,0.9-0.7c0.2-0.3,0.4-0.7,0.3-1c-0.2-0.4-0.7-0.6-1.1-0.5c-0.4,0.1-0.8,0.4-1.2,0.6"/>
			</g>
			<g>
				<path class="st4" d="M66.2,81.2c-1.6,0.6-2.7,2.3-3.4,3.8c-0.2,0.4-0.4,0.9-0.4,1.3c0,0.5,0.4,0.9,0.9,0.9
					c0.6,0,0.8-0.7,1.1-1.3c0.4-1,1.1-1.9,1.9-2.5c0.3-0.2,0.6-0.4,0.9-0.7c0.2-0.3,0.4-0.7,0.3-1c-0.2-0.4-0.7-0.6-1.1-0.5
					c-0.4,0.1-0.8,0.4-1.2,0.6"/>
			</g>
			<g>
				<path class="st4" d="M60.1,88c-1-0.2-2,0.4-2.7,1.2s-0.9,1.8-1.2,2.8c-0.1,0.3-0.2,0.7,0.1,0.9c0.2,0.2,0.5,0.1,0.8,0
					c0.8-0.4,1.2-1.3,1.9-1.9c0.1-0.1,0.3-0.2,0.4-0.2s0.4,0,0.5,0.1c0.1,0.1,0.2,0.3,0.2,0.4c0.1,0.4,0.2,0.7,0.2,1
					c0.1,0.4,0.2,0.9,0.6,1.1c0.4,0.2,0.9,0,1.1-0.3s0.4-0.7,0.4-1.1s0-0.8-0.1-1.2c-0.2-0.8-0.4-1.5-0.9-2.1
					c-0.5-0.6-1.4-0.9-2.1-0.7"/>
			</g>
		</g>
	</g>
	<g>
		<g>
			<path class="st3" d="M163.6,101.3c-3.2-4-8-6.5-12.9-7.5c-7.2-1.5-14.7,0-22-0.6c-13.9-1.1-26.9-10-33.2-22.5
				c-3.6-12,0-15.9,4.1-20.4c4-4.5,9.2-7.7,14.6-10.3c3.9-1.9,8.6-3.9,12.2-6.5c0.6-0.5,1.2-1.1,1.9-1.9c1.6-2.1,2.4-4.4,2.7-6.8
				c0.7-7.3-4.8-13.8-12.1-14.7l-0.3,0c-5.3-0.6-8.2,0.4-12,1.3c-12.7,2.8-24.1,11.4-30.3,23c-6.2,11.5-8.3,25.4-3.5,37.5
				c2,5.1,9.1,18.4,13.7,21.3l0,0c5.4,5.2,12.4,8.8,19.6,10.7c9.3,2.5,19.1,2.6,28.7,1.4c4.7-0.5,9.5-1.4,14.2-0.7
				c4.7,0.7,9.4,3.4,11.1,7.8c1.7,4.4-1,10.4-5.7,11c5,0.7,10.1-2.8,11.9-7.6C168,110.9,166.8,105.3,163.6,101.3z"/>
		</g>
		<g>
			<path class="st3" d="M102.5,44.7l-3.4,5.5c0.3,0.4,9.1,23.5,15.4,19.6c6.3-3.9,9.4-15.3,13.4-16c4.1-0.7,8.8,2.3,9.4,3.1
				c0.6,0.7,2.3,1.1,2,2.6c-0.3,1.5-1.2,8.2-1.2,8.2s4.1-8.9,3.4-10c-0.8-1.1-1-2.7-1-2.7s1.9,0.7,2.5,2.3s4.4,8.6,4.4,8.6
				s-0.9-8-2.4-9.7c-1.5-1.7-2.5-2.7-2.5-2.7l2.6-0.4l5.3,1.8l4.5,5.2c0,0-2.3-5.3-3.5-6.2c-1.2-0.9-5.7-2.7-5.7-2.7s5-0.9,7.3,0.7
				c2.3,1.7,5.9,4.3,5.9,4.3s-2.5-4.3-5.1-5.4c-1.9-0.8-4.6-1.8-6-2.3c-0.5-0.2-1-0.1-1.4,0.2c-0.6,0.5-1.8,1.2-3.9,1.3
				c-3.2,0.2-9.5-3.1-13.9-2c-4.4,1.1-12.6,14-15.8,14"/>
		</g>
		<g>
			<path class="st4" d="M114.1,34.8c-0.1-0.6-0.8-1-1.4-1s-1.2,0.1-1.9,0c-1.2-0.2-2.2-1.1-2.7-2.3c-0.4-1.1-0.4-2.4-0.2-3.6
				c0.1-0.5,0.2-0.9,0.2-1.4c-0.1-0.5-0.4-0.9-0.8-1.1c-0.2-0.1-0.5,0-0.7,0.2l0,0c-0.3,0.2-0.3,0.2-0.3,0.3c-1.4,2-1.5,5.3-0.3,7.4
				c1.2,2.1,3.9,3.4,6.4,3c0.4-0.1,0.9-0.2,1.2-0.5C113.9,35.7,114.1,35.2,114.1,34.8z"/>
		</g>
		<g>
			<path class="st4" d="M113,19.6c0,0-5.2,4.5-2.7,6.4c2.5,1.9,3.1,1.4,3.1,1.4L113,19.6z"/>
		</g>
		<g>
			<path class="st4" d="M121.5,33.7c0,0-5.7,1.8-6.3-0.9c-0.4-2,0.7-2.8,0.7-2.8L121.5,33.7z"/>
		</g>
	</g>
	<g>
		<g>
			<path class="st3" d="M195.5,52.8c-0.8-5.9-2.3-11.9-5.7-16.9c-3.4-4.9-9-8.6-15-8.5c-6,0.2-11.9,5-12.1,10.9
				c-0.2,4.4,2.5,8.4,5.1,12c2.6,3.6,5.4,7.5,5.4,11.9c0,4.4-4.2,9.1-8.4,7.7c-2.3-0.8-3.8-3.1-5.8-4.5c-3.9-2.6-10.1-0.9-12,3.4
				c0.5-0.7,4.2-2.8,7.5-1.8c8.9,2.9,7.2,10.3,14.3,13.3c8.5,3.7,19.6,0.1,24.2-8C196.4,66.7,196.4,59.5,195.5,52.8z"/>
		</g>
		<g>
			<path class="st4" d="M182.7,40.1c-2.8,0.4-4.3,2.1-4.9,4.6c-0.1,0.4-0.1,0.7,0,1.1c0.2,0.4,0.5,0.7,0.9,0.6
				c0.5,0,0.7-0.6,0.8-1.1c0.2-1,0.8-1.9,1.7-2.5s2.3-0.5,3.4,0.1c0.4,0.3,0.9,0.7,1.4,0.7c0.5,0,0.8-0.4,0.8-0.8s-0.3-0.9-0.7-1.2
				C185.3,40.7,184,40.1,182.7,40.1z"/>
		</g>
		<g>
			<g>
				<path class="st4" d="M177.7,31.3c2.2,0.5,4,2.6,5.3,4.4c0.4,0.5,0.7,1.1,0.7,1.7c0,0.6-0.4,1.3-1.1,1.3c-0.8,0-1.2-0.9-1.6-1.6
					c-0.7-1.3-1.8-2.3-3.1-3c-0.5-0.2-0.9-0.4-1.3-0.7c-0.4-0.3-0.7-0.8-0.5-1.3c0.1-0.6,0.8-0.9,1.4-0.9c0.6,0,1.2,0.3,1.7,0.6"/>
			</g>
			<g>
				<path class="st4" d="M171.4,33.5c2.2,0.5,4,2.6,5.3,4.4c0.4,0.5,0.7,1.1,0.7,1.7c0,0.6-0.4,1.3-1.1,1.3c-0.8,0-1.2-0.9-1.6-1.6
					c-0.7-1.3-1.8-2.3-3.1-3c-0.5-0.2-0.9-0.4-1.3-0.7s-0.7-0.8-0.5-1.3c0.1-0.6,0.8-0.9,1.4-0.9c0.6,0,1.2,0.3,1.7,0.6"/>
			</g>
		</g>
	</g>
</g>
<g id="Floor">
	<g>
		<g>
			<path class="st4" d="M200.4,172.9c0,0-32.9,0.1-73.4,0.1c-40.6,0-73.5,0-73.5-0.1c0,0,32.9-0.1,73.5-0.1
				C167.5,172.8,200.4,172.8,200.4,172.9z"/>
		</g>
	</g>
</g>
<g id="Character">
	<g>
		<g>
			<path class="st4" d="M146.8,105.7c-0.7-2.4-1.5-4.8-2.3-7.2c-0.6-1.9-1.1-4.1,0-5.7c0.4-0.6,1.1-1.1,1.4-1.8
				c0.3-0.9-0.3-1.9-0.5-2.9c-0.6-2.1,0.2-4.4,0.5-6.5s0.2-4.8-1.7-6c-0.9-0.6-2.1-0.7-2.9-1.3c-1.2-0.9-1.4-2.7-2-4.1
				c-0.7-1.8-2.2-3.2-3.9-3.9c-1.8-0.7-3.8-0.7-5.5,0.1l-1.6,1.2c-2,5.8-2.2,12.1-2,18.3c0.2,6.2,0.9,12.4,0.4,18.5
				c-0.2,2.3-0.4,4.9,1,6.8c1.2,1.7,3.5,2.3,5.6,2.7c2.1,0.4,4.2,0.7,6.4,0.5c2.1-0.2,4.2-0.9,5.8-2.3c1-0.8,1.8-1.9,1.9-3.2
				C147.4,107.9,147.1,106.8,146.8,105.7z"/>
		</g>
		<g>
			<g>
				<path class="st5" d="M143.7,105.1l11.8-10.6c0,0-9.6,0.7-15.4,1.4l-0.6-5.4c0,0,12.2-2.8,16.1-3.8c3.9-1,7.6-1.1,11.3-1.2
					c3.7-0.1,4.3,1.9,4.5,2.8c0.2,0.9,0.5,5.4-3.1,9.6c-2.7,3.2-17,18.4-17,18.4L143.7,105.1z"/>
			</g>
			<g>
				<g>
					<path class="st6" d="M165,91.9c0,0-0.1,0.1-0.3,0.3c-0.1,0.1-0.2,0.2-0.4,0.3c-0.2,0.1-0.3,0.3-0.5,0.4
						c-0.4,0.3-0.9,0.6-1.4,0.9c-0.6,0.3-1.2,0.5-1.9,0.7c-0.7,0.2-1.4,0.3-2,0.4s-1.2,0-1.7,0c-0.2,0-0.5,0-0.6-0.1
						c-0.2,0-0.4-0.1-0.5-0.1c-0.3-0.1-0.4-0.1-0.4-0.1c0,0,0.6,0.1,1.5,0.2c0.5,0,1.1,0,1.6,0c0.6-0.1,1.3-0.2,2-0.4
						c0.7-0.2,1.3-0.4,1.9-0.7c0.5-0.3,1.1-0.5,1.4-0.8C164.5,92.3,165,91.8,165,91.9z"/>
				</g>
			</g>
		</g>
		<g>
			<g>
				<path class="st5" d="M81.2,84.2c0,0-1.7,1.3-2.4,4c-1.1,3.9,3,7.7,3,7.7s17.9,17.1,18,17.3c0.1,0.2,4.5-12.7,4.5-12.7l-10.8-7.6
					c0,0,5.8,0.2,9.2,0.2c3.6,0.1,8.6,0.9,8.6,0.9v-6.7C111.3,87.3,87,81.4,81.2,84.2z"/>
			</g>
			<g>
				<g>
					<path class="st6" d="M83.3,92.5C83.3,92.5,83.4,92.5,83.3,92.5c0.2-0.1,0.2-0.2,0.4-0.3c0.3-0.1,0.7-0.2,1.3-0.1
						c0.5,0.1,1.1,0.4,1.8,0.6s1.5,0.3,2.3,0.4c1.7,0,3.2-0.2,4.2-0.2c0.5,0,1-0.1,1.3-0.1s0.5,0,0.5,0s-0.2,0-0.5,0.1
						c-0.4,0-0.8,0.1-1.3,0.2c-1.1,0.1-2.6,0.4-4.3,0.3c-0.9,0-1.6-0.2-2.3-0.4s-1.3-0.5-1.8-0.7s-1-0.1-1.2,0
						C83.5,92.4,83.3,92.5,83.3,92.5z"/>
				</g>
			</g>
		</g>
		<g>
			<g>
				<path class="st7" d="M169.2,97.9l-13.6-3.4l-11.7,8.2c0,0-2-1.2-3.2-0.7c-1.2,0.5-3.4,2.1-3.4,2.1l-3.9-2l-14.6,1.1l-2.7,2.4
					c0,0-0.6-1.4-1.4-0.7c-0.9,0.7-1.6,0.5-1.6,0.5s-0.9-2.5-2.7-3.4c-1.8-1-5.8-2.5-6.5-2.3c-0.7,0.2-5.3-4.3-5.3-4.3l-2.9-2.2
					c0,0-14.9,1.6-15,2.7c-0.2,1.1,3.5,6.6,4.2,6.6l2.5,0.8c0,0,0.7,3,2.9,5.1c2.3,2,9.9,7.3,9.9,7.3s-3.5,21.8-5.1,25.8
					c-1.6,4-2.9,9.2-2.5,14.1c0.4,5,2.5,19.1,2.5,19.1l11-3.4l43.6-1.3l8.3,1.9c0,0-0.5-11.6-1-17.9c-0.4-6.2-1-19.3-2.8-27
					c-1.8-7.8-1.4-11.3-1.4-11.3s13.4-12.8,14.5-14.5C168.3,99.5,169.6,99.1,169.2,97.9z"/>
			</g>
			<g class="st8">
				<path d="M145,127.7c0,0,4.8,8.3,5.1,13.1c0.4,4.7-3.8,12.4-3.8,12.4l-4.2-6.2L145,127.7z"/>
			</g>
			<g class="st8">
				<g>
					<path d="M110.2,127.1c-4.2,3.9-6.7,9.4-9,14.7c-2.2,5.1-4.4,10.4-5.3,15.9c-0.9,5.5-0.6,11.2,1,16.5l17.5-6.5L113,146
						L110.2,127.1z"/>
				</g>
			</g>
			<g>
				<polygon class="st4" points="107.6,154.2 113,146 142,147.1 146.3,153.2 126.9,165.5 				"/>
			</g>
			<g>
				<path class="st9" d="M120.4,106.8l-3.4,5.6c0,0,0,4.4-0.8,6.3c-0.8,1.9-6.1,8.6-6.1,8.6l2.8,18.9c0,0,12.7,10.2,29,1l3-19.3
					c0,0-2.9-4.1-5.1-6c-2.2-2-3.5-7-3.9-9.8l-1.4-4.4C134.5,107.5,124.3,111.2,120.4,106.8z"/>
			</g>
			<g>
				<g>
					<path class="st10" d="M134.2,131c-0.5-0.3-1.4-0.3-1.9-0.4c-2-0.5-3.8-1.9-5.8-2c-1.1,0-2.2,0.4-3.3,0.8
						c-1.4,0.5-2.7,1.1-4.1,1.7c-0.4,0.2-0.7,0.4-1,0.6c-0.3,0.3-0.4,0.7-0.3,1.1c0.1,0.4,0.5,0.6,0.9,0.7c0.4,0,0.8-0.1,1.2-0.2
						c2-0.6,4-1.4,6-1.3c2.2,0.2,4.2,1.4,6.4,1.6c0.5,0,1,0,1.5-0.2c0.5-0.2,0.9-0.6,1-1.1C135,131.9,134.7,131.3,134.2,131z
						 M132.3,130.6l0.9,0.1C132.9,130.7,132.6,130.7,132.3,130.6z"/>
				</g>
			</g>
			<g>
				<g>
					<path class="st4" d="M124.5,128.9c0,0-0.1,0.1-0.3,0.2s-0.5,0.3-0.9,0.5c-0.8,0.4-1.9,0.9-3.2,1.1c-1.3,0.3-2.6,0.3-3.4,0.2
						c-0.4,0-0.8-0.1-1-0.2c-0.2,0-0.4-0.1-0.4-0.1c0,0,0.5,0,1.4,0.1c0.9,0,2.1,0,3.4-0.2c1.3-0.3,2.4-0.7,3.2-1.1
						C124,129.1,124.5,128.8,124.5,128.9z"/>
				</g>
			</g>
			<g>
				<g>
					<path class="st4" d="M120.5,146.4c0,0-0.9-0.5-1.5-1.4c-0.7-1-0.9-1.9-0.8-1.9c0.1,0,0.4,0.9,1,1.8
						C119.8,145.8,120.5,146.3,120.5,146.4z"/>
				</g>
			</g>
			<g>
				<g>
					<path class="st4" d="M132.5,133.9c0,0-0.2,0-0.5-0.2c-0.3-0.1-0.8-0.3-1.3-0.5c-1.1-0.4-2.7-0.9-4.6-1c-0.9,0-1.8,0-2.6,0.2
						c-0.2,0-0.4,0.1-0.6,0.1c-0.2,0-0.4,0.1-0.5,0.2c-0.4,0.1-0.6,0.2-0.9,0.4c-0.5,0.2-1,0.5-1.2,0.6c-0.3,0.2-0.5,0.3-0.5,0.2
						c0,0,0.2-0.1,0.4-0.3c0.3-0.2,0.7-0.4,1.2-0.7c0.3-0.1,0.6-0.3,0.9-0.4c0.2,0,0.4-0.1,0.5-0.2s0.4-0.1,0.6-0.1
						c0.8-0.2,1.7-0.2,2.6-0.2c1.9,0.1,3.5,0.7,4.6,1.1c0.6,0.2,1,0.4,1.3,0.5C132.4,133.8,132.5,133.9,132.5,133.9z"/>
				</g>
			</g>
			<g>
				<g>
					<path class="st4" d="M116.8,113c0,0,0-0.2,0-0.6c0-0.4-0.1-1-0.2-1.7c0-0.4-0.1-0.7-0.2-1.2c0-0.2-0.2-0.4-0.3-0.5
						c-0.2-0.2-0.4-0.2-0.6-0.2c-0.5,0-0.9,0.2-1.3,0.5c-0.4,0.3-0.9,0.6-1.5,0.6h-0.2l0.1-0.2l0,0c1.3-1.8,2.7-3.3,3.7-4.3
						c0.5-0.5,1-0.9,1.3-1.1c0.3-0.3,0.5-0.4,0.5-0.4s-0.2,0.2-0.5,0.4s-0.7,0.7-1.2,1.2c-1,1-2.4,2.5-3.6,4.3l0,0l-0.1-0.2
						c0.5,0,1-0.3,1.4-0.6c0.4-0.3,0.9-0.5,1.4-0.5c0.3,0,0.5,0.1,0.7,0.3s0.3,0.4,0.3,0.6c0.1,0.4,0.1,0.8,0.2,1.2
						c0.1,0.7,0.1,1.3,0.1,1.7C116.8,112.8,116.8,113,116.8,113z"/>
				</g>
			</g>
			<g>
				<g>
					<path class="st4" d="M113,123.4c0,0,0,0.1-0.2,0.3s-0.3,0.4-0.5,0.7c-0.5,0.6-1.2,1.6-2,2.7c-1.7,2.3-3.9,5.6-6.1,9.4
						c-1.1,1.9-2,3.7-2.8,5.5c-0.8,1.7-1.5,3.3-2,4.6c-0.3,0.7-0.5,1.3-0.7,1.8c-0.2,0.5-0.4,1-0.5,1.4c-0.1,0.4-0.2,0.7-0.3,0.9
						c-0.1,0.2-0.1,0.3-0.1,0.3s0-0.1,0.1-0.3c0.1-0.2,0.2-0.5,0.3-0.9s0.3-0.9,0.5-1.4c0.2-0.5,0.4-1.1,0.7-1.8
						c0.5-1.3,1.2-2.9,1.9-4.6c0.8-1.7,1.8-3.6,2.8-5.5c2.1-3.8,4.4-7.1,6.1-9.4c0.9-1.1,1.6-2.1,2.1-2.7c0.2-0.3,0.4-0.5,0.6-0.7
						C112.9,123.4,113,123.4,113,123.4z"/>
				</g>
			</g>
			<g>
				<g>
					<path class="st4" d="M105.1,118.5c0,0,0-0.2,0.2-0.6c0-0.2,0.1-0.4,0.2-0.7c0.1-0.3,0.2-0.6,0.3-0.9c0.2-0.7,0.6-1.4,1-2.3
						c0.4-0.8,0.9-1.7,1.5-2.7c1.1-1.8,2.3-3.4,3.3-4.4c0.5-0.5,0.9-0.9,1.1-1.2c0.3-0.3,0.4-0.4,0.4-0.4s-0.1,0.2-0.4,0.5
						c-0.3,0.3-0.6,0.7-1.1,1.2c-0.9,1.1-2.1,2.6-3.2,4.4c-0.5,0.9-1.1,1.8-1.5,2.6c-0.4,0.8-0.7,1.6-1,2.2
						c-0.2,0.3-0.2,0.6-0.4,0.9c-0.1,0.3-0.2,0.5-0.2,0.7C105.2,118.3,105.1,118.5,105.1,118.5z"/>
				</g>
			</g>
			<g>
				<g>
					<path class="st4" d="M105.9,104.5c0,0-0.1,0.2-0.3,0.5c-0.2,0.3-0.5,0.7-0.9,1.2c-0.7,1-1.7,2.5-2.5,4.2
						c-0.9,1.7-1.4,3.4-1.8,4.6c-0.2,0.6-0.3,1.1-0.4,1.4c-0.1,0.4-0.2,0.5-0.2,0.5c0,0,0-0.2,0.1-0.5c0.1-0.4,0.2-0.9,0.4-1.4
						c0.4-1.2,0.9-2.9,1.8-4.6c0.9-1.8,1.8-3.2,2.6-4.2c0.4-0.5,0.7-0.9,0.9-1.2C105.8,104.6,105.9,104.5,105.9,104.5z"/>
				</g>
			</g>
			<g>
				<g>
					<path class="st4" d="M101.1,97.6c0,0,0,0,0,0.2s-0.1,0.2-0.2,0.4c-0.2,0.4-0.5,0.9-1.1,1.3c-0.6,0.5-1.3,0.9-2.2,1.3
						s-1.9,0.7-3,1c-2.2,0.6-4.2,0.9-5.7,1c-0.7,0.1-1.3,0.1-1.8,0.1c-0.4,0-0.6,0-0.6,0c0,0,0.2,0,0.6,0c0.4,0,1-0.1,1.7-0.2
						c1.4-0.2,3.5-0.5,5.6-1.1c1.1-0.3,2.1-0.6,3-1c0.9-0.4,1.6-0.8,2.2-1.3C100.8,98.5,101,97.6,101.1,97.6z"/>
				</g>
			</g>
			<g>
				<g>
					<path class="st4" d="M137.4,104.2c0,0,0.1,0.2,0.2,0.5c0.1,0.3,0.3,0.8,0.5,1.4c0.4,1.2,0.9,2.8,1.3,4.6
						c0.2,0.7,0.4,1.5,0.5,2.1l0.1,0.3l-0.2-0.2c-0.5-0.5-0.9-0.9-1.4-1.2c-0.2-0.2-0.5-0.2-0.7-0.3c-0.2-0.1-0.4-0.2-0.6-0.2
						c-0.4-0.1-0.7,0.2-0.8,0.3c-0.2,0.2-0.2,0.3-0.2,0.3s0,0,0-0.1c0,0,0.1-0.1,0.1-0.2c0.1-0.1,0.2-0.2,0.3-0.3
						c0.2-0.1,0.4-0.1,0.6-0.1c0.2,0,0.4,0.1,0.7,0.2c0.2,0.1,0.5,0.2,0.7,0.3c0.5,0.3,1,0.7,1.5,1.2l-0.2,0.1
						c-0.2-0.7-0.3-1.4-0.5-2.1c-0.4-1.8-0.9-3.5-1.3-4.6c-0.2-0.5-0.3-1-0.4-1.4C137.4,104.4,137.3,104.2,137.4,104.2z"/>
				</g>
			</g>
			<g>
				<g>
					<path class="st4" d="M145.5,110c0,0-0.1-0.4-0.2-1.1c-0.1-0.7-0.3-1.6-0.6-2.5c-0.3-1-0.5-1.8-0.8-2.5c-0.2-0.6-0.4-1-0.4-1
						c0,0,0.2,0.4,0.5,1c0.3,0.6,0.5,1.5,0.8,2.5s0.4,1.9,0.5,2.6C145.5,109.6,145.5,110,145.5,110z"/>
				</g>
			</g>
			<g>
				<g>
					<path class="st4" d="M147.6,110.6c0,0-0.1-0.5-0.3-1.2c-0.2-0.8-0.5-1.8-1-2.9s-1.1-2-1.6-2.6c-0.5-0.6-0.8-1-0.8-1
						c0,0,0.1,0.1,0.3,0.2c0.2,0.2,0.4,0.4,0.6,0.7c0.5,0.6,1.1,1.5,1.6,2.6c0.5,1.1,0.8,2.2,0.9,3c0.1,0.4,0.1,0.7,0.1,0.9
						C147.6,110.5,147.6,110.6,147.6,110.6z"/>
				</g>
			</g>
			<g>
				<g>
					<path class="st4" d="M153.6,106.8c0,0,0,0.2-0.1,0.5c-0.1,0.3-0.2,0.7-0.2,1.3c-0.2,1.1-0.4,2.6-0.4,4.3
						c-0.1,1.7-0.1,3.2-0.1,4.3c0,0.5,0,1,0,1.3c0,0.3,0,0.5,0,0.5s0-0.2-0.1-0.5c0-0.3-0.1-0.7-0.1-1.3c0-1.1-0.1-2.7,0-4.4
						c0.1-1.7,0.3-3.2,0.5-4.3c0.1-0.5,0.2-1,0.3-1.3C153.5,107,153.6,106.8,153.6,106.8z"/>
				</g>
			</g>
			<g>
				<g>
					<path class="st4" d="M166.4,102.1c0,0-0.2,0-0.6-0.1c-0.4-0.1-1-0.2-1.7-0.3c-1.4-0.2-3.4-0.6-5.6-1c-1.1-0.2-2.1-0.4-3.1-0.7
						c-0.9-0.3-1.8-0.7-2.3-1.1c-0.6-0.4-1-0.9-1.2-1.2c-0.1-0.2-0.2-0.3-0.2-0.4c0-0.1-0.1-0.2-0.1-0.2c0,0,0.4,0.9,1.6,1.7
						c0.6,0.4,1.4,0.8,2.3,1.1c0.9,0.3,1.9,0.4,3.1,0.6c2.2,0.4,4.2,0.7,5.6,1c0.7,0.1,1.2,0.2,1.7,0.3
						C166.2,102,166.4,102.1,166.4,102.1z"/>
				</g>
			</g>
			<g>
				<g>
					<path class="st4" d="M146.3,152.6c0,0,0,0,0-0.1c0-0.1,0.1-0.2,0.2-0.3c0.2-0.3,0.4-0.7,0.6-1.2c0.5-1,1.2-2.5,1.9-4.5
						c0.3-1,0.7-2,0.9-3.2c0.2-1.2,0.4-2.5,0-3.8c-0.5-1.3-0.9-2.7-1.3-4.1s-1.1-2.8-1.8-4.2c-0.7-1.4-1.4-2.8-2.2-4
						c-0.4-0.6-0.8-1.2-1.3-1.8c-0.4-0.5-0.9-1.1-1.4-1.6c-0.9-1-1.8-1.9-2.6-2.8c-0.4-0.4-0.7-1-0.9-1.5s-0.5-1-0.7-1.5
						c-0.8-1.9-1.2-3.5-1.5-4.6c-0.1-0.5-0.2-1-0.2-1.3c0-0.2,0-0.2,0-0.4c0-0.1,0-0.1,0-0.1s0,0,0,0.1c0,0.1,0,0.2,0.1,0.4
						c0,0.3,0.2,0.7,0.3,1.3c0.3,1.1,0.7,2.7,1.5,4.6c0.2,0.5,0.4,1,0.7,1.4c0.3,0.5,0.5,1,0.9,1.4c0.8,0.9,1.7,1.8,2.6,2.8
						c0.5,0.5,0.9,1,1.4,1.6c0.5,0.5,0.9,1.1,1.3,1.8c0.8,1.2,1.5,2.6,2.2,4c0.7,1.4,1.3,2.8,1.8,4.2c0.5,1.4,0.9,2.8,1.3,4.1
						c0.4,1.3,0.2,2.7,0,3.9c-0.2,1.2-0.5,2.3-0.9,3.2c-0.7,1.9-1.4,3.4-1.9,4.4c-0.3,0.5-0.5,0.9-0.7,1.2c-0.1,0.1-0.1,0.2-0.2,0.3
						C146.3,152.6,146.3,152.6,146.3,152.6z"/>
				</g>
			</g>
			<g class="st8">
				<g>
					<path d="M141.4,115.3c-0.5-3.1-1.6-6.2-3.2-8.9c0.4,2.1,1.1,4.4,1.6,6.5c-0.9-1.1-3.3-2.5-3.9-1l0.2,1.2c1.6,0.5,3,1.6,4.1,2.8
						c0.2,0.2,0.4,0.5,0.7,0.5C141.4,116.3,141.5,115.7,141.4,115.3z"/>
				</g>
			</g>
			<g class="st8">
				<g>
					<path d="M143.9,102.9c-0.3,0.6,0,1.3,0.2,1.9c0.5,1.4,0.9,2.9,1.1,4.4c0.1,0.5,0.1,1.2,0.5,1.6c0.4,0.5,1.1,0.6,1.5,0.2
						c0.2-0.3,0.2-0.7,0.2-1.1c-0.4-2.6-1.5-5.1-3.1-7.2"/>
				</g>
			</g>
			<g class="st8">
				<g>
					<path d="M152,97.9c0.1,0.9,0.7,1.6,1.4,2.1c0.7,0.5,1.5,0.9,2.3,1.1c3.1,1.1,6.4,1.6,9.6,0.8c-2.3-0.4-4.6-0.7-6.9-1.1
						c-1.2-0.2-2.4-0.4-3.5-0.8C153.7,99.6,152.7,98.9,152,97.9"/>
				</g>
			</g>
			<g class="st8">
				<g>
					<path class="st11" d="M155.2,101.1"/>
				</g>
			</g>
			<g class="st8">
				<g>
					<path d="M112.8,105.4c-3.2,2-5.9,4.9-7.8,8.2c-0.4,0.6-0.7,1.3-0.9,2c-0.2,0.5-0.2,1.1,0.2,1.3c0.4,0.2,0.8-0.3,1.1-0.7
						c2.1-3.8,4.7-7.4,7.6-10.6"/>
				</g>
			</g>
			<g class="st8">
				<g>
					<path d="M116.7,115.5c0-1.6,0-3.2,0-4.8c0-0.7-0.2-1.4-0.7-1.8c-0.4-0.3-0.9-0.2-1.4,0c-0.5,0.2-0.9,0.5-1.3,0.7l-0.1,0
						c-0.5,0.7-0.9,1.5-1.1,2.3c0.5,0,1.1-0.4,1.6-0.6s1.2-0.4,1.6,0c0.3,0.3,0.4,0.7,0.4,1.1c0.2,1.8,0.5,3.5,0.7,5.3
						C116.7,117.1,116.7,116.3,116.7,115.5z"/>
				</g>
			</g>
			<g class="st8">
				<g>
					<path d="M86.9,103c3,1.1,6.5,1,9.4-0.2c1.7-0.7,3.3-1.9,3.9-3.7c-4.1,2.4-8.5,3.5-13.2,3.9"/>
				</g>
			</g>
			<g>
				<g>
					<path class="st9" d="M91,102.5c0,0-0.1-0.5-0.4-1.3c-0.2-0.8-0.7-1.9-1.3-3c-0.7-1.1-1.5-2-2.1-2.6c-0.6-0.6-1.1-0.9-1-0.9
						c0,0,0.1,0,0.3,0.2c0.2,0.1,0.5,0.4,0.8,0.6c0.7,0.5,1.5,1.4,2.1,2.6c0.7,1.1,1.1,2.3,1.3,3.1c0.1,0.4,0.2,0.8,0.2,1
						C91,102.4,91,102.5,91,102.5z"/>
				</g>
			</g>
			<g>
				<g>
					<path class="st9" d="M97.5,100.1c0,0-0.2-0.5-0.4-1.2c-0.3-0.7-0.8-1.6-1.5-2.5c-0.7-0.9-1.6-1.5-2.3-1.9
						c-0.7-0.4-1.1-0.5-1.1-0.6c0,0,0.1,0,0.3,0.1c0.2,0.1,0.5,0.2,0.8,0.4c0.7,0.4,1.6,1,2.3,1.9c0.8,0.9,1.2,1.9,1.5,2.6
						c0.1,0.4,0.2,0.7,0.2,0.9C97.5,99.9,97.5,100.1,97.5,100.1z"/>
				</g>
			</g>
			<g>
				<g>
					<path class="st9" d="M101.9,109.6c0,0-0.2-0.1-0.4-0.2c-0.3-0.2-0.7-0.4-1.1-0.6c-0.9-0.5-2.2-1.4-3.6-2.4s-2.5-2-3.3-2.7
						c-0.4-0.4-0.7-0.7-0.9-0.9c-0.2-0.2-0.3-0.4-0.3-0.4s0.2,0.1,0.4,0.3c0.3,0.2,0.6,0.5,1,0.9c0.8,0.7,2,1.7,3.4,2.7
						c1.3,1,2.6,1.8,3.5,2.4c0.4,0.3,0.8,0.5,1.1,0.7C101.8,109.5,101.9,109.6,101.9,109.6z"/>
				</g>
			</g>
			<g>
				<g>
					<path class="st9" d="M106.5,104c0,0-1.8-0.9-3.9-2c-2.1-1.2-3.9-2.1-3.9-2.2c0,0,1.8,0.9,3.9,2C104.8,103,106.5,104,106.5,104z
						"/>
				</g>
			</g>
			<g>
				<g>
					<path class="st9" d="M108.4,111.2c0,0-0.9-1.1-2.3-1.9c-1.4-0.9-2.8-1-2.8-1.1c0,0,0.4,0,0.9,0.1c0.5,0.1,1.3,0.4,2,0.8
						c0.7,0.4,1.3,1,1.7,1.4C108.2,110.9,108.4,111.1,108.4,111.2z"/>
				</g>
			</g>
			<g>
				<g>
					<path class="st9" d="M111.6,107.2c0,0,0-0.4-0.2-0.9s-0.5-1.3-1-1.9c-0.5-0.7-1.2-1.1-1.7-1.4c-0.5-0.3-0.9-0.4-0.9-0.4
						c0,0,0.4,0,0.9,0.3c0.5,0.2,1.2,0.7,1.8,1.4c0.5,0.7,0.9,1.5,1,2.1C111.6,106.8,111.6,107.2,111.6,107.2z"/>
				</g>
			</g>
			<g>
				<g>
					<path class="st9" d="M104.1,121.3c0,0-0.2-0.3-0.5-0.6c-0.3-0.4-0.8-0.9-1.5-1.2c-0.7-0.4-1.3-0.6-1.8-0.7
						c-0.5-0.1-0.8-0.1-0.8-0.1c0,0,0.3-0.1,0.8,0c0.5,0,1.2,0.2,1.9,0.7c0.7,0.4,1.2,0.9,1.5,1.3
						C104,121.1,104.2,121.3,104.1,121.3z"/>
				</g>
			</g>
			<g>
				<g>
					<path class="st9" d="M112.7,123.6c0,0-0.5,0-1.2-0.1c-0.7-0.1-1.7-0.3-2.8-0.6c-1.1-0.3-2.1-0.6-2.7-0.9
						c-0.7-0.3-1.1-0.5-1.1-0.5c0,0,0.4,0.1,1.1,0.4c0.7,0.2,1.7,0.5,2.7,0.8c1.1,0.3,2.1,0.5,2.8,0.6S112.7,123.6,112.7,123.6z"/>
				</g>
			</g>
			<g>
				<g>
					<path class="st9" d="M116.4,115.9c0,0-0.1,0-0.4,0c-0.2,0-0.6,0-1,0c-0.9-0.1-2-0.3-3.3-0.7c-1.2-0.5-2.3-1.1-3-1.5
						c-0.4-0.2-0.6-0.5-0.8-0.6c-0.2-0.2-0.3-0.2-0.3-0.3c0,0,0.4,0.3,1.2,0.7c0.7,0.5,1.8,1,3,1.4c1.2,0.4,2.4,0.7,3.2,0.8
						C115.9,115.8,116.4,115.8,116.4,115.9z"/>
				</g>
			</g>
			<g>
				<g>
					<path class="st9" d="M119.3,108.1c0,0-0.2-0.2-0.5-0.5c-0.3-0.3-0.7-0.6-1.3-0.8c-0.6-0.2-1.1-0.3-1.6-0.3
						c-0.4,0-0.7,0.1-0.7,0c0,0,0.2-0.1,0.7-0.2c0.4,0,1,0,1.6,0.2c0.6,0.2,1.1,0.6,1.4,0.9C119.2,107.9,119.3,108.1,119.3,108.1z"
						/>
				</g>
			</g>
			<g>
				<g>
					<path class="st9" d="M105.2,133.4c0,0-0.1,0-0.4-0.1c-0.2-0.1-0.5-0.2-0.9-0.4c-0.8-0.4-1.8-0.9-2.8-1.7
						c-1-0.8-1.8-1.6-2.3-2.3c-0.3-0.3-0.5-0.6-0.6-0.8c-0.1-0.2-0.2-0.3-0.2-0.3c0,0,0.4,0.4,0.9,1s1.4,1.4,2.4,2.2s2,1.4,2.8,1.7
						C104.7,133.2,105.2,133.4,105.2,133.4z"/>
				</g>
			</g>
			<g>
				<g>
					<path class="st9" d="M99.5,144.2c0,0-0.3-0.2-0.7-0.4c-0.4-0.3-1-0.7-1.6-1.2c-0.6-0.5-1.1-1.1-1.4-1.4
						c-0.4-0.4-0.5-0.6-0.5-0.7c0,0,0.9,0.9,2.1,1.9C98.5,143.4,99.5,144.1,99.5,144.2z"/>
				</g>
			</g>
			<g>
				<g>
					<path class="st9" d="M95.9,157c0,0-0.3-0.2-0.7-0.5s-0.9-0.9-1.4-1.6c-0.5-0.7-0.9-1.3-1.1-1.8s-0.4-0.8-0.4-0.8
						c0.1,0,0.6,1.2,1.6,2.5C94.9,156.2,96,157,95.9,157z"/>
				</g>
			</g>
			<g>
				<g>
					<path class="st9" d="M152.6,118.1c0,0-0.2,0.1-0.5,0.3c-0.3,0.2-0.7,0.4-1.3,0.7c-0.6,0.3-1.3,0.6-2.1,0.9
						c-0.8,0.3-1.7,0.5-2.7,0.7c-1,0.2-1.9,0.3-2.7,0.3c-0.9,0-1.6,0-2.3,0c-0.6,0-1.1-0.1-1.5-0.2c-0.4-0.1-0.5-0.1-0.5-0.1
						s0.2,0,0.5,0c0.4,0,0.9,0.1,1.5,0.1c0.6,0,1.4,0,2.2,0c0.8,0,1.8-0.2,2.7-0.3c0.9-0.2,1.8-0.4,2.7-0.7c0.8-0.3,1.5-0.5,2.1-0.8
						c0.6-0.3,1.1-0.5,1.4-0.7C152.5,118.2,152.6,118.1,152.6,118.1z"/>
				</g>
			</g>
			<g>
				<g>
					<path class="st9" d="M140.7,113.6c0,0-0.9,0.4-2.2,0.5c-1.2,0.1-2.3-0.1-2.3-0.2c0-0.1,1,0.1,2.3,0
						C139.7,113.8,140.7,113.5,140.7,113.6z"/>
				</g>
			</g>
			<g>
				<g>
					<path class="st9" d="M145,108.9c0,0-0.4,0-0.9,0c-0.5,0-1.3,0.2-2.1,0.5c-0.8,0.4-1.4,0.8-1.8,1.2c-0.4,0.4-0.6,0.7-0.7,0.6
						c0,0,0.2-0.3,0.6-0.7c0.4-0.4,1.1-0.9,1.9-1.3c0.8-0.4,1.6-0.5,2.2-0.5C144.7,108.7,145,108.8,145,108.9z"/>
				</g>
			</g>
			<g>
				<g>
					<path class="st9" d="M146.8,107.4c0,0-0.3,0.3-0.8,0.4c-0.5,0.1-0.9-0.1-0.9-0.2c0,0,0.4,0,0.8,0
						C146.4,107.5,146.7,107.3,146.8,107.4z"/>
				</g>
			</g>
			<g>
				<g>
					<path class="st9" d="M154.5,99.8c0,0-0.1,0.1-0.2,0.3c-0.2,0.2-0.4,0.5-0.7,0.8c-0.6,0.6-1.6,1.4-2.7,2.2s-2.2,1.4-3,1.8
						c-0.4,0.2-0.7,0.4-1,0.4c-0.2,0.1-0.4,0.2-0.4,0.1c0,0,0.5-0.3,1.3-0.7c0.8-0.4,1.8-1.1,3-1.8c1.1-0.8,2.1-1.6,2.7-2.2
						C154,100.2,154.4,99.7,154.5,99.8z"/>
				</g>
			</g>
			<g>
				<g>
					<path class="st9" d="M161.9,101.7c0,0,0,0.2-0.2,0.5c-0.1,0.3-0.4,0.7-0.6,1.2c-0.6,1.1-1.5,2.4-2.8,3.7
						c-1.2,1.3-2.6,2.3-3.6,3c-0.5,0.3-0.9,0.5-1.2,0.7c-0.3,0.2-0.5,0.2-0.5,0.2s0.2-0.1,0.4-0.3c0.3-0.2,0.7-0.4,1.2-0.7
						c1-0.7,2.3-1.7,3.5-3c1.2-1.3,2.2-2.7,2.8-3.7c0.3-0.5,0.5-0.9,0.7-1.2C161.8,101.8,161.8,101.7,161.9,101.7z"/>
				</g>
			</g>
			<g>
				<g>
					<path class="st9" d="M162.3,96.3c0,0,0,0.3-0.2,0.8c-0.2,0.5-0.5,1.2-1,1.8c-0.5,0.6-1.1,1.1-1.5,1.4c-0.5,0.3-0.8,0.4-0.8,0.4
						c0,0,1.2-0.6,2.1-1.8C162,97.6,162.2,96.3,162.3,96.3z"/>
				</g>
			</g>
			<g>
				<g>
					<path class="st9" d="M143.1,103.4c0,0-0.3,0-0.9,0c-0.5,0-1.2,0.1-2,0.4c-0.7,0.3-1.4,0.7-1.8,1c-0.4,0.3-0.6,0.5-0.7,0.5
						c0,0,0.2-0.3,0.5-0.7c0.4-0.4,1-0.8,1.8-1.1c0.8-0.3,1.5-0.4,2.1-0.3C142.8,103.3,143.1,103.4,143.1,103.4z"/>
				</g>
			</g>
			<g>
				<g>
					<path class="st9" d="M138.2,107.5c0,0-0.6-0.4-1.3-0.7c-0.7-0.3-1.4-0.4-1.4-0.5s0.7,0,1.5,0.3
						C137.7,106.9,138.2,107.4,138.2,107.5z"/>
				</g>
			</g>
			<g>
				<g>
					<path class="st9" d="M154.6,129.2c0,0-0.1,0.1-0.2,0.2s-0.4,0.3-0.7,0.5c-0.6,0.4-1.6,0.8-2.7,1c-1.1,0.3-2.1,0.3-2.8,0.3
						c-0.4,0-0.7,0-0.9-0.1c-0.2,0-0.3,0-0.3-0.1c0,0,0.5,0,1.2,0c0.7,0,1.7-0.1,2.8-0.4c1.1-0.3,2-0.6,2.6-1
						C154.1,129.4,154.5,129.2,154.6,129.2z"/>
				</g>
			</g>
			<g>
				<g>
					<path class="st9" d="M155.6,138.8c0,0-0.2,0.3-0.6,0.6c-0.4,0.3-1.1,0.7-1.9,0.9c-0.8,0.2-1.5,0.3-2.1,0.3s-0.9-0.1-0.9-0.1
						c0-0.1,1.3,0.1,2.9-0.4C154.6,139.7,155.6,138.8,155.6,138.8z"/>
				</g>
			</g>
			<g>
				<g>
					<path class="st9" d="M156.7,152.5c0,0-0.1,0-0.4,0.1c-0.2,0.1-0.6,0.1-1,0.2c-0.9,0.1-2.1,0.1-3.4-0.1c-1.3-0.2-2.5-0.6-3.3-1
						c-0.4-0.2-0.7-0.4-0.9-0.5c-0.2-0.1-0.3-0.2-0.3-0.2c0,0,0.5,0.2,1.3,0.6c0.8,0.4,1.9,0.7,3.3,0.9c1.3,0.2,2.5,0.2,3.4,0.1
						C156.2,152.6,156.7,152.5,156.7,152.5z"/>
				</g>
			</g>
			<g>
				<g>
					<path class="st9" d="M157.2,161.9c0,0-0.1,0.1-0.4,0.2c-0.2,0.2-0.6,0.3-1.1,0.5c-0.9,0.4-2.2,0.8-3.7,1
						c-1.5,0.2-2.8,0.1-3.8-0.1c-0.5-0.1-0.9-0.2-1.1-0.2c-0.3-0.1-0.4-0.1-0.4-0.2c0,0,0.6,0.1,1.6,0.2c1,0.1,2.3,0.2,3.7,0
						c1.5-0.2,2.8-0.5,3.7-0.9C156.7,162.1,157.2,161.8,157.2,161.9z"/>
				</g>
			</g>
		</g>
		<g>
			<g>
				<g>
					<g>
						<g>
							<path class="st12" d="M132.6,68.9c-0.4-0.9-1.2-1.8-2.2-2.1s-2.3,0.1-2.7,1l2.3,2.7c0.2,0.4,0.6,0.7,1,0.9
								c0.4,0.2,0.9,0.2,1.3-0.1c0.4-0.2,0.5-0.7,0.5-1.1C132.9,69.7,132.8,69.3,132.6,68.9z"/>
						</g>
					</g>
				</g>
				<g>
					<g>
						<g>
							<path class="st4" d="M139.2,80.9c-0.4-4.5-2.8-8.9-6.6-11.3c-3.8-2.4-9-2.7-12.8-0.2c-2.4,1.6-4.2,4-5.2,6.7
								c-1,2.7-0.6,4.9-0.5,7.8c0,1.5,0.2,5.5,1.5,6.2l20,3.6C138.1,90,139.6,85.4,139.2,80.9z"/>
						</g>
					</g>
				</g>
				<g>
					<g>
						<g>
							<path class="st4" d="M138.5,77.4c-0.5-2.7-3.1-5.3-5.1-7.1c-2.3-2-2.7-1.9-5.7-2c-3.3-0.1-6.8-0.1-9.4,2
								c-1.4,1.1-2.3,2.8-3.1,4.4c-1.7,3.8-1.4,8.2-0.9,12.3c0.5,4.1,1.4,8.1,4.8,10.5l14.3-2.2c3.2-1.2,4.2-4.8,5.1-8
								C139.3,84.2,139,80.8,138.5,77.4z"/>
						</g>
					</g>
				</g>
				<g>
					<g>
						<g>
							<g>
								<g>
									<path class="st5" d="M114.8,80.1c0.2-3.9,4.4-7.9,8.3-7.5l12.7,2.3V77l-1.2,30.5c-10,3.8-14.1-0.7-14.1-0.7l0.7-6.4
										c0,0-5-0.8-6.1-7.3C114.4,89.8,114.6,84.5,114.8,80.1z"/>
								</g>
							</g>
						</g>
						<g>
							<g>
								<g>
									<g>
										<g>
											<g>
												<g>
													<g>
														<g>
															<g>
																<g>
																	<g>
																		<g>
																			<g>
																				<path class="st6" d="M121.2,100.4c0,0,4.6,0.2,9-2.5c0,0-2.1,4.6-8.9,4.1L121.2,100.4z"/>
																			</g>
																		</g>
																	</g>
																</g>
															</g>
														</g>
													</g>
												</g>
											</g>
										</g>
									</g>
								</g>
							</g>
						</g>
					</g>
				</g>
				<g>
					<g>
						<g>
							<g>
								<path class="st4" d="M119.2,70.8c-2.4,1.6-4.1,4.3-4.9,7.3l0.4,2.4c0.5-1.2,0.6-2.4,1.8-3.6c0.8-0.8,2.2-1.6,3.7-1.9
									c4.4-1.1,5.8-2.7,7.8-5.5C125.1,68.6,121.6,69.1,119.2,70.8z"/>
							</g>
						</g>
					</g>
					<g>
						<g>
							<g>
								<path class="st4" d="M138,77.2c-1.2-4.4-5.2-7.8-9.7-8.5l-0.4,0.6c-1.1,1.3-2.2,2.6-3.3,3.9c-0.3,0.3-0.5,0.7-0.6,1.1
									c-0.1,0.5,0.3,1.1,0.7,1.5c1.1,0.9,2.5,0.9,3.9,0.9c1.4,0,2.8,0.2,3.8,1.1c1.2,1.2,1.2,3.1,0.8,4.8c-0.4,1.6-0.6,4.3-0.4,6
									c0.2,1.5,2.1-2.1,3.4-1.4c0.4,0.2-0.6,6.1-0.2,5.9s0.4-2.3,0.5-2.7c0.7-2.1,1.3-4.3,1.7-6.5C138.5,81.6,138.6,79.3,138,77.2
									z"/>
							</g>
						</g>
					</g>
					<g>
						<g>
							<g>
								<g>
									<g>
										<g>
											<g>
												<g>
													<g>
														<g>
															<g>
																<g>
																	<g>
																		<g>
																			<g>
																				<g>
																					<g>
																						<path class="st6" d="M135.3,91c0,0,0.1,0,0.2,0.1c0.1,0.1,0.3,0.1,0.5,0c0.4-0.1,0.9-0.8,0.9-1.5
																							c0-0.4,0-0.7-0.1-1s-0.3-0.5-0.5-0.6c-0.2-0.1-0.4,0-0.4,0.2c-0.1,0.1,0,0.2-0.1,0.2c0,0-0.1-0.1,0-0.2
																							c0-0.1,0.1-0.2,0.2-0.2c0.1-0.1,0.2-0.1,0.4-0.1c0.3,0,0.6,0.4,0.7,0.7c0.2,0.3,0.2,0.7,0.2,1.1
																							c-0.1,0.8-0.5,1.6-1.1,1.7c-0.3,0-0.5,0-0.6-0.2C135.3,91.1,135.3,91,135.3,91z"/>
																					</g>
																				</g>
																			</g>
																		</g>
																	</g>
																</g>
															</g>
														</g>
													</g>
												</g>
											</g>
										</g>
									</g>
								</g>
							</g>
						</g>
					</g>
					<g>
						<g>
							<g>
								<g>
									<path class="st13" d="M135.3,71.9c0,0,0.7,0.7,1.4,2c0.4,0.7,0.8,1.5,1.2,2.4c0.4,0.9,0.7,2,0.9,3.2c0.4,2.3,0.3,4.5-0.1,6
										c0,0.2-0.1,0.4-0.1,0.5c0,0.2-0.1,0.3-0.1,0.5c-0.1,0.3-0.2,0.5-0.2,0.7c-0.1,0.2-0.1,0.4-0.2,0.5c0,0.1-0.1,0.2-0.1,0.2
										s0-0.1,0-0.2c0-0.1,0.1-0.3,0.2-0.5s0.2-0.5,0.2-0.7c0-0.2,0.1-0.3,0.1-0.5c0-0.2,0.1-0.4,0.1-0.5c0.3-1.5,0.5-3.6,0-5.9
										c-0.2-1.1-0.5-2.2-0.9-3.2s-0.7-1.8-1.1-2.4c-0.1-0.2-0.2-0.3-0.3-0.5c-0.1-0.2-0.2-0.3-0.3-0.4c-0.1-0.1-0.2-0.2-0.2-0.4
										c-0.1-0.1-0.2-0.2-0.2-0.3c-0.1-0.2-0.2-0.3-0.3-0.4C135.3,72,135.3,71.9,135.3,71.9z"/>
								</g>
							</g>
						</g>
					</g>
					<g>
						<g>
							<g>
								<g>
									<path class="st13" d="M135.7,73.1c0,0,0,0,0,0.1c0,0.1-0.1,0.2-0.2,0.3c-0.2,0.3-0.6,0.5-1.1,0.7c-0.5,0.2-1.2,0.4-1.9,0.5
										c-0.7,0.2-1.5,0.3-2.4,0.4c-0.9,0.1-1.7,0-2.4-0.1c-0.7-0.1-1.4-0.3-1.9-0.5c-0.5-0.2-0.9-0.4-1.2-0.5
										c-0.1-0.1-0.2-0.2-0.3-0.2c-0.1,0-0.1-0.1-0.1-0.1s0.2,0.1,0.4,0.2c0.3,0.2,0.7,0.4,1.2,0.5c0.5,0.2,1.2,0.4,1.9,0.4
										c0.7,0.1,1.5,0.1,2.4,0.1c1.7-0.1,3.2-0.5,4.2-0.8c0.5-0.2,0.9-0.4,1.1-0.7C135.6,73.3,135.7,73.1,135.7,73.1z"/>
								</g>
							</g>
						</g>
					</g>
					<g>
						<g>
							<g>
								<g>
									<path class="st13" d="M134.9,71.7C134.9,71.7,134.9,71.8,134.9,71.7c-0.1,0.1-0.2,0.2-0.3,0.3c-0.2,0.2-0.5,0.4-0.9,0.7
										c-0.8,0.5-2.1,0.9-3.5,0.9c-1.4,0-2.7-0.3-3.6-0.5c-0.5-0.1-0.8-0.2-1.1-0.3s-0.4-0.1-0.4-0.1s0.2,0,0.4,0.1
										c0.3,0.1,0.6,0.2,1.1,0.2c0.9,0.2,2.2,0.5,3.6,0.5s2.7-0.4,3.5-0.8C134.5,72.1,134.9,71.7,134.9,71.7z"/>
								</g>
							</g>
						</g>
					</g>
					<g>
						<g>
							<g>
								<g>
									<path class="st13" d="M134.1,71.3c0,0-0.1,0-0.3,0.1c-0.2,0-0.5,0.1-0.8,0.2c-0.7,0.2-1.6,0.3-2.7,0.3
										c-1.1,0-2-0.2-2.7-0.3c-0.4-0.1-0.6-0.2-0.8-0.2c-0.2,0-0.3-0.1-0.3-0.1c0,0,0.1,0,0.3,0s0.5,0.1,0.8,0.2
										c0.7,0.1,1.6,0.2,2.7,0.3c1.1,0,2-0.1,2.7-0.2c0.4-0.1,0.6-0.1,0.8-0.2C134,71.3,134.1,71.2,134.1,71.3z"/>
								</g>
							</g>
						</g>
					</g>
					<g>
						<g>
							<g>
								<g>
									<path class="st13" d="M128.8,67.9c0,0,0,0.1-0.1,0.3c-0.1,0.2-0.2,0.4-0.4,0.7c-0.3,0.6-0.8,1.4-1.5,2.3
										c-0.7,0.8-1.4,1.4-2,1.8c-0.3,0.2-0.5,0.4-0.7,0.4c-0.2,0.1-0.3,0.2-0.3,0.2s0.1-0.1,0.2-0.2s0.4-0.3,0.7-0.5
										c0.5-0.4,1.3-1.1,2-1.8c0.7-0.8,1.2-1.6,1.5-2.2c0.2-0.3,0.3-0.5,0.4-0.7C128.7,67.9,128.8,67.8,128.8,67.9z"/>
								</g>
							</g>
						</g>
					</g>
					<g>
						<g>
							<g>
								<g>
									<path class="st13" d="M114.4,76.5c0,0,0,0,0.1-0.1s0.1-0.2,0.2-0.3c0.2-0.2,0.5-0.6,0.9-1c0.4-0.4,0.9-0.9,1.5-1.2
										c0.3-0.2,0.6-0.4,1-0.6c0.4-0.2,0.7-0.4,1.2-0.5c1.6-0.5,3.2-0.6,4.3-0.5c0.5,0,1,0.2,1.3,0.2c0.2,0,0.3,0.1,0.4,0.1
										c0.1,0,0.1,0,0.1,0s-0.2,0-0.5-0.1c-0.3,0-0.7-0.1-1.3-0.2c-1.1-0.1-2.7,0-4.2,0.5c-1.6,0.5-2.8,1.5-3.6,2.3
										c-0.4,0.4-0.7,0.7-0.9,0.9c-0.1,0.1-0.2,0.2-0.2,0.3C114.5,76.5,114.4,76.5,114.4,76.5z"/>
								</g>
							</g>
						</g>
					</g>
					<g>
						<g>
							<g>
								<g>
									<path class="st13" d="M117.4,72.1c0,0,0.1-0.1,0.3-0.2c0.1-0.1,0.2-0.2,0.4-0.2c0.2-0.1,0.3-0.2,0.5-0.2s0.4-0.2,0.7-0.3
										c0.2-0.1,0.5-0.2,0.7-0.2c0.5-0.2,1.2-0.3,1.8-0.4c0.7-0.1,1.3,0,1.8,0c0.3,0,0.5,0,0.8,0.1c0.2,0,0.5,0.1,0.7,0.1
										c0.2,0,0.4,0.1,0.5,0.2c0.2,0,0.3,0.1,0.4,0.1c0.2,0.1,0.4,0.1,0.4,0.2c0,0-0.1,0-0.4-0.1c-0.1,0-0.2-0.1-0.4-0.1
										c-0.2,0-0.4-0.1-0.5-0.1s-0.4-0.1-0.7-0.1c-0.2,0-0.5-0.1-0.8-0.1c-0.5,0-1.2,0-1.8,0c-0.6,0.1-1.2,0.2-1.8,0.3
										c-0.3,0.1-0.5,0.2-0.7,0.2c-0.2,0.1-0.5,0.2-0.7,0.2s-0.4,0.2-0.5,0.2S118,72,117.8,72C117.6,72.1,117.4,72.2,117.4,72.1z"
										/>
								</g>
							</g>
						</g>
					</g>
				</g>
			</g>
		</g>
		<g>
			<g>
				<path class="st4" d="M110.7,154.9c0,0-12.3-5.4-15.9-5.5c-3.1-0.1-8.3,1.3-9.9,4.5c-1.5,3.2-1.1,7.7,0,9.4
					c1.1,1.7,12.1,7,17.4,9c5.3,2,22,6.6,22,6.6l23.5-1.5c0,0,6.9-6,8-7.2c1.1-1.2,8.1-7.8,8.9-8.9c0.7-1.1,2.8-7.6,0.5-10.2
					s-3.8-4.2-7-4c-3.2,0.2-5.5,0.6-9.6,3.6c-3.2,2.3-4.4,3.2-7.6,3.9c-3.2,0.7-9.5,2.6-14.6,2.2
					C121.3,156.4,110.7,154.9,110.7,154.9z"/>
			</g>
			<g>
				<g>
					<path class="st13" d="M99.1,154.2c0,0,0,0,0.1,0c0.1,0,0.2,0.1,0.3,0.2c0.3,0.1,0.7,0.3,1.1,0.5c1,0.5,2.4,1.2,4.2,2.1
						c1.8,0.9,3.9,1.9,6.2,3.2c2.3,1.2,4.8,2.6,7.5,4c3.7,2,7.2,3.8,10.1,5.4l0.1,0l0,0.1c-1.4,2.8-2.5,5.1-3.4,6.7
						c-0.4,0.8-0.7,1.4-0.9,1.9c-0.1,0.2-0.2,0.4-0.2,0.5c0,0.1-0.1,0.2-0.1,0.2s0-0.1,0.1-0.2c0-0.1,0.1-0.3,0.2-0.5
						c0.2-0.5,0.5-1.1,0.9-1.9c0.8-1.6,1.9-3.9,3.3-6.7l0,0.1c-2.9-1.6-6.4-3.4-10.2-5.4c-2.7-1.4-5.2-2.7-7.5-4
						c-2.3-1.2-4.4-2.3-6.2-3.2c-1.8-0.9-3.2-1.6-4.2-2.1c-0.5-0.2-0.9-0.4-1.1-0.6C99.4,154.3,99.2,154.3,99.1,154.2
						C99.2,154.2,99.1,154.2,99.1,154.2z"/>
				</g>
			</g>
			<g>
				<g>
					<path class="st13" d="M145,155.3C145,155.3,144.9,155.3,145,155.3c-0.2,0.1-0.2,0.2-0.4,0.2c-0.2,0.2-0.5,0.4-1,0.6
						c-0.9,0.5-2.1,1.3-3.8,2.1c-1.6,0.8-3.7,1.7-6,2.3c-1.2,0.3-2.5,0.5-3.8,0.7c-1.3,0.1-2.7,0.2-4.1,0.1
						c-2.8-0.2-5.5-0.7-7.8-1.4c-2.3-0.7-4.4-1.4-6.1-2.1c-1.7-0.7-3.1-1.2-4-1.7c-0.5-0.2-0.8-0.4-1.1-0.5c-0.1,0-0.2-0.1-0.3-0.1
						s-0.1,0-0.1,0s0,0,0.1,0c0.1,0,0.2,0.1,0.3,0.1c0.3,0.1,0.6,0.3,1.1,0.4c0.9,0.4,2.3,0.9,4.1,1.6c1.7,0.7,3.8,1.4,6.1,2.1
						c2.3,0.7,5,1.2,7.8,1.4c1.4,0.1,2.8,0.1,4.1,0c1.3-0.1,2.6-0.4,3.7-0.7c2.3-0.6,4.4-1.4,6-2.3c1.6-0.8,2.9-1.6,3.8-2.1
						c0.4-0.3,0.8-0.5,1-0.6c0.1-0.1,0.2-0.1,0.3-0.2C144.9,155.3,145,155.3,145,155.3z"/>
				</g>
			</g>
			<g>
				<g>
					<path class="st13" d="M128.3,167.7c0,0,0-0.1-0.1-0.4c0-0.2-0.1-0.6-0.1-1.1c-0.1-0.9-0.1-2.1,0-3.5c0.1-1.4,0.2-2.6,0.3-3.5
						c0.1-0.9,0.1-1.4,0.1-1.4s0,0.2,0,0.4s0,0.6,0,1.1c0,0.9-0.1,2.1-0.2,3.5c-0.1,1.4-0.1,2.6-0.1,3.5
						C128.2,167.1,128.3,167.7,128.3,167.7z"/>
				</g>
			</g>
			<g>
				<g>
					<path class="st13" d="M139.9,155.6c0,0-0.5,0.2-1.2,0.5c-0.8,0.3-1.8,0.7-2.9,1.2c-1.1,0.5-2.1,1.2-2.7,1.6
						c-0.7,0.5-1.1,0.7-1.1,0.7s0.1-0.1,0.3-0.2c0.2-0.2,0.4-0.4,0.8-0.6c0.7-0.5,1.6-1.1,2.7-1.7c1.1-0.5,2.2-1,3-1.2
						c0.4-0.1,0.7-0.2,0.9-0.3C139.7,155.7,139.8,155.6,139.9,155.6z"/>
				</g>
			</g>
			<g>
				<g>
					<path class="st13" d="M153.9,149.5c0,0-0.1,0.1-0.3,0.2c-0.2,0.1-0.5,0.3-0.8,0.5c-0.4,0.2-0.8,0.5-1.3,0.8s-1.1,0.7-1.7,1.1
						c-1.2,0.8-2.7,1.9-4.3,3.1c-1.6,1.2-3.3,2.5-5.1,3.9s-3.5,2.7-5.1,3.9c-1.6,1.2-3,2.2-4.3,3c-0.6,0.4-1.2,0.8-1.7,1.1
						c-0.5,0.3-0.9,0.6-1.3,0.8c-0.4,0.2-0.6,0.4-0.8,0.5c-0.2,0.1-0.3,0.2-0.3,0.2s0.1-0.1,0.3-0.2s0.5-0.3,0.8-0.5
						c0.4-0.2,0.8-0.5,1.3-0.8c0.5-0.3,1.1-0.7,1.7-1.1c1.2-0.9,2.7-1.9,4.2-3.1c1.6-1.2,3.3-2.5,5.1-3.9s3.5-2.7,5.1-3.9
						c1.6-1.2,3-2.2,4.3-3c0.6-0.4,1.2-0.8,1.7-1.1c0.5-0.3,0.9-0.6,1.3-0.8c0.4-0.2,0.6-0.4,0.9-0.5
						C153.7,149.5,153.9,149.5,153.9,149.5z"/>
				</g>
			</g>
			<g>
				<g>
					<path class="st13" d="M163.6,157.9C163.6,157.9,163.6,157.9,163.6,157.9c-0.1,0.2-0.1,0.2-0.1,0.3c-0.1,0.2-0.2,0.5-0.4,0.9
						c-0.4,0.8-0.9,1.9-1.8,3.2c-0.5,0.6-1,1.3-1.7,1.9c-0.7,0.7-1.4,1.3-2.2,1.9c-1.7,1.2-3.7,2.3-6,3c-2.3,0.8-4.5,1.3-6.5,1.8
						c-2,0.5-3.8,0.9-5.3,1.2c-1.5,0.3-2.8,0.5-3.7,0.7c-0.4,0.1-0.8,0.1-1,0.1c-0.1,0-0.2,0-0.3,0c-0.1,0-0.1,0-0.1,0s0,0,0.1,0
						c0.1,0,0.2,0,0.3,0c0.2,0,0.6-0.1,1-0.2c0.9-0.2,2.1-0.4,3.6-0.7c1.5-0.4,3.3-0.8,5.3-1.3c2-0.5,4.2-1.1,6.5-1.8s4.3-1.8,6-3
						c0.8-0.6,1.6-1.2,2.2-1.9c0.7-0.6,1.2-1.3,1.7-1.9c0.9-1.2,1.5-2.4,1.9-3.2c0.2-0.4,0.3-0.7,0.4-0.9
						C163.5,158.1,163.5,158,163.6,157.9C163.6,157.9,163.6,157.9,163.6,157.9z"/>
				</g>
			</g>
			<g>
				<g>
					<path class="st13" d="M164.7,157.8c0,0,0,0.3-0.2,0.8s-0.4,1.1-0.9,1.7s-0.9,1.1-1.2,1.4c-0.4,0.3-0.6,0.5-0.6,0.5
						c0,0,0.9-0.8,1.7-2C164.3,159,164.7,157.8,164.7,157.8z"/>
				</g>
			</g>
			<g>
				<g>
					<path class="st13" d="M122.9,178.2c0,0,0-0.2,0-0.4c0-0.3,0.1-0.6,0.2-1.1c0.2-0.9,0.5-2.1,1.1-3.5c0.5-1.3,1.1-2.5,1.5-3.3
						c0.2-0.4,0.4-0.7,0.5-1c0.1-0.2,0.2-0.4,0.2-0.4s-0.2,0.5-0.6,1.4c-0.4,0.8-0.9,2-1.4,3.3c-0.5,1.3-0.9,2.5-1.1,3.4
						C123.1,177.7,123,178.2,122.9,178.2z"/>
				</g>
			</g>
			<g>
				<g>
					<path class="st13" d="M93.7,153.1c0,0,0.3-0.2,0.7-0.3c0.5-0.1,1.2-0.2,1.9-0.1c0.7,0.1,1.4,0.4,1.8,0.6
						c0.4,0.2,0.7,0.4,0.7,0.5c0,0.1-1.1-0.7-2.5-0.8C94.8,152.7,93.7,153.1,93.7,153.1z"/>
				</g>
			</g>
		</g>
		<g>
			<g>
				<path class="st14" d="M103.3,172.4c-0.9,0-2.1,0.7-2.7,1.4c-0.6,0.7-0.9,1.6-1.3,2.4c-0.3,0.7-0.5,1.4-0.3,2.1
					c0.3,0.6,0.9,1,1.6,1.1c0.7,0.1,1.4,0,2-0.2c7.1-1.2,14.3,0.5,21.4-0.5L103.3,172.4z"/>
			</g>
			<g>
				<g>
					<path class="st9" d="M103.3,179.2c0,0,0.1-0.1,0.2-0.4c0.2-0.2,0.3-0.7,0.4-1.2c0-0.5-0.2-1.2-0.6-1.7
						c-0.2-0.3-0.5-0.5-0.9-0.6c-0.4-0.1-0.7-0.1-1.1,0.1c-0.3,0.2-0.5,0.6-0.2,0.9c0.1,0.2,0.2,0.3,0.4,0.3c0.2,0,0.3,0,0.4-0.1
						c0.2-0.2,0.3-0.5,0.3-0.8c0-0.3-0.1-0.6-0.2-0.8c-0.4-1-0.9-1.4-0.9-1.5c0,0,0.2,0.1,0.4,0.3c0.2,0.2,0.5,0.6,0.7,1.1
						c0.1,0.2,0.2,0.5,0.2,0.9s0,0.7-0.4,1c-0.2,0.1-0.4,0.2-0.6,0.1c-0.2,0-0.4-0.2-0.5-0.4c-0.1-0.2-0.2-0.4-0.1-0.6
						c0.1-0.2,0.2-0.4,0.4-0.5c0.4-0.3,0.9-0.3,1.2-0.2c0.4,0.1,0.7,0.4,0.9,0.7c0.5,0.5,0.7,1.2,0.6,1.8s-0.2,1-0.4,1.2
						C103.4,179.1,103.3,179.2,103.3,179.2z"/>
				</g>
			</g>
			<g>
				<g>
					<path class="st9" d="M108.1,173.8c0,0,0.2,0.3,0.4,0.8c0.2,0.5,0.3,1.3,0,2.1c-0.2,0.8-0.7,1.4-1.2,1.8
						c-0.4,0.4-0.7,0.5-0.8,0.5c0,0,0.3-0.2,0.7-0.5s0.9-1,1.1-1.8c0.2-0.8,0.2-1.6,0-2.1C108.2,174.1,108.1,173.8,108.1,173.8z"/>
				</g>
			</g>
			<g>
				<g>
					<path class="st9" d="M112,175c0,0-0.1,0.1-0.2,0.3c-0.2,0.2-0.4,0.5-0.4,0.9c-0.1,0.4,0,0.9,0.4,1.3c0.2,0.2,0.5,0.3,0.7,0.2
						s0.4-0.4,0.4-0.7c0-0.3-0.3-0.5-0.5-0.6c-0.3-0.1-0.5,0-0.7,0.1c-0.5,0.3-0.6,0.8-0.6,1.2s0.2,0.7,0.2,0.9
						c0.1,0.2,0.2,0.3,0.2,0.3s-0.1-0.1-0.2-0.3c-0.1-0.2-0.3-0.5-0.3-1c0-0.2,0-0.5,0.1-0.7c0.1-0.2,0.3-0.5,0.5-0.7
						c0.2-0.2,0.6-0.2,0.9-0.1c0.3,0.1,0.6,0.4,0.7,0.7c0,0.4-0.2,0.7-0.5,0.9c-0.4,0.2-0.7,0-0.9-0.2c-0.4-0.4-0.5-1-0.4-1.4
						c0.1-0.4,0.3-0.7,0.5-0.9C111.9,175.1,112,175,112,175z"/>
				</g>
			</g>
			<g>
				<g>
					<path class="st9" d="M116,179.2c0,0,0.1-0.1,0.3-0.4c0.2-0.2,0.4-0.5,0.4-0.9c0.1-0.4,0-0.7-0.1-1c-0.1-0.2-0.2-0.4-0.2-0.4
						c0,0,0.2,0.1,0.3,0.4s0.2,0.7,0.2,1.1s-0.3,0.8-0.5,1C116.2,179.2,116,179.2,116,179.2z"/>
				</g>
			</g>
		</g>
		<g>
			<g>
				<path class="st14" d="M154.8,173.7c-1.1-1.5-3.3-1.8-5.1-1.8c-1.5,0.1-3,0.4-4.4,0.8c-0.7,0.2-1.5,0.5-2.3,0.4
					c-0.7-0.1-1.2-0.5-1.9-0.7c-1.2-0.4-2.5,0.2-3.7,0.4c-3.1,0.5-6.3-0.7-9.2-2l-3.5,6.8c3.4,1.5,6.3,2.1,9.8,3
					c3.1,0.7,6.4,0.5,9.5,0.6c1.8,0.1,3.7,0.3,5.5,0s3.7-0.9,4.8-2.3C155.5,177.4,155.9,175.2,154.8,173.7z"/>
			</g>
			<g>
				<g>
					<path class="st9" d="M128.5,178.9c0,0,0,0-0.1-0.1c0-0.1-0.1-0.2-0.1-0.4c-0.1-0.3-0.2-0.8-0.2-1.4c0-0.6,0.2-1.3,0.6-1.9
						c0.2-0.3,0.5-0.7,0.9-0.9c0.4-0.2,0.9-0.2,1.3,0c0.2,0.2,0.4,0.4,0.3,0.7c0,0.2-0.2,0.2-0.3,0.3c-0.1,0-0.2,0-0.4,0
						c-0.4-0.1-0.8-0.2-1.1-0.5c-0.6-0.5-0.9-1.2-0.9-1.8c0-0.6,0.3-1.1,0.5-1.3c0.1-0.1,0.2-0.2,0.3-0.3s0.1-0.1,0.1-0.1
						s-0.1,0.1-0.3,0.4c-0.2,0.3-0.4,0.7-0.4,1.2c0,0.5,0.2,1.2,0.8,1.7c0.3,0.2,0.7,0.4,1.1,0.5c0.2,0,0.4,0,0.4-0.2
						c0-0.2-0.1-0.4-0.2-0.5c-0.3-0.2-0.8-0.2-1.1,0s-0.6,0.5-0.8,0.8c-0.4,0.6-0.6,1.3-0.6,1.9
						C128.2,178.2,128.6,178.9,128.5,178.9z"/>
				</g>
			</g>
			<g>
				<g>
					<path class="st9" d="M134,180c0,0,0.1,0,0.4-0.1c0.2,0,0.5-0.2,0.8-0.4c0.3-0.3,0.5-0.7,0.6-1.2s0-1.1-0.2-1.6
						c-0.2-0.5-0.5-1-0.9-1.4c-0.3-0.4-0.7-0.8-0.8-1.1c-0.2-0.4-0.2-0.7-0.1-1s0.2-0.3,0.2-0.3s-0.1,0.1-0.1,0.3
						c0,0.2,0,0.5,0.1,0.9c0.2,0.4,0.5,0.7,0.9,1.1c0.4,0.4,0.7,0.9,0.9,1.5c0.2,0.6,0.3,1.2,0.2,1.7s-0.4,1-0.7,1.2
						c-0.3,0.3-0.6,0.4-0.9,0.4C134.1,180,134,180,134,180z"/>
				</g>
			</g>
			<g>
				<g>
					<path class="st9" d="M143.1,173.1c0,0,0,0,0.1,0.2c0,0.1,0.1,0.3,0.1,0.5c0.1,0.4,0.2,1.1,0.1,1.8c0,0.4-0.1,0.8-0.3,1.2
						c-0.2,0.4-0.5,0.9-0.9,1.2c-0.5,0.3-1.1,0.4-1.6,0.2c-0.3-0.1-0.5-0.2-0.8-0.4c-0.2-0.2-0.4-0.5-0.3-0.9s0.3-0.6,0.6-0.7
						c0.3-0.1,0.7,0,0.9,0.2c0.5,0.4,0.6,1,0.6,1.5c-0.1,1.1-0.8,1.8-1.5,2.2s-1.3,0.5-1.7,0.7c-0.2,0-0.4,0.1-0.5,0.1
						c-0.1,0-0.2,0-0.2,0c0,0,0.2-0.1,0.6-0.2s1-0.3,1.6-0.7c0.3-0.2,0.6-0.5,0.9-0.8c0.2-0.4,0.4-0.8,0.5-1.3c0-0.5-0.1-1-0.5-1.4
						c-0.2-0.2-0.5-0.2-0.7-0.2c-0.2,0-0.4,0.3-0.5,0.5c0,0.3,0.1,0.5,0.3,0.7c0.2,0.2,0.4,0.3,0.7,0.4c0.5,0.2,1.1,0,1.5-0.2
						c0.4-0.2,0.7-0.7,0.9-1.1c0.2-0.4,0.2-0.8,0.3-1.2c0.1-0.7,0-1.4-0.1-1.8C143.1,173.4,143.1,173.1,143.1,173.1z"/>
				</g>
			</g>
			<g>
				<g>
					<path class="st9" d="M146.3,181c0,0,0,0-0.2-0.1c-0.1-0.1-0.2-0.2-0.4-0.4c-0.3-0.4-0.6-0.9-0.8-1.7c-0.2-0.8-0.1-1.8,0.4-2.7
						c0.3-0.5,0.6-0.9,1.1-1.3c0.5-0.4,1-0.7,1.7-0.6c0.7,0,1.2,0.6,1.2,1.2c0,0.3-0.3,0.6-0.5,0.7s-0.6,0.1-0.9,0
						c-0.5-0.2-0.9-0.7-0.9-1.2c-0.1-0.5,0-0.9,0.2-1.3c0.4-0.7,1-1,1.4-1.2c0.2-0.1,0.4-0.2,0.5-0.2c0.1,0,0.2-0.1,0.2,0
						c0,0-0.2,0.1-0.6,0.4c-0.4,0.2-0.9,0.6-1.3,1.2c-0.2,0.3-0.3,0.7-0.2,1.2c0.1,0.4,0.3,0.9,0.8,1.1c0.2,0.1,0.5,0,0.7,0
						c0.2-0.1,0.4-0.3,0.4-0.5c0.1-0.5-0.4-1-1-1c-0.6,0-1.1,0.3-1.6,0.6c-0.4,0.4-0.8,0.7-1.1,1.2c-0.5,0.9-0.6,1.9-0.4,2.6
						c0.2,0.8,0.5,1.3,0.7,1.7C146.1,180.8,146.3,180.9,146.3,181z"/>
				</g>
			</g>
			<g>
				<g>
					<path class="st9" d="M152.6,172.4c0,0,0.1,0.1,0.2,0.4c0.1,0.2,0.2,0.6,0.4,1c0.2,0.9,0.4,2.2,0,3.5s-1.2,2.4-1.9,3
						c-0.4,0.3-0.6,0.5-0.9,0.7c-0.2,0.1-0.4,0.2-0.4,0.2c0,0,0.5-0.3,1.1-0.9s1.4-1.6,1.8-3c0.4-1.3,0.3-2.6,0.1-3.4
						C152.8,172.9,152.6,172.4,152.6,172.4z"/>
				</g>
			</g>
		</g>
		<g>
			<g>
				<path class="st5" d="M111.3,87.3c0,0,1-1.1,1.1-1.5c0.3-1.6,0.8-2.4,1.6-2.9c0,0,1.1,1.8,1.2,4.9c0.1,2.2,0.1,3.9,0.1,3.9
					s1.1,2.6,0.6,3.9c-0.5,1.3-1.2,0.9-2.2,0.5s-1.3-2-1.3-2l-1-0.1V87.3L111.3,87.3z"/>
			</g>
			<g>
				<g>
					<path class="st6" d="M114,82.9c0,0,0,0,0.1,0.1c0,0.1,0.1,0.2,0.2,0.4c0.2,0.3,0.4,0.8,0.5,1.4c0.2,0.6,0.3,1.4,0.4,2.2
						c0,0.4,0.1,0.9,0.1,1.3c0,0.5,0.1,0.9,0.1,1.4s0,1,0,1.4c0,0.4,0.2,0.9,0.3,1.2c0.1,0.4,0.3,0.8,0.4,1.2
						c0.1,0.4,0.1,0.7,0.1,1.1c-0.1,0.7-0.3,1.1-0.5,1.4s-0.5,0.4-0.5,0.3c0,0,0.2-0.1,0.4-0.4c0.2-0.3,0.4-0.8,0.5-1.4
						c0.1-0.6-0.2-1.3-0.5-2.1c-0.2-0.4-0.3-0.8-0.4-1.3c-0.1-0.5-0.1-0.9-0.1-1.4s0-0.9,0-1.4c0-0.5-0.1-0.9-0.1-1.3
						c-0.1-0.8-0.2-1.6-0.4-2.2s-0.3-1.1-0.4-1.4C114.1,83.1,114,82.9,114,82.9z"/>
				</g>
			</g>
			<g>
				<g>
					<path class="st6" d="M113.3,87.7c0,0-0.5,0-1.2-0.1c-0.6-0.1-1.2-0.3-1.1-0.3c0,0,0.5,0,1.2,0.1
						C112.8,87.5,113.3,87.6,113.3,87.7z"/>
				</g>
			</g>
		</g>
		<g>
			<g>
				<path class="st13" d="M126.8,157.2c0,0-0.1,0-0.2,0c-0.2,0-0.4,0-0.5-0.1c-0.5-0.1-1.2-0.2-2.1-0.3c-1.7-0.2-4.1-0.6-6.7-1.1
					c-2.6-0.5-5-0.9-6.7-1.2c-0.9-0.2-1.6-0.3-2-0.4c-0.2,0-0.4-0.1-0.5-0.1c-0.1,0-0.2,0-0.2,0s0.1,0,0.2,0c0.2,0,0.4,0,0.5,0.1
					c0.5,0.1,1.2,0.2,2,0.4c1.8,0.3,4.1,0.7,6.7,1.2c2.6,0.4,5,0.8,6.7,1.1c0.8,0.2,1.5,0.3,2,0.4c0.2,0,0.4,0.1,0.5,0.1
					C126.7,157.1,126.8,157.1,126.8,157.2z"/>
			</g>
		</g>
		<g>
			<path class="st5" d="M137.4,82.2c0,0,1.1,2.7,1.1,3.8c0,1.1-0.7,3.8-0.7,3.8L137.4,82.2z"/>
		</g>
		<g>
			<g>
				<path class="st5" d="M139.5,90.4l-1.5-0.2c0,0-0.4-4-0.4-4.6c0.1-1.2-0.2-4.9-0.7-5.4c-1.1-1-0.8,5.4-0.8,5.4
					c0-1.7-0.1-3.8-0.4-4.2c-0.4-0.7-0.9,0.1-0.9,0.1s-0.9,6.5-0.9,8c-0.1,1.4-0.2,5.3,0.1,6.1c0.3,0.8,0,1.1,0.9,1
					c0.9-0.1,6-0.7,6-0.7l-1.1-5.4"/>
			</g>
			<g>
				<g>
					<path class="st6" d="M134.9,81.4c0,0,0,0.2,0,0.7c0,0.4-0.1,1-0.2,1.8c-0.2,1.5-0.4,3.5-0.7,5.8c-0.2,1.1-0.3,2.2-0.4,3.2
						c-0.1,1-0.2,1.9,0,2.6c0.1,0.4,0.3,0.6,0.5,0.7c0.2,0.2,0.5,0.2,0.7,0.3c0.4,0.1,0.6,0,0.6,0.1c0,0,0,0-0.2,0s-0.3,0-0.5,0
						c-0.2,0-0.5-0.1-0.7-0.2c-0.1-0.1-0.3-0.2-0.4-0.3c-0.1-0.1-0.2-0.3-0.2-0.5c-0.2-0.7-0.1-1.6-0.1-2.6c0.1-1,0.2-2.1,0.3-3.2
						c0.3-2.3,0.6-4.3,0.8-5.8c0.1-0.7,0.2-1.3,0.2-1.8C134.8,81.6,134.9,81.4,134.9,81.4z"/>
				</g>
			</g>
			<g>
				<g>
					<path class="st6" d="M135.9,87.4c0,0,0.1-0.3,0.2-0.6c0-0.4,0-0.6,0-0.7c0,0,0.2,0.3,0.2,0.7C136.2,87.2,136,87.5,135.9,87.4z"
						/>
				</g>
			</g>
			<g>
				<g>
					<path class="st6" d="M136,82.5c0,0,0.2,0.7,0.2,1.5s-0.1,1.5-0.2,1.5c0,0,0-0.7,0-1.5S136,82.5,136,82.5z"/>
				</g>
			</g>
			<g>
				<g>
					<path class="st6" d="M137.6,86.4c0,0-0.1-0.9-0.2-2.1c-0.1-1.1,0-2.1,0-2.1c0,0,0.1,0.9,0.2,2.1
						C137.7,85.5,137.7,86.4,137.6,86.4z"/>
				</g>
			</g>
			<g>
				<g>
					<path class="st6" d="M139.9,90.5c0,0-0.8,0.1-1.7,0.1c-0.9,0-1.7-0.1-1.7-0.2c0,0,0.8-0.1,1.7-0.1
						C139.2,90.4,139.9,90.4,139.9,90.5z"/>
				</g>
			</g>
		</g>
	</g>
</g>
</svg>
