<svg width="98" height="76" viewBox="0 0 98 76" fill="none" xmlns="http://www.w3.org/2000/svg">
<g clip-path="url(#clip0_1222_22065)">
<g filter="url(#filter0_d_1222_22065)">
<path d="M51.7746 19.8733C51.6628 17.1773 52.1258 14.4889 53.1306 11.9995C54.1355 9.51012 55.6574 7.28091 57.5881 5.47061L57.6034 5.45795C61.6001 1.78494 66.8051 -0.15686 72.1434 0.0335821H72.1098C75.3366 -0.147264 78.5621 0.410582 81.5574 1.66749C84.5526 2.92441 87.2441 4.84954 89.4406 7.30616L89.4528 7.31881C93.8564 12.735 96.1024 19.6873 95.7335 26.7598L95.7366 26.6934C95.9412 34.0381 94.6241 41.343 91.8741 48.1155L91.9963 47.7769C89.8005 53.086 86.7552 57.9725 82.9889 62.2302L83.0225 62.1922C79.9093 65.6927 76.302 68.6837 72.3236 71.063L72.1037 71.1833C69.0947 72.9825 65.9544 74.5348 62.7117 75.8259L62.2353 75.9937L52.6662 59.2522C56.6426 57.5893 60.133 54.8823 62.7941 51.3973L62.8338 51.3435C65.4835 48.0721 67.1454 44.0646 67.6123 39.8207L67.6214 39.7194C65.5392 39.6654 63.4914 39.1559 61.6124 38.2244C59.7334 37.2928 58.0655 35.9603 56.7179 34.314L56.6996 34.2919C53.2735 30.3378 51.5011 25.1363 51.7715 19.829L51.7685 19.8765L51.7746 19.8733ZM0.02656 19.8733C-0.0835676 17.1772 0.380496 14.4891 1.38578 11.9999C2.39107 9.51066 3.9129 7.28144 5.84317 5.47061L5.85844 5.45795C9.85431 1.78352 15.0599 -0.158491 20.3985 0.0335821H20.3649C23.5917 -0.148144 26.8175 0.4093 29.8129 1.66627C32.8083 2.92323 35.4997 4.84885 37.6956 7.30616L37.7078 7.32198C42.1132 12.7383 44.3595 19.6924 43.9886 26.7661L43.9916 26.6997C44.1963 34.0445 42.8792 41.3493 40.1291 48.1218L40.2513 47.7832C38.0566 53.0922 35.0123 57.9788 31.247 62.2365L31.2806 62.1986C28.1663 65.6992 24.558 68.6901 20.5786 71.0693L20.3588 71.1896C17.3504 72.9901 14.21 74.5424 10.9667 75.8323L10.4904 76L0.924242 59.2585C4.90125 57.5936 8.39165 54.8844 11.0522 51.3973L11.0919 51.3435C13.7416 48.0721 15.4035 44.0646 15.8703 39.8207L15.8795 39.7194C13.7981 39.6657 11.7512 39.1563 9.87307 38.2247C7.99498 37.2931 6.3282 35.9604 4.98213 34.314L4.96381 34.2919C1.53393 30.3409 -0.241943 25.1399 0.02656 19.8322L0.0235067 19.8797L0.02656 19.8733Z" fill="#C33070"/>
</g>
</g>
<defs>
<filter id="filter0_d_1222_22065" x="0" y="-2" width="104.773" height="84" filterUnits="userSpaceOnUse" color-interpolation-filters="sRGB">
<feFlood flood-opacity="0" result="BackgroundImageFix"/>
<feColorMatrix in="SourceAlpha" type="matrix" values="0 0 0 0 0 0 0 0 0 0 0 0 0 0 0 0 0 0 127 0" result="hardAlpha"/>
<feOffset dx="5" dy="2"/>
<feGaussianBlur stdDeviation="2"/>
<feComposite in2="hardAlpha" operator="out"/>
<feColorMatrix type="matrix" values="0 0 0 0 0 0 0 0 0 0 0 0 0 0 0 0 0 0 0.1 0"/>
<feBlend mode="normal" in2="BackgroundImageFix" result="effect1_dropShadow_1222_22065"/>
<feBlend mode="normal" in="SourceGraphic" in2="effect1_dropShadow_1222_22065" result="shape"/>
</filter>
<clipPath id="clip0_1222_22065">
<rect width="98" height="76" fill="white"/>
</clipPath>
</defs>
</svg>
