<svg width="98" height="76" viewBox="0 0 98 76" fill="none" xmlns="http://www.w3.org/2000/svg">
<g clip-path="url(#clip0_1222_22064)">
<g filter="url(#filter0_d_1222_22064)">
<path d="M44.2002 56.1266C44.3121 58.8221 43.8467 61.5099 42.8373 63.9987C41.8279 66.4876 40.2992 68.7163 38.36 70.5262L38.3446 70.5389C34.3296 74.2119 29.1007 76.1537 23.7378 75.9632H23.7716C20.5301 76.1441 17.2897 75.5863 14.2807 74.3293C11.2716 73.0724 8.5678 71.1473 6.36121 68.6907L6.34894 68.678C1.92516 63.2618 -0.331212 56.3096 0.0393713 49.237L0.0363039 49.3035C-0.169279 41.9587 1.15386 34.6538 3.91652 27.8814L3.79383 28.22C5.99961 22.9101 9.06005 18.0233 12.8456 13.7666L12.8119 13.8046C15.9393 10.3041 19.5632 7.31316 23.5599 4.93383L23.7808 4.81357C26.8036 3.01436 29.9583 1.46206 33.216 0.170896L33.6945 0.00316474L43.3076 16.7446C39.3129 18.4076 35.8065 21.1146 33.1332 24.5995L33.0933 24.6533C30.4315 27.9247 26.4539 32.6385 25.9848 36.8824H28.9545C31.0464 36.9364 31.9242 36.8824 34.3203 37.7725C36.208 38.704 37.8835 40.0365 39.2373 41.6828L39.2557 41.7049C42.6976 45.659 44.4781 50.8606 44.2064 56.1678L44.2094 56.1203L44.2002 56.1266ZM96.186 54.067C96.2966 56.7631 95.8304 61.5109 94.8205 64.0001C93.8106 66.4893 92.2818 68.7185 90.3427 70.5294L90.3273 70.542C86.3131 74.2165 81.0836 76.1585 75.7205 75.9664H75.7542C72.5126 76.1481 69.272 75.5907 66.2628 74.3337C63.2537 73.0768 60.5499 71.1511 58.3439 68.6938L58.3316 68.678C53.906 63.2617 51.6494 56.3076 52.022 49.2339L52.019 49.3003C51.8134 41.9555 53.1365 34.6507 55.8992 27.8782L55.7765 28.2168C57.9812 22.9078 61.0395 18.0212 64.8222 13.7635L64.7884 13.8014C67.917 10.3009 71.5419 7.30994 75.5395 4.93066L75.7604 4.8104C78.7826 3.00993 81.9374 1.45758 85.1956 0.167731L85.6741 0L95.2842 16.7415C91.2889 18.4064 87.7825 21.1156 85.1097 24.6027L85.0698 24.6565C82.408 27.9279 80.7384 31.9354 80.2694 36.1793L80.2602 36.2806C82.3512 36.3343 84.4075 36.8437 86.2943 37.7753C88.181 38.7069 89.8554 40.0396 91.2076 41.686L91.2261 41.7081C94.6717 45.6591 96.4557 50.8601 96.186 56.1678L96.1603 56.4271L96.186 54.067Z" fill="#C33070"/>
</g>
</g>
<defs>
<filter id="filter0_d_1222_22064" x="0" y="-2" width="105.213" height="84" filterUnits="userSpaceOnUse" color-interpolation-filters="sRGB">
<feFlood flood-opacity="0" result="BackgroundImageFix"/>
<feColorMatrix in="SourceAlpha" type="matrix" values="0 0 0 0 0 0 0 0 0 0 0 0 0 0 0 0 0 0 127 0" result="hardAlpha"/>
<feOffset dx="5" dy="2"/>
<feGaussianBlur stdDeviation="2"/>
<feComposite in2="hardAlpha" operator="out"/>
<feColorMatrix type="matrix" values="0 0 0 0 0 0 0 0 0 0 0 0 0 0 0 0 0 0 0.1 0"/>
<feBlend mode="normal" in2="BackgroundImageFix" result="effect1_dropShadow_1222_22064"/>
<feBlend mode="normal" in="SourceGraphic" in2="effect1_dropShadow_1222_22064" result="shape"/>
</filter>
<clipPath id="clip0_1222_22064">
<rect width="98" height="76" fill="white"/>
</clipPath>
</defs>
</svg>
