<?xml version="1.0" encoding="UTF-8"?>
<svg xmlns="http://www.w3.org/2000/svg" viewBox="0 0 222.77 131.93">
  <defs>
    <style>
      .cls-1 {
        fill: #f99893;
      }

      .cls-2 {
        fill: #f46c0f;
      }

      .cls-3 {
        fill: #f9b3af;
      }

      .cls-4 {
        fill: #ef8bb8;
      }

      .cls-5 {
        fill: #fff;
      }

      .cls-6 {
        fill: #ffc0bb;
      }

      .cls-7 {
        fill: #c33070;
      }

      .cls-8 {
        fill: #c17aa1;
      }

      .cls-9 {
        fill: #c4dfe8;
      }

      .cls-10 {
        fill: #e03268;
      }

      .cls-11 {
        fill: #dae3ef;
      }

      .cls-12, .cls-13, .cls-14 {
        fill: #daeef7;
      }

      .cls-15 {
        fill: #07085b;
      }

      .cls-16 {
        fill: #87a3cc;
      }

      .cls-17 {
        fill: #55769f;
      }

      .cls-18 {
        fill: #6387aa;
      }

      .cls-19 {
        fill: #3a5a89;
      }

      .cls-20 {
        fill: #4c6fae;
      }

      .cls-13, .cls-21 {
        mix-blend-mode: multiply;
      }

      .cls-14 {
        opacity: .2;
      }

      .cls-22 {
        isolation: isolate;
      }

      .cls-21 {
        opacity: .3;
      }
    </style>
  </defs>
  <g class="cls-22">
    <g id="Layer_1" data-name="Layer 1">
      <g>
        <path class="cls-11" d="M14.32,129.98H213.45c2.64-4.3,3.89-9.25,3.02-14.35-.64-3.74-2.37-7.44-3.36-11.17-3.43-13.01,2.05-26.67-6.43-38.67-7-9.91-11.13-9.83-13.73-20.58-.9-3.7,3.18-14.99,3.35-18.63,.34-7.24-1.79-15.36-18.62-21.84C168.47,1.18,152.96,.14,143.02,.02c-6.07-.07-12.2,.01-17.79,1.34-11.83,2.81-19.8,10.74-29.9,16-6.95,3.63-15.02,6.01-23.59,6.97-4.86,.54-9.99,.66-14.26,2.31-7.31,2.84-10.56,9.55-12.49,16.04-1.93,6.5-3.16,13.48-8.13,18.53-4.78,4.87-12.43,7.32-18.16,11.46C9.84,79.08,.18,85.98,0,100.53c-.13,10.66,9.56,16.34,14.32,29.45Z"/>
        <g>
          <g>
            <rect class="cls-4" x="172.38" y="103.98" width="1.8" height="25.79"/>
            <rect class="cls-4" x="182.37" y="103.98" width="1.8" height="25.79"/>
            <rect class="cls-4" x="209.38" y="103.98" width="1.8" height="25.79" transform="translate(420.57 233.75) rotate(180)"/>
            <rect class="cls-8" x="199.4" y="103.98" width="1.8" height="25.79" transform="translate(400.59 233.75) rotate(180)"/>
            <rect class="cls-4" x="169.52" y="102.27" width="44.5" height="5.56"/>
            <rect class="cls-8" x="167.78" y="100.54" width="47.99" height="2.14"/>
          </g>
          <g>
            <path class="cls-15" d="M191.91,83.31v1.52c-2.66,0-4.83,2.16-4.83,4.83s2.16,4.83,4.83,4.83v.6c0,.48,.39,.87,.87,.87h6.72c.48,0,.87-.39,.87-.87v-11.77h-8.46Zm-3.64,6.35c0-2,1.63-3.64,3.64-3.64v7.27c-2,0-3.64-1.63-3.64-3.64Z"/>
            <path class="cls-14" d="M200.37,85.58c-2.25,0-4.07,1.82-4.07,4.07s1.82,4.07,4.07,4.07v-8.14Z"/>
          </g>
          <path class="cls-2" d="M182.81,96.1h-1.06c.17-.09,.39-.15,.63-.15h26.67c1.4,0,2.53,.78,2.53,1.74v1.1c0,.96-1.13,1.74-2.53,1.74h-26.38s.14-4.43,.14-4.43Z"/>
          <path class="cls-10" d="M197.96,95.96c1.33,0,2.42,.74,2.42,1.66v1.25c0,.92-1.08,1.66-2.42,1.66h-16.61v-.28h.07l4.22-.27,.85-2.3s-1.65-1.27-1.75-1.3c-.11-.03-3.32-.13-3.32-.13h-.07v-.28h16.61Z"/>
          <path class="cls-12" d="M182.43,98.23c0-1.35-1.01-2-1.01-2h16.2c1.23,0,2.22,.68,2.22,1.53v.96c0,.84-.99,1.53-2.22,1.53h-16.2s1.01-.32,1.01-2.01Z"/>
          <path class="cls-13" d="M199.84,97.76v.96c0,.13-.02,.25-.06,.37-.55-.92-1.59-1.8-3.59-2.09-4.65-.66-14.77-.76-14.77-.76h16.2c1.23,0,2.22,.68,2.22,1.53Z"/>
        </g>
        <g>
          <path class="cls-19" d="M177.68,73.22c-.83,.02-24.28,0-24.28,0v23.95l17.34,.69s7.16-3.33,6.7-4.02c-.46-.69,.23-20.62,.23-20.62Z"/>
          <path class="cls-20" d="M154.65,34.59h0l-112.38,.03,.59,.59s-1.01,2.66-1.28,6.21c-.28,3.55-.14,35.76,0,36.65,.14,.89,24.69,22.46,24.69,22.46l84.03-1.41c1.24,.89,2.74,1.41,4.35,1.41h0c4.31,0,7.8-3.72,7.8-8.31V42.9c0-4.59-3.49-8.31-7.8-8.31Z"/>
          <rect class="cls-19" x="35.06" y="34.59" width="15.61" height="57.35" rx="7.41" ry="7.41"/>
          <rect class="cls-19" x="77.23" y="103.97" width="93.51" height="25.79"/>
          <path class="cls-20" d="M177.68,73.22c4.12,.12,7.52,3.54,7.76,7.79,.19,3.36-1.55,6.31-4.19,7.79-.9,.51-1.49,1.46-1.49,2.53v35.32c0,1.71-1.34,3.11-3,3.11h-4.34c-1.66,0-3-1.39-3-3.11v-45.14c0-4.66,3.71-8.42,8.25-8.29Z"/>
          <rect class="cls-20" x="72.99" y="92.83" width="99.6" height="15.4" rx="7.31" ry="7.31"/>
          <path class="cls-5" d="M162.45,92.83s-.32,0-.93,.02c-.6,.01-1.49,.03-2.62,.05-1.13,.02-2.5,.04-4.07,.06-1.57,.02-3.35,.05-5.28,.07-1.93,.02-4.03,.04-6.25,.06-2.22,.01-4.55,.03-6.97,.04-2.42,0-4.92,.03-7.46,.03-2.54,0-5.12,0-7.7,.01-2.58,0-5.16,0-7.7-.01-2.54,0-5.04-.02-7.46-.03-2.42-.02-4.76-.03-6.97-.04-2.22-.01-4.31-.04-6.25-.06-1.93-.02-3.71-.04-5.28-.07-1.57-.02-2.94-.04-4.07-.06-1.13-.01-2.02-.04-2.62-.05-.6-.01-.93-.02-.93-.02,0,0,.32,0,.93-.02,.6-.01,1.49-.03,2.62-.05,1.13-.02,2.5-.04,4.07-.06,1.57-.02,3.35-.05,5.28-.07,1.93-.02,4.03-.04,6.25-.06,2.22-.01,4.55-.03,6.97-.04,2.42,0,4.92-.03,7.46-.03,2.54,0,5.12,0,7.7-.01,2.58,0,5.16,0,7.7,.01,2.54,0,5.04,.02,7.46,.03,2.42,.02,4.76,.03,6.97,.04,2.22,.02,4.31,.04,6.25,.06,1.93,.02,3.71,.04,5.28,.07,1.57,.02,2.94,.04,4.07,.06,1.13,.01,2.02,.04,2.62,.05,.6,.01,.93,.02,.93,.02Z"/>
          <g>
            <path class="cls-6" d="M113.69,47.98l.42,.73-.08,.73s-.22,.35-.27,.37c-.05,.02-.58,.12-.58,.12l-.52-.12-.39-.18s-.7-.84-.47-1.01c.23-.17,.8-.94,1.26-.88,.46,.06,.62,.23,.62,.23Z"/>
            <path class="cls-3" d="M153.29,90.58l-3.28-1.65c-.91-.46-1.78-.98-2.6-1.58l-12.47-8.99v5.39l.83,3.05,6.26,3.55s4,1.24,7,1.49c.54,.12,1.09,.23,1.16,.24,.13,.02,2.56,.63,2.69,.13,.13-.51,1.27-.34,1.21-.55-.06-.21-.8-1.08-.8-1.08Z"/>
            <path class="cls-10" d="M154.87,91.46l-1.58-.87c.22,2.97-11.26-.24-11.26-.24h0l.02,1.96c0,.37,.34,.67,.75,.67l11.64-.1c.84,0,1.15-1.01,.44-1.42Z"/>
            <path class="cls-6" d="M150.38,90.58l-4.64-2.34h0l-10.91-7.01-2.79,2.51,.83,3.05,6.26,3.55s4,1.24,7,1.49c.54,.12,1.09,.23,1.16,.24,.13,.02,2.56,.63,2.69,.13,.13-.51,1.27-.34,1.21-.55-.06-.21-.8-1.08-.8-1.08Z"/>
            <path class="cls-6" d="M108.1,34.35s-5.34,1.02-7.41,2.46c-2.08,1.44-5.76,2.33-6.01,2.37l-.68,3.88s11.9,8.06,13.48,8.61c1.58,.55,4.05-1.35,4.05-1.35l3.49-2.31,1.84-2.18,3.42-6.31-12.18-5.16Z"/>
            <path class="cls-1" d="M115.33,46.44c-.36,.29-.68,.64-.95,1.02-.14,.19-.26,.4-.36,.62-.1,.22-.18,.46-.18,.75v.11s.02,.1,.02,.1c0,.04,.02,.09,.01,.13,0,.08-.01,.16-.04,.24-.06,.15-.21,.26-.39,.32-.37,.13-.83,.04-1.26-.12,.33,.31,.82,.55,1.35,.46,.26-.04,.53-.2,.68-.47,.04-.07,.06-.14,.08-.21,.02-.07,.02-.14,.03-.22,0-.07-.01-.14-.02-.21,0-.04,0-.05,0-.07v-.06c-.01-.17,.05-.38,.12-.58,.07-.2,.17-.4,.27-.6,.2-.4,.43-.79,.65-1.2Z"/>
            <path class="cls-1" d="M105.22,40.7s-1.82,2.47,.24,7.75c2.36,6.04-8.88-9.87-2.92-10.91,2.19-.38,2.68,3.16,2.68,3.16Z"/>
            <path class="cls-2" d="M127.5,37.27c-.51-1.72-2.05-5.74-2.07-5.78h0c-.07-.2-.15-.39-.23-.57-.62-1.34-2.03-3.41-4.69-3.7-.17-.02-.34-.03-.51-.05,.24-.07,.48-.16,.71-.26,.66-.28,1.29-.68,1.76-1.23,.23-.28,.43-.58,.57-.91,.14-.33,.22-.67,.25-1.02-.12,.32-.26,.63-.45,.91-.19,.28-.41,.52-.65,.74-.24,.22-.52,.39-.81,.54-.28,.16-.59,.28-.9,.38-.31,.1-.63,.19-.95,.25-.32,.07-.65,.11-.98,.15-.11,.01-.23,.02-.34,.03,.06-.04,.12-.08,.18-.12,.52-.37,1.02-.81,1.41-1.33,.4-.51,.7-1.12,.82-1.76,.12-.64,.05-1.3-.18-1.88,.03,.31,.05,.62,.02,.92-.03,.3-.08,.59-.18,.87-.1,.28-.22,.54-.38,.79-.16,.24-.34,.48-.54,.69-.4,.43-.87,.8-1.36,1.11-.06,.04-.13,.08-.19,.11,.01-.8-.23-1.53-.31-1.89-.17-.74-1.65-4.47-6.06-3.2-.25,.07-.49,.16-.7,.26-.01,0-.02,0-.04,0-.32,0-.64,0-.94-.03-.3-.04-.59-.11-.88-.22-.29-.11-.55-.28-.86-.47,.12,.33,.33,.65,.64,.86,.3,.22,.67,.35,1.04,.39,.04,0,.08,0,.11,0-1.74,1.31-1.95,3.5-1.91,4.71-.55,.27-2.81,1.36-5.99,2.66-1.32,.54-2.24,1.77-2.53,3.37-.23,1.32,0,2.66,.62,3.68-.13,1.62,1.02,3.31,5.23,4.38,0,0-.85-2.91,2.02-3.71,.93-.26,1.95-.03,2.61,.67,.48,.52,.85,1.35,.67,2.68,0,0,2.75,4.7,6.06,4.59l.75,1.88s2.43,.08,2.6,0c.17-.08,2.57-1.86,2.57-1.86,0,0,1.84,.11,1.92,.08,.03,0,.27-.07,.59-.26v.02c2.38-.77,3.32-4.74,2.5-7.52Zm-24.66-5.28c-.67,.55-1.83,1.66-2.45,2.96-.13-1.45,.93-3.08,1.63-3.85,.79-.88,2.42-1.78,3.68-2.4-1.05,1.2-1.51,2.18-2.86,3.29Zm3.21-3.67c-1.31,.61-3.26,1.63-4.17,2.65-.69,.77-1.73,2.36-1.69,3.83-.16-.64-.19-1.33-.06-2.03,.24-1.34,.99-2.35,2.06-2.79,1.53-.62,2.84-1.2,3.86-1.66,0,0,0,0,0,0Zm20.04,15.26c.31-.59,.52-1.41,.46-2.56-.11-2.16-.22-4.72-.53-6.87,.42,1.15,.88,2.44,1.11,3.23,.6,2.03,.18,4.77-1.04,6.2Z"/>
            <path class="cls-15" d="M113.31,45.32c.08,.19,.17,.36,.27,.51,.1,.16,.22,.29,.35,.41,.13,.11,.28,.22,.45,.29l.06,.03s.04,.02,.07,.02l.13,.05c.09,.03,.19,.06,.28,.1-.1,.02-.2,.04-.3,.04-.1,0-.21,0-.31-.04-.21-.04-.4-.15-.56-.29-.16-.14-.29-.32-.36-.52-.07-.2-.11-.41-.07-.61Z"/>
            <path class="cls-18" d="M123.45,65.46s9.7,10.32,13.83,13.77c0,0-.47,2.36-2.33,3.33-1.86,.97-16.98-14.96-16.76-14.96s5.25-2.14,5.25-2.14Z"/>
            <path class="cls-16" d="M71.13,80.27l-.43,1.99s3.65,13.07,17.96,10.7c14.31-2.37,22.78-16.08,22.78-16.08,0,0,9.06,8.38,21.85,10.5,0,0,2.17-1.16,2.8-5.5,0,0-15.19-14.73-19.54-19.81-4.35-5.08-45.43,18.2-45.43,18.2Z"/>
            <path class="cls-6" d="M114.27,52.12s-.47-4.64,1-7.03c1.46-2.39,2.48-3.22,2.67-2.92,.19,.3-1.06,3.64-.51,4.06,.55,.42,2.8,.08,4.23-6.16,0,0,.15-1.74,1.06-1.21,0,0,.09-.48,.42-.6,.27-.11,.56,.13,.56,.42v2.75s.4-.19,.59,.21c.19,.4,.13,2.58,.13,2.58,0,0,.49,.7,.28,2.01-.21,1.31-5.87,5.29-5.87,5.29l-3.11,1.44-1.44-.85Z"/>
            <path class="cls-1" d="M118.82,51.53l-1.54,.75-1.55,.74h-.03s-.03,0-.03,0l-1.45-.83-.03-.02v-.04c-.12-1.29-.11-2.59,.03-3.88,.07-.64,.19-1.29,.39-1.91,.05-.16,.1-.31,.16-.46l.09-.23c.03-.08,.06-.15,.1-.22,.08-.14,.15-.29,.24-.43l.26-.41c.35-.54,.72-1.08,1.14-1.57,.21-.25,.43-.49,.69-.7,.13-.1,.26-.21,.45-.25,.05,0,.1-.01,.16,.02,.03,.02,.05,.04,.07,.06,.01,.03,.03,.06,.03,.08,0,.1,0,.18-.02,.26-.12,.64-.31,1.26-.46,1.88-.08,.31-.15,.63-.2,.94-.02,.16-.04,.32-.04,.48,0,.16,0,.33,.13,.45-.13-.11-.14-.29-.15-.45,0-.16,0-.32,.02-.49,.04-.32,.1-.64,.17-.96,.13-.63,.31-1.26,.41-1.89,.01-.08,.02-.16,.01-.22,0-.05-.04-.07-.1-.05-.13,.03-.26,.13-.38,.23-.24,.2-.45,.45-.65,.69-.41,.49-.77,1.02-1.12,1.57-.74,1.06-1.05,2.32-1.22,3.59-.16,1.27-.16,2.57-.07,3.85l-.04-.06,1.43,.86h-.05s1.57-.7,1.57-.7l1.57-.69Z"/>
            <path class="cls-7" d="M95.1,38.37s-.13,1.9,1.95,3.09c0,0,4.87,1.4,8.68,6.43,3.81,5.04,8.85,9.82,8.85,9.82,0,0-.59-4.4-.55-5.93,0,0,1.99-.97,4.79-.25,0,0,2.41,6.31,3.6,7.96,1.19,1.65,4.28,10.5-.34,12.91-4.62,2.41-18.17-5.87-22.52-11.4,0,0,1.41,5.14,.4,6.26-1.02,1.13-8.07,5.98-12.82,7.34-4.74,1.35-14.85,8.86-17.05,7.51,0,0-5.13-13,.2-23.93,5.87-12.05,13.98-17.66,24.82-19.81Z"/>
            <path class="cls-15" d="M99.28,60.67c-.32-.38-.65-.75-.98-1.12-.33-.37-.66-.73-1-1.1-.67-.73-1.36-1.44-2.07-2.13,.58,.8,1.21,1.58,1.84,2.34,.32,.38,.63,.76,.96,1.14,.23,.26,.46,.52,.68,.78-.23-.02-.46-.05-.69-.08-.37-.06-.74-.14-1.11-.24-.36-.11-.72-.24-1.06-.4-.34-.17-.66-.38-.96-.62,.25,.29,.55,.55,.88,.76,.33,.21,.69,.38,1.06,.52,.37,.13,.75,.24,1.13,.32,.39,.08,.77,.13,1.18,.14h.42s-.27-.31-.27-.31Z"/>
            <path class="cls-15" d="M111.35,76.67c-.17-.38-.32-.79-.44-1.2-.12-.41-.22-.83-.29-1.25-.08-.42-.13-.85-.15-1.28-.03-.43-.01-.86,0-1.3-.09,.43-.16,.86-.17,1.3-.01,.22,0,.44,0,.66,.02,.22,.03,.44,.06,.66,.06,.44,.14,.87,.26,1.3,.1,.34,.21,.68,.35,1.01-.22-.03-.45-.08-.67-.15-.3-.09-.6-.21-.88-.35-.14-.07-.28-.16-.41-.24-.13-.09-.26-.18-.38-.29-.25-.2-.47-.44-.68-.68,.17,.28,.36,.55,.59,.78,.23,.24,.49,.44,.78,.62,.28,.17,.59,.32,.9,.42,.32,.11,.64,.18,.99,.21l.25,.02-.11-.24Z"/>
            <path class="cls-15" d="M115.15,58.17c.66,.54,1.32,1.09,1.95,1.66,.63,.57,1.24,1.17,1.8,1.8,.55,.65,1.07,1.33,1.38,2.13-.07-.43-.24-.84-.44-1.22-.2-.39-.45-.75-.71-1.1-.53-.69-1.14-1.32-1.78-1.9-.65-.58-1.32-1.12-2.03-1.61-.26-.18-.52-.36-.79-.53l.04,.31,.57,.45Z"/>
            <path class="cls-1" d="M121.96,44.28c-.14,.6-.29,1.21-.57,1.77,.29-.55,.46-1.15,.61-1.75,.15-.6,.26-1.22,.35-1.83,.09-.61,.17-1.23,.23-1.85,.05-.58,.1-1.15,.12-1.73-.07-.04-.13-.06-.18-.08-.01,.6-.04,1.2-.08,1.8-.04,.62-.1,1.24-.18,1.85-.08,.62-.17,1.23-.31,1.83Z"/>
            <path class="cls-1" d="M123.69,41.44v-.07c-.04,.79-.2,1.61-.3,2.39-.05,.41-.11,.82-.2,1.23-.08,.4-.18,.81-.34,1.19,.18-.37,.29-.78,.39-1.18,.1-.4,.18-.81,.24-1.22,.13-.77,.31-1.59,.39-2.38-.1,0-.18,.04-.18,.04Z"/>
            <path class="cls-1" d="M124.41,44.23c-.05,.37-.12,.75-.22,1.12-.1,.37-.22,.75-.4,1.09,.22-.32,.37-.69,.5-1.06,.1-.29,.18-.59,.26-.89-.07-.16-.12-.25-.13-.26Z"/>
            <g class="cls-21">
              <path class="cls-1" d="M109.63,49.68s-.36,.51,.32,1.58c.36-.17,.68-.36,.95-.52-.08-.82-1.27-1.05-1.27-1.05Z"/>
            </g>
            <path class="cls-1" d="M110.51,50.97l.12-.07c-.03-.08-.07-.15-.1-.22-.18-.33-.44-.62-.73-.86-.29-.23-.62-.43-.97-.54,.16,.08,.32,.18,.47,.28,.15,.1,.3,.22,.43,.34,.27,.25,.5,.53,.68,.84,.04,.07,.08,.15,.11,.22Z"/>
            <path class="cls-7" d="M151.96,91.46l-1.58-.87c.22,2.97-11.26-.24-11.26-.24h0l.02,1.96c0,.37,.34,.67,.75,.67l11.64-.1c.84,0,1.15-1.01,.44-1.42Z"/>
          </g>
          <path class="cls-12" d="M167.78,92.83c.44-.02,.88-.06,1.32-.04,.45,.03,.89,.15,1.3,.33,.41,.19,.8,.45,1.13,.78,.33,.33,.6,.71,.81,1.14,.21,.42,.35,.89,.41,1.36,.05,.49,.03,.93,.04,1.39v2.73s0,2.73,0,2.73c0,.46,0,.9-.04,1.39-.05,.48-.2,.94-.41,1.36-.21,.42-.48,.81-.81,1.14-.33,.32-.72,.59-1.13,.78-.41,.19-.86,.3-1.3,.33-.45,.02-.88-.02-1.32-.04,.44-.03,.88-.03,1.31-.09,.43-.07,.84-.21,1.22-.42,.76-.4,1.37-1.08,1.72-1.87,.17-.4,.29-.82,.33-1.25,.03-.42,.01-.89,0-1.34v-2.73s0-2.73,0-2.73c0-.45,.02-.92,0-1.34-.04-.43-.16-.85-.33-1.25-.35-.79-.96-1.47-1.72-1.87-.38-.21-.79-.35-1.22-.42-.43-.05-.87-.06-1.31-.09Z"/>
          <path class="cls-19" d="M71.66,73.22H33.19c-.15,0-.3,0-.45,0-4.12,.12-7.52,3.54-7.76,7.79-.19,3.36,1.55,6.31,4.19,7.79,.9,.51,1.49,1.46,1.49,2.53v35.32c0,1.72,1.34,3.11,3,3.11h40.67l-2.66-56.54Z"/>
          <path class="cls-20" d="M71.66,73.22c-4.12,.12-7.52,3.54-7.76,7.79-.19,3.36,1.55,6.31,4.19,7.79,.9,.51,1.49,1.46,1.49,2.53v35.32c0,1.72,1.34,3.11,3,3.11h4.34c1.66,0,3-1.39,3-3.11v-45.15c0-4.66-3.71-8.42-8.25-8.29Z"/>
          <path class="cls-5" d="M72.57,129.7l3.19-.05h.8c.27-.02,.53-.01,.78-.06,.51-.08,1-.32,1.39-.66,.39-.34,.7-.79,.87-1.29,.09-.25,.14-.51,.16-.77,.02-.26,0-.54,0-.81l-.04-3.3-.1-13.19c-.04-4.4-.03-8.79-.05-13.19l-.03-13.19v-1.65s-.03-.79-.03-.79c-.03-.26-.07-.52-.11-.78-.19-1.03-.59-2.02-1.16-2.9-1.13-1.75-2.97-3.01-4.98-3.38l-.76-.1c-.26-.01-.51-.02-.77-.02h-1.59s-3.19-.01-3.19-.01c-2.13,0-4.25-.02-6.38-.03l-12.76-.1c-4.25-.06-8.51-.1-12.76-.18,4.25-.08,8.51-.12,12.76-.18l12.76-.1c2.13-.02,4.25-.03,6.38-.03h3.19s1.6-.01,1.6-.01c.27,0,.55,0,.82,.02l.82,.11c2.19,.39,4.18,1.75,5.42,3.65,.62,.95,1.06,2.02,1.28,3.15,.04,.28,.09,.57,.12,.85l.04,.86v1.65s-.03,13.19-.03,13.19c-.02,4.4,0,8.79-.05,13.19l-.1,13.19-.04,3.3c0,.28,0,.55-.02,.84-.03,.28-.09,.57-.19,.83-.19,.54-.54,1-.97,1.36-.43,.35-.95,.59-1.49,.66-.27,.04-.54,.03-.81,.03h-.8s-3.19-.07-3.19-.07Z"/>
        </g>
        <path class="cls-9" d="M2.65,129.76H221.74c.57,0,1.03,.46,1.03,1.03v.11c0,.57-.46,1.03-1.03,1.03H2.65c-.57,0-1.03-.46-1.03-1.03v-.11c0-.57,.46-1.03,1.03-1.03Z"/>
        <g>
          <g>
            <path class="cls-4" d="M63.52,60.35c3.12,2.08-1.56,6.79-2.86,8,.37,1.51,.61,2.95,.74,4.28,1.05-2.01,.79-4.11,1.75-5.18,1.08-1.2,2.79-1.71,2.47,1.3-.26,2.39-3.03,3.88-4.17,4.4,.18,2.32,.06,4.31-.12,5.77,1.47-2.16,1.41-4.66,2.61-5.75,1.3-1.2,3.21-1.52,2.5,1.83-.59,2.77-4,4.05-5.17,4.41-.19,1.34-.42,2.14-.45,2.23-.45,1.63-.96,3.17-1.51,4.64,1.33-1.87,1.65-4.07,2.83-4.91,1.41-1.01,3.28-1.04,2.16,2.26-.88,2.62-4.08,3.42-5.37,3.64-1.21,3.05-2.58,5.75-4.01,8.11,1.63-1.24,3.37-4.18,5.12-4.79,1.15-.4,1.7,.16,1.96,.7,.22,.46,.22,1.05,0,1.61-1.27,3.17-5.94,3.03-7.34,2.92-1.78,2.89-3.61,5.26-5.24,7.13,.85-.63,2.13-1.59,2.77-2.12,1.02-.83,2.69-1.44,3.65-1.02,.04,.02,.08,.04,.11,.06,.7,.38,.89,1.35,.52,2.27-1.43,3.58-6.59,1.91-7.69,1.51-.01,.01-.02,.03-.03,.04-4.21,4.6-7.67,6.67-7.82,6.75l-.18-.54s3.33-1.99,7.3-6.24c-1.51-5.23,.73-8.47,2.05-8.52,1.37-.05,2.56,1.58,.89,3.81-.96,1.29-1.75,2.85-2.23,3.92,1.66-1.86,3.55-4.27,5.38-7.24-4.16-5.35-.35-8.64,1.14-7.98,1.51,.67,1.37,2.12,.27,4.19-.73,1.37-1.04,2.68-1.17,3.4,1.4-2.31,2.76-4.96,3.96-7.95-1.2-.18-4.2-.89-4.19-3.53,.01-3.29,1.88-3.31,2.95-2.33,.98,.9,.36,3.49,1.41,5.42,.65-1.66,1.25-3.43,1.77-5.3,0-.03,.47-1.64,.63-4.23-1.25,0-4.36-.27-4.66-2.81-.37-3.18,1.53-3.47,2.73-2.67,1.07,.71,.79,3.17,1.96,4.88,.09-2.19-.05-4.97-.8-8.02-1.3-.02-4.29-.32-4.58-2.81-.37-3.18,1.53-3.47,2.73-2.67,1.09,.72,.78,3.24,2.01,4.95l.06-.03c0-.89,.02-2.78-.02-3.67-.05-1.19,.49-2.94,1.43-3.72,.93-.79,1.76-.42,1.76-.42Z"/>
            <path class="cls-10" d="M29.02,60.94l-5.73-7.87c1.6-6.9,3.26-12.53,3.26-12.53,8.09,7.02,13.03,15.12,15.91,23.32l-3.57,10.5,5.26-4.74c5.37,22.36-2.85,43.67-2.85,43.67,0,0-18.16-29.44-20.49-37.45-.9-3.09-.25-9.06,.89-15.22,3.02,.37,7.31,.33,7.31,.33Z"/>
            <path class="cls-7" d="M26.56,40.54s15.23,47.18,14.75,72.74c0,0-18.16-29.44-20.49-37.45-.9-3.09-.25-9.06,.89-15.22,3.02,.37,7.31,.33,7.31,.33l-5.73-7.87c1.6-6.9,3.26-12.53,3.26-12.53Z"/>
            <path class="cls-2" d="M41.99,54.27c-2.52-.27-2,4.53-1.78,6.02,0,.06-.02,.13-.07,.17-.61,.51-1.16,1.04-1.66,1.57-.14,.15-.37,.03-.32-.16,.38-1.33,1.13-2.28,1.06-3.23-.09-1.24-.83-2.38-1.92-.44-.83,1.48-.02,3.61,.41,4.54,.03,.06,.02,.14-.03,.2-.76,.91-1.36,1.79-1.83,2.56-.11,.18-.39,.1-.35-.11,.29-1.54,1.04-2.72,.87-3.76-.22-1.35-1.14-2.47-2.16-.15-.81,1.86,.43,4.19,.96,5.05,.03,.05,.03,.12,0,.18-.42,.83-.62,1.38-.64,1.44-.11,.3-.21,.6-.32,.89-.08,.22-.41,.16-.37-.07,.12-.61,.19-1.15,.06-1.62-.36-1.29-1.38-2.23-2.16,.27-.6,1.92,.75,3.91,1.4,4.72,.03,.04,.04,.1,.03,.15-.46,1.8-.78,3.53-1,5.16-.03,.22-.36,.23-.38,.01-.1-1.39-.11-2.98-.62-3.85-.47-.8-1.01-.74-1.39-.55-.32,.16-.56,.51-.67,.95-.61,2.42,1.88,4.58,2.78,5.27,.05,.04,.07,.09,.07,.15-.15,1.75-.19,3.36-.16,4.81,0,.22-.32,.28-.38,.07-.08-.31-.14-.6-.19-.82-.22-.99-.89-2.17-1.6-2.39-.03,0-.06-.02-.09-.02-.55-.12-1.06,.36-1.25,1.08-.72,2.81,2.86,4.36,3.64,4.67,0,.01,0,.03,0,.04,.34,4.08,1.16,6.81,1.42,7.59,.04,.11,.18,.15,.29,.08h0c.07-.05,.1-.14,.08-.22-.2-.59-1-3.17-1.37-7.03,0-.06,.02-.13,.08-.17,2.96-2.33,3.07-5.29,2.36-5.96-.74-.7-2.09-.32-2.1,1.81,0,.57-.05,1.15-.12,1.7-.03,.23-.37,.23-.38,0-.05-1.51-.02-3.21,.14-5.06,0-.08,.07-.15,.15-.18,4.41-1.16,3.68-4.88,2.59-5.22-1.12-.35-1.65,.58-1.92,2.33-.06,.4-.15,.78-.24,1.12-.06,.23-.4,.18-.37-.05,.2-1.54,.5-3.16,.92-4.85,.03-.13,.18-.19,.29-.13,.86,.51,2.59,1.26,3.59-.16,1.38-1.95,.35-2.87-.66-2.82-.84,.05-1.52,1.55-2.69,2.29-.15,.09-.32-.03-.28-.19,.32-1.17,.7-2.37,1.15-3.59,0-.02,.4-1.1,1.31-2.6,.06-.1,.2-.13,.29-.06,.79,.65,2.46,1.74,3.61,.49,1.55-1.69,.61-2.79-.39-2.91-.76-.09-1.5,1.03-2.54,1.64-.18,.1-.36-.09-.24-.26,.82-1.17,1.92-2.48,3.34-3.7,.07-.06,.18-.07,.25,0,.79,.65,2.47,1.75,3.61,.49,1.55-1.69,.61-2.79-.39-2.91-.91-.11-1.8,1.53-3.2,1.93l-.02-.05c.37-.53,1.16-1.65,1.56-2.16,.53-.68,.96-1.97,.78-2.89-.16-.8-.66-1.05-.78-1.1-.02,0-.03-.01-.05-.01Z"/>
            <path class="cls-10" d="M12.17,68.16c4.6,1.65,8.44,4.3,11.64,7.5-.16,2.28-.31,5.01-.31,5.01l2.44-2.7c11.35,13.37,13.34,33.47,13.34,33.47-10.12-3.43-16.54-9.04-20.6-15.1,.55-1.33,1.4-3.28,1.4-3.28l-2.65,1.28c-1.79-3.09-3.02-6.25-3.85-9.26,1.38-.65,2.93-1.45,2.93-1.45l-3.62-1.45c-1.62-7.85-.71-14.02-.71-14.02Z"/>
            <path class="cls-7" d="M18.68,96.33c.55-1.33,1.4-3.28,1.4-3.28l-2.65,1.28c-1.79-3.09-3.02-6.25-3.85-9.26,1.38-.65,2.93-1.45,2.93-1.45l-3.62-1.45c-1.62-7.85-.71-14.02-.71-14.02,14.08,14.54,27.11,43.27,27.11,43.27-10.12-3.43-16.54-9.04-20.6-15.1Z"/>
          </g>
          <g>
            <path class="cls-15" d="M29.92,108.72h16.66v13.13c0,4.37-3.55,7.91-7.91,7.91h-.83c-4.37,0-7.91-3.55-7.91-7.91v-13.13h0Z"/>
            <path class="cls-17" d="M46.63,111.34H29.87c-.68,0-1.23-.7-1.23-1.56h0c0-.86,.55-1.56,1.23-1.56h16.76c.68,0,1.23,.7,1.23,1.56h0c0,.86-.55,1.56-1.23,1.56Z"/>
          </g>
        </g>
      </g>
    </g>
  </g>
</svg>