<?xml version="1.0" encoding="UTF-8"?>
<svg id="Calque_1" data-name="Calque 1" xmlns="http://www.w3.org/2000/svg" xmlns:xlink="http://www.w3.org/1999/xlink" viewBox="0 0 433.96 434.09">
  <defs>
    <style>
      .cls-1 {
        fill: #f4aed2;
      }

      .cls-2, .cls-3 {
        fill: #fff;
      }

      .cls-4 {
        fill: #91b3fa;
      }

      .cls-5 {
        fill: #a32c65;
      }

      .cls-6 {
        fill: #c33070;
      }

      .cls-7 {
        fill: #bdd0fb;
      }

      .cls-8 {
        fill: #dd76ae;
      }

      .cls-9 {
        fill: #87a3cc;
      }

      .cls-10 {
        fill: #2f3169;
      }

      .cls-11 {
        fill: #4c6fae;
      }

      .cls-3 {
        isolation: isolate;
        opacity: .78;
      }

      .cls-12 {
        opacity: .6;
      }

      .cls-13 {
        fill: url(#Dégradé_sans_nom);
      }

      .cls-14 {
        fill: url(#Dégradé_sans_nom_3);
      }

      .cls-15 {
        fill: url(#Dégradé_sans_nom_2);
      }

      .cls-16 {
        fill: url(#Dégradé_sans_nom_4);
      }
    </style>
    <linearGradient id="Dégradé_sans_nom" data-name="Dégradé sans nom" x1="488.23" y1="-124.04" x2="101.98" y2="355.66" gradientTransform="translate(0 438.17) scale(1 -1)" gradientUnits="userSpaceOnUse">
      <stop offset="0" stop-color="#dae3fe"/>
      <stop offset="1" stop-color="#e9effd"/>
    </linearGradient>
    <linearGradient id="Dégradé_sans_nom_2" data-name="Dégradé sans nom 2" x1="324.09" y1="239.97" x2="408.28" y2="239.97" gradientTransform="translate(0 438.17) scale(1 -1)" gradientUnits="userSpaceOnUse">
      <stop offset="0" stop-color="#dae3fe"/>
      <stop offset="1" stop-color="#e9effd"/>
    </linearGradient>
    <linearGradient id="Dégradé_sans_nom_3" data-name="Dégradé sans nom 3" x1="55.48" y1="111.99" x2="276.69" y2="-28.54" gradientTransform="translate(0 438.17) scale(1 -1)" gradientUnits="userSpaceOnUse">
      <stop offset="0" stop-color="#a737d5"/>
      <stop offset="1" stop-color="#ef497a"/>
    </linearGradient>
    <linearGradient id="Dégradé_sans_nom_4" data-name="Dégradé sans nom 4" x1="106.52" y1="227.81" x2="310.82" y2="64.5" gradientTransform="translate(0 438.17) scale(1 -1)" gradientUnits="userSpaceOnUse">
      <stop offset="0" stop-color="#a737d5"/>
      <stop offset="1" stop-color="#ef497a"/>
    </linearGradient>
  </defs>
  <g id="Illustration">
    <g>
      <path class="cls-13" d="M381.97,373.03c-8.87,9.34-17.27,15.37-23.9,20.13-77.96,55.94-170.22,39.63-189.81,35.65-28.95-5.88-84.92-17.24-125.37-64.82C-18.33,292-8.8,178.59,38.69,103.72,47.38,90.03,93.26,14.02,186.49,1.82c56.43-7.38,122.22,7.49,169.84,47.41,99.99,83.79,92.87,253.03,25.64,323.8Z"/>
      <g>
        <g>
          <path class="cls-9" d="M311.8,247.09s-1.26-53.37,23.32-67.65c24.58-14.28,71.31-23.21,73.06-99.83,1.03-44.85,2.13-64.48,2.89-73.03,.28-3.33-2.68-6.03-5.96-5.41-23.29,4.39-98.9,22.43-114.75,74.05-18.8,61.18,21.46,171.86,21.46,171.86Z"/>
          <path class="cls-7" d="M387.08,22.49c-25.56,22.8-55.1,63.12-70.85,103.46-2.02,6.64-7.94,20.78-10.51,45.89-2.29,20.95-1.15,43.08,1.62,57.72,.17,.93,1.07,1.53,1.99,1.36,1.59-.3,1.39-2.02,1.37-1.96-3.17-25.04-1.86-56.19,5.43-84.31,9.31-34.5,30.04-67.98,51.49-96.36l2.21-2.79c16.61-21.34,20.11-21.5,18.57-22.99-.38-.36-.95-.36-1.33-.03Z"/>
        </g>
        <g>
          <path class="cls-7" d="M281.08,344.96c-3.33,1.62,31.49-42.14,42.39-110.87,5.14-32.39,5.21-72.98,23.66-88.61,15.35-13.02,67.62-4.8,84.72-1.67,2.13,.39,2.86,3.09,1.2,4.48-8.2,6.89-25.75,23.13-30.31,39.5-6.03,21.58-26.53,35.31-44.9,39.01-18.36,3.71-28.59,7.32-37.53,36.69-8.98,29.36-29.78,76.83-39.23,81.47Z"/>
          <path class="cls-15" d="M407.79,152.91c-21.82,.92-45.23,10.87-57.12,29.53l-1.12,1.78c-2.59,4.18-17.27,33.87-25.43,58.48-.09,.3,.06,.63,.38,.74,.52,.17,.79-.39,.73-.35,5.68-13.9,13.84-31.54,20.34-44.71,6.97-14.39,11.85-24.12,27.75-33.46,17.7-10.05,34.6-11.09,34.55-11.07,.25-.03,.44-.25,.43-.52-.03-.25-.25-.44-.49-.43Z"/>
        </g>
      </g>
      <g>
        <path class="cls-10" d="M83.63,103.59c0-13.79,11.17-24.96,24.96-24.96h212.23c11.71,0,21.36,9.18,21.96,20.87l15.67,307.69c.47,9.15-6.74,16.86-15.9,17.04l-243.23,4.42c-8.61,.16-15.67-6.78-15.67-15.38V103.59h-.02Z"/>
        <path class="cls-4" d="M134.86,423.42h0l-27.23-.35c-9.1-.11-16.5-7.62-16.5-16.72v-41.1c0-.32,.25-.58,.58-.58s.58,.25,.58,.58v41.1c0,8.47,6.89,15.44,15.35,15.55l27.21,.35c.32,0,.58,.27,.57,.58,0,.33-.25,.58-.57,.58Z"/>
        <path class="cls-14" d="M91.71,353.1c-.32,0-.58-.25-.58-.58v-6.66c0-.32,.25-.58,.58-.58s.58,.25,.58,.58v6.66c0,.32-.27,.58-.58,.58Z"/>
        <g>
          <path class="cls-6" d="M101.02,83.37c-.03-4.42,3.85-7.82,8.22-7.23,28.98,3.93,128.64,16.09,211.03,9.77,3.75-.28,7.02,2.56,7.23,6.33l16.42,309.06c.22,4.24-3.01,7.86-7.24,8.11-34.66,2.05-177.37,9.99-228.28,4.65-3.09-.33-5.44-2.93-5.47-6.04l-1.91-324.65Z"/>
          <path class="cls-1" d="M104.44,91.12c-.03-4.24,3.71-7.53,7.92-6.96,27.89,3.79,123.79,15.48,203.1,9.39,3.61-.28,6.75,2.46,6.94,6.09l15.81,297.42c.22,4.09-2.9,7.57-6.97,7.81-33.35,1.97-170.69,9.61-219.68,4.46-2.98-.32-5.24-2.82-5.27-5.82l-1.85-312.39Z"/>
          <path class="cls-3" d="M130.25,114.04l2.97,63.77c.09,2.11,1.81,3.8,3.93,3.87,11.82,.33,48.61,1.23,69.38,.14,2.35-.13,4.21-2.02,4.29-4.37,.39-11.96,1.26-46.76-1.47-61.32-.44-2.35-2.46-4.07-4.84-4.15l-69.81-2.45c-2.51-.08-4.56,2-4.45,4.51Z"/>
          <g class="cls-12">
            <path class="cls-2" d="M305,119.59c1.31,0,2.35-.96,2.3-2.15-.03-1.18-1.14-2.16-2.43-2.18l-76.77-1.37c-1.31-.02-2.02,.96-1.58,2.19l.44,1.26c.43,1.23,1.86,2.24,3.16,2.24h74.87Z"/>
          </g>
          <g class="cls-12">
            <path class="cls-2" d="M228.11,125.79c-1.31-.02-2.02,.96-1.58,2.19l.44,1.26c.43,1.23,1.86,2.24,3.16,2.24h74.87c1.31,0,2.35-.96,2.3-2.15-.03-1.18-1.14-2.16-2.43-2.18l-76.77-1.37Z"/>
          </g>
          <g class="cls-12">
            <path class="cls-2" d="M228.11,137.86c-1.31-.02-2.02,.96-1.58,2.19l.44,1.26c.43,1.23,1.86,2.24,3.16,2.24h74.87c1.31,0,2.35-.96,2.3-2.15-.03-1.18-1.14-2.16-2.43-2.18l-76.77-1.37Z"/>
          </g>
          <g class="cls-12">
            <path class="cls-2" d="M312.43,201.7c1.31,0,2.3-.96,2.22-2.15s-1.21-2.15-2.51-2.16l-179.54-1.42c-1.31-.02-1.7,.82-.9,1.83l1.61,2.02c.82,1.03,2.54,1.86,3.85,1.86h175.27v.02Z"/>
          </g>
          <g class="cls-12">
            <path class="cls-2" d="M132.6,207.87c-1.31-.02-1.7,.82-.9,1.83l1.61,2.02c.82,1.03,2.54,1.86,3.85,1.86h175.27c1.31,0,2.3-.96,2.22-2.15s-1.21-2.15-2.51-2.16l-179.54-1.4Z"/>
          </g>
          <path class="cls-16" d="M131.91,227.72c4.31-.33,12.38-.49,16.83-.55,1.88-.03,3.53,1.25,3.98,3.08,.85,3.55,2.04,9.73,1.89,16.26-.05,1.96-1.66,3.52-3.61,3.5l-16.41-.17c-2.02-.02-3.69-1.56-3.88-3.57l-1.44-15.43c-.14-1.58,1.04-3,2.63-3.12Z"/>
          <g class="cls-12">
            <path class="cls-2" d="M162.13,234.06c-1.31-.05-2.21,.96-2.02,2.24l.43,2.87c.19,1.29,1.42,2.35,2.73,2.35h40.05c1.31,0,2.37-1.07,2.35-2.37l-.02-.9c-.02-1.31-1.09-2.41-2.4-2.48l-41.13-1.72Z"/>
          </g>
          <path class="cls-8" d="M221.26,227.72c4.31-.33,12.38-.49,16.83-.55,1.88-.03,3.53,1.25,3.98,3.08,.85,3.55,2.04,9.73,1.89,16.26-.05,1.96-1.66,3.52-3.61,3.5l-16.41-.17c-2.02-.02-3.69-1.56-3.88-3.57l-1.44-15.43c-.14-1.58,1.04-3,2.63-3.12Z"/>
          <g class="cls-12">
            <path class="cls-2" d="M251.47,234.06c-1.31-.05-2.21,.96-2.02,2.24l.43,2.87c.19,1.29,1.42,2.35,2.73,2.35h40.05c1.31,0,2.37-1.07,2.35-2.37l-.02-.9c-.02-1.31-1.09-2.41-2.4-2.48l-41.13-1.72Z"/>
          </g>
          <g>
            <g class="cls-12">
              <path class="cls-2" d="M126.89,280.5c.57,1.66,2.49,2.81,4.7,2.79l179.66-1.2c2.04-.02,3.66-1.33,3.61-2.9-.05-1.55-1.66-2.78-3.63-2.78l-179.66-.63c-3.17,0-5.51,2.33-4.69,4.72Z"/>
            </g>
            <g class="cls-12">
              <path class="cls-2" d="M126.89,312.94c.57,1.66,2.49,2.81,4.7,2.79l179.66-1.2c2.04-.02,3.66-1.33,3.61-2.9-.05-1.55-1.66-2.78-3.63-2.78l-179.66-.63c-3.17,0-5.51,2.33-4.69,4.72Z"/>
            </g>
            <g class="cls-12">
              <path class="cls-2" d="M126.89,345.37c.57,1.66,2.49,2.81,4.7,2.79l179.66-1.2c2.04-.02,3.66-1.33,3.61-2.9-.05-1.55-1.66-2.78-3.63-2.78l-179.66-.63c-3.17,0-5.51,2.33-4.69,4.72Z"/>
            </g>
            <g class="cls-12">
              <path class="cls-2" d="M126.89,377.81h0c.57,1.66,2.49,2.81,4.7,2.79l179.66-1.2c2.04-.02,3.66-1.33,3.61-2.9-.05-1.55-1.66-2.78-3.63-2.78l-179.66-.63c-3.17,0-5.51,2.33-4.69,4.72Z"/>
            </g>
          </g>
        </g>
        <path class="cls-10" d="M227.87,36.67c-7.67-5.33-14.32-5.22-19.03-3.85-4.28,1.26-7.05,5.4-6.64,9.84l2.02,22.09,24.07,2.13s14.61-19.75-.43-30.21Zm-10.59,17.83c-3.31,0-6.01-2.68-6.01-6.01s2.68-6.01,6.01-6.01,6.01,2.68,6.01,6.01-2.7,6.01-6.01,6.01Z"/>
        <path class="cls-4" d="M206.62,55.48c-.3,0-.55-.22-.58-.52l-.32-3.52c-.03-.32,.21-.6,.52-.63,.33-.03,.6,.21,.63,.52l.32,3.52c.03,.32-.21,.6-.52,.63h-.05Zm-.63-6.89c-.3,0-.55-.22-.58-.52l-.25-2.67c-.39-4.23,2.27-8.17,6.34-9.37,2.87-.85,5.84-.96,8.8-.36,.32,.06,.52,.38,.46,.68-.06,.32-.36,.52-.68,.46-2.78-.57-5.55-.46-8.23,.33-3.53,1.04-5.84,4.46-5.51,8.16l.25,2.67c.03,.32-.21,.6-.52,.63h-.08Z"/>
        <path class="cls-10" d="M171.36,79.03v-11.11c0-3.83,3.17-6.91,7-6.77l76.56,2.62c3.39,.11,6.15,2.79,6.36,6.2l.65,10.66-90.57-1.61Z"/>
        <path class="cls-4" d="M199.9,65.34h-3.3c-.32,0-.58-.25-.58-.58s.25-.58,.58-.58h3.3c.32,0,.58,.25,.58,.58s-.25,.58-.58,.58Z"/>
        <path class="cls-4" d="M175.5,75.54c-.32,0-.58-.25-.58-.58v-4.5c0-3.47,2.82-6.29,6.29-6.29h12.1c.32,0,.58,.25,.58,.58s-.25,.58-.58,.58h-12.1c-2.82,0-5.13,2.3-5.13,5.13v4.5c0,.33-.25,.58-.58,.58Z"/>
        <path class="cls-5" d="M140.16,81.84c.19-3.85,3.36-6.86,7.21-6.86h133.89c4.81,0,8.93,3.47,9.75,8.2l.11,.65c.9,5.19-3.11,9.95-8.38,9.95H145.38c-3.16,0-5.66-2.63-5.52-5.79l.3-6.15Z"/>
      </g>
      <g>
        <g>
          <rect class="cls-10" x="5.79" y="385.15" width="192.47" height="44.85"/>
          <path class="cls-11" d="M200.85,427.12H3.02c-.68,0-1.21-.55-1.21-1.21v-16.01H201.67v16.41c0,.46-.36,.82-.82,.82Z"/>
          <path class="cls-11" d="M200.45,407.58H3.3c-.84,0-1.51-.68-1.51-1.51v-15.71H201.67v16.01c0,.66-.55,1.21-1.21,1.21Z"/>
          <path class="cls-10" d="M201.67,390.35H1.79v-5.21c0-.69,.55-1.25,1.25-1.25H200.39c.69,0,1.26,.57,1.26,1.26v5.19h.02Z"/>
        </g>
        <g>
          <ellipse class="cls-11" cx="370.69" cy="418.86" rx="15.14" ry="13.05" transform="translate(-168.1 569.06) rotate(-64.07)"/>
          <path class="cls-11" d="M366.86,408.56l-6.63,13.65c-.24,.49-.84,.69-1.33,.46l-8.3-4.04c-.49-.24-.69-.84-.46-1.33l6.63-13.65c.24-.49,.84-.69,1.33-.46l8.3,4.04c.49,.24,.69,.84,.46,1.33Z"/>
          <path class="cls-11" d="M358.35,401.98c-1.18,6.11-3.9,11.56-8.03,16.41-2.22,2.62-5.81,3.79-9.36,3.08-33.98-6.82-105.18-50.83-174.34-89.28-4.59-2.56-7.75-5.44-5.58-9.88l4.76-9.81c2.15-4.42,7.29-1.92,12.1,.05,73.15,30.05,150.74,56.26,177.37,80.49,2.56,2.33,3.71,5.71,3.08,8.94Z"/>
          <path class="cls-10" d="M176.9,302.48l-16.19,33.3c-.22,.47-.79,.66-1.26,.44l-8.53-4.15c-.47-.22-.66-.79-.44-1.26l16.19-33.3c.22-.47,.79-.66,1.26-.44l8.53,4.15c.49,.22,.68,.79,.44,1.26Z"/>
          <path class="cls-11" d="M104.95,269.24l-16.19,33.3c-.22,.47-.79,.66-1.26,.44l-8.53-4.15c-.47-.22-.66-.79-.44-1.26l16.19-33.3c.22-.47,.79-.66,1.26-.44l8.53,4.15c.47,.22,.66,.79,.44,1.26Z"/>
          <rect class="cls-11" x="64.3" y="265.61" width="116.99" height="79.26" transform="translate(-205.41 282.18) rotate(-64.07)"/>
          <rect class="cls-10" x="89.34" y="319.26" width="14.72" height="79.26" transform="translate(-268.35 288.91) rotate(-64.07)"/>
          <path class="cls-11" d="M132.02,376.88l-3.2,6.58c-.98,2-3.27,3.01-5.41,2.38-22.21-6.59-43.71-16.88-64.41-31.36-1.81-1.26-2.43-3.66-1.47-5.66l3.22-6.61,71.28,34.68Z"/>
          <path class="cls-10" d="M139.21,366.96l-2.67,5.49c-.24,.49-.82,.69-1.33,.46l-74.62-36.28c-.49-.24-.69-.82-.46-1.33l2.67-5.49c.24-.49,.82-.69,1.33-.46l74.62,36.28c.5,.25,.71,.84,.46,1.33Z"/>
          <path class="cls-11" d="M138.78,367.84l-1.81,3.72c-.22,.44-.76,.63-1.2,.41l-74.79-36.36c-.44-.22-.63-.76-.41-1.2l1.81-3.72c.22-.44,.76-.63,1.2-.41l74.79,36.36c.44,.22,.63,.76,.41,1.2Z"/>
          <rect class="cls-10" x="144.64" y="205.54" width="14.72" height="79.26" transform="translate(-134.95 274.65) rotate(-64.07)"/>
          <path class="cls-11" d="M187.96,261.86l3.2-6.58c.98-2,.36-4.43-1.47-5.73-18.92-13.41-40.28-23.96-64.44-31.3-2.11-.65-4.39,.35-5.35,2.33l-3.22,6.61,71.28,34.66Z"/>
          <path class="cls-10" d="M184.6,273.64l2.67-5.49c.24-.49,.03-1.07-.46-1.33l-74.62-36.28c-.49-.24-1.07-.03-1.33,.46l-2.67,5.49c-.24,.49-.03,1.07,.46,1.33l74.62,36.28c.5,.24,1.09,.03,1.33-.46Z"/>
          <path class="cls-11" d="M185.02,272.76l1.81-3.72c.22-.44,.03-.98-.41-1.2l-74.79-36.36c-.44-.22-.98-.03-1.2,.41l-1.81,3.72c-.22,.44-.03,.98,.41,1.2l74.79,36.36c.46,.22,.98,.03,1.2-.41Z"/>
        </g>
      </g>
    </g>
  </g>
</svg>