<?xml version="1.0" encoding="UTF-8"?>
<svg id="Calque_1" data-name="Calque 1" xmlns="http://www.w3.org/2000/svg" viewBox="0 0 353.09 353.09">
  <defs>
    <style>
      .cls-1 {
        fill: #f4f6f9;
      }

      .cls-2 {
        fill: #fff;
      }

      .cls-3 {
        fill: #f6d9ea;
        opacity: .2;
      }
    </style>
  </defs>
  <g>
    <circle class="cls-3" cx="176.55" cy="176.55" r="176.5"/>
    <path class="cls-2" d="M176.55,353.09C79.2,353.09,0,273.89,0,176.55S79.2,0,176.55,0s176.55,79.2,176.55,176.55-79.2,176.55-176.55,176.55ZM176.55,1C79.75,1,1,79.75,1,176.55s78.75,175.55,175.55,175.55,175.55-78.75,175.55-175.55S273.34,1,176.55,1Z"/>
  </g>
  <path class="cls-2" d="M256.16,41.45c13.73,5.17,43.5,18.41,64.36,53.78,.95,1.61,15.37,26.54,6.96,35.65-3.19,3.46-9.63,4.6-13.6,2.3-4.66-2.7-4.59-9.37-6.05-17.86,0,0-1.98-11.55-10.12-29.53-11.47-25.34-41.55-44.35-41.55-44.35Z"/>
  <path class="cls-1" d="M328.04,143.98c-2.16-1.24-5.43-.25-6.33,2.3-.87,2.47,.86,5.37,3.45,5.75,2.33,.34,4.55-1.48,4.89-3.74,.25-1.67-.54-3.47-2.01-4.31Z"/>
</svg>