<?xml version="1.0" encoding="UTF-8"?>
<svg id="Calque_1" data-name="Calque 1" xmlns="http://www.w3.org/2000/svg" viewBox="0 0 198 198">
  <defs>
    <style>
      .cls-1 {
        fill: #fff;
      }

      .cls-2 {
        fill: #f6d9ea;
        opacity: .2;
      }
    </style>
  </defs>
  <g>
    <circle class="cls-2" cx="99" cy="99" r="98.97"/>
    <path class="cls-1" d="M99,198C44.41,198,0,153.59,0,99S44.41,0,99,0s99,44.41,99,99-44.41,99-99,99ZM99,.56C44.72,.56,.56,44.72,.56,99s44.16,98.44,98.44,98.44,98.44-44.16,98.44-98.44S153.28,.56,99,.56Z"/>
  </g>
  <path class="cls-1" d="M119.37,14.18c8.97,1.87,28.62,7.19,44.88,27.01,.74,.9,12.03,14.9,7.72,21.33-1.64,2.44-5.5,3.76-8.17,2.72-3.13-1.22-3.73-5.34-5.45-10.44,0,0-2.33-6.94-9.08-17.25-9.51-14.54-29.9-23.38-29.9-23.38Z"/>
  <path class="cls-1" d="M175.2,75.06c-2.16-1.24-5.43-.25-6.33,2.3-.87,2.47,.86,5.37,3.45,5.75,2.33,.34,4.55-1.48,4.89-3.74,.25-1.67-.54-3.47-2.01-4.31Z"/>
</svg>