<?xml version="1.0" encoding="UTF-8"?>
<svg id="Calque_1" data-name="Calque 1" xmlns="http://www.w3.org/2000/svg" viewBox="0 0 110 110">
  <defs>
    <style>
      .cls-1 {
        fill: #fff;
      }

      .cls-2 {
        fill: #f6d9ea;
        opacity: .2;
      }
    </style>
  </defs>
  <g>
    <circle class="cls-2" cx="55" cy="55" r="54.99"/>
    <path class="cls-1" d="M55,110C24.67,110,0,85.33,0,55S24.67,0,55,0s55,24.67,55,55-24.67,55-55,55ZM55,.31C24.84,.31,.31,24.84,.31,55s24.53,54.69,54.69,54.69,54.69-24.53,54.69-54.69S85.16,.31,55,.31Z"/>
  </g>
  <path class="cls-1" d="M66.32,7.88c4.98,1.04,15.9,3.99,24.93,15.01,.41,.5,6.68,8.28,4.29,11.85-.91,1.36-3.06,2.09-4.54,1.51-1.74-.68-2.07-2.97-3.03-5.8,0,0-1.3-3.85-5.04-9.58-5.28-8.08-16.61-12.99-16.61-12.99Z"/>
  <path class="cls-1" d="M97.33,41.7c-1.2-.69-3.02-.14-3.51,1.28-.48,1.37,.48,2.98,1.92,3.19,1.3,.19,2.53-.82,2.72-2.08,.14-.93-.3-1.93-1.12-2.4Z"/>
</svg>