<svg width="54" height="69" viewBox="0 0 54 69" fill="none" xmlns="http://www.w3.org/2000/svg">
<path d="M41.7031 68.2001C46.1031 68.2001 51.1031 66.1001 51.2031 61.8001L53.8031 24.8001C53.5031 22.2001 49.2031 20.6 44.9031 20.6C40.2031 20.6 35.5031 22.3001 35.2031 26.4001L35.1031 33.2001H23.5031L39.1031 8.90005C39.4031 8.50005 39.5031 8.10005 39.5031 7.60005C39.5031 4.40005 33.0031 0.800049 28.3031 0.800049C26.7031 0.800049 25.4031 1.20005 24.5031 2.10005L0.903125 36.0001C0.403125 36.5001 0.203125 37.2001 0.203125 38.0001C0.203125 39.6001 1.10313 41.7001 2.60313 43.5001C6.40313 48.4001 20.5031 49.4001 31.6031 49.4001H34.9031L34.8031 64.2001C34.8031 66.8001 38.1031 68.2001 41.7031 68.2001Z" fill="white"/>
</svg>
