<svg width="50" height="69" viewBox="0 0 50 69" fill="none" xmlns="http://www.w3.org/2000/svg">
<path d="M11.2027 68.2L44.3027 66.4C48.1027 66.4 49.7027 61.5 49.7027 56.5C49.7027 51.3 48.0027 46.2 45.1027 46.2L24.8027 48.7C28.0027 46.5 31.3027 44.1 34.5027 41.6C37.7027 39.1 40.5027 36.3 42.7027 33.4C45.7027 29.5 47.0027 25.5 47.0027 21.6C47.0027 14.8 42.8027 8.49995 36.1027 3.99995C34.2027 2.69995 32.0027 1.79995 29.3027 1.19995C27.9027 0.899955 26.4027 0.699951 25.0027 0.699951C16.5027 0.699951 8.10273 5.89995 2.10273 12C0.902735 13.9 0.402735 15.8 0.402735 17.7C0.402735 22.3 3.50273 26.4 7.50274 27.4C8.20274 27.6 8.70273 27.7 9.30273 27.7C12.1027 27.7 13.4027 25.5 15.1027 24.5C17.9027 22.9 19.9027 21.7 23.9027 20.5C24.5027 20.4 25.0027 20.3 25.5027 20.3C26.3027 20.3 26.9027 20.5 27.2027 21.1C27.4027 21.3 27.4027 21.6 27.4027 21.9C27.4027 22.4 27.3027 22.9 26.9027 23.6C26.3027 24.6 25.4027 25.8 24.1027 27.2L19.6027 31.6C17.8027 33.3 16.0027 34.9 14.2027 36.7C12.3027 38.4 10.5027 40.2 8.70273 42C7.00274 43.8 5.40273 45.5 4.10274 47.2C2.80273 49 1.80273 50.6 1.10273 52.2C0.502734 53.5 0.302734 54.9 0.302734 56.4C0.302734 62.2 4.70273 68.2 11.2027 68.2Z" fill="white"/>
</svg>
