<svg width="48" height="69" viewBox="0 0 48 69" fill="none" xmlns="http://www.w3.org/2000/svg">
<path d="M27.3141 68.2001C32.1141 68.2001 36.7141 66.8001 40.5141 63.7001C44.5141 60.3001 45.8141 57.2001 46.8141 52.0001C47.0141 50.7001 47.1141 49.4001 47.1141 48.1001L47.0141 45.2001C46.7141 42.8001 45.8141 40.3001 44.3141 37.8001C42.8141 35.3001 40.5141 33.0001 37.3141 31.0001C40.4141 28.9001 42.6141 26.7001 43.8141 24.4001C44.9141 22.3001 45.4141 20.3001 45.4141 18.4001V17.9C45.4141 15.9001 45.0141 14.1001 44.3141 12.4C43.6141 10.8001 42.9141 9.50005 42.2141 8.60005C41.5141 7.70005 41.1141 7.20005 41.1141 7.10005L39.4141 5.60005C38.3141 4.70005 36.7141 3.70005 34.4141 2.70005C32.2141 1.70005 29.6141 1.10005 26.5141 0.900054L24.5141 0.800049C17.6141 0.800049 10.4141 3.60005 4.91406 7.70005C3.31406 9.10005 2.71406 11 2.71406 13.0001C2.71406 17.7001 6.11406 22.8001 9.71406 22.8001C10.5141 22.8001 11.3141 22.5001 12.1141 21.9001C14.5141 20.1001 18.0141 18.3001 21.3141 18.3001C23.0141 18.3001 24.7141 18.9001 26.0141 20.2001L26.4141 21.2001C26.6141 21.5001 26.6141 21.8001 26.6141 22.2001C26.6141 22.5001 26.6141 22.8001 26.4141 23.2001C26.0141 24.0001 25.2141 24.6001 23.8141 25.1001C22.9141 25.4001 21.7141 25.6001 20.0141 25.6001L16.7141 25.4001C13.0141 25.8001 11.2141 29.2001 11.2141 32.5001C11.2141 35.7001 12.8141 38.7001 15.9141 38.7001C17.3141 38.6001 18.6141 38.5001 19.8141 38.5001C21.1141 38.5001 22.3141 38.6001 23.2141 38.8001C27.8141 39.8001 29.8141 42.5001 29.8141 44.9001C29.8141 46.9001 28.4141 48.8001 26.1141 49.5001C25.3141 49.7001 24.6141 49.8001 23.9141 49.8001C20.5141 49.8001 18.3141 47.4001 15.7141 44.9001C14.9141 44.1001 14.0141 43.2001 12.9141 42.4001C12.3141 42.0001 11.6141 41.8001 10.9141 41.8001C6.71406 41.8001 0.914062 47.8001 0.914062 53.6001C0.914062 56.2001 2.01406 58.7001 4.91406 60.6001C9.31406 63.6001 11.3141 64.2001 14.9141 65.5001C19.3141 67.1001 23.1141 68.0001 26.4141 68.2001H27.3141Z" fill="white"/>
</svg>
