<?xml version="1.0" encoding="UTF-8"?><svg id="_ÎÓÈ_1" xmlns="http://www.w3.org/2000/svg" xmlns:xlink="http://www.w3.org/1999/xlink" viewBox="0 0 310 210"><defs><style>.cls-1{fill:none;}.cls-2{clip-path:url(#clippath);}.cls-3{fill:#f4d4be;}.cls-4{fill:#f99370;}.cls-5{fill:#f9f8f3;}.cls-6{fill:#fdcf76;}.cls-7{fill:#ef8bb8;}.cls-8{fill:#ffcfd0;}.cls-9{fill:#fd7403;}.cls-10{fill:#fdbb80;}.cls-11{fill:#eef7ff;}.cls-12{fill:#931c55;}.cls-13{fill:#c33070;}.cls-14{fill:#cedbef;}.cls-15{fill:#c16256;}.cls-16{fill:#ad1866;}.cls-17{fill:#23659b;}.cls-18{fill:#1c2539;}.cls-19{fill:#182947;}.cls-20{fill:#6f1d04;}.cls-21{fill:#87a3cc;}.cls-22{fill:#2f3169;}.cls-23{fill:#3a5a89;}.cls-24{fill:#4c6fae;}</style><clipPath id="clippath"><polyline class="cls-1" points="-1.49 -28.01 96.79 -28.01 96.79 37.51"/></clipPath></defs><g><g id="_"><path class="cls-21" d="M4.95,164.64s-1.88,9.42,6.83,11.87c11.9,3.35,81.78,12.15,64.81,18.84-9.58,3.77,4.89,8.9,51.57,10.79,46.68,1.89,126.77-5.51,99.84-16.45-26.93-10.94,83.1-2.29,76.41-25.05H4.95Z"/><path class="cls-14" d="M57.79,164.12S22.54,77.64,47.91,58.39c16.96-12.87,34.93,15.5,56.39,.49,19.1-13.36-7.53-47.02,24.34-55.83,33.5-9.26,60.94,65.7,89.05,55.34,34.11-12.58,68.03,12.95,38.71,105.89l-198.6-.17Z"/><path class="cls-11" d="M288.47,125.72c-12.01-1.69-10.92,23.67-28.05,23.67-15.66,0-24.03-56.66-41.21-45.14-69.07,46.33-15.33-32.51-61.77-34.05-21-.7-34.99,20.52-40.15,58.1-7.48,33.97-24.83-25.91-42.68-20.34-11.35,3.54-10.05,41.43-25.7,41.43-17.12,0-15.99-21.33-28.01-19.64-12.93,1.82-15.96,34.88-15.96,34.88H304.4s-2.99-37.1-15.92-38.92Z"/></g><g id="_-2"><polygon class="cls-24" points="178.02 103.78 177.19 114.7 117.43 114.7 117.37 145.03 44.37 145.09 44.16 172.78 47.65 176.26 259.76 176.26 259.76 106.23 256.48 102.95 178.02 103.78"/><polygon class="cls-22" points="41.09 141.81 47.65 148.36 47.65 176.26 41.09 169.71 41.09 141.81"/><polygon class="cls-22" points="114.15 111.43 120.7 117.98 120.7 148.36 114.15 141.81 114.15 111.43"/><polygon class="cls-22" points="173.92 99.68 180.47 106.23 180.47 117.98 173.92 111.43 173.92 99.68"/><polygon class="cls-21" points="253.2 99.68 259.76 106.23 180.47 106.23 173.92 99.68 253.2 99.68"/><polygon class="cls-21" points="114.15 111.43 120.7 117.98 180.47 117.98 173.92 111.43 114.15 111.43"/><polygon class="cls-21" points="41.09 141.81 47.65 148.36 120.7 148.36 114.15 141.81 41.09 141.81"/></g><g id="_-3"><path class="cls-10" d="M188.09,44.19c.28,.44-.56,.95-.78,1.32,.8,0,1.51-.17,1.52-.17,.88-.45,1.74-.94,2.58-1.47,1.48-.01,1.03,3.36-1.94,4.31-1.07,.34-2.11,.77-3.86,.5-.57-.09-.73-1.7-.38-2.15,.61-.48,2.45-2.75,2.87-2.34Z"/><path class="cls-10" d="M121.78,61.32c.19,.49,1.13,.02,1.58,.16-.47,.65-1.07,1.1-1.07,1.1-.88,.46-1.77,.88-2.69,1.25-.86,1.2,2.14,2.78,4.64,.91,.9-.67,1.85-1.28,2.64-2.86,.26-.52-.55-1.66-1.12-1.66-.89,0-4.07,.51-3.98,1.09Z"/><path class="cls-10" d="M161.01,44.55c4.12,1.92,8.4,4.12,13,4.41,2.69-.04,5.39-.69,7.98-1.46,1.07-.32,2.15-.69,3.21-1.07,1.45-.57,2.53,1.58,1.23,2.41-3.6,2.45-7.72,4.34-12.07,4.95-3.18,.32-6.29-.4-9.28-1.31-2.33-.73-4.58-1.62-6.75-2.72-3.45-1.8-.8-6.97,2.68-5.21Z"/><path class="cls-24" d="M186.08,49.07s-.33,.28-.91,.72c-2.1,1.57-7.53,5.17-13.34,5.11-2.81-.03-5.3-.34-7.31-.71-.3-.06-.59-.11-.87-.17-.55-.11-1.06-.23-1.52-.35-.41-.1-.77-.2-1.1-.29-1.17-.33-1.81-.58-1.81-.58,1.21-5.42,.38-8.65-.35-10.25-.38-.83-.73-1.22-.76-1.25h.03c.09,.04,.39,.17,.86,.37,1.38,.59,4.19,1.83,7.25,3.49,3.23,1.75,8.16,4.14,17.54,1.69,.34-.09,.69-.18,1.04-.28,0,0-.19,1.46,1.25,2.51Z"/><path class="cls-4" d="M186.67,102.63l-8.29,.3c-.38,.01-.69-.29-.68-.67,0-.18,.02-.4,.05-.65,.09-.7,.12-1.4,.08-2.1-.02-.34-.05-.67-.1-1l-.81-5.8c-.05-.39,.24-.74,.63-.75l3.66-.13c.4-.01,.72,.32,.68,.72l-.47,5.33c-.1,1.17,.68,2.22,1.83,2.46,.82,.17,1.64,.26,2.24,.39,.08,.02,.15,.03,.23,.05h0c.63,.16,1.15,.37,1.47,.8,.31,.43,.02,1.03-.51,1.05Z"/><path class="cls-12" d="M177.44,102.1c.04,.41,.26,.86,.73,.83l8.6-.31c.44-.02,.74-.47,.57-.88-.37-.93-1.6-2.28-5.68-2.36-.58,.08-1.91,.32-3.84,.13,0,0-.62,1.06-.38,2.59Z"/><path class="cls-12" d="M187.34,101.75l-9.9,.36c.05,.3,.14,.59,.3,.85l9.03-.33c.44-.02,.74-.46,.58-.87h0Z"/><path class="cls-9" d="M184.62,95.53c.04,1.12,.05,1.79,.05,1.79,0,0-4.13,1.8-8.38,.66-.32-.08-.64-.19-.95-.31-.12-.48-.23-1.02-.34-1.61-.94-5.01-1.72-13.51-4.65-15.74-3.04-2.18-8.67-1.89-12.15-2.05-.1,0-.19,0-.29-.01-5.21-.3-9.29-4.05-12.53-9.79-.48-.84,5.59-1.65,5.59-1.65l14.04-1.17c3.61,.9,9.99,2.19,14.11,6.65,4.4,4.77,5.32,18.34,5.51,23.24Z"/><path class="cls-9" d="M176.28,97.98h0c-.32-.08-.64-.19-.95-.31-1.13-4.53-1.72-14.85-5-17.35-3.04-2.18-8.67-1.89-12.15-2.05l1.13-2.45s9.54,.11,12.72,4.35c3.18,4.24,4.25,17.81,4.25,17.81Z"/><path class="cls-4" d="M157.01,116.89l-8.25-.92c-.38-.04-.64-.39-.58-.76,.03-.18,.07-.39,.14-.63,.2-.67,.32-1.36,.39-2.06,.03-.33,.11-3.69,.11-4.03,0,0,4.25-.43,4.16-.04l-.3,4.53c.38,1.02,.18,.75,1.28,1.15,.78,.29,1.59,.5,2.15,.72,.07,.03,.15,.06,.22,.09h0c.6,.25,1.09,.54,1.33,1,.25,.47-.13,1.02-.66,.96Z"/><path class="cls-12" d="M147.96,115.01c-.02,.41,.13,.89,.6,.93l8.55,.96c.44,.05,.81-.36,.69-.79-.23-.97-1.25-2.49-5.27-3.17-.59,0-1.93,.04-3.82-.43,0,0-.77,.96-.76,2.5Z"/><path class="cls-12" d="M157.81,116.11l-9.84-1.1c0,.3,.05,.61,.17,.88l8.98,1.01c.44,.05,.8-.35,.7-.77v-.02Z"/><path class="cls-10" d="M158.11,41.3c.39-1.75,.38-4.33,.24-5.4-.23-2.12-3.6-1.66-3.27,.43,.11-.06,.06,3.73-.28,4.75-2.06,.39,3.39,3.82,4.96,3.1,.99-.46-1.65-2.88-1.65-2.88Z"/><path class="cls-10" d="M155.07,36.15s0,.05,0,.07c0,.03,0,.07,0,.1,.08-.04,.08,2.05-.08,3.55,1.35,.79,2.95,.67,3.25,.64,.23-1.58,.19-3.57,.14-4.32-.02-.18-.04-.28-.04-.3,0-.05-.02-.1-.03-.14-.11-.49-.43-.88-.85-1.1h0c-.29-.15-.63-.22-.98-.17-.35,.05-.65,.2-.89,.42-.01,0-.02,.02-.03,.03-.32,.31-.52,.75-.51,1.23Z"/><path class="cls-19" d="M152.86,33.27s.03-1.78,.58-3l1.02,.5-1.6,2.51Z"/><path class="cls-9" d="M159.38,65.68c.34,8.85-.64,21.28-1.35,27.07-.7,5.66-1.9,13.18-2.45,16.54h0c-.18,1.09-.29,1.74-.29,1.74,0,0-4.29,2.05-8.36-.51,0,0,.02-.64,.05-1.73,.09-3.47,.24-11.46-.09-17.42-.32-5.81-4.23-15.83-1.51-22.9l14-2.79Z"/><path class="cls-10" d="M152.83,38.48c1.59,1.55,4.07,1.78,5.87,.75h0c.13-.08,.26-.17,.38-.27h0c5.67-5.72-2.04-15.07-5.55-6.9-1.19,2.3-3.26,3.53-.7,6.42Z"/><path class="cls-15" d="M155.28,33.84c-.06-.11-.01-.25,.1-.31,.11-.06,.25-.01,.31,.1,.06,.11,.01,.25-.1,.31-.11,.06-.25,.01-.31-.1Z"/><path class="cls-15" d="M153.36,33.52c-.06-.11-.01-.25,.1-.31s.25-.01,.31,.1c.06,.11,.01,.25-.1,.31-.11,.06-.25,.01-.31-.1Z"/><path class="cls-15" d="M153.96,35.49c.13,.02,.27,0,.38-.03,.05-.01,.07-.06,.06-.11-.01-.05-.06-.07-.11-.06-.29,.09-.7-.05-.75-.18-.02-.05,.04-.09,.1-.12,.49-.26,.81-1.19,.83-1.23,.02-.04,0-.09-.05-.11-.05-.02-.09,0-.11,.05,0,0-.32,.9-.75,1.13-.23,.13-.2,.28-.17,.34,.07,.16,.32,.28,.58,.31Z"/><path class="cls-10" d="M153.8,31.49c1.23-.65,3.47-.06,4.57-.07,0,0-.23,1.88,1.67,3.22,.16,1.73,.45,2.48-1.33,4.59h0c.13-.08,.26-.17,.38-.27h0c5.46-5.45-1.66-14.75-5.29-7.47Z"/><path class="cls-19" d="M152.86,27.74c.71-1.4,2.81-2.16,4.62-.43,1.4,1.33,2.91,1.32,2.88,2.72,2.8,1.27,1.41,4.36,1.41,4.36l-1.4-.17c-1.61-1.3-1.56-3.21-1.56-3.21h0c-.36,.02-.73,0-1.07-.08-1.03-.26-2.56-.39-3.73,.04-1.17,.43-1.95-1.67-1.15-3.23Z"/><path class="cls-10" d="M161.98,35.52c-.15,.72-.75,1.21-1.33,1.09-.58-.12-.93-.81-.78-1.53,.15-.72,.75-1.21,1.33-1.09,.58,.12,.93,.81,.78,1.53Z"/><path class="cls-15" d="M160.6,34.57s.55-.21,.85,.06c.08,.07,.13,.17,.16,.28h0s0,.02,0,.03h0c.04,.22,.01,.51-.1,.87-.01,.04-.05,.07-.09,.06h-.01s-.07-.07-.06-.11c.09-.29,.12-.53,.11-.71-.5,.09-.75,.65-.75,.65-.02,.04-.05,.06-.09,.05,0,0-.02,0-.02,0-.04-.02-.06-.07-.05-.11,.01-.03,.28-.65,.87-.76-.02-.05-.05-.09-.08-.12-.22-.2-.67-.03-.67-.03-.04,.02-.09,0-.11-.05-.02-.04,0-.09,.05-.11Z"/><path class="cls-24" d="M165,65.65s-5.39,5.2-19.63,2.82c0,0,.19-5.21,.42-10.25,.02-.43,.04-.86,.06-1.29h0c.18-3.93,.38-7.47,.51-7.97,1.36-5.07,5.59-6.99,7.49-7.61,.58-.19,.95-.26,.95-.26,0,1.26,2.18,2.08,2.93,1.54,.63-.45,.4-1.27,.38-1.31h.03c.3,.14,.59,.29,.86,.46,1.92,1.18,3.19,3.31,3.88,6.36,.25,1.08,.42,2.28,.53,3.59,.02,.23,.04,.46,.05,.7,.03,.49,.1,1.03,.19,1.61h0c.59,3.62,2.16,8.59,1.35,11.63Z"/><path class="cls-15" d="M156.45,33.53s.04,0,.06,0c.05-.02,.07-.08,.05-.13-.01-.03-.37-.75-1.3-.91-.05,0-.11,.03-.12,.08,0,.06,.03,.11,.08,.12,.83,.14,1.14,.77,1.15,.8,.02,.03,.05,.05,.08,.06Z"/><path class="cls-15" d="M153.29,32.81s.06,0,.09-.03c.26-.29,.81-.26,.82-.26,.06,0,.1-.04,.11-.1,0-.06-.04-.1-.1-.11-.03,0-.65-.03-.98,.33-.04,.04-.03,.11,0,.14,.02,.01,.04,.02,.06,.03Z"/><path class="cls-10" d="M145.15,48.23c-3.22,3.24-6.45,5.21-9.38,6.98-2.3,1.39-4.61,2.87-7.1,3.91-1.04,.43-2.1,.83-3.16,1.2-1.48,.48-.97,2.82,.57,2.64,4.34-.37,8.94-1.3,12.67-3.62,2.99-1.86,6.66-3.82,8.84-6.06,2.05-2.1,4.03-5.46,5.03-7.68,1.53-3.58-4.31-2.16-7.46,2.62Z"/><path class="cls-24" d="M154.8,41.08s-.11,.48-.39,1.33c-.65,2.01-2.19,6.09-5.31,10.92-.87,1.35-1.98,2.55-3.26,3.59-4.93,4.04-12.34,5.9-17.82,5.97-.35,0-.7,0-1.05-.02,0,0,.38-1.75-.75-2.82,0,0,.32-.16,.84-.42,1.87-.96,6.39-3.38,8.28-5.26,2.34-2.32,8.67-12.67,18.44-13.28,.06,0,.12,0,.18-.01,.27-.01,.55-.02,.83-.02Z"/><path class="cls-9" d="M184.62,95.53c.04,1.12,.05,1.79,.05,1.79,0,0-4.13,1.8-8.38,.66-.32-.08-.64-.19-.95-.31-.12-.48-.23-1.02-.34-1.61,0,0,4.87,1.32,9.63-.53h0Z"/><path class="cls-9" d="M155.57,109.28c-.18,1.09-.29,1.74-.29,1.74,0,0-4.29,2.05-8.36-.51,0,0,.02-.64,.05-1.73,0,0,2.99,2.19,8.6,.5Z"/><path class="cls-23" d="M127.07,59.64c-.52,.27-.84,.42-.84,.42,1.13,1.06,.75,2.82,.75,2.82,.35,.02,.7,.02,1.05,.02,0-.04,.26-2.22-.96-3.25Z"/><path class="cls-23" d="M186.08,49.07s-.33,.28-.91,.72h0c-1.68-1.25-1.38-2.91-1.38-2.91v-.04c.34-.09,.69-.18,1.05-.28,0,0-.19,1.46,1.25,2.51Z"/><path class="cls-15" d="M153.95,36.43c-.24,0-.4-.04-.4-.04-.04-.01-.07-.06-.06-.1,.01-.04,.06-.07,.1-.06,.04,.01,1.07,.28,1.59-.67,.02-.04,.07-.05,.11-.03,.04,.02,.05,.07,.03,.11-.37,.67-.98,.79-1.38,.79Z"/><path class="cls-23" d="M151.13,49.93c-.07,.17-2.29,5.36-5.34,8.28,.02-.43,.04-.86,.06-1.29h0s3.18-3.34,5.28-6.99Z"/><path class="cls-23" d="M164.53,54.19c-.3-.06-.59-.11-.87-.17h0c0-.1-.08-.98-.24-2.31h0c-.12-1-.3-2.24-.53-3.6h0v-.02s.78,2.6,1.64,6.09Z"/><path class="cls-17" d="M159,41.67s0,.06,0,.09c0,.25-.04,.53-.13,.79-.21,.6-.74,1.11-1.92,1.06-1.3-.05-2.08-.62-2.54-1.2-.32-.41-.49-.82-.56-1.07-.04-.13-.06-.22-.06-.23h.18c.27-.03,.55-.03,.83-.03,0,1.26,2.18,2.08,2.93,1.54,.63-.45,.4-1.27,.38-1.31h0c.06,.03,.37,.15,.88,.37Z"/></g><g id="_-4"><path class="cls-6" d="M123.42,61.42s-2.31-.14-3.72,1.03c-1.41,1.17-2.33,3.11-2.33,3.11,0,0,1.59,.34,1.73,1.13,0,0,1.85-1.55,2.5-2.59,.65-1.04,1.81-2.68,1.81-2.68Z"/><path class="cls-16" d="M93.18,60.2s-3.46-3.47-8.23,1.93c-4.77,5.4-1.79,5.39-9.3,8.15-6.24,2.29-8.08,9.3,.17,11.34,7.89,1.95,12.92-4.38,17.64-4.05,4.72,.32,5.3-9.79,3.8-12.35-1.5-2.55-4.08-5.02-4.08-5.02Z"/><path class="cls-6" d="M95.07,81.39c5.01,.55,10.35-.09,14.73-2.77,4.77-3.2,8.73-7.88,10.51-13.39,.25-.72-.5-1.45-1.21-1.21-.02,.03-.99,.27-.99,.33-.31,.45-.63,.88-.97,1.31-4.4,5.38-10.75,9.82-17.99,9.27-1.08-.02-2.17-.1-3.23-.24-4.39-.47-5.23,6.06-.85,6.71Z"/><path class="cls-21" d="M109.3,78.84s-.02,.48-.31,1.02h0c-1.09,1.71-5.32,2.68-9.24,2.64-.41,0-.82-.02-1.23-.04-.52-.03-1.03-.09-1.51-.16-.25-1.9-1.73-6.51-1.97-8.4,1.33-.16,3.63,.36,5.86,.51,2.28,.33,4.13-1.35,5.67-.59,0,0-.15,3.61,2.74,5.03Z"/><path class="cls-6" d="M62.9,122.53s2.63-.39,4.77-1l.77,4.68-4.99-.25s-1.59-1.27-.56-3.43Z"/><path class="cls-6" d="M90.22,141.74l.41-3.06,4.11,.04s-.54,1.34-1.05,3.06c0,0-1.78,1.5-3.47-.04Z"/><path class="cls-16" d="M93.18,60.25c4.56-1.35,4.42,6.16,3.98,7.64l-3.98-7.64Z"/><path class="cls-22" d="M60.47,122.48c-.27,.08-.53,.2-.75,.38l1.34,8.27c.07,.4,.51,.63,.87,.43h.01c.82-.46,1.94-1.77,1.51-5.6,0,0-.6-1.23-.56-3.43,0,0-1.33-.37-2.43-.05Z"/><path class="cls-22" d="M61.95,131.56l-1.47-9.08c-.27,.08-.53,.2-.75,.38l1.34,8.27c.07,.4,.51,.63,.87,.43h.01Z"/><path class="cls-22" d="M89.75,144.12c.03,.28,.11,.55,.24,.8l8.38,.09c.41,0,.71-.39,.58-.78h0c-.3-.9-1.41-2.22-5.25-2.46,0,0-1.32,.38-3.47-.04,0,0-.59,1.25-.47,2.39Z"/><path class="cls-22" d="M98.95,144.22l-9.19-.1c.03,.28,.11,.55,.24,.8l8.38,.09c.41,0,.71-.39,.58-.78h0Z"/><path class="cls-24" d="M65.5,126.65c.39,.08,.82,.15,1.28,.21h0c5.96,.77,18.16-.18,22.54-4.88h0c.6-.62,1.15-1.28,1.66-1.95,3.86-5.11,5.31-11.62,5.79-18.12,.17-2.25,.22-4.5,.22-6.7-.85-4.98-5.42-6.43-9.02-5.22-2.82,.95-5.06,3.54-4.44,7.37v-.02c1.08,3.1,1.3,5.98,.82,8.61-1.4,7.61-8.72,13.05-18.03,15.25-.5,.12-1.01,.23-1.53,.33,0,0-.62,2.91,.71,5.13Z"/><path class="cls-24" d="M89.76,93.83l6.56,10.66,.22-.12c.1-.88,.18-1.78,.25-2.69,.04-.61,.08-1.22,.11-1.84,.06-1.34,.09-2.72,.09-4.13l-2.25-.63-4.99-1.24Z"/><path class="cls-24" d="M88.45,122.8s1.69-1.42,2.54-2.76c2.4-3.8,2.52-4.1,3.86-8.49l-1.54-8.52-9-.57c.07,1.84,.39,2.64-.38,5.19,0,0,4.73,4.04,4.52,15.15Z"/><path class="cls-24" d="M81.88,103.19c.83,.97,1.72,1.84,2.47,2.77,3.69,4.54,5.75,9.23,6.64,14.08,1.03,5.64,.49,11.5-.91,17.63-.11,.48-.22,.96-.34,1.44,0,0,3.42,1.15,5.32,.3,.2-.43,.4-.85,.59-1.27h0c5.69-12.43,7.37-22.11,1.12-36.22-1.23-2.77-2.76-5.72-4.63-8.89-1.31-1.6-2.75-2.57-4.17-3.02-5.94-1.89-11.94,6.33-6.09,13.19Z"/><path class="cls-21" d="M96.93,94.46c.06,.86,.06,1.28,.06,1.28-11.07,2.22-17.11-.88-17.11-.88-.07,.02-.06-.37,0-1.05,.14-1.37,.51-3.9,1.02-6.59,.09-.48,.19-.96,.28-1.44,.69-3.38,1.55-6.72,2.37-8.04,1.66-4.67,7.33-5.46,10.93-3.98,.56,.21,3.31,5.02,3.89,6.9,.97,3.16-2.35,5.56-1.94,9.55,.28,1.94,.41,3.35,.48,4.26Z"/><path class="cls-21" d="M90.38,73.85c.15,.14,.26,.27,.13,.49-.23,.39-.02,1.39,.53,1.59,.12,.04,.27,.05,.43,0,.87-.3,.89,.08,1.55,.78,.66,.7,1.34,.33,1.6-.27,.26-.59,.82-.22,.98-.92,.04-.17,.03-.34,0-.49-.08-.41-.56-1.13-.56-1.13,0,0-.5-.16-.54-.14-1.33-.75-2.92-.88-4.42-.66h0c-.08,.4,.13,.59,.3,.76Z"/><path class="cls-6" d="M94.82,71.35l-.33,2.4s.71,1.76-.85,1.62c-2.23-.19-2.65-2.37-2.65-2.37l.35-1.94,3.48,.3Z"/><path class="cls-6" d="M91.35,71.06l-.16,.87c1.39,.85,3.14,.78,3.45,.76l.18-1.33-3.48-.3Z"/><path class="cls-6" d="M97.44,70.47c-1.18,1.33-3.07,1.78-4.62,1.53-.64-.09-1.25-.32-1.77-.71h0c-2.11-1.75-2.91-5.45-1.84-7.88,1.55-3.57,5.99-3.24,7.17,.49,.23,.56,.64,1.17,1.14,1.61,1.32,1.2,1.42,3.18-.08,4.96Z"/><path class="cls-5" d="M96.35,68.5l-2.08-.93s-.06,1.11,.75,1.37c.78,.25,1.33-.44,1.33-.44Z"/><path class="cls-6" d="M89.88,68.53s.18,1.5,1.53,3c-.13-.07-.25-.15-.36-.24h0c-2.11-1.75-2.91-5.45-1.84-7.88,.79-2.09,3.39-3.34,5.49-1.87,0,0,1.07,3.16-4.65,5.91l-.17,1.09Z"/><path class="cls-15" d="M94.68,65.83c.05-.12,0-.26-.12-.31-.12-.05-.26,0-.31,.12-.05,.12,0,.26,.12,.31,.12,.05,.26,0,.31-.12Z"/><path class="cls-16" d="M94.09,61.13s.91,3.33-4.25,5.78l-1.3,.79s-1.14-2.24-.25-4.88c.89-2.64,5.06-3.67,5.79-1.69Z"/><path class="cls-15" d="M96.63,65.4c.05-.12,0-.26-.12-.31-.12-.05-.26,0-.31,.12-.05,.12,0,.26,.12,.31,.12,.05,.26,0,.31-.12Z"/><path class="cls-15" d="M96.37,68.58s-.03,0-.05,0l-2.08-.93s-.06-.07-.04-.12c.02-.04,.07-.06,.12-.04l2.08,.93s.06,.07,.04,.12c-.01,.03-.04,.05-.07,.05Z"/><path class="cls-15" d="M96.12,67.46c-.14,.02-.28,.02-.4,0-.05-.01-.08-.06-.06-.11,.01-.05,.06-.08,.11-.06,.3,.08,.71-.09,.76-.23,.02-.05-.05-.09-.11-.12-.52-.25-.9-1.18-.92-1.22-.02-.05,0-.1,.05-.12,.05-.02,.1,0,.12,.05,0,0,.38,.91,.83,1.13,.25,.12,.22,.28,.2,.34-.06,.16-.31,.3-.58,.35Z"/><path class="cls-6" d="M87.89,67.91c.19,.73,.83,1.2,1.42,1.05,.59-.16,.91-.88,.72-1.61-.19-.73-.83-1.2-1.42-1.05-.59,.16-.91,.88-.72,1.61Z"/><path class="cls-15" d="M89.25,66.86c-2.02-.61-.36,2.93-.86,.54,.52,.06,.8,.63,.8,.64,.44,.22-.12-.75-.77-.81,.12-.52,1.13,.03,.82-.36Z"/><path class="cls-3" d="M88.9,68.68c0,.11,.1,.19,.21,.19,.11,0,.19-.1,.19-.21,0-.11-.1-.19-.21-.19-.11,0-.19,.1-.19,.21Z"/><path class="cls-6" d="M72.42,102.52c-.49,.05-.43-1.12-.72-1.46-.41,.68-.63,1.48-.64,1.48-.08,.98-.11,1.96-.1,2.95-.74,1.3-.72-2.46-.79-2.83h-.01c-.3,.98-.54,1.99-.7,3-1.05,1.17-.12-2.92-.07-3.31h0c-.44,.88-.77,1.81-.99,2.76-1.16,1.08,.1-3,.27-3.35h0c-.44,.63-.81,1.33-1.13,2.04-1.23,.85,.37-2.52,.56-2.83,.03-.28,.78-1.86,1.66-3.14,.32-.48,2.24-.39,2.44,.14,.18,.5,.38,2.15,.41,2.41,.14,.5,.32,1.82-.18,2.14Z"/><path class="cls-21" d="M105.56,74.56c.27,.91-.58,.94-.1,1.86,.48,.92,1.38,.48,1.7,2.15,.31,1.65,1.78,1.29,1.82,1.28h0c.29-.54,.43-1.01,.43-1.01-2.89-1.42-2.85-5.07-2.85-5.07-.35-.28-.81-.25-1.33-.13,.11,.27,.24,.6,.33,.92Z"/><path class="cls-15" d="M93.56,65.27s.02,0,.04-.01c.73-.38,1.14-1.03,1.15-1.06,.03-.06,.02-.13-.04-.16-.06-.03-.13-.02-.16,.04,0,0-.4,.63-1.06,.97-.06,.03-.08,.1-.05,.16,.02,.05,.08,.07,.13,.06Z"/><path class="cls-15" d="M96.49,64.36c.05,0,.1-.06,.1-.11,0-.07-.05-.12-.12-.12,0,0-.47-.02-.88-.33-.05-.04-.13-.03-.17,.02-.04,.05-.03,.13,.02,.17,.47,.35,1,.37,1.02,.37,0,0,.02,0,.02,0Z"/><path class="cls-24" d="M90.08,137.66c-.11,.48-.22,.96-.34,1.44,0,0,3.35,1.21,5.32,.3,.2-.43,.4-.85,.59-1.27,0,0-1.69,.94-5.57-.47Z"/><path class="cls-24" d="M65.5,126.65c.39,.08,.82,.15,1.28,.21,0,0-1.17-1.91-.47-5.66-.5,.12-1.01,.23-1.53,.33,0,0-.62,2.91,.71,5.13Z"/><path class="cls-6" d="M87.76,80.32c-6.53,3.06-9.34,6.54-12.62,12.78-1.04,1.92-2,3.9-2.86,5.91-.61,1.53-3.04,.72-2.61-.87,1.18-4.8,3.05-9.37,5.46-13.69,2.37-3.98,5.99-7.1,10.01-9.32,3.49-1.79,6.14,3.46,2.62,5.2Z"/><path class="cls-21" d="M87.05,81.47c-2.23,.56-4.12,3.5-5.56,4.51-.5,.35-.96,.57-1.35,.71-.73,.27-1.21,.25-1.21,.25-.84-2.34-3.54-2.91-3.54-2.91-.44-.43-.64-.95-.65-1.53-.04-2.15,2.81-4.66,6.29-7.31,4.25-3.24,8.7-2.05,8.7-2.05,2.01,3.79-.43,7.77-2.66,8.33Z"/><path class="cls-21" d="M89.08,79.08c-.22,.36-3.57,6.06-8.24,8.52,.09-.48,.17-.9,.27-1.38,0,0,5.02-2.85,7.98-7.15Z"/><path class="cls-21" d="M99.75,82.5c-.41,0-.82-.02-1.23-.04-.09-2.46-1.17-4.19-1.2-4.25,1.29,1.42,2.05,3.19,2.43,4.29Z"/><path class="cls-21" d="M80.14,86.69c-.73,.27-1.21,.25-1.21,.25-.84-2.34-3.54-2.91-3.54-2.91-.44-.43-.64-.95-.65-1.53,.82-.06,1.02,1.11,1.77,1.19,.75,.08,1.14-.26,1.73,.14,.59,.39,.28,1.29,.75,1.82,.47,.53,1.15,.15,1.16,1.05Z"/><path class="cls-21" d="M96.99,95.74c-11.07,2.22-17.11-.88-17.11-.88-.07,.02-.06-.37,0-1.05,.47-.08,1.06-.05,1.65,.37,1.31,.92,.69,1.25,2.3,1.2,1.61-.06,.99-.7,2-.28,1,.42,1.14,1.17,2.09,.95,.95-.22,.81-.61,1.52-.5,.71,.11,1.24,.81,2.19,.54,.95-.26,1.07-.96,1.73-.92,.67,.04,1.25,.63,1.84,.51,.51-.1,.86-1.03,1.72-1.22,.06,.86,.06,1.28,.06,1.28Z"/></g><g id="_-5"><path class="cls-6" d="M187.21,45.58s1.22-1.96,2.99-2.44c1.77-.47,4.19-.05,4.19-.05,0,0-.69,.58-.43,2.5,0,0-2.29,.13-3.51,.06-1.22-.08-3.24-.07-3.24-.07Z"/><path class="cls-18" d="M211.7,16.88s-1.74-.04-2.7,1.82c-1.14,2.2,.31,3.87-.12,5.36-.43,1.48-1.17,2.54-.59,4.02,.58,1.49-.38,2.41,.12,3.64s1.25,1.18,1.22,2.82c-.03,1.64,1.41,3.04,2.73,2.06s2.06,1.16,4.17-.17,2.2-2.9,4.65-3.34c2.45-.44,1.48-3.85,3.56-5.12,2.08-1.27,1.9-3.26,.16-4.62-1.74-1.36-2.87-1.7-4.14-4.98-1.43-3.69-6.74-5.29-9.06-1.49Z"/><path class="cls-6" d="M218.9,34.21c-1.77,4.8-4.65,10.05-9.86,11.72-4.96,1.2-10.08,.66-15-.33-1.8-.07-1.92-2.54-.07-2.53,4.42,.2,9.07,.2,13.32-1.13,3.75-1.39,5.44-5.74,6.76-9.26,1.02-3.25,5.88-1.73,4.85,1.53Z"/><path class="cls-13" d="M217.78,40.99c-.25,.59-.54,1.14-.86,1.65-.52,.83-1.11,1.57-1.77,2.22-.12,.12-.25,.24-.38,.36-2.7,2.44-6.26,3.49-9.22,3.55-3.29,.07-7.89-1.02-10.01-2.12-.66-.34-1.08-.68-1.15-.99-.3-1.31,.37-2.55,.37-2.55,.22-.26,.68-.47,1.31-.64,2.21-.61,6.38-.77,8.06-1.15,2.16-.48,5.5-1.75,7.47-6.06,1.18-2.58,2.42-3.86,3.22-4.46,.54-.41,.91-.5,.91-.5,0,0,1.35,1.62,2.15,4.01,.06,.18,.12,.37,.17,.55,.51,1.79,.64,3.93-.29,6.12Z"/><path class="cls-12" d="M216.92,42.64c-.61,.99-1.34,1.84-2.15,2.57-.63-.8-1.85-2.6-2.01-4.67-.23-2.83,1.84-6.16,1.84-6.16l2.32,8.27Z"/><path class="cls-6" d="M247.35,100.83l6.61-5.43c-.18-.45-1.81-1.78-2.24-2.42-.2-.25-2.29-2.68-2.47-2.95l-2.47-2.36-2.91,2.39,4.63,4.39c.55,.52,.65,1.36,.24,1.99-.84,1.47-2.41,2.38-2.41,3.98,.06,.49,.64,.72,1.02,.4Z"/><path class="cls-24" d="M253.64,94.6c.16,.25,.27,.51,.32,.8l-6.68,5.48c-.32,.27-.82,.14-.97-.25-.33-.92-.31-2.69,2.64-5.37,0,0,1.3-.55,2.77-2.27,0,0,1.28,.62,1.91,1.62Z"/><path class="cls-24" d="M246.32,100.61l7.33-6.02c.16,.25,.27,.51,.32,.8l-6.68,5.48c-.33,.27-.84,.14-.97-.27Z"/><path class="cls-6" d="M215.14,28.78l.6,1.52s.81,9.03,2.35,9.03c2.73,0,.92-9.71,1.07-10.24,0,0-.5-1.01-.67-1.5l-3.35,1.2Z"/><path class="cls-6" d="M214.49,102.87h8.56c.15-.44-.27-2.51-.19-3.27,0-.32,.11-2.08,.14-2.4l-.58-4.84h-3.77l.78,6.32c.09,.75-.36,1.46-1.08,1.69-1.58,.6-3.37,.31-4.39,1.53-.27,.41,.04,.96,.53,.96Z"/><path class="cls-24" d="M223.31,102.06c-.04,.29-.12,.57-.26,.82h-8.64c-.42-.01-.72-.43-.58-.82,.33-.93,1.47-2.27,5.45-2.47,0,0,1.35,.41,3.58,0,0,0,.59,1.29,.45,2.46Z"/><path class="cls-24" d="M213.83,102.05h9.48c-.04,.3-.12,.59-.26,.84h-8.64c-.43-.01-.73-.44-.58-.84Z"/><path class="cls-6" d="M217.51,24.03c.01,.06,.03,.12,.03,.19-.1-.02,.49,2.16,1.07,3.68-1.18,1.2-2.87,1.55-3.19,1.6-.77-1.92-1.28-3.77-1.41-4.98-.13-2.09,3.06-2.53,3.5-.49Z"/><path class="cls-6" d="M218.86,21.6c.43,1.56,.7,3.41,0,4.9h0c-1.92,4.27-10.22,2.84-8.68-2.18,.55-1.33,.03-2.99,.39-4.23,1.41-4.73,7.37-2.54,8.3,1.51Z"/><path class="cls-5" d="M212.93,26.13l1.09-.92c.29,.72-.38,1.39-1.09,.92Z"/><path class="cls-15" d="M212.92,23.26c-.25-.19,.06-.58,.3-.38,.25,.19-.06,.58-.3,.38Z"/><path class="cls-15" d="M210.93,23.8c-.25-.19,.06-.58,.3-.38,.25,.19-.06,.58-.3,.38Z"/><path class="cls-15" d="M212.94,26.18s1.09-.92,1.12-.93c.02-.02,.03-.05,0-.08-.03-.14-1.13,.92-1.17,.91-.04,.03-.01,.11,.04,.1Z"/><path class="cls-7" d="M215.68,94.92c.14,1.01,.23,1.56,.23,1.56,3.61,1.2,8.43,1.46,11.64,.24-2.64-9.16-1.57-34.06,.31-37.13,0,0,6.57,22,13.16,34.3,.28,.52,.56,1.02,.84,1.5,0,0,7.5,.09,11.36-6.58,0,0-.41-.48-1.06-1.36-1.94-2.63-6.02-7.98-7.64-15.28-3.6-16.27-7.8-23.68-10.87-26.52-4.25-3.93-13.05,.77-15.89,6.4-3.96,12.5-3.64,32.62-2.08,42.88Z"/><path class="cls-15" d="M212.38,25.44c.14-.06,.46-.15,.36-.33-.03-.04-.09-.04-.13,0-.24,.22-.7,.26-.81,.16-.04-.04,0-.11,.04-.16,.36-.45,.36-2.03,.07-1.53,0,.01,.09,1.01-.22,1.42-.32,.54,.28,.56,.68,.44Z"/><path class="cls-6" d="M218.86,21.6c.43,1.56,.7,3.41,0,4.9h0c.27-1.08-.15-3.02-.15-3.02l-.66-.65c-5.78,.7-7.18-3.53-7.18-3.53,1.93-3.91,7.12-1.33,7.99,2.29Z"/><path class="cls-18" d="M211.2,18.69s1.43,4.17,6.69,3.73l1.2-1.64c.15-3.82-4.8-7.04-7.89-2.09Z"/><path class="cls-6" d="M220.12,21.91c.43,1.79-1.84,2.31-2.22,.51-.43-1.79,1.84-2.3,2.22-.51Z"/><path class="cls-15" d="M219.74,22.5c.18-.51-.29-1.17-.53-1.21-.45-.11-.97,.3-.85,.45,.18,.12,.35-.39,.79-.27,.44,.09,.32,.99,.58,1.04Z"/><path class="cls-15" d="M218.91,22.74c.17-.09-.06-.73,.56-1.1,.04-.02,.06-.08,.04-.12-.62-.13-.9,1.4-.6,1.22Z"/><path class="cls-3" d="M219.56,23.09c.12,.24-.26,.42-.37,.17-.12-.24,.26-.42,.37-.17Z"/><path class="cls-13" d="M233.65,45.64c-4,3.32-10.13,6.84-15.89,6.4,0,0-.79-.42-.73-1.6,.13-2.71-.87-4.2-1.88-5.59-1.37-1.88-2.74-3.6-1.31-7.94,.35-1.06,.87-2.88,1.3-4.44,.23-.86,.47-1.64,.61-2.18,.84,3.34,1.58,4.43,2.15,4.01,.63-.45,1.03-2.67,1.03-5.72,.37-.06,.74-.09,1.11-.08,4.49,.11,8.61,5.29,11.83,11.4,.3,.57,.59,1.14,.87,1.72,.18,.28,.37,.57,.54,.87,.25,.44,.47,.91,.58,1.38,.14,.59,.12,1.18-.2,1.77Z"/><path class="cls-7" d="M241.02,93.89c.28,.52,.56,1.02,.84,1.5,0,0,7.5,.09,11.36-6.58,0,0-.41-.48-1.06-1.36,0,0-3.38,5.63-11.14,6.44Z"/><path class="cls-15" d="M213.56,22.28s-.08,.01-.11,0c-.56-.4-1.03-.31-1.03-.31-.06,.01-.12-.03-.13-.09-.01-.06,.03-.12,.09-.13,.02,0,.56-.11,1.21,.35,.05,.04,.06,.11,.03,.16-.01,.02-.03,.03-.04,.04Z"/><path class="cls-15" d="M210.6,22.9s-.09,.01-.13-.02c-.04-.04-.04-.11,0-.16,0,0,.24-.24,.87-.61,.05-.03,.12-.01,.15,.04,.03,.05,.01,.12-.04,.15-.6,.36-.82,.57-.82,.58,0,0-.02,.02-.03,.02Z"/><path class="cls-13" d="M233.82,45.28s-8.49,6.64-16.31,6.56c0,0-.07,.22,.12,.64,0,0,7.76,.81,16.36-6.51,0,0,.26-.41-.18-.69Z"/><path class="cls-7" d="M225.81,97.2c1.12-.23,1.74-.49,1.74-.49-1.35-7.39-1.61-13.68-1.57-19.16,.08-11.06,1.88-17.97,1.88-17.97,0,0-1.17-.62-1.63-1.68,0,0-5.1,21.19-.42,39.3Z"/><path class="cls-7" d="M215.68,94.92c.14,1.01,.23,1.56,.23,1.56,3.61,1.2,8.43,1.46,11.64,.24-.08-.46-.16-.91-.24-1.36,0,0-6.04,1.33-11.63-.44Z"/><path class="cls-12" d="M233.86,43.88c-.9-1.13-2.8-3.05-6-4.35-4.79-1.94-6.14-6.08-6.14-6.08l10.15,6.47c.3,.57,.59,1.14,.87,1.72,.45,.69,.93,1.46,1.12,2.24Z"/><path class="cls-6" d="M225.79,29.32c3.59,2.41,7.14,4.93,10.25,7.95,2.3,2.45,3.95,5.39,5.37,8.39,.38,1.34,2.4,3.66,.54,4.58-1.27,.46-1.74-1.03-2.3-1.84-.82-1.28-1.69-2.55-2.6-3.76-1.25-1.63-2.6-3.25-4.18-4.5-1.02-.78-2.27-1.64-3.35-2.36-2.08-1.38-4.38-2.85-6.49-4.18-2.81-1.85-.1-6.08,2.76-4.27Z"/><path class="cls-6" d="M240.11,52.71c.42,.12,.42-1.11,.68-1.43,.41,.65,.64,1.43,.64,1.43,.1,.95,.14,1.91,.14,2.87,0,.31,.47,.34,.51,.03,.11-.93,.19-1.86,.21-2.8h.01c.31,.95,.56,1.93,.73,2.91,1.03,1.19,.07-2.89,.02-3.22h0c.44,.85,.78,1.75,1.02,2.68,1.15,1.08-.15-2.94-.32-3.26h0c.44,.61,.81,1.28,1.14,1.97,1.2,.83-.38-2.4-.56-2.69-.1-.36-.68-1.5-1.87-2.85-.37-.42-1.77,.29-1.95,.81-.17,.49-.22,1.19-.24,1.44-.12,.42-.66,1.9-.17,2.11Z"/><path class="cls-13" d="M242.21,47.35s-1.04,1.62-2.31,1.39c-.12-.02-.53-.2-1.07-.53-.81-.49-1.93-1.34-2.87-2.54-.69-.89-1.46-2-2.69-3.18-1.26-1.21-2.7-3.09-5.36-4.28-3.75-1.68-5.37-2.84-6.71-5.76-.53-1.16-2.15-2.03-2.28-3.86,0,0,.4-.16,1.1-.32,1.74-.39,5.35-.79,9.47,1.19,4.98,2.39,12.06,11.08,12.86,15.88,.13,.79,.09,1.47-.15,2.01Z"/><path class="cls-12" d="M219.93,33.01c-.09,1.2-.11,2.07-.55,2.31-.57,.31-1.1-.21-1.31-.45-.07-.08-.1-.13-.1-.13,0,0-.28,1.76-1.32,1.09-.81-.52-1.23-2.15-1.51-3.35-.21-.92-.3-1.67-.3-1.67,.54-.44,.91-.5,.91-.5,.84,3.34,1.58,4.43,2.15,4.01,.63-.45,1.03-2.67,1.03-5.72,0,0,.4-.16,1.1-.32h0v.24c.01,.71,.02,2.81-.11,4.5Z"/><path class="cls-12" d="M195.54,46.65c-.66-.34-1.08-.68-1.15-.99-.3-1.31,.37-2.55,.37-2.55,.22-.26,.68-.47,1.31-.64,0,0-1.24,2.16-.53,4.18Z"/><path class="cls-12" d="M242.21,47.35s-1.04,1.62-2.31,1.39c-.12-.02-.53-.2-1.07-.53,.15-.16,2.13-.54,3.53-2.88,.13,.79,.09,1.47-.15,2.01Z"/></g></g><g class="cls-2"><g><path class="cls-8" d="M88.94,39.24l-.46,.03"/><path class="cls-8" d="M86.88,39.51l-.46,.03"/><path class="cls-8" d="M81.66,39.8l-.46-.03"/><path class="cls-8" d="M78.18,39.84l.46-.05"/><path class="cls-8" d="M75.12,39.59h.46"/><path class="cls-20" d="M19.92,39.22c.04,.07,.03,.14-.04,.18-.05,0-.08,.01-.09,.01-.04,0-.09-.03-.12-.07"/></g></g></svg>