<?xml version="1.0" encoding="UTF-8"?>
<svg id="Calque_1" data-name="Calque 1" xmlns="http://www.w3.org/2000/svg" viewBox="0 0 405.27 441.08">
  <defs>
    <style>
      .cls-1 {
        fill: #ef8bb8;
      }

      .cls-2, .cls-3 {
        fill: #fff;
      }

      .cls-4 {
        fill: #fd7403;
      }

      .cls-5 {
        fill: #e4eaf4;
      }

      .cls-6, .cls-7 {
        fill: #333857;
      }

      .cls-8 {
        fill: #e07d5a;
      }

      .cls-9 {
        fill: #9c5043;
      }

      .cls-10 {
        fill: #544745;
      }

      .cls-11 {
        fill: #87a3cc;
      }

      .cls-12 {
        fill: #2b2b2b;
      }

      .cls-13 {
        fill: #2f3169;
      }

      .cls-14 {
        fill: #4c6fae;
      }

      .cls-15 {
        fill: #7d342f;
      }

      .cls-16 {
        fill: #27476d;
      }

      .cls-3 {
        opacity: .3;
      }

      .cls-3, .cls-7 {
        isolation: isolate;
      }

      .cls-7 {
        opacity: .4;
      }
    </style>
  </defs>
  <g id="BACKGROUND">
    <path class="cls-5" d="M162.34,5.17L57.94,44.77C17.54,60.07-6.26,101.97,1.44,144.47l11.7,65.1c6.6,37,33.1,67.3,68.9,78.8l200,64.2c36.9,11.9,77.3-1.9,99.2-33.9l3.4-5c19.2-28,25.4-62.9,16.9-95.7l-42.4-164.3c-3.9-15.1-16.2-26.6-31.5-29.4L205.74,1.37c-14.6-2.7-29.6-1.4-43.4,3.8Z"/>
  </g>
  <g id="OBJECTS">
    <g>
      <g>
        <polygon class="cls-8" points="340.14 234.97 326.34 234.97 306.54 287.07 320.34 287.07 340.14 234.97"/>
        <polygon class="cls-9" points="335.74 234.97 326.34 234.97 319.44 253.07 335.74 241.47 335.74 234.97"/>
      </g>
      <g>
        <path class="cls-9" d="M138.84,361.67s4.2,22.8,3.4,41.1l6.6,7.5,23.4-20.4-4-4.6-5.3-44.6-24.1,21Z"/>
        <path class="cls-15" d="M140.34,371.77c4.8,.6,14.7,1.4,26.2,0l-3.7-31-24,20.9s.7,4.1,1.5,10.1Z"/>
        <path class="cls-6" d="M128.54,417.07s10.7-23,11.9-25.8c1.2-2.9,1.2-4.7,1.1-6.8,0-2.1-.6-3.7,1.8-4,2.5-.2,8.1-.4,10.8,.2,2.6,.6,3.5,2.3,3.2,5s-15.5,34.4-15.5,34.4l-9,4.9-4.3-7.9Z"/>
        <path class="cls-7" d="M157.24,386.17c-2.1-.7-4.9-2.1-6.4-1.8-1.4,.3-2.3,1.6-3.1,3.5s-9.8,23.3-10.4,24.9c-.6,1.6-.8,2.3,.1,4.2,.5,1,1.6,2.9,2.4,4.3l2.1-1.1c-.1-.1,13.8-29.2,15.3-34Z"/>
        <path class="cls-6" d="M152.14,387.07c-1.4,.3-2.2,1.6-3.1,3.5-.8,1.9-9.2,21.1-9.8,22.7s-.9,2.3,.1,4.2c.9,1.8,3.5,6.3,3.5,6.3,0,0,39.8-22,40.7-22.5-.4-.9-.8-1.9-1.3-2.7-.5-.8-7.9-12.1-8.7-12.7-.8-.5-1.1-1-1.8-.7s-9.5,4-11.4,4c-2.1,0-6.3-2.5-8.2-2.1Z"/>
        <path class="cls-7" d="M152.14,387.07c-1.4,.3-2.2,1.6-3.1,3.5-.8,1.9-9.2,21.1-9.8,22.7s-.9,2.3,.1,4.2c.9,1.8,3.5,6.3,3.5,6.3,0,0,39.8-22,40.7-22.5-.4-.9-.8-1.9-1.3-2.7-.5-.8-7.9-12.1-8.7-12.7-.8-.5-1.1-1-1.8-.7s-9.5,4-11.4,4c-2.1,0-6.3-2.5-8.2-2.1Z"/>
        <path class="cls-9" d="M183.44,401.17l-62.2,34.3s1.4,2.5,2.3,4.1c.9,1.6,1.3,1.8,2.5,1.2,1.2-.7,59-32.5,60.2-33.2s.8-1.9,.4-2.3c-.3-.4-3.2-4.1-3.2-4.1Z"/>
        <path class="cls-2" d="M146.44,421.67c-3.4-5.1-11-8.2-17.5-6.2-4.2,5.2-7.1,12.2-8.3,14s-.1,4.8,.6,6l25.2-13.8Z"/>
        <g>
          <g>
            <path class="cls-9" d="M145.54,411.77c.6,1,.2,2.3-.8,2.9s-2.3,.2-2.9-.8c-.6-1-.2-2.3,.8-2.9,1-.6,2.3-.2,2.9,.8Z"/>
            <path class="cls-2" d="M144.24,411.47c-3.1-2.5-8.6-3-12.1-2.3-1.4,.6-2,2.2-1.6,3.3,.3,0,.6,0,.8-.2,1.9-1,8-1.1,11.1,1.3,.5,.4,1.1,.4,1.6,.1,.2-.1,.3-.2,.4-.4,.5-.4,.4-1.3-.2-1.8Z"/>
          </g>
          <g>
            <path class="cls-9" d="M148.64,405.17c.6,1,.2,2.3-.8,2.9s-2.3,.2-2.9-.8c-.6-1-.2-2.3,.8-2.9,1-.7,2.3-.3,2.9,.8Z"/>
            <path class="cls-2" d="M147.34,404.77c-3.1-2.5-8.6-3-12.1-2.3-1.4,.6-2,2.2-1.6,3.3,.3,0,.6,0,.8-.2,1.9-1,8-1.1,11.1,1.3,.5,.4,1.1,.4,1.6,.1,.2-.1,.3-.2,.4-.4,.5-.4,.4-1.3-.2-1.8Z"/>
          </g>
          <g>
            <path class="cls-9" d="M151.74,398.47c.6,1,.2,2.3-.8,2.9s-2.3,.2-2.9-.8c-.6-1-.2-2.3,.8-2.9s2.3-.2,2.9,.8Z"/>
            <path class="cls-2" d="M150.44,398.17c-3.1-2.5-8.6-3-12.1-2.3-1.4,.6-2,2.2-1.6,3.3,.3,0,.6,0,.8-.2,1.9-1,8-1.1,11.1,1.3,.5,.4,1.1,.4,1.6,.1,.2-.1,.3-.2,.4-.4,.5-.5,.4-1.3-.2-1.8Z"/>
          </g>
          <g>
            <path class="cls-9" d="M154.84,391.77c.6,1,.2,2.3-.8,2.9s-2.3,.2-2.9-.8c-.6-1-.2-2.3,.8-2.9,1-.6,2.3-.2,2.9,.8Z"/>
            <path class="cls-2" d="M153.54,391.47c-3.1-2.5-8.6-3-12.1-2.3-1.4,.6-2,2.2-1.6,3.3,.3,0,.6,0,.8-.2,1.9-1,8-1.1,11.1,1.3,.5,.4,1.1,.4,1.6,.1,.2-.1,.3-.2,.4-.4,.5-.4,.4-1.3-.2-1.8Z"/>
          </g>
        </g>
      </g>
      <g>
        <rect class="cls-9" x="195.94" y="406.37" width="83.7" height="12.1"/>
        <path class="cls-1" d="M323.64,300.97v-7.4c0-4.9-4-8.9-8.9-8.9h-105.7c-4.9,0-8.9,4-8.9,8.9v7.4h123.5Z"/>
        <rect class="cls-4" x="200.14" y="300.97" width="123.6" height="5.6"/>
        <polygon class="cls-8" points="338.34 441.07 328.14 441.07 306.14 306.57 323.24 306.57 338.34 441.07"/>
        <polygon class="cls-9" points="308.64 322.07 308.64 322.07 316.64 306.57 306.14 306.57 308.64 322.07"/>
        <polygon class="cls-9" points="299.14 441.07 288.94 441.07 266.84 306.57 284.04 306.57 299.14 441.07"/>
        <polygon class="cls-8" points="247.94 441.07 237.84 441.07 244.44 306.57 261.64 306.57 247.94 441.07"/>
        <polygon class="cls-8" points="185.54 441.07 195.74 441.07 217.84 306.57 200.64 306.57 185.54 441.07"/>
        <path class="cls-9" d="M217.84,306.57h-17.2l-6.1,54.3c8.2-12.8,15.7-24.5,19.3-30.1l4-24.2Z"/>
        <rect class="cls-8" x="246.44" y="406.37" width="83.7" height="12.1"/>
        <polygon class="cls-9" points="330.14 418.47 325.54 424.67 324.54 418.47 330.14 418.47"/>
      </g>
      <polygon class="cls-6" points="247.94 125.47 221.34 170.97 268.14 170.97 268.14 126.07 247.94 125.47"/>
      <g>
        <path class="cls-9" d="M132.94,378.87s-11.9,20-24.4,33.2v10h31v-6.1l25.3-37.1h-31.9Z"/>
        <path class="cls-15" d="M127.54,387.47c3.2,3.6,10.1,10.7,19.8,17.2l17.6-25.8h-31.8c-.2,0-2.3,3.5-5.6,8.6Z"/>
        <path class="cls-6" d="M87.44,421.47s20.5-14.9,22.9-16.8,3.3-3.6,4.3-5.4c1-1.9,1.3-3.6,3.5-2.6,2.3,1,7.3,3.6,9.3,5.4s1.9,3.7,.4,5.9c-1.6,2.2-30.2,22.6-30.2,22.6h-10.2v-9.1Z"/>
        <path class="cls-7" d="M127.54,408.27c-1.5-1.6-3.3-4.2-4.7-4.7s-2.7,.3-4.4,1.6c-1.6,1.3-19.8,15.6-21.1,16.7s-1.9,1.6-2,3.7v4.9h2.4c-.1,0,26.2-18.7,29.8-22.2Z"/>
        <path class="cls-6" d="M122.64,406.57c-1.4-.5-2.7,.3-4.4,1.6-1.6,1.3-18.2,14-19.6,15.1-1.3,1.1-1.9,1.6-2,3.7-.1,2,0,7.2,0,7.2h46.5c.1-1,.2-2.1,.2-3s-1.1-14.4-1.5-15.3c-.5-.9-.5-1.4-1.3-1.4s-10.2-1.1-12-2c-1.6-1.1-4-5.3-5.9-5.9Z"/>
        <path class="cls-9" d="M143.24,434.07H72.24v4.7c0,1.9,.2,2.2,1.6,2.2h68.8c1.4,0,1.6-1.2,1.5-1.8-.2-.5-.9-5.1-.9-5.1Z"/>
        <path class="cls-2" d="M100.94,434.07c-.5-6.1-5.7-12.5-12.3-13.8-6.2,2.6-12.1,7.3-14,8.3s-2.4,4.1-2.4,5.6h28.7v-.1Z"/>
        <g>
          <g>
            <path class="cls-9" d="M104.94,425.07c0,1.2-1,2.1-2.1,2.1-1.2,0-2.1-1-2.1-2.1,0-1.2,1-2.1,2.1-2.1,1.1-.1,2.1,.9,2.1,2.1Z"/>
            <path class="cls-2" d="M103.94,424.17c-1.5-3.7-6.1-6.8-9.5-7.8-1.5-.2-2.8,1-3,2.2,.2,.2,.5,.2,.8,.2,2.1,0,7.6,2.9,9.1,6.5,.2,.5,.8,.9,1.3,.9,.2,0,.4,0,.5-.1,.8-.4,1.1-1.2,.8-1.9Z"/>
          </g>
          <g>
            <path class="cls-9" d="M110.84,420.67c0,1.2-1,2.1-2.1,2.1-1.2,0-2.1-1-2.1-2.1,0-1.2,1-2.1,2.1-2.1s2.1,1,2.1,2.1Z"/>
            <path class="cls-2" d="M109.84,419.87c-1.6-3.7-6.1-6.8-9.5-7.8-1.5-.2-2.8,1-3,2.2,.2,.2,.5,.2,.8,.2,2.1,0,7.6,2.9,9.1,6.5,.2,.5,.8,.9,1.3,.9,.2,0,.4,0,.5-.1,.8-.4,1.1-1.2,.8-1.9Z"/>
          </g>
          <g>
            <path class="cls-9" d="M116.74,416.37c0,1.2-1,2.1-2.1,2.1-1.2,0-2.1-1-2.1-2.1,0-1.2,1-2.1,2.1-2.1,1.2,0,2.1,.9,2.1,2.1Z"/>
            <path class="cls-2" d="M115.84,415.47c-1.5-3.7-6.1-6.8-9.5-7.8-1.5-.2-2.8,1-3,2.2,.2,.2,.5,.2,.8,.2,2.1,0,7.6,2.9,9.1,6.5,.2,.5,.7,.9,1.3,.9,.2,0,.4,0,.5-.1,.7-.3,1.1-1.2,.8-1.9Z"/>
          </g>
          <g>
            <path class="cls-9" d="M122.64,411.97c0,1.2-1,2.1-2.1,2.1-1.2,0-2.1-1-2.1-2.1,0-1.2,1-2.1,2.1-2.1,1.2,0,2.1,1,2.1,2.1Z"/>
            <path class="cls-2" d="M121.74,411.17c-1.5-3.7-6.1-6.8-9.5-7.8-1.5-.2-2.8,1-3,2.2,.2,.2,.5,.2,.8,.2,2.1,0,7.6,2.9,9.1,6.5,.2,.5,.7,.9,1.3,.9,.2,0,.4,0,.5-.1,.8-.4,1.1-1.2,.8-1.9Z"/>
          </g>
        </g>
      </g>
      <g>
        <path class="cls-14" d="M121.54,246.87c-1.1,4.6-.8,7.7-.3,13.2s16.4,105.8,16.6,105.5c.2-.3,14.8,2,29-7.1-2.3-44-3.9-79.2-3.9-79.2l.8-6.7v-25.6h-42.2v-.1Z"/>
        <path class="cls-16" d="M136.04,355.47c1,6.3,1.7,10.2,1.7,10.1,.2-.3,14.8,2,29-7.1-.8-14.4-1.5-27.8-2-39.4-6.8,7.4-21.1,26.2-28.7,36.4Z"/>
      </g>
      <g>
        <path class="cls-14" d="M228.44,218.97l-9.3,5.1c-13.8,.5-75,4.5-80.1,5.1s-17,12.8-17.8,19c-.8,6.3,42.3,26.6,42.3,26.6,16.6,.9,33.6,2.2,33.6,2.2,0,0-14,12.8-14.8,13.2-2.8,4.2-53.6,90.8-54.2,91.9-.6,1.1-1.3,2.3-.3,3,.9,.6,25.4,17.1,26.3,17.9,.9,.8,2.5,.5,3.8-.8s54.5-84.6,54.5-84.6l53.2-32.9h13.9c4.5,0,10.2-1.3,11.7-4.9,1.6-3.6,10.5-16.8,10.5-16.8v-44.1h-73.3v.1Z"/>
        <path class="cls-3" d="M175.14,301.97c-12.4,21-37.2,63.2-44.8,76.2,.1-.1,38.5-59.6,44.8-76.2h0Z"/>
        <path class="cls-16" d="M163.54,274.77c-5.2-10.9-14.4-23.2-16.7-25.6s6,2.5,9.7,5.9,2.3,6.8,2.9,8.6c.6,1.8,7.9,11.3,7.9,11.3l-3.8-.2Z"/>
        <path class="cls-16" d="M254.54,237.97c-5.3-.4-6.1,2.9-9.8,3.7-2.2,.5-7.4,1.4-11.3,2,2.9-5.2,12.2-20.7,24.5-27.9l-1-1.6c-14.2,8.4-24.2,26.6-25.9,29.9-1.3,.2-2.2,.4-2.4,.4,1.8-12.3,9.6-24.8,18.8-30l-.5-.8c-9,5.1-16.7,17-19,29-.8-4-1.8-13.1-2.4-13.4-.7-.5-1.8,3.6-1.5,5.9s2.1,2,2.5,4.6c.5,2.7,.9,6-.3,7-1,.8-32.7,22.7-42.4,29.4,7.7,.5,13.1,.9,13.1,.9,16.3-17.1,31.1-30.5,31.1-30.5,1-.3,2.5-.7,4.3-1h.1v-.1c10.2-2,30.4-4.5,32-4.6,2-.2-4.5-2.5-9.9-2.9Z"/>
        <path class="cls-16" d="M301.84,236.47c-7.6,8.8-23,26.6-27.1,30.2-2.5,1.6-62.2,39.4-68.3,44.7h0l-60.2,86c.3,.2,.5,.4,.8,.5l60.1-85.9c6.3-5.3,67.5-44.2,68.2-44.6,4.1-3.7,18.7-20.5,26.5-29.5v-1.4h0Z"/>
        <path class="cls-16" d="M277.94,276.97c-2.3,1.6-12.3,7.7-12.3,7.7h10.5c1.4-3.6,3.3-8.8,1.8-7.7Z"/>
      </g>
      <path class="cls-11" d="M266.94,117.67l38.5-2.8-10.7,142.8c-16.1-18.5-32.6-33.2-63.9-35.7v-2.7l9.4-14.4,26.7-87.2Z"/>
      <g>
        <path class="cls-9" d="M303.14,110.77l-3.2-25.9-25.7,4.9s-.5,14.3-.6,23.3c-2,2.4-4.1,3.3-4.1,3.3,0,0-.4,10,6.9,16.8,16-2.6,29.1-20.1,29.1-20.1l-2.4-2.3Z"/>
        <path class="cls-15" d="M277.64,116.97c5.7,0,18-17.9,19.7-28.9l.9-3.5-24,5.1s-.5,14.6-.6,23.3c.7,2,2.1,4,4,4Z"/>
      </g>
      <path class="cls-13" d="M303.94,111.47s-15.4,44.1-27.3,79.8c-11.9,35.7-13.5,47.9-13.7,50.9-.2,3.1,.5,7.2,3.2,8.7s31.7,17.5,34.3,18.4c2.6,.9,3.5-.5,4.7-2.9,1.2-2.5,15-48.7,23-75.9s11-56.8,9.7-58.3c-1.3-1.4-33.9-20.7-33.9-20.7Z"/>
      <path class="cls-7" d="M327.84,191.37h-14.1c0,3.8-4.7,8.5-9.8,10.8-3.5,1.6-23.1,7.8-34.4,11.3-5.6,19-6.5,26.5-6.7,28.8-.2,3.1,.5,7.2,3.2,8.7,1.2,.7,7.5,4.1,14.3,7.9,2-2.7,5.4-6.3,9.5-6.7,3.8-.4,13-1.5,20.5-2.3,5-16.4,12.4-41.1,17.5-58.5Z"/>
      <path class="cls-13" d="M272.44,114.17s-18.4,40.3-31.3,92.4c-6.7,11.6-10.3,15.3-10.3,15.3l-11.7,2,19.4-19.7c3.1-24.7,9.8-78.4,9.9-79,3.4-3.3,16.9-8.3,24-11Z"/>
      <path class="cls-1" d="M350.94,235.97v-8.2c0-1.1,.1-2.3-1.1-2.6h-39.1c-4.9,0-8.9,4-8.9,8.9v7.4h44.7c2.1-.8,4.4-3.8,4.4-5.5Z"/>
      <g>
        <path class="cls-15" d="M256.24,233.37s-8.7,10.7-9.6,12c-.9,1.2-.6,2.4-.5,3.1s1.2,4.9,1.2,4.9h12.5v-19.9h-3.6v-.1Z"/>
        <path class="cls-9" d="M310.84,207.57s-46.1,16.8-48,17.6c-1.8,.8-3.7,2.8-4,3.5s-12.9,22.3-13,23.6c-.2,1.3-.1,3.5,0,5.4s.6,7.6,.9,8.2c.2,.6,4.1,.8,4.1,.8,0,0,.4,1.3,1.4,1.7,1.1,.4,5.2-.6,5.2-.6,0,0,.9,2.1,2.1,1.9s5.1-.3,5.1-.3c0,0,.8,1.3,2.1,1.5,1.2,.2,3.5-1.5,3.9-2.2,.4-.6,1.2-8,1.2-8,1.9-5,5.3-18.9,5.6-20.4,.3-1.5,.6-3.1,.6-3.1l45.7-8.5v-21.2h-12.9v.1Z"/>
        <path class="cls-15" d="M306.94,208.97s5.6,10.3,7.1,21.6l9.7-1.8v-21.2h-12.9s-1.5,.5-3.9,1.4Z"/>
        <g>
          <path class="cls-15" d="M263.74,260.07c-.1-.1,.7,7,.9,9.3,0,0,.8,1.3,2.1,1.5h.2c-1-3.1-3.1-10.7-3.2-10.8Z"/>
          <path class="cls-15" d="M256.34,257.17c-.3-.1,.7,7.1,1,10.6,0,0,.9,2.1,2.1,1.9,.3,0,.6-.1,1.1-.1-1-3.3-3.9-12.3-4.2-12.4Z"/>
          <path class="cls-15" d="M250.74,255.87c-.3,.1-.9,2.4-1,3.7-.1,1-.6,5.1-.8,7,.9,.1,1.8,.1,1.8,.1,.2-5.7,.3-10.9,0-10.8Z"/>
        </g>
        <path class="cls-13" d="M306.94,208.97s11,10.6,12.4,20.6c0,0,.7,.9,2.1,1,1.4,.2,26.1-4.5,28-5.2,1.9-.6,4.1-7.1,3.1-11.2-1-4.1-14.7-81.9-14.7-81.9,0,0-4.7-1.2-10.3,8.1-8.3,13.7-13.9,34.8-13.4,50.2l2.6,12.8s-8.6,3.2-9.5,3.5c-1,.3-.8,1.7-.3,2.1Z"/>
        <path class="cls-7" d="M338.64,204.67c-1.6-1.2-3.2,.2-4.6-.2s-8-2.2-10.3-2.3c-2.3-.2-4.8-.2-4.7-.6,.1-.5,12.4-2.9,13.6-3.1,1.3-.2-2.7-.6-6.4-.6-3.2,0-8.1,2.9-9.4,3.7l-2.2-10.9c-.5-15.4,5.1-36.4,13.3-49.9,5.3-8.8,9.8-7.9,9.8-7.9l.2-.9c-.2-.1-5.1-1.1-10.9,8.3-8.3,13.6-13.9,34.8-13.4,50.5l2.6,12.8,.5-.1c7.2,.2,13.1,.9,17.8,3.6,4.7,2.7,9.8,6.1,9.7,5.3-.2-.9-4-6.5-5.6-7.7Z"/>
      </g>
      <g>
        <polygon class="cls-15" points="240.24 103.57 238.24 103.57 238.24 120.27 251.34 120.27 251.34 105.07 240.24 103.57"/>
        <path class="cls-4" d="M285.34,92.27c.7,.9,.5,2.3-.5,2.9l-32.9,23.4c-.9,.7-2.3,.5-2.9-.5l-10.9-15.3c-.7-.9-.5-2.3,.5-2.9l32.9-23.4c.9-.7,2.3-.5,2.9,.5l10.9,15.3Z"/>
        <path class="cls-9" d="M247.94,91.07s.9-1.6,1.4-2.4c.4-.8,1.3-1.4,2.5-1.5s5.8-.2,6.2-.2,1.3,2.5,0,3.7-6.4,2-6.4,2l-3.7-1.6Z"/>
        <path class="cls-15" d="M248.84,89.57c-.4,.7-.8,1.5-.8,1.5l3.6,1.6s2.1-.4,4-.9c-2-1.4-4.4-2.3-6.8-2.2Z"/>
        <path class="cls-9" d="M240.24,96.97s.5-2.7,1-3.7,2.9-2.3,3.8-3c.8-.7,2.9-.3,3.8,0s3.6,1.6,5.1,2.2,1.4,2.1-.5,3.2c-2,1-6,.9-7.8-.5l-3.5,2.5-1.9-.7Z"/>
        <path class="cls-15" d="M240.64,94.77c-.3,1.1-.5,2.2-.5,2.2l1.8,.6,3.5-2.5c-1.4-.2-3.2-.3-4.8-.3Z"/>
        <path class="cls-9" d="M243.54,116.17c2.8-3.2,10.1-3.4,11.9-3.2s2.6-.1,3.6-.7c1-.7,2.8-1.6,4.4-1.8s3,1.1,3,1.5-1.8,1.5-3.6,3c-1.8,1.5-4.4,3.7-6.2,5.1-1.8,1.4-8.1,4.6-8.7,5.5s-4,55.1-4.9,61.3c-.9,6.2-5.2,13.9-8.4,16.1-3.1,2.1-9.4,2-10.2,1.3-.8-.6-8.5-10.6-7.5-17.9,1-7.3,14.7-62.4,14.7-62.4,.4-3.2,1.5-20.5,1.7-21.9s.9-3,1.8-3.7,2.9-2.4,3.6-2.7c.8-.3,2.3,.3,3.6,1.1,1.3,.8,4.1,2.9,5.1,3.4s-.1,2.4-2.4,2.9-5.8-.8-5.8-.8c0,0,.9,3.9,1.1,8.3l3.2,5.6Z"/>
        <path class="cls-13" d="M219.14,169.67h26.6s.5,.2,.7,1.5-1.6,21.4-2.5,24.7-7.9,10.2-11.2,11.7c-3.3,1.5-9.5,2.6-11.2,0-1.8-2.6-7.3-14.5-7.4-18.2-.1-3.6,5-19.7,5-19.7Z"/>
      </g>
      <g>
        <path class="cls-9" d="M253.24,77.47c-.1,7.8-.2,14.8,3.1,20,3.3,5.1,9.3,11.1,14.1,11.3,4.8,.3,21.2-5.3,25.4-19.1,5.2-.1,13.2-4.3,15.4-14.3,2.2-10-.5-36.7-20-40.7-19.5-4.1-32.8,2.8-38.5,13.4-7.2,13.5-1,27.6,.5,29.4Z"/>
        <path class="cls-15" d="M259.24,76.47c-.1,.2-.2,1.3-.1,1.7-.9,2.5-2.4,6.5-2.3,7.4,.1,.8,1.4,1.9,2.5,2.3s1.8,.2,1.7,0c-.2-.3-2.8-1.6-2.6-2.6,.1-1.1,1.5-6.2,1.5-6.8-.2-.7-.6-2.3-.7-2Z"/>
        <path class="cls-15" d="M263.24,86.87c-.3-.2-.6-1-.2-1.1s2,.4,1.9,.7c-.2,.3-1.4,.7-1.7,.4Z"/>
        <path class="cls-12" d="M277.34,75.47c0,1.7-1.1,3-2.4,2.9s-2.4-1.5-2.4-3.2,1.1-3,2.4-2.9c1.3,.1,2.3,1.5,2.4,3.2Z"/>
        <path class="cls-12" d="M256.24,76.87c.2,1.4-.2,2.5-1,2.6s-1.7-.9-1.9-2.3c-.2-1.4,.2-2.5,1-2.6,.8-.1,1.7,.9,1.9,2.3Z"/>
        <g>
          <path class="cls-12" d="M281.14,67.47c-.3-.1-3-1.1-6.5-.8-3.4,.3-5.1,1.2-6.1,1.7-1.9,1.1-2.2,3.5-.7,3,0,0,3.9-2.6,7.6-3.4,3.6-.7,6-.4,5.7-.5Z"/>
          <path class="cls-12" d="M254.04,70.27c-.8-.1-2.5,.2-3.6,.6,.1,.5,.3,1,.5,1.5,1.8-.2,5.3-.4,5.2-.6-.5-.6-1.1-1.4-2.1-1.5Z"/>
          <path class="cls-12" d="M279.44,73.27s-.1-.1-.3-.3c-.2-.2-.6-.5-1-.7-.2-.1-.5-.2-.8-.3-.3-.1-.6-.2-.9-.3-.3,0-.7-.1-1.1-.1s-.8,.1-1.1,.2c-.2,0-.4,.1-.5,.2-.2,.1-.4,.1-.5,.2-.3,.2-.6,.4-.9,.6-.5,.5-.9,1-1.2,1.4-.3,.5-.4,.9-.5,1.2-.1,.3-.1,.4-.1,.4h0c0,.1,0,.2,.1,.3,.2,.1,.4,.1,.5,0,0,0,.1-.1,.3-.3,.2-.2,.4-.5,.7-.8,.2-.2,.3-.3,.5-.5s.4-.3,.6-.5c.2-.1,.4-.3,.7-.4,.2-.1,.5-.2,.7-.3,.3-.1,.5-.1,.8-.2h.8c.3,0,.5,0,.8,.1,.2,0,.5,.1,.7,.1,.2,.1,.4,.1,.6,.1,.2,.1,.3,.1,.5,.1,.3,.1,.4,.1,.4,.1,.1,0,.3,0,.4-.1,0,.2,0-.1-.2-.2h0Z"/>
          <path class="cls-12" d="M256.74,76.57c.1,0,.2,0,.3-.1,.2-.1,.2-.4,.1-.5h0s-.1-.1-.3-.3c-.2-.2-.4-.5-.8-.7-.2-.1-.4-.3-.6-.4s-.5-.2-.8-.3c-.2,0-.3-.1-.5-.1h-.5c-.2,0-.4,0-.5,.1-.1,0-.8,.2-1.3,.5,.3,.6,.5,1.2,.8,1.6,.3-.1,.7-.3,.8-.3s.2-.1,.2-.1c.1,0,.2-.1,.3-.1h.6c.2,0,.4,.1,.6,.1s.4,.1,.5,.1c.2,.1,.3,.1,.5,.1,.1,.1,.3,.1,.4,.1,0,.2,.2,.3,.2,.3Z"/>
        </g>
        <path class="cls-10" d="M284.54,60.37c.3,.4,.5,1,.7,1.6,.5,2.4,1.4,5.1,2.1,6.1s2,1.3,3.4,1.3,1.6,1.2,2,3c.3,1.8,.9,7.6,.9,7.6h2l2.5-7.2s3.4-3.1,6.5,.5c3.2,3.6-.6,13.2-8.8,16.3l5.5,8.5s2.6-6.6,6.8-13.8c4.2-7.1,7.8-17.2,7.9-21.5,.1-2.9-1-7.1-1.6-9.5-14.7,2.5-24.9,5.5-29.9,7.1Z"/>
        <path class="cls-12" d="M315.54,44.37c1.3-2.2-.9-5.7-3.6-5.6,.5-1.8-.6-5.5-4.2-5.3,0-2.5-1.9-4.8-5.2-4.3-.2-2.3-3.1-3.9-6.4-2.9-1.2-1.6-1.2-2.2-5.4-2.3-.9-3-5.6-3.1-7.1-1.3-1.8-2.3-6.8-1.5-8.6,.8-3.2-.9-6.8,.2-7.8,3.4-3-1.5-7.5,.3-8.1,2.8-3.2-1.2-6,1.4-6,4.2-3.3,.6-4.8,3.6-3.7,7-1.5-.7-5.3,1.4-3.4,4.1-3,.8-3.3,6.2-1.8,8-1.9,1.2-1.6,4.3,.2,6.3-2.6,1.6-.6,7.3,1.8,6.7-.2,2,.8,3.5,3.9,2.8-.1-3.2,1-5.2,4.5-6,3.4-.8,20.1-3.1,24.5-3.6,3.2-.3,4.7,.1,5.6,1.2,5-1.6,15.2-4.6,29.7-6.9,2.3-.4,3.4-2.7,2.4-3.9,1.2-1.2,1.2-2.7-1.3-5.2Z"/>
        <path class="cls-15" d="M262.44,96.67c-.4,.1-1,.3-.5,.7,.4,.4,.8,0,1.2-.1,.4-.1,2.1-.4,5.6-1.7,3.4-1.2,7.7-3.4,8.2-4.2,.5-.8,.2-1.1-.1-1.2-.3-.1-1.3,.8-1.5,1s-3.8,3.1-6.8,4.1c-4.2,1.5-5.7,1.4-6.1,1.4Z"/>
      </g>
    </g>
    <path class="cls-1" d="M166.84,32.27c22.4,0,40.6,13.8,40.6,30.9,0,11.1-7.7,20.9-19.4,26.3v.1l.2,.9c.1,.7,.3,1.3,.5,1.9,.1,.3,.2,.6,.3,.9s.2,.6,.4,.9c.1,.3,.3,.6,.4,.9,.1,.3,.3,.6,.4,.8,.3,.6,.6,1,.9,1.5,.3,.5,.6,.9,.8,1.3,.3,.4,.5,.7,.7,.9,.4,.5,.7,.8,.7,.8h0c.1,.1,.1,.2,.1,.3,0,.2-.2,.3-.4,.3,0,0-.4-.1-1.1-.2-.3-.1-.8-.1-1.2-.2-.5-.1-1-.2-1.6-.4-.6-.2-1.3-.3-1.9-.6-.3-.1-.7-.2-1-.4-.4-.1-.7-.3-1.1-.4-.4-.2-.7-.3-1.1-.5-.4-.2-.8-.4-1.1-.6-.7-.4-1.5-.8-2.3-1.4l-1.1-.8c-.4-.3-.7-.5-1.1-.8-.7-.5-1.4-1.1-2-1.7-3.1,.6-6.4,.9-9.7,.9-22.4,0-40.6-13.8-40.6-30.9,0-16.9,18.2-30.7,40.7-30.7Z"/>
  </g>
</svg>