<?xml version="1.0" encoding="utf-8"?>
<!-- Generator: Adobe Illustrator 26.3.1, SVG Export Plug-In . SVG Version: 6.00 Build 0)  -->
<svg version="1.1" id="Calque_1" xmlns="http://www.w3.org/2000/svg" xmlns:xlink="http://www.w3.org/1999/xlink" x="0px" y="0px"
	 viewBox="0 0 470 402.5" style="enable-background:new 0 0 470 402.5;" xml:space="preserve">
<style type="text/css">
	.st0{fill:#CED7EB;}
	.st1{fill:#8B9FC6;}
	.st2{fill:#586FA7;}
	.st3{fill:#475A83;}
	.st4{fill:#DD731C;}
	.st5{fill:#893063;}
</style>
<g id="Bg">
	<path class="st0" d="M72.8,394.1c0,0-61-123.6-28.3-220.2C143.1-118,447.2,33,418.8,192.5c-15.6,87.7,42.4,114,12.2,201.8
		C431,394.2,72.8,394.1,72.8,394.1z"/>
</g>
<g id="Object">
	<path class="st1" d="M435,346.7c-18-2.8-15,22.4-40.7,22.4c-23.4,0-30.9-95.9-48-68.5c-87.4,140.5-36.6-59.8-106.1-62.3
		c-31.4-1.2-52.4,33.9-60.1,95.9c-11.2,56.1-37.2-42.8-63.9-33.6c-17,5.8-15,68.4-38.5,68.4c-25.6,0-22.7-25.2-40.7-22.4
		c-19.4,3-25.1,47.5-25.1,47.5h448C460.1,394.2,454.3,349.7,435,346.7L435,346.7z"/>
	<g>
		<path class="st2" d="M179,321.9c2.2,4.1,7.7,5.3,12.4,2.8l3.1-1.7l-59.1-112.4l-3.6,1.9c-4.7,2.5-6.8,7.8-4.6,11.9l11.3,21.3
			l-17.9,9.5c-4.9-5.4-11.7-8.9-19.2-9.4l-19.3-1.3c-4.1-0.3-6.9,4.1-5,7.7l40.2,75.8c1.9,3.6,7.1,3.7,9.2,0.2l9.7-16.7
			c3.8-6.5,4.8-14.1,3-21.2l17.9-9.5L179,321.9L179,321.9z"/>
		<path class="st2" d="M361.3,370.7h0.2v-83.4h-0.2c-6.6,0-11.9,5.3-11.9,11.9v16.8h-32.7c-7,0-13.5-3.5-17.4-9.4l-19.1-29l74-39.3
			c4.7-2.5,6.8-7.8,4.6-11.9l-51.7-97.4c-2.1-4.1-7.7-5.3-12.4-2.8l-122.9,65.3l59.1,112.4l26.3-14l20.4,31
			c8.7,13.2,23.3,21.1,39.1,21.1h32.7v16.8C349.4,365.4,354.7,370.7,361.3,370.7L361.3,370.7z M311.6,192c3,5.7,0.9,12.8-4.8,15.8
			c-5.7,3-12.8,0.9-15.8-4.8c-3-5.7-0.9-12.8,4.8-15.8C301.5,184.2,308.5,186.3,311.6,192z M272,174.6c-4.1-7.6-1.2-17,6.4-21.1
			c7.6-4.1,17-1.2,21.1,6.4c4.1,7.6,1.2,17-6.3,21.1C285.5,185,276.1,182.1,272,174.6L272,174.6z"/>
		<polygon class="st3" points="147.9,204.2 207,316.5 230.9,303.9 171.8,191.5 		"/>
		<polygon class="st4" points="194.6,323.1 207,316.5 147.9,204.2 135.5,210.8 		"/>
		<path class="st3" d="M278.4,153.5c-7.6,4.1-10.4,13.5-6.4,21.1c4.1,7.6,13.5,10.4,21.1,6.3c7.6-4.1,10.4-13.5,6.3-21.1
			C295.3,152.3,285.9,149.4,278.4,153.5L278.4,153.5z"/>
		<path class="st5" d="M295.8,187.2c-5.7,3-7.8,10.1-4.8,15.8c3,5.7,10.1,7.8,15.8,4.8c5.7-3,7.8-10.1,4.8-15.8
			C308.5,186.3,301.4,184.2,295.8,187.2z"/>
	</g>
</g>
</svg>
