<?xml version="1.0" encoding="UTF-8"?>
<svg id="Calque_1" data-name="Calque 1" xmlns="http://www.w3.org/2000/svg" xmlns:xlink="http://www.w3.org/1999/xlink" viewBox="0 0 170.87 170.39">
  <defs>
    <style>
      .cls-1 {
        fill: #6988b5;
      }

      .cls-2 {
        fill: #ed6806;
      }

      .cls-3 {
        fill: #ef8bb8;
      }

      .cls-4 {
        fill: #fff;
      }

      .cls-5 {
        fill: #fd7403;
      }

      .cls-6 {
        fill: #a32c65;
      }

      .cls-7 {
        fill: #a0206f;
      }

      .cls-8 {
        fill: #d8609c;
      }

      .cls-9 {
        fill: #182947;
      }

      .cls-10 {
        fill: #87a3cc;
      }

      .cls-11 {
        fill: #2f3169;
      }

      .cls-12 {
        fill: url(#Dégradé_sans_nom);
      }

      .cls-13 {
        fill: url(#Dégradé_sans_nom_8);
      }

      .cls-14 {
        fill: url(#Dégradé_sans_nom_3);
      }

      .cls-15 {
        fill: url(#Dégradé_sans_nom_2);
      }

      .cls-16 {
        fill: url(#Dégradé_sans_nom_5);
      }

      .cls-17 {
        fill: url(#Dégradé_sans_nom_4);
      }

      .cls-18 {
        fill: url(#Dégradé_sans_nom_7);
      }

      .cls-19 {
        fill: url(#Dégradé_sans_nom_6);
      }
    </style>
    <linearGradient id="Dégradé_sans_nom" data-name="Dégradé sans nom" x1="186.48" y1="-25.93" x2="66" y2="102.32" gradientTransform="translate(0 171.56) scale(1 -1)" gradientUnits="userSpaceOnUse">
      <stop offset="0" stop-color="#dae3fe"/>
      <stop offset="1" stop-color="#e9effd"/>
    </linearGradient>
    <linearGradient id="Dégradé_sans_nom_2" data-name="Dégradé sans nom 2" x1="1889.93" y1="17.05" x2="1887.98" y2=".05" gradientTransform="translate(-1811.84 171.56) scale(1 -1)" gradientUnits="userSpaceOnUse">
      <stop offset="0" stop-color="#ff928e"/>
      <stop offset="1" stop-color="#feb3b1"/>
    </linearGradient>
    <linearGradient id="Dégradé_sans_nom_3" data-name="Dégradé sans nom 3" x1="1910.45" y1="14.87" x2="1908.63" y2="-1.03" gradientTransform="translate(-1811.84 171.56) scale(1 -1)" gradientUnits="userSpaceOnUse">
      <stop offset="0" stop-color="#ff928e"/>
      <stop offset="1" stop-color="#feb3b1"/>
    </linearGradient>
    <linearGradient id="Dégradé_sans_nom_4" data-name="Dégradé sans nom 4" x1="85.23" y1="130.49" x2="83.31" y2="114.7" gradientTransform="translate(0 171.56) scale(1 -1)" gradientUnits="userSpaceOnUse">
      <stop offset="0" stop-color="#ff928e"/>
      <stop offset="1" stop-color="#feb3b1"/>
    </linearGradient>
    <linearGradient id="Dégradé_sans_nom_5" data-name="Dégradé sans nom 5" x1="357.64" y1="1165.56" x2="360.11" y2="1142.9" gradientTransform="translate(275.32 1145.47) rotate(-28.87) scale(1 -1)" gradientUnits="userSpaceOnUse">
      <stop offset="0" stop-color="#ff928e"/>
      <stop offset="1" stop-color="#feb3b1"/>
    </linearGradient>
    <linearGradient id="Dégradé_sans_nom_6" data-name="Dégradé sans nom 6" x1="351.88" y1="1164.93" x2="354.35" y2="1142.27" gradientTransform="translate(275.32 1145.47) rotate(-28.87) scale(1 -1)" gradientUnits="userSpaceOnUse">
      <stop offset="0" stop-color="#ff928e"/>
      <stop offset="1" stop-color="#feb3b1"/>
    </linearGradient>
    <linearGradient id="Dégradé_sans_nom_7" data-name="Dégradé sans nom 7" x1="81.61" y1="80.23" x2="66.07" y2="66.95" gradientTransform="translate(0 171.56) scale(1 -1)" gradientUnits="userSpaceOnUse">
      <stop offset="0" stop-color="#ff928e"/>
      <stop offset="1" stop-color="#feb3b1"/>
    </linearGradient>
    <linearGradient id="Dégradé_sans_nom_8" data-name="Dégradé sans nom 8" x1="90.96" y1="79.51" x2="99.7" y2="70.77" gradientTransform="translate(0 171.56) scale(1 -1)" gradientUnits="userSpaceOnUse">
      <stop offset="0" stop-color="#ff928e"/>
      <stop offset="1" stop-color="#feb3b1"/>
    </linearGradient>
  </defs>
  <g id="Illustration">
    <g>
      <path class="cls-12" d="M150.31,146.03c-4.45,4.58-8.42,7.28-11.47,9.31-29.72,19.84-63.69,14.12-74.18,12.17-16.94-3.15-31.25-5.38-43.54-16.48C-6.81,125.8-5.45,73.17,15.88,40.58,18.42,36.71,39.72,5.13,73.76,.68c.83-.11,1.46-.17,2-.23,5.27-.56,37.9-3.5,64.51,18.8,3.81,3.19,9.94,8.94,15.62,17.72,20.8,32.1,20.86,81.81-5.57,109.06Z"/>
      <g>
        <path class="cls-1" d="M3.71,77.46c1.99,12.6,15.88,85.2,70.42,78.39,0,0,.28-51.23-69.34-79.7-.61-.25-1.21,.48-1.08,1.3Z"/>
        <path class="cls-4" d="M11.46,85.61s.62,1.28,1.77,3.49c.58,1.11,1.28,2.44,2.12,3.96,.83,1.52,1.79,3.23,2.86,5.08,1.06,1.85,2.25,3.84,3.53,5.93,1.28,2.08,2.66,4.27,4.13,6.5,1.46,2.24,3.03,4.51,4.64,6.8,.81,1.14,1.65,2.28,2.49,3.43,.86,1.13,1.7,2.28,2.59,3.39s1.75,2.25,2.67,3.33c.45,.54,.9,1.09,1.35,1.63,.45,.54,.92,1.06,1.38,1.6,.46,.53,.91,1.06,1.38,1.57,.47,.51,.94,1.02,1.39,1.52,.91,1.02,1.87,1.98,2.8,2.94,1.87,1.9,3.74,3.66,5.57,5.27,.45,.42,.91,.79,1.37,1.17,.45,.38,.91,.75,1.35,1.11,.43,.37,.89,.71,1.33,1.04s.87,.66,1.3,.98c.21,.16,.42,.32,.63,.48,.21,.15,.43,.29,.64,.43,.42,.29,.83,.56,1.23,.84,.4,.27,.78,.54,1.17,.78,.39,.23,.77,.46,1.14,.69,.37,.22,.72,.43,1.07,.64,.17,.1,.34,.21,.51,.31,.17,.09,.34,.18,.5,.26,.66,.34,1.27,.66,1.81,.94,.54,.3,1.05,.51,1.49,.7,.44,.19,.81,.35,1.11,.48,.61,.26,.92,.4,.92,.4l.04,.02c.34,.15,.49,.53,.34,.87s-.53,.49-.87,.34h0s-.33-.15-.95-.42c-.31-.14-.69-.31-1.14-.51-.45-.2-.97-.42-1.52-.73-.56-.29-1.17-.62-1.85-.99-.17-.09-.34-.18-.51-.28-.17-.1-.34-.21-.51-.32-.35-.21-.71-.43-1.09-.67-.37-.23-.76-.46-1.16-.71-.39-.25-.78-.53-1.19-.81s-.82-.57-1.24-.86c-.21-.15-.43-.29-.64-.45-.21-.16-.42-.32-.64-.49-.43-.33-.86-.67-1.31-1-.45-.34-.9-.69-1.34-1.07-.45-.37-.89-.75-1.35-1.14s-.93-.77-1.38-1.19c-1.84-1.65-3.72-3.44-5.59-5.38-.92-.97-1.88-1.95-2.8-2.99-.46-.51-.93-1.03-1.39-1.55-.46-.53-.91-1.06-1.37-1.6-.45-.54-.92-1.07-1.37-1.62-.45-.55-.89-1.1-1.35-1.66-.91-1.1-1.77-2.24-2.66-3.37-.88-1.13-1.71-2.29-2.57-3.43-.83-1.16-1.66-2.31-2.47-3.46-1.6-2.31-3.16-4.61-4.61-6.86-1.46-2.25-2.81-4.45-4.09-6.55-1.27-2.1-2.44-4.11-3.49-5.98-4.23-7.46-6.67-12.63-6.67-12.63-.07-.14,0-.31,.13-.37,.13-.07,.3,0,.37,.13Z"/>
      </g>
      <g>
        <path class="cls-10" d="M35.12,.78c.35-1.24,1.51-.84,2.41,.07,49.58,50.48,60.94,134.94,43.74,156.62,0,0-84.52-21.19-46.15-156.69Z"/>
        <path class="cls-4" d="M36.77,18.08s0,.13,.02,.38c.02,.24,.06,.6,.12,1.09,.1,.96,.29,2.37,.53,4.17,.24,1.79,.55,3.97,.95,6.46,.38,2.49,.87,5.29,1.39,8.35,.54,3.05,1.14,6.36,1.85,9.84,.69,3.49,1.49,7.15,2.33,10.93,.87,3.78,1.78,7.68,2.81,11.62,.26,.99,.51,1.98,.76,2.97,.27,.99,.54,1.98,.81,2.97,.53,1.99,1.12,3.97,1.69,5.96,.57,1.99,1.21,3.95,1.8,5.93,.62,1.96,1.25,3.92,1.88,5.85,.67,1.92,1.3,3.84,1.98,5.71,.34,.94,.69,1.87,1.02,2.79,.17,.46,.34,.92,.51,1.38,.18,.45,.35,.91,.53,1.36,.35,.9,.7,1.8,1.05,2.69,.17,.44,.35,.88,.52,1.32,.18,.43,.36,.87,.54,1.3,.73,1.71,1.38,3.42,2.13,5.04,.36,.81,.72,1.61,1.06,2.4,.18,.39,.35,.78,.52,1.17,.18,.39,.36,.76,.54,1.14,.73,1.51,1.4,2.97,2.1,4.36,.71,1.38,1.39,2.7,2.04,3.95,.67,1.25,1.33,2.41,1.93,3.51,.31,.55,.6,1.08,.89,1.6,.31,.5,.59,.99,.87,1.46,.56,.94,1.08,1.79,1.55,2.56,.46,.78,.93,1.43,1.31,2.03,.39,.59,.71,1.09,.98,1.49,.53,.81,.81,1.24,.81,1.24h0c.05,.08,.02,.18-.04,.23-.07,.05-.17,.03-.21-.04,0,0-.29-.43-.84-1.22-.54-.8-1.38-1.96-2.37-3.48-.48-.77-1.02-1.62-1.6-2.55-.29-.46-.59-.94-.91-1.44-.3-.51-.61-1.04-.92-1.58-.63-1.1-1.32-2.25-2.01-3.49-.67-1.25-1.36-2.57-2.09-3.95-.72-1.38-1.41-2.85-2.16-4.34-.18-.38-.37-.76-.56-1.14-.18-.39-.35-.78-.54-1.17-.36-.79-.73-1.58-1.1-2.4-1.47-3.25-2.92-6.72-4.33-10.35-.18-.45-.35-.91-.54-1.36-.17-.46-.34-.92-.51-1.38-.34-.92-.69-1.86-1.03-2.8-.69-1.88-1.33-3.8-2.01-5.73-.64-1.94-1.28-3.89-1.92-5.86-.3-.99-.61-1.98-.91-2.97s-.61-1.98-.89-2.98c-.57-1.99-1.16-3.98-1.68-5.98-.27-1-.54-1.99-.81-2.99-.26-1-.51-1.99-.76-2.97-1.02-3.95-1.92-7.87-2.77-11.66-.82-3.8-1.58-7.48-2.23-10.98-.67-3.5-1.24-6.82-1.76-9.88-1.02-6.13-1.69-11.27-2.12-14.87-.21-1.8-.35-3.22-.44-4.18-.05-.48-.07-.87-.09-1.12-.01-.25-.02-.38-.02-.38,0-.09,.06-.16,.15-.17,.09,0,.16,.06,.17,.15h0Z"/>
      </g>
      <g>
        <path class="cls-1" d="M166.61,82.25c-2.04,12.03-16.07,81.32-68.16,74.25,0,0,.26-49,67.14-75.51,.58-.23,1.15,.47,1.02,1.25Z"/>
        <path class="cls-4" d="M159.11,89.96s-.61,1.22-1.73,3.32c-.56,1.05-1.25,2.32-2.07,3.77-.81,1.45-1.74,3.07-2.79,4.83-1.04,1.76-2.2,3.65-3.44,5.63-1.25,1.98-2.59,4.06-4.02,6.17-1.42,2.12-2.94,4.28-4.51,6.45-.79,1.08-1.6,2.16-2.42,3.25-.84,1.07-1.65,2.16-2.51,3.21s-1.7,2.13-2.58,3.15c-.43,.52-.87,1.03-1.31,1.55-.44,.51-.89,1.01-1.33,1.51-.45,.5-.88,1-1.33,1.49-.45,.48-.91,.97-1.35,1.44-.89,.97-1.81,1.88-2.7,2.78-1.8,1.8-3.62,3.46-5.38,4.99-.43,.39-.88,.75-1.32,1.1-.44,.35-.87,.7-1.3,1.05-.42,.35-.86,.67-1.28,.99s-.84,.62-1.25,.92c-.2,.15-.4,.3-.61,.45-.2,.15-.41,.28-.61,.41-.4,.27-.8,.53-1.19,.79-.39,.25-.75,.51-1.13,.74-.38,.22-.74,.43-1.1,.64-.35,.21-.7,.41-1.03,.61-.17,.1-.33,.2-.49,.29-.17,.09-.32,.17-.48,.24-.64,.32-1.22,.62-1.74,.88-.52,.28-1.01,.48-1.43,.65s-.78,.33-1.07,.45c-.58,.24-.89,.38-.89,.38l-.04,.02c-.32,.13-.47,.51-.34,.83s.51,.47,.83,.34h0s.32-.13,.91-.4c.3-.13,.67-.29,1.1-.48,.43-.19,.94-.39,1.46-.69,.54-.28,1.13-.59,1.78-.92,.16-.09,.32-.17,.5-.26,.17-.1,.33-.2,.5-.3,.34-.2,.69-.41,1.05-.62,.36-.21,.73-.44,1.11-.67,.38-.23,.75-.5,1.14-.76s.79-.53,1.2-.81c.2-.14,.42-.28,.62-.42,.2-.15,.4-.31,.61-.46,.41-.31,.83-.62,1.26-.95,.43-.32,.87-.65,1.29-1.01,.43-.35,.86-.71,1.31-1.08,.44-.37,.9-.73,1.33-1.13,1.77-1.55,3.59-3.25,5.4-5.08,.9-.92,1.82-1.84,2.7-2.83,.45-.48,.9-.97,1.35-1.47,.45-.5,.88-1.01,1.33-1.51,.44-.51,.89-1.02,1.33-1.54,.43-.52,.87-1.05,1.3-1.57,.88-1.04,1.72-2.12,2.57-3.19s1.66-2.17,2.5-3.25c.81-1.1,1.62-2.19,2.4-3.29,1.56-2.2,3.07-4.37,4.47-6.52,1.42-2.14,2.74-4.23,3.98-6.22,1.23-2,2.37-3.9,3.4-5.68,4.12-7.09,6.51-12.02,6.51-12.02,.07-.13,.01-.29-.12-.36-.12-.04-.28,.01-.34,.14Z"/>
      </g>
      <g>
        <path class="cls-10" d="M134.41,4.09c-.32-1.25-1.48-.89-2.41,0-50.97,49.09-64.66,133.2-48.07,155.34,0,0,85.08-18.84,50.48-155.35Z"/>
        <path class="cls-4" d="M132.28,21.34s-.01,.13-.04,.38c-.04,.24-.07,.6-.15,1.08-.13,.96-.35,2.36-.64,4.15-.29,1.79-.66,3.95-1.13,6.43-.45,2.48-1.02,5.27-1.62,8.31-.63,3.04-1.32,6.33-2.13,9.79-.78,3.47-1.69,7.1-2.64,10.87-.97,3.76-1.99,7.63-3.13,11.54-.28,.98-.56,1.96-.85,2.94-.3,.98-.59,1.96-.89,2.95-.59,1.98-1.23,3.94-1.86,5.91-.62,1.97-1.32,3.92-1.96,5.87-.68,1.95-1.36,3.88-2.05,5.79-.72,1.9-1.41,3.8-2.14,5.65-.37,.92-.73,1.85-1.1,2.76-.18,.46-.36,.91-.54,1.36-.19,.45-.38,.9-.57,1.35-.38,.89-.75,1.77-1.13,2.66-.18,.44-.37,.87-.56,1.31-.2,.43-.39,.86-.58,1.28-.78,1.69-1.48,3.38-2.27,4.97-.39,.8-.76,1.59-1.13,2.37-.18,.39-.37,.78-.55,1.16-.2,.38-.39,.75-.58,1.13-.77,1.48-1.48,2.93-2.22,4.3-.75,1.36-1.46,2.66-2.15,3.9-.7,1.23-1.39,2.37-2.03,3.46-.32,.54-.63,1.06-.93,1.57-.32,.5-.62,.97-.92,1.43-.59,.92-1.13,1.76-1.62,2.52-.48,.76-.97,1.41-1.36,1.99-.4,.58-.74,1.07-1.02,1.47-.55,.8-.84,1.22-.84,1.22h0c-.05,.08-.03,.18,.04,.23s.17,.03,.22-.04c0,0,.31-.42,.88-1.2,.57-.79,1.43-1.92,2.47-3.41,.5-.75,1.06-1.59,1.67-2.5,.31-.45,.62-.93,.95-1.42,.31-.5,.63-1.02,.97-1.56,.65-1.08,1.38-2.21,2.1-3.44,.7-1.24,1.43-2.53,2.2-3.89,.75-1.36,1.49-2.8,2.28-4.28,.2-.37,.39-.75,.59-1.13,.19-.39,.38-.77,.57-1.16,.38-.78,.77-1.57,1.16-2.37,1.57-3.21,3.1-6.64,4.61-10.22,.19-.45,.38-.9,.58-1.35,.18-.45,.37-.91,.55-1.37,.37-.92,.74-1.84,1.11-2.77,.75-1.86,1.44-3.76,2.17-5.67,.7-1.92,1.39-3.85,2.08-5.8,.33-.98,.66-1.96,.99-2.94s.66-1.96,.97-2.96c.62-1.98,1.27-3.95,1.84-5.93,.29-.99,.59-1.98,.89-2.96,.28-.99,.56-1.97,.84-2.96,1.13-3.92,2.14-7.81,3.1-11.58,.92-3.77,1.79-7.43,2.54-10.91,.77-3.48,1.43-6.78,2.03-9.83,1.17-6.11,1.99-11.22,2.52-14.81,.26-1.79,.45-3.21,.56-4.17,.06-.48,.1-.86,.12-1.11,.02-.25,.03-.38,.03-.38,0-.09-.06-.17-.15-.17s-.16,.06-.17,.14h.02Z"/>
      </g>
      <g>
        <path class="cls-8" d="M8.02,43.3s10.19,38.2,37.13,29.07c26.94-9.13,14.73-40.59,10.58-48.4,0,0-6.98-24.31-31.78-16.25C5.84,13.61,3.67,26.98,8.02,43.3Z"/>
        <path class="cls-3" d="M26.87,19.7c-2.67-3.94-5.51-7.2-8.44-9.58C5.29,16.78,4,28.98,7.86,43.51c0,0,10.19,38.2,37.13,29.07,3.05-1.03,3.48-.81,5.6-2.36-9.01-15.15-14.13-36.37-23.73-50.53Z"/>
        <path class="cls-7" d="M52.52,50.77c1.07,3.34-2.51,11.92-9.61,14.19-7.09,2.28-15-2.61-16.07-5.95-1.07-3.34,5.97-1.17,13.06-3.45,7.09-2.28,11.56-8.13,12.63-4.79Z"/>
        <path class="cls-7" d="M19.87,44.33c-.26-1.28,1.41-4.3,4.12-4.86,2.71-.56,5.44,1.57,5.7,2.85s-2.25,.19-4.96,.75c-2.72,.55-4.6,2.53-4.86,1.26Z"/>
        <path class="cls-7" d="M40.28,39.14c-.8-1.03-.62-4.48,1.57-6.17,2.19-1.69,5.57-.98,6.37,.06s-1.94,1.16-4.13,2.85c-2.2,1.69-3.02,4.3-3.81,3.27Z"/>
      </g>
      <g>
        <path class="cls-8" d="M111.78,29.37s-11.25,36.67,15.61,43c26.86,6.34,32.98-25.83,33.57-34.38,0,0,6.75-23.59-17.79-29.7-17.93-4.46-26.58,5.43-31.39,21.08Z"/>
        <path class="cls-3" d="M137.16,43.79c4.34-10.1,6.5-18.04,6.72-28.2,.08-3.52-.58-7.2-.71-7.23-17.93-4.46-26.58,5.43-31.39,21.08,0,0-11.25,36.67,15.61,43,1.58,.37,7.04-22.3,9.77-28.66Z"/>
        <path class="cls-7" d="M142.96,64.68c.83-3.3-3.16-11.39-10.17-13.15-7.01-1.77-14.37,3.44-15.2,6.74-.83,3.3,5.85,.77,12.85,2.55,7.01,1.77,11.69,7.16,12.52,3.87Z"/>
        <path class="cls-7" d="M151.82,38.78c-.56,1.14-3.63,2.47-6.04,1.29-2.41-1.18-3.25-4.43-2.69-5.56,.56-1.14,1.84,1.19,4.26,2.37,2.41,1.17,5.04,.76,4.48,1.9Z"/>
        <path class="cls-7" d="M133.07,30.67c0,1.27-2.18,3.82-4.86,3.82s-4.86-2.55-4.86-3.81,2.18,.26,4.86,.25c2.69,0,4.86-1.52,4.86-.26Z"/>
      </g>
      <g>
        <path class="cls-6" d="M71.54,169.23c0-.07,0-.15,.02-.22,1.11-4.41,5.65-6.66,5.65-6.66l2.18,.17c1.25,3.88,2.07,5.78,1.87,6.83,0,.03-.01,.06-.02,.09-1.8,.17-5.51,.27-9.7-.21Z"/>
        <path class="cls-3" d="M81.24,169.43c-.1,.35-.36,.63-.69,.7-2.56,.54-6.64,.1-8.35-.12-.38-.05-.65-.4-.66-.8,4.2,.48,7.9,.38,9.7,.21Z"/>
        <path class="cls-15" d="M75.42,158.94l.95,4.61c.07,.34,.33,.59,.64,.62,.39,.04,.93,.06,1.48-.02,.5-.07,.84-.58,.75-1.11l-.67-4.09h-3.16Z"/>
        <path class="cls-3" d="M99.8,169.4c-2.33-.07-3.54-.34-4.17-.59,0,.23,0,.47,0,.71,0,.26,.2,.47,.44,.47l12.81-.09c.41,0,.65-.48,.47-.85-1.68,.14-5.95,.45-9.56,.35Z"/>
        <path class="cls-6" d="M109.37,169.05s-.03-.07-.05-.1c-1.13-1.58-4.01-4.73-9.71-6.09l-2.73-.09s-1.22,2.12-1.24,6.03c.62,.26,1.83,.53,4.17,.59,3.6,.1,7.88-.21,9.56-.35Z"/>
        <path class="cls-14" d="M96.38,158.63c.03,.2,.4,3.3,.55,4.5,.04,.29,.24,.51,.5,.54,.46,.06,1.22,.1,1.88-.03,.35-.07,.61-.42,.61-.81v-4.86l-3.54,.67Z"/>
        <path class="cls-11" d="M77.25,98.48s-4.37,38.85-1.95,63.13c0,0,2.91,0,4.37-.48,0,0,4.54-37.99,6.01-48.86,.06-.41,.64-.43,.72-.02,1.81,9.15,8.93,45.01,9.78,48.4,0,0,2.43,.97,4.37,0,0,0-3.89-51.97-6.8-61.2l-16.51-.97Z"/>
        <path class="cls-5" d="M68.5,53.31s18.45-2.91,33.03,.97l-.97,15.06s-3.89,20.88-6.8,30.11c0,0-11.17,1.95-16.51-.97,0,0-4.37-26.22-6.8-30.11,0,0-2.44-10.2-1.95-15.06Z"/>
        <path class="cls-17" d="M81.32,40.04l-1.84,12.43s5.14,2.36,8.73-.1l-.78-8.77-6.12-3.55Z"/>
        <g>
          <path class="cls-16" d="M89.24,31.94c.06,.1,1.17,6.38,1.85,10.25,.28,1.6-.9,3.1-2.52,3.19l-1.49,.09c-2.73,.16-5.15-1.79-5.56-4.49l-1.08-7.03s7.38-4.56,8.79-2.01Z"/>
          <path class="cls-9" d="M78.84,33.97c-.57-.71-1.07-1.85,.15-3.07,1.23-1.22,2.62-.92,3.51-.51,.39,.18,.87,.1,1.16-.23,.12-.15,.31-.24,.58-.21,.51,.06,.97-.28,1.03-.8,.1-.88,.58-1.92,2.14-2.22,2.86-.55,4.28,2.31,4.23,4.32-.05,2.01-3.19,2.44-4.96,2.1-1.3-.24-2.44,.9-2.94,1.53-.18,.23-.25,.53-.19,.81l.45,1.95c-.31,.61-.62,1.22-1.06,1.74-.32,.37-.66,.58-1.03,.66-.53-.99-2.03-1.16-2.72-1.18-.26,0-.51-.12-.69-.32-.52-.6-1.34-1.94,.23-3.25,.39-.33,.43-.92,.11-1.32Z"/>
          <path class="cls-19" d="M82.42,42.12s-.06-3.51-1.48-3.84c-1.42-.33-2.95,.7-1.74,2.8,1.51,2.61,3.22,1.04,3.22,1.04Z"/>
        </g>
        <path class="cls-2" d="M68.5,53.31s-28.65,31.08,5.1,42.98v-2.43s-12.63-10.68-2.91-25.26c0,0-1.21-13.84-2.18-15.3Z"/>
        <path class="cls-18" d="M73.84,94.1s4.37-2.91,6.31-1.95c1.95,.97,1.95,2.43,1.95,2.43,0,0-.97,1.95-2.43,1.46-1.46-.48-4.86,.48-6.31,0,0,0-.49-1.94,.48-1.94Z"/>
        <path class="cls-2" d="M101.53,54.28s29.87,30.11-3.89,42.01v-2.43s12.63-10.68,2.91-25.26c0,0-.97-11.89,.97-14.32Z"/>
        <path class="cls-13" d="M97.4,94.1s-4.37-2.91-6.31-1.95c-1.95,.97-1.95,2.43-1.95,2.43,0,0,.97,1.95,2.43,1.46,1.46-.48,4.86,.48,6.31,0,0,0,.49-1.94-.48-1.94Z"/>
      </g>
    </g>
  </g>
</svg>