<?xml version="1.0" encoding="utf-8"?>
<!-- Generator: Adobe Illustrator 26.3.1, SVG Export Plug-In . SVG Version: 6.00 Build 0)  -->
<svg version="1.1" id="Calque_1" xmlns="http://www.w3.org/2000/svg" xmlns:xlink="http://www.w3.org/1999/xlink" x="0px" y="0px"
	 viewBox="0 0 416.7 402.5" style="enable-background:new 0 0 416.7 402.5;" xml:space="preserve">
<style type="text/css">
	.st0{fill:#F1F3F6;}
	.st1{fill:#E0E0E0;}
	.st2{fill:#E6E6E6;}
	.st3{fill:#FFFFFF;}
	.st4{fill:#F5F5F5;}
	.st5{fill:#407BFF;}
	.st6{fill:#CED7EB;}
	.st7{fill:#586FA7;}
	.st8{opacity:0.3;fill:#FFFFFF;enable-background:new    ;}
	.st9{fill:#232D48;}
	.st10{fill:#263238;}
	.st11{opacity:0.2;enable-background:new    ;}
	.st12{fill:#8B9FC6;}
	.st13{opacity:0.6;}
	.st14{fill:#0F1727;}
	.st15{fill:#DD731C;}
	.st16{fill:#333467;}
	.st17{fill:#AD5850;}
	.st18{fill:#D587B2;}
	
		.st19{opacity:0.3;fill:none;stroke:#000000;stroke-width:0.25;stroke-linecap:round;stroke-linejoin:round;enable-background:new    ;}
	.st20{fill:#893063;}
	.st21{fill:#893D41;}
	
		.st22{opacity:0.2;fill:none;stroke:#000000;stroke-width:0.5;stroke-linecap:round;stroke-linejoin:round;enable-background:new    ;}
	.st23{opacity:0.2;}
</style>
<g id="Background_complete">
	<g>
		<g>
			<g>
				<path class="st0" d="M387.1,323.9H221.9c-3,0-5.4-2.4-5.4-5.4V78c0-3,2.4-5.4,5.4-5.4h165.2c3,0,5.4,2.4,5.4,5.4v240.6
					C392.4,321.5,390,323.9,387.1,323.9L387.1,323.9z M221.9,72.9c-2.8,0-5.1,2.3-5.1,5.1v240.6c0,2.8,2.3,5.1,5.1,5.1h165.2
					c2.8,0,5.1-2.3,5.1-5.1V78c0-2.8-2.3-5.1-5.1-5.1H221.9z"/>
				<path class="st0" d="M196.6,323.9H31.4c-3,0-5.4-2.4-5.4-5.4V78c0-3,2.4-5.4,5.4-5.4h165.2c3,0,5.4,2.4,5.4,5.4v240.6
					C202,321.5,199.6,323.9,196.6,323.9L196.6,323.9z M31.4,72.9c-2.8,0-5.1,2.3-5.1,5.1v240.6c0,2.8,2.3,5.1,5.1,5.1h165.2
					c2.8,0,5.1-2.3,5.1-5.1V78c0-2.8-2.3-5.1-5.1-5.1H31.4z"/>
			</g>
			<polygon class="st1" points="402.1,380 14.7,380 9.4,379.7 402.1,379.7 			"/>
		</g>
		<rect x="28.6" y="392.8" class="st1" width="14.7" height="0.2"/>
		<rect x="137.1" y="390.3" class="st1" width="48.9" height="0.2"/>
		<rect x="44.2" y="401.3" class="st1" width="33.1" height="0.2"/>
		<rect x="327.1" y="390.2" class="st1" width="39.5" height="0.2"/>
		<rect x="374.8" y="390.2" class="st1" width="5.8" height="0.2"/>
		<rect x="270.4" y="395.9" class="st1" width="49.2" height="0.2"/>
	</g>
	<g>
		<ellipse transform="matrix(0.7747 -0.6323 0.6323 0.7747 28.493 267.9967)" class="st0" cx="390.3" cy="94" rx="17.8" ry="17.8"/>
		<path class="st1" d="M380.7,84.8l8,9.2l1-0.6l-1.8,1.8l-2.5-2.7c0,0-1.6,3.3-3.1,2.8c-1.5-0.5,0.9-4.5,0.9-4.5l-4-4.2L380.7,84.8
			L380.7,84.8z"/>
		<path class="st1" d="M403.9,95.2l-12.2,0.2l-0.6-1l0.1,2.4h3.7c0,0-1.4,3.4,0,4.2s2.7-3.7,2.7-3.7l5.8,0.2L403.9,95.2L403.9,95.2z
			"/>
		<path class="st1" d="M381.7,101.5c0,0,3.1-2.9,6.1-1.8c3,1,3.1,6.3,3.1,6.3l-0.6,0.2c0,0-0.7-5.2-2.5-6c-1.9-0.8-5.8,2.2-5.8,2.2
			L381.7,101.5z"/>
		<path class="st1" d="M385.3,85.2l-0.3-0.6c0.6-0.3,1.6-0.9,1.7-1.5c0.1-0.6-0.6-1.5-1.1-2l0.5-0.5c0.2,0.2,1.6,1.5,1.3,2.7
			S385.5,85.1,385.3,85.2L385.3,85.2z"/>
		<path class="st1" d="M386.6,86.4c0.1-0.3,1.1-2.6,2.4-2.9c0.8-0.1,1.7,0.1,2.4,0.4l-0.3,0.6c-0.6-0.3-1.3-0.4-2-0.3
			c-0.7,0.1-1.5,1.5-1.8,2.4L386.6,86.4L386.6,86.4z"/>
		<path class="st1" d="M388.8,82.5c-0.2-0.1-0.4-0.2-0.6-0.3c-0.7-0.7-1.1-1.7-1.1-2.7l0.7,0c0,0.8,0.3,1.6,0.8,2.2
			c0.6,0.5,1.6,0.6,2.9,0.2l0.2,0.7C390.9,82.9,389.8,82.9,388.8,82.5L388.8,82.5z"/>
	</g>
	<g>
		<circle class="st0" cx="28.6" cy="145.5" r="19.2"/>
		<path class="st1" d="M14.9,141.1l12.2,5.2l0.7-1.1l-0.9,2.6l-3.7-1.5c0,0,0,4-1.7,4.2c-1.7,0.2-1.2-4.8-1.2-4.8l-5.9-2.2
			L14.9,141.1L14.9,141.1z"/>
		<path class="st1" d="M42.3,140.3l-11.8,5.8l-1-0.7l1.2,2.3l3.6-1.7c0,0,0.3,4,1.9,4.1c1.7,0.1,0.9-4.9,0.9-4.9l5.8-2.5L42.3,140.3
			z"/>
		<path class="st1" d="M23.7,156.8c0,0,1.7-4.3,5.1-4.7s6,4.7,6,4.7l-0.5,0.5c0,0-3.1-4.7-5.3-4.6c-2.2,0.1-4.6,4.9-4.6,4.9
			L23.7,156.8L23.7,156.8z"/>
		<path class="st1" d="M19.5,139.3l-0.6-0.5c0.4-0.5,1.1-1.6,1-2.2c-0.1-0.6-1.3-1.2-2-1.4l0.2-0.7c0.2,0.1,2.3,0.8,2.6,2
			C21,137.6,19.7,139.1,19.5,139.3L19.5,139.3z"/>
		<path class="st1" d="M21.4,139.8c0-0.3-0.2-3.1,1-3.9c0.8-0.5,1.7-0.7,2.6-0.7v0.8c-0.7,0-1.5,0.2-2.1,0.6
			c-0.6,0.4-0.7,2.2-0.7,3.2C22.2,139.7,21.4,139.8,21.4,139.8z"/>
		<path class="st1" d="M21.7,135c-0.2,0-0.5,0-0.7-0.1c-1.1-0.3-1.9-1.1-2.3-2.2l0.7-0.3c0.3,0.8,1,1.4,1.8,1.7
			c0.8,0.2,1.8-0.2,2.9-1.2l0.5,0.6C23.9,134.4,22.8,134.9,21.7,135L21.7,135z"/>
	</g>
	<g>
		<path class="st0" d="M345,7.8c-0.7-0.5-1.4-1-2.1-1.5l0,0c-11-6.6-25.3-3.1-31.9,7.9c-2.7,4.4-3.8,9.6-3.2,14.8
			c0.1,1,0.3,2,0.6,2.9c3.1,12.5,15.7,20.1,28.2,17.1c12.5-3.1,20.1-15.7,17.1-28.2c-0.7-2.6-1.8-5.2-3.3-7.4
			C348.9,11.3,347.1,9.4,345,7.8L345,7.8z"/>
		<path class="st1" d="M330.6,19.1c0,0-0.7-3.8,1.5-5.4c2.8-2.1,6.1,0.5,6.1,0.5l-1.1,0.8c0,0-2.7-1.9-4.4-0.6
			c-2,1.7-1.3,4.5-1.3,4.5L330.6,19.1L330.6,19.1z"/>
		<path class="st1" d="M323.1,23.8c0,0-3.5-1.7-5.6-0.1c-2.8,2.1-1.2,6-1.2,6l1.1-0.8c0,0-1.1-3.2,0.7-4.3c2.2-1.4,4.7,0,4.7,0
			L323.1,23.8L323.1,23.8z"/>
		<path class="st2" d="M318.1,34.3c0,0,15.2-7.1,23.8-16.1c0,0,8.3,14.2-4.2,21.1C325.3,46.1,318.1,34.3,318.1,34.3L318.1,34.3z"/>
		<path class="st3" d="M318.5,34.1c0,0,14.7-7,23.1-15.4c0,0,0.4,1.8,0.2,2.4c-0.4,0.6-0.8,1.1-1.3,1.6c0.1,0.3,0.1,0.5,0,0.8
			c-0.6,1.2-4.2,3.3-4.2,3.3s0.1,0.3,0.1,0.5c-0.4,1.1-2.6,2.8-3.8,2.8c-0.4-0.1-0.7-0.3-1-0.5c0,0,0.3,0.8,0.2,1.1
			c-0.3,0.8-2.2,1.8-3.1,1.8c-0.3-0.1-0.7-0.2-0.9-0.4c0,0-2.2,1.8-3.1,1.9c-0.4-0.1-0.7-0.2-1.1-0.4c0,0-2.5,1.9-3.5,1.8
			C319.5,35.2,318.5,34.1,318.5,34.1L318.5,34.1z"/>
		<path class="st1" d="M328.6,41.4c0,0,1.7-3.7,6.5-7c5.2-3.5,9.2-3.2,9.2-3.2s-0.1,4.2-6.2,8.5C333.5,42.8,328.5,41.4,328.6,41.4
			L328.6,41.4z"/>
	</g>
	<g>
		<path class="st0" d="M183.7,26.1c-0.2-0.6-0.4-1.2-0.6-1.7l0,0c-3.6-8.3-13.3-12.1-21.6-8.5c-3.3,1.4-6.1,4-7.9,7.2
			c-0.3,0.6-0.6,1.3-0.9,1.9c-3.3,8.4,0.8,18,9.2,21.3c8.4,3.3,18-0.8,21.3-9.2c0.7-1.8,1.1-3.7,1.2-5.6
			C184.5,29.6,184.2,27.8,183.7,26.1z"/>
		<path class="st1" d="M170.9,26.6c0,0,1.2-2.5,3.1-2.5c2.5-0.1,3.3,2.8,3.3,2.8h-1c0,0-0.8-2.2-2.3-2.1c-1.8,0.1-2.6,2-2.6,2
			L170.9,26.6L170.9,26.6z"/>
		<path class="st1" d="M164.6,26.3c0,0-1.3-2.4-3.2-2.4c-2.5,0.1-3.2,3-3.2,3h1c0,0,0.7-2.3,2.2-2.2c1.8,0.1,2.7,1.9,2.7,1.9
			L164.6,26.3L164.6,26.3z"/>
		<path class="st2" d="M157.4,30.3c0,0,11.6,2.1,20.2,0.5c0,0-1.1,11.5-11,10.4C156.7,39.9,157.4,30.3,157.4,30.3z"/>
		<path class="st3" d="M157.7,30.3c0,0,11.3,2,19.5,0.6c0,0-0.5,1.2-0.9,1.4c-0.5,0.2-0.9,0.3-1.4,0.4c-0.1,0.2-0.2,0.3-0.3,0.4
			c-0.8,0.4-3.8,0.2-3.8,0.2s0,0.2-0.2,0.3c-0.7,0.5-2.6,0.5-3.3,0c-0.2-0.2-0.3-0.5-0.4-0.7c0,0-0.2,0.6-0.3,0.7
			c-0.5,0.4-2,0.1-2.5-0.3c-0.2-0.2-0.3-0.4-0.4-0.6c0,0-2,0.1-2.5-0.2c-0.2-0.2-0.4-0.4-0.5-0.6c0,0-2.2,0-2.7-0.4
			C157.8,31.3,157.7,30.2,157.7,30.3L157.7,30.3z"/>
		<path class="st1" d="M160.6,38.6c0,0,2.5-1.5,6.6-1.3c4.4,0.1,6.6,1.9,6.6,1.9s-1.8,2.4-7,2.3C162.8,41.4,160.5,38.5,160.6,38.6
			L160.6,38.6z"/>
	</g>
	<g>
		<path class="st0" d="M376,322.2c0.1-0.6,0.1-1.2,0.1-1.8l0,0c-0.2-9-7.7-16.3-16.7-16.1c-3.6,0.1-7.2,1.4-10,3.7
			c-0.5,0.4-1.1,0.9-1.5,1.4c-6.3,6.5-6.1,16.9,0.4,23.2c6.5,6.3,16.9,6.1,23.2-0.4c1.3-1.4,2.4-3,3.2-4.7
			C375.4,325.8,375.9,324,376,322.2L376,322.2z"/>
		<path class="st1" d="M363.9,317.8c0,0,2-1.8,3.8-1.2c2.3,0.9,2,3.8,2,3.8l-0.9-0.4c0,0,0.1-2.4-1.3-2.8c-1.8-0.6-3.2,0.9-3.2,0.9
			L363.9,317.8z"/>
		<path class="st1" d="M358.3,315.1c0,0-0.3-2.7-2.1-3.4c-2.3-0.9-4,1.5-4,1.5l0.9,0.4c0,0,1.5-1.8,2.8-1.2c1.7,0.8,1.8,2.8,1.8,2.8
			L358.3,315.1z"/>
		<path class="st2" d="M350.1,316.1c0,0,9.9,6.4,18.5,8.2c0,0-5.4,10.3-14.1,5.4C345.8,324.8,350.1,316.1,350.1,316.1z"/>
		<path class="st3" d="M350.4,316.2c0,0,9.7,6.2,17.8,8c0,0-0.9,0.9-1.3,1c-0.5,0-1-0.1-1.5-0.2c-0.1,0.1-0.3,0.2-0.5,0.3
			c-0.9,0.1-3.6-1.2-3.6-1.2s-0.1,0.2-0.3,0.2c-0.8,0.2-2.6-0.5-3.1-1.2c-0.1-0.3-0.1-0.5-0.1-0.8c0,0-0.4,0.5-0.6,0.5
			c-0.6,0.1-1.9-0.7-2.2-1.2c-0.1-0.2-0.1-0.5-0.1-0.7c0,0-1.9-0.6-2.3-1.1c-0.1-0.2-0.2-0.5-0.2-0.8c0,0-2.1-0.8-2.4-1.4
			C350.1,317.2,350.4,316.2,350.4,316.2L350.4,316.2z"/>
		<path class="st1" d="M349.9,324.9c0,0,2.9-0.4,6.6,1.3c4,1.8,5.4,4.3,5.4,4.3s-2.5,1.5-7.4-0.5
			C350.9,328.4,349.9,324.9,349.9,324.9L349.9,324.9z"/>
	</g>
	<g>
		<path class="st0" d="M408.1,206.6c-0.2-0.6-0.4-1.2-0.6-1.7l0,0c-3.6-8.3-13.3-12.1-21.6-8.5c-3.3,1.4-6.1,4-7.9,7.2
			c-0.3,0.6-0.6,1.3-0.9,1.9c-3.3,8.4,0.8,18,9.2,21.3c8.4,3.3,18-0.8,21.3-9.2c0.7-1.8,1.1-3.7,1.2-5.6
			C408.9,210.2,408.7,208.4,408.1,206.6z"/>
		<path class="st1" d="M395.3,207.2c0,0,1.2-2.5,3.1-2.5c2.5-0.1,3.3,2.8,3.3,2.8h-1c0,0-0.8-2.2-2.3-2.1c-1.8,0.1-2.6,2-2.6,2
			L395.3,207.2L395.3,207.2z"/>
		<path class="st1" d="M389,206.8c0,0-1.3-2.4-3.2-2.4c-2.5,0.1-3.2,3-3.2,3h1c0,0,0.7-2.3,2.2-2.2c1.8,0.1,2.7,1.9,2.7,1.9
			L389,206.8L389,206.8z"/>
		<path class="st2" d="M381.8,210.8c0,0,11.6,2.1,20.2,0.5c0,0-1.1,11.5-11,10.4C381.1,220.5,381.8,210.8,381.8,210.8z"/>
		<path class="st3" d="M382.1,210.8c0,0,11.3,2,19.5,0.6c0,0-0.5,1.2-0.9,1.4c-0.5,0.2-0.9,0.3-1.4,0.4c-0.1,0.2-0.2,0.3-0.3,0.4
			c-0.8,0.4-3.8,0.2-3.8,0.2s0,0.2-0.2,0.3c-0.7,0.5-2.6,0.5-3.3,0c-0.2-0.2-0.3-0.5-0.4-0.7c0,0-0.2,0.6-0.3,0.7
			c-0.5,0.4-2,0.1-2.5-0.3c-0.2-0.2-0.3-0.4-0.4-0.6c0,0-2,0.1-2.5-0.2c-0.2-0.2-0.4-0.4-0.5-0.6c0,0-2.2,0-2.7-0.4
			C382.2,211.9,382.1,210.8,382.1,210.8L382.1,210.8z"/>
		<path class="st1" d="M385,219.1c0,0,2.5-1.5,6.6-1.3c4.4,0.1,6.6,1.9,6.6,1.9s-1.8,2.4-7,2.3C387.2,221.9,384.9,219.1,385,219.1
			L385,219.1z"/>
	</g>
</g>
<g id="Shadow">
	<path class="st4" d="M396.2,387.3c0,3.1-85.5,5.6-190.9,5.6s-190.9-2.5-190.9-5.6s85.5-5.6,190.9-5.6S396.2,384.2,396.2,387.3z"/>
</g>
<g id="Screen">
	<g>
		<g>
			<path class="st5" d="M82.3,75v168.7c0,4.9,4,8.9,8.9,8.9h264c1.9,0,3.4-1.5,3.4-3.4V73.9c0-2.5-2-4.5-4.5-4.5H88
				C84.9,69.4,82.3,71.9,82.3,75z"/>
			<path class="st6" d="M82.3,75v168.7c0,4.9,4,8.9,10,8.9h264c0.8,0,2.3-1.5,2.3-3.3V73.9c0-2.5-2-4.5-4.5-4.5H88
				C84.9,69.4,82.3,71.9,82.3,75z"/>
			<path class="st7" d="M92.1,69.4h258.8c4.3,0,7.8,3.5,7.8,7.8v6.9H82.3v-5C82.3,73.7,86.7,69.4,92.1,69.4z"/>
			<path class="st8" d="M355,76.7c0,1.7-1.4,3.1-3.1,3.1s-3.1-1.4-3.1-3.1c0-1.7,1.4-3.1,3.1-3.1S355,75,355,76.7z"/>
			<path class="st8" d="M346.1,76.7c0,1.7-1.4,3.1-3.1,3.1s-3.1-1.4-3.1-3.1c0-1.7,1.4-3.1,3.1-3.1S346.1,75,346.1,76.7z"/>
			<circle class="st8" cx="334.1" cy="76.7" r="3.1"/>
		</g>
		<g>
			<g>
				<circle class="st7" cx="122.7" cy="119" r="13.7"/>
				<path class="st3" d="M126.5,115.9c0,2.1-1.7,3.8-3.8,3.8c-2.1,0-3.8-1.7-3.8-3.8s1.7-3.8,3.8-3.8
					C124.8,112.2,126.5,113.9,126.5,115.9z"/>
				<path class="st3" d="M115.7,125c0,0,13.8-0.1,13.7,0c-0.1,0.1-1.2-4.6-6.8-4.6C116.8,120.4,116,125.1,115.7,125z"/>
			</g>
			<rect x="141.2" y="113.5" class="st7" width="46.5" height="3.8"/>
			<polyline class="st9" points="261,123.9 261,127.7 141.2,127.7 141.2,123.9 			"/>
		</g>
		<g>
			<g>
				<circle class="st7" cx="122.7" cy="155.7" r="13.7"/>
				<path class="st3" d="M126.5,152.7c0,2.1-1.7,3.8-3.8,3.8c-2.1,0-3.8-1.7-3.8-3.8s1.7-3.8,3.8-3.8
					C124.8,148.9,126.5,150.6,126.5,152.7z"/>
				<path class="st3" d="M115.7,161.8c0,0,13.8-0.1,13.7,0c-0.1,0.1-1.2-4.6-6.8-4.6C116.8,157.1,116,161.8,115.7,161.8z"/>
			</g>
			<rect x="141.2" y="150.2" class="st7" width="46.5" height="3.8"/>
			<rect x="141.2" y="160.6" class="st9" width="150.1" height="3.8"/>
		</g>
		<g>
			<g>
				<circle class="st7" cx="122.7" cy="193.6" r="13.7"/>
				<path class="st3" d="M126.5,190.6c0,2.1-1.7,3.8-3.8,3.8c-2.1,0-3.8-1.7-3.8-3.8s1.7-3.8,3.8-3.8
					C124.8,186.8,126.5,188.5,126.5,190.6z"/>
				<path class="st3" d="M115.7,199.7c0,0,13.8-0.1,13.7,0c-0.1,0.1-1.2-4.6-6.8-4.6C116.8,195,116,199.7,115.7,199.7z"/>
			</g>
			<rect x="141.2" y="188.1" class="st7" width="46.5" height="3.8"/>
			<rect x="141.2" y="198.5" class="st9" width="150.1" height="3.8"/>
			<rect x="141.2" y="212.3" class="st9" width="150.1" height="3.8"/>
		</g>
		<g>
			<path class="st9" d="M279.7,118.4c1,0.5,1.8,1.3,2.4,2.2c0.6,1,0.8,2,0.8,3.2c0,1.2-0.2,2.2-0.7,2.9c-0.5,0.7-1.2,1-2,1
				c-0.5,0-0.8-0.1-1.2-0.3s-0.5-0.5-0.7-0.9c-0.6,0.8-1.4,1.2-2.6,1.2c-0.6,0-1.2-0.2-1.8-0.5c-0.5-0.3-0.9-0.7-1.2-1.3
				c-0.3-0.6-0.4-1.2-0.4-1.9c0-0.7,0.1-1.3,0.4-1.9c0.3-0.5,0.7-1,1.2-1.3s1.1-0.5,1.8-0.5c0.5,0,1,0.1,1.4,0.3
				c0.4,0.2,0.7,0.4,1,0.8v-0.9h1.6v4.9c0,0.3,0.1,0.6,0.2,0.7s0.3,0.2,0.5,0.2c0.4,0,0.7-0.2,0.9-0.7c0.2-0.4,0.3-1.1,0.3-1.9
				c0-1-0.2-1.9-0.7-2.7c-0.5-0.8-1.1-1.4-1.9-1.8c-0.8-0.4-1.8-0.6-2.9-0.6s-2,0.2-2.9,0.7c-0.8,0.5-1.5,1.1-1.9,1.9
				c-0.5,0.8-0.7,1.7-0.7,2.8s0.2,2,0.7,2.8c0.5,0.8,1.1,1.4,1.9,1.9c0.8,0.5,1.8,0.7,2.9,0.7c0.5,0,0.9-0.1,1.4-0.2
				c0.5-0.1,0.9-0.3,1.3-0.5l0.4,1.1c-0.4,0.2-0.9,0.4-1.5,0.5c-0.6,0.1-1.1,0.2-1.7,0.2c-1.3,0-2.5-0.3-3.5-0.8
				c-1-0.6-1.8-1.3-2.4-2.3c-0.6-1-0.8-2.1-0.8-3.4c0-1.2,0.3-2.3,0.9-3.3c0.6-1,1.4-1.8,2.4-2.3c1-0.6,2.2-0.8,3.6-0.8
				S278.7,117.9,279.7,118.4L279.7,118.4z M277.6,125.8c0.4-0.4,0.6-1,0.6-1.6s-0.2-1.2-0.6-1.6c-0.4-0.4-0.9-0.6-1.5-0.6
				c-0.6,0-1.1,0.2-1.5,0.6c-0.4,0.4-0.6,0.9-0.6,1.6s0.2,1.2,0.6,1.6c0.4,0.4,0.9,0.6,1.5,0.6C276.7,126.4,277.2,126.2,277.6,125.8
				L277.6,125.8z"/>
			<path class="st9" d="M291,124h1.9v1.3h-2.1l-0.3,2.4h-1.3l0.3-2.4h-2.4l-0.3,2.4h-1.3l0.3-2.4h-1.9V124h2.1l0.3-2.5h-1.9v-1.3
				h2.1l0.3-2.4h1.3l-0.3,2.4h2.4l0.3-2.4h1.3l-0.3,2.4h1.9v1.3h-2.1L291,124L291,124z M289.7,124l0.3-2.5h-2.4l-0.3,2.5H289.7
				L289.7,124z"/>
			<path class="st9" d="M301.3,126.8c-0.6,0.5-1.4,0.9-2.5,1v1.6h-1.2v-1.6c-0.7,0-1.4-0.2-2-0.4c-0.6-0.2-1.1-0.5-1.5-0.8l0.6-1.4
				c0.4,0.3,0.8,0.5,1.3,0.7c0.5,0.2,1,0.3,1.6,0.4v-2.9c-0.7-0.2-1.2-0.3-1.7-0.5c-0.5-0.2-0.8-0.5-1.1-0.9
				c-0.3-0.4-0.5-0.9-0.5-1.5c0-0.8,0.3-1.4,0.8-2c0.6-0.5,1.4-0.9,2.4-1V116h1.2v1.6c0.5,0,1.1,0.1,1.6,0.3s1,0.4,1.3,0.6l-0.6,1.4
				c-0.7-0.4-1.5-0.7-2.3-0.8v2.9c0.7,0.2,1.3,0.3,1.7,0.5c0.5,0.2,0.8,0.5,1.1,0.8c0.3,0.4,0.5,0.9,0.5,1.5
				C302.2,125.6,301.9,126.2,301.3,126.8L301.3,126.8z M296.6,121.2c0.2,0.2,0.6,0.4,1.1,0.5v-2.5c-0.5,0.1-0.8,0.2-1.1,0.5
				c-0.2,0.2-0.4,0.5-0.4,0.8C296.3,120.8,296.4,121,296.6,121.2L296.6,121.2z M300,125.8c0.2-0.2,0.4-0.5,0.4-0.8s-0.1-0.6-0.4-0.8
				c-0.3-0.2-0.6-0.4-1.1-0.5v2.5C299.4,126.1,299.8,126,300,125.8L300,125.8z"/>
			<path class="st9" d="M303.8,122.3c-0.4-0.5-0.7-1.2-0.7-2s0.2-1.5,0.7-2c0.4-0.5,1-0.8,1.7-0.8s1.3,0.3,1.7,0.7
				c0.4,0.5,0.7,1.2,0.7,2c0,0.8-0.2,1.5-0.7,2c-0.4,0.5-1,0.7-1.7,0.7S304.2,122.8,303.8,122.3L303.8,122.3z M306.5,121.6
				c0.2-0.3,0.3-0.7,0.3-1.3c0-0.5-0.1-1-0.3-1.3c-0.2-0.3-0.5-0.5-0.9-0.5c-0.4,0-0.7,0.2-0.9,0.5c-0.2,0.3-0.3,0.7-0.3,1.3
				c0,0.5,0.1,1,0.3,1.3c0.2,0.3,0.5,0.5,0.9,0.5C305.9,122.1,306.3,121.9,306.5,121.6z M311.6,117.7h1.4l-6.8,10h-1.4L311.6,117.7z
				 M310.4,127c-0.4-0.5-0.7-1.2-0.7-2s0.2-1.5,0.7-2c0.4-0.5,1-0.8,1.7-0.8c0.7,0,1.3,0.3,1.7,0.8c0.4,0.5,0.7,1.2,0.7,2
				s-0.2,1.5-0.7,2c-0.4,0.5-1,0.8-1.7,0.8C311.4,127.8,310.8,127.5,310.4,127z M313,126.3c0.2-0.3,0.3-0.7,0.3-1.3s-0.1-1-0.3-1.3
				c-0.2-0.3-0.5-0.5-0.9-0.5c-0.4,0-0.7,0.2-0.9,0.5s-0.3,0.7-0.3,1.3s0.1,1,0.3,1.3s0.5,0.5,0.9,0.5
				C312.5,126.8,312.8,126.6,313,126.3z"/>
			<path class="st9" d="M316.2,127.5c-0.2-0.2-0.3-0.5-0.3-0.8s0.1-0.6,0.3-0.8c0.2-0.2,0.5-0.3,0.8-0.3s0.6,0.1,0.8,0.3
				c0.2,0.2,0.3,0.5,0.3,0.8s-0.1,0.6-0.3,0.8c-0.2,0.2-0.5,0.3-0.8,0.3S316.4,127.7,316.2,127.5z M315.9,117.7h2.1l-0.4,6.7h-1.4
				L315.9,117.7z"/>
		</g>
		<g>
			<path class="st10" d="M148.9,168.5v7.5h-1.4v-3.2h-3.9v3.2h-1.4v-7.5h1.4v3.1h3.9v-3.1H148.9z"/>
			<path class="st10" d="M155.8,174.2H152l-0.7,1.7h-1.4l3.4-7.5h1.4l3.4,7.5h-1.5L155.8,174.2L155.8,174.2z M155.3,173.1l-1.4-3.3
				l-1.4,3.3C152.5,173.1,155.3,173.1,155.3,173.1z"/>
			<path class="st10" d="M168.5,168.5v7.5h-1.4v-3.2h-3.9v3.2h-1.4v-7.5h1.4v3.1h3.9v-3.1H168.5z"/>
			<path class="st10" d="M175.4,174.2h-3.7l-0.7,1.7h-1.4l3.4-7.5h1.4l3.4,7.5h-1.5L175.4,174.2L175.4,174.2z M174.9,173.1l-1.4-3.3
				l-1.4,3.3C172.1,173.1,174.9,173.1,174.9,173.1z"/>
			<path class="st10" d="M188.2,168.5v7.5h-1.4v-3.2h-3.9v3.2h-1.4v-7.5h1.4v3.1h3.9v-3.1H188.2z"/>
			<path class="st10" d="M195,174.2h-3.7l-0.7,1.7h-1.4l3.4-7.5h1.4l3.4,7.5h-1.5L195,174.2L195,174.2z M194.6,173.1l-1.4-3.3
				l-1.4,3.3C191.7,173.1,194.6,173.1,194.6,173.1z"/>
			<path class="st10" d="M198.1,175.8c-0.2-0.2-0.2-0.4-0.2-0.6c0-0.2,0.1-0.4,0.2-0.6c0.2-0.2,0.4-0.2,0.6-0.2
				c0.2,0,0.4,0.1,0.6,0.2s0.2,0.4,0.2,0.6c0,0.2-0.1,0.4-0.2,0.6s-0.4,0.2-0.6,0.2C198.4,176,198.2,176,198.1,175.8z M197.9,168.5
				h1.6l-0.3,5h-1.1C198.1,173.5,197.9,168.5,197.9,168.5z"/>
		</g>
		<rect x="295.5" y="160.6" class="st9" width="25" height="3.8"/>
		<rect x="295.5" y="198.5" class="st10" width="10.8" height="3.8"/>
		<path class="st11" d="M224.4,69.4c0,0,4.3,27.2,42.1,27.3c30.1,0,37.5-27.3,37.5-27.3H224.4L224.4,69.4z"/>
	</g>
	<path class="st11" d="M336.2,174.7c0,0,1,5.4,6.4,7.6c5.4,2.2,8.8,2.2,8.8,2.2s-2.9,12.5,7.2,13.9v-26.8L336.2,174.7L336.2,174.7z"
		/>
	<path class="st11" d="M83.2,130.6c0,0,19-10.2,34.1-27.5s10.5-33.8,10.5-33.8l-45.4,0.9C82.4,70.3,83.2,130.6,83.2,130.6z"/>
</g>
<g id="Speech_Bubbles">
	<g>
		<path class="st5" d="M83.1,261.3c-4-18,7.3-35.8,25.3-39.8c18-4,35.8,7.3,39.8,25.3c3.1,13.9-3,27.6-14.2,35l-1.4,9.9l-9.1-5.3
			c-0.2,0-0.4,0.1-0.5,0.1C104.9,290.6,87.1,279.2,83.1,261.3L83.1,261.3z"/>
		<path class="st12" d="M83.1,261.3c-4-18,7.3-35.8,25.3-39.8c18-4,35.8,7.3,39.8,25.3c3.1,13.9-3,27.6-14.2,35l-1.4,9.9l-9.1-5.3
			c-0.2,0-0.4,0.1-0.5,0.1C104.9,290.6,87.1,279.2,83.1,261.3L83.1,261.3z"/>
		<path class="st0" d="M116.3,272.2c-1.3,0-2.3-0.4-3.1-1.2c-0.8-0.8-1.3-1.8-1.3-3c0-1.2,0.4-2.1,1.2-2.9s1.9-1.2,3.2-1.2
			s2.3,0.4,3.2,1.2c0.8,0.8,1.2,1.7,1.2,2.9c0,1.2-0.4,2.1-1.3,3C118.6,271.8,117.6,272.2,116.3,272.2z M119.2,260.7h-5.7l-1.4-21
			h8.5C120.6,239.7,119.2,260.7,119.2,260.7z"/>
	</g>
	<g>
		<path class="st7" d="M36,306.3c-11.6-10.4-12.5-28.3-2.1-39.9c10.4-11.6,28.3-12.5,39.9-2.1c8.9,8.1,11.5,20.5,7.4,31.1l3.9,7.5
			l-8.9,0.8c-0.1,0.1-0.2,0.2-0.3,0.4C65.4,315.8,47.5,316.7,36,306.3L36,306.3z"/>
		<g>
			
				<rect x="52" y="273.6" transform="matrix(0.688 -0.7257 0.7257 0.688 -190.3285 128.8886)" class="st0" width="5.4" height="24.3"/>
			
				<rect x="42.6" y="283.1" transform="matrix(0.688 -0.7257 0.7257 0.688 -190.3215 128.888)" class="st0" width="24.3" height="5.4"/>
		</g>
	</g>
	<g>
		<g>
			<path class="st5" d="M60.2,368.3c-12.5,0.8-23.2-8.7-23.9-21.2c-0.8-12.5,8.7-23.2,21.2-23.9c9.6-0.6,18.2,4.9,22,13.2l6.5,2
				l-4.5,5.6c0,0.1,0,0.2,0,0.4C82.1,356.8,72.6,367.5,60.2,368.3L60.2,368.3z"/>
			<g class="st13">
				<path class="st12" d="M60.2,368.3c-12.5,0.8-23.2-8.7-23.9-21.2c-0.8-12.5,8.7-23.2,21.2-23.9c9.6-0.6,18.2,4.9,22,13.2l6.5,2
					l-4.5,5.6c0,0.1,0,0.2,0,0.4C82.1,356.8,72.6,367.5,60.2,368.3L60.2,368.3z"/>
			</g>
		</g>
		<g>
			<path class="st0" d="M58.4,351.5c-0.4-0.1-3.3-3.7-3.3-3.7s0.9-2.1,1.7-4.3c-0.4-1-0.9-1.9-1.4-2.4c-1.1-1.3-2.1-2.3-3.6-2.8
				c-2-0.6-4-0.6-5.8,0.9c-1.7,1.4-2,4-1.5,6.1c0.5,2.2,1.9,4.4,3.3,6c2.9,3.3,5.4,5.8,8.8,7.6C57.6,355.4,58.6,351.5,58.4,351.5
				L58.4,351.5z"/>
			<path class="st0" d="M70.1,339.1c-1.8-1.5-3.9-1.5-5.8-0.9c-1.5,0.5-2.5,1.5-3.6,2.8c-0.5,0.6-1,1.5-1.5,2.6c0,0,0-0.1-0.1-0.1
				c-0.8,2.1-1.7,4.3-1.7,4.3s3,3.6,3.3,3.7c0.2,0.1-0.8,3.9-1.8,7.5c0.1,0,0.2,0.1,0.3,0.1c4.4-2.5,6.1-4.4,9.1-7.8
				c1.4-1.6,2.8-3.8,3.3-6C72.1,343.1,71.8,340.5,70.1,339.1L70.1,339.1z"/>
		</g>
	</g>
</g>
<g id="Emoji">
	<g>
		<circle class="st7" cx="70.1" cy="71" r="47.5"/>
		<path class="st14" d="M36.2,60L66.3,73l1.8-2.6l-2.2,6.5l-9.2-3.7c0,0-0.1,9.9-4.3,10.3c-4.2,0.5-3-11.9-3-11.9l-14.5-5.4L36.2,60
			L36.2,60z"/>
		<path class="st14" d="M104,58.1L74.9,72.6l-2.6-1.8l3,5.7l8.9-4.2c0,0,0.6,9.8,4.8,10.1c4.2,0.2,2.3-12,2.3-12l14.2-6.2L104,58.1z
			"/>
		<path class="st14" d="M58,98.9c0,0,4.1-10.5,12.6-11.5c8.5-1,14.7,11.5,14.7,11.5l-1.3,1.2c0,0-7.6-11.7-13.1-11.4
			c-5.4,0.2-11.4,12.1-11.4,12.1L58,98.9L58,98.9z"/>
		<path class="st14" d="M47.7,55.5l-1.5-1.2c1.1-1.4,2.7-4.1,2.4-5.5c-0.3-1.5-3.3-2.9-5-3.4l0.6-1.8c0.6,0.2,5.6,1.9,6.3,4.8
			C51.1,51.4,48,55.1,47.7,55.5L47.7,55.5z"/>
		<path class="st14" d="M52.2,56.8c0-0.8-0.5-7.6,2.5-9.6c1.9-1.2,4.1-1.8,6.4-1.8v1.9c-1.9,0-3.7,0.5-5.2,1.5
			c-1.5,1.1-1.8,5.3-1.6,7.9C54.2,56.7,52.2,56.8,52.2,56.8z"/>
		<path class="st14" d="M53.1,45c-0.6,0-1.2-0.1-1.8-0.2c-2.6-0.9-4.7-2.8-5.8-5.3l1.8-0.7c0.8,2,2.4,3.5,4.5,4.2
			c2.1,0.5,4.5-0.5,7.2-2.9l1.3,1.4C58.4,43.5,55.9,44.7,53.1,45L53.1,45z"/>
	</g>
	<g>
		<circle class="st7" cx="382" cy="272.9" r="20.9"/>
		<path class="st9" d="M368.6,264.8l11.6,8.5l1-1l-1.6,2.6l-3.6-2.5c0,0-1,4.2-2.9,4c-1.8-0.2-0.1-5.4-0.1-5.4l-5.7-3.8L368.6,264.8
			L368.6,264.8z"/>
		<path class="st9" d="M397.8,270.8l-13.9,3.3l-0.9-1l0.7,2.7l4.2-0.9c0,0-0.7,4.3,1.1,4.8c1.8,0.5,2.2-4.9,2.2-4.9l6.7-1.2
			L397.8,270.8L397.8,270.8z"/>
		<path class="st9" d="M374,283.6c0,0,2.8-4.1,6.5-3.7c3.7,0.4,5.1,6.4,5.1,6.4l-0.7,0.4c0,0-2.1-5.8-4.4-6.2c-2.3-0.4-6.1,4-6.1,4
			L374,283.6L374,283.6z"/>
		<path class="st9" d="M374,264l-0.5-0.7c0.6-0.5,1.6-1.5,1.6-2.1c0-0.7-1.1-1.6-1.8-2l0.4-0.7c0.2,0.1,2.2,1.4,2.2,2.7
			C375.9,262.6,374.2,263.9,374,264L374,264z"/>
		<path class="st9" d="M375.8,265c0.1-0.3,0.5-3.3,2-3.9c0.9-0.3,1.9-0.4,2.9-0.1l-0.2,0.8c-0.8-0.2-1.6-0.1-2.4,0.1
			c-0.8,0.3-1.3,2.1-1.5,3.2L375.8,265L375.8,265z"/>
		<path class="st9" d="M377.4,260.1c-0.3-0.1-0.5-0.1-0.7-0.3c-1-0.6-1.7-1.7-1.9-2.9l0.8-0.1c0.2,0.9,0.7,1.7,1.5,2.3
			c0.8,0.4,2,0.2,3.4-0.5l0.4,0.7C379.8,260,378.6,260.2,377.4,260.1L377.4,260.1z"/>
	</g>
	<g>
		<path class="st5" d="M297,41.2c-0.4-1.4-0.9-2.7-1.5-4.1l0,0C287,17.4,264,8.3,244.3,16.9c-7.9,3.4-14.5,9.4-18.7,17.1
			c-0.8,1.5-1.5,3-2.1,4.5c-8,20,1.8,42.7,21.8,50.7c20,8,42.7-1.8,50.7-21.8c1.7-4.2,2.6-8.8,2.7-13.3
			C298.9,49.7,298.3,45.4,297,41.2L297,41.2z"/>
		<path class="st15" d="M297,41.2c-0.4-1.4-0.9-2.7-1.5-4.1l0,0C287,17.4,264,8.3,244.3,16.9c-7.9,3.4-14.5,9.4-18.7,17.1
			c-0.8,1.5-1.5,3-2.1,4.5c-8,20,1.8,42.7,21.8,50.7c20,8,42.7-1.8,50.7-21.8c1.7-4.2,2.6-8.8,2.7-13.3
			C298.9,49.7,298.3,45.4,297,41.2L297,41.2z"/>
		<path class="st14" d="M266.5,42.6c0,0,2.8-5.8,7.3-6c5.8-0.1,7.8,6.7,7.8,6.7h-2.3c0,0-1.9-5.3-5.4-5c-4.4,0.4-6.2,4.9-6.2,4.9
			L266.5,42.6L266.5,42.6z"/>
		<path class="st14" d="M251.6,41.7c0,0-3-5.7-7.6-5.6c-5.8,0.1-7.5,7-7.5,7h2.3c0,0,1.6-5.4,5.2-5.2c4.4,0.1,6.4,4.6,6.4,4.6
			L251.6,41.7L251.6,41.7z"/>
		<path class="st14" d="M234.5,51.2c0,0,27.7,5.1,48.2,1.3c0,0-2.6,27.5-26.2,24.6C232.8,74.2,234.6,51.2,234.5,51.2L234.5,51.2z"/>
		<path class="st0" d="M235.2,51.2c0,0,26.9,4.8,46.5,1.4c0,0-1.2,2.9-2,3.4c-1.1,0.4-2.2,0.7-3.4,0.9c-0.2,0.4-0.4,0.8-0.8,1
			c-1.9,1.1-9,0.5-9,0.5s-0.1,0.6-0.4,0.7c-1.6,1.1-6.3,1.3-7.8,0.1c-0.4-0.5-0.7-1.1-0.9-1.7c0,0-0.4,1.5-0.7,1.7
			c-1.2,0.9-4.8,0.2-6-0.6c-0.4-0.4-0.7-0.9-0.9-1.5c0,0-4.7,0.3-6-0.4c-0.5-0.4-0.8-1-1.1-1.5c0,0-5.2,0.1-6.5-1
			C235.5,53.7,235.2,51.2,235.2,51.2L235.2,51.2z"/>
		<path class="st0" d="M242,70.9c0,0,6-3.5,15.7-3.2c10.5,0.3,15.7,4.5,15.7,4.5s-4.2,5.6-16.7,5.5C247.3,77.8,242,70.9,242,70.9z"
			/>
	</g>
	<g>
		<path class="st5" d="M68.8,184.6c-0.3-0.6-0.7-1.2-1.2-1.8l0,0c-6.3-8.4-18.2-10-26.6-3.7c-3.4,2.5-5.8,6.1-6.9,10.2
			c-0.2,0.8-0.4,1.6-0.5,2.4c-1.5,10.4,5.7,20,16.1,21.5s20-5.7,21.5-16.1c0.3-2.2,0.2-4.4-0.2-6.6
			C70.6,188.4,69.9,186.4,68.8,184.6L68.8,184.6z"/>
		<path class="st15" d="M68.8,184.6c-0.3-0.6-0.7-1.2-1.2-1.8l0,0c-6.3-8.4-18.2-10-26.6-3.7c-3.4,2.5-5.8,6.1-6.9,10.2
			c-0.2,0.8-0.4,1.6-0.5,2.4c-1.5,10.4,5.7,20,16.1,21.5s20-5.7,21.5-16.1c0.3-2.2,0.2-4.4-0.2-6.6
			C70.6,188.4,69.9,186.4,68.8,184.6L68.8,184.6z"/>
		<path class="st14" d="M54.5,188.7c0,0,0.6-3.1,2.8-3.7c2.8-0.7,4.5,2.3,4.5,2.3l-1.1,0.3c0,0-1.5-2.3-3.1-1.7c-2,0.7-2.4,3-2.4,3
			L54.5,188.7L54.5,188.7z"/>
		<path class="st14" d="M47.4,190c0,0-2.1-2.4-4.2-1.8c-2.7,0.7-2.7,4.2-2.7,4.2l1.1-0.3c0,0,0.2-2.7,1.8-3.1
			c2.1-0.4,3.6,1.4,3.6,1.4L47.4,190L47.4,190z"/>
		<path class="st14" d="M40.4,196.5c0,0,13.7-0.8,22.9-4.9c0,0,1.9,13.3-9.6,14.7S40.4,196.5,40.4,196.5z"/>
		<path class="st0" d="M40.7,196.4c0,0,13.3-0.8,22.1-4.6c0,0-0.2,1.5-0.6,1.9c-0.5,0.3-1,0.6-1.5,0.8c0,0.2-0.1,0.4-0.3,0.6
			c-0.8,0.7-4.2,1.3-4.2,1.3s0,0.3-0.1,0.4c-0.6,0.7-2.8,1.3-3.7,0.9c-0.2-0.2-0.5-0.4-0.6-0.7c0,0,0,0.7-0.2,0.9
			c-0.5,0.6-2.2,0.7-2.9,0.4c-0.2-0.1-0.4-0.4-0.6-0.6c0,0-2.2,0.7-2.9,0.5c-0.3-0.2-0.5-0.4-0.7-0.6c0,0-2.5,0.6-3.2,0.3
			C41.1,197.6,40.7,196.4,40.7,196.4L40.7,196.4z"/>
		<path class="st0" d="M46.2,205c0,0,2.4-2.3,7.1-3.3c5-1.1,8,0.3,8,0.3s-1.4,3.1-7.3,4.5C49.5,207.6,46.2,205,46.2,205L46.2,205z"
			/>
	</g>
</g>
<g id="Icon">
	<g>
		<g id="freepik--Icon--inject-53">
			<path class="st7" d="M385.3,165.6l-8.7-30.3l-5.2,0.7l0,0c-2,0.1-13.6,1-21,1.5c-9,0.7-16,8.1-16.2,17.1l-0.3,14.5
				c-0.1,4.3,3.2,7.9,7.5,8.1l2.5,0.1c2.6,0.1,5.1-0.2,7.6-0.9l7-2c-1.9,3.1-4.7,9.3-2.7,16.6c1.2,4.1,5.7,2.8,5.7,2.8
				s5.5-18,19.2-25.7L385.3,165.6L385.3,165.6z"/>
		</g>
		<path class="st5" d="M376,131.1l19.7-4.4c1.5-0.3,3.1,0.6,3.4,2.2l7.8,34.9c0.3,1.5-0.6,3.1-2.2,3.4l-19.7,4.4
			c-1.5,0.3-3.1-0.6-3.4-2.2l-7.8-34.9C373.5,133,374.4,131.5,376,131.1z"/>
		<path class="st16" d="M376,131.1l19.7-4.4c1.5-0.3,3.1,0.6,3.4,2.2l7.8,34.9c0.3,1.5-0.6,3.1-2.2,3.4l-19.7,4.4
			c-1.5,0.3-3.1-0.6-3.4-2.2l-7.8-34.9C373.5,133,374.4,131.5,376,131.1z"/>
	</g>
</g>
<g id="Character">
	<g>
		<path class="st9" d="M347.8,232.2c-2.4-1.8-5.7-2.1-8.8-2.7c-11.7-2.3-20.8-10.2-27.4-19.1s-11-19.1-16.8-28.5
			c-2.6-4.3-5.6-8.5-10.1-11.1c-4.5-2.6-16.1-5.1-19.4,6.1l5.6,14.8c0.1,8,3.3,15.4,7,22.3c3.7,6.9-5.7-2.4-3.2,5.1
			c1.5,4.5,9.4,24.2,11,28.7c1.6,4.4,10.6,9.7,14.8,12.4c5.2,3.3,12.3,3.4,18.8,2.2c8.4-1.6,16.5-5.3,23.2-10.5
			c3.3-2.6,6.3-5.6,7.6-9.3C351.5,238.8,350.8,234.4,347.8,232.2L347.8,232.2z"/>
		<polygon class="st17" points="200.2,239.9 197,255.4 216.2,259 216.2,247.5 		"/>
		<path class="st18" d="M246.2,270.1c-2.2-0.3-10.6,1.6-19.9,16.8c-9.5,15.7-11.5,17.4-11.5,17.4l3.5-46.3l-24.6-5.4
			c-0.8,0.3-16.7,65.7-10.6,76.9c6.1,11.2,17,21.6,34,15.4c9.5-3.5,35.5-34.3,35.5-34.3L246.2,270.1L246.2,270.1z"/>
		<g>
			<path class="st17" d="M213.1,250.8c0,0,6.6,0.5,10.8-3.1c4.2-3.6,6.9-6.6,9.8-9.5c2.9-2.9-2.6-2.5-5.5-1.7
				c-2.9,0.8-4.7,2.9-4.9,0.6c-0.3-2.3,7.5-20.4,6.8-23.5c-0.7-3.1-2.9-0.6-2.9-0.6s1.8-4.4,0.2-5.6c-0.4-0.3-1.9-0.4-3,1.5
				c-2.5,4.3-7.4,13.5-7.4,13.5c0.3-0.5,5.5-12.4,6-14.3c0.7-2.4-0.2-4-1.6-4.3c-2-0.5-9,14-9.7,14.4c0,0,4.3-8.2,2.7-10.4
				c-1.5-2.3-4.5,2.8-6.2,7.7c-1.6,4.5-6,12.9-7.2,17.7c-1.5,5.8-1.2,10.1,3.2,13.6C208.6,250.3,213.1,250.8,213.1,250.8
				L213.1,250.8z"/>
			<path class="st19" d="M227.2,213.1c-1.5,3.5-3.3,7.6-5.1,11"/>
		</g>
		<g id="freepik--Character--inject-37">
			<path class="st11" d="M208.7,226c0.4,2.6,2.1,5.7,3.1,8.2c1.9,4.5,6.9,11.4,10.6,14.6c0.7-1-0.7-4.9,0.1-5.9
				c1.6-2,3.2-3.9,4.8-5.6L216,220.9c-1.4,1.1-7.2-4.8-8.5-3.6C206.7,218.1,207.9,222.4,208.7,226z"/>
			<path class="st18" d="M369.8,381.7c-11.9-29.6-19.3-50.2-27.8-105c-2.1-13.5-14.6-22.3-27.5-21.2c-3.7,0.3-15.9-1.2-37.1,3.9
				c-15.5,3.7-32.9,10.7-32.9,10.7s-13.7,34.4,0.6,67.5c6.5,14.9,25.8,22.1,21.7,43.9L369.8,381.7L369.8,381.7z"/>
		</g>
		<g>
			<g>
				<path class="st20" d="M265.1,175.7c4.2-0.8,8.4,1.2,11.5,4.2c2,2,3.6,4.5,4.1,7.2c0.5,2.8-0.1,5.8-2,7.9
					c-1.9,2.1-5.2,2.9-7.7,1.6c-2.3-1.2-3.5-3.7-4-6.2c-0.4-2.5-0.2-5.1-0.3-7.6c-0.1-2.5-0.6-5.2-2.3-7.2"/>
				<path class="st17" d="M294.8,256.5c0,0-2.9,13.2-9.6,25.8c-1.4,2.6-3.1,5.1-5.1,7.3c-5.3,6.1-8.5,6.3-11.3,3.7
					c-0.6-0.6-2.2-2.3-2.7-3c-3.4-4.8-6.8-7.4-3.8-12.5c3.4-5.8,4.5-10,1.6-14.9c-1.6-2.8-3.9-5.5-6.3-8l2.1-6l12.3-28
					C276.6,234.7,281.4,253.2,294.8,256.5L294.8,256.5z"/>
				<path class="st11" d="M264.3,264c4.3-5.4,8.2-13.4,4.9-19.6c-1.4-2.6-3-5-4.2-6.4l-5.5,19.2C261.3,259.2,262.2,260.7,264.3,264z
					"/>
				<path class="st17" d="M269.2,197.1c6,21.4,9,30.3,2.5,45.2c-9.8,22.4-36.6,26.4-48.6,7.5c-10.9-17-18.9-49.1-1.9-65.5
					C237.9,168.1,263.2,175.7,269.2,197.1L269.2,197.1z"/>
				<path class="st14" d="M243.1,214.3c1.1,1.8,1,3.9-0.2,4.7c-1.2,0.8-3,0.1-4.1-1.7s-1-3.9,0.2-4.7
					C240.2,211.7,242,212.5,243.1,214.3z"/>
				<path class="st14" d="M223.1,222.2c1,1.7,0.8,3.8-0.4,4.6s-3,0.1-4-1.7c-1-1.7-0.8-3.8,0.4-4.6S222.1,220.4,223.1,222.2z"/>
				<path class="st14" d="M237,203.8c0.2-0.1,0.5-0.2,0.8-0.1c4.4,1.5,7.4-1.1,7.5-1.1c0.5-0.4,1.1-0.3,1.5,0.1
					c0.4,0.5,0.3,1.2-0.2,1.6c-0.2,0.1-4,3.4-9.4,1.5c-0.5-0.2-0.8-0.8-0.6-1.4C236.6,204.2,236.8,204,237,203.8L237,203.8z"/>
				<path class="st14" d="M222.5,210.3c0.3,0,0.5,0.1,0.7,0.2c0.4,0.4,0.4,1.1,0,1.5c-4.1,4.6-9,4.1-9.2,4.1c-0.6-0.1-1-0.6-0.9-1.2
					c0.1-0.6,0.7-1,1.3-1c0.2,0,4,0.4,7.3-3.3C222,210.4,222.3,210.3,222.5,210.3L222.5,210.3z"/>
				<path class="st10" d="M265.4,213.4c0,0-10-7.2-14.6-26.9c-0.8-3.3-3.9-5.5-7.2-4.9c-9.6,1.7-25.8-5-31.8,22.9
					c0,0-3.5-31.2,41.4-34.1c28.8-1.9,26.8,35.8,24.3,40.4C274.9,215.2,265.4,213.4,265.4,213.4z"/>
				<path class="st17" d="M281.9,211.5c-0.8,5.2-3.8,9.3-7,11.7c-4.9,3.5-11.1-4.2-11.3-10.4c-0.2-5.6,3.9-10.9,9.6-11.9
					C278.8,199.9,282.9,205.6,281.9,211.5L281.9,211.5z"/>
				<path class="st21" d="M229.8,218.6c0,0-0.3,9-2.1,15.2c-0.3,1.1,0.5,2.2,1.7,2.1c2.9,0,5.6-2,5.6-2L229.8,218.6z"/>
			</g>
			<path class="st10" d="M239.4,212.3l-4.9,1.9C234.5,214.2,238.9,215.7,239.4,212.3z"/>
			<path class="st10" d="M219.6,220.2l-4.9,1.8C214.7,222,219.1,223.7,219.6,220.2z"/>
			<path class="st9" d="M247.5,170.9c-22.7-5.2-37.6,12.4-37.6,12.4c-16.8,20.8,0.8,38.3,0.8,38.3c12.1-13.8,18.3-19.7,29.6-33.6
				c-1.3,6.7,7.4,12.2,15.9,15.3s7.6,6.3,7.6,6.3C273.7,184.2,270.3,176.1,247.5,170.9L247.5,170.9z"/>
			<path class="st22" d="M275.7,206c-1.5-0.5-3.2,0.2-4.1,1.5c-1,1.2-1.3,2.8-1.3,4.4c0,1.9,0.6,3.7,1.6,5.3"/>
		</g>
		<path class="st21" d="M256.7,198.5c-0.6,1.2-6.8,13.9-3.7,27c1.3,5.5,2.8,9.1,2.8,9.1l21.7,2.4l-1.6-4.4l4.6-16.3
			c-2-1.3-0.7-7.1-1.3-13.6c-1.3-1.5-8.9-4.6-9.5-4.2C269.1,199,256.7,198.6,256.7,198.5L256.7,198.5z"/>
		<g>
			<path class="st17" d="M273.3,233.4c0,0,6.4-1.8,9.1-6.6c2.7-4.8,4.2-8.6,6-12.3c1.7-3.7-3.3-1.4-5.8,0.3
				c-2.4,1.8-3.4,4.3-4.4,2.3c-1-2,0.1-21.7-1.6-24.4s-2.9,0.4-2.9,0.4s0.1-4.8-1.7-5.4c-0.5-0.1-1.9,0.3-2.3,2.5
				c-0.9,4.9-2.3,15.2-2.3,15.2c0.1-0.6,0.9-13.5,0.8-15.4c-0.2-2.5-1.5-3.7-3-3.5c-2.1,0.2-3.7,16.2-4.2,16.8c0,0,1.2-9.1-1-10.8
				c-2.2-1.6-3.3,4.1-3.3,9.3c0,4.8-1.2,14.2-0.7,19.1c0.6,6,2.3,9.9,7.7,11.7C268.8,234.4,273.2,233.3,273.3,233.4L273.3,233.4z"/>
			<path class="st19" d="M273.6,193.1c-0.2,3.8-0.5,8.3-1.1,12.1"/>
		</g>
		<polygon class="st17" points="257.4,240 258.5,226 276.2,228.5 276.3,243.3 		"/>
		<path class="st20" d="M250.7,267.8c0,0-10,46.6,1.4,52.9c2.3,1.2,9.5,4.5,17,3.3c30.6-5,61-23.1,65-33.8
			c0.7-1.9-69.2,10.6-69.2,10.6L250.7,267.8z"/>
		<path class="st18" d="M330.9,259.9c-9.5-7.1-51.1,19.1-51.1,19.1l-1.2-43.2l-22.3-2.7c-0.9,1.3-11.4,61.1-5,74.3
			c6.4,13.2,54.4-0.2,75.4-6.8C347.6,294,346.6,271.7,330.9,259.9z"/>
		<path class="st14" d="M239.2,241.8c1.9-4,6.3-6.7,10.7-6.5"/>
		<path class="st20" d="M279.5,279c0,0,18.4-16.5,32.7-17.2L279.5,279z"/>
		<path class="st18" d="M279.5,279c0,0-0.4,13-5.2,16.4c0,0,4.9-1.7,7.2-7.5c2.4-5.8,1.7-11,1.7-11L279.5,279L279.5,279z"/>
		<g class="st23">
			<path d="M243.5,242c1.3,0.1,2.6-0.6,3.2-1.7c0.2,0.3,0.4,0.6,0.5,0.9c0.1,0.3,0.1,0.7,0,1c-0.2,0.3-0.6,0.5-0.9,0.7
				c-0.9,0.3-1.9,0.2-2.7-0.2"/>
		</g>
		<g class="st23">
			<path d="M223.4,228.4c-1,0.9-2.6,1.2-3.9,0.6c0,0,0.9,1.8,2.6,1.4C223.7,230,223.4,228.4,223.4,228.4z"/>
		</g>
		<g class="st23">
			<path d="M246.5,217.6c-0.7,1.8-2.3,3.3-4.1,3.9c0,0,2.2,1.3,3.8-1.1C246.9,219.4,246.5,217.6,246.5,217.6z"/>
		</g>
		<path class="st20" d="M240.7,324c0,0,0.7-12.6,0-24.4c0,0-7.1,15.7-5.8,30.5L240.7,324z"/>
		<path class="st20" d="M214.9,304.2c0,0,0.1,12.5-3.5,16.5c0,0,7.2-8.2,5.9-19.6L214.9,304.2L214.9,304.2z"/>
	</g>
</g>
<g id="Device">
	<g>
		<g>
			<path class="st10" d="M116.6,380.6l-29.3-63c-1.1-2.3,0.6-5,3.1-5h89.4c1.3,0,2.6,0.8,3.1,2.1l27.7,63c1,2.3-0.6,5-3.1,5h-87.8
				C118.4,382.6,117.2,381.8,116.6,380.6z"/>
			<path class="st9" d="M116.6,380.6l-29.3-63c-1.1-2.3,0.6-5,3.1-5h89.4c1.3,0,2.6,0.8,3.1,2.1l27.7,63c1,2.3-0.6,5-3.1,5h-87.8
				C118.4,382.6,117.2,381.8,116.6,380.6z"/>
			<path class="st10" d="M265.2,382.6h-144c-2,0-3.7-1.6-3.7-3.7l0,0c0-2,1.6-3.7,3.7-3.7h144c2,0,3.7,1.6,3.7,3.7l0,0
				C268.8,380.9,267.2,382.6,265.2,382.6z"/>
			<path class="st9" d="M265.2,382.6h-144c-2,0-3.7-1.6-3.7-3.7l0,0c0-2,1.6-3.7,3.7-3.7h144c2,0,3.7,1.6,3.7,3.7l0,0
				C268.8,380.9,267.2,382.6,265.2,382.6z"/>
		</g>
		<path class="st0" d="M149.3,344.5c2,2.5,1.8,6.1-0.4,8c-2.2,1.9-5.6,1.3-7.6-1.2c-2-2.5-1.8-6.1,0.4-8
			C143.8,341.4,147.2,342,149.3,344.5z"/>
	</g>
</g>
</svg>
