<?xml version="1.0" encoding="UTF-8"?>
<svg id="_Слой_1" data-name="Слой 1" xmlns="http://www.w3.org/2000/svg" viewBox="0 0 571.52 333.81">
  <defs>
    <style>
      .cls-1 {
        fill: #f99746;
      }

      .cls-2 {
        fill: #ed975d;
      }

      .cls-3 {
        fill: #ebf3ff;
      }

      .cls-4 {
        fill: #ed7d2b;
      }

      .cls-5 {
        fill: #ea92c8;
      }

      .cls-6 {
        fill: #fff;
      }

      .cls-7 {
        fill: #f4dfea;
      }

      .cls-8 {
        fill: #ffb27d;
      }

      .cls-9 {
        fill: #73a2e5;
      }

      .cls-10 {
        fill: #c33070;
      }

      .cls-11 {
        fill: #dfebfd;
      }

      .cls-12 {
        fill: #d4e4f8;
      }

      .cls-13 {
        fill: #233862;
      }

      .cls-14 {
        fill: #1b3051;
      }

      .cls-15 {
        fill: #0f2549;
      }

      .cls-16 {
        fill: #182d4f;
      }

      .cls-17 {
        fill: #9abfe2;
      }

      .cls-18 {
        fill: #87a3cc;
      }

      .cls-19 {
        fill: #821252;
      }

      .cls-20 {
        fill: #2b478b;
      }
    </style>
  </defs>
  <path class="cls-7" d="M45.17,333.62S-24.76,249.39,9.4,162.65c22.27-56.54,105.84-87.5,153.02-56.54,20.09,13.18,84.53,.44,118.94-54.17,66.87-106.15,300.24-41.67,257.74,121.29-20.57,78.87,62.57,81.72,20.21,160.57l-514.15-.19Z"/>
  <g>
    <g>
      <path class="cls-18" d="M96.94,194.97s-7.05-8.23-.44-13.45c0,0,4.82-2.93,8.78-2.68,0,0-5.59,9.36-3.78,10.29s5.47-10.88,5.47-10.88c0,0,11-1.06,14.53,.64,0,0-9.4,7.69-7.42,8.15s12.14-7.09,12.14-7.09c0,0,10.23,1.75,9.69,7.98-.54,6.24-4.08,8.17-5.61,8.01-1.56-.17-10.63-3.64-10.81-2.35s5.26,5.43,9.09,5.61c0,0-7.22,7.96-12.02,5.66-4.8-2.29-5.2-5.95-8.19-7.3-2.99-1.37-5.55-1.37-4.3,.02,1.23,1.39,6.65,2.74,8.36,5.78,1.71,3.02,3.24,5.07-1.73,4.33-4.97-.75-13.04-4.39-13.39-8.55l-.35-4.18Z"/>
      <g>
        <path class="cls-18" d="M130.9,188.09s-27.8-1.08-33.96,6.88c0,0-1.35,4.08-5.53,7.78l-.64,1.77s4.82-5.07,6.55-5.39c-.02,0-2.72-9.86,33.58-11.04Z"/>
        <path class="cls-18" d="M91.39,202.75s-5.97,4.41-6.38,12.31l1.08,.1s1.91-8.15,5.34-11.35-.04-1.06-.04-1.06Z"/>
      </g>
    </g>
    <g>
      <path class="cls-18" d="M72.28,184.61s11.23-6.28,5.99-14.81c0,0-4.18-5.24-8.67-6.59,0,0,2.39,12.73,0,13.02s-1.64-14.37-1.64-14.37c0,0-11.81-5.68-16.45-5.24,0,0,7.34,12.41,4.93,12.12-2.39-.29-10.63-12.87-10.63-12.87,0,0-12.12-2.25-14.06,4.93-1.95,7.17,1.21,10.77,2.99,11.23s13.31,.29,13.02,1.79c-.29,1.5-8.07,3.89-12.41,2.54,0,0,4.78,11.81,11.06,11.23,6.28-.6,8.23-4.49,12.12-4.78,3.89-.29,6.74,.75,4.78,1.79s-8.53,.35-11.67,3.02-5.68,4.33,.15,5.51c5.84,1.21,16.3,.46,18.4-4.03l2.08-4.47Z"/>
      <g>
        <path class="cls-18" d="M37.27,163.07s31.42,10.17,35,21.54c0,0-.15,5.09,2.99,10.92v2.25s-3.29-7.63-5.09-8.67c.02,0,7.05-9.88-32.9-26.03Z"/>
        <path class="cls-18" d="M75.28,195.53s4.84,7.36,2.08,16.3l-1.25-.33s1.21-9.86-1.33-14.83c-2.54-4.95,.5-1.14,.5-1.14Z"/>
      </g>
    </g>
    <g>
      <path class="cls-12" d="M90.12,175.96s-14.78-8.28-7.88-19.53c0,0,5.53-6.9,11.44-8.67,0,0-3.16,16.76,0,17.15s2.16-18.92,2.16-18.92c0,0,15.57-7.49,21.69-6.9,0,0-9.67,16.36-6.51,15.97s13.99-16.97,13.99-16.97c0,0,15.97-2.95,18.53,6.51,2.56,9.46-1.58,14.2-3.95,14.78s-17.55,.4-17.15,2.37,10.65,5.14,16.36,3.35c0,0-6.3,15.57-14.6,14.78-8.28-.79-10.85-5.93-15.97-6.3-5.14-.4-8.88,.98-6.3,2.37,2.56,1.37,11.25,.46,15.39,3.97s7.49,5.7-.19,7.26c-7.69,1.58-21.5,.58-24.25-5.32l-2.77-5.91Z"/>
      <g>
        <path class="cls-12" d="M136.27,147.56s-41.42,13.41-46.14,28.4c0,0,.19,6.7-3.95,14.39v2.95s4.35-10.06,6.7-11.44c.02,0-9.25-13.02,43.4-34.31Z"/>
        <path class="cls-12" d="M86.19,190.35s-6.38,9.69-2.74,21.5l1.64-.44s-1.6-13,1.75-19.55c3.33-6.55-.64-1.52-.64-1.52Z"/>
      </g>
    </g>
    <path class="cls-12" d="M89.63,237.45c15.99,0,28.97-12.98,28.97-28.97H60.66c0,15.99,12.98,28.97,28.97,28.97Z"/>
    <path class="cls-12" d="M119.01,238.93H60.26c0-1.98,1.6-3.58,3.58-3.58h51.59c1.98,0,3.58,1.6,3.58,3.58h0Z"/>
    <rect class="cls-18" x="59.7" y="208.48" width="59.55" height=".89"/>
  </g>
  <g>
    <path class="cls-18" d="M239.13,333.02h.15c1.16-.02,2.08-.98,1.95-2.08l-7.82-78-6.82,.6,11.21,78.41c.1,.62,.67,1.06,1.33,1.06Z"/>
    <path class="cls-18" d="M163.92,333.02h-.15c-1.16-.02-2.08-.98-1.95-2.08l7.82-78,6.82,.6-11.21,78.41c-.1,.62-.67,1.06-1.33,1.06Z"/>
    <path class="cls-18" d="M294.22,333.02h.15c1.16-.02,2.08-.98,1.95-2.08l-7.82-78-6.82,.6,11.21,78.41c.12,.62,.69,1.06,1.33,1.06Z"/>
    <path class="cls-18" d="M166.25,241.59l-13.87-68.45c-1.79-9.27,5.91-17.74,15.87-17.51l26.74,.6c9.23,.21,17.24,6.38,19.8,15.24l20.27,70.12h-68.81Z"/>
    <path class="cls-18" d="M174.63,241.59l-13.87-68.45c-1.79-9.27,5.91-17.74,15.87-17.51l26.74,.6c9.23,.21,17.24,6.38,19.8,15.24l20.27,70.12h-68.81Z"/>
    <path class="cls-18" d="M170.12,254.09h105.78c2.12,0,3.87-1.75,3.87-3.87v-4.76c0-2.12-1.75-3.87-3.87-3.87h-109.65v8.63c0,2.12,1.75,3.87,3.87,3.87Z"/>
    <path class="cls-18" d="M219.75,254.09h67.43c1.71,0,3.12-1.39,3.12-3.12v-6.26c0-1.71-1.39-3.12-3.12-3.12h-67.43c-1.71,0-3.12,1.39-3.12,3.12v6.26c0,1.71,1.41,3.12,3.12,3.12Z"/>
  </g>
  <g>
    <path class="cls-17" d="M134.69,240.69v2.33c0,.81-.27,1.48-.58,1.48H48.89c-.33,0-.58-.67-.58-1.48v-2.33c0-.81,.27-1.48,.58-1.48h85.23c.31,0,.56,.67,.56,1.48Z"/>
    <path class="cls-18" d="M134.69,240.69v2.33c0,.81-.25,1.48-.54,1.48H66.5c-.29,0-.54-.67-.54-1.48v-2.33c0-.81,.25-1.48,.54-1.48h67.66c.29,0,.52,.67,.52,1.48Z"/>
    <rect class="cls-18" x="52.61" y="244.52" width="60.51" height="88.19"/>
    <rect class="cls-11" x="69.58" y="244.52" width="60.51" height="88.19"/>
    <g>
      <path class="cls-18" d="M126.83,327.84h-54v-80.83h54v80.83Zm-53.42-.58h52.84v-79.66h-52.84v79.66Z"/>
      <rect class="cls-18" x="73.11" y="273.76" width="53.42" height=".58"/>
      <rect class="cls-18" x="73.11" y="301.02" width="53.42" height=".58"/>
      <path class="cls-18" d="M105.3,252.23h-9.92c-.48,0-.87-.4-.87-.87h0c0-.48,.4-.87,.87-.87h9.92c.48,0,.87,.4,.87,.87h0c0,.48-.4,.87-.87,.87Z"/>
      <path class="cls-18" d="M105.3,278.89h-9.92c-.48,0-.87-.4-.87-.87h0c0-.48,.4-.87,.87-.87h9.92c.48,0,.87,.4,.87,.87h0c0,.48-.4,.87-.87,.87Z"/>
      <path class="cls-18" d="M105.3,306.67h-9.92c-.48,0-.87-.4-.87-.87h0c0-.48,.4-.87,.87-.87h9.92c.48,0,.87,.4,.87,.87h0c0,.48-.4,.87-.87,.87Z"/>
    </g>
  </g>
  <g>
    <path class="cls-18" d="M372.21,85.97h-38.34c-1.77,0-3.2-1.43-3.2-3.2V45.75c0-1.77,1.43-3.2,3.2-3.2h38.34c1.77,0,3.2,1.43,3.2,3.2v37.01c0,1.77-1.43,3.2-3.2,3.2Z"/>
    <path class="cls-11" d="M370.55,84.07h-35.04c-1.6,0-2.93-1.31-2.93-2.93V47.35c0-1.6,1.31-2.93,2.93-2.93h35.04c1.6,0,2.93,1.31,2.93,2.93v33.81c0,1.6-1.31,2.91-2.93,2.91Z"/>
    <g>
      <g>
        <circle class="cls-18" cx="353.04" cy="48.39" r=".94"/>
        <path class="cls-18" d="M359.59,49.7c.25-.46,.81-.6,1.27-.35,.46,.25,.6,.81,.35,1.27-.25,.46-.81,.6-1.27,.35-.44-.27-.6-.83-.35-1.27Z"/>
        <path class="cls-18" d="M366,54.8c.44-.27,1-.15,1.29,.27,.27,.44,.15,1-.27,1.29-.44,.27-1,.15-1.29-.27-.27-.44-.15-1.02,.27-1.29Z"/>
        <path class="cls-18" d="M369.18,62.68c.52,0,.94,.42,.94,.94s-.42,.94-.94,.94-.94-.42-.94-.94,.42-.94,.94-.94Z"/>
        <path class="cls-18" d="M367.56,71.81c.35,.35,.35,.96,0,1.31s-.96,.35-1.31,0c-.35-.35-.35-.96,0-1.31,.35-.35,.96-.35,1.31,0Z"/>
        <path class="cls-18" d="M361.73,77.65c.35,.35,.35,.96,0,1.31s-.96,.35-1.31,0c-.35-.35-.35-.96,0-1.31,.35-.35,.96-.35,1.31,0Z"/>
        <path class="cls-18" d="M352.11,80.66c0-.52,.42-.94,.94-.94s.94,.42,.94,.94-.42,.94-.94,.94c-.52-.02-.94-.44-.94-.94Z"/>
      </g>
      <g>
        <path class="cls-18" d="M346.45,49.7c-.25-.46-.81-.6-1.27-.35-.46,.25-.6,.81-.35,1.27,.25,.46,.81,.6,1.27,.35,.46-.27,.6-.83,.35-1.27Z"/>
        <path class="cls-18" d="M340.05,54.8c-.44-.27-1-.15-1.29,.27-.27,.44-.15,1,.27,1.29,.44,.27,1,.15,1.29-.27,.29-.44,.17-1.02-.27-1.29Z"/>
        <path class="cls-18" d="M336.89,62.68c-.52,0-.94,.42-.94,.94s.42,.94,.94,.94,.94-.42,.94-.94c-.02-.52-.44-.94-.94-.94Z"/>
        <path class="cls-18" d="M338.49,71.81c-.35,.35-.35,.96,0,1.31s.96,.35,1.31,0c.35-.35,.35-.96,0-1.31-.35-.35-.94-.35-1.31,0Z"/>
        <path class="cls-18" d="M344.31,77.65c-.35,.35-.35,.96,0,1.31s.96,.35,1.31,0c.35-.35,.35-.96,0-1.31-.35-.35-.94-.35-1.31,0Z"/>
      </g>
    </g>
    <g>
      <path class="cls-18" d="M352.79,63.59c0-.52,.42-.94,.94-.94s.94,.42,.94,.94-.42,.94-.94,.94-.94-.42-.94-.94Z"/>
      <rect class="cls-18" x="353.58" y="52.01" width=".25" height="11.58"/>
      <rect class="cls-18" x="352.78" y="60.78" width="7.8" height=".77" transform="translate(38.36 233.29) rotate(-38.13)"/>
    </g>
  </g>
  <g>
    <path class="cls-13" d="M258.39,227.26c-5.72,9.96-12.91,13.81-12.91,13.81h-29.94s47.22-21.4,42.86-13.81Z"/>
    <g>
      <path class="cls-8" d="M295.32,326.22c-.33,3.14,4.05,3.95,9.11,4.26,5.07,.31,3.51,1.33,10.46,2.66,6.92,1.33,9.73-.54,10.25-1.48,.46-.83-2.77-2.16-6.2-3.68-.44-.19-.87-.37-1.29-.58-3.85-1.75-5.99-5.24-8.98-8.5-2.83-3.08-5.45-12.89-5.45-12.89l-9.42-2.12s2.56,8.82,3.43,12.58c.52,2.2-.31,4.68-1.04,6.55-.35,1.04-.75,2.08-.87,3.2Z"/>
      <path class="cls-15" d="M304.45,330.46c5.07,.31,3.51,1.33,10.46,2.66,6.92,1.33,9.73-.54,10.25-1.48,.46-.83-2.77-2.16-6.2-3.68l-.06,.06s-4.91,1.6-10.52,.02c-4.57-1.29-9-4.1-12.16-5.01-.4,1.02-.79,2.06-.89,3.16-.31,3.16,4.05,3.97,9.13,4.26Z"/>
      <path class="cls-19" d="M281.05,217.07c-5.07-3.56-38.59-9.9-55.71-11.75l-18.92-16.43s-16.09,23.85-16.22,42.09c-.06,8.5,3.87,9.36,3.87,9.36,0,0,60.63,.46,63.3,.73,4.35,.46,10.09,11.29,11.52,21.15,1.43,9.88,26.72,50.01,26.72,50.01,0,0,5.28,1.68,7.71,1.54,2.62-.15,3.83-1.04,3.83-1.04,0,0-14.66-87.63-26.1-95.65Z"/>
      <path class="cls-8" d="M279.64,326.22c-.33,3.14,4.05,3.95,9.11,4.26,5.07,.31,3.51,1.33,10.46,2.66,6.95,1.33,9.73-.54,10.25-1.48,.46-.83-2.77-2.16-6.2-3.68-.44-.19-.87-.37-1.29-.58-3.85-1.75-5.99-5.24-8.98-8.5-2.83-3.08-5.45-12.89-5.45-12.89l-9.42-2.12s2.56,8.82,3.43,12.58c.52,2.2-.31,4.68-1.04,6.55-.35,1.04-.77,2.08-.87,3.2Z"/>
      <path class="cls-13" d="M288.75,330.46c5.07,.31,3.51,1.33,10.46,2.66,6.95,1.33,9.73-.54,10.25-1.48,.46-.83-2.77-2.16-6.2-3.68l-.06,.06s-4.91,1.6-10.52,.02c-4.57-1.29-9-4.1-12.16-5.01-.4,1.02-.79,2.06-.89,3.16-.31,3.16,4.08,3.97,9.13,4.26Z"/>
      <path class="cls-10" d="M265.23,217.07c-4.41-3.1-17.65-5.49-32.27-7.28-4.03-.5-7.36-3.43-8.36-7.38h0l-34-13.52s-16.09,23.85-16.22,42.09c-.06,8.5,3.87,9.36,3.87,9.36,0,0,60.63,.46,63.3,.73,4.35,.46,10.09,11.29,11.52,21.15,1.43,9.88,26.72,50.01,26.72,50.01,0,0,5.28,1.68,7.71,1.54,2.62-.15,3.83-1.04,3.83-1.04,0,0-14.66-87.63-26.1-95.65Z"/>
      <path class="cls-13" d="M219.71,89.83c-4.68-2.45-11.79-2.79-12.93-2.93-13.83-1.85-22.15,18.24-22.62,24.31-.89,11.23-6.84,12.93-15.2,19.96-16.76,14.1-11.83,30.46-2.68,36.53,5.49,3.66,15.18,0,15.18,0,.15,.1,26.49-14.72,39.49-21.88,19.48-2.79,10.69-49.74-1.23-56Z"/>
      <path class="cls-8" d="M216.84,138.91c.06,.02-6.13,2.85-10.63,1.37-4.22-1.39-7.92-7.74-7.86-7.74,1.83-.27,3.68-2.06,4.2-12.75l.81,.21,13.62,3.43s-.54,4.3-.77,8.38c-.19,3.43-.15,6.7,.62,7.09Z"/>
      <path class="cls-2" d="M216.99,123.44s0,.89-.5,4.91c-7.69-1.93-11.1-4.49-13.5-7.42l13.99,2.52Z"/>
      <path class="cls-8" d="M219.88,123.98s-18.01,2.93-19.65-8.32c-1.64-11.23-5.09-18.42,6.34-20.77,11.42-2.35,14.29,1.62,15.76,5.24,1.46,3.62,2.2,22.79-2.45,23.85Z"/>
      <path class="cls-13" d="M219.9,94.43s-8.17,12.91-15.47,15.97-10.88,1.5-10.88,1.5c0,0,3.33-5.03,4.18-11.79,.25-2,1.56-3.7,3.41-4.45,5.24-2.1,15.37-5.41,18.76-1.23Z"/>
      <path class="cls-13" d="M212.72,95.68s4.78,2.45,6.76,4.76c1.91,2.22,4.1,8.26,3.95,10.96,0,0,2.37-12.98-2.56-17.43-5.22-4.74-8.15,1.71-8.15,1.71Z"/>
      <path class="cls-6" d="M231.23,166.38c-.54,36.6-.15,28.95-4.16,32.42-.96,.83-3.68,1.33-7.24,1.56-11.23,.75-30.94-1.1-31.69-3.18-2.58-7.17-.77-9.4-2.91-20.4-.23-1.16-.5-2.43-.83-3.81-1.81-7.55-3.56-10.11,2.83-22.23,5.8-10.98,12.6-19.9,13.14-19.57,15.28,9.07,15.8,1.48,15.8,1.48,0,0,15.33,15.87,15.05,33.73Z"/>
      <path class="cls-6" d="M216.18,132.65s15.64,2.66,17.49,9.42c1.85,6.78,12.71,46.58,12.71,46.58,0,0-7.98,1.43-11.69-2.27s-12.85-34.27-12.85-34.27l-5.66-19.46Z"/>
      <path class="cls-3" d="M219.84,200.35c-11.23,.75-30.94-1.1-31.69-3.18-2.58-7.17-.77-9.4-2.91-20.4l5.41-15.24s-.89,16.97,4.12,21.44c4.99,4.47,20.48,8.61,22.91,12.35,1.16,1.81,1.95,3.6,2.16,5.03Z"/>
      <path class="cls-8" d="M206.99,193.22s11.06-2.47,12.85-1.48c1.79,.98,6.15,4.55,6.7,5.8s-3.97-.94-5.45-1.33c-.96-.25-3.45,.62-4.7,1.04-5.22,1.75-8.42,.85-8.42,.85l-.98-4.89Z"/>
      <path class="cls-6" d="M200.37,131.17s-15.66,.91-20.81,8.09c-7.24,10.11-21.6,53.15-13.37,58.89,9.27,6.47,42.21,1.68,42.21,1.68,0,0,1.1-5.12-.44-7.61-1.52-2.47-26.3-6.49-27.45-7.63s14.29-22.29,14.29-25.72c.02-3.41,5.57-27.7,5.57-27.7Z"/>
      <path class="cls-8" d="M220.38,194.82s2.33,2.99,3.08,3.35,1.25,.27,1.25,.27l-1.56-2.81-2.77-.81Z"/>
      <path class="cls-8" d="M219.84,191.75l6.74,3.26s-.29,.48-1.12,.44c-.83-.04-2.93-.81-2.93-.81l-2.68-2.89Z"/>
    </g>
  </g>
  <g>
    <path class="cls-19" d="M244.69,199.5h-31.32c0-1.37,1.12-2.5,2.5-2.5h28.82v2.5Z"/>
    <polygon class="cls-19" points="244.6 165.4 293.01 165.4 281.41 199.5 232.67 199.5 244.6 165.4"/>
    <polygon class="cls-5" points="293.74 165.4 282.11 199.5 233.37 199.5 245.31 165.4 293.74 165.4"/>
    <path class="cls-6" d="M267.62,182.14c-.29,1.31-1.6,2.35-2.91,2.35s-2.12-1.06-1.81-2.35c.29-1.31,1.6-2.35,2.91-2.35s2.12,1.04,1.81,2.35Z"/>
  </g>
  <g>
    <path class="cls-16" d="M202.54,207.17h212.2c.89,0,1.62-.73,1.62-1.62v-4.45c0-.89-.73-1.62-1.62-1.62H202.54c-.89,0-1.62,.73-1.62,1.62v4.45c0,.89,.73,1.62,1.62,1.62Z"/>
    <path class="cls-16" d="M419.94,333.58l.08-.02c1.08-.12,1.85-1.1,1.73-2.16l-18.9-128.01-6.92,.21,22.25,128.69c.15,.83,.91,1.39,1.77,1.29Z"/>
    <path class="cls-16" d="M195.42,333.58l-.08-.02c-1.08-.12-1.85-1.1-1.73-2.16l18.9-128.01,6.92,.21-22.25,128.69c-.12,.83-.91,1.39-1.77,1.29Z"/>
    <path class="cls-16" d="M239.22,333.58l-.08-.02c-1.08-.12-1.85-1.1-1.73-2.16l18.9-128.01,6.92,.21-22.25,128.69c-.15,.83-.91,1.39-1.77,1.29Z"/>
  </g>
  <g>
    <path class="cls-13" d="M350.48,322.31h31.29c1.5-1.83,.96-8.61,.73-10.83-.04-.44-.08-.71-.08-.71,0,0-10.69-8.55-12.14-2-.04,.21-.1,.42-.17,.6-1.85,6.11-10.15,8.9-14.93,9.67-3.14,.52-4.28,2.14-4.7,3.26Z"/>
    <path class="cls-13" d="M435.86,220.63c-1.12,0-53.61,9.86-62.28,20.59-4.35,5.36-4.99,67.35-4.99,67.35,0,0,5.36,6.65,16.95,2.79,0,0,8.5-42.42,7.86-55.27-.17-3.56,35.85-.52,42.44-2.22,6.59-1.71,22.71-16.05,19.15-23.04-3.54-6.97-19.13-10.19-19.13-10.19Z"/>
    <path class="cls-8" d="M377.2,194.12s-10.58,.15-13.08,1.16-7.59,3.37-6.22,3.74c1.35,.35,7.84-.15,9.25,.06,1.39,.21,3.12-.06,3.99-.06h4.87l1.19-4.91Z"/>
    <path class="cls-8" d="M361.42,180.04s-3.62-2.58-7.11-3.08c-2-.29-3.95-.64-5.12-1.06-3.24-1.14-9.71-6.97-9.21-7.63,1.56-2.18,9.13,2.43,10.44,1.95,1.31-.5-2.54-3.24-1.19-4.2,.71-.5,2.33,2.02,3.68,2.27,1.81,.33,3.22,2.89,3.76,3.04,1.06,.25,5.72,3.72,5.72,3.72l-.98,4.99Z"/>
    <path class="cls-4" d="M434.6,139.01s-8.05,2.5-15.99,24.35c-7.94,21.85-10.96,23.04-13.85,23.89-2.89,.85-28.22,5.91-28.22,5.91v6.49h39.03s14.64-13.91,19.03-23.29c4.39-9.36,0-37.35,0-37.35Z"/>
    <path class="cls-14" d="M336.64,322.31h31.29c1.5-1.83,.96-8.61,.73-10.83-.04-.44-.08-.71-.08-.71,0,0-10.69-8.55-12.14-2-.04,.21-.1,.42-.17,.6-1.85,6.11-10.15,8.9-14.93,9.67-3.12,.52-4.26,2.14-4.7,3.26Z"/>
    <path class="cls-20" d="M420.39,220.63c-1.12,0-53.61,9.86-62.28,20.59-4.35,5.36-4.99,67.35-4.99,67.35,0,0,5.36,6.65,16.95,2.79,0,0,8.5-42.42,7.86-55.27-.17-3.56,35.85-.52,42.44-2.22,6.59-1.71,22.71-16.05,19.15-23.04-3.51-6.97-19.13-10.19-19.13-10.19Z"/>
    <path class="cls-8" d="M423.68,156.85c3.78-.31,7.74-1.31,11.15-2.43,4.28-1.39,7.71-3.41,5.51-7.32-2.04-3.6-5.36-11.64-5.14-18.32l-7.96,6.4-5.41,4.35s.02,2.56,.6,7.07c.1,.81,.23,1.71,.37,2.66,.12,.77-.23,1.52-.89,1.93-.04,.02-.08,.04-.12,.08-2.64,1.71-1.27,5.84,1.89,5.57Z"/>
    <path class="cls-2" d="M421.85,138.51s-.27,.94,.21,4.37c4.82-.79,9.32-4.64,9.32-4.64-2.45-.67-3.35-3.33-5.18-3.08l-4.35,3.35Z"/>
    <path class="cls-8" d="M417.38,139.28s18.53,3.08,20.27-8.48c1.75-11.58,5.3-18.96-6.47-21.42-11.77-2.45-14.72,1.62-16.24,5.34-1.52,3.7-2.33,23.46,2.43,24.56Z"/>
    <path class="cls-20" d="M412.22,109.59c-.79,2.79,1.33,6.18,4.91,7.3,5.3,1.66,4.14,8.17,6.53,8.09,2.39-.08,3.35-3.74,5.49-.83,1.83,2.5-1.52,5.45-1.29,6.8,.4,2.35,4.08,7.13,7.38,6.9,3.31-.25,9.5-15.97,8.26-20.84-1.25-4.87-6.2-10-10.88-10.71s-11.21,1.31-12.71,1.31-7.26,.46-7.69,1.98Z"/>
    <path class="cls-1" d="M455.26,166c-2.68-10.79-10.09-22.1-15.1-22.08-8.53,.02-20.79,2.27-25.74,14.47-3.64,9-8.5,60.74-3.02,64.42,12.56,8.42,41.69,25.6,46.87,8.07,4.74-16.03,1.64-46.16-3.02-64.88Z"/>
    <path class="cls-1" d="M434.53,155.27c-2.43-6.32-10.29-8.53-15.64-4.35-2.89,2.25-6.45,5.47-10.73,10.02-15.93,16.95-19.15,16.84-22.15,16.49-2.99-.35-28.26-5.72-28.26-5.72,0,0-1.29,.96-2.06,2.5-1.02,2.06-.5,3.47-.5,3.47-1-.64,8.96,6.22,13.91,8.94,6.53,3.62,16.39,6.99,20.32,8.28,1.1,.37,2.31,.35,3.41-.04,5.82-2.1,25.37-9.75,41.3-23.02,4.2-3.51,2.66-10.71,.4-16.57Z"/>
    <path class="cls-6" d="M441.04,144l-1.93-4.35s-17.28,1.41-20.19,11.25c-.02,0,13.39-6.67,22.12-6.9Z"/>
  </g>
  <g>
    <path class="cls-18" d="M509.68,333.02h.15c1.16-.02,2.08-.98,1.95-2.08l-7.82-78-6.82,.6,11.21,78.41c.12,.62,.69,1.06,1.33,1.06Z"/>
    <path class="cls-18" d="M469.49,333.02h.15c1.16-.02,2.08-.98,1.95-2.08l-7.82-78-6.82,.6,11.21,78.41c.12,.62,.69,1.06,1.33,1.06Z"/>
    <path class="cls-9" d="M394.03,333.02h-.15c-1.16-.02-2.08-.98-1.95-2.08l7.82-78,6.82,.6-11.21,78.41c-.1,.62-.67,1.06-1.33,1.06Z"/>
    <path class="cls-18" d="M507.48,241.9l7.4-65.15c.98-9.38-2.16-18.57-15.72-19.3l-23.83-1.46c-14.12-.58-20.5,11.17-22.29,20.23l-14.14,71.61,68.58-5.95Z"/>
    <path class="cls-9" d="M503.51,254.09h-105.78c-2.12,0-3.87-1.75-3.87-3.87v-4.76c0-2.12,1.75-3.87,3.87-3.87h109.63v8.63c.02,2.12-1.73,3.87-3.85,3.87Z"/>
    <path class="cls-18" d="M504.36,254.09h-62.44c-1.64,0-2.99-1.35-2.99-2.99v-6.49c0-1.64,1.35-2.99,2.99-2.99h65.46v9.48c0,1.64-1.35,2.99-3.02,2.99Z"/>
  </g>
</svg>