<?xml version="1.0" encoding="UTF-8"?>
<svg id="_ÎÓÈ_1" data-name="—ÎÓÈ_1" xmlns="http://www.w3.org/2000/svg" viewBox="0 0 482.63 399.75">
  <defs>
    <style>
      .cls-1 {
        fill: #f99370;
      }

      .cls-2 {
        fill: #f9f8f3;
      }

      .cls-3 {
        fill: #e57d61;
      }

      .cls-4 {
        fill: #ef8bb8;
      }

      .cls-5 {
        fill: #ef8016;
      }

      .cls-6 {
        fill: #f49547;
      }

      .cls-7 {
        fill: #7289af;
      }

      .cls-8 {
        fill: #b75687;
      }

      .cls-9 {
        fill: #8e295e;
      }

      .cls-10 {
        fill: #c33070;
      }

      .cls-11 {
        fill: #c16256;
      }

      .cls-12 {
        fill: #ce4687;
      }

      .cls-13 {
        fill: #cfd6e4;
      }

      .cls-14 {
        fill: #e07322;
      }

      .cls-15 {
        fill: #163260;
      }

      .cls-16 {
        fill: #23659b;
      }

      .cls-17 {
        fill: #3a72aa;
      }
    </style>
  </defs>
  <g id="_7" data-name="7">
    <path class="cls-7" d="M315.54,157.11c-33.07,0-61.58-21.67-71.11-52.27-5.23-16.69-4.4-34.96,2.49-51.23,16.06-37.94,59.83-55.62,97.62-39.64,17.81,7.55,32.08,21.77,39.64,39.64,11.25,26.58,6.22,57.96-14.14,79.79-13.76,14.77-33.24,23.71-54.5,23.71Z"/>
    <path class="cls-13" d="M383.07,82.62c0,34.4-25.73,62.74-58.78,66.96-25.84,3.52-52.86-8.73-66.96-32.71-6.11-10.35-9.32-22.11-9.32-34.25,0-37.28,30.22-67.53,67.53-67.53s67.53,30.22,67.53,67.53Z"/>
    <path class="cls-15" d="M286.29,63.26c4.3-3.84,9.4-11.49,9.4-11.49,4.07-6.66,7.69-13.66,13.7-17.56,6.55-3.98,11.87-.76,11.87-.76,0,0,10.58-4.24,19.22,6.72,8.81,11.17,5.37,21.18,8.47,28.41,6.91,17.64,6.77,29.61-5.54,37.28-12.31,7.67-63.67,7.57-69.11-15.98-1.62-6.95-.89-15.13,11.99-26.64Z"/>
    <path class="cls-1" d="M301.34,83.72s.02-.02,.02-.02c-8.85,16.08-22.59,27.46-41.86,23.1-6.39-1.14-12.65-3.12-18.67-5.54-3.75-1.81-6.98,3.52-3.65,5.99,12.18,8.85,27.48,15.49,42.85,12.98,15.85-3.08,29.06-15.09,35.87-29.44,4.83-9.84-9.86-17.01-14.56-7.06Z"/>
    <path class="cls-17" d="M318.92,102.1c-5.16,11.7-14.96,18.95-26.24,22.74-20.04,6.89-45.59,1.2-47.84-12.56,6.87-5.31-1.75-13.68,14.92-7.12,28.28,7.8,34.75-27.21,52.35-29.19,.27,1.52,1.03,2.28,2.04,2.53,.38,1.88,4.28,21.2,4.76,23.6Z"/>
    <polygon class="cls-1" points="322.48 66.71 322.48 78.79 316.72 88.71 312.11 78.79 312.11 66.71 322.48 66.71"/>
    <path class="cls-16" d="M297.74,92.55l-.44,30.52c-1.52,.67-3.06,1.26-4.62,1.79-.53,.17-1.07,.36-1.6,.51,.13-1.85,.17-4.15-.19-5.86-.74-3.39-2.07-9.32-1.62-14.65,.42-5.35,8.47-12.31,8.47-12.31Z"/>
    <path class="cls-3" d="M322.48,66.71v4.68c-6.07,2.93-10.35,1.35-10.35,1.35v-6.05h10.35v.02Z"/>
    <path class="cls-1" d="M331.46,57.56c-1.83,6.09-5.75,13.13-12.79,13.61-.27,.02-.55,.04-.82,.06-11.49,1.33-22.45-13.36-12.54-21.22,1.14-.82,2.36-2.09,3.06-3.08h0c8.85-18.8,28.07-6.91,23.1,10.62Z"/>
    <path class="cls-3" d="M318.52,37.46l-.21,1.43c-3.46-.08-8.49,4.95-9.88,7.92,1.81-3.88,5.12-8.58,10.1-9.36Z"/>
    <path class="cls-3" d="M329.92,61.57c-1.75,3.96-4.68,7.99-8.94,9.15,5.27-2.07,6.93-8.91,6.93-8.91l2-.23Z"/>
    <path class="cls-3" d="M331.46,57.56l-3.62,.97c-3.92-2.59-6.98-10.05-6.98-10.05l10.52-2.21c1.1,3.37,1.2,7.33,.08,11.3Z"/>
    <path class="cls-15" d="M331.29,58.11s-16.67-10.69-12.9-20.63c0,0,4.49-2.21,8.83,.17,4.72,2.57,9.15,10.14,4.07,20.46Z"/>
    <path class="cls-1" d="M334.09,60.39c-1.94,5.12-8.26,2.74-6.39-2.4,1.94-5.12,8.28-2.74,6.39,2.4Z"/>
    <path class="cls-11" d="M332.22,61.21c-.17-.04-.25-.23-.19-.38,1.43-2.66,.36-4.05-1.69-3.56-.34,.08-.46-.46-.13-.53,2.4-.57,4.03,1.14,2.32,4.32-.06,.13-.21,.19-.32,.15Z"/>
    <path class="cls-11" d="M329.75,60.45c-.72-.27,1.14-2.47,3.25-2.32,.15,.02,.13,.19,.11,.34s0,.21-.15,.21c-2.17-.13-2.66,1.81-3.2,1.77Z"/>
    <path class="cls-11" d="M313.9,51.9c-.32-.89,1.07-1.33,1.37-.44,.3,.89-1.1,1.33-1.37,.44Z"/>
    <path class="cls-11" d="M308.04,49.98c-.32-.89,1.07-1.33,1.37-.44,.32,.86-1.07,1.33-1.37,.44Z"/>
    <path class="cls-11" d="M309.05,56.38c-1.2-.34-2.7-1.41-1.03-2.21,1.45-.51,2.85-3.12,2.87-3.16,.15-.32,.65-.04,.48,.25-.06,.11-1.52,2.82-3.16,3.41-.19,.06-.4,.17-.36,.34,.59,1.2,2.49,.7,2.59,1.16-.04,.59-.97,.27-1.39,.21Z"/>
    <path class="cls-11" d="M316.68,51.62c-.08-.02-.17-.11-.19-.21-.3-2.09-2.23-3.2-2.26-3.2-.13-.06-.15-.21-.08-.34,.06-.13,.21-.17,.34-.08,.08,.04,2.17,1.24,2.51,3.56,.02,.13-.06,.25-.21,.27-.04,.02-.08,.02-.11,0Z"/>
    <path class="cls-11" d="M308.44,48.12c-.08,.02-.17,0-.21-.06-.08-.11-.08-.25,0-.34,.06-.06,1.43-1.39,3.39-.72,.13,.04,.19,.19,.15,.32-.04,.13-.19,.19-.32,.15-1.66-.57-2.85,.55-2.91,.61-.02,0-.06,.02-.11,.04Z"/>
    <path class="cls-2" d="M308.13,59.31l5.99-.44c-.76,3.16-4.68,3.75-5.99,.44Z"/>
    <path class="cls-11" d="M308.13,59.61c-.15,0-.27-.11-.27-.27-.02-.15,.11-.3,.25-.3l5.99-.44c.15-.02,.3,.11,.3,.25,.02,.15-.11,.3-.25,.3l-5.99,.44s0,.02-.02,.02Z"/>
    <path class="cls-17" d="M347.94,141.87c-17.3,9.53-38.74,11.11-57.89,3.27,2.59-6.77,2.61-15.91,2.66-20.3,.17-6.62-2.55-12.77-1.79-19.01,.55-4.53,2.68-8.58,6.83-13.3h0c3.29-3.96,7.9-12.58,14.35-16.57h0c.78,3.5,3.84,3.12,7,1.43,1.58-.8,3.35-2.21,3.37-2.23,19.05,.19,22.59,26.01,22.57,45.06,0,6.89-.55,2.55,1.85,15.66,.38,1.9,.74,3.94,1.05,5.99Z"/>
    <path class="cls-16" d="M348.93,125.55l-2.02,10.33-1.43,7.27c-.57,.27-1.14,.55-1.73,.82-5.37,2.49-11.15,4.28-17.18,5.27-.76,.13-1.52,.23-2.28,.34,2.32-5.44,5.92-11.51,10.96-17.22,3.77-4.28,4.53-9.78,0-19.24-.65-1.37-1.29-2.7-1.85-3.94h0c-3.37-7.27-5.33-12.24-5.37-12.35h0l8.49,11.68,8.54,11.72,3.88,5.33Z"/>
    <path class="cls-17" d="M364.95,128.65c-10.05,10.79-23.48,18.15-38.38,20.59,2.28-5.35,5.29-11.02,8.56-14.04,5.02-4.66,5.46-10.92,3.98-16.29-2.04-7.42-7.1-14.44-11.09-22.07h0c-2.8-5.37-5.1-11.09-5.52-17.56-.11-1.24-.08-2.99-.02-4.09,0,0,2-.55,5.29-.48,5.88,.11,15.83,2.17,25.73,12.75,1.73,1.83,3.44,3.92,5.14,6.32,4.24,5.86,9.53,21.08,6.3,34.86Z"/>
    <path class="cls-16" d="M327.79,74.7c-.34,.42-.72,.82-1.12,1.22-1.2,1.22-2.63,2.38-4.17,3.35-2.49,1.58-5.25,2.68-7.61,2.8-.7,.04-1.35-.02-1.96-.15-2.57-.61-3.48-2.3-3.79-3.63-.23-.95-.15-1.58-.15-1.58,1.26-.42,2.34-.7,3.12-.74h.02c.27,1.52,1.03,2.28,2.04,2.53,2.4,.61,6.22-1.58,8.3-3.33l.02-.02s1.98-.53,5.29-.46Z"/>
    <path class="cls-1" d="M242.92,111.1s-7.95-1.37-9.27-3.98c-2.13-4.17,1.81-9.44,3.44-9.29,2.53,.23,6.74,3.44,7.63,4.81,0,0,.55,5.54-1.79,8.47Z"/>
    <path class="cls-1" d="M240.35,99.36c2.04-.72,2-5.08,3.67-4.95,1.58,.11,.65,3.31,.46,4.59-.17,1.18-.3,3.81-.3,3.81-1.5,1.64-6.3-2.61-3.84-3.46Z"/>
    <path class="cls-1" d="M234.15,107.58c-.15-.08-.19-.11-.25-.15-.06-.04-.13-.08-.19-.13-.13-.08-.23-.17-.34-.25-.21-.17-.4-.36-.57-.57-.17-.21-.32-.44-.42-.67-.11-.23-.15-.46-.19-.7-.08-.67,.55-1.16,1.41-1.07,.61,.04,1.16,.36,1.45,.78l.46,.63s0-.02,0-.02c0,0,0,.02,.02,.02l.02,.02h0l-.06-.04c.84,.42,1.22,1.22,.84,1.81-.36,.61-1.35,.76-2.19,.34Z"/>
    <path class="cls-1" d="M234.59,105.17c-.11-.08-.15-.11-.21-.15l-.15-.13c-.11-.08-.19-.17-.27-.25-.17-.19-.34-.38-.48-.59-.15-.21-.27-.46-.36-.72-.08-.25-.11-.53-.08-.8,.06-.7,.86-1.1,1.79-.91s1.62,.91,1.54,1.6c0-.02-.02-.04,.02,.02,.02,.02,.04,.06,.11,.13,.02,.02,.04,.04,.06,.06l.04,.02s.04,.02-.02,0c.74,.53,.91,1.35,.36,1.83-.55,.42-1.6,.4-2.34-.13Z"/>
    <path class="cls-1" d="M234.97,102.62l-.97-1.2c-.53-.65-.36-1.41,.4-1.71,.76-.3,1.79,0,2.34,.65l.97,1.2c.53,.65,.36,1.41-.4,1.71-.76,.27-1.81,0-2.34-.65Z"/>
    <path class="cls-1" d="M235.69,100.47l-.97-1.2c-.53-.65-.36-1.41,.4-1.71,.76-.3,1.79,0,2.34,.65l.97,1.2c.53,.65,.36,1.41-.4,1.71-.76,.3-1.81,0-2.34-.65Z"/>
    <path class="cls-3" d="M234.99,108.06c-.32-.02-.65-.11-.95-.27-.15-.08-.21-.25-.15-.42,.08-.15,.25-.21,.42-.15,.7,.34,1.52,.25,1.81-.19,.13-.19,.15-.36,.11-.53-.06-.23-.32-.48-.67-.65-.15-.08-.21-.25-.15-.42,.08-.15,.25-.21,.42-.15,.55,.27,.89,.63,1.01,1.05,.08,.34,.02,.7-.19,1.03-.34,.51-.99,.76-1.67,.7Z"/>
    <path class="cls-3" d="M235.73,105.89c-.44-.04-.91-.19-1.31-.48-.11-.08-.15-.11-.19-.15l-.19-.17c-.11-.08-.21-.19-.3-.27-.17-.17-.46-.61-.72-1.01l-.06-.11c-.11-.15-.06-.34,.08-.42,.15-.11,.34-.06,.42,.08l.06,.11c.15,.23,.53,.78,.65,.93,.08,.08,.17,.17,.25,.25l.17,.15s.08,.06,.17,.13c.61,.44,1.52,.48,1.96,.11,.15-.13,.23-.32,.21-.51-.02-.3-.21-.61-.55-.84-.15-.11-.17-.3-.06-.44,.11-.15,.3-.17,.44-.06,.48,.34,.78,.82,.8,1.31,.02,.38-.13,.74-.42,1.01-.38,.32-.91,.44-1.43,.4Z"/>
    <path class="cls-3" d="M236.47,103.68c-.65-.04-1.33-.36-1.73-.89l-1.1-1.12c-.13-.13-.13-.32,0-.44s.32-.13,.44,0l1.12,1.14c.46,.57,1.37,.82,2,.59,.25-.11,.42-.27,.48-.48,.06-.23-.02-.51-.21-.74-.11-.13-.08-.34,.04-.44s.34-.08,.44,.04c.32,.4,.44,.86,.34,1.29-.11,.4-.42,.74-.86,.91-.32,.15-.65,.19-.97,.15Z"/>
    <path class="cls-3" d="M237.19,101.55c-.65-.04-1.33-.36-1.73-.89l-.97-1.2c-.11-.13-.08-.34,.04-.44s.34-.08,.44,.04l.97,1.2c.44,.55,1.35,.8,1.98,.57,.25-.11,.42-.27,.48-.48,.06-.23-.02-.51-.21-.74l-.97-1.2c-.11-.13-.08-.34,.04-.44s.34-.08,.44,.04l.97,1.2c.32,.4,.44,.86,.34,1.29-.11,.4-.42,.74-.86,.91-.32,.13-.65,.17-.97,.15Z"/>
  </g>
  <g id="_6" data-name="6">
    <path class="cls-15" d="M313.82,275c-2.4-12.71-5.73-35.22-8.83-46.68-4.57-16.9-10.62-33.53-22.02-44.85-12.56-11.74-25.73-7.14-25.73-7.14,0,0-21.29-14.14-45.31,5.94-24.51,20.49-21.52,44.07-31.66,58.55-23.33,35.6-23.44,57.64-4.97,84.45,9.13,13.26,61.44,43.48,92.94,28.24,14.42-6.98,57.75-14.06,45.59-78.51Z"/>
    <path class="cls-17" d="M340.54,399.75h-46.68c-5.56-14.37-12.03-32.03-17.47-49.59-7.97-25.65-13.76-51.07-11.44-65.63h0c.59-3.69,1.71-6.68,3.44-8.81,.65-.82,1.41-1.5,2.26-2.04,0,0,24.97,11.53,43.96,36.5,1.41,1.85,2.78,3.77,4.11,5.75,19.26,28.96,6.18,55.15,20.8,81.88,.36,.65,.7,1.31,1.03,1.94Z"/>
    <polygon class="cls-1" points="240.39 251.55 240.39 278.67 253.31 300.93 263.64 278.67 263.64 251.55 240.39 251.55"/>
    <path class="cls-16" d="M315.73,399.75h-17.32c.17-11.15-.08-21.08-1.54-21.73l-.55-38.25-.44-30.24s7.99,6.91,13.64,15.05c2.85,4.11,5.1,8.54,5.44,12.54,.99,11.95-3.01,25.08-3.65,32.88-.82,9.95,1.5,20.34,4.43,29.76Z"/>
    <path class="cls-3" d="M240.39,251.55v10.52c13.61,6.58,23.25,3.03,23.25,3.03v-13.55h-23.25Z"/>
    <path class="cls-1" d="M223.74,224.61c1.24,14.23,6.62,31.49,21.86,35.79,.57,.19,1.18,.36,1.77,.51,24.62,8.22,55.47-19.03,37.3-40.87-2.13-2.32-4.24-5.65-5.27-8.18h0c-10.83-45.35-58.53-28.09-55.66,12.75Z"/>
    <path class="cls-3" d="M261.4,186.38l-.19,3.27c11.36,5.04,18.08,21.96,18.08,21.96-2.38-10.41-7.31-21.24-17.89-25.23Z"/>
    <path class="cls-3" d="M225.24,234.12c2.04,9.53,6.62,19.71,15.43,24.22-10.64-6.93-11.11-22.78-11.11-22.78l-4.32-1.43Z"/>
    <path class="cls-3" d="M223.74,224.61l7.5,3.79c9.82-3.88,19.94-18.86,19.94-18.86l-22.09-9.67c-3.96,6.85-5.99,15.53-5.35,24.74Z"/>
    <path class="cls-15" d="M223.84,225.87s41.52-15.79,37.83-39.39c0,0-8.85-6.93-19.49-3.71-11.55,3.5-24.74,18.06-18.34,43.1Z"/>
    <path class="cls-1" d="M216.64,229.61c1.9,12.16,16.92,9.82,15.13-2.34-1.9-12.16-16.92-9.82-15.13,2.34Z"/>
    <path class="cls-11" d="M220.39,232.3c.38-.02,.65-.38,.57-.76-1.92-6.49,1.07-9.06,5.35-7.06,.72,.34,1.24-.78,.53-1.1-4.99-2.34-9.36,.67-7.06,8.45,.06,.27,.34,.46,.61,.46Z"/>
    <path class="cls-11" d="M226.16,231.76c1.71-.27-1.37-5.94-6.05-6.6-.34-.04-.65,.19-.7,.53-.04,.34,.19,.63,.53,.67,4.78,.74,4.97,5.23,6.22,5.4Z"/>
    <path class="cls-11" d="M264.92,220.23c1.1-1.79-1.75-3.41-2.8-1.6-1.07,1.79,1.77,3.44,2.8,1.6Z"/>
    <path class="cls-11" d="M278.66,218.69c1.1-1.79-1.75-3.41-2.8-1.6-1.1,1.77,1.75,3.41,2.8,1.6Z"/>
    <path class="cls-11" d="M273.5,232.32c2.78-.21,6.6-1.85,3.27-4.4-2.95-1.79-4.83-8.18-4.85-8.24-.21-.76-1.41-.42-1.18,.34,.08,.27,2.02,6.91,5.37,8.94,.38,.23,.8,.57,.63,.91-1.83,2.36-5.8,.4-6.22,1.35-.15,1.31,2,1.07,2.97,1.12Z"/>
    <path class="cls-11" d="M258.53,217.55c.21,.04,.44-.04,.57-.23,2.59-3.96,7.59-4.34,7.65-4.36,.3-.02,.53-.27,.51-.57-.02-.3-.27-.53-.57-.51-.23,.02-5.59,.42-8.47,4.85-.17,.25-.08,.59,.15,.76,.04,.02,.11,.06,.17,.06Z"/>
    <path class="cls-11" d="M273.6,238.14c-.11-.19-.32-.32-.53-.3-4.7,.44-8.14-3.25-8.16-3.27-.21-.21-.55-.23-.76-.04-.21,.21-.23,.55-.04,.76,.15,.17,3.81,4.11,9.06,3.62,.3-.02,.53-.3,.48-.59-.02-.06-.04-.13-.06-.19Z"/>
    <path class="cls-11" d="M279.04,213.82c.17,.04,.36-.02,.48-.15,.21-.21,.21-.55,0-.76-.13-.13-3.2-3.16-7.61-1.69-.27,.08-.44,.4-.34,.7,.08,.27,.4,.44,.7,.34,3.77-1.24,6.39,1.33,6.49,1.43,.06,.06,.17,.11,.27,.13Z"/>
    <path class="cls-17" d="M307.24,382.05c.04,5.44,1.12,11.17,3.08,17.7h-125.72c.48-1.54,.99-3.06,1.48-4.51,1.98-5.88,3.77-10.88,3.73-13.87-.08-3.22-.15-6.45-.15-9.69,0-11.13,.51-22.23,1.77-32.81h0c3.92-33.15,14.98-60.99,39.07-67.08,3.06-.78,6.34-1.2,9.82-1.24l.02,.02c1.88,1.5,4.51,3.35,7.33,4.87,.08,.04,.19,.11,.27,.15,4.09,2.17,8.54,3.58,11.72,2.26h0c1.83-.78,3.25-2.47,3.92-5.48h0s.02,0,.02,.02c1.62,.99,3.2,2.13,4.72,3.37,.67,.55,1.33,1.1,1.98,1.69,11.04,9.84,19.33,24.66,25.52,32.12h0c5.56,6.28,9.48,12.01,12.03,17.79,1.75,3.96,2.82,7.92,3.33,12.06,1.77,14.02-4.32,27.82-3.96,42.66Z"/>
    <path class="cls-16" d="M211.68,355.74c-10.16,21.2-7.65,32.88,0,43.16,.21,.27,.42,.57,.65,.84h-24.26l-1.98-4.51-5.1-11.61,8.7-11.95,17.64-24.22,20.61-28.3c-.15,.36-5.21,13.11-13.72,31.26-.84,1.73-1.69,3.5-2.55,5.33Z"/>
    <path class="cls-17" d="M240.39,278.67c-.02,.36-.04,.7-.06,1.05-.95,14.54-6.11,27.38-12.39,39.43-4.89,9.36-10.45,18.25-15.26,27.1-.53,.97-1.03,1.94-1.54,2.89-3.37,6.45-6.26,12.92-8.11,19.56-2.78,10.05-2.57,21.48,4.11,31.04h-59.33c-12.41-33.09,.95-72.94,11.32-87.51,1.85-2.59,3.71-5.04,5.56-7.31,1.98-2.44,3.98-4.72,5.96-6.85,22.26-23.73,44.62-28.35,57.79-28.6,7.38-.15,11.89,1.07,11.89,1.07,0,.19,.02,.38,.02,.57,.17,2.57,.17,5.08,.04,7.55Z"/>
    <path class="cls-16" d="M228.46,269.46c.76,.93,1.6,1.85,2.49,2.76,2.7,2.74,5.94,5.33,9.38,7.52,5.61,3.54,11.76,6.03,17.09,6.28,1.56,.08,3.03-.02,4.4-.36,5.77-1.35,7.82-5.16,8.51-8.14,.51-2.15,.3-3.86,.3-3.86-2.85-.93-5.21-1.24-6.98-1.31,0,0-.02,0-.02-.02v.02c-.61,3.39-2.32,5.1-4.62,5.67-5.4,1.37-13.93-3.56-18.63-7.48-.02,0-.02-.02-.02-.02,0,0-4.51-1.22-11.91-1.07Z"/>
  </g>
  <g id="_5" data-name="5">
    <path class="cls-14" d="M74.5,326.72c-12.69,0-25.23-3.25-36.25-9.4-11.38-6.36-20.97-15.64-27.67-26.81-6.91-11.53-10.58-24.76-10.58-38.27,0-10.05,1.96-19.81,5.86-29,3.75-8.87,9.13-16.84,15.95-23.67,6.83-6.83,14.8-12.2,23.67-15.95,9.19-3.88,18.95-5.86,29-5.86s19.81,1.96,29,5.86c8.87,3.75,16.84,9.13,23.67,15.95,6.83,6.83,12.2,14.8,15.95,23.67,3.88,9.19,5.86,18.95,5.86,29,0,27.19-14.82,52.2-38.65,65.31-10.88,6.01-23.27,9.17-35.81,9.17Z"/>
    <path class="cls-6" d="M142.03,252.24c0,25.52-14.16,47.74-35.05,59.2-9.63,5.29-20.72,8.32-32.48,8.32s-23.12-3.1-32.86-8.51c-20.7-11.55-34.67-33.64-34.67-59.01,0-37.3,30.22-67.53,67.53-67.53s67.53,30.24,67.53,67.53Z"/>
    <path class="cls-15" d="M102.39,234.26c-.21-.36-.4-.7-.59-1.05-2-4-2.68-9.51-2.68-9.51-.82-7.76-1.1-15.64-4.85-21.73-4.22-6.41-10.39-5.77-10.39-5.77,0,0-7.73-8.35-20.23-2.17-12.75,6.3-12.56,18.63-18.46,23.84-13.83,12.98-12.08,24.57-4.26,36.78,7.82,12.2,65.19,12.08,67.84,.48,2.66-11.61-3.9-16.86-6.39-20.86Z"/>
    <path class="cls-1" d="M70.98,232.75v7.5c0,.63,.17,1.26,.48,1.81l1.79,3.1c1.45,2.51,5.14,2.36,6.39-.3l1.37-2.93c.21-.48,.34-.99,.34-1.52v-7.69c0-1.98-1.6-3.6-3.6-3.6h-3.16c-2,.02-3.6,1.62-3.6,3.63Z"/>
    <path class="cls-3" d="M70.98,229.14v4.68c6.07,2.93,10.35,1.35,10.35,1.35v-6.05h-10.35v.02Z"/>
    <path class="cls-17" d="M107,311.46c-9.63,5.29-20.72,8.32-32.48,8.32s-23.12-3.1-32.86-8.51c3.29-22.66,17.58-35.24,15.55-68.47,2.85-1.66,10.37-3.92,13.76-4.85,2.17,10.96,10.18,10.05,10.35-.04,2.68,.86,10.01,3.14,12.52,4.22,1.03,.42,1.85,1.18,2.51,2.21,4.34,6.87,.91,25.69,4.64,34.08,3.48,8.26,5.86,21.05,6.01,33.05Z"/>
    <path class="cls-1" d="M85.36,286.11s7.67-3.65,12.56,0c0,0-3.01,6.13-8.32,6.2l-4.24-6.2Z"/>
    <path class="cls-16" d="M106.62,304.42c-7.8,2.68-18.61,2.59-32.71-1.83h0c-5.31,1.77-17.24,4.03-25.44,3.41-.95-.06-1.88-.23-2.78-.46-.95-.25-1.94-.55-2.72-.82,1.79-8.64,10.88-17.45,13.4-16.35,6.2,2.7,29-1.22,29-1.22,4.7,1.22,4.22,5.8,4.22,5.82,6.49-1.73,16.67,2.55,17.03,11.47Z"/>
    <path class="cls-17" d="M46.09,304.61c.59,.15,1.18,.25,1.77,.32,8.22,.78,20.59-1.54,26.03-3.35,11.47-3.71,15.66-9.65,15.66-9.65,0,0,.48-4.59-4.22-5.82,0,0-22.78,3.92-29,1.22-2.51-1.1-4.13-8.62-2.76-12.03,5.44-13.59,5.92-33.59,5.92-33.59-29.55,10.92-44.13,54.97-13.4,62.91Z"/>
    <path class="cls-17" d="M73.89,301.56c60.28,18.97,60.78-41.41,19.96-59.45,0,0,1.1,18.78,4.3,28.09,4.85,14.18-2.07,20.02-8.58,21.71l-15.68,9.65Z"/>
    <path class="cls-1" d="M48.73,285.12c1.1-1.96,4.09-4.36,8.28-2.89h0c6.2,2.47,7.57,6.13,7.57,6.13-2.17,.02-4.87,.61-6.7,.15-.93,.32-1.66,1.14-2.15,3.06-.46,2.02-2.3,.99-2-.8-.74,1.9-2.57,.84-1.88-1.16-2.63,1.45-1.22-3.27-.34-4.4-.38,.3-.72,.65-1.01,1.1-1.37,1.98-2.82,.72-1.77-1.18Z"/>
    <path class="cls-3" d="M53.74,290.98c.48-.06,.51-2.91,2.36-4.15,.61-.61,1.75-.11,1.98-.51-.34-.72-1.71-.21-2.26,.13-1.69,1.2-2.72,4.49-2.09,4.53Z"/>
    <path class="cls-3" d="M51.85,289.82c.44,.08,1.18-5.46,3.92-5.21,.13,.02,.25-.08,.25-.21-2.38-1.69-5.08,5.67-4.17,5.42Z"/>
    <path class="cls-3" d="M51.42,285.41c.46-.08,.91-2.51,3.44-2.19,.13,.02,.25-.06,.27-.19,.02-.13-.06-.23-.19-.25-2.57-.4-4.28,2.59-3.52,2.63Z"/>
    <path class="cls-1" d="M64.34,213.61c-.95,6.28-.42,14.33,5.73,17.79,.23,.15,.46,.27,.72,.4,9.8,6.13,26.01-2.44,20.42-13.8-.67-1.22-1.24-2.89-1.43-4.09h0c.04-20.78-22.42-18.29-25.44-.3Z"/>
    <path class="cls-3" d="M84.64,200.98l-.42,1.39c3.16,1.41,4.99,8.16,5.52,11.4-.44-4.95-.93-9.97-5.1-12.79Z"/>
    <path class="cls-3" d="M64.01,217.87c-.11,4.34,.8,9.23,4.15,12.1-3.88-4.11-2.42-11.02-2.42-11.02l-1.73-1.07Z"/>
    <path class="cls-3" d="M64.34,213.61l2.85,2.42c4.66-.65,10.6-6.09,10.6-6.09l-8.56-6.49c-2.42,2.55-4.19,6.09-4.89,10.16Z"/>
    <path class="cls-15" d="M64.26,214.16s19.62-2.51,20.51-13.11c0,0-3.1-3.92-8.05-3.65-5.37,.32-12.62,5.25-12.46,16.76Z"/>
    <path class="cls-1" d="M60.74,215.02c-.44,5.46,6.3,6.03,6.81,.57,.44-5.48-6.3-6.03-6.81-.57Z"/>
    <path class="cls-11" d="M62.09,216.58c.17,.04,.34-.11,.32-.27-.15-3.01,1.41-3.81,3.06-2.49,.27,.21,.63-.21,.34-.42-1.92-1.54-4.11-.7-3.94,2.93,.02,.11,.11,.23,.23,.25Z"/>
    <path class="cls-11" d="M64.66,216.94c.78,.06,.04-2.72-1.94-3.5-.15-.06-.3,.02-.36,.15-.06,.15,.02,.3,.17,.34,1.98,.84,1.6,2.82,2.13,3.01Z"/>
    <path class="cls-11" d="M82.64,216.01c.65-.65-.4-1.66-1.05-.99-.65,.65,.4,1.66,1.05,.99Z"/>
    <path class="cls-11" d="M88.75,216.77c.65-.65-.4-1.66-1.05-.99-.65,.65,.4,1.66,1.05,.99Z"/>
    <path class="cls-11" d="M85.08,222.14c1.22,.21,3.06-.11,1.88-1.56-1.1-1.1-1.22-4.05-1.24-4.09,0-.34-.57-.34-.55,.02,0,.13,.15,3.2,1.39,4.43,.15,.15,.3,.34,.19,.46-1.05,.84-2.55-.44-2.85-.06-.19,.55,.78,.67,1.18,.8Z"/>
    <path class="cls-16" d="M53.34,281.77c-.21,0-.4-.15-.42-.36-.02-.13-.48-3.25,.55-7.44,1.03-4.11,2.99-10.24,3.01-10.31,.06-.23,.32-.36,.55-.27,.23,.06,.36,.32,.27,.55-.02,.06-1.98,6.18-2.99,10.24-1.01,4-.55,7.06-.55,7.08,.04,.23-.13,.44-.36,.48-.02,.02-.04,.02-.06,.02Z"/>
    <path class="cls-16" d="M98.09,286.21c-.08,0-.19-.02-.25-.08-.19-.15-.23-.42-.08-.59,.02-.02,2.19-3.03,1.39-9.44-.67-5.5-3.08-12.29-3.1-12.37-.08-.23,.04-.46,.25-.55,.23-.08,.46,.04,.55,.25,.02,.06,2.47,6.95,3.14,12.54,.84,6.79-1.45,9.93-1.56,10.05-.06,.13-.19,.19-.34,.19Z"/>
    <path class="cls-16" d="M73.34,302.65c-.17,0-.34-.11-.4-.27-.08-.21,.02-.46,.25-.55,.08-.04,8.7-3.39,15.66-9.82,.17-.17,.44-.15,.61,.02,.17,.17,.15,.44-.02,.61-7.06,6.53-15.85,9.97-15.93,9.99-.06,0-.11,.02-.17,.02Z"/>
    <path class="cls-16" d="M76.44,249.21c-8.3,0-8.11-10.52-8.11-10.52,1.56-.46,2.63-.76,2.63-.76,2.17,10.96,10.18,10.05,10.35-.04,0,0,1.39,.42,3.29,1.03,.42,3.46-1.48,10.28-8.16,10.28Z"/>
    <path class="cls-16" d="M65.12,288.68c-.21,0-.4-.17-.42-.38-.02-.23,.15-.44,.38-.48,.13-.02,12.58-1.56,19.9-2.15,.23-.02,.44,.15,.46,.4,.02,.23-.15,.44-.4,.46-7.29,.59-19.73,2.15-19.85,2.15t-.06,0Z"/>
    <path class="cls-11" d="M81.08,214.05c-.4,0-.65-.02-.67-.04-.15-.02-.23-.15-.23-.3,.02-.15,.15-.23,.3-.23,.02,0,1.96,.23,3.65-.65,.13-.06,.27-.02,.34,.11s.02,.27-.11,.34c-1.2,.67-2.51,.78-3.27,.78Z"/>
    <path class="cls-11" d="M89.59,215.04s-.06,0-.08-.02c-1.75-.59-2.55-1.54-2.59-1.58-.08-.11-.08-.27,.04-.36,.11-.08,.27-.08,.36,.04,0,.02,.76,.89,2.36,1.43,.13,.04,.21,.19,.17,.32-.04,.11-.15,.17-.25,.17Z"/>
    <path class="cls-11" d="M84.32,224.67c-.11,0-.21-.06-.25-.17-.17-.51-.44-.84-.84-1.03-.84-.42-1.96-.04-1.98-.02-.13,.04-.27-.02-.34-.15-.04-.13,.02-.27,.15-.34,.06-.02,1.33-.46,2.36,.04,.53,.25,.91,.72,1.12,1.35,.04,.13-.02,.27-.17,.32h-.04Z"/>
  </g>
  <g id="_4" data-name="4">
    <path class="cls-8" d="M139.9,170.99c-24.78,0-47.06-12.14-60.72-31.32-15.51-21.79-17.6-49.27-7.92-72.18,7.55-17.83,21.77-32.08,39.64-39.64,37.73-15.95,81.54,1.6,97.62,39.64,9.74,23.01,7.69,51.07-8.68,73.24-13.91,18.82-35.93,30.26-59.94,30.26Z"/>
    <circle class="cls-4" cx="139.9" cy="96.49" r="67.53"/>
    <path class="cls-15" d="M159.44,77.12c-.3-.3-.57-.57-.84-.86-2.97-3.35-5.04-8.49-5.04-8.49-2.8-7.27-5.12-14.82-10.33-19.73-5.73-5.08-11.55-2.89-11.55-2.89,0,0-9.63-6.05-20.11,3.16-10.69,9.4-7.29,21.27-11.63,27.82-9.97,16.12-8.45,34.31,3.69,42.24,28.49,18.59,72.71-4.05,72.27-15.95,0-15.89-13.05-22.07-16.46-25.29Z"/>
    <path class="cls-1" d="M178.62,108.1c-6.09-12.75-12.6-27.74-27.61-32.44-1.31-.4-2.97,.7-.8,1.69,1.58,.74,2.74,1.29,4.13,2.26-1.29,.23-2.32,1.1-1.58,2.04-1.35,.44-2.19,1.43-1.29,2.51-1.64,.63,2.26,5.71,3.48,3.48-.08,.15,2.28,4.19,5.18,5.21,3.67,1.29,3.63,18.61,3.63,18.61,0,0-4.28-8.11-8.18-14.39-13.93-12.9-19.62,3.98-13.43,10.85,7.71,8.54,20.49,30.81,31.66,33.38,21.01,2.7,11.21-22.36,4.81-33.19Z"/>
    <path class="cls-3" d="M157.79,80.75c-1.24-.99-3.22-1.07-3.22-1.01-.97-.61,2-.51,3.35,.7,.13,.11,.04,.34-.13,.32Z"/>
    <path class="cls-3" d="M156.57,82.48c-2.23-1.6-3.39-.44-3.75-.74-.15-.42,1.73-1.12,3.86,.4,.13,.11,.06,.34-.11,.34Z"/>
    <path class="cls-3" d="M155.1,84.37c-2.17-.93-3.29-.19-3.25-.15-.17,.17-.42-.11-.25-.27,.04-.04,1.07-.99,3.56,.06,.19,.06,.13,.36-.06,.36Z"/>
    <path class="cls-17" d="M179.21,144.94c-7.97,.61-15.74-4.26-21.48-9.23-3.33-2.89-5.96-5.8-7.57-7.69-1.07-1.29-1.69-2.09-1.69-2.09l-8.89-37.35s15.83,0,23.5,19.96c-.06-.27-2.44-10.28-.91-12.33,0,0,5.77-.48,8.05-4.17,0,0,5.46,2.36,11.61,13.13,6.2,10.75,13.11,38.57-2.63,39.77Z"/>
    <polygon class="cls-1" points="125.95 78.79 125.95 90.86 131.7 100.79 136.32 90.86 136.32 78.79 125.95 78.79"/>
    <path class="cls-3" d="M125.95,78.79v4.68c6.07,2.93,10.35,1.35,10.35,1.35v-6.05h-10.35v.02Z"/>
    <path class="cls-16" d="M159.65,120.56c-.34,7.25-1.88,10.62-1.92,15.17-3.33-2.89-5.96-5.8-7.57-7.69l1.37-25.27s8.54,8.83,8.11,17.79Z"/>
    <path class="cls-17" d="M160.72,160.75c-14.73,4.93-31.47,4.17-45.99-1.56-3.35-1.33-6.58-2.91-9.63-4.76-1.66-1.01-3.27-2.09-4.83-3.25,6.15-17.24,13.91-37.56,11.89-58.76,2.23-1.31,7.4-2.99,11.13-4.09,.89-.27,1.77-.53,2.63-.76,2.17,10.96,10.18,10.05,10.35-.04l3.29,1.03c5.88,5.46,17.35,19.14,18.38,28.81,.72,6.81-4.7,17.28-2.28,23.27,3.71,9.72,5.92,14.65,5.06,20.11Z"/>
    <path class="cls-1" d="M117.33,67.05c.72,6.32,3.31,13.95,10.14,15.68,.25,.08,.53,.15,.8,.21,11.06,3.37,24.49-9.1,16.14-18.63-.97-1.01-1.94-2.47-2.44-3.58h0c-5.33-20.09-26.39-11.84-24.64,6.32Z"/>
    <path class="cls-3" d="M133.66,49.58l-.04,1.45c3.41,.55,7.52,6.39,8.3,9.57-1.14-4.64-3.5-9.36-8.26-11.02Z"/>
    <path class="cls-3" d="M118.11,71.24c1.01,4.22,3.18,8.7,7.14,10.6-4.81-2.97-5.21-10.03-5.21-10.03l-1.94-.57Z"/>
    <path class="cls-3" d="M117.33,67.05l3.39,1.6c4.32-1.83,8.66-8.64,8.66-8.64l-9.95-4.07c-1.69,3.12-2.49,7-2.11,11.11Z"/>
    <path class="cls-16" d="M114.76,159.19c-3.35-1.33-6.58-2.91-9.63-4.76,1.39-10.69,5.75-36.65,15.47-42.32-.11,.25-6.47,15.79-7.17,23.6-.55,6.09,.72,18.23,1.33,23.48Z"/>
    <path class="cls-15" d="M117.39,67.6s18.31-7.5,16.4-17.98c0,0-4.03-2.99-8.73-1.43-5.1,1.71-10.81,8.35-7.67,19.41Z"/>
    <path class="cls-1" d="M114.21,69.35c.99,5.4,7.65,4.17,6.72-1.22-.99-5.4-7.65-4.17-6.72,1.22Z"/>
    <path class="cls-11" d="M115.92,70.51c.17-.02,.3-.19,.25-.34-.93-2.87,.38-4.05,2.3-3.2,.32,.15,.55-.36,.21-.51-2.26-.99-4.15,.4-3.06,3.84,.06,.13,.17,.21,.3,.21Z"/>
    <path class="cls-11" d="M118.49,70.19c.76-.15-.67-2.63-2.76-2.87-.15-.02-.3,.11-.3,.25-.02,.15,.08,.27,.25,.3,2.11,.25,2.26,2.26,2.8,2.32Z"/>
    <path class="cls-11" d="M135.62,64.63c.46-.8-.82-1.5-1.26-.67-.46,.8,.82,1.5,1.26,.67Z"/>
    <path class="cls-11" d="M141.71,63.76c.46-.8-.82-1.5-1.26-.67-.46,.8,.82,1.5,1.26,.67Z"/>
    <path class="cls-11" d="M139.58,69.92c1.24-.13,2.91-.91,1.41-2-1.33-.76-2.23-3.58-2.26-3.63-.11-.34-.63-.17-.53,.17,.04,.13,.97,3.06,2.49,3.92,.17,.11,.36,.25,.3,.4-.8,1.07-2.57,.23-2.76,.67-.04,.57,.91,.44,1.35,.46Z"/>
    <path class="cls-17" d="M124.22,93.48h0c.02,10.14-2.49,16.5-5.33,22.42-4.83,10.03-10.58,18.72-6.47,42.3-4.3-1.92-8.35-4.26-12.12-7-5.14-3.73-9.74-8.16-13.64-13.15,.76-13.78,4.11-25.99,10.66-34.9,5.92-8.03,14.44-13.38,25.99-14.8h0c.46,1.75,.76,3.46,.91,5.12Z"/>
    <path class="cls-16" d="M131.43,98.85c-8.3,0-8.11-10.52-8.11-10.52,1.56-.46,2.63-.76,2.63-.76,2.17,10.96,10.18,10.05,10.35-.04,0,0,1.39,.42,3.29,1.03,.42,3.46-1.5,10.28-8.16,10.28Z"/>
    <path class="cls-11" d="M132.57,63.7c-.06,0-.15-.02-.19-.08-.11-.11-.11-.27,0-.38l.06-.06c1.39-1.45,2.91-1.98,3.92-2.19,.15-.02,.27,.06,.32,.21,.02,.15-.06,.27-.21,.32-.95,.19-2.34,.7-3.63,2.04l-.06,.06c-.06,.06-.15,.08-.21,.08Z"/>
    <path class="cls-11" d="M141.59,61.53s-.02,0,0,0c-1.14-.06-2.19-.4-3.2-.95-.02-.02-.04-.02-.06-.04-.13-.04-.19-.19-.15-.34s.19-.21,.34-.17c.04,.02,.06,.02,.13,.06,.93,.53,1.92,.82,2.95,.89,.15,0,.25,.13,.25,.27,0,.17-.13,.27-.25,.27Z"/>
    <path class="cls-11" d="M139.25,73.1s-.08,0-.13-.02c-.13-.06-.19-.23-.13-.36,.02-.06,.78-1.52,2.4-1.73,.15-.02,.27,.08,.3,.23,.02,.15-.08,.27-.23,.3-1.35,.17-1.98,1.43-2,1.43-.02,.11-.13,.15-.21,.15Z"/>
  </g>
  <g id="_3" data-name="3">
    <path class="cls-9" d="M408.17,297.95c-11.76,0-23.04-2.68-33.47-7.92-12.14-6.11-22.38-15.43-29.63-26.96-7.46-11.84-11.4-25.54-11.4-39.6,0-10.05,1.96-19.81,5.86-29,3.75-8.87,9.13-16.84,15.95-23.67,6.83-6.83,14.8-12.2,23.67-15.95,9.19-3.88,18.95-5.86,29-5.86s19.81,1.96,29,5.86c8.87,3.75,16.84,9.13,23.67,15.95,6.83,6.83,12.2,14.8,15.95,23.67,3.88,9.19,5.86,18.95,5.86,29,0,12.77-3.29,25.4-9.53,36.46-6.03,10.73-14.73,19.9-25.14,26.49-11.87,7.52-25.65,11.53-39.79,11.53Z"/>
    <path class="cls-12" d="M475.7,223.45c0,24.03-12.54,45.1-31.42,57.07-10.43,6.62-22.82,10.45-36.1,10.45-10.92,0-21.22-2.59-30.33-7.19-22.07-11.11-37.2-33.95-37.2-60.34,0-37.3,30.22-67.53,67.53-67.53s67.53,30.24,67.53,67.53Z"/>
    <path class="cls-15" d="M417.76,171.94s-10.2-12.2-22.3-1.1c-6.89,6.32-12.1,21.62-17.07,31.55-16.71,33.43,2.87,50.16,10.81,49.27,6.6-.74,31.17-.78,37.7,.02,6.83,.82,28.16-5.14,20.63-35.43-2.78-11.25-15.36-19.62-17.39-26.56-2-6.93-4.05-18.86-12.39-17.77Z"/>
    <path class="cls-1" d="M415.13,204.46v12.12l-.63,2.26c-1.43,5.08-8.64,5.08-10.07,0l-.63-2.26v-12.12h11.34Z"/>
    <path class="cls-3" d="M415.13,204.46v5.44c-6.39,2.02-11.34,0-11.34,0v-5.44h11.34Z"/>
    <path class="cls-17" d="M444.27,280.52c-10.43,6.62-22.82,10.45-36.1,10.45-10.92,0-21.22-2.59-30.33-7.19,.46-4.66,1.2-11.42,2.19-17.6,.13-.78,.25-1.54,.38-2.3,.76-4.26,1.62-8.05,2.59-10.39,.4-.95,.8-1.96,1.18-3.01,3.35-9,6.11-21.1,6.51-30.1,.04-.8,.04-1.6,.04-2.34,.3-.15,.61-.3,.95-.44,1.41-.63,3.12-1.31,4.83-1.94,.53-.19,1.03-.38,1.54-.57,.93-.34,1.81-.65,2.61-.93,1.83-.63,3.12-1.05,3.12-1.05,1.1,4.55,10.28,4.72,11.34,.21,0,0,1.33,.36,3.18,.93,.59,.19,1.24,.38,1.92,.61,.67,.21,1.39,.46,2.11,.72,2.23,.78,4.47,1.66,5.86,2.47-.86,11.17,5.1,20.93,8.83,31.23,.02,.08,.06,.15,.08,.23,1.39,4.09,2.93,9.74,4.28,15.68,.21,.93,.42,1.83,.61,2.76,.93,4.32,1.73,8.68,2.28,12.56Z"/>
    <path class="cls-3" d="M415.13,204.46v7.1c-3.58,1.33-7.76,1.24-11.34-.15v-6.95h11.34Z"/>
    <path class="cls-1" d="M423.35,198.35c-.59,13.99-17.6,15.93-24.76,8.09-2.36-2.59-3.67-6.26-2.93-10.9,.4-3.71,1.73-6.18,2.36-12.08v-.08c1.52-13.59,20.89-14.29,22.61-.02,.72,5.63,2.76,9.78,2.72,14.98Z"/>
    <path class="cls-11" d="M413.15,189.96c-.44-.84,.91-1.54,1.33-.67,.42,.86-.91,1.54-1.33,.67Z"/>
    <path class="cls-11" d="M404.25,189.98c-.44-.84,.91-1.54,1.33-.67,.44,.84-.91,1.54-1.33,.67Z"/>
    <path class="cls-11" d="M408.74,195.78c-1.35-.02-3.46-.93-1.75-2.13,1.39-.76,2.42-3.67,2.44-3.69,.11-.34,.65-.15,.53,.19-.04,.13-1.12,3.14-2.7,4-1.1,.67,1.18,1.33,2.13,.99,.15-.04,.3,.04,.36,.19,.08,.48-.65,.4-1.01,.44Z"/>
    <path class="cls-3" d="M397.82,188.89s3.29-3.33,8.51-5.21c5.23-1.9,9.13-5.08,9.13-5.08,0,0-.48,7.55,5.82,12.35l-2.78-10.75-1.83-4.72-3.31-1.24-6.32,5.44-8.75,4.47-.46,4.74Z"/>
    <path class="cls-3" d="M397.21,192.79c-.95,3.9,.08,11.21,1.37,13.66-2.36-2.59-3.67-6.26-2.93-10.9,.4-3.71,1.73-6.18,2.36-12.08v-.08l1.79-.44,.86,3.69c-.32,.19-2.51,2.26-3.46,6.15Z"/>
    <path class="cls-3" d="M421.83,192.79c.95,3.9-.08,11.21-1.37,13.66,2.36-2.59,3.67-6.26,2.93-10.9-.4-3.71-1.73-6.18-2.36-12.08v-.08l-1.79-.44-.86,3.69c.32,.19,2.51,2.26,3.46,6.15Z"/>
    <path class="cls-15" d="M416.67,175.46s.59,1.41-12.86,8.09c-6.64,3.29-8.35,10.64-8.35,10.64l-1.71-5.9s-.72-8.77,5.63-14.37c6.36-5.61,15.45-2.59,17.28,1.54Z"/>
    <path class="cls-15" d="M416.67,175.46s-2.42,9.27,6.45,17.3l2.95-1.94s-2.28-15.74-9.4-15.36Z"/>
    <path class="cls-1" d="M397.19,189.92c.21-.8-.23-1.24-.89-.76-2.23,1.66-6.01,9.38-5.88,10.83-.23,1.56,.53,4.85-2.23,11.02,0,0,2.66,3.39,8.28,1.12,3.22-8.26-2.89-11.99,.72-22.21Z"/>
    <path class="cls-16" d="M398.08,215.08s-.08,27.63-7.1,41.24c-2.7,5.23-6.85,8.18-10.94,9.86,.13-.78,.25-1.54,.38-2.3,.76-4.26,1.62-8.05,2.59-10.39,.4-.95,.8-1.96,1.18-3.01,3.35-9,6.11-21.1,6.51-30.1l.99-2.78c1.41-.63,3.12-1.31,4.83-1.94,.53-.21,1.05-.4,1.56-.59Z"/>
    <path class="cls-16" d="M442,267.96c-4.59-1.79-12.33-6.85-16.99-18.02-5.18-12.39-4.76-35.07-4.76-35.07h0c.67,.21,1.39,.46,2.11,.72,2.23,.78,4.47,1.66,5.86,2.47-.86,11.17,5.1,20.93,8.83,31.23,.02,.08,.06,.15,.08,.23,1.39,4.09,2.93,9.74,4.28,15.68,.19,.91,.4,1.83,.59,2.76Z"/>
    <path class="cls-1" d="M421.74,189.92c-.21-.8,.23-1.24,.89-.76,2.23,1.66,6.01,9.38,5.88,10.83,.23,1.56-.61,4.85,2.15,11.02,0,0-2.66,3.39-8.28,1.12-3.08-8.24,2.95-12.08-.63-22.21Z"/>
    <path class="cls-17" d="M381.83,263.05c-14.58,9.51-23.88-7.14-15.62-21.92,7.31-12.86,15.2-28.03,22.59-31.57,0,0,2.63,3.08,7.76,2.42-.02,9.67-.19,40.91-14.73,51.07Z"/>
    <path class="cls-17" d="M437.05,263.05c14.58,9.51,23.88-7.14,15.62-21.92-7.31-12.86-17.09-30.64-22.59-31.57,0,0-2.63,3.08-7.76,2.42,.02,9.67,.19,40.91,14.73,51.07Z"/>
    <path class="cls-11" d="M407.56,187.96s-.06,0-.08-.02l-4.4-1.62c-.15-.04-.21-.21-.15-.34,.04-.15,.21-.21,.34-.15l4.4,1.62c.15,.04,.21,.21,.15,.34-.04,.08-.15,.17-.25,.17Z"/>
    <path class="cls-11" d="M411.35,187.96c-.11,0-.21-.06-.25-.19-.04-.15,.04-.3,.17-.34l4.34-1.35c.15-.04,.3,.04,.34,.17,.04,.15-.04,.3-.17,.34l-4.36,1.35s-.04,.02-.06,.02Z"/>
    <path class="cls-11" d="M409.37,200.86c-.7,0-1.26-.27-1.5-.8h0c-.36-.8,.3-1.83,1.48-2.34,.55-.23,1.12-.32,1.62-.23,.55,.08,.93,.36,1.12,.76,.17,.4,.11,.89-.21,1.33-.27,.42-.74,.78-1.29,1.01-.42,.19-.84,.27-1.22,.27Zm-1.01-1.01c.23,.51,1.16,.63,2.02,.25,.44-.19,.82-.48,1.05-.82,.21-.3,.25-.59,.15-.82s-.36-.4-.72-.44c-.4-.06-.86,0-1.31,.19-.86,.38-1.41,1.14-1.2,1.64h0Z"/>
    <path class="cls-16" d="M400.69,214.16s2.51,5.52,9.29,5.21c6.81-.32,8.26-5.14,8.26-5.14,0,0-1.71-1.12-3.12-.91,0,0-1.69,2.78-5.16,2.74-4.62-.04-6.18-2.95-6.18-2.95,0,0-1.69-.06-3.1,1.05Z"/>
  </g>
  <g id="_2" data-name="2">
    <g>
      <path class="cls-10" d="M168.92,47.01c-.04,4.87-7.31,4.93-7.42,.04,.04-4.87,7.29-4.91,7.42-.04Z"/>
      <path class="cls-10" d="M154.53,14.82c-1.54-9.08,6.49-16.48,15.45-14.5,11.74,2.82,11.93,18.55,3.94,25.61-3.77,2.99-7.59,8.54-7.95,12.81-.32,2.53-2.36,2.07-2.82-.27-1.33-10.77,4.81-12.81,8.3-20.7,3.6-13-11.3-12.81-15.09-2.76-.36,.84-1.69,.78-1.83-.19Z"/>
    </g>
    <g>
      <path class="cls-10" d="M184.71,61.99c-1.16,3.63-6.58,1.98-5.54-1.66,1.18-3.63,6.58-1.98,5.54,1.66Z"/>
      <path class="cls-10" d="M181.42,34.72c.95-7.1,8.64-10.77,14.84-7.23,8.09,4.81,4.59,16.54-2.97,19.98-3.5,1.35-7.61,4.59-8.87,7.71-.82,1.81-2.23,.99-2.04-.86,1.5-8.32,6.53-8.43,10.96-13.49,5.69-8.85-5.46-12.14-10.6-5.54-.46,.55-1.43,.19-1.31-.57Z"/>
    </g>
  </g>
  <g id="_1" data-name="1">
    <path class="cls-5" d="M446.23,139.09c-4.62-.17-9.23-.23-13.87-.19,4.97-7.36,9.74-14.88,13.59-22.91-8.43,7.33-15.83,15.76-22.91,24.38-1.81,2.09-.11,5.63,2.7,5.46,4.59,.13,9.19,.17,13.78,.08-4.53,6.79-8.87,13.76-12.39,21.14,5.94-5.1,11.28-10.83,16.46-16.69,1.83-2.61,5.06-4.68,5.77-7.88,.08-1.81-1.33-3.33-3.14-3.39Z"/>
    <path class="cls-5" d="M469.14,159.28c-3.41-1.03-6.85-1.98-10.33-2.87,5.16-4.53,10.2-9.21,14.67-14.46-7.76,3.84-14.94,8.66-21.92,13.72-1.77,1.2-1.18,4.17,.95,4.62,3.41,1.01,6.83,1.92,10.28,2.78-4.72,4.19-9.32,8.54-13.43,13.36,5.44-2.66,10.56-5.88,15.57-9.25,1.9-1.6,4.7-2.51,5.86-4.74,.42-1.35-.34-2.76-1.67-3.16Z"/>
  </g>
</svg>