<svg width="50" height="50" viewBox="0 0 50 50" fill="none" xmlns="http://www.w3.org/2000/svg">
<path d="M30.4 9.89995L16.4 23.5C15.7 24.2 15.7 25.4 16.4 26.1L30.4 39.7C30.8 40.1 31.4 40.2999 32 40.2999C32.6 40.2999 33.1 39.9999 33.5 39.5999C33.9 39.1999 34.1 38.6 34.1 38C34.1 37.4 33.8 36.9 33.4 36.5L22.7 26.1C22 25.4 22 24.2 22.7 23.5L33.5 13C33.9 12.6 34.2 12 34.2 11.5C34.2 10.9 34 10.4 33.6 9.89995C33.2 9.49995 32.6 9.19995 32.1 9.19995C31.4 9.19995 30.9 9.49995 30.4 9.89995Z" fill="#2F2D84"/>
<path d="M35.1999 11.4C35.1999 11.5 35.1999 11.5 35.1999 11.4C35.1999 12.3 34.7999 13.1 34.1999 13.7L23.3999 24.2C23.1999 24.4 23.0999 24.6 23.0999 24.8C23.0999 25 23.1999 25.2 23.3999 25.4L34.1999 35.8C34.7999 36.4 35.1999 37.2001 35.1999 38C35.1999 38.9 34.8999 39.7 34.2999 40.3C33.6999 40.9 32.8999 41.3 32.0999 41.3C31.2999 41.3 30.3999 41 29.7999 40.4001L15.7999 26.8C15.1999 26.3 14.8999 25.5 14.8999 24.8C14.8999 24 15.1999 23.3 15.7999 22.8L29.7999 9.20005C30.3999 8.60005 31.1999 8.30005 32.0999 8.30005C32.8999 8.30005 33.7999 8.70005 34.2999 9.30005C34.7999 9.80005 35.1999 10.6 35.1999 11.4ZM16.7999 24.8C16.7999 25 16.8999 25.2 17.0999 25.4L31.0999 39C31.2999 39.2001 31.5999 39.3 31.9999 39.3C32.2999 39.3 32.5999 39.2001 32.7999 38.9001C32.9999 38.7001 33.0999 38.4 33.0999 38C33.0999 37.7001 32.9999 37.4001 32.6999 37.2001L21.9999 26.8C21.3999 26.3 21.0999 25.5 21.0999 24.8C21.0999 24 21.3999 23.3 21.9999 22.8L32.7999 12.4C32.9999 12.2 33.1999 11.9 33.1999 11.6C33.1999 11.3 33.0999 11 32.8999 10.7C32.6999 10.5 32.3999 10.3 32.0999 10.3C31.7999 10.3 31.5999 10.4 31.2999 10.6L31.1999 10.7L17.1999 24.3C16.8999 24.3 16.7999 24.5 16.7999 24.8Z" fill="#2F2D84"/>
</svg>
