<?xml version="1.0" encoding="utf-8"?>
<!-- Generator: Adobe Illustrator 26.3.1, SVG Export Plug-In . SVG Version: 6.00 Build 0)  -->
<svg version="1.1" id="Calque_1" xmlns="http://www.w3.org/2000/svg" xmlns:xlink="http://www.w3.org/1999/xlink" x="0px" y="0px"
	 viewBox="0 0 419.5 402.5" style="enable-background:new 0 0 419.5 402.5;" xml:space="preserve">
<style type="text/css">
	.st0{fill:#F5F5F5;}
	.st1{fill:#E0E0E0;}
	.st2{fill:#F0CD7A;}
	.st3{fill:#EAB780;}
	.st4{fill:#FFA8A7;}
	.st5{fill:#F3F5F8;}
	.st6{fill:#FFFFFF;}
	.st7{fill:#8B3D41;}
	.st8{fill:#AF5850;}
	.st9{fill:#F28F8F;}
	.st10{fill:#FFBDA7;}
	.st11{fill:#F0997A;}
	.st12{fill:#BA68C8;}
	.st13{fill:#586FA7;}
	.st14{fill:#A7336E;}
	.st15{fill:#232D48;}
	.st16{fill:#333467;}
	.st17{opacity:0.3;enable-background:new    ;}
	.st18{fill:#F0F0F0;}
	.st19{fill:#D789B4;}
	.st20{fill:#263238;}
	.st21{fill:#8DA1C8;}
	.st22{fill:#9A4A4D;}
	.st23{opacity:0.6;}
	.st24{opacity:0.3;}
</style>
<g id="Floor">
	<path id="Floor-2" class="st0" d="M91.4,229.4c-65.3,37.4-65.2,98.6,0,136.2c65.2,37.6,170.8,37.6,235.9,0s65-98.3,0-136.2
		C263.3,192,157,191.9,91.4,229.4z"/>
</g>
<g id="Shadow">
	<ellipse id="Shadow-2" class="st1" cx="208.1" cy="333" rx="67.7" ry="39.1"/>
</g>
<g id="Hand_4">
	<g id="Hand">
		<g id="Hand-2">
			<path class="st2" d="M267.4,182.3c-1.6,1.5-2.1,5.9,4,9.6c6.1,3.7,13.6,4.7,17.7,6.1c1.7,0.6,7.4,3.5,13.4,6.6
				c8.1,4.2,16.7,8.8,16.7,8.8l6.5-3.2l3.9-15.6c-4.2-1.4-8.1-2.7-11.8-3.7l0,0c-12.3-3.6-21.7-5.4-28.5-7.1
				C280.4,181.8,269,180.8,267.4,182.3L267.4,182.3z"/>
			<path class="st3" d="M333.6,194c5.3,1.1,7.8,4.8,14.6,13.1c4,4.9,6.5,7.2,8.3,8.9c1.4,1.2,2.2,1.9,7.6,4.5
				c4,2,26.7,13.7,26.7,13.7c1.7,0.7,2.6,5.1,2.6,9.5c0,8.7-8.3,20.5-14.3,24.8c-3.5,2.6-6.8,3.5-9.3,2c0,0-23.4-15.5-27-18
				c-4-2.7-4.7-3.1-7.3-4.7c-1.7-1-4.1-1.2-6.1-0.8c-1.2,0.2-2.8,0.4-5.4,0.4c-8.7,0-14.2-5.6-21-7.4c5-17.7,12.3-26.8,21.5-30.1
				L333.6,194L333.6,194z"/>
			<path class="st3" d="M324,222.5c2.4,6.5,11.2,12.2,16.3,12c-12.3,3.1-20.5-11.8-20.5-11.8c-0.3,5.1-3.7,8.1-3.7,8.1
				c1.1,5.1-0.6,7.4-2.7,8.8c-2.1,1.5-6.3,1.4-8.3,1.2c-0.7-0.3-1.4-0.5-2.2-0.7c1.1-3.8,2.2-7.2,3.4-10.2
				c4.6-11,10.6-17.8,18.1-19.9C324.4,209.9,321.6,216,324,222.5L324,222.5z"/>
			<path class="st3" d="M353.4,225.4c0.8-2.1,2.2-8.5-1.1-13.6l0,0c1.8,1.9,3.1,3.1,4.2,4.1c1.4,1.2,2.2,1.9,7.6,4.5
				c4,2,26.7,13.7,26.7,13.7c1.2,0.5,2.1,3,2.4,6c-4.5-2.4-26.9-15.5-29.8-16.2C357.9,222.7,352.6,227.5,353.4,225.4L353.4,225.4z"
				/>
			<path class="st3" d="M342,241.1c1.8-2.2,2.4,12.1,5.4,14.5c-1.9-1.3-3.7-2.5-4.6-3.1c-4-2.7-4.7-3.1-7.3-4.7
				c-1.1-0.6-2.4-0.9-3.8-1C335.9,246.5,340.7,242.6,342,241.1L342,241.1z"/>
			<g>
				<path class="st3" d="M288.9,221c-1.9,4-2.4,4.9-0.1,9.6c2.2,4.6,3.5,5.7,5.4,7.8c1.5,1.6,3.2,1.5,5.9,1.5
					c2.7,0.1,6.9-0.1,10-0.8c3.1-0.7,4.3-2.9,4.2-4.9c-0.1-2-0.9-5.1-0.9-5.1L288.9,221L288.9,221z"/>
				<path class="st2" d="M311.8,235.7c-0.5-1.4-1.7-2-4.4-1.9c-2.7,0.1-10-0.1-12.4-0.9c-2.2-0.8-5.3-6.9-6.7-10.4
					c0.2-0.4,0.4-0.9,0.7-1.4l24.5,8.2c0,0,0.8,3.1,0.9,5.1c0.1,2-1.1,4.2-4.2,4.9c-0.3,0.1-0.7,0.2-1.1,0.2
					C311.1,238.7,312.3,237.1,311.8,235.7L311.8,235.7z"/>
				<path class="st2" d="M300.2,240c2.8,0.2,5.6,0.2,8.4-0.2c1.9-0.2,3.9-0.7,5.1-2.3c1.9-2.4,0.5-5.6-0.1-8.2
					c0.2,0.9,0.3,1.8,0.5,2.7c0.6,2.8,0.1,5.6-2.8,6.7C307.6,239.8,303.8,239.8,300.2,240L300.2,240L300.2,240z"/>
				<g>
					<path class="st2" d="M289.1,223.5c-0.6,0.7-0.9,1.7-1.2,2.6c-0.1,0.4-0.2,0.8-0.3,1.2c0,0.1,0,0.3-0.1,0.4
						c-0.2-0.6-0.3-1.1-0.3-1.7c0-0.2,0.1-0.3,0.2-0.5C287.8,224.7,288.3,224,289.1,223.5C289,223.5,289.1,223.5,289.1,223.5
						L289.1,223.5z"/>
					<path class="st2" d="M288.5,227.3c0,0,0,0.2-0.1,0.2c0,0,0,0.1,0,0.1c0,0-0.1,0-0.1,0.1c-0.1,0-0.1,0-0.2,0
						c-0.1-0.1-0.1-0.1,0-0.2c0-0.1,0-0.2,0.1-0.2c0-0.2,0.1-0.3,0.2-0.5c0.1-0.2,0.1-0.3,0.2-0.5c0-0.1,0.1-0.2,0.1-0.2
						c0.1-0.1,0.1-0.2,0.2-0.2c0,0,0.1,0,0.1,0c0,0.1,0,0.2-0.1,0.2c0,0.1-0.1,0.2-0.1,0.2c-0.1,0.2-0.1,0.3-0.2,0.5
						C288.5,227,288.5,227.2,288.5,227.3L288.5,227.3z"/>
				</g>
			</g>
			<g>
				<path class="st3" d="M290,209.7c-1.5,1.9-3.6,5-2,9.1c1.1,2.9,3.6,8.1,4.7,9.6c1.1,1.5,2.6,2.7,6.5,2.8
					c3.9,0.1,10.9,0.2,13.8-1.6c2.9-1.8,3.7-4.6,3.4-8.2L290,209.7L290,209.7z"/>
				<path class="st2" d="M301.5,222.8c-3.9-0.6-5.3-1.5-6.3-2.6c-0.9-0.9-4.4-5.7-6.1-9.2c0.3-0.5,0.6-0.9,1-1.3l26.3,11.7
					c0.3,3.6-0.5,6.4-3.4,8.2c-0.4,0.2-0.9,0.5-1.4,0.6c1.4-1,2.3-2.6,2.3-4c0-1.3-0.6-2.1-2.6-2.3
					C309.2,223.8,305.4,223.4,301.5,222.8z"/>
				<path class="st2" d="M299.2,231.2c7.5,0.5,18.8,1,17.2-9.8C317.1,232.1,306.6,230.8,299.2,231.2L299.2,231.2z"/>
				<g>
					<path class="st2" d="M288,216.3c0.1-0.2,0.2-0.5,0.3-0.7c0.2-0.5,0.5-0.9,0.9-1.3c0,0,0.1,0,0,0c-0.3,0.5-0.4,1-0.6,1.5
						c-0.1,0.2-0.2,0.5-0.2,0.8c-0.1,0.2-0.1,0.5-0.2,0.8c-0.1,0.2-0.4-0.1-0.4-0.2C287.8,216.8,287.9,216.5,288,216.3L288,216.3z"
						/>
					<path class="st2" d="M287.9,214.9c-0.2,0.4-0.3,0.8-0.4,1.1c0-0.6,0.1-1.2,0.2-1.8c0.5-0.8,1.1-1.6,1.9-2c0,0,0,0,0,0
						C288.9,213.1,288.3,213.9,287.9,214.9L287.9,214.9z"/>
					<path class="st2" d="M288.1,219.1c0-0.1-0.1-0.2-0.1-0.3c0-0.1-0.1-0.2-0.1-0.3c0.5-0.5,0.8-1.1,1.1-1.7
						c0.5-0.9,0.9-1.9,1.2-2.9c0-0.1,0.1,0,0.1,0.3c-0.1,1.1-0.3,2-0.8,2.9C289.1,218,288.7,218.6,288.1,219.1L288.1,219.1z"/>
				</g>
			</g>
			<g>
				<path class="st3" d="M291.5,199.2c-2.2,3-3.7,5.6-2.7,8.2c1,2.6,4.5,8.5,6.1,10.3c1.6,1.8,2.1,2.6,7.6,3.8
					c5.6,1.1,11.7,1,13.8-0.1s5.7-5.7,3.9-8.4C318.3,210.4,291.5,199.2,291.5,199.2L291.5,199.2z"/>
				<path class="st2" d="M309.4,213.9c-4.4-0.8-16.9-10.2-18.8-13.4c0.3-0.4,0.6-0.9,0.9-1.3c0,0,26.9,11.2,28.7,13.9
					c1.7,2.4-1.1,6.5-3.2,8c2.1-2.4,1.7-4.5,0.8-5.5c-0.9-1-3.5-0.4-3.5-0.4s-3.2,2-6.5,3c-3.3,1-6.5-1.7-6.5-1.7L309.4,213.9
					L309.4,213.9z"/>
				<path class="st2" d="M302.5,221.5c4.4,1,9.1,1.6,13.5,0.3c2.3-1.1,4-3.4,4.6-5.8c0.2-1,0.2-2.1-0.5-2.9c0.5,0.9,0.5,1.9,0.2,2.9
					c-0.9,2.7-3,5.4-6,5.8C310.5,222.4,306.5,222,302.5,221.5L302.5,221.5L302.5,221.5z"/>
				<g>
					<path class="st2" d="M289.3,207.7c0.2-0.3,0.5-0.6,0.7-1c0.2-0.4,0.4-0.7,0.6-1.1c0.4-0.7,0.8-1.5,1.2-2.2c0,0,0.1,0,0,0
						c-0.2,0.8-0.5,1.7-0.9,2.4c-0.2,0.4-0.4,0.7-0.6,1.1c-0.2,0.3-0.4,0.8-0.7,1C289.5,208,289.2,207.8,289.3,207.7L289.3,207.7z"
						/>
					<path class="st2" d="M289.5,204.9c0.3-0.6,0.8-1.1,1.3-1.5h0c-0.4,0.5-0.7,1.1-1,1.6c-0.1,0.3-0.2,0.6-0.3,0.9
						c0,0.2-0.1,0.3-0.1,0.5c0,0.1,0,0.3-0.1,0.4c-0.1,0.2-0.4,0-0.4-0.1c0-0.3,0.1-0.6,0.2-0.9
						C289.2,205.4,289.3,205.1,289.5,204.9L289.5,204.9z"/>
					<path class="st2" d="M288.5,205.2c0.1-0.6,0.2-1.2,0.4-1.8c0.7-1,1.7-2,2.9-2.4c0,0,0.2,0,0.1,0.1c-1.2,0.6-2,1.9-2.7,2.9
						C288.9,204.4,288.7,204.8,288.5,205.2z"/>
				</g>
			</g>
			<g>
				<path class="st3" d="M299.8,209.8c1.6-2.1,3-3.4,5-5.6c1.7-1.8,3.4-4.4,7.2-8.7c2.2-2.5,3.6-3.2,6.6-3.6
					c2.9-0.5,6.1,0.3,14.9,2.2l-9.1,15.8l-5-1.5c0,0-3.3,3.6-7,6.1c-4.3,2.9-8.6,3.3-11,2C299,215.2,296.9,213.6,299.8,209.8z"/>
				<path class="st2" d="M319.4,208.4c-1.7-0.6-3.7-2.7-3.7-4.7c-0.8,1.4,0.1,4.4,2.8,5.7L319.4,208.4z"/>
				<path class="st2" d="M324.4,209.9c-1.7-0.6-3.4-1.1-5.1-1.7c-4.1,4-8.7,8.5-14.7,8.8c-1.9,0.1-3.8-0.7-5.3-1.9
					c0.7,0.7,1.5,1.2,2.4,1.7c7,2.4,13.3-3.6,17.7-8.3l-0.2,0C321,209,322.7,209.4,324.4,209.9L324.4,209.9L324.4,209.9z"/>
				<g>
					<path class="st4" d="M304.9,204.2c0.2,1.4,1.1,3.7,2.3,5.8c-2.9,3.3-5.6,5.9-7.5,5.3c-1.9-0.6-2.1-2.5-0.4-5
						C300.9,207.9,303.2,205.7,304.9,204.2L304.9,204.2z"/>
					<path class="st5" d="M304.9,204.2c0.2,1.4,1.1,3.7,2.3,5.8c-2.9,3.3-5.6,5.9-7.5,5.3c-1.9-0.6-2.1-2.5-0.4-5
						C300.9,207.9,303.2,205.7,304.9,204.2L304.9,204.2z"/>
					<path class="st6" d="M307.2,210L307.2,210c-2.5-1.1-3.1-3.9-2.3-5.8C305.1,205.5,305.9,207.9,307.2,210L307.2,210z"/>
				</g>
			</g>
			<g>
				<path class="st2" d="M278.5,182l-8.6,7c-4-2.2-5.6-5.1-4.1-7.1C267.3,180,272.7,180.6,278.5,182L278.5,182z"/>
				<path class="st3" d="M267.4,182.3c-1.6,1.5-2.1,5.9,4,9.6c2.9,1.8,6.9,3.6,11.6,4.6c3.3,1.6,8.4,3.2,10.6,3.9
					c1.7,0.6,2.5,1.6,8.5,4.7c1.6-1.5,5.1-5.7,7.8-8.8c3.4-3.8,2.3-3.4,7.8-5.3c-12.3-3.6-21.7-5.4-28.5-7.1
					C280.4,181.8,269,180.8,267.4,182.3L267.4,182.3z"/>
				<g>
					<path class="st2" d="M285.1,191.9c0.2-0.4,0.2-0.7,0.2-1.1c0-0.2,0.5-0.4,0.5-0.2c0,0.4,0.1,0.7,0.1,1.1c0,0.4-0.1,0.7-0.2,1.1
						c-0.2,0.7-0.5,1.4-0.9,2c-0.4,0.7-1,1.3-1.5,1.8c-0.1-0.1-0.3-0.1-0.4-0.2c-0.2-0.1-0.5-0.1-0.7-0.2c0.6-0.5,1.1-1.1,1.6-1.7
						c0.4-0.5,0.7-1.1,1-1.7C284.9,192.5,285,192.2,285.1,191.9L285.1,191.9z"/>
					<path class="st2" d="M293.2,200.3c0.6-0.4,1.1-0.9,1.6-1.4c1.2-1.3,2-2.8,2.7-4.4c0.1-0.2,0.7-0.4,0.6,0
						c-0.4,1.8-1.4,3.4-2.7,4.7c-0.5,0.5-1,1-1.5,1.4c-0.1-0.1-0.3-0.1-0.4-0.2C293.4,200.3,293.3,200.3,293.2,200.3L293.2,200.3z"
						/>
				</g>
			</g>
		</g>
	</g>
</g>
<g id="Hand_3">
	<g id="Hand-3">
		<g id="Hand-4">
			<path class="st7" d="M150.3,174.3c1.6,1.5,2.1,5.9-4,9.6s-13.6,4.7-17.7,6.1c-1.7,0.6-7.4,3.5-13.4,6.6
				c-8.1,4.2-16.7,8.8-16.7,8.8l-6.5-3.2l-3.9-15.6c4.2-1.4,8.1-2.7,11.8-3.7l0,0c12.3-3.6,21.7-5.4,28.5-7.1
				C137.2,173.8,148.7,172.8,150.3,174.3L150.3,174.3z"/>
			<path class="st8" d="M84.1,186c-5.3,1.1-7.8,4.8-14.6,13.1c-4,4.9-6.5,7.2-8.3,8.9c-1.4,1.2-2.2,1.9-7.6,4.5
				c-4,2-26.7,13.7-26.7,13.7c-1.7,0.7-2.6,5.1-2.6,9.5c0,8.7,8.3,20.5,14.3,24.8c3.5,2.6,6.8,3.5,9.3,2c0,0,23.4-15.5,27-18
				c4-2.7,4.7-3.1,7.3-4.7c1.7-1,4.1-1.2,6.1-0.8c1.2,0.2,2.8,0.4,5.4,0.4c8.7,0,14.2-5.6,21-7.4c-5-17.7-12.3-26.8-21.5-30.1
				L84.1,186L84.1,186z"/>
			<path class="st7" d="M93.7,214.5c-2.4,6.5-11.2,12.2-16.3,12c12.3,3.1,20.5-11.8,20.5-11.8c0.3,5.1,3.7,8.1,3.7,8.1
				c-1.1,5.1,0.6,7.4,2.7,8.8c2.1,1.5,6.3,1.4,8.3,1.2c0.7-0.3,1.4-0.5,2.2-0.7c-1.1-3.8-2.2-7.2-3.4-10.2
				c-4.6-11-10.6-17.8-18.1-19.9C93.3,201.9,96.1,208,93.7,214.5L93.7,214.5z"/>
			<path class="st7" d="M64.3,217.4c-0.8-2.1-2.2-8.5,1.1-13.6l0,0c-1.8,1.9-3.1,3.1-4.2,4.1c-1.4,1.2-2.2,1.9-7.6,4.5
				c-4,2-26.7,13.7-26.7,13.7c-1.2,0.5-2.1,3-2.4,6c4.5-2.4,26.9-15.5,29.8-16.2C59.8,214.7,65.1,219.5,64.3,217.4L64.3,217.4z"/>
			<path class="st7" d="M75.7,233.1c-1.8-2.2-2.4,12.1-5.4,14.5c1.9-1.3,3.7-2.5,4.6-3.1c4-2.7,4.7-3.1,7.3-4.7
				c1.1-0.6,2.4-0.9,3.8-1C81.8,238.5,76.9,234.6,75.7,233.1L75.7,233.1z"/>
			<g>
				<path class="st8" d="M128.8,213c1.9,4,2.4,4.9,0.1,9.6c-2.2,4.6-3.5,5.7-5.4,7.8c-1.5,1.6-3.2,1.5-5.9,1.5
					c-2.7,0.1-6.9-0.1-10-0.8c-3.1-0.7-4.3-2.9-4.2-4.9c0.1-2,0.9-5.1,0.9-5.1L128.8,213L128.8,213z"/>
				<path class="st7" d="M105.8,227.7c0.5-1.4,1.7-2,4.4-1.9c2.7,0.1,10-0.1,12.4-0.9c2.2-0.8,5.3-6.9,6.7-10.4
					c-0.2-0.4-0.4-0.9-0.7-1.4l-24.5,8.2c0,0-0.8,3.1-0.9,5.1s1.1,4.2,4.2,4.9c0.3,0.1,0.7,0.2,1.1,0.2
					C106.6,230.7,105.3,229.1,105.8,227.7L105.8,227.7z"/>
				<path class="st8" d="M117.5,232c-2.8,0.2-5.6,0.2-8.4-0.2c-1.9-0.2-3.9-0.7-5.1-2.3c-1.9-2.4-0.5-5.6,0.1-8.2
					c-0.2,0.9-0.3,1.8-0.5,2.7c-0.6,2.8-0.1,5.6,2.8,6.7C110,231.8,113.9,231.8,117.5,232L117.5,232L117.5,232z"/>
				<g>
					<path class="st7" d="M128.6,215.5c0.6,0.7,0.9,1.7,1.2,2.6c0.1,0.4,0.2,0.8,0.3,1.2c0,0.1,0,0.3,0.1,0.4
						c0.2-0.6,0.3-1.1,0.3-1.7c0-0.2-0.1-0.3-0.2-0.5C129.9,216.7,129.4,216,128.6,215.5C128.6,215.5,128.6,215.5,128.6,215.5
						L128.6,215.5z"/>
					<path class="st7" d="M129.2,219.3c0,0,0,0.2,0.1,0.2c0,0,0,0.1,0,0.1c0,0,0.1,0,0.1,0.1c0.1,0,0.1,0,0.2,0
						c0.1-0.1,0.1-0.1,0-0.2c0-0.1,0-0.2-0.1-0.2c0-0.2-0.1-0.3-0.2-0.5c-0.1-0.2-0.1-0.3-0.2-0.5c0-0.1-0.1-0.2-0.1-0.2
						c-0.1-0.1-0.1-0.2-0.2-0.2c0,0-0.1,0-0.1,0c0,0.1,0,0.2,0.1,0.2c0,0.1,0.1,0.2,0.1,0.2c0.1,0.2,0.1,0.3,0.2,0.5
						C129.2,219,129.2,219.2,129.2,219.3L129.2,219.3z"/>
				</g>
			</g>
			<g>
				<path class="st8" d="M127.6,201.7c1.5,1.9,3.6,5,2,9.1c-1.1,2.9-3.5,8.1-4.7,9.6c-1.1,1.5-2.6,2.7-6.5,2.8
					c-3.9,0.1-10.9,0.2-13.8-1.6c-2.9-1.8-3.7-4.6-3.4-8.2L127.6,201.7L127.6,201.7z"/>
				<path class="st7" d="M116.2,214.7c3.9-0.6,5.3-1.5,6.3-2.6c0.9-0.9,4.4-5.7,6.1-9.2c-0.3-0.5-0.6-0.9-1-1.3l-26.3,11.7
					c-0.3,3.6,0.5,6.4,3.4,8.2c0.4,0.2,0.9,0.5,1.4,0.6c-1.4-1-2.3-2.6-2.3-4s0.6-2.1,2.6-2.3C108.5,215.8,112.3,215.4,116.2,214.7z
					"/>
				<path class="st8" d="M118.5,223.2c-7.5,0.5-18.8,1-17.2-9.8C100.6,224.1,111,222.8,118.5,223.2L118.5,223.2z"/>
				<g>
					<path class="st7" d="M129.6,208.3c-0.1-0.2-0.2-0.5-0.3-0.7c-0.2-0.5-0.5-0.9-0.9-1.3c0,0-0.1,0,0,0c0.3,0.5,0.4,1,0.6,1.5
						c0.1,0.2,0.2,0.5,0.2,0.8c0.1,0.2,0.1,0.5,0.2,0.8c0.1,0.2,0.4-0.1,0.4-0.2C129.9,208.8,129.7,208.5,129.6,208.3L129.6,208.3z"
						/>
					<path class="st7" d="M129.8,206.9c0.2,0.4,0.3,0.8,0.4,1.1c0-0.6-0.1-1.2-0.2-1.8c-0.5-0.8-1.1-1.6-1.9-2c0,0,0,0,0,0
						C128.8,205,129.4,205.9,129.8,206.9L129.8,206.9z"/>
					<path class="st7" d="M129.5,211.1c0-0.1,0.1-0.2,0.1-0.3c0-0.1,0.1-0.2,0.1-0.3c-0.5-0.5-0.8-1.1-1.1-1.7
						c-0.5-0.9-0.9-1.9-1.2-2.9c0-0.1-0.1,0-0.1,0.3c0.1,1.1,0.3,2,0.8,2.9C128.6,210,128.9,210.6,129.5,211.1L129.5,211.1z"/>
				</g>
			</g>
			<g>
				<path class="st8" d="M126.2,191.1c2.2,3,3.7,5.6,2.7,8.2c-1,2.6-4.5,8.5-6.1,10.3c-1.6,1.8-2.1,2.6-7.6,3.8
					c-5.6,1.1-11.7,1-13.8-0.1c-2.1-1-5.7-5.7-3.9-8.4S126.2,191.2,126.2,191.1L126.2,191.1z"/>
				<path class="st7" d="M108.3,205.9c4.4-0.8,16.9-10.2,18.8-13.4c-0.3-0.4-0.6-0.9-0.9-1.3c0,0-26.9,11.2-28.7,13.9
					c-1.7,2.4,1.1,6.5,3.2,8c-2.1-2.4-1.7-4.5-0.8-5.5c0.9-1,3.5-0.4,3.5-0.4s3.2,2,6.5,3c3.3,1,6.5-1.7,6.5-1.7L108.3,205.9
					L108.3,205.9z"/>
				<path class="st8" d="M115.1,213.5c-4.4,1-9.1,1.6-13.5,0.3c-2.3-1.1-4-3.4-4.6-5.8c-0.2-1-0.2-2.1,0.5-2.9
					c-0.5,0.9-0.5,1.9-0.2,2.9c0.9,2.7,3,5.4,6,5.8C107.2,214.3,111.2,214,115.1,213.5L115.1,213.5L115.1,213.5z"/>
				<g>
					<path class="st7" d="M128.4,199.7c-0.2-0.3-0.5-0.6-0.7-1c-0.2-0.4-0.4-0.7-0.6-1.1c-0.4-0.7-0.8-1.5-1.2-2.2c0,0-0.1,0,0,0
						c0.2,0.8,0.5,1.7,0.9,2.4c0.2,0.4,0.4,0.7,0.6,1.1c0.2,0.3,0.4,0.8,0.7,1C128.2,200,128.5,199.8,128.4,199.7L128.4,199.7z"/>
					<path class="st7" d="M128.2,196.9c-0.3-0.6-0.8-1.1-1.3-1.5h0c0.4,0.5,0.7,1.1,1,1.6c0.1,0.3,0.2,0.6,0.3,0.9
						c0,0.2,0.1,0.3,0.1,0.5c0,0.1,0,0.3,0.1,0.4c0.1,0.2,0.4,0,0.4-0.1c0-0.3-0.1-0.6-0.2-0.9C128.5,197.4,128.3,197.1,128.2,196.9
						L128.2,196.9z"/>
					<path class="st7" d="M129.2,197.2c-0.1-0.6-0.2-1.2-0.4-1.8c-0.7-1-1.7-2-2.9-2.4c0,0-0.2,0-0.1,0.1c1.2,0.6,2,1.9,2.7,2.9
						C128.8,196.4,129,196.8,129.2,197.2z"/>
				</g>
			</g>
			<g>
				<path class="st8" d="M117.8,201.7c-1.6-2.1-3-3.4-5-5.6c-1.7-1.8-3.4-4.4-7.2-8.7c-2.2-2.5-3.6-3.2-6.6-3.6
					c-2.9-0.5-6.1,0.3-14.9,2.2l9.1,15.8l5-1.5c0,0,3.3,3.6,7,6.1c4.3,2.9,8.6,3.3,11,2C118.7,207.2,120.8,205.6,117.8,201.7z"/>
				<path class="st7" d="M98.3,200.4c1.7-0.6,3.7-2.7,3.7-4.7c0.8,1.4-0.1,4.4-2.8,5.7L98.3,200.4z"/>
				<path class="st8" d="M93.2,201.9c1.7-0.6,3.4-1.1,5.1-1.7c4.1,4,8.7,8.5,14.7,8.8c1.9,0.1,3.8-0.7,5.3-1.9
					c-0.7,0.7-1.5,1.2-2.4,1.7c-7,2.4-13.3-3.6-17.7-8.3l0.2,0C96.7,201,94.9,201.4,93.2,201.9C93.2,201.9,93.2,201.9,93.2,201.9z"
					/>
				<g>
					<path class="st4" d="M112.8,196.2c-0.2,1.4-1.1,3.7-2.3,5.8c2.9,3.3,5.6,5.9,7.5,5.3c1.9-0.6,2.1-2.5,0.4-5
						C116.8,199.9,114.5,197.7,112.8,196.2L112.8,196.2z"/>
					<path class="st5" d="M112.8,196.2c-0.2,1.4-1.1,3.7-2.3,5.8c2.9,3.3,5.6,5.9,7.5,5.3c1.9-0.6,2.1-2.5,0.4-5
						C116.8,199.9,114.5,197.7,112.8,196.2L112.8,196.2z"/>
					<path class="st6" d="M110.5,202L110.5,202c2.5-1.1,3.1-3.9,2.3-5.8C112.6,197.5,111.7,199.9,110.5,202L110.5,202z"/>
				</g>
			</g>
			<g>
				<path class="st9" d="M139.2,174l8.6,7c4-2.2,5.6-5.1,4.1-7.1C150.4,172,145,172.6,139.2,174z"/>
				<path class="st8" d="M152.1,174.6c1.6,1.5,2.1,5.9-4,9.6c-2.9,1.8-6.9,3.6-11.6,4.6c-3.3,1.6-8.4,3.2-10.6,3.9
					c-1.7,0.6-2.5,1.6-8.5,4.7c-1.6-1.5-5.1-5.7-7.8-8.8c-3.4-3.8-2.3-3.4-7.8-5.3c12.3-3.6,21.7-5.4,28.5-7.1
					C139.1,174.1,150.5,173.1,152.1,174.6L152.1,174.6z"/>
				<g>
					<path class="st7" d="M132.5,183.9c-0.2-0.4-0.2-0.7-0.2-1.1c0-0.2-0.5-0.4-0.5-0.2c0,0.4-0.1,0.7-0.1,1.1
						c0,0.4,0.1,0.7,0.2,1.1c0.2,0.7,0.5,1.4,0.9,2c0.4,0.7,1,1.3,1.5,1.8c0.1-0.1,0.3-0.1,0.4-0.2c0.2-0.1,0.5-0.1,0.7-0.2
						c-0.6-0.5-1.1-1.1-1.6-1.7c-0.4-0.5-0.7-1.1-1-1.7C132.7,184.5,132.7,184.2,132.5,183.9L132.5,183.9z"/>
					<path class="st7" d="M124.5,192.2c-0.6-0.4-1.1-0.9-1.6-1.4c-1.2-1.3-2-2.8-2.7-4.4c-0.1-0.2-0.7-0.4-0.6,0
						c0.4,1.8,1.4,3.4,2.7,4.7c0.5,0.5,1,1,1.5,1.4c0.1-0.1,0.3-0.1,0.4-0.2C124.3,192.3,124.4,192.3,124.5,192.2L124.5,192.2z"/>
				</g>
			</g>
		</g>
	</g>
</g>
<g id="Hand_2">
	<g id="Hand-5">
		<g id="Hand-6">
			<g>
				<path class="st8" d="M283.6,118.6c4.1-1.8,6-4.3,9.5-9.2c4-5.5,5.4-9,5.4-9c1.3,0.4,6.2,2.1,6.9,2.2c2,0.4,4.6-0.4,6.3-1.3
					c5.3-2.6,6.5-2.9,12.9-6.8c2-1.2,3.7-2.6,6.5-7.2c0.6-1,3.3-6.1,5.7-10.3c2.2-3.9,5.2-5.1,13-8.9c2.7-1.3,27.8-12.2,39.4-17.3
					c0,0,0,0,0.1,0c3.3-1.5,5.4-5.7,5.4-11.7c0-10.4-6.3-22.5-14.1-27c-3.6-2.1-6.9-2.2-9.4-0.7c-0.2,0.1-0.3,0.2-0.5,0.3
					c-7.8,5.3-33.7,22.7-36.6,24.7c-4.6,3.1-5.5,3.5-7.1,4c-2.1,0.7-5.6,1.6-11.1,3.5c-6.4,2.1-12.8,4.5-19.3,6.2
					c-3.6,1-4.9,5.2-6.2,10.6c-0.8,3.5-1,5.7,0.4,7.3c-1.4,4-2.4,6.9-0.4,8.7c-1.5,6.8-0.2,9.3-0.2,9.3s-6.3,14.4-8.8,18.4
					c-4.2,6.9-5.1,8.8-5.6,11.4C275.4,118.3,280.2,120.1,283.6,118.6L283.6,118.6z"/>
				<g>
					<path class="st10" d="M279.6,108.2c2.4,0.1,5.2,2.7,5.3,3.8s-3.4,5.2-5,6c-2,0.9-4.9-0.8-3.9-3.4
						C277,111.9,279.6,108.2,279.6,108.2L279.6,108.2z"/>
					<path class="st5" d="M279.6,108.2c2.4,0.1,5.2,2.7,5.3,3.8s-3.4,5.2-5,6c-2,0.9-4.9-0.8-3.9-3.4
						C277,111.9,279.6,108.2,279.6,108.2L279.6,108.2z"/>
					<path class="st7" d="M281.2,110.4c-1.8-1.3-1.6-2.2-1.6-2.2c2.4,0.1,5.2,2.7,5.3,3.8C284.9,112,283,111.7,281.2,110.4z"/>
				</g>
				<g>
					<path class="st11" d="M290.3,86.2c2.3-4,4.4-7.7,6-11c1.6-3.2,1.7-3.7,1.9-4.3c0.2-0.6-0.5-2.7-1.3-0.6
						c-0.8,2.1-1.3,4.2-2.8,7.3C292.5,80.8,290.3,86.2,290.3,86.2L290.3,86.2z"/>
					<path class="st7" d="M290.3,86.2c2.3-4,4.4-7.7,6-11c1.6-3.2,1.7-3.7,1.9-4.3c0.2-0.6-0.5-2.7-1.3-0.6
						c-0.8,2.1-1.3,4.2-2.8,7.3C292.5,80.8,290.3,86.2,290.3,86.2L290.3,86.2z"/>
				</g>
				<g>
					<path class="st7" d="M290.2,88.5c0,0,0.1-0.1,0.1-0.1c0.1-0.1,0.2-0.1,0.2-0.1c0.9-0.3,1.9-0.2,2.8,0c0.7,0.2,1.4,0.6,2,1
						c1,0.7,2,1.5,2,2.8c0,0.1,0,0.2-0.1,0.2c-0.1,0.1-0.3,0-0.4-0.1c-0.9-0.9-1.9-1.5-3-2.1c-0.6-0.3-1.1-0.4-1.7-0.6
						c-0.6-0.2-1.3-0.3-1.8-0.6c-0.1-0.1-0.2-0.1-0.2-0.2C290.2,88.6,290.2,88.5,290.2,88.5z"/>
					<path class="st7" d="M290.3,91.9c0.4,0.3,0.7,0.7,1.1,1c0.3,0.2,0.6,0.5,1,0.6s0.7,0.3,1.1,0.5c0.2,0.1,0.4,0.2,0.6,0.2
						c0.1,0,0.3,0.1,0.4,0.1c0.1,0,0.1,0.1,0.2,0.1c0.1,0,0.1,0.3,0,0.3c-0.7,0.3-1.4,0.3-2.1,0.1c-0.4-0.1-0.8-0.3-1.2-0.5
						c-0.8-0.4-1.7-1.1-2-1.9C289.2,91.9,290,91.6,290.3,91.9z"/>
					<path class="st7" d="M282.4,104.2c0.4-0.2,1-0.2,1.4-0.1c0.1,0,0.2,0.1,0.3,0.1c0.3,0.1,0.5,0.2,0.8,0.3c0.5,0.2,1,0.6,1.4,0.9
						c0.7,0.6,1.4,1.4,1.4,2.3c0,0.1,0,0.1,0,0.2c0,0.1,0,0.2-0.1,0.2s-0.1,0.1-0.2,0.1c-0.1,0-0.2-0.1-0.3-0.2l-1-1.2
						c-0.2-0.2-0.4-0.4-0.7-0.6s-0.5-0.4-0.7-0.6c-0.2-0.2-0.5-0.3-0.8-0.4c-0.5-0.2-1.1-0.3-1.6-0.6
						C282.1,104.5,282.4,104.2,282.4,104.2L282.4,104.2z"/>
				</g>
				<g>
					<path class="st7" d="M309,99.7c0,0,0.1-0.1,0.2-0.1s0.1,0.1,0.1,0.2c-0.1,0.8,0.1,1.6,0.4,2.4c-0.4,0.1-0.7,0.2-1.1,0.3
						c0-0.6,0-1.2,0.1-1.8C308.6,100.3,308.7,100,309,99.7z"/>
					<path class="st7" d="M309.8,98.6c0,0,0-0.2,0.1-0.2l0,0c0,0,0.2,0,0.2,0c0.3,0.2,0.6,0.4,0.9,0.6c0.6,0.5,1,1.3,1.1,2.1
						c-0.1,0.1-0.2,0.1-0.3,0.2c-0.3,0.1-0.6,0.3-0.9,0.4c0-0.4-0.1-0.8-0.2-1.2c-0.2-0.6-0.5-1.2-0.8-1.7
						C309.8,98.7,309.8,98.7,309.8,98.6L309.8,98.6z"/>
				</g>
				<g>
					<path class="st11" d="M290.5,76.9c1.3-2.2,2.9-6.5,3.8-8.8c0.9-2.4-0.3-3.7-0.6-3.1c-0.3,0.6-0.1,1.9-0.7,4.3
						C292.3,71.5,291.6,74,290.5,76.9z"/>
					<path class="st7" d="M290.5,76.9c1.3-2.2,2.9-6.5,3.8-8.8c0.9-2.4-0.3-3.7-0.6-3.1c-0.3,0.6-0.1,1.9-0.7,4.3
						C292.3,71.5,291.6,74,290.5,76.9z"/>
				</g>
				<g>
					<path class="st5" d="M300.1,97.7c2.1-0.6,6.8,2.2,6.8,2.2c-0.1,1.5-0.4,2.4-0.5,2.8c-0.3,0-0.6,0-0.9-0.1
						c-0.7-0.1-5-1.7-6.6-2.2c-0.1,0-0.2-0.1-0.3-0.1C298.8,99.9,300.1,97.7,300.1,97.7L300.1,97.7z"/>
					<path class="st7" d="M306.9,100c-0.1,1.5-0.4,2.4-0.5,2.8c-0.3,0-0.6,0-0.9-0.1c-0.1,0-0.2,0-0.3-0.1
						C305.9,101.1,306.9,100,306.9,100L306.9,100z"/>
				</g>
				<path class="st7" d="M312.4,74.2c0.5,0,2.5-0.2,3.9-2c0.6-0.8,1-3.2-0.4-4.1c-0.4-0.3-0.4,0-0.7,1.4c-0.2,1.4-1.1,2.4-2,3.1
					C312.2,73.5,311.9,74.2,312.4,74.2L312.4,74.2z M296.8,59.1c0.1,0.4,0.7,0.1,1.2-0.9c0.5-0.9,1.1-1.8,2.3-2.2
					c1.1-0.4,1.4-0.5,1.1-0.8c-1-1-2.9-0.3-3.5,0.3C296.5,57,296.6,58.7,296.8,59.1L296.8,59.1z M308,59.8c-1.2-1.1-3.5-0.2-4.1,0.6
					c-1.5,1.8-1.2,3.7-1.1,4.2c0.2,0.5,0.8,0.1,1.4-1.1c0.5-1,1.3-2.1,2.6-2.7C308.1,60.3,308.4,60.1,308,59.8L308,59.8z
					 M300.1,97.7c-0.6,1-1.2,2-1.5,2.7c0,0,2-2.5,4.1-5.2c1.2-1.2,2.8-1.8,4.5-2.2c0.8-0.2,1.7-0.2,2.5-0.2c0.4,0,2.1,0.2,2.2,0.6
					c-0.3-0.8-1-1.5-1.7-1.9c-0.8-0.4-1.7-0.6-2.5-0.7c0.1-1.5,1.2-2.9,2-4.1c0.8-1.2,1.6-2.4,2.3-3.6c1.6-2.5,2.6-4.9,1.5-5.3
					c-1-0.4-2.8,3.9-5.9,8.8C305.4,90.2,302.1,94.2,300.1,97.7L300.1,97.7z"/>
			</g>
			<path class="st7" d="M322.5,42c5.3,0,9.5,3.8,10.8,5.4c1.3,1.6-0.1-4.9,3.5-8.7c1.2-1.3,18.1-12.1,30.2-19.9
				c5.7-3.6,10.3-6.6,11.8-7.5c-2.8-1.1-5.4-1-7.5,0.3c-0.2,0.1-0.3,0.2-0.5,0.3c-7.8,5.3-33.7,22.7-36.6,24.7
				c-4.6,3.1-5.5,3.5-7.1,4C326,40.9,324.5,41.3,322.5,42L322.5,42z"/>
			<path class="st7" d="M349.4,68.5c-6.7,3.2-9.7,4.5-11.8,7.6c1.2-3.6,0.5-8.5-0.1-10.1C336.7,63.9,344.9,67.9,349.4,68.5
				L349.4,68.5z"/>
			<g>
				<path class="st7" d="M297.8,72.1c-2.2,4.7-5.2,9.3-7.4,14C293.3,81.8,296.3,77.2,297.8,72.1L297.8,72.1z"/>
				<path class="st7" d="M309.2,83.6L309.2,83.6L309.2,83.6c1-1.6,2-3.2,3.1-4.8c-0.8,1.5-1.5,3-2.4,4.5h0l-0.5,0.9
					c-3.1,5.7-7.2,10.5-10.8,16C301.6,94.7,305.6,89.2,309.2,83.6L309.2,83.6z"/>
				<path class="st7" d="M294.6,66.7c-1,2.9-2.9,7.2-4.1,10.1C292.6,73.9,294.2,70.4,294.6,66.7L294.6,66.7z"/>
			</g>
		</g>
	</g>
</g>
<g id="Hand_1">
	<g id="Hand-7">
		<g id="Hand-8">
			<g>
				<path class="st3" d="M140.5,114.1c-4.1-1.8-6-4.3-9.5-9.2c-4-5.5-5.4-9-5.4-9c-1.3,0.4-6.2,2.1-6.9,2.2c-2,0.4-4.6-0.4-6.3-1.3
					c-5.3-2.6-6.5-2.9-12.9-6.8c-2-1.2-3.7-2.6-6.5-7.2c-0.6-1-3.3-6.1-5.7-10.3c-2.2-3.9-5.2-5.1-13-8.9
					c-2.7-1.3-27.8-12.2-39.4-17.3c0,0,0,0-0.1,0c-3.3-1.5-5.4-5.7-5.4-11.7c0-10.4,6.3-22.5,14.1-27c3.6-2.1,6.9-2.2,9.4-0.7
					c0.2,0.1,0.3,0.2,0.5,0.3C61.1,12.6,87,30.1,89.9,32c4.6,3.1,5.5,3.5,7.1,4c2.1,0.7,5.6,1.6,11.1,3.5c6.4,2.1,12.8,4.5,19.3,6.2
					c3.6,1,4.9,5.2,6.2,10.6c0.8,3.5,1,5.7-0.4,7.3c1.4,4,2.4,6.9,0.4,8.7c1.5,6.8,0.2,9.3,0.2,9.3s6.3,14.4,8.8,18.4
					c4.2,6.9,5.1,8.8,5.6,11.4C148.7,113.8,143.9,115.6,140.5,114.1L140.5,114.1z"/>
				<g>
					<path class="st10" d="M144.5,103.7c-2.4,0.1-5.2,2.7-5.3,3.8s3.4,5.2,5,6c2,0.9,4.9-0.8,3.9-3.4
						C147.1,107.4,144.5,103.7,144.5,103.7L144.5,103.7z"/>
					<path class="st5" d="M144.5,103.7c-2.4,0.1-5.2,2.7-5.3,3.8s3.4,5.2,5,6c2,0.9,4.9-0.8,3.9-3.4
						C147.1,107.4,144.5,103.7,144.5,103.7L144.5,103.7z"/>
					<path class="st2" d="M142.9,105.9c1.8-1.3,1.6-2.2,1.6-2.2c-2.4,0.1-5.2,2.7-5.3,3.8C139.2,107.5,141.1,107.2,142.9,105.9z"/>
				</g>
				<g>
					<path class="st11" d="M133.8,81.6c-2.3-4-4.4-7.7-6-11s-1.7-3.7-1.9-4.3c-0.2-0.6,0.5-2.7,1.3-0.6c0.8,2.1,1.3,4.2,2.8,7.3
						C131.6,76.3,133.8,81.7,133.8,81.6L133.8,81.6z"/>
					<path class="st2" d="M133.8,81.6c-2.3-4-4.4-7.7-6-11s-1.7-3.7-1.9-4.3c-0.2-0.6,0.5-2.7,1.3-0.6c0.8,2.1,1.3,4.2,2.8,7.3
						C131.6,76.3,133.8,81.7,133.8,81.6L133.8,81.6z"/>
				</g>
				<g>
					<path class="st2" d="M133.9,83.9c0,0-0.1-0.1-0.1-0.1c-0.1-0.1-0.2-0.1-0.2-0.1c-0.9-0.3-1.9-0.2-2.8,0c-0.7,0.2-1.4,0.6-2,1
						c-1,0.7-2,1.5-2,2.8c0,0.1,0,0.2,0.1,0.2c0.1,0.1,0.3,0,0.4-0.1c0.9-0.9,1.9-1.5,3-2.1c0.6-0.3,1.1-0.4,1.7-0.6
						c0.6-0.2,1.3-0.3,1.8-0.6c0.1-0.1,0.2-0.1,0.2-0.2C133.9,84,133.9,84,133.9,83.9z"/>
					<path class="st2" d="M133.8,87.4c-0.4,0.3-0.7,0.7-1.1,1c-0.3,0.2-0.6,0.5-1,0.6c-0.3,0.2-0.7,0.3-1.1,0.5
						c-0.2,0.1-0.4,0.2-0.6,0.2c-0.1,0-0.3,0.1-0.4,0.1c-0.1,0-0.1,0.1-0.2,0.1c-0.1,0-0.1,0.3,0,0.3c0.7,0.3,1.4,0.3,2.1,0.1
						c0.4-0.1,0.8-0.3,1.2-0.5c0.8-0.4,1.7-1.1,2-1.9C134.9,87.4,134.1,87.1,133.8,87.4L133.8,87.4z"/>
					<path class="st2" d="M141.7,99.6c-0.4-0.2-1-0.2-1.4-0.1c-0.1,0-0.2,0.1-0.3,0.1c-0.3,0.1-0.5,0.2-0.8,0.3
						c-0.5,0.2-1,0.6-1.4,0.9c-0.7,0.6-1.4,1.4-1.4,2.3c0,0.1,0,0.1,0,0.2c0,0.1,0,0.2,0.1,0.2c0,0.1,0.1,0.1,0.2,0.1
						c0.1,0,0.2-0.1,0.3-0.2c0.3-0.4,0.7-0.8,1-1.2c0.2-0.2,0.4-0.4,0.7-0.6c0.2-0.2,0.5-0.4,0.7-0.6c0.2-0.2,0.5-0.3,0.8-0.4
						c0.5-0.2,1.1-0.3,1.6-0.6C142,100,141.8,99.7,141.7,99.6L141.7,99.6z"/>
				</g>
				<g>
					<path class="st2" d="M115.2,95.2c0,0-0.1-0.1-0.2-0.1c-0.1,0-0.1,0.1-0.1,0.2c0.1,0.8-0.1,1.6-0.4,2.4c0.4,0.1,0.7,0.2,1.1,0.3
						c0-0.6,0-1.2-0.1-1.8C115.5,95.8,115.4,95.4,115.2,95.2z"/>
					<path class="st2" d="M114.3,94.1c0,0,0-0.2-0.1-0.2l0,0c0,0-0.2,0-0.2,0c-0.3,0.2-0.6,0.4-0.9,0.6c-0.6,0.5-1,1.3-1.1,2.1
						c0.1,0.1,0.2,0.1,0.3,0.2c0.3,0.1,0.6,0.3,0.9,0.4c0-0.4,0.1-0.8,0.2-1.2c0.2-0.6,0.5-1.2,0.8-1.7
						C114.3,94.2,114.3,94.1,114.3,94.1z"/>
				</g>
				<g>
					<path class="st11" d="M133.6,72.4c-1.3-2.2-2.9-6.5-3.8-8.8c-0.9-2.4,0.3-3.7,0.6-3.1c0.3,0.6,0.1,1.9,0.7,4.3
						C131.8,67,132.5,69.5,133.6,72.4z"/>
					<path class="st2" d="M133.6,72.4c-1.3-2.2-2.9-6.5-3.8-8.8c-0.9-2.4,0.3-3.7,0.6-3.1c0.3,0.6,0.1,1.9,0.7,4.3
						C131.8,67,132.5,69.5,133.6,72.4z"/>
				</g>
				<g>
					<path class="st5" d="M124,93.2c-2.1-0.6-6.8,2.2-6.8,2.2c0.1,1.5,0.4,2.4,0.5,2.8c0.3,0,0.6,0,0.9-0.1c0.7-0.1,5-1.7,6.6-2.2
						c0.1,0,0.2-0.1,0.3-0.1C125.3,95.4,124,93.2,124,93.2L124,93.2z"/>
					<path class="st2" d="M117.2,95.4c0.1,1.5,0.4,2.4,0.5,2.8c0.3,0,0.6,0,0.9-0.1c0.1,0,0.2,0,0.3-0.1
						C118.2,96.5,117.2,95.4,117.2,95.4L117.2,95.4z"/>
				</g>
				<path class="st2" d="M110.9,68.1c-0.9-0.7-1.8-1.7-2-3.1c-0.2-1.4-0.3-1.7-0.7-1.4c-1.4,0.9-1,3.3-0.4,4.1c1.4,1.9,3.3,2,3.9,2
					C112.2,69.6,111.9,68.9,110.9,68.1L110.9,68.1z M126.3,51c-0.6-0.6-2.5-1.4-3.5-0.3c-0.3,0.3,0,0.4,1.1,0.8
					c1.1,0.4,1.8,1.3,2.3,2.2c0.6,1,1.1,1.3,1.2,0.9C127.5,54.1,127.6,52.5,126.3,51L126.3,51z M117.3,56.3c1.3,0.6,2,1.6,2.6,2.7
					c0.6,1.2,1.2,1.6,1.4,1.1c0.2-0.5,0.4-2.4-1.1-4.2c-0.7-0.8-2.9-1.7-4.1-0.6C115.7,55.6,116,55.7,117.3,56.3z M116.5,82.1
					c-3.1-4.9-4.9-9.2-5.9-8.8c-1,0.4-0.1,2.8,1.5,5.3c0.8,1.2,1.5,2.4,2.3,3.6c0.8,1.2,1.9,2.6,2,4.1c-0.9,0-1.8,0.2-2.5,0.7
					c-0.8,0.4-1.4,1.1-1.7,1.9c0.1-0.4,1.9-0.6,2.2-0.6c0.8-0.1,1.7,0,2.5,0.2c1.7,0.4,3.3,1,4.5,2.2c2.1,2.7,4.1,5.2,4.1,5.2
					c-0.3-0.6-0.9-1.7-1.5-2.7C122,89.8,118.7,85.7,116.5,82.1L116.5,82.1z"/>
			</g>
			<path class="st2" d="M101.6,37.5c-5.3,0-9.5,3.8-10.8,5.4c-1.3,1.6,0.1-4.9-3.5-8.7C86.1,32.9,69.3,22,57.2,14.3
				c-5.7-3.6-10.3-6.6-11.8-7.5c2.8-1.1,5.4-1,7.5,0.3c0.2,0.1,0.3,0.2,0.5,0.3C61.1,12.6,87,30.1,89.9,32c4.6,3.1,5.5,3.5,7.1,4
				C98.1,36.4,99.7,36.8,101.6,37.5L101.6,37.5z"/>
			<path class="st2" d="M74.7,63.9c6.7,3.2,9.7,4.5,11.8,7.6c-1.2-3.6-0.5-8.5,0.1-10.1C87.4,59.3,79.2,63.4,74.7,63.9L74.7,63.9z"
				/>
			<g>
				<path class="st2" d="M126.3,67.6c2.2,4.7,5.2,9.3,7.4,14C130.8,77.3,127.8,72.7,126.3,67.6L126.3,67.6z"/>
				<path class="st2" d="M114.9,79.1L114.9,79.1L114.9,79.1c-1-1.6-2-3.2-3.1-4.8c0.8,1.5,1.5,3,2.4,4.5h0l0.5,0.9
					c3.1,5.7,7.2,10.5,10.8,16C122.5,90.2,118.5,84.7,114.9,79.1L114.9,79.1z"/>
				<path class="st2" d="M129.5,62.2c1,2.9,2.9,7.2,4.1,10.1C131.5,69.3,129.9,65.8,129.5,62.2L129.5,62.2z"/>
			</g>
		</g>
	</g>
</g>
<g id="Speech_Bubble_2">
	<g id="Speech_Bubble">
		<path class="st12" d="M408.7,129c-6.9-10-25.4-18.4-48.2-18.6c-20.8-0.2-46,5.9-52.4,25.9c-5.4,17,11.2,32.8,28.4,36.2
			c7.5,1.5,14.4,2.1,20.8,2.2c3.2,6,10.7,9.6,16.3,10c-2.9-3.5-3.7-7.4-3.7-10.5c6.3-0.6,11.7-1.6,16-2.7
			C415.7,164,416.4,140.3,408.7,129L408.7,129z"/>
		<path class="st13" d="M408.7,129c-6.9-10-25.4-18.4-48.2-18.6c-20.8-0.2-46,5.9-52.4,25.9c-5.4,17,11.2,32.8,28.4,36.2
			c7.5,1.5,14.4,2.1,20.8,2.2c3.2,6,10.7,9.6,16.3,10c-2.9-3.5-3.7-7.4-3.7-10.5c6.3-0.6,11.7-1.6,16-2.7
			C415.7,164,416.4,140.3,408.7,129L408.7,129z"/>
		<g>
			<path class="st6" d="M328.6,136.4c0.1,0,0.2,0.1,0.3,0.2c0.1,0.1,0.2,0.2,0.2,0.3v11.8c0,0.1-0.1,0.2-0.2,0.3
				c-0.1,0.1-0.2,0.2-0.3,0.2h-1.5c-0.1,0-0.2-0.1-0.3-0.2c-0.1-0.1-0.2-0.2-0.2-0.3v-4.8h-5.5v4.8c0,0.1-0.1,0.2-0.2,0.3
				c-0.1,0.1-0.2,0.2-0.3,0.2h-1.5c-0.1,0-0.2,0-0.3-0.1c-0.1-0.1-0.2-0.2-0.2-0.4v-11.8c0-0.1,0.1-0.2,0.2-0.3
				c0.1-0.1,0.2-0.2,0.3-0.2h1.5c0.1,0,0.2,0.1,0.3,0.2c0.1,0.1,0.2,0.2,0.2,0.3v4.7h5.5v-4.7c0-0.1,0.1-0.2,0.2-0.3
				c0.1-0.1,0.2-0.2,0.3-0.2H328.6z"/>
			<path class="st6" d="M338,136.4c0.2,0,0.3,0.1,0.4,0.2c0.1,0.1,0.2,0.3,0.2,0.5l4.5,11.6c0,0,0,0.1,0,0.1c0,0.1-0.1,0.2-0.2,0.3
				c-0.1,0.1-0.2,0.2-0.3,0.2h-1.3c-0.2,0-0.4-0.1-0.5-0.2c-0.1-0.1-0.2-0.2-0.2-0.3l-0.8-2h-5.8l-0.8,2c0,0.1-0.1,0.2-0.2,0.3
				c-0.1,0.1-0.3,0.2-0.5,0.2h-1.3c-0.1,0-0.2-0.1-0.3-0.2c-0.1-0.1-0.2-0.2-0.2-0.3c0-0.1,0-0.1,0-0.1l4.5-11.6
				c0.1-0.2,0.2-0.4,0.2-0.5c0.1-0.1,0.2-0.2,0.4-0.2H338L338,136.4z M339,144.4l-2-5.2l-2,5.2H339L339,144.4z"/>
			<path class="st6" d="M354.8,136.4c0.1,0,0.2,0.1,0.3,0.2c0.1,0.1,0.2,0.2,0.2,0.3v11.8c0,0.1-0.1,0.2-0.2,0.3
				c-0.1,0.1-0.2,0.2-0.3,0.2h-1.5c-0.1,0-0.2-0.1-0.3-0.2c-0.1-0.1-0.2-0.2-0.2-0.3v-4.8h-5.5v4.8c0,0.1-0.1,0.2-0.2,0.3
				c-0.1,0.1-0.2,0.2-0.3,0.2h-1.5c-0.1,0-0.2,0-0.3-0.1c-0.1-0.1-0.2-0.2-0.2-0.4v-11.8c0-0.1,0.1-0.2,0.2-0.3
				c0.1-0.1,0.2-0.2,0.3-0.2h1.5c0.1,0,0.2,0.1,0.3,0.2c0.1,0.1,0.2,0.2,0.2,0.3v4.7h5.5v-4.7c0-0.1,0.1-0.2,0.2-0.3
				c0.1-0.1,0.2-0.2,0.3-0.2H354.8z"/>
			<path class="st6" d="M364.2,136.4c0.2,0,0.3,0.1,0.4,0.2c0.1,0.1,0.2,0.3,0.2,0.5l4.5,11.6c0,0,0,0.1,0,0.1
				c0,0.1-0.1,0.2-0.2,0.3c-0.1,0.1-0.2,0.2-0.3,0.2h-1.3c-0.2,0-0.4-0.1-0.5-0.2c-0.1-0.1-0.2-0.2-0.2-0.3l-0.8-2h-5.8l-0.8,2
				c0,0.1-0.1,0.2-0.2,0.3c-0.1,0.1-0.3,0.2-0.5,0.2h-1.3c-0.1,0-0.2-0.1-0.3-0.2c-0.1-0.1-0.2-0.2-0.2-0.3c0-0.1,0-0.1,0-0.1
				l4.5-11.6c0.1-0.2,0.2-0.4,0.2-0.5s0.2-0.2,0.4-0.2H364.2L364.2,136.4z M365.2,144.4l-2-5.2l-2,5.2H365.2L365.2,144.4z"/>
			<path class="st6" d="M381,136.4c0.1,0,0.2,0.1,0.3,0.2c0.1,0.1,0.2,0.2,0.2,0.3v11.8c0,0.1-0.1,0.2-0.2,0.3
				c-0.1,0.1-0.2,0.2-0.3,0.2h-1.5c-0.1,0-0.2-0.1-0.3-0.2c-0.1-0.1-0.2-0.2-0.2-0.3v-4.8h-5.5v4.8c0,0.1-0.1,0.2-0.2,0.3
				c-0.1,0.1-0.2,0.2-0.3,0.2h-1.5c-0.1,0-0.2,0-0.3-0.1c-0.1-0.1-0.2-0.2-0.2-0.4v-11.8c0-0.1,0.1-0.2,0.2-0.3
				c0.1-0.1,0.2-0.2,0.3-0.2h1.5c0.1,0,0.2,0.1,0.3,0.2c0.1,0.1,0.2,0.2,0.2,0.3v4.7h5.5v-4.7c0-0.1,0.1-0.2,0.2-0.3
				c0.1-0.1,0.2-0.2,0.3-0.2H381z"/>
			<path class="st6" d="M390.4,136.4c0.2,0,0.3,0.1,0.4,0.2c0.1,0.1,0.2,0.3,0.2,0.5l4.5,11.6c0,0,0,0.1,0,0.1
				c0,0.1-0.1,0.2-0.2,0.3c-0.1,0.1-0.2,0.2-0.3,0.2h-1.3c-0.2,0-0.4-0.1-0.5-0.2c-0.1-0.1-0.2-0.2-0.2-0.3l-0.8-2h-5.8l-0.8,2
				c0,0.1-0.1,0.2-0.2,0.3c-0.1,0.1-0.3,0.2-0.5,0.2h-1.3c-0.1,0-0.2-0.1-0.3-0.2c-0.1-0.1-0.2-0.2-0.2-0.3c0-0.1,0-0.1,0-0.1
				l4.5-11.6c0.1-0.2,0.2-0.4,0.2-0.5c0.1-0.1,0.2-0.2,0.4-0.2H390.4L390.4,136.4z M391.4,144.4l-2-5.2l-2,5.2H391.4L391.4,144.4z"
				/>
			<path class="st6" d="M399,146.6c0.1,0,0.2,0.1,0.3,0.2c0.1,0.1,0.2,0.2,0.2,0.3v1.6c0,0.1-0.1,0.2-0.2,0.3
				c-0.1,0.1-0.2,0.2-0.3,0.2h-1.6c-0.1,0-0.2-0.1-0.3-0.2c-0.1-0.1-0.2-0.2-0.2-0.3v-1.6c0-0.1,0.1-0.2,0.2-0.3
				c0.1-0.1,0.2-0.2,0.3-0.2H399z M399.4,145c0,0.1-0.1,0.2-0.2,0.3c-0.1,0.1-0.2,0.2-0.3,0.2h-1.4c-0.1,0-0.2,0-0.3-0.2
				c-0.1-0.1-0.2-0.2-0.2-0.3v-8.1c0-0.1,0.1-0.2,0.2-0.3c0.1-0.1,0.2-0.2,0.3-0.2h1.4c0.1,0,0.2,0.1,0.3,0.2
				c0.1,0.1,0.2,0.2,0.2,0.3V145z"/>
		</g>
	</g>
</g>
<g id="Speech_Bubble_1">
	<g id="Speech_Bubble-2">
		<path class="st14" d="M10.1,121c6.9-10.1,25.5-18.5,48.4-18.7c20.8-0.2,46.2,5.9,52.6,26c5.4,17.1-11.2,32.9-28.5,36.3
			c-7.5,1.5-14.5,2.1-20.9,2.2c-3.2,6-10.7,9.7-16.4,10c2.9-3.5,3.7-7.5,3.8-10.5c-6.4-0.6-11.8-1.6-16-2.7
			C3,156.1,2.3,132.2,10.1,121L10.1,121z"/>
		<path class="st13" d="M10.1,121c6.9-10.1,25.5-18.5,48.4-18.7c20.8-0.2,46.2,5.9,52.6,26c5.4,17.1-11.2,32.9-28.5,36.3
			c-7.5,1.5-14.5,2.1-20.9,2.2c-3.2,6-10.7,9.7-16.4,10c2.9-3.5,3.7-7.5,3.8-10.5c-6.4-0.6-11.8-1.6-16-2.7
			C3,156.1,2.3,132.2,10.1,121L10.1,121z"/>
		<g>
			<path class="st5" d="M25.9,139.6l-0.3,2c0,0.1-0.1,0.2-0.2,0.3c-0.1,0.1-0.2,0.1-0.3,0.1h-1.5c-0.1,0-0.2,0-0.3-0.1
				c-0.1-0.1-0.1-0.2-0.1-0.3v0l0.3-1.9h-1.9l-0.3,2c0,0.1-0.1,0.2-0.2,0.3c-0.1,0.1-0.2,0.1-0.3,0.1h-1.5c-0.1,0-0.2,0-0.3-0.1
				c-0.1-0.1-0.1-0.2-0.1-0.3v0l0.3-1.9h-1.3c-0.1,0-0.3-0.1-0.4-0.2c-0.1-0.1-0.2-0.2-0.2-0.4v-1.2c0-0.1,0.1-0.3,0.2-0.4
				c0.1-0.1,0.2-0.2,0.4-0.2h1.6l0.4-2.6h-1.5c-0.1,0-0.3-0.1-0.4-0.2c-0.1-0.1-0.2-0.2-0.2-0.4V133c0-0.1,0.1-0.3,0.2-0.4
				c0.1-0.1,0.2-0.2,0.4-0.2h1.9l0.3-1.9c0-0.1,0.1-0.2,0.2-0.3c0.1-0.1,0.2-0.1,0.3-0.1h1.5c0.1,0,0.2,0,0.3,0.1
				c0.1,0.1,0.1,0.2,0.1,0.3v0.1l-0.3,1.9h1.9l0.3-1.9c0-0.1,0.1-0.2,0.2-0.3c0.1-0.1,0.2-0.1,0.3-0.1h1.5c0.1,0,0.2,0,0.3,0.1
				c0.1,0.1,0.1,0.2,0.1,0.3v0.1l-0.3,1.9h1.3c0.1,0,0.3,0.1,0.4,0.2c0.1,0.1,0.2,0.2,0.2,0.4v1.2c0,0.1-0.1,0.3-0.2,0.4
				c-0.1,0.1-0.2,0.2-0.4,0.2h-1.6l-0.4,2.6h1.5c0.1,0,0.3,0.1,0.4,0.2c0.1,0.1,0.2,0.2,0.2,0.4v1.2c0,0.1-0.1,0.3-0.2,0.4
				c-0.1,0.1-0.2,0.2-0.4,0.2L25.9,139.6L25.9,139.6z M21.9,137.3h1.9l0.4-2.6h-1.9C22.3,134.7,21.9,137.3,21.9,137.3z"/>
			<path class="st5" d="M34.7,131l1.5-0.9c0,0,0.1-0.1,0.1-0.1c0.1,0,0.2,0,0.3,0c0.1,0.1,0.2,0.1,0.2,0.2l0.5,1.5
				c0,0.1,0,0.2,0,0.3c-0.1,0.1-0.1,0.2-0.2,0.2c0,0-0.1,0-0.2,0l-1.8,0.1l1.3,1.1c0,0,0.1,0.1,0.1,0.1c0.1,0.1,0.1,0.2,0.1,0.3
				c0,0.1-0.1,0.2-0.2,0.3l-1.2,0.9c-0.1,0.1-0.2,0.1-0.3,0.1c-0.1,0-0.2-0.1-0.3-0.2c0,0,0-0.1-0.1-0.2l-0.6-1.6l-0.6,1.6
				c0,0-0.1,0.1-0.1,0.2c-0.1,0.1-0.2,0.1-0.3,0.2c-0.1,0-0.2,0-0.3-0.1l-1.2-0.9c-0.1-0.1-0.2-0.2-0.2-0.3c0-0.1,0-0.2,0.1-0.3
				c0,0,0,0,0.1-0.1l1.3-1.1l-1.8-0.1c0,0-0.1,0-0.2,0c-0.1,0-0.2-0.1-0.2-0.2s-0.1-0.2,0-0.3l0.5-1.5c0-0.1,0.1-0.2,0.2-0.2
				c0.1-0.1,0.2-0.1,0.3,0c0,0,0.1,0,0.1,0.1l1.5,0.9l-0.4-1.7c0,0,0-0.1,0-0.2c0-0.1,0-0.2,0.1-0.3c0.1-0.1,0.2-0.1,0.3-0.1h1.5
				c0.1,0,0.2,0,0.3,0.1c0.1,0.1,0.1,0.2,0.1,0.3c0,0,0,0.1,0,0.2L34.7,131L34.7,131z"/>
			<path class="st5" d="M41.9,129.2c0.5,0,0.9,0.1,1.2,0.2s0.6,0.3,0.9,0.6c0.2,0.2,0.4,0.5,0.5,0.8c0.1,0.3,0.2,0.6,0.2,0.9
				c0,0.3,0,0.7,0,1.1c0,0.4,0,0.7,0,1.1c0,0.3-0.1,0.6-0.2,0.9c-0.1,0.3-0.3,0.6-0.5,0.8c-0.2,0.2-0.5,0.4-0.9,0.5
				c-0.3,0.1-0.8,0.2-1.2,0.2c-0.5,0-0.9-0.1-1.2-0.2s-0.6-0.3-0.9-0.5c-0.2-0.2-0.4-0.5-0.5-0.8c-0.1-0.3-0.2-0.6-0.2-0.9
				c0-0.3,0-0.7,0-1.1c0-0.4,0-0.7,0-1.1c0-0.3,0.1-0.6,0.2-0.9c0.1-0.3,0.3-0.5,0.5-0.8c0.2-0.2,0.5-0.4,0.9-0.6
				C41,129.2,41.4,129.2,41.9,129.2z M49.6,129.6c0.1-0.1,0.2-0.2,0.3-0.3c0.1-0.1,0.2-0.1,0.4-0.1h1.1c0.1,0,0.2,0,0.3,0.1
				c0.1,0.1,0.1,0.2,0.1,0.3c0,0,0,0.1,0,0.1s0,0.1-0.1,0.1l-9.5,12.5c-0.1,0.1-0.2,0.2-0.3,0.3c-0.1,0.1-0.2,0.1-0.4,0.1h-1.1
				c-0.1,0-0.2,0-0.3-0.1c-0.1-0.1-0.1-0.2-0.1-0.3c0,0,0-0.1,0-0.1s0-0.1,0.1-0.1L49.6,129.6L49.6,129.6z M42.9,133.5
				c0,0,0-0.2,0-0.4v-1c0-0.2,0-0.3,0-0.4c0-0.2-0.1-0.5-0.2-0.6s-0.4-0.3-0.8-0.3s-0.6,0.1-0.8,0.3s-0.2,0.4-0.2,0.6
				c0,0.1,0,0.2,0,0.4c0,0.2,0,0.3,0,0.5s0,0.4,0,0.5c0,0.2,0,0.3,0,0.4c0,0.2,0.1,0.5,0.2,0.6s0.4,0.3,0.8,0.3s0.6-0.1,0.8-0.3
				S42.9,133.8,42.9,133.5z M50.2,135.9c0.5,0,0.9,0.1,1.2,0.2s0.6,0.3,0.9,0.6c0.2,0.2,0.4,0.5,0.5,0.8c0.1,0.3,0.2,0.6,0.2,0.9
				c0,0.3,0,0.7,0,1.1c0,0.4,0,0.7,0,1.1c0,0.3-0.1,0.6-0.2,0.9c-0.1,0.3-0.3,0.6-0.5,0.8c-0.2,0.2-0.5,0.4-0.9,0.5
				c-0.3,0.1-0.8,0.2-1.2,0.2c-0.5,0-0.9-0.1-1.2-0.2c-0.3-0.1-0.6-0.3-0.9-0.5c-0.2-0.2-0.4-0.5-0.5-0.8c-0.1-0.3-0.2-0.6-0.2-0.9
				c0-0.3,0-0.7,0-1.1c0-0.4,0-0.7,0-1.1c0-0.3,0.1-0.6,0.2-0.9c0.1-0.3,0.3-0.5,0.5-0.8c0.2-0.2,0.5-0.4,0.9-0.6
				C49.3,136,49.7,135.9,50.2,135.9z M51.2,140.2c0,0,0-0.2,0-0.4v-1c0-0.2,0-0.3,0-0.4c0-0.2-0.1-0.5-0.2-0.6
				c-0.1-0.2-0.4-0.3-0.8-0.3s-0.6,0.1-0.8,0.3c-0.1,0.2-0.2,0.4-0.2,0.6c0,0.1,0,0.2,0,0.4c0,0.2,0,0.3,0,0.5c0,0.2,0,0.3,0,0.5
				c0,0.2,0,0.3,0,0.4c0,0.2,0.1,0.5,0.2,0.6s0.4,0.3,0.8,0.3s0.6-0.1,0.8-0.3C51.1,140.7,51.2,140.5,51.2,140.2z"/>
			<path class="st5" d="M69.4,138.2c0,0.5-0.1,0.9-0.3,1.3c-0.2,0.4-0.4,0.7-0.7,0.9c-0.3,0.2-0.6,0.4-0.9,0.6
				c-0.3,0.1-0.7,0.2-1.1,0.2c-0.6,0-1.1-0.1-1.5-0.3c-0.3-0.2-0.6-0.4-0.8-0.6c-0.1,0.1-0.2,0.2-0.3,0.4c-0.1,0.1-0.3,0.2-0.4,0.3
				c-0.2,0.1-0.4,0.2-0.7,0.2c-0.3,0.1-0.6,0.1-1,0.1c-0.5,0-0.9-0.1-1.3-0.3c-0.4-0.2-0.7-0.5-1-0.8c-0.3-0.3-0.5-0.8-0.6-1.2
				c-0.2-0.5-0.2-1-0.2-1.6c0-0.6,0.1-1.1,0.2-1.6s0.3-0.9,0.6-1.2c0.2-0.3,0.6-0.6,1-0.8c0.4-0.2,0.8-0.3,1.3-0.3
				c0.5,0,0.9,0.1,1.2,0.2c0.2,0.2,0.5,0.4,0.6,0.6v-0.2c0-0.1,0.1-0.3,0.2-0.4c0.1-0.1,0.2-0.2,0.4-0.2h1c0.1,0,0.3,0.1,0.4,0.2
				c0.1,0.1,0.2,0.2,0.2,0.4v4.1c0,0.3,0.1,0.6,0.3,0.7c0.2,0.2,0.4,0.2,0.7,0.2c0.2,0,0.5-0.1,0.7-0.3c0.2-0.2,0.3-0.5,0.3-0.9
				c0-0.3,0-0.7,0-1.1s0-0.7-0.1-1.1c-0.1-0.7-0.2-1.3-0.5-1.9c-0.2-0.5-0.6-1-1-1.3c-0.4-0.3-1-0.6-1.6-0.8
				c-0.6-0.2-1.4-0.3-2.3-0.3c-0.7,0-1.4,0.1-2,0.3c-0.6,0.2-1.1,0.5-1.5,0.9c-0.4,0.4-0.8,0.8-1,1.4c-0.2,0.5-0.4,1.1-0.5,1.7
				c0,0.2,0,0.4-0.1,0.7c0,0.3,0,0.6,0,0.9c0,0.3,0,0.6,0,0.9c0,0.3,0,0.5,0.1,0.7c0.1,0.6,0.2,1.2,0.5,1.7c0.2,0.5,0.6,1,1,1.3
				c0.4,0.4,0.9,0.7,1.5,0.9c0.6,0.2,1.3,0.3,2,0.3c0.5,0,1,0,1.4-0.1s0.7-0.1,1-0.2c0.3-0.1,0.5-0.2,0.7-0.3
				c0.2-0.1,0.4-0.2,0.6-0.3c0.1-0.1,0.2-0.2,0.3-0.2c0.1,0,0.2-0.1,0.3-0.1h1.4c0.1,0,0.3,0.1,0.4,0.2c0.1,0.1,0.2,0.2,0.2,0.4
				c0,0.1,0,0.2-0.1,0.3c-0.3,0.3-0.6,0.5-0.9,0.8c-0.3,0.3-0.7,0.5-1.2,0.7c-0.5,0.2-1,0.4-1.7,0.5c-0.6,0.1-1.4,0.2-2.3,0.2
				c-1.1,0-2.1-0.2-2.9-0.5c-0.8-0.3-1.6-0.8-2.1-1.3c-0.6-0.6-1-1.2-1.4-1.9c-0.3-0.7-0.5-1.5-0.6-2.3c0-0.2,0-0.4,0-0.7
				s0-0.6,0-0.9c0-0.3,0-0.6,0-0.9c0-0.3,0-0.5,0-0.7c0.1-0.8,0.3-1.6,0.6-2.3c0.3-0.7,0.8-1.4,1.4-1.9s1.3-1,2.2-1.4
				c0.9-0.3,1.8-0.5,2.9-0.5c1.3,0,2.4,0.2,3.3,0.5s1.7,0.8,2.2,1.3c0.6,0.6,1,1.2,1.3,1.9c0.3,0.7,0.5,1.5,0.6,2.4
				c0,0.3,0,0.7,0,1.2C69.4,137.4,69.4,137.8,69.4,138.2L69.4,138.2z M60.5,137.5c0,0.6,0.1,1.1,0.4,1.5c0.2,0.3,0.6,0.5,1,0.5
				c0.5,0,0.8-0.2,1.1-0.5c0.2-0.3,0.4-0.8,0.4-1.5s-0.1-1.1-0.4-1.5c-0.2-0.3-0.6-0.5-1.1-0.5c-0.4,0-0.8,0.2-1,0.5
				C60.7,136.3,60.5,136.8,60.5,137.5L60.5,137.5z"/>
			<path class="st5" d="M80.9,136.1c0.1-0.3,0.2-0.4,0.5-0.4h1.5c0.1,0,0.3,0.1,0.4,0.2c0.1,0.1,0.2,0.2,0.2,0.4
				c-0.1,0.5-0.2,1.1-0.5,1.8c-0.3,0.7-0.6,1.3-1.1,1.9l1.9,1.9c0,0,0.2,0.2,0.2,0.2c0,0.1,0,0.1,0,0.2c0,0.2-0.1,0.3-0.2,0.4
				s-0.2,0.2-0.4,0.2h-1.9c-0.1,0-0.2,0-0.3-0.1c-0.1,0-0.1-0.1-0.2-0.1l-1-0.9c-0.6,0.4-1.2,0.7-1.8,1c-0.7,0.2-1.4,0.4-2.2,0.4
				c-0.6,0-1.1-0.1-1.7-0.2c-0.6-0.2-1-0.4-1.5-0.7c-0.4-0.3-0.8-0.7-1.1-1.1c-0.3-0.4-0.4-1-0.4-1.5c0-0.4,0.1-0.9,0.2-1.2
				c0.1-0.4,0.3-0.7,0.5-1c0.2-0.3,0.5-0.6,0.8-0.8s0.6-0.5,0.9-0.7c-0.5-0.6-0.9-1.1-1.1-1.5c-0.2-0.5-0.3-1-0.3-1.5s0.1-1,0.3-1.4
				c0.2-0.4,0.4-0.8,0.8-1.1c0.3-0.3,0.7-0.6,1.2-0.7c0.5-0.2,1-0.3,1.5-0.3s1.1,0.1,1.5,0.3c0.5,0.2,0.9,0.4,1.2,0.7
				c0.3,0.3,0.6,0.7,0.8,1.1c0.2,0.4,0.3,0.9,0.3,1.4c0,0.8-0.2,1.4-0.6,1.9c-0.4,0.5-1,1-1.7,1.5l2.3,2.2c0.2-0.3,0.4-0.7,0.6-1
				C80.7,136.8,80.8,136.5,80.9,136.1L80.9,136.1z M75.6,137.3c-0.5,0.3-0.9,0.6-1.2,0.9c-0.3,0.3-0.5,0.6-0.5,1
				c0,0.2,0.1,0.4,0.2,0.5c0.1,0.2,0.3,0.3,0.5,0.4c0.2,0.1,0.4,0.2,0.7,0.3c0.2,0.1,0.5,0.1,0.8,0.1c0.4,0,0.8-0.1,1.2-0.2
				c0.4-0.1,0.7-0.3,1.1-0.5L75.6,137.3L75.6,137.3z M76,134.3c0.5-0.3,0.9-0.6,1.1-0.8c0.2-0.2,0.4-0.5,0.4-0.9
				c0-0.2-0.1-0.5-0.3-0.7c-0.2-0.2-0.5-0.3-1-0.3c-0.4,0-0.7,0.1-1,0.3c-0.2,0.2-0.3,0.5-0.3,0.8c0,0.3,0.1,0.6,0.3,0.9
				C75.4,133.7,75.6,134,76,134.3z"/>
			<path class="st5" d="M91.8,129.2c0.6,0.1,1.2,0.3,1.6,0.6c0.5,0.2,0.9,0.5,1.2,0.9c0.3,0.3,0.6,0.6,0.7,1c0.2,0.3,0.3,0.7,0.3,1
				c0,0.2,0,0.3-0.1,0.4c-0.1,0.1-0.2,0.2-0.4,0.2h-1.3c-0.2,0-0.4,0-0.5-0.1c-0.1-0.1-0.2-0.2-0.3-0.3c-0.2-0.3-0.5-0.6-0.9-0.8
				c-0.4-0.2-1-0.4-1.7-0.4c-0.3,0-0.6,0-1,0.1c-0.3,0.1-0.6,0.2-0.8,0.3c-0.2,0.1-0.4,0.3-0.5,0.5c-0.1,0.2-0.2,0.4-0.2,0.6
				c0,0.3,0.1,0.5,0.2,0.7s0.4,0.3,0.7,0.5c0.3,0.1,0.7,0.3,1.2,0.4c0.5,0.1,1.1,0.2,1.8,0.4c0.8,0.2,1.4,0.4,1.9,0.6s1,0.5,1.3,0.8
				c0.3,0.3,0.6,0.7,0.7,1.1c0.2,0.4,0.2,0.9,0.2,1.4s-0.1,1-0.3,1.4c-0.2,0.4-0.5,0.8-0.8,1.2c-0.4,0.3-0.8,0.6-1.3,0.9
				c-0.5,0.2-1.1,0.4-1.8,0.5v1.3c0,0.1-0.1,0.3-0.2,0.4c-0.1,0.1-0.2,0.2-0.4,0.2h-1.5c-0.1,0-0.3-0.1-0.4-0.2
				c-0.1-0.1-0.2-0.2-0.2-0.4v-1.3c-0.6-0.1-1.1-0.2-1.6-0.5s-1-0.5-1.3-0.8c-0.4-0.3-0.7-0.7-0.9-1.1s-0.4-0.8-0.4-1.3
				c0-0.2,0-0.3,0.2-0.4c0.1-0.1,0.2-0.2,0.4-0.2h1.3c0.2,0,0.4,0,0.5,0.1s0.2,0.2,0.3,0.3c0.1,0.2,0.2,0.3,0.3,0.5
				c0.1,0.2,0.3,0.3,0.5,0.4c0.2,0.1,0.5,0.2,0.8,0.3c0.3,0.1,0.7,0.1,1.2,0.1c0.4,0,0.8,0,1.1-0.1c0.4-0.1,0.7-0.2,0.9-0.3
				c0.3-0.1,0.5-0.3,0.6-0.5c0.2-0.2,0.2-0.4,0.2-0.7s-0.1-0.5-0.3-0.7c-0.2-0.2-0.5-0.3-0.8-0.5s-0.8-0.2-1.4-0.4s-1.2-0.3-1.9-0.4
				c-0.6-0.2-1.2-0.3-1.7-0.6c-0.5-0.2-0.9-0.5-1.2-0.8c-0.3-0.3-0.6-0.7-0.7-1.1s-0.2-0.9-0.2-1.5c0-0.5,0.1-1,0.3-1.4
				c0.2-0.4,0.5-0.8,0.8-1.1c0.3-0.3,0.7-0.6,1.2-0.8c0.5-0.2,1-0.4,1.5-0.5v-1.3c0-0.1,0.1-0.3,0.2-0.4c0.1-0.1,0.2-0.2,0.4-0.2
				h1.5c0.1,0,0.3,0.1,0.4,0.2s0.2,0.2,0.2,0.4L91.8,129.2L91.8,129.2z"/>
			<path class="st5" d="M100.1,140c0.1,0,0.3,0.1,0.4,0.2c0.1,0.1,0.2,0.2,0.2,0.4v1.7c0,0.1-0.1,0.3-0.2,0.4
				c-0.1,0.1-0.2,0.2-0.4,0.2h-1.6c-0.1,0-0.3-0.1-0.4-0.2c-0.1-0.1-0.2-0.2-0.2-0.4v-1.7c0-0.1,0.1-0.3,0.2-0.4
				c0.1-0.1,0.2-0.2,0.4-0.2H100.1z M100.5,138.3c0,0.1-0.1,0.3-0.2,0.4c-0.1,0.1-0.2,0.2-0.4,0.2h-1.5c-0.1,0-0.3-0.1-0.4-0.2
				c-0.1-0.1-0.2-0.2-0.2-0.4v-8.5c0-0.1,0.1-0.3,0.2-0.4c0.1-0.1,0.2-0.2,0.4-0.2h1.5c0.1,0,0.3,0.1,0.4,0.2
				c0.1,0.1,0.2,0.2,0.2,0.4V138.3z"/>
		</g>
	</g>
</g>
<g id="Character">
	<g id="Character-2">
		<g id="Bottom">
			<g>
				<path class="st8" d="M166.5,333c1.4-8.9,3.7-12.2,4.4-16.9c0.8-4.9,0.7-10.4,1.3-12.5c0,0-2-20.6-1.9-32.2
					c0.1-11.6,2.9-21.4,2.9-21.4s0.1-18.1,0.9-35.8c0.2-4.8,0.4-13.6,0.6-17c0.3-6.1,3-11.7,3.6-16.4l57.9,2c0,0,4.4,44.5,2.7,64.8
					c-1.4,15.7-2.2,21.4-3,29.9c-1.1,11-1.6,14.5-1.9,21.3c-0.2,4.4,0,7.6,3.7,13.1c3.7,5.5,9.3,11.1,13.2,13.4
					c3.9,2.3,5.1,5.8,0.3,7.5c-3.9,1.5-12,1.9-16.5-1.4c-4.5-3.3-7.4-7.4-12.2-9.8c-1.9-0.9-7.9-1.2-8.8-5.1
					c-0.8-3.9,1.8-10.3,2.7-15.1v-1.6c-0.5-9.8-3.6-18.6-5-26.9c-2.9-16.4-1.9-25.3-1.9-25.3l-1.9-16.9c0,0-5.2,17.5-6.9,24.1
					c-5.1,19.4-6.5,23.9-8.2,30.9c-1.2,5-3.5,15.1-4.5,19.3c0.7,3.2-1.3,12.8-1,22.7c0.1,3.3,1.4,11.4-2.1,16.3
					c-3.2,4.6-8.5,6.8-15,1.5C163.8,340.6,165.9,336.5,166.5,333L166.5,333z"/>
				<g>
					<path class="st15" d="M187.9,338.5c-0.5,4.7-1.4,7.7-3.5,10.3c-2.1,2.6-5.8,3.2-9.6,2.1c-3.8-1.1-8.6-3.6-9.5-7.8
						c-1-4.1-0.7-6.9,0.3-11.2L187.9,338.5L187.9,338.5z"/>
					<path class="st12" d="M172.3,303.7c-1.6,0-0.7,5.9-1.8,12.1c-1.1,6.7-3.6,9.3-4.6,14.8c-1.2,6.3-0.8,9.1,1.7,13.2
						c2.5,4,11.8,8.5,16.5,3.4c3.9-4.2,4.2-9.2,4-15.5c-0.2-6.6-0.4-11.2,0.1-16.2c0.4-4.7,1.4-9.7,0.1-10.3c-0.1,0.7-1.3,5.9-2,5.4
						c-0.1-0.1-0.2-0.3-0.2-0.4c-0.1-0.7-0.2-1.4-0.1-2.1c0-0.2,0.1-0.5,0-0.7c0-0.2-0.2-0.4-0.3-0.5c-0.5-0.5-1.1-0.7-1.8-0.9
						c-3-0.8-6.2-1.2-9.3-0.9c-0.2,0-0.5,0.1-0.6,0.2c-0.1,0.1-0.1,0.3-0.2,0.4c-0.1,0.6-0.2,1.3-0.2,2c0,0.2-0.1,0.4-0.2,0.6
						c-0.1,0.2-0.3,0.3-0.5,0.3c-0.6-0.1-0.5-0.8-0.5-1.2c-0.1-0.5-0.2-1-0.2-1.5C172.1,305.3,172,304.3,172.3,303.7L172.3,303.7z"
						/>
					<path class="st16" d="M172.3,303.7c-1.6,0-0.7,5.9-1.8,12.1c-1.1,6.7-3.6,9.3-4.6,14.8c-1.2,6.3-0.8,9.1,1.7,13.2
						c2.5,4,11.8,8.5,16.5,3.4c3.9-4.2,4.2-9.2,4-15.5c-0.2-6.6-0.4-11.2,0.1-16.2c0.4-4.7,1.4-9.7,0.1-10.3c-0.1,0.7-1.3,5.9-2,5.4
						c-0.1-0.1-0.2-0.3-0.2-0.4c-0.1-0.7-0.2-1.4-0.1-2.1c0-0.2,0.1-0.5,0-0.7c0-0.2-0.2-0.4-0.3-0.5c-0.5-0.5-1.1-0.7-1.8-0.9
						c-3-0.8-6.2-1.2-9.3-0.9c-0.2,0-0.5,0.1-0.6,0.2c-0.1,0.1-0.1,0.3-0.2,0.4c-0.1,0.6-0.2,1.3-0.2,2c0,0.2-0.1,0.4-0.2,0.6
						c-0.1,0.2-0.3,0.3-0.5,0.3c-0.6-0.1-0.5-0.8-0.5-1.2c-0.1-0.5-0.2-1-0.2-1.5C172.1,305.3,172,304.3,172.3,303.7L172.3,303.7z"
						/>
					<path class="st17" d="M166.2,328.9c-0.2,0.9-1.3,6.9,0.7,8.2c2.1,1.3,3.4-3.3,3.4-3.3s5-0.9,12.2,2.3c-0.4,1,0.6,4.3,2.6,3.8
						c2-0.5,3-7.4,3-7.5c0.1,6.1-0.2,10.9-4,15c-4.8,5.2-14,0.7-16.5-3.4c-2.5-4-2.8-6.9-1.7-13.2
						C165.9,330.1,166.1,329.5,166.2,328.9L166.2,328.9z"/>
					<path class="st15" d="M170.8,334.1c-0.1,2.3-2.8,1.3-2.8-1.9c0-3.2,2.3-10.8,2.4-16.4c1.1-6.3,0.2-12.1,1.8-12.1
						c0,0.1,0.3,4.1,0.3,4.6c-0.2,4.7-0.5,13.5-1.1,17.7C170.9,330.3,171,331.8,170.8,334.1L170.8,334.1z"/>
					<path class="st15" d="M181.6,335.9c0.6-2.2,1.1-3.7,1.7-7.9c0.6-4.2,2.3-13,3.4-17.6c0.3-1,1.5-5.1,1.5-5.2
						c1.1,0.4,0.5,3.4,0.2,6.5c-0.2,1.8-0.6,4.1-1.2,6.8c-1.5,5.4-1.5,13.3-2.4,16.4C183.9,338.1,181.1,338.1,181.6,335.9
						L181.6,335.9z"/>
					<g>
						<path class="st18" d="M182.6,336.2c0,0-0.1,0-0.2-0.1c-0.1,0-5.7-2.9-12-2c-0.3,0-0.6-0.1-0.7-0.4s0.1-0.5,0.4-0.6
							c6.8-1,12.6,2,12.8,2.1c0.3,0.2,0.4,0.4,0.2,0.7C183.1,336.1,182.8,336.2,182.6,336.2L182.6,336.2z"/>
						<path class="st18" d="M184.1,331.3c0,0-0.1,0-0.2-0.1c-0.1,0-6.4-3-13.4-2.2c-0.3,0-0.6-0.2-0.7-0.4c-0.1-0.3,0.1-0.5,0.5-0.6
							c7.5-0.9,13.9,2.2,14.2,2.3c0.3,0.1,0.4,0.4,0.2,0.7C184.5,331.3,184.3,331.3,184.1,331.3L184.1,331.3z"/>
						<path class="st18" d="M171,324.4c-0.2,0-0.4-0.2-0.5-0.4c-0.1-0.3,0.1-0.5,0.4-0.6c7-1.5,13.9,2.1,14.2,2.2
							c0.3,0.2,0.4,0.4,0.2,0.7c-0.2,0.2-0.5,0.3-0.8,0.2c-0.1,0-6.7-3.5-13.3-2.1C171.1,324.3,171,324.3,171,324.4L171,324.4z"/>
						<path class="st18" d="M171.3,320.5c-0.2,0-0.4-0.2-0.5-0.4c-0.1-0.3,0.1-0.5,0.4-0.6c7.8-1.7,14.2,2,14.5,2.2
							c0.3,0.2,0.3,0.5,0.2,0.7c-0.2,0.2-0.5,0.3-0.8,0.1c-0.1,0-6.2-3.6-13.5-2C171.5,320.5,171.4,320.5,171.3,320.5z"/>
						<path class="st18" d="M171.7,316.1c-0.2,0-0.4-0.2-0.5-0.3c-0.1-0.3,0.1-0.5,0.4-0.6c7.3-1.7,14.2,2.2,14.6,2.3
							c0.3,0.2,0.4,0.5,0.2,0.7c-0.2,0.2-0.5,0.3-0.8,0.1c-0.1,0-6.8-3.8-13.6-2.2C171.9,316.1,171.8,316.1,171.7,316.1L171.7,316.1
							z"/>
					</g>
				</g>
			</g>
			<g>
				<path class="st19" d="M172.1,243.9c7.9,6.7,19.4,8.2,32.1,4.9l3.2-15.6l1.4,12.9c7.2,3.2,23.5,3.9,31.3-2.7
					c0.3-15.7,0.9-35.9-0.3-65.2h-63.6c-2,9-3.9,14.3-4,28.1c-0.1,11.1-0.4,15.7,0,27.2C172.2,238.4,172.2,241.2,172.1,243.9z"/>
				<path class="st19" d="M171.9,238.5c7.1,6.6,18.9,9,33.4,5.3l-1.1,6.2c-8.5,4.4-26.9,2.8-32.6-4.6
					C171.6,245.5,171.9,238.5,171.9,238.5z"/>
				<path class="st19" d="M210.4,233.2l3-18.8c13.5-4.4,13.5-11.1,13.5-11.1c-5.9,6.5-15.6,7.3-15.6,7.3l-3.9,22.7l1.4,12.9
					c0.5,0.2,1.7,0.6,2.2,0.8L210.4,233.2L210.4,233.2z"/>
				<path class="st19" d="M240.6,239.7c-7.5,6.2-23.9,6.8-32.6,2.4l0.8,6.3c8.2,4.9,25.8,3,31.6-2.4L240.6,239.7L240.6,239.7z"/>
			</g>
			<g>
				<path class="st20" d="M258.1,329.1c0.3,0,0.7,3.2-0.9,4.6c-1.9,1.5-7.3,4-14.3,3c-7.1-1.1-9-2.5-11.8-4.9s-5.3-5-8.5-5.7
					c-3-0.7-7.5-2-8.4-2.9c-0.9-0.9-0.7-5-0.7-5L258.1,329.1z"/>
				<path class="st12" d="M216.5,300.4c0,0-1,0-1.2,1c-0.2,1.1-0.5,4.4-1.1,6.2c-0.7,2.6-1,9.8-0.7,11.9c0.3,2.1,6.5,3.5,9.5,4.8
					c3.2,1.3,5.4,2.9,8.6,5.7c3.3,2.8,8.4,5,13,5c5.5,0.1,11.6-1.6,13.1-4.1c1.8-3.1,2.1-6.1-5.9-10c-1.5-0.7-5.7-3.6-7.5-4.8
					c-2-1.3-3.6-2.9-5.3-4.5c-1.1-1.1-1.8-2.2-2.7-3.6c-0.5-0.7-1-1.6-1.2-2.4c-0.3-0.9-0.2-1.7-0.4-2.6c-0.1-0.5-0.3-1.2-0.8-1.4
					c-0.9-0.4-1.9-0.3-2.3-0.2c-1.9,0.2-3.7,0.6-5.5,1.1c-0.7,0.2-1.5,0.5-1.9,1.1c-0.3,0.4-0.4,1-0.4,1.5c0,0.5,0,1.1-0.1,1.6
					c0,0.2-0.1,0.4-0.2,0.5c-0.3,0.3-0.7,0-0.9-0.2c-0.8-0.8-1.4-1.8-2.1-2.7c-0.4-0.5-2.1-0.8-2.6-1.2c-0.4-0.3-1.2-0.8-1.6-1.2
					C216,301.4,216.5,301,216.5,300.4L216.5,300.4z"/>
				<path class="st16" d="M216.5,300.4c0,0-1,0-1.2,1c-0.2,1.1-0.5,4.4-1.1,6.2c-0.7,2.6-1,9.8-0.7,11.9c0.3,2.1,6.5,3.5,9.5,4.8
					c3.2,1.3,5.4,2.9,8.6,5.7c3.3,2.8,8.4,5,13,5c5.5,0.1,11.6-1.6,13.1-4.1c1.8-3.1,2.1-6.1-5.9-10c-1.5-0.7-5.7-3.6-7.5-4.8
					c-2-1.3-3.6-2.9-5.3-4.5c-1.1-1.1-1.8-2.2-2.7-3.6c-0.5-0.7-1-1.6-1.2-2.4c-0.3-0.9-0.2-1.7-0.4-2.6c-0.1-0.5-0.3-1.2-0.8-1.4
					c-0.9-0.4-1.9-0.3-2.3-0.2c-1.9,0.2-3.7,0.6-5.5,1.1c-0.7,0.2-1.5,0.5-1.9,1.1c-0.3,0.4-0.4,1-0.4,1.5c0,0.5,0,1.1-0.1,1.6
					c0,0.2-0.1,0.4-0.2,0.5c-0.3,0.3-0.7,0-0.9-0.2c-0.8-0.8-1.4-1.8-2.1-2.7c-0.4-0.5-2.1-0.8-2.6-1.2c-0.4-0.3-1.2-0.8-1.6-1.2
					C216,301.4,216.5,301,216.5,300.4L216.5,300.4z"/>
				<path class="st15" d="M231.6,329.8c-1.4-1.2-2.2-1.9-3.7-3l0,0c0,0,8.6,3.6,12.5,1c2.5-1.6,1.4-3.7,1.3-4.4
					c0-0.6,6.1-3.4,8.5-3.6l0,0c0.7,0.4,1.2,0.7,1.6,0.9c8,3.9,7.7,6.9,5.9,10c-1.5,2.5-5.9,4.4-13,4.3
					C240.1,334.9,234.9,332.6,231.6,329.8L231.6,329.8z"/>
				<path class="st15" d="M241.1,321.6c5,2.1,2.8,3,1.4,3.2s-8.4-4-13.5-8.2c-5.3-4.4-9.9-9-11.9-10.6c-0.7-0.6-1.5-1.3-2.2-2
					c0.2-1.1,0.3-2.1,0.4-2.6c0.2-0.9,1.3-1.2,1.3-1.2v1.6c0.4,0.4,1.2,0.8,1.7,1c1.1,0.4,2,1.1,2.3,1.6c0.7,0.9,1.3,1.9,2.1,2.7
					C227.1,312.6,236.1,319.5,241.1,321.6L241.1,321.6z"/>
				<g>
					<path class="st18" d="M242.2,324c-0.1,0-0.2,0-0.3-0.1c-0.2-0.2-0.2-0.5-0.1-0.7c1.5-1.7,5.6-3.9,9.3-3.5
						c0.3,0,0.5,0.3,0.4,0.6c0,0.3-0.2,0.5-0.6,0.4c-3.5-0.4-7.3,1.8-8.4,3.1C242.5,324,242.3,324,242.2,324L242.2,324z"/>
					<path class="st18" d="M237.8,321.5c-0.1,0-0.2,0-0.3-0.1c-0.2-0.2-0.2-0.5-0.1-0.7c1.4-1.7,5.5-4.1,9.2-3.7
						c0.3,0,0.5,0.3,0.4,0.6c0,0.3-0.3,0.5-0.6,0.4c-3.5-0.4-7.2,1.9-8.3,3.3C238.1,321.4,237.9,321.5,237.8,321.5L237.8,321.5z"/>
					<path class="st18" d="M233.8,318.6c-0.1,0-0.2,0-0.3-0.1c-0.2-0.2-0.2-0.5-0.1-0.7c1.5-1.7,5.6-3.9,9.3-3.5
						c0.3,0,0.5,0.3,0.4,0.6c0,0.3-0.3,0.5-0.6,0.4c-3.5-0.4-7.3,1.8-8.4,3.1C234.1,318.5,234,318.6,233.8,318.6L233.8,318.6z"/>
					<path class="st18" d="M230.6,315.7c-0.1,0-0.2,0-0.3-0.1c-0.2-0.2-0.2-0.5-0.1-0.7c1.4-1.8,5.4-4.2,9.1-3.9
						c0.3,0,0.5,0.3,0.5,0.5s-0.2,0.5-0.5,0.5c-3.5-0.3-7.2,2.1-8.3,3.5C230.9,315.6,230.8,315.7,230.6,315.7L230.6,315.7z"/>
					<path class="st18" d="M226.9,312.4c-0.1,0-0.2,0-0.3-0.1c-0.2-0.2-0.3-0.5-0.1-0.7c1.9-2.5,6.3-4.2,10-3.9
						c0.3,0,0.5,0.3,0.5,0.5c0,0.3-0.3,0.5-0.5,0.5c-3.3-0.3-7.4,1.3-9.1,3.5C227.2,312.4,227,312.4,226.9,312.4L226.9,312.4z"/>
				</g>
			</g>
		</g>
		<g id="Top">
			<path class="st21" d="M226.4,119.6c8,0.7,11.3,5.1,18.7,12.3c9.2,8.9,13.7,13.8,13.7,13.8l0.4,19.3c-6.6,1.9-14.8-4.3-30.2-14.1
				C229,150.9,226.4,119.6,226.4,119.6z"/>
			<g>
				<path class="st12" d="M175.8,168.5c0.1-6.4-4.9-23.8-4.9-26.5c-0.1-5.5,1.8-14.2,8.9-17.1c0,0,13.2-6.4,28-6.3
					c13.6,0.1,18.5,1,18.5,1c2.8,3.3,8.9,11.4,10.9,29.1c0.5,4.5,2.5,20.5,3,37.4c-9.4,13.6-48.9,14-66.6,1.1
					C173.7,187.2,175.7,177.9,175.8,168.5L175.8,168.5z"/>
				<path class="st21" d="M175.8,168.5c0.1-6.4-4.9-23.8-4.9-26.5c-0.1-5.5,1.8-14.2,8.9-17.1c0,0,13.2-6.4,28-6.3
					c13.6,0.1,18.5,1,18.5,1c2.8,3.3,8.9,11.4,10.9,29.1c0.5,4.5,2.5,20.5,3,37.4c-9.4,13.6-48.9,14-66.6,1.1
					C173.7,187.2,175.7,177.9,175.8,168.5L175.8,168.5z"/>
			</g>
			<g>
				<path class="st15" d="M220.7,69.6c-4.4-3.5-10.8-5.3-19.9-3.4c-19,4-19.9,20.1-16.6,29c3.8,10.4,8.5,14.9,11.2,19.4l29.8-26.9
					c2.3,2.2,3.2,3.7,3.2,3.7l0.4,0.7c3.5-0.2,5.7-5,3.2-6.9C234.5,80.9,235.2,69,220.7,69.6z"/>
				<path class="st15" d="M186.7,66.2c-0.6-1.4-2.4-2.2-3.8-1.7c-1.5,0.5-2.3,2.3-1.9,3.8c-1.6-1-3.8-1.3-5.3-0.2
					c-1.6,1.1-1.9,3.7-0.4,4.8c-1.3-0.3-2.9-0.4-3.7,0.7c-0.8,1.2,0,2.9-0.8,4.1c-0.7,1-2.6,0.7-3-0.5c-0.1,1.1,0.7,2.2,1.7,2.7
					c1.1,0.4,2.3,0.3,3.3,0c-1.4,0.2-2.5,1.6-2.4,3.1c0.2,1.4,1.5,2.6,2.9,2.5c-1,1.1-0.4,3.1,0.9,3.7c1.3,0.7,3,0.2,4.1-0.7
					c0.5,1.4,1.8,2.4,3.2,2.6c1.5,0.1,2.9-0.6,3.7-1.9c1.6,0.5,3.5,0,4.6-1.3c1.1-1.3,1.2-3.3,0.4-4.8c2.2-0.1,4-2.1,4.3-4.2
					c0.3-2-0.5-3.8-1.6-5.5c-0.9-1.4-0.6-1.9-0.3-3.4c0.3-1.5-0.1-3.1-1.5-4C190.7,65.5,188.5,64.6,186.7,66.2L186.7,66.2z"/>
				<path class="st15" d="M203.6,64c-0.9-1.3-0.5-3.2,0.7-4.1c1.3-0.9,3.2-0.6,4.2,0.6c0.1-1.9,1-3.9,2.8-4.6
					c1.8-0.7,4.1,0.5,4.2,2.3c0.5-1.2,1.3-2.7,2.6-2.7c1.4,0,2.4,1.7,3.8,1.6c1.2,0,2-1.8,1.3-2.7c1,0.5,1.5,1.8,1.2,2.9
					c-0.2,1.1-1,2.1-1.9,2.7c1-1.1,2.8-1.2,3.9-0.2c1.1,0.9,1.3,2.7,0.4,3.9c1.5-0.2,2.8,1.3,2.6,2.8c-0.2,1.5-1.5,2.6-2.9,3
					c0.9,1.2,1,2.8,0.3,4.1s-2.2,2.1-3.6,2c-0.5,1.6-2,2.9-3.7,3.1c-1.7,0.2-3.4-0.8-4.1-2.4c-1.3,1.7-3.9,2.1-5.9,1.2
					c-1.9-0.9-2.8-2.6-3.6-4.4c-0.7-1.5-1.2-1.6-2.6-2.2c-1.4-0.6-2.5-1.8-2.4-3.4C200.8,67,201.4,64.6,203.6,64L203.6,64z"/>
				<g>
					<path class="st8" d="M188.7,106.9c4.1,2.7,6.1,0.2,6.1,0.2l-0.4,14.2c8.1,13,24,8.5,20.4,3l0.5-6.4c0,0,3.9-0.2,6.1-0.8
						c5.4-1.5,7.3-3.6,8.7-7.7c1.4-4.3,0.8-9.1,0.2-12.4c-0.6-2.8-1.4-3.2-1.3-6.2c0.1-3.6-0.3-6.1-1.5-9.3
						c-4.2-3.4-14-3.4-23.2,2.2c1,5.4-0.3,7.7-4.3,9.7c0.2,1.5,0.3,5.2-2.1,5.1c-1.7-0.1-1.5-2.3-3.3-4.2c-1.8-2-6-2.3-8.2,0.6
						C183.6,98.4,185.6,104.8,188.7,106.9L188.7,106.9z"/>
					<path class="st22" d="M216.7,107.6c0.2-0.1,0.3-0.3,0.5-0.4c0.4-0.3,0.9-0.4,1.5-0.4s1,0.2,1.5,0.4c0.1,0.1,0.3,0.1,0.4,0.1
						c0.2,0,0.3-0.1,0.3-0.3c0.1-0.4-0.4-0.8-0.6-1c-0.3-0.2-0.8-0.3-1.2-0.3c-0.8,0-1.7,0.3-2.3,0.9c-0.2,0.2-0.5,0.5-0.6,0.7
						c-0.1,0.1-0.1,0.3-0.1,0.4C216.3,107.9,216.5,107.7,216.7,107.6C216.7,107.6,216.7,107.6,216.7,107.6z"/>
					<path class="st22" d="M215.3,117.8c-4.1-0.1-8.1-0.7-12.5-3.8c-3.7-2.6-5.1-6.2-5.1-6.2s0.6,3.6,3.3,6.7
						c3.2,3.6,8.1,5.2,14.1,5.4L215.3,117.8L215.3,117.8z"/>
					<g>
						<path class="st20" d="M214.5,95.3c0,1-0.7,1.8-1.7,1.8c-1,0-1.7-0.8-1.8-1.7c0-1,0.7-1.8,1.7-1.8
							C213.7,93.5,214.5,94.3,214.5,95.3z"/>
						<path class="st15" d="M209,90.6l3.6-2.1c0.6,1,0.2,2.4-0.8,3C210.9,92,209.6,91.6,209,90.6L209,90.6z"/>
						<path class="st15" d="M221.7,86.5l4.1,1c-0.2,1.2-1.3,1.9-2.5,1.6C222.2,88.9,221.5,87.7,221.7,86.5z"/>
						<path class="st20" d="M227.9,93.9c0,1-0.7,1.8-1.7,1.8c-1,0-1.7-0.8-1.8-1.7c0-1,0.7-1.8,1.7-1.8
							C227,92.1,227.8,92.9,227.9,93.9z"/>
						<path class="st22" d="M213.7,86.9c-0.2,0-0.3-0.1-0.5-0.1c-0.1,0-0.3,0.1-0.3,0.2c0,0.3,0.6,0.4,0.9,0.5
							c0.2,0.2,0.4,0.4,0.5,0.7c0.1,0.3,0.1,0.6,0.2,0.8c0,0.1,0.2,0.6,0.4,0.3c0-0.1,0.1-0.1,0.1-0.2c0-0.2,0.1-0.3,0.1-0.5
							c0-0.2,0-0.4-0.1-0.6c-0.1-0.3-0.2-0.6-0.5-0.8C214.3,87,214,86.9,213.7,86.9L213.7,86.9z M220.4,86.7c0,0,0-0.1,0-0.1
							c0-0.1,0-0.2,0-0.2l0,0v-0.1c0,0,0-0.1,0.1-0.1c0-0.1,0.1-0.3,0.1-0.4c0.1-0.3-0.3-0.4-0.5-0.2l-0.3,0.3v0l-0.1,0.1
							c0,0,0,0.1-0.1,0.1c0,0.1-0.1,0.2-0.1,0.3c0,0.2,0,0.4,0,0.6c0,0.2,0.1,0.4,0.2,0.6c0.1,0.1,0.2,0.2,0.3,0.3
							c0,0,0.1,0.1,0.1,0.1c0.1,0.1,0.2,0.1,0.3,0.1c0.2,0,0.5-0.1,0.4-0.3c0-0.1,0-0.1-0.1-0.2c0,0-0.1-0.1,0,0
							c0,0-0.1-0.1-0.1-0.1c0-0.1-0.1-0.2-0.1-0.2l0-0.1l0,0c0,0,0-0.1,0-0.1C220.4,86.9,220.4,86.8,220.4,86.7
							C220.4,86.8,220.4,86.7,220.4,86.7z"/>
					</g>
				</g>
			</g>
			<g>
				<path class="st21" d="M181,124.5c-7.7,2.3-13,8.2-12.4,15.4c0.6,6.7,3.3,12.6,10.2,22.5c5.4,7.7,12.9,12.9,18.2,14.1
					c5.3,1.1,4-20.6,4-20.6S188.6,134,181,124.5L181,124.5z"/>
				<g>
					<path class="st8" d="M203,125.2c0.3,4-5.5,16.4-8.4,21.8c-3,5.4-3.8,8-4,12.5c-0.2,4.4,1.7,11.6,4.8,15.7
						c1.7,2.3,8.1,0.9,12.7-6.8c4.7-7.7,4.4-14.3,4.7-23c0.2-6.7,0.9-10.8,1.2-14.3c0.1-1.4,1.7-5.2,2.7-9.9c1-4.6-0.4-7.8-0.5-9.7
						c-0.1-1.3-0.1-3.4,0.4-5.7c0.3-1.1,0.7-2.4,0.8-3.5c0.4-2.9-0.5-4-1.3-4.1c0.2-2-0.2-3.3-1.4-3.7c0.1-1.8-1.1-3.1-1.9-2.6
						c-0.8,0.5-1.8,2.6-1.8,2.6s-1.2-0.2-2.1,0.4c-0.9,0.6-3,3.9-4.4,5.7c-1.4,1.8-1.2,3.9-1.9,6.8c0,0-0.7-1.2-1.8-2.2
						c-1.2-1-3.3-0.7-2.5,1.5c0.8,2.1,1.5,5.2,2,9.1C201,119.9,203,125.2,203,125.2"/>
					<path class="st22" d="M217.7,99.9c-0.1-0.4-0.2-0.7-0.4-1c-0.2-0.3-0.5-0.5-0.8-0.6c0.1-0.7,0.1-1.4-0.1-2.1
						c-0.1-0.4-0.2-0.7-0.5-1c-0.2-0.3-0.5-0.5-0.8-0.6c0-0.6-0.1-1.1-0.3-1.7c-0.1-0.3-0.3-0.6-0.6-0.8c-0.2-0.2-0.6-0.4-0.9-0.4
						c-0.4,0-0.6,0.3-0.9,0.5c-0.2,0.2-0.4,0.5-0.6,0.7c-0.3,0.5-0.6,1-0.8,1.5c-0.7,0-1.4,0.1-2,0.4c-0.6,0.4-1,1-1.5,1.5
						c-0.8,1.1-1.6,2.3-2.4,3.4c-0.2,0.3-0.4,0.6-0.6,0.8s-0.4,0.6-0.6,0.9c-0.3,0.6-0.5,1.3-0.6,2c-0.2,1.3-0.4,2.5-0.7,3.7
						c-0.2-0.4-0.5-0.7-0.8-1.1c-0.2-0.2-0.4-0.4-0.6-0.6c-0.2-0.2-0.4-0.4-0.7-0.5c-0.5-0.3-1.1-0.4-1.7-0.3
						c-0.3,0.1-0.6,0.3-0.7,0.6c-0.2,0.3-0.2,0.6-0.2,0.9c0.1,0.6,0.3,1.1,0.5,1.6c0.2,0.5,0.3,1.1,0.5,1.6c0.3,1.1,0.5,2.1,0.7,3.2
						c0.4,2.1,0.6,4.4,1.2,6.5c0.5,2.1,1.2,4.2,2,6.3c-0.7-2.1-1.4-4.2-1.9-6.3c-0.5-2.1-0.7-4.3-1.1-6.5c-0.2-1.1-0.4-2.2-0.7-3.2
						c-0.1-0.5-0.3-1.1-0.5-1.6c-0.2-0.5-0.4-1-0.5-1.5c0-0.2,0-0.5,0.1-0.7c0.1-0.2,0.3-0.4,0.6-0.4c0.5-0.2,1,0,1.5,0.2
						c0.2,0.1,0.4,0.3,0.6,0.5s0.4,0.4,0.6,0.6c0.3,0.4,0.7,0.9,0.9,1.3l0.2,0.3l0.1-0.3c0.4-1.3,0.5-2.7,0.8-4.1
						c0.1-0.7,0.3-1.3,0.6-1.9c0.2-0.3,0.3-0.6,0.6-0.8s0.4-0.6,0.6-0.8c0.8-1.1,1.6-2.3,2.4-3.3c0.4-0.5,0.8-1.1,1.4-1.5
						c0.6-0.3,1.2-0.4,1.9-0.3h0.2l0.1-0.1c0.2-0.5,0.5-1,0.8-1.5c0.2-0.2,0.3-0.5,0.5-0.7c0.2-0.2,0.4-0.4,0.6-0.4
						c0.5,0,0.9,0.4,1.1,0.9c0.2,0.5,0.3,1.1,0.3,1.6v0.2l0.1,0c0.3,0.1,0.6,0.3,0.8,0.5c0.2,0.2,0.3,0.6,0.4,0.9
						c0.2,0.7,0.2,1.4,0.1,2.1v0.1l0.1,0c0.6,0.2,1,0.8,1.1,1.5c0.2,0.7,0.2,1.4,0.1,2.1c-0.1,1.4-0.6,2.7-0.9,4.1
						c-0.3,1.4-0.4,2.8-0.4,4.3c0,0.7,0,1.4,0.2,2.1c0.1,0.7,0.3,1.4,0.4,2.1c0.3,1.4,0.4,2.8,0.3,4.2s-0.4,2.8-0.7,4.2
						c-0.3,1.4-0.7,2.7-1.1,4.1l-0.6,2c-0.2,0.7-0.4,1.4-0.5,2.1c0.1-0.7,0.3-1.4,0.5-2.1l0.7-2c0.4-1.4,0.9-2.7,1.2-4.1
						c0.4-1.4,0.7-2.8,0.8-4.2c0.1-1.4,0-2.9-0.3-4.3c-0.1-0.7-0.3-1.4-0.4-2.1c-0.1-0.7-0.1-1.4-0.1-2.1c0-1.4,0.1-2.8,0.4-4.2
						c0.3-1.4,0.8-2.7,1-4.2C217.9,101.3,217.9,100.6,217.7,99.9L217.7,99.9z"/>
					<path class="st22" d="M195.4,175.3c0.4,0.4,0.9,0.7,1.4,0.8c0.5,0.1,1.1,0.1,1.6,0c1.1-0.2,2.1-0.6,3.1-1.2
						c1-0.6,1.8-1.2,2.7-2c0.8-0.7,1.6-1.6,2.3-2.4c1.4-1.7,2.5-3.7,3.4-5.8c0.9-2.1,1.5-4.2,1.9-6.5c0.8-4.4,0.7-9,1-13.5
						c0.1-2.3,0.3-4.5,0.5-6.8c0.2-2.3,0.5-4.5,0.7-6.7c-0.2,2.3-0.5,4.5-0.7,6.8c-0.2,2.3-0.4,4.5-0.4,6.8
						c-0.2,4.5-0.1,9.1-0.8,13.6c-0.4,2.2-1,4.4-1.9,6.5c-0.2,0.5-0.5,1.1-0.7,1.5l-0.4,0.8l-0.4,0.7c-0.6,1-1.1,2-1.8,2.9
						c-0.7,0.9-1.5,1.8-2.3,2.6c-0.9,0.8-1.8,1.5-2.8,2c-1,0.6-2.1,1-3.3,1.1c-0.6,0.1-1.2,0-1.7-0.2
						C196.2,176.1,195.7,175.8,195.4,175.3L195.4,175.3z"/>
					<path class="st22" d="M206.3,106.8c0-1.1,0-2.2,0.1-3.4c0.1-1.1,0.6-2.3,1.2-3.2c1.1-1.9,2.4-3.6,3.7-5.4
						c-0.9,2-2.1,3.8-3.2,5.7c-0.6,0.9-1,1.9-1.2,3C206.7,104.6,206.6,105.8,206.3,106.8L206.3,106.8z"/>
					<path class="st22" d="M214.7,94.8c-0.3,0-0.6,0-0.8,0.2c-0.2,0.2-0.3,0.5-0.5,0.7c-0.2,0.5-0.4,1.1-0.6,1.7
						c-0.4,1.1-0.8,2-1.3,3.1c-0.2,0.6-0.5,1.1-0.6,1.7c-0.2,0.6-0.3,1.2-0.4,1.8c-0.2,1.2-0.5,2.4-0.8,3.5c0.1-1.2,0.2-2.4,0.4-3.6
						c0.1-0.6,0.2-1.2,0.3-1.8c0.2-0.6,0.4-1.2,0.6-1.8c0.5-1.1,0.9-2,1.4-3.1c0.2-0.6,0.4-1.1,0.8-1.7c0.2-0.3,0.3-0.5,0.6-0.7
						C214.1,94.6,214.4,94.7,214.7,94.8L214.7,94.8z"/>
					<path class="st22" d="M216.1,98.5c-0.2,0-0.5,0.1-0.6,0.3s-0.2,0.4-0.3,0.6c-0.2,0.4-0.3,0.9-0.4,1.3c-0.2,0.9-0.3,1.8-0.6,2.7
						c-0.2,0.5-0.3,0.9-0.5,1.3s-0.4,0.9-0.5,1.3c-0.3,0.9-0.5,1.8-0.7,2.8c0-1,0-1.9,0.2-2.9c0.2-1,0.6-1.9,0.9-2.7
						c0.3-0.9,0.4-1.7,0.7-2.6c0.2-0.5,0.4-0.9,0.6-1.3c0.1-0.2,0.3-0.4,0.5-0.6C215.6,98.5,215.8,98.4,216.1,98.5L216.1,98.5z"/>
					<path class="st22" d="M202.8,107.5c0.1,1.2,0.1,2.3,0,3.5c0,1.1-0.1,2.3-0.2,3.4c-0.2-1.1-0.2-2.3-0.2-3.5
						C202.4,109.8,202.5,108.6,202.8,107.5L202.8,107.5z"/>
				</g>
			</g>
			<g>
				<path class="st8" d="M242.8,119.1c0.7,3.8,8.9,13.7,13,18c4,4.3,5.4,6.5,6.6,10.5s1.2,11-0.6,15.6c-1,2.5-7.2,2.7-13.3-3.2
					c-6.1-5.9-7.4-12.1-9.8-19.9c-1.8-6.1-3.4-9.6-4.5-12.8c-0.5-1.3-2.8-4.4-4.9-8.4c-2-4-1.5-7.2-1.9-9c-0.2-1.2-0.7-3.1-1.8-5.1
					c-0.5-1-1.2-2-1.6-3c-1-2.6-0.5-3.7,0.2-4.1c-0.7-1.8-0.6-3.1,0.4-3.7c-0.6-1.6,0.2-3.1,1.1-2.9c0.9,0.2,2.2,1.9,2.2,1.9
					s1.1-0.4,2-0.1c1,0.3,3.6,2.8,5.4,4.1c1.7,1.3,2,3.3,3.4,5.8c0,0,0.3-1.3,1.1-2.5c0.8-1.2,2.9-1.4,2.6,0.7
					c-0.2,2.1-0.1,5.1,0.3,8.9C243.3,113.7,242.8,119.1,242.8,119.1"/>
				<path class="st22" d="M223.2,99.4c0-0.3,0-0.7,0.2-1.1c0.1-0.3,0.3-0.6,0.6-0.8c-0.2-0.6-0.4-1.2-0.4-1.9c0-0.4,0-0.7,0.2-1.1
					c0.1-0.3,0.4-0.6,0.6-0.7c-0.2-0.5-0.2-1.1-0.1-1.6c0.1-0.3,0.2-0.6,0.3-0.8c0.2-0.2,0.4-0.5,0.8-0.6c0.4-0.1,0.7,0.1,0.9,0.2
					c0.2,0.2,0.5,0.3,0.7,0.5c0.4,0.3,0.7,0.7,1.1,1.1c0.6-0.2,1.3-0.3,1.9-0.1c0.7,0.2,1.2,0.7,1.7,1.1c1,0.8,2,1.7,3,2.5
					c0.2,0.2,0.5,0.4,0.8,0.6s0.5,0.4,0.7,0.7c0.5,0.5,0.8,1.1,1.1,1.7c0.5,1.1,1,2.2,1.5,3.2c0.1-0.4,0.3-0.8,0.5-1.2
					c0.1-0.2,0.2-0.5,0.4-0.7c0.1-0.2,0.3-0.5,0.5-0.6c0.4-0.4,0.9-0.7,1.5-0.6c0.3,0,0.6,0.1,0.8,0.3c0.2,0.2,0.3,0.5,0.3,0.8
					c0.1,0.6-0.1,1.1-0.1,1.6c0,0.5,0,1,0,1.5c0,1,0,2.1,0.1,3.1c0.1,2.1,0.5,4.1,0.5,6.2c0,2.1-0.1,4.2-0.3,6.2
					c0.2-2.1,0.2-4.1,0.2-6.2c0-2.1-0.4-4.1-0.6-6.2c-0.1-1-0.1-2.1-0.1-3.1c0-0.5,0-1.1,0-1.6c0-0.5,0.1-1.1,0.1-1.5
					c0-0.2-0.1-0.5-0.3-0.6c-0.2-0.2-0.4-0.2-0.6-0.3c-0.5,0-1,0.2-1.3,0.6c-0.2,0.2-0.3,0.4-0.4,0.6c-0.1,0.2-0.2,0.4-0.4,0.7
					c-0.2,0.5-0.4,0.9-0.5,1.4l-0.1,0.3l-0.2-0.3c-0.6-1.1-1.1-2.4-1.7-3.5c-0.3-0.6-0.6-1.1-1-1.6c-0.2-0.2-0.4-0.4-0.7-0.6
					c-0.3-0.2-0.5-0.4-0.8-0.6c-1-0.8-2-1.7-3-2.5c-0.5-0.4-1-0.8-1.6-1c-0.6-0.2-1.2-0.1-1.8,0.1l-0.1,0.1l-0.1-0.1
					c-0.3-0.4-0.7-0.8-1.1-1.2c-0.2-0.2-0.4-0.4-0.6-0.5c-0.2-0.1-0.4-0.2-0.6-0.2c-0.4,0.1-0.7,0.6-0.8,1.1c-0.1,0.5,0,1.1,0.1,1.5
					l0,0.1l-0.1,0.1c-0.3,0.2-0.5,0.4-0.6,0.7c-0.1,0.3-0.2,0.6-0.2,0.9c0,0.6,0.2,1.3,0.4,1.9l0,0.1l-0.1,0.1
					c-0.5,0.3-0.7,1-0.7,1.6c0,0.6,0.2,1.3,0.4,1.9c0.4,1.3,1.2,2.3,1.8,3.6c0.6,1.2,1.1,2.5,1.4,3.8c0.2,0.6,0.3,1.3,0.4,2
					c0.1,0.7,0.1,1.3,0.1,2c0.1,1.3,0.3,2.7,0.7,3.9c0.4,1.3,1,2.5,1.6,3.6c0.6,1.2,1.3,2.3,2,3.5l1.1,1.7c0.3,0.6,0.7,1.1,1,1.8
					c-0.2-0.6-0.6-1.2-1-1.8l-1.1-1.7c-0.7-1.1-1.4-2.3-2.1-3.4c-0.6-1.2-1.3-2.4-1.7-3.6c-0.4-1.3-0.6-2.6-0.7-4
					c-0.1-0.7-0.1-1.3-0.1-2s-0.2-1.3-0.4-1.9c-0.3-1.3-0.8-2.6-1.4-3.7c-0.6-1.2-1.4-2.3-1.9-3.6
					C223.5,100.9,223.3,100.2,223.2,99.4L223.2,99.4z"/>
				<path class="st22" d="M261.7,163.1c-0.2,0.5-0.6,0.8-1.1,1.1c-0.5,0.2-1,0.3-1.5,0.4c-1,0.1-2.1-0.1-3.1-0.3
					c-1-0.3-2-0.7-2.9-1.2c-0.9-0.5-1.8-1.1-2.7-1.7c-1.7-1.2-3.2-2.8-4.5-4.5c-1.3-1.7-2.4-3.5-3.3-5.5c-1.8-3.9-2.8-8.1-4.1-12.1
					c-0.6-2-1.3-4.1-2.1-6.1c-0.7-2-1.6-4-2.3-6c0.7,2,1.5,4,2.2,6s1.4,4,2,6.1c1.2,4.1,2.2,8.3,4,12.2c0.9,2,2,3.8,3.3,5.5
					c0.3,0.4,0.7,0.9,1,1.2l0.5,0.6l0.6,0.6c0.7,0.8,1.5,1.6,2.3,2.2c0.8,0.7,1.8,1.3,2.7,1.8c1,0.5,2,0.9,3.1,1.2
					c1.1,0.3,2.2,0.4,3.3,0.2c0.5-0.1,1.1-0.3,1.5-0.6S261.5,163.6,261.7,163.1L261.7,163.1z"/>
				<path class="st22" d="M235.3,103c-0.3-1-0.5-2.1-0.9-3.1c-0.4-1-1.1-1.9-1.8-2.7c-1.5-1.5-3.1-2.7-4.7-4.1
					c1.3,1.7,2.8,3,4.3,4.5c0.8,0.7,1.4,1.5,1.8,2.4C234.5,101.1,234.8,102.1,235.3,103L235.3,103z"/>
				<path class="st22" d="M224.7,94c0.3-0.1,0.6-0.2,0.8,0c0.2,0.1,0.4,0.3,0.6,0.6c0.3,0.4,0.6,0.9,0.9,1.4c0.6,1,1.2,1.7,1.9,2.6
					c0.3,0.5,0.7,0.9,1,1.4c0.3,0.5,0.5,1,0.8,1.5c0.5,1,1.1,2,1.6,3c-0.4-1.1-0.8-2.2-1.2-3.2c-0.2-0.5-0.5-1.1-0.7-1.6
					c-0.3-0.5-0.6-1-1-1.5c-0.7-0.9-1.3-1.6-2-2.5c-0.3-0.4-0.7-0.9-1.1-1.4c-0.2-0.2-0.4-0.4-0.7-0.5C225.3,93.7,225,93.9,224.7,94
					L224.7,94z"/>
				<path class="st22" d="M224.3,97.7c0.2,0,0.5,0,0.6,0.1c0.2,0.1,0.3,0.3,0.5,0.5c0.3,0.3,0.5,0.7,0.7,1.1
					c0.4,0.8,2.6,4.1,2.8,4.5c0.5,0.8,0.9,1.6,1.3,2.4c-0.2-0.9-0.5-1.8-0.9-2.6c-0.4-0.9-0.9-1.6-1.4-2.3c-0.5-0.7-0.9-1.4-1.4-2.2
					c-0.3-0.4-0.5-0.7-0.9-1.1c-0.2-0.2-0.4-0.3-0.6-0.4C224.8,97.6,224.6,97.6,224.3,97.7L224.3,97.7z"/>
				<path class="st22" d="M238.7,102.8c0.2,1.1,0.5,2.1,0.8,3.2c0.3,1.1,0.6,2.1,1,3.1c-0.1-1.1-0.3-2.2-0.6-3.2
					C239.6,104.8,239.2,103.8,238.7,102.8L238.7,102.8z"/>
			</g>
			<path class="st7" d="M218.4,91.2c2.8,2,6.6,8.6,6.6,8.6l-5.5,2.3L218.4,91.2z"/>
		</g>
	</g>
</g>
<g id="Hearts">
	<g id="Hearts-2">
		<g>
			<g>
				<path class="st12" d="M272.6,51c-5.5-1.6-10.4,3.2-10,10.6l-0.8,5.9l5.3,4l0.1,8.7C280.5,66.3,278.1,52.6,272.6,51z"/>
				<path class="st12" d="M258.6,68.6l0.8-5.9c-3.1-6.8-9.7-8.8-13.8-4.8c-4.1,4,0.1,17.2,18.4,23.5l-0.1-8.7L258.6,68.6L258.6,68.6
					z"/>
			</g>
			<g class="st23">
				<path class="st19" d="M272.6,51c-5.5-1.6-10.4,3.2-10,10.6l-0.8,5.9l5.3,4l0.1,8.7C280.5,66.3,278.1,52.6,272.6,51z"/>
				<path class="st19" d="M258.6,68.6l0.8-5.9c-3.1-6.8-9.7-8.8-13.8-4.8c-4.1,4,0.1,17.2,18.4,23.5l-0.1-8.7L258.6,68.6L258.6,68.6
					z"/>
			</g>
		</g>
		<g>
			<g>
				<path class="st12" d="M250.7,11.9c-4-0.6-6.9,3.3-5.9,8.4l0.1,4.2l4.1,2.3l0.9,6.1C257.8,21.8,254.7,12.5,250.7,11.9L250.7,11.9
					z"/>
				<path class="st12" d="M241.7,26.3l-0.1-4.2c-2.8-4.4-7.6-5.2-10.1-1.9s1.8,12,15.2,14.5l-0.9-6.1L241.7,26.3L241.7,26.3z"/>
			</g>
			<g class="st24">
				<path class="st19" d="M250.7,11.9c-4-0.6-6.9,3.3-5.9,8.4l0.1,4.2l4.1,2.3l0.9,6.1C257.8,21.8,254.7,12.5,250.7,11.9L250.7,11.9
					z"/>
				<path class="st19" d="M241.7,26.3l-0.1-4.2c-2.8-4.4-7.6-5.2-10.1-1.9s1.8,12,15.2,14.5l-0.9-6.1L241.7,26.3L241.7,26.3z"/>
			</g>
		</g>
		<g>
			<g>
				<path class="st12" d="M203,31.8c-2.8-2.4-6.9-0.8-8.6,3.7l-2,3.3l2.1,3.7l-2.2,5.1C203.7,42.8,205.8,34.2,203,31.8L203,31.8z"/>
				<path class="st12" d="M189.2,37.8l2-3.3c-0.1-4.7-3.4-7.6-6.8-6.3c-3.4,1.3-4.4,10.1,4.8,18.4l2.2-5.1L189.2,37.8L189.2,37.8z"
					/>
			</g>
			<g class="st23">
				<path class="st19" d="M203,31.8c-2.8-2.4-6.9-0.8-8.6,3.7l-2,3.3l2.1,3.7l-2.2,5.1C203.7,42.8,205.8,34.2,203,31.8L203,31.8z"/>
				<path class="st19" d="M189.2,37.8l2-3.3c-0.1-4.7-3.4-7.6-6.8-6.3c-3.4,1.3-4.4,10.1,4.8,18.4l2.2-5.1L189.2,37.8L189.2,37.8z"
					/>
			</g>
		</g>
	</g>
</g>
</svg>
