<?xml version="1.0" encoding="UTF-8"?>
<svg id="Calque_1" data-name="Calque 1" xmlns="http://www.w3.org/2000/svg" xmlns:xlink="http://www.w3.org/1999/xlink" viewBox="0 0 298.5 199">
  <defs>
    <style>
      .cls-1 {
        fill: none;
      }

      .cls-2 {
        clip-path: url(#clippath);
      }

      .cls-3 {
        fill: #f5934f;
      }

      .cls-4 {
        fill: #f45e06;
      }

      .cls-5 {
        fill: #0374f7;
      }

      .cls-6 {
        fill: #021023;
      }

      .cls-7 {
        fill: #f4f6f9;
      }

      .cls-8 {
        fill: #fdcf76;
      }

      .cls-9 {
        fill: #ef8bb8;
      }

      .cls-10 {
        fill: #fff;
      }

      .cls-11 {
        fill: #ffcfd0;
      }

      .cls-12 {
        fill: #fd7403;
      }

      .cls-13 {
        fill: #fcb97f;
      }

      .cls-14 {
        fill: #e79b2e;
      }

      .cls-15 {
        fill: #fdbb80;
      }

      .cls-16 {
        fill: #931c55;
      }

      .cls-17 {
        fill: #804d41;
      }

      .cls-18 {
        fill: #a32c65;
      }

      .cls-19 {
        fill: #a13a3f;
      }

      .cls-20 {
        fill: #c33070;
      }

      .cls-21 {
        fill: #cedbef;
      }

      .cls-22 {
        fill: #b2467c;
      }

      .cls-23 {
        fill: #ad1866;
      }

      .cls-24 {
        fill: #c8574f;
      }

      .cls-25 {
        fill: #121522;
      }

      .cls-26 {
        fill: #234488;
      }

      .cls-27 {
        fill: #0759aa;
      }

      .cls-28 {
        fill: #1c5bb7;
      }

      .cls-29 {
        fill: #1c2539;
      }

      .cls-30 {
        fill: #182947;
      }

      .cls-31 {
        fill: #957144;
      }

      .cls-32 {
        fill: #6f1d04;
      }

      .cls-33 {
        fill: #87a3cc;
      }

      .cls-34 {
        fill: #821252;
      }

      .cls-35 {
        fill: #292543;
      }

      .cls-36 {
        fill: #2f3169;
      }

      .cls-37 {
        fill: #3a5a89;
      }

      .cls-38 {
        fill: #4c6fae;
      }

      .cls-39 {
        fill: #50221e;
      }

      .cls-40 {
        clip-path: url(#clippath-1);
      }
    </style>
    <clipPath id="clippath">
      <polyline class="cls-1" points="298.5 0 298.5 199 0 199 0 0"/>
    </clipPath>
    <clipPath id="clippath-1">
      <path class="cls-1" d="M225.31,164.77s-6.09,26.19-5.69,35.46c0,0,57.31,2.31,57.59,1.35,.28-.92-5.89-31.52-9.63-38.61l-42.27,1.79Z"/>
    </clipPath>
  </defs>
  <g id="BACKGROUND">
    <rect class="cls-10" width="298.5" height="199"/>
  </g>
  <g id="OBJECTS">
    <g class="cls-2">
      <g>
        <path class="cls-21" d="M23.24,91.46C39.24,48.91,59.9-10.07,106.31,6.29c44.1,15.52,68.42,30.41,99.86,29.09,30.09-1.23,158.48,37.09,8.08,178.98-48.6,45.81-232.39-12.9-191-122.9Z"/>
        <g>
          <g>
            <g>
              <path class="cls-8" d="M267.38,95.04s11.18,50.35,1.27,67.74c-9.87,17.39-7.24-.48-7.24-.48l-2.83-38.33c-.48-11.78,2.75-21.29,8.8-28.93Z"/>
              <path class="cls-33" d="M258.94,128.16l-.32-4.18c-.52-11.78,2.71-21.29,8.76-28.93,0,0,3.38,15.24,4.78,31.84-4.34,1.19-10.51,1.27-13.21,1.27h0Z"/>
            </g>
            <g>
              <path class="cls-38" d="M225.31,164.77s-6.09,26.19-5.69,35.46c0,0,57.31,2.31,57.59,1.35,.28-.92-5.89-31.52-9.63-38.61l-42.27,1.79Z"/>
              <g class="cls-40">
                <g>
                  <path class="cls-11" d="M265.78,163.54s9.87,35.42,8.88,40.72l-1.39,.08s-7.04-36.34-9.23-39.8c-.96-1.47,1.75-1,1.75-1h0Z"/>
                  <path class="cls-11" d="M260.29,164.21s9.23,35.58,8.12,40.87l-1.39,.08s-6.37-36.46-8.52-40c-.92-1.47,1.79-.96,1.79-.96Z"/>
                  <path class="cls-11" d="M254.28,164.69s7.24,36.06,5.85,41.23h-1.39s-4.34-36.74-6.29-40.4c-.84-1.51,1.83-.84,1.83-.84h0Z"/>
                  <path class="cls-11" d="M248.59,164.49s5.61,36.34,3.98,41.47l-1.39-.08s-2.67-36.89-4.46-40.64c-.8-1.55,1.87-.76,1.87-.76h0Z"/>
                  <path class="cls-11" d="M242.94,164.41s-2.95,36.66-.96,41.67l1.39-.16s0-37.01,1.51-40.83c.64-1.63-1.95-.68-1.95-.68h0Z"/>
                  <path class="cls-11" d="M237.69,163.98s-6.53,36.18-5.01,41.35l1.39-.04s3.62-36.81,5.49-40.52c.8-1.51-1.87-.8-1.87-.8Z"/>
                  <path class="cls-11" d="M232.19,164.02s-7.32,36.02-5.97,41.23h1.39s4.46-36.74,6.41-40.36c.88-1.51-1.83-.88-1.83-.88Z"/>
                  <path class="cls-11" d="M227.58,163.38s-7.32,36.02-5.97,41.23h1.39s4.46-36.74,6.41-40.36c.84-1.55-1.83-.88-1.83-.88h0Z"/>
                </g>
              </g>
            </g>
            <g>
              <path class="cls-33" d="M248.23,89.91c-7.2,1.03-16.76,6.09-17.27,9.87-.52,3.78-2.75,42.39-3.7,46.33-.96,3.98-2.75,14.85-3.62,18.27-.56,2.11,.56,3.42,3.58,3.98s30.65,3.5,41.07-2.87c3.02-1.87-1.55-9.87-5.09-20.26-2.83-8.2,.04-21.29,2.47-29.49,2.59-8.72,3.26-14.41,1.99-19.98-1.47-6.33-13.33-6.73-19.42-5.85h0Z"/>
              <path class="cls-33" d="M264.63,149.21c3.18,8.4,6.29,14.69,3.66,16.28-10.43,6.37-38.05,3.42-41.07,2.87s-4.14-1.87-3.58-3.98c.32-1.23,.76-3.38,1.19-5.89,12.5,1.07,30.77-5.57,39.8-9.27h0Z"/>
            </g>
            <g>
              <g>
                <path class="cls-8" d="M247.08,50.23c13.93-.68,18.19,10.35,18.19,21.57s-9.67,16.84-18.87,16.36c-6.09-.32-14.21-2.27-14.37-15.32-.16-12.14,2.83-22.05,15.04-22.61Z"/>
                <path class="cls-14" d="M232.15,67.66c.76-9.67,4.5-16.99,14.89-17.47,2.51-.12,4.74,.16,6.65,.72-.04,8.04-11.02,17.79-11.02,17.79,0,0-6.01,.64-7.6-3.74,0,0-1.99,.84-2.27,2.55,0,.2-.24,.24-.64,.16h0Z"/>
              </g>
              <path class="cls-14" d="M240.67,69.57c1.47-.12,2.67,2.31,2.67,5.17s-1.19,5.33-2.67,5.17-.56-2.35-.56-5.21-1.59-4.94,.56-5.13Z"/>
              <g>
                <path class="cls-23" d="M235.1,60.22s-.36,6.13,5.29,8.92c5.61,2.79,1.51,12.7,.56,14.96s-4.26,8.04-2.83,11.1c1,2.15,1.83-2.43,3.42-4.38,0,0-2.03,9.11,5.53,9.95,4.66,.52,6.61,2.31,9.15,2.79,4.7,.92,12.46-1.63,14.13-6.93,1.35-4.34,.96-7.76,.56-8.52-.4-.8,3.22,5.57,3.7,5.21,1.75-1.27,2.83-5.69-1.35-10.23-2.03-2.23-4.58-5.45-3.94-10.11,1.07-7.76,4.9-12.82-2.03-23.08-7.16-10.59-28.42-10.63-38.13,1.43-7.56,9.39-4.5,6.97-1.39,4.58,.88-.68,1.75-1.31,2.43-1.71,0,0-9.79,9.71,3.02,14.69,0,0,.52-6.41,1.87-8.68h0Z"/>
                <path class="cls-34" d="M270.4,67.62c-.4,1.71-.84,3.46-1.11,5.37-.64,4.7,1.91,7.92,3.94,10.11,4.18,4.54,3.1,8.92,1.35,10.23-.48,.36-4.1-6.01-3.7-5.21s.8,4.18-.56,8.52c-1.67,5.29-9.43,7.84-14.13,6.93-2.55-.52-4.46-2.27-9.15-2.79-7.52-.8-5.53-9.95-5.53-9.95-1.55,1.95-2.39,6.65-3.46,4.34-1.43-3.06,1.95-8.84,2.91-11.1,.2-.48,.52-1.27,.88-2.27,9.75-1.35,22.45-9.75,28.58-14.17h0Z"/>
              </g>
            </g>
          </g>
          <path class="cls-3" d="M164.89,93.37s5.17,3.5,6.25,8.64c1.03,5.13-4.26,8.76-6.25,10.39-1.99,1.59-6.21-10.27-6.21-10.27l6.21-8.76Z"/>
          <g>
            <g>
              <g>
                <path class="cls-24" d="M136.2,39.6s2.91,27.38-8.4,28.14c0,0-2.75-.4-1.67,8.99l-19.86-.12s2.23-10.27,2.07-14.05c-.16-3.78-18.9-17.99-2.83-32.87,11.26-10.43,28.42-3.3,30.69,9.91Z"/>
                <path class="cls-19" d="M131.82,30.77c2.23,2.39,3.78,5.41,4.38,8.84,0,0,.16,1.59,.28,3.98-.92-.28-1.99-1.11-4.22-1.47-3.42-.56-7.24,7.8-7.24,7.8-3.58-4.34,1.67-15.96,5.21-18.39,.48-.32,.99-.56,1.59-.76h0Z"/>
                <path class="cls-19" d="M127.12,68.02c-1.67-2.39-1.39-5.77,.08-3.74,.88,1.19,2.67,1.75,4.34,1.99-1.03,.88-2.27,1.43-3.7,1.51-.04,0-.36-.04-.72,.24h0Z"/>
              </g>
              <path class="cls-7" d="M126.68,52.5s-.2-12.93,5.25-12.18c5.49,.76,10.43,1.27,9.15-3.7-1.39-5.49-2.31-6.09-4.82-8.16,0,0,8.08-11.02,1.43-9.43-1.79,.44-2.51,1.03-8.24,1.27-5.73,.24-11.22,0-13.37,1.11,0,0,6.49-4.9-1.39-3.14-7.88,1.71-19.98,4.9-16.52,15.92,0,0-4.9,1.91-5.33,6.21-.44,4.3,.72,3.18,3.06,.72,0,0-5.13,6.53,5.45,19.58,0,0,1.59-.16,2.67,4.54s2.11,3.02,3.62,1.35c0,0,.92,4.9,6.61,2.07,5.65-2.83,12.06-6.69,12.42-16.16h0Z"/>
              <path class="cls-19" d="M125.97,52.81c0-1.63,1.63-6.01,3.86-5.09,2.23,.96,.36,2.07-.4,4.66-.6,1.95,1.43,4.14,.44,5.09s-3.9,.96-3.9-4.66Z"/>
            </g>
            <g>
              <path class="cls-36" d="M147.7,162.18s1.79,23.76,0,38.53l-57.31,.2s3.5-32.68,3.62-40.04l53.69,1.31Z"/>
              <g>
                <path class="cls-35" d="M93.53,168.67c.28-3.38,.44-6.17,.48-7.76l53.69,1.27s.12,1.51,.28,4.06c-10.79,1.19-42.71,4.46-54.45,2.43h0Z"/>
                <g>
                  <path class="cls-35" d="M116.77,203.1c-.24,0-.4-.2-.4-.4-.04-2.83-.04-13.37-.04-15.56-2.83-.24-9.27-2.31-9.55-2.43-.2-.08-.32-.32-.28-.52,.08-.2,.32-.32,.52-.28,.08,.04,7.28,2.35,9.71,2.39,.24,0,.4,.2,.4,.4,0,.12,0,12.82,.04,15.92,0,.28-.2,.48-.4,.48h0Z"/>
                  <path class="cls-35" d="M112.44,186.1c-.16,0-.32-.08-.36-.24-2.07-4.34-2.63-21.69-2.67-22.45,0-.24,.16-.44,.4-.44s.44,.16,.44,.4c0,.16,.56,17.91,2.59,22.09,.08,.2,0,.44-.2,.56-.08,.04-.16,.08-.2,.08Z"/>
                </g>
                <path class="cls-35" d="M123.38,175.16c-.6,.08-.32,1.51,.16,1.79,.52,.24,13.53-.12,14.33-.36,.84-.28,.68-1.15,.56-1.51-.16-.36-12.58-.24-15.04,.08h0Z"/>
              </g>
            </g>
            <g>
              <path class="cls-20" d="M144.24,138.19s5.37,24.72,4.46,26.43-56.24,2.59-56.36-.6c-.2-4.82-.24-32.99-1.07-42.67-1.27-14.45-3.18-32.44,3.18-40.52,5.29-6.73,37.29-9.95,46.76,.84l3.02,56.52h0Z"/>
              <path class="cls-16" d="M92.22,158.92c8.99,1.03,35.5,.84,41.75-5.81,6.93-7.4-3.42-41.03-.92-34.94,1.55,3.78,4.46,8.95,7.08,13.65,1.83,3.3,4.34,6.69,4.14,6.37,0,0,5.37,24.72,4.46,26.43s-56.24,2.59-56.36-.6c-.08-.96-.12-2.75-.16-5.09h0Z"/>
              <path class="cls-16" d="M130.98,135.88s-14.05,17.67-30.88,16.8c0,0,14.81-2.91,30.88-16.8Z"/>
            </g>
          </g>
          <g>
            <path class="cls-5" d="M168.04,174.84s-3.22,22.21-1.67,25.87l54.45,1.19c.88,.88,1.99-22.69-.72-27.1l-52.06,.04h0Z"/>
            <path class="cls-28" d="M167,182.68c.52-4.42,1-7.84,1-7.84l52.06-.04c.72,1.15,1.15,3.7,1.43,6.77-16,5.41-43.7,2.55-54.49,1.11h0Z"/>
            <g>
              <path class="cls-26" d="M200.55,190.76c-.08,0-.16-.04-.24-.08-.2-.12-.24-.4-.12-.56,1.23-1.75,1.43-12.1,1.43-15.96,0-.24,.2-.4,.4-.4h0c.24,0,.4,.2,.4,.4,0,1.43,.04,14.17-1.59,16.44,0,.12-.16,.16-.28,.16Z"/>
              <path class="cls-26" d="M197.61,203.1c-.08,0-.16-.04-.24-.08-.2-.12-.24-.4-.12-.56,.76-1.11,2.03-10.59,1.87-11.46-.08-.16-.04-.4,.12-.48,.2-.12,.44-.08,.6,.08,.48,.68-1.11,11.14-1.91,12.34-.04,.12-.2,.16-.32,.16Zm1.59-12.02h0Zm-.04-.08h0Z"/>
              <path class="cls-26" d="M185.43,194.74c-.92,0-1.91-.04-2.95-.12-.24,0-.4-.24-.36-.44,0-.24,.24-.4,.44-.36,6.05,.52,10.39-.72,11.98-1.27,.88-.32,1.67-.72,2.43-1.11,1.39-.72,2.71-1.39,4.06-1.19,8.32,1.19,14.09-3.58,14.13-3.62,.16-.16,.44-.12,.6,.04s.12,.44-.04,.6c-.24,.2-6.09,5.05-14.81,3.82-1.11-.16-2.23,.44-3.58,1.11-.8,.4-1.63,.84-2.55,1.15-1.35,.4-4.7,1.39-9.35,1.39Z"/>
            </g>
            <g>
              <g>
                <path class="cls-13" d="M252.25,136.83s.92-5.33,1.31-6.17c.92-1.87,3.5-3.46,4.58-4.26,.88-.64,.56-.72,.99-.72,.88,0,1,.56,.8,1.23-.16,.56-.6,1.15-.52,1.15,.44,.04,3.62-3.18,4.66-3.54,1.27-.44,2.27-.32,.76,2.71,0,0,2.71-1.87,1.23,2.43,0,0,2.11-1.55,.96,2.67,0,0,2.63-.52-4.78,8.88-1.99,2.51-9.07,4.1-10.07,3.74-.96-.32,.08-8.12,.08-8.12h0Z"/>
                <g>
                  <path class="cls-17" d="M256.39,130.86c.8-.52,2.98-2.75,3.02-2.75,.08,0,.32-.12,.6-.36-1,1.27-2.71,2.87-2.87,3.02-.68,.72-1.55,.6-.76,.08h0Z"/>
                  <path class="cls-17" d="M265.55,126.92c-.48,.92-2.95,4.46-4.06,5.57-.44,.44-.8,.16-.52-.16,1.31-1.43,3.38-4.38,3.9-5.09,.12-.04,.36-.24,.68-.32Z"/>
                  <path class="cls-17" d="M266.62,129.43c-.32,.8-1.99,3.86-3.14,4.9-.48,.4-.56-.04-.56-.04,1.67-1.67,2.75-3.7,3.18-4.62,.12-.08,.32-.2,.52-.24h0Z"/>
                  <path class="cls-17" d="M267.06,132.37c.08,0,.28,0,.36,.2-.36,.76-1.07,1.95-2.11,3.02-.2,.2-.96,.2-.52-.16,1.11-1,1.91-2.39,2.27-3.06h0Z"/>
                </g>
              </g>
              <path class="cls-9" d="M220.57,103.36s1.83,1.95,4.34,12.82c2.03,8.92,5.65,22.88,8.6,22.77,3.22-.12,16.88-2.19,18.79-2.75,0,0,5.41,3.66,1.83,8.6,0,0-23.64,10.59-28.5,9.75s-9.23-13.65-11.82-19.02l6.77-32.16h0Z"/>
            </g>
            <path class="cls-9" d="M179.06,97.07s-10.83,1.87-15.68,5.97c-6.57,5.57-16.16,36.22-17.47,38.69-1.31,2.43-26.11,4.58-30.17,4.74-1.67,.32-2.83,8.68,.64,9.19,1.47,.2,33.43,4.5,36.7,.8,3.26-3.7,10.51-14.37,15.08-22.45,0,0,3.46,13.93,1.59,26.63-1.27,8.56-4.74,17.83-3.58,18.9,1.03,1,25.99,4.18,41.83,1.47,15.84-2.71,15.84-4.5,14.41-7.08-1.43-2.59-8-15.8-7.36-22.92,.76-8.36,5.49-29.25,6.33-35.66,.96-7.36,2.63-13.21-7.68-17.11-5.93-2.23-21.25-2.51-22.85-2.43-1.71,.08-11.78,1.27-11.78,1.27h0Z"/>
            <path class="cls-9" d="M215.6,157.05c1.63,6.89,5.65,14.92,6.73,16.88,1.43,2.59,1.43,4.38-14.41,7.08-15.84,2.71-40.79-.48-41.83-1.47-.84-.84,.92-6.29,2.39-12.62,11.34,7.44,36.26-1.23,47.12-9.87h0Z"/>
            <g>
              <path class="cls-22" d="M169.55,132.61s4.86-12.58,2.07-23.48c-2.87-10.98,.92,12.14-2.07,23.48Z"/>
              <path class="cls-22" d="M171.1,133.13s6.65-9.75,7.28-15.64c.64-5.89,5.17,1.11-7.28,15.64Z"/>
            </g>
            <g>
              <path class="cls-13" d="M116.77,155.42s-.76-8.6-.84-8.6c-1.55-.36-3.38-1.19-3.9-2.67-1.27-3.54-3.86-3.78-5.17-4.62-1.35-.88-2.07-1.51-2.67-2.15-1.03-1.07-1.91,2.39,.16,4.1,5.25,4.38-.6,3.42-1.47,3.38-2.59-.12-10.11-1.31-11.26-1.07-1.63,.36-.56,1.67-.56,1.67,0,0-.88-.28-1.03,.68-.24,1.19,1.19,1.79,1.07,1.83-1,.36-.64,1.47,.28,1.95,0,0-.96,.8,.64,1.95s4.46,3.14,9.31,3.86c3.7,.56,7.92,.16,11.62,0,1,0,2.91-.24,3.82-.32h0Z"/>
              <g>
                <path class="cls-17" d="M90.7,144.59c1.03,.72,4.7,2.43,8.76,3.06,.76,.12,.88,.76,.04,.6-4.46-.8-8.48-2.71-8.48-2.71l-.04-.04c-.04-.12-.32-.52-.28-.92h0Z"/>
                <path class="cls-17" d="M91.06,148.06h0s7.96,2.87,8.99,3.02c.64,.08,.24,.6-.32,.52-2.71-.52-7.6-2.59-9.11-3.26,.12-.12,.24-.24,.44-.28h0Z"/>
                <path class="cls-17" d="M91.34,150.01h0c-.12,.24,6.73,3.3,7.76,3.3,.52,0,.52,.56-.16,.44-1.59-.28-6.73-2.47-7.84-3.18,0-.32,.2-.52,.24-.56h0Z"/>
              </g>
            </g>
            <g>
              <g>
                <path class="cls-13" d="M189.05,47.6c8.68,0,15.68,8.92,15.68,19.94s-5.09,21.85-14.73,21.77c-8.68-.04-16.68-10.79-16.68-21.77s7.04-19.94,15.72-19.94Z"/>
                <path class="cls-13" d="M172.45,69.13c1.95-.4,3.98,1.35,4.46,3.9,.52,2.55-.68,4.9-2.67,5.29-1.95,.4-3.98-1.35-4.46-3.9-.48-2.55,.68-4.94,2.67-5.29Z"/>
                <path class="cls-13" d="M206.4,69.53c1.79,.48,2.71,2.83,2.03,5.25-.68,2.39-2.67,3.94-4.46,3.42-1.79-.48-2.71-2.83-2.03-5.25,.68-2.39,2.67-3.94,4.46-3.42h0Z"/>
                <path class="cls-13" d="M183.52,84.93s1.39,7.08-2.67,9.75c-4.98,3.22-8.08,3.7-8.04,4.18,0,.32,5.65,6.49,16.84,6.81,14.01,.4,17.67-4.98,19.38-8.52,0,0-6.65-1.39-9.31-3.02-2.67-1.63-1.99-6.73-2.31-9.55-.44-4.14-13.89,.36-13.89,.36h0Z"/>
              </g>
              <g>
                <g>
                  <path class="cls-29" d="M186.5,45.21c-11.58,1.55-16.72,11.58-12.74,24.56,4.42,14.33,10.31,14.96,12.3,15.64,0,0,8.12-.04,9.71,.32,0,0,9.55-7.8,9.59-19.5,.08-12.54-3.38-23.08-18.87-21.01Z"/>
                  <path class="cls-25" d="M172.53,63.64c3.14,7.12,11.9,21.33,29.81,13.89-2.83,5.17-6.57,8.24-6.57,8.24-1.59-.36-9.71-.32-9.71-.32-1.99-.68-7.88-1.31-12.3-15.64-.68-2.19-1.07-4.22-1.23-6.17h0Z"/>
                </g>
                <g>
                  <ellipse class="cls-20" cx="190.88" cy="78.45" rx="2.95" ry="3.1"/>
                  <path class="cls-29" d="M188.93,77.97c-.44,.99-2.19,6.25,2.63,16.88,3.58,7.92,3.26,12.3,.84,17.83-2.11,4.74,6.25-1.51,8.6-4.14,0,0-1.59,3.22-1.15,3.22,2.59-.08,9.87-10.47,4.7-19.42s-10.91-8.84-11.78-14.05c-.4-2.03-2.83-2.59-3.82-.32h0Z"/>
                </g>
              </g>
            </g>
          </g>
          <g>
            <g>
              <g>
                <path class="cls-24" d="M154.5,144.75c-1.07-.24,11.74-18.75,12.14-18.63,7.36,1.79,20.42-.84,24.56-1.11,0,0,5.69,6.85,2.75,13.41-.92,1.95-32.99,7.76-39.44,6.33h0Z"/>
                <path class="cls-19" d="M163.74,144.59c-4.14,.4-7.56,.52-9.23,.16-1.07-.24,11.74-18.75,12.14-18.63,1.03,.24,2.19,.4,3.42,.52,0,1.95-.32,12.66-6.33,17.95h0Z"/>
              </g>
              <g>
                <path class="cls-24" d="M190.96,125.65s.2-7.04,1.59-8.56c2.15-2.31,6.93-3.5,8.28-2.71,1.35,.84-.28,3.38-1.67,4.34s-1.03,2.51-.16,2.23c.84-.28,10.35-4.3,12.54-4.66,2.35-.4,2.75,1.47,2.39,2.31,0,0,2.35-.52,2.27,1.79-.04,1.31-.76,2.27-1.07,2.55,1.59-.04,2.47,1.91-.52,4.46,0,0,2.39,.76-.68,3.86-1.79,1.79-5.37,3.86-9.83,5.33-4.54,1.51-11.5,2.98-13.05,1.75-1.55-1.19-.08-12.7-.08-12.7Z"/>
                <g>
                  <path class="cls-39" d="M213.96,118.56s-.04,.04,0,0c0,.04,.28-.04,.68,0-5.21,5.09-8.52,5.33-8.52,5.33,2.75-.96,6.69-4.34,7.84-5.33Z"/>
                  <path class="cls-39" d="M215.16,122.94h0c.16,0,.32,.04,.48,.04-5.21,4.78-9.03,5.13-9.03,5.13,2.55-.88,8.04-4.82,8.56-5.17h0Z"/>
                  <path class="cls-39" d="M214.6,127.4s.24,.08,.44,.24c-6.33,4.34-7.44,3.86-7.44,3.86,3.22-1.11,6.69-3.82,7-4.1Z"/>
                </g>
              </g>
            </g>
            <g>
              <path class="cls-20" d="M144.24,138.19c-31.36-44.85-3.06-56.52-3.06-56.52,6.45,7.36,11.38,18.27,13.21,22.41,4.06,9.11,8.32,17.63,11.06,20.42l-15.68,18.94c-1.71-.96-3.62-2.55-5.53-5.25h0Z"/>
              <path class="cls-18" d="M144.55,139.34c.12,1.91,5.21,7.2,9.59,5.97,10.27-2.83,19.26-20.1,15.28-20.86-4.18-.8-4.18-4.02-6.17-3.86-.84,.08-2.67,5.81-7.56,10.39-7.76,7.32-11.18,7.44-11.14,8.36Z"/>
              <g>
                <path class="cls-16" d="M132.22,115.46s-2.87-14.69-.68-27.02c0,0-5.21,13.37,.68,27.02Z"/>
                <path class="cls-16" d="M132.22,115.46s-.2-11.26,4.34-17.83l-4.34,17.83Z"/>
              </g>
            </g>
          </g>
          <g>
            <g>
              <path class="cls-12" d="M31.88,162.66s-2.11,16.91,4.94,39.8l63.56,.64s-12.7-32.87-13.09-39.52l-55.4-.92h0Z"/>
              <path class="cls-4" d="M31.6,168.19c.04-3.54,.28-5.53,.28-5.53l55.4,.96c.08,1.27,.6,3.46,1.39,6.17-25.47,7.72-49.95,.8-57.07-1.59h0Z"/>
              <g>
                <path class="cls-32" d="M66.94,188.33c-3.3,0-6.45-.52-8.95-1.51-5.89,.88-11.1,.08-16.95-2.67-.2-.08-.28-.36-.2-.56s.36-.28,.56-.2c5.73,2.67,10.83,3.46,16.6,2.59,.08,0,.16,0,.24,.04,4.7,1.95,11.86,2.03,17.83,.16,.2-.08,.44,.04,.52,.28,.08,.2-.04,.44-.28,.52-3.02,.92-6.25,1.35-9.35,1.35Z"/>
                <path class="cls-32" d="M64.64,204.81c-.12,0-.28-.08-.36-.2-3.02-4.86-6.17-17.23-6.29-17.75-.04-.24,.08-.44,.32-.52,.24-.04,.44,.08,.52,.32,.04,.12,3.22,12.78,6.21,17.55,.12,.2,.08,.44-.12,.56-.16,0-.24,.04-.28,.04Z"/>
              </g>
            </g>
            <g>
              <g>
                <path class="cls-15" d="M86.64,44.97c2.23,6.25,1.63,24.95-.68,26.39-4.1,2.55-5.25-2.31-5.29,5.97l-16.48,.76s.88-5.05,.2-7.56c-.92-3.34-5.17-4.3-7.4-9.35-3.78-8.48-2.75-18.9,3.1-23.12,5.37-3.9,21.05-8.4,26.55,6.93Z"/>
                <path class="cls-3" d="M62.72,67.9c-1.71-1.71-4.22-3.26-5.77-6.73-3.78-8.48-2.75-18.9,3.1-23.12,5.37-3.9,21.09-8.4,26.59,6.93,.44,1.19,.76,2.87,1,4.82-2.79,.84-7.12,.8-7.12,.8-.68,1.79-4.06,5.85-4.06,5.85,0,0-8.12,9.23-10.39,10.63-.68,.44-1.87,.72-3.34,.84h0Z"/>
                <path class="cls-3" d="M81.27,72.48c-1.59-2.59-2.27-4.3-1.03-3.54,1.23,.76,4.06,1.27,6.29,1.67-.08,.16-.16,.28-.2,.4v.08h0v.08h0c-2.91,1.79-4.34,.48-5.05,1.31h0Z"/>
              </g>
              <g>
                <path class="cls-30" d="M77.21,57.87s1.51-5.77,1.87-9.19c0,0,11.34,.2,10.75-2.19s-3.18-4.34-3.5-4.26c0,0,9.27,3.26,5.09-2.47-4.14-5.73-11.14-7.92-12.82-8.16,0,0,8.8-.28,5.45-2.11-4.22-2.35-19.18-3.42-25.63,2.63-3.22,3.02-4.9,6.09-3.9,9.07,0,0-7.56,2.51-6.01,10.11,2.55,12.38,11.1,22.69,14.29,24.44s7.52-.99,8.8-3.02c0,0-2.43,5.45,0,3.22,1.71-1.55,3.78-8.99,4.86-13.89,.52-2.11,.8-3.74,.76-4.18h0Z"/>
                <path class="cls-6" d="M48.4,50.47c5.49,4.38,16.24,11.62,27.98,12.14-1.11,4.86-3.1,11.86-4.74,13.33-2.43,2.23,0-3.22,0-3.22-1.27,2.03-5.61,4.74-8.8,3.02-3.18-1.75-11.74-12.06-14.29-24.44-.08-.28-.12-.56-.16-.84Z"/>
              </g>
              <g>
                <path class="cls-3" d="M76.3,60.22c.12-1.55,1.83-6.25,4.9-5.17,2.31,.8-1.75,3.14-1.87,5.53-.08,2.43,2.55,3.86,.64,4.78-1.63,.76-4.02-1.27-3.66-5.13Z"/>
                <path class="cls-3" d="M77.93,56.87s-3.22,.16-3.5,3.5c-.28,3.34,3.06,3.34,3.58,3.3,.04,.04-.76-5.73-.08-6.81h0Z"/>
              </g>
            </g>
            <g>
              <g>
                <path class="cls-27" d="M32.08,152.75c-.8,1.39-2.59,9.87-.76,11.78,9.27,9.47,57.75,6.17,57.35,1.87-.52-5.49-1.23-7.36-1.23-9.91,.04-2.59-54.57-5.17-55.36-3.74Z"/>
                <path class="cls-27" d="M160.79,88.75s4.06,2.63,4.1,4.26c.08,2.27-2.79,8.92-5.97,9.75-1.59,.44-5.13-1.55-6.25-1.99-1.11-.44,8.12-12.02,8.12-12.02h0Z"/>
                <path class="cls-38" d="M41.75,86.49s-8.76-21.37,38.84-10.27c0,0,3.22-1.27,4.7,1.23,0,0,41.23-8.16,53.33-3.42,12.1,4.74,23.56,10.55,23,16.24-.52,5.69-2.83,13.77-17.75,11.66-14.96-2.11-12.42-3.02-14.37-2.23-1.95,.8-3.82,.08-5.93-.56-2.11-.64-23.12,4.26-27.22,10.39-4.1,6.17-7,35.18-5.73,40.2,1.27,4.98,2.79,8.16-1.43,11.14-4.22,2.98-45.29,6.09-55.8-1.63,0,0-7.52-4.18-4.58-9.79,0,0-30.41-14.73-17.83-33.27,12.58-18.55,17.51-20.89,30.77-29.69h0Z"/>
              </g>
              <g>
                <path class="cls-37" d="M28.58,147.78c2.43-7.48,4.74-12.58,4.74-12.58,0,0,27.46,23.44,57.43,14.89,1.23,4.78,2.59,7.88-1.55,10.79-4.22,2.98-45.29,6.09-55.8-1.63,0,0-7.52-4.18-4.58-9.79,0,0-.32-1.39-.24-1.67h0Z"/>
                <path class="cls-37" d="M14.61,125.37c5.41,.84,10.27,2.67,20.89-1.71,0,0-3.3,19.98-7.32,25.47-3.54-1.91-12.02-12.34-13.57-23.76Z"/>
                <path class="cls-27" d="M93.41,109.97s-5.89-15.52-3.66-30.49c0,0-5.45,17.11,3.66,30.49Z"/>
                <path class="cls-27" d="M44.85,75.9c-1.35,4.78-2.19,12.18,3.74,13.17,8.76,1.43,23.48-5.25,28.54-10.23,0,0-13.97,14.57-25.19,12.78-5.49-.88-8.6-2.71-10.27-5.05l.12-.08s-2.75-6.65,3.06-10.59h0Z"/>
                <path class="cls-27" d="M41.15,83.5c.08-.2,.12-.36,.2-.56l2.31,3.5s-3.02,17.79,12.54,14.17c18.75-4.34,24.44-18.23,26.23-20.18,0,0-10.27,21.13-27.34,22.49-18.35,1.47-13.93-16.04-13.33-16.44,0,0-.48-1.27-.6-2.99Z"/>
                <path class="cls-27" d="M27.54,148.77c1.35-2.63,3.38-7.84,5.77-17.91,1.47-6.25,6.05-29.57,6.05-29.57,0,0-2.55,24.12-6.29,36.54-2.31,7.6-4.62,12.34-4.22,11.58-.04,.04-.52-.2-1.31-.64h0Z"/>
                <path class="cls-27" d="M35.7,122.9s-11.06,4.02-13.73,3.46c0,0,8.4,1.63,13.41-1.55l.32-1.91h0Z"/>
              </g>
            </g>
          </g>
          <g>
            <path class="cls-8" d="M236.37,94.21c-1.47,.8-7.16,3.78-8.52,10.87-1.35,7.08-3.98,29.21-4.74,30.84-.76,1.67-22.61,13.29-25.83,15.04-4.46,2.43-.68,5.93,2.19,7.04,0,0,31.44-8.36,34.31-14.73,3.42-7.56,5.05-19.94,6.21-28.06,1.19-8.52-2.35-21.69-3.62-21.01Z"/>
            <path class="cls-33" d="M224.75,126.29c1.03-7.4,2.31-16.99,3.1-21.25,1.35-7.08,7.08-10.07,8.52-10.87,1.23-.68,4.78,12.54,3.62,21.01-.48,3.34-1.03,7.44-1.75,11.62-4.58,.2-10.39-.24-13.49-.52Z"/>
            <g>
              <path class="cls-8" d="M202.98,156.89s-5.41-6.09-5.45-6.09c-1.39,.6-3.26,.99-4.46,.2-2.95-1.99-5.05-.72-6.53-.6-1.51,.12-2.43,0-3.26-.12-1.39-.24-.12,2.91,2.43,3.02,6.49,.36,1.47,2.95,.8,3.38-2.03,1.35-8.44,4.7-9.19,5.53-1.03,1.19,.52,1.59,.52,1.59,0,0-.84,.28-.44,1.11,.48,1.03,1.91,.72,1.87,.8-.56,.84,.32,1.47,1.31,1.35,0,0-.28,1.15,1.55,1.11,1.87,0,5.13-.12,9.27-2.27,3.14-1.63,6.13-4.34,8.84-6.57,.8-.64,2.11-1.87,2.75-2.47h0Z"/>
              <g>
                <path class="cls-31" d="M177.03,163.3c1.19-.04,4.97-.8,8.4-2.59,.64-.32,1.07,.08,.36,.4-3.86,1.91-7.96,2.71-7.96,2.71h-.08c-.08-.04-.56-.2-.72-.52Z"/>
                <path class="cls-31" d="M179.26,165.73h0s7.68-2.27,8.56-2.75c.52-.28,.52,.32,.04,.56-2.35,1.15-7.24,2.31-8.76,2.67-.04-.16,.04-.32,.16-.48h0Z"/>
                <path class="cls-31" d="M180.53,167.08h0c.04,.24,6.97-1.27,7.76-1.83,.4-.28,.72,.12,.12,.44-1.39,.68-6.53,1.91-7.76,1.99-.16-.28-.12-.56-.12-.6h0Z"/>
              </g>
            </g>
          </g>
        </g>
      </g>
    </g>
  </g>
</svg>