<svg width="190" height="95" viewBox="0 0 190 95" fill="none" xmlns="http://www.w3.org/2000/svg">
<path d="M19.9461 71.037C17.7436 70.7419 16.6508 61.3032 16.7454 51.0536C16.8178 43.3478 17.56 35.1652 19.0425 30.2946C20.1001 26.8638 25.7611 25.0603 31.1476 25.1104C34.9438 25.1456 38.5787 26.0734 40.4082 28.0179C41.0186 28.71 41.6755 29.6118 42.2303 30.649C42.837 31.7548 43.184 32.9275 43.273 34.3729L43.3176 35.2691C43.3064 36.438 43.0912 37.6738 42.6663 39.0468C42.1356 40.7613 41.0929 42.6761 39.5343 44.7969C41.6755 46.4 43.145 48.1998 44.0004 50.0683C44.9059 51.9349 45.3512 53.7959 45.4365 55.5865L45.4773 56.8927C45.3623 69.3466 36.4097 71.948 28.3569 71.8719C25.223 71.8422 22.2524 71.4711 19.9461 71.037ZM30.4017 44.5038C32.3054 44.0399 33.9122 42.1269 33.9289 40.2696C33.9437 38.6201 32.8268 37.5754 31.3387 37.5624L30.4647 37.6923L30.0027 37.8278L29.9396 44.5705L30.4017 44.5038ZM30.4072 60.6074C33.0791 60.0804 35.3075 57.7611 35.3279 55.5605C35.3465 53.6327 33.8194 52.3134 31.6652 52.293L30.5334 52.4192C30.3293 52.4173 30.1233 52.4823 29.9174 52.5509L29.7894 60.6686L30.4072 60.6074Z" fill="#2F2D84"/>
<path d="M54.9349 70.4448C53.0701 70.1517 51.5579 69.5208 50.3463 68.5968C49.1365 67.7154 48.2793 66.5817 47.7245 65.153C47.1196 63.5981 47.0176 62.0878 47.0176 60.4921V58.978C47.0695 58.3082 47.0695 57.3823 47.1178 56.206C47.1178 55.0314 47.1697 53.4339 47.2699 51.4188L47.5223 44.1547C47.5223 42.9783 49.5893 42.3066 51.7583 42.3066C54.1797 42.3066 56.8015 43.1453 56.8015 45.2049L56.7514 45.7504C56.6512 47.2645 55.3895 53.3114 55.3895 57.8889C55.3895 60.5774 55.844 62.8021 57.2041 63.2642C57.5566 63.3903 57.8591 63.4312 58.1615 63.4312C60.633 63.4312 61.2397 59.2322 61.2397 54.9461C61.2397 50.9995 60.7351 46.9676 60.685 46.1271C60.7852 44.3644 62.8021 43.4812 65.0212 43.4812C66.8358 43.4812 68.7024 44.0693 69.6617 45.2457C69.7619 48.3944 69.9141 50.9142 69.9642 52.8457L70.1163 59.6089C70.1163 60.8688 70.0644 62.1286 69.7638 63.3885C69.5634 64.563 69.1069 65.6132 68.452 66.5372C67.797 67.4612 66.8897 68.2591 65.7782 68.9308C64.6186 69.6024 63.2566 70.0645 61.5422 70.3576C60.1302 70.5673 58.8685 70.6508 57.7088 70.6508C56.6994 70.6545 55.7921 70.6118 54.9349 70.4448Z" fill="#2F2D84"/>
<path d="M71.7246 68.4138L71.5205 39.7356C71.5205 36.8114 74.5987 35.5293 77.573 35.5293C79.3803 35.5293 81.1615 36.0321 82.1338 36.9636C82.6236 37.433 82.8648 38.1047 82.8314 38.7819L81.8833 58.2569C81.8833 59.0771 82.3453 59.4871 83.0114 59.4871C83.1821 59.4871 83.3528 59.4686 83.5198 59.4333L91.118 57.7949C91.374 57.743 91.6319 57.6929 91.8861 57.6929C94.0422 57.6929 95.6305 60.053 95.6305 62.6173C95.6305 63.4875 95.5525 65.4265 95.1425 66.2484C93.9735 68.7181 94.0348 69.0613 91.6171 69.7404C91.4241 69.7942 91.2256 69.8258 91.0252 69.8313L74.185 70.3119L73.5856 70.3564C73.5077 70.362 73.4279 70.3657 73.3481 70.3639C72.1569 70.3249 71.7246 69.707 71.7246 68.4138Z" fill="#2F2D84"/>
<path d="M97.4287 68.4138L97.2246 39.7356C97.2246 36.8114 100.303 35.5293 103.279 35.5293C105.791 35.5293 108.254 36.5034 108.562 38.2494L107.587 58.2569C107.587 59.0771 108.049 59.4871 108.716 59.4871H108.972L116.82 57.7949C117.076 57.743 117.334 57.6929 117.588 57.6929C119.744 57.6929 121.336 60.053 121.336 62.6173C121.336 63.3632 121.377 66.6362 121.13 68.0798C121.073 68.4119 120.865 68.7032 120.559 68.8461C118.952 69.6013 117.791 69.4009 115.382 69.6848L99.8909 70.3119L99.1729 70.3639C97.8907 70.3639 97.4287 69.7479 97.4287 68.4138Z" fill="#2F2D84"/>
<path d="M123.882 69.3073C123.216 67.3535 122.906 62.9542 122.906 58.1894C122.906 53.4672 123.216 48.3776 123.882 45.1194C124.344 42.7982 141.788 42.8799 144.916 42.6758C146.046 42.6758 146.764 44.021 146.764 45.5666C146.764 47.1085 146.055 48.8786 144.188 49.7822C143.834 49.9529 143.452 50.0568 143.06 50.1032L133.733 51.2276C133.373 51.3093 133.067 51.7583 133.067 52.2463C133.067 52.6935 133.373 53.1425 134.245 53.1833L141.223 52.7361C142.094 52.7361 142.608 53.9978 142.608 55.3431C142.608 56.9313 141.942 58.6421 140.452 58.6421L133.629 59.2525C133.013 59.4566 132.755 59.9038 132.755 60.351C132.755 60.9206 133.115 61.4494 133.883 61.5311L144.864 59.9836C146.812 59.9836 147.89 62.0599 147.89 64.2586C147.89 66.1438 147.098 68.118 145.452 68.9511C145.044 69.157 144.589 69.2609 144.131 69.298C141.628 69.4966 134.219 70.2852 129.113 70.2852C126.242 70.2833 124.086 70.0402 123.882 69.3073Z" fill="#2F2D84"/>
<path d="M150.382 69.2035C149.714 67.2646 149.406 62.9023 149.406 58.1765C149.406 53.4914 149.712 48.4427 150.382 45.2123C150.844 42.9097 168.287 42.9913 171.415 42.7891C172.545 42.7891 173.263 44.1231 173.263 45.6576C173.263 47.2459 172.497 49.0828 170.462 49.94C170.207 50.0477 169.938 50.1107 169.667 50.1441L160.232 51.2723C159.872 51.352 159.564 51.7992 159.564 52.2816C159.564 52.7251 159.874 53.1704 160.745 53.2112L167.723 52.7678C168.597 52.7678 169.107 54.0184 169.107 55.3524C169.107 56.9277 168.441 58.6255 166.953 58.6255L160.129 59.2304C159.513 59.4326 159.255 59.8761 159.255 60.3214C159.255 60.8873 159.615 61.4124 160.385 61.4922L171.052 60.0022C171.354 59.9596 171.662 59.9559 171.959 60.0282C173.531 60.403 174.39 62.2529 174.39 64.2012C174.39 66.0715 173.597 68.0309 171.95 68.8565C171.54 69.0625 171.091 69.1646 170.636 69.1998C168.142 69.3946 160.722 70.1795 155.612 70.1795C152.742 70.1721 150.586 69.9309 150.382 69.2035Z" fill="#2F2D84"/>
<path d="M31.9341 26.5987C31.9452 26.5134 35.1181 26.1682 37.8753 27.994C39.0146 28.7473 40.2967 29.9849 40.2206 30.3171C40.1984 30.4154 40.0685 30.6381 39.7994 30.5972C38.6361 30.4191 37.5209 29.432 36.9086 28.7288C35.0773 26.6173 31.923 26.6878 31.9341 26.5987Z" fill="white"/>
<path d="M40.5694 30.9624L40.4562 31.07C40.2781 31.1887 39.9664 31.6174 40.0962 31.7881L40.2929 32.1053C40.4859 32.3577 41.0091 32.2965 41.3116 32.2297C41.3784 32.2148 41.421 32.2092 41.4841 32.1666L41.5305 32.0868C41.5788 31.9272 41.5546 31.7676 41.4693 31.6266L41.4136 31.5376C41.2448 31.2166 40.8718 30.762 40.5694 30.9624Z" fill="white"/>
<path d="M50.1679 63.6981C50.0529 63.7631 50.4518 65.3996 51.617 66.7894C53.3278 68.8267 56.0664 69.5726 56.2464 69.1959C56.4245 68.8248 55.9904 68.617 55.6638 68.4092C54.2425 67.5037 53.3593 67.1382 52.2126 66.344C50.6874 65.2864 50.2829 63.6332 50.1679 63.6981Z" fill="white"/>
<path d="M49.4684 61.9937L49.5 61.9826C49.7894 61.8768 50.1086 62.0234 50.218 62.311L50.2886 62.4928C50.4036 62.7953 50.2552 63.1348 49.9527 63.2517L49.8785 63.2814C49.5946 63.3927 49.2755 63.2462 49.1734 62.9604L49.1048 62.7693C48.9916 62.4539 49.1549 62.1088 49.4684 61.9937Z" fill="white"/>
<path d="M77.0685 36.3915C77.0963 36.3098 81.2823 36.8591 81.8333 38.9891C81.8742 39.1431 81.7591 40.698 81.4196 40.6294C81.0077 40.5459 80.9965 40.0931 80.9724 40.0189C80.6514 39.0411 80.8462 38.7683 80.1708 37.9705C79.039 36.6382 77.0499 36.4508 77.0685 36.3915Z" fill="white"/>
<path d="M115.054 59.4219C115.069 59.3365 119.292 59.292 120.136 61.3237C120.197 61.4703 120.303 63.0271 119.956 63.0048C119.537 62.9788 119.462 62.5335 119.427 62.463C118.971 61.5408 119.127 61.2421 118.345 60.5482C117.039 59.3904 115.043 59.4831 115.054 59.4219Z" fill="white"/>
<path d="M140.583 43.3613C140.6 43.2759 144.823 43.3056 145.632 45.3522C145.691 45.5006 145.767 47.0574 145.422 47.0314C145.003 46.998 144.936 46.5508 144.903 46.4803C144.463 45.5489 144.624 45.2557 143.854 44.5469C142.57 43.3631 140.57 43.4206 140.583 43.3613Z" fill="white"/>
<path d="M167.586 61.359C167.597 61.2736 171.813 61.0324 172.752 63.0233C172.82 63.1681 172.997 64.7174 172.65 64.7118C172.23 64.7063 172.134 64.2647 172.097 64.196C171.597 63.2961 171.74 62.9918 170.928 62.3331C169.568 61.2347 167.579 61.4202 167.586 61.359Z" fill="white"/>
<path d="M80.9838 41.3531L81.0153 41.342C81.3048 41.2362 81.6239 41.3828 81.7334 41.6704L81.8039 41.8522C81.9189 42.1547 81.7705 42.4942 81.4681 42.6111L81.3938 42.6408C81.11 42.7521 80.7908 42.6055 80.6888 42.3198L80.6201 42.1287C80.5069 41.8133 80.6683 41.4663 80.9838 41.3531Z" fill="white"/>
<path d="M119.648 63.6373L119.679 63.6261C119.969 63.5204 120.288 63.667 120.397 63.9546L120.468 64.1364C120.583 64.4388 120.434 64.7784 120.132 64.8953L120.058 64.925C119.774 65.0363 119.455 64.8897 119.353 64.604L119.284 64.4129C119.171 64.0974 119.334 63.7505 119.648 63.6373Z" fill="white"/>
<path d="M144.311 47.4351L144.342 47.424C144.632 47.3182 144.951 47.4648 145.06 47.7524L145.131 47.9343C145.246 48.2367 145.097 48.5762 144.795 48.6931L144.721 48.7228C144.437 48.8342 144.118 48.6876 144.016 48.4018L143.947 48.2107C143.834 47.8953 143.997 47.5483 144.311 47.4351Z" fill="white"/>
<path d="M172.395 65.0699L172.426 65.0588C172.716 64.953 173.035 65.0996 173.145 65.3872L173.215 65.569C173.33 65.8715 173.182 66.211 172.879 66.3279L172.805 66.3576C172.521 66.4689 172.202 66.3223 172.1 66.0366L172.031 65.8455C171.918 65.53 172.079 65.1831 172.395 65.0699Z" fill="white"/>
<path d="M146.895 46.7208L146.979 46.7226C147.018 46.7226 147.048 46.756 147.044 46.795L147.035 46.923C147.031 46.9657 146.996 46.9991 146.953 46.9954L146.912 46.9935C146.853 46.9898 146.806 46.9379 146.812 46.8785L146.821 46.7857C146.827 46.7468 146.858 46.7189 146.895 46.7208Z" fill="white"/>
<path d="M174.584 63.2939L174.668 63.2958C174.707 63.2958 174.737 63.3292 174.733 63.3682L174.724 63.4962C174.72 63.5389 174.685 63.5723 174.642 63.5686L174.601 63.5667C174.542 63.563 174.495 63.511 174.501 63.4517L174.51 63.3589C174.516 63.3218 174.547 63.2939 174.584 63.2939Z" fill="white"/>
<path d="M119.039 54.6441L119.071 54.633C119.36 54.5272 119.68 54.6738 119.789 54.9614L119.86 55.1432C119.975 55.4457 119.826 55.7852 119.524 55.9021L119.45 55.9318C119.166 56.0431 118.846 55.8966 118.744 55.6108L118.676 55.4197C118.563 55.1043 118.724 54.7573 119.039 54.6441Z" fill="white"/>
</svg>
