<?xml version="1.0" encoding="UTF-8"?>
<svg id="Calque_1" data-name="Calque 1" xmlns="http://www.w3.org/2000/svg" viewBox="0 0 178.88 73.14">
  <defs>
    <style>
      .cls-1 {
        fill: #fff;
      }

      .cls-2 {
        fill: #2e3081;
      }
    </style>
  </defs>
  <g id="Typographie">
    <g>
      <path class="cls-2" d="M3.64,71.83C1.14,71.37-.1,56.61,0,40.58,.09,28.53,.93,15.73,2.61,8.11,3.81,2.74,10.24-.08,16.35,0c4.31,.06,8.43,1.51,10.51,4.55,.69,1.08,1.44,2.49,2.07,4.12,.69,1.73,1.08,3.56,1.18,5.82l.05,1.4c-.01,1.83-.26,3.76-.74,5.91-.6,2.68-1.79,5.68-3.55,8.99,2.43,2.51,4.1,5.32,5.07,8.24,1.03,2.92,1.53,5.83,1.63,8.63l.05,2.04c-.13,19.48-10.29,23.55-19.43,23.43-3.56-.05-6.93-.63-9.54-1.31ZM15.5,30.33c2.16-.73,3.98-3.72,4-6.62,.02-2.58-1.25-4.21-2.94-4.23l-.99,.2-.52,.21-.07,10.55,.52-.1Zm0,25.19c3.03-.82,5.56-4.45,5.58-7.89,.02-3.02-1.71-5.08-4.16-5.11l-1.28,.2c-.23,0-.47,.1-.7,.21l-.15,12.7,.7-.1Z"/>
      <path class="cls-2" d="M43.34,70.91c-2.12-.46-3.83-1.45-5.21-2.89-1.37-1.38-2.35-3.15-2.97-5.39-.69-2.43-.8-4.79-.8-7.29v-2.37c.06-1.05,.06-2.5,.11-4.34,0-1.84,.06-4.34,.17-7.49l.29-11.36c0-1.84,2.35-2.89,4.81-2.89,2.75,0,5.72,1.31,5.72,4.53l-.06,.85c-.11,2.37-1.55,11.83-1.55,18.98,0,4.2,.52,7.68,2.06,8.41,.4,.2,.74,.26,1.09,.26,2.8,0,3.49-6.57,3.49-13.27,0-6.17-.57-12.48-.63-13.79,.11-2.76,2.4-4.14,4.92-4.14,2.06,0,4.18,.92,5.27,2.76,.11,4.92,.29,8.87,.34,11.89l.17,10.58c0,1.97-.06,3.94-.4,5.91-.23,1.84-.75,3.48-1.49,4.92s-1.77,2.69-3.03,3.74c-1.32,1.05-2.86,1.77-4.81,2.23-1.6,.33-3.03,.46-4.35,.46-1.15,0-2.17-.06-3.15-.32Z"/>
      <path class="cls-2" d="M62.39,67.73l-.23-44.85c0-4.57,3.49-6.58,6.87-6.58,2.05,0,4.07,.79,5.17,2.24,.56,.73,.83,1.78,.79,2.84l-1.08,30.46c0,1.28,.52,1.92,1.28,1.92h0c.19,0,.39-.03,.58-.08l8.62-2.56c.29-.08,.58-.16,.87-.16,2.45,0,4.25,3.69,4.25,7.7,0,1.36-.09,4.39-.55,5.68-1.33,3.86-1.26,4.4-4,5.46-.22,.08-.44,.13-.67,.14l-19.11,.75-.68,.07c-.09,0-.18,.01-.27,.01-1.35-.06-1.84-1.03-1.84-3.05Z"/>
      <path class="cls-2" d="M91.55,67.73l-.23-44.85c0-4.57,3.49-6.58,6.87-6.58,2.85,0,5.64,1.52,5.99,4.25l-1.11,31.29c0,1.28,.52,1.92,1.28,1.92h.29l8.91-2.65c.29-.08,.58-.16,.87-.16,2.45,0,4.25,3.69,4.25,7.7,0,1.17,.05,6.29-.23,8.54-.07,.52-.3,.98-.65,1.2-1.82,1.18-3.14,.87-5.87,1.31l-17.58,.98-.81,.08c-1.45,0-1.98-.96-1.98-3.05Z"/>
      <path class="cls-2" d="M121.57,69.13c-.76-3.06-1.11-9.94-1.11-17.39s.35-15.35,1.11-20.44c.52-3.63,20.32-3.5,23.87-3.82,1.28,0,2.1,2.1,2.1,4.52s-.8,5.18-2.92,6.59c-.4,.27-.84,.43-1.28,.5l-10.58,1.76c-.41,.13-.76,.83-.76,1.59,0,.7,.35,1.4,1.34,1.47l7.92-.7c.99,0,1.57,1.97,1.57,4.08,0,2.48-.76,5.16-2.45,5.16l-7.74,.95c-.7,.32-.99,1.02-.99,1.72,0,.89,.41,1.72,1.28,1.85l12.46-2.42c2.21,0,3.43,3.25,3.43,6.69,0,2.95-.9,6.04-2.77,7.34-.46,.32-.98,.48-1.5,.54-2.84,.31-11.25,1.54-17.04,1.54-3.26,0-5.7-.38-5.93-1.53Z"/>
      <path class="cls-2" d="M151.64,68.96c-.76-3.03-1.11-9.86-1.11-17.25s.35-15.22,1.11-20.28c.52-3.6,20.32-3.47,23.87-3.79,1.28,0,2.1,2.09,2.1,4.49s-.87,5.36-3.18,6.7c-.29,.17-.59,.27-.9,.32l-10.71,1.76c-.41,.12-.76,.82-.76,1.58,0,.69,.35,1.39,1.34,1.45l7.92-.69c.99,0,1.57,1.96,1.57,4.04,0,2.46-.76,5.12-2.44,5.12l-7.74,.95c-.7,.32-.99,1.01-.99,1.71,0,.89,.41,1.71,1.28,1.83l12.1-2.33c.34-.07,.69-.07,1.03,.04,1.78,.59,2.76,3.48,2.76,6.53s-.9,5.99-2.77,7.28c-.47,.32-.97,.48-1.49,.54-2.83,.3-11.25,1.53-17.05,1.53-3.26-.01-5.7-.39-5.93-1.53Z"/>
      <path class="cls-1" d="M17.24,2.33c.01-.13,3.61-.67,6.74,2.18,1.29,1.18,2.75,3.11,2.66,3.63-.03,.15-.17,.5-.48,.44-1.32-.28-2.59-1.82-3.28-2.92-2.08-3.3-5.66-3.19-5.64-3.33Z"/>
      <path class="cls-1" d="M27.04,9.15l-.13,.17c-.2,.19-.56,.86-.41,1.12l.22,.5c.22,.39,.81,.3,1.16,.19,.08-.02,.12-.03,.2-.1l.05-.12c.05-.25,.03-.5-.07-.72l-.06-.14c-.19-.5-.61-1.21-.96-.9Z"/>
      <path class="cls-1" d="M37.93,60.35c-.13,.1,.32,2.66,1.64,4.83,1.94,3.19,5.05,4.35,5.25,3.76,.2-.58-.29-.91-.66-1.23-1.61-1.42-2.61-1.99-3.92-3.23-1.73-1.65-2.19-4.24-2.32-4.14Z"/>
      <path class="cls-1" d="M37.14,57.69l.04-.02c.33-.17,.69,.06,.81,.51l.08,.28c.13,.47-.04,1-.38,1.19l-.08,.05c-.32,.17-.68-.06-.8-.5l-.08-.3c-.13-.49,.06-1.03,.41-1.21Z"/>
      <path class="cls-1" d="M68.45,17.65c.03-.13,4.78,.73,5.41,4.06,.05,.24-.08,2.67-.47,2.57-.47-.13-.48-.84-.51-.95-.36-1.53-.14-1.96-.91-3.2-1.28-2.08-3.54-2.38-3.52-2.47Z"/>
      <path class="cls-1" d="M111.55,53.67c.02-.13,4.81-.2,5.77,2.97,.07,.23,.19,2.66-.2,2.63-.48-.04-.56-.74-.6-.85-.52-1.44-.34-1.91-1.23-2.99-1.48-1.81-3.75-1.67-3.73-1.76Z"/>
      <path class="cls-1" d="M140.52,28.55c.02-.13,4.81-.09,5.73,3.11,.07,.23,.15,2.67-.24,2.63-.48-.05-.55-.75-.59-.86-.5-1.46-.32-1.92-1.19-3.02-1.46-1.85-3.73-1.76-3.71-1.85Z"/>
      <path class="cls-1" d="M171.16,56.69c.01-.13,4.8-.51,5.86,2.6,.08,.23,.28,2.65-.12,2.64-.48,0-.59-.7-.63-.81-.57-1.41-.4-1.88-1.33-2.91-1.54-1.72-3.8-1.43-3.79-1.52Z"/>
      <path class="cls-1" d="M72.89,25.41l.04-.02c.33-.17,.69,.06,.81,.51l.08,.28c.13,.47-.04,1-.38,1.19l-.08,.05c-.32,.17-.68-.06-.8-.5l-.08-.3c-.13-.49,.05-1.04,.41-1.21Z"/>
      <path class="cls-1" d="M116.76,60.26l.04-.02c.33-.17,.69,.06,.81,.51l.08,.28c.13,.47-.04,1-.38,1.19l-.08,.05c-.32,.17-.68-.06-.8-.5l-.08-.3c-.13-.49,.06-1.04,.41-1.21Z"/>
      <path class="cls-1" d="M144.75,34.92l.04-.02c.33-.17,.69,.06,.81,.51l.08,.28c.13,.47-.04,1-.38,1.19l-.08,.05c-.32,.17-.68-.06-.8-.5l-.08-.3c-.13-.49,.06-1.04,.41-1.21Z"/>
      <path class="cls-1" d="M176.61,62.5l.04-.02c.33-.17,.69,.06,.81,.51l.08,.28c.13,.47-.04,1-.38,1.19l-.08,.05c-.32,.17-.68-.06-.8-.5l-.08-.3c-.13-.49,.05-1.04,.41-1.21Z"/>
    </g>
  </g>
</svg>