<?xml version="1.0" encoding="UTF-8"?>
<svg id="Layer_1" data-name="Layer 1" xmlns="http://www.w3.org/2000/svg" viewBox="0 0 215.05 179.97">
  <defs>
    <style>
      .cls-1 {
        fill: #ffdc9c;
      }

      .cls-2 {
        fill: #f72872;
      }

      .cls-3 {
        fill: #fff;
      }

      .cls-4 {
        fill: #ffbe06;
      }

      .cls-5 {
        fill: #cedbef;
      }

      .cls-6 {
        fill: #d7dcf0;
      }

      .cls-7 {
        fill: #390075;
      }

      .cls-8 {
        opacity: .2;
      }

      .cls-9 {
        opacity: .3;
      }

      .cls-10 {
        opacity: .25;
      }

      .cls-11 {
        opacity: .55;
      }
    </style>
  </defs>
  <g class="cls-10">
    <path class="cls-7" d="M214.09,39.54c-1.12-2.35-3.08-4.12-5.51-4.98l-18.46-6.52-.66-7.29c-.24-2.6-1.46-4.95-3.44-6.62-1.98-1.67-4.49-2.46-7.06-2.22l-27.32,2.54-25.9-9.15c-2.43-.86-5.05-.71-7.38,.43-2.32,1.13-4.07,3.12-4.92,5.58l-2.38,6.91-19.47,1.81c-5.3,.49-9.22,5.26-8.73,10.63l4.98,54.95-17.96,52.1c-.85,2.47-.7,5.12,.42,7.47,1.12,2.35,3.08,4.12,5.51,4.98l18.46,6.52,.66,7.29c.46,5.07,4.68,8.88,9.61,8.88,.29,0,.59-.01,.89-.04l27.32-2.54,25.9,9.15c1.05,.37,2.12,.55,3.17,.55,3.99,0,7.74-2.53,9.12-6.56l2.38-6.91,19.47-1.81c2.57-.24,4.89-1.48,6.54-3.48,1.65-2.01,2.43-4.54,2.19-7.14l-4.98-54.95,17.96-52.1c.85-2.47,.7-5.12-.42-7.47Z"/>
  </g>
  <g>
    <path class="cls-5" d="M187.99,158.55l-13.77,1.28-56,5.2-17.6,1.63c-4.54,.42-8.57-2.97-8.99-7.57l-.32-3.57-5.42-59.82-6.33-69.92c-.42-4.6,2.93-8.68,7.47-9.1l26.95-2.5,22.77-2.11,37.65-3.5c4.54-.42,8.56,2.97,8.99,7.57l1.16,12.81,7.24,79.9,3.68,40.6c.42,4.6-2.93,8.68-7.47,9.1Z"/>
    <path class="cls-7" d="M99.85,166.91c-1.97,0-3.87-.69-5.41-1.99-1.74-1.47-2.81-3.53-3.02-5.81L79.35,25.8c-.21-2.28,.48-4.51,1.93-6.27,1.45-1.76,3.49-2.85,5.74-3.06l87.37-8.11c4.65-.43,8.79,3.05,9.22,7.76l12.07,133.32c.21,2.28-.48,4.51-1.93,6.27-1.45,1.76-3.49,2.85-5.74,3.06l-87.37,8.11c-.26,.02-.53,.04-.79,.04ZM175.16,8.75c-.25,0-.49,.01-.74,.03l-87.37,8.11c-2.14,.2-4.08,1.23-5.45,2.91-1.38,1.67-2.03,3.79-1.83,5.96l12.07,133.32c.2,2.17,1.22,4.13,2.87,5.52,1.65,1.39,3.74,2.05,5.88,1.85l87.37-8.11c2.14-.2,4.08-1.23,5.45-2.91,1.38-1.67,2.03-3.79,1.83-5.96l-12.07-133.32c-.39-4.22-3.91-7.41-8.01-7.41Z"/>
  </g>
  <path class="cls-7" d="M99.85,168.11c-2.25,0-4.41-.79-6.16-2.26-1.98-1.67-3.2-4.02-3.44-6.62L78.17,25.91c-.49-5.37,3.43-10.13,8.73-10.63L174.27,7.16c2.57-.24,5.07,.55,7.06,2.22,1.98,1.67,3.2,4.02,3.44,6.62l12.08,133.32c.49,5.37-3.43,10.13-8.73,10.63h0l-87.37,8.11c-.3,.03-.6,.04-.9,.04ZM175.17,9.94c-.21,0-.43,0-.64,.03l-87.37,8.11c-3.77,.35-6.56,3.74-6.22,7.57l12.08,133.32c.17,1.85,1.04,3.53,2.45,4.71,1.41,1.19,3.19,1.75,5.02,1.58l87.37-8.11,.13,1.4-.13-1.4c3.77-.35,6.56-3.74,6.22-7.57l-12.08-133.32c-.17-1.85-1.04-3.53-2.45-4.71-1.25-1.05-2.78-1.61-4.38-1.61Z"/>
  <g class="cls-9">
    <path class="cls-7" d="M191.78,108.85l-17.57,50.97-56,5.2-26.91-9.51-5.42-59.82L114.39,13.02c1.5-4.36,6.21-6.67,10.52-5.14l59.64,21.07,7.24,79.9Z"/>
  </g>
  <g>
    <path class="cls-3" d="M208.51,41.8l-43.56,126.4c-1.5,4.36-6.21,6.67-10.52,5.14l-82.84-29.27c-4.31-1.52-6.58-6.29-5.08-10.66L110.07,7.02c1.5-4.36,6.21-6.67,10.52-5.14l82.84,29.27c4.31,1.52,6.58,6.29,5.08,10.66Z"/>
    <path class="cls-7" d="M157.15,174.04c-.94,0-1.89-.16-2.8-.48l-82.84-29.27c-4.41-1.56-6.75-6.46-5.21-10.93L109.87,6.95c1.54-4.47,6.38-6.83,10.8-5.27l82.84,29.27c2.14,.76,3.86,2.31,4.84,4.37,.98,2.06,1.11,4.39,.37,6.56l-43.56,126.4c-.75,2.16-2.28,3.91-4.32,4.9-1.17,.57-2.42,.86-3.68,.86ZM117.88,1.63c-3.33,0-6.45,2.11-7.61,5.47l-43.56,126.4c-1.46,4.24,.76,8.9,4.95,10.38l82.84,29.27c2.03,.72,4.22,.59,6.15-.35,1.94-.95,3.39-2.6,4.1-4.66l43.56-126.4,.2,.07-.2-.07c.71-2.06,.58-4.27-.35-6.23-.93-1.96-2.57-3.44-4.6-4.15L120.53,2.08c-.87-.31-1.77-.46-2.65-.46Z"/>
  </g>
  <g class="cls-8">
    <path class="cls-7" d="M148.96,59.28c-.75-1.45-2.26-2.22-3.86-1.97l-39.04,6.18c-.14,.02-.28,.07-.41,.14L7.98,115.27c-2.39,1.26-4.15,3.4-4.96,6-.81,2.6-.56,5.37,.68,7.79l5.69,11.03c1.25,2.42,3.35,4.21,5.93,5.02,1,.32,2.02,.47,3.03,.47,1.61,0,3.2-.39,4.66-1.17l97.68-51.64c.13-.07,.24-.16,.34-.26l27.32-28.9c1.12-1.18,1.35-2.88,.61-4.33Z"/>
  </g>
  <g class="cls-9">
    <path class="cls-7" d="M207.51,41.41l-43.56,126.4c-1.5,4.36-6.21,6.67-10.52,5.14l-82.84-29.27c-3.15-1.11-5.21-3.95-5.5-7.1,.95,1.24,2.24,2.22,3.81,2.78l82.84,29.27c4.31,1.52,9.02-.78,10.52-5.14l43.56-126.4c.41-1.18,.54-2.39,.42-3.55,1.66,2.16,2.23,5.1,1.27,7.88Z"/>
  </g>
  <path class="cls-7" d="M157.15,175.23c-1.07,0-2.15-.18-3.19-.55l-82.84-29.27c-5.03-1.78-7.69-7.36-5.93-12.45L108.76,6.56c.85-2.47,2.6-4.45,4.92-5.58,2.32-1.14,4.94-1.29,7.38-.43l82.84,29.27c5.03,1.78,7.69,7.36,5.93,12.45l-43.56,126.4c-.85,2.47-2.6,4.45-4.92,5.58-1.33,.65-2.76,.98-4.19,.98ZM117.87,2.82c-1.02,0-2.04,.23-2.98,.7-1.65,.81-2.9,2.22-3.5,3.98l-43.56,126.4c-1.25,3.62,.65,7.6,4.23,8.86l82.84,29.27h0c1.73,.61,3.6,.5,5.25-.3,1.65-.81,2.9-2.22,3.5-3.98l43.56-126.4c1.25-3.62-.65-7.6-4.23-8.86L120.14,3.21c-.74-.26-1.51-.39-2.27-.39Z"/>
  <path class="cls-7" d="M155.89,49.26c1.13-.62,2.35-1.12,3.64-1.42,1.29-.31,2.64-.38,3.98-.23,2.67,.3,5.23,1.62,7,3.66,.89,1.02,1.58,2.21,2.04,3.47,.46,1.26,.69,2.57,.73,3.86,.08,2.59-.54,5.08-1.62,7.32-1.11,2.26-2.65,4.13-4.36,5.77-1.71,1.63-3.58,2.99-5.47,4.24-3.78,2.49-7.66,4.54-10.86,7.35-.4,.35-.78,.71-1.16,1.08-.36,.37-.71,.75-1.04,1.14-.64,.79-1.19,1.65-1.56,2.54-.18,.45-.32,.9-.4,1.36-.07,.46-.09,.91-.04,1.36,.12,.89,.47,1.73,1.08,2.43,1.23,1.39,3.26,2.15,5.25,2.25,.25,.02,.5,0,.75,0,.25,0,.5-.04,.75-.06,.25-.04,.49-.08,.74-.13l.79-.19c.54-.13,1.1-.27,1.7-.35,.6-.08,1.24-.12,1.92,.02,.67,.14,1.35,.46,1.85,.99,.51,.52,.82,1.2,.95,1.86,.24,1.33-.04,2.6-.57,3.72-.56,1.11-1.29,1.99-1.94,2.87-.65,.87-1.24,1.75-1.53,2.72-.59,1.93-.07,4.24,1.35,5.71,1.42,1.48,3.7,2.13,5.7,1.57h0c.19-.05,.38,.06,.44,.25,.05,.19-.06,.38-.24,.44-2.25,.7-4.83,.08-6.56-1.59-1.73-1.69-2.43-4.32-1.81-6.7,.31-1.2,.97-2.23,1.61-3.15,.64-.92,1.31-1.81,1.72-2.71,.4-.89,.55-1.94,.36-2.81-.1-.43-.3-.8-.58-1.07-.28-.27-.65-.44-1.06-.51-.84-.14-1.86,.13-2.91,.42l-.82,.22c-.29,.06-.59,.13-.89,.18-.3,.03-.6,.08-.9,.1-.3,0-.6,.04-.9,.02-1.2-.02-2.41-.23-3.56-.66-1.14-.43-2.25-1.08-3.15-2.04-.89-.95-1.5-2.22-1.71-3.54-.09-.66-.09-1.33,0-1.98,.09-.65,.26-1.27,.48-1.87,.89-2.37,2.54-4.23,4.21-5.8,3.4-3.18,7.35-5.43,10.88-7.94,1.77-1.25,3.45-2.58,4.91-4.07,.73-.74,1.4-1.53,2-2.35,.6-.83,1.11-1.69,1.51-2.59,.8-1.8,1.2-3.79,1.08-5.68-.12-1.89-.81-3.64-2-4.9-1.19-1.28-2.86-2.06-4.58-2.2-.86-.07-1.74,0-2.6,.24-.86,.24-1.69,.61-2.49,1.08l-.05,.03c-1.02,.59-2.32,.24-2.91-.79-.59-1.03-.24-2.35,.78-2.94,.02,0,.04-.02,.05-.03Z"/>
  <g>
    <path class="cls-4" d="M117.53,86.86L19.85,138.5c-4.3,2.27-9.6,.59-11.85-3.77l-5.69-11.03c-2.25-4.35-.58-9.72,3.72-12L103.71,60.06l.99-.16,29.5-4.67,8.54-1.35c2.26-.36,3.68,2.39,2.1,4.07l-5.98,6.32-20.64,21.85-.7,.73Z"/>
    <path class="cls-2" d="M29.38,133.46l-9.53,5.04c-4.3,2.27-9.6,.59-11.85-3.77l-5.69-11.03c-2.25-4.35-.58-9.72,3.72-12l9.53-5.04,13.82,26.79Z"/>
    <g>
      <polygon class="cls-6" points="37.75 129.04 29.38 133.46 15.57 106.66 23.93 102.24 37.75 129.04"/>
      <path class="cls-7" d="M29.29,133.75l-.1-.19-13.92-26.99,8.74-4.62,.1,.19,13.92,26.98-8.74,4.62Zm-13.44-26.99l13.62,26.41,7.99-4.22-13.62-26.41-7.99,4.22Z"/>
    </g>
    <g>
      <path class="cls-1" d="M118.23,86.12c-2.28-2.59-6.4,.2-8.54-3.1-2.11-3.45,2.45-6.13,.69-9.43-1.67-3.35-6.45-1.09-8.04-4.82-1.45-3.66,3.16-5.5,2.37-8.87l29.5-4.67,8.54-1.35c2.26-.36,3.68,2.39,2.1,4.07l-5.98,6.32-20.64,21.85Z"/>
      <path class="cls-7" d="M118.22,86.44l-.15-.17c-1.01-1.14-2.4-1.17-3.87-1.21-1.72-.04-3.49-.08-4.68-1.92-1.15-1.88-.43-3.52,.26-5.11,.63-1.45,1.23-2.82,.43-4.33-.77-1.54-2.22-1.82-3.76-2.13-1.68-.33-3.43-.68-4.29-2.7-.81-2.05,.17-3.55,1.12-5,.82-1.24,1.59-2.42,1.24-3.91l-.05-.23,38.27-6.05c1.12-.18,2.18,.37,2.71,1.39,.53,1.02,.36,2.21-.43,3.04l-26.78,28.34Zm-13.26-26.36c.27,1.56-.55,2.81-1.34,4.02-.93,1.42-1.81,2.75-1.08,4.59,.77,1.81,2.33,2.12,3.98,2.45,1.57,.31,3.2,.63,4.05,2.35,.9,1.69,.23,3.22-.41,4.71-.68,1.56-1.32,3.03-.29,4.71,1.07,1.65,2.66,1.69,4.33,1.72,1.43,.03,2.91,.06,4.02,1.18l26.46-28.01c.8-.84,.71-1.87,.36-2.55-.35-.68-1.13-1.34-2.27-1.16l-37.82,5.98Z"/>
    </g>
    <g class="cls-9">
      <path class="cls-7" d="M117.53,86.86L19.85,138.5c-4.3,2.27-9.6,.59-11.85-3.77l-3.66-7.09c2.25,4.35,7.55,6.04,11.85,3.77l96.79-51.17c.59-.31,1.13-.72,1.59-1.21h0s30.92-23.11,30.92-23.11c.11,.69-.07,1.43-.64,2.03l-5.98,6.32-20.64,21.85-.7,.73Z"/>
    </g>
    <g class="cls-11">
      <path class="cls-3" d="M145.38,57.09c-.31-.08-.64-.11-1.01-.05l-8.54,1.35-29.5,4.67-.99,.16L7.66,114.86c-4.3,2.27-5.96,7.64-3.72,12l-1.63-3.15c-2.25-4.35-.58-9.72,3.72-12L103.71,60.06l.99-.16,29.5-4.67,8.54-1.35c1.9-.3,3.2,1.6,2.63,3.2Z"/>
    </g>
    <path class="cls-7" d="M15.8,140.84c-3.64,0-7.17-2-8.97-5.49l-5.69-11.03c-2.58-5-.66-11.19,4.28-13.8L103.1,58.88c.13-.07,.26-.11,.41-.14l39.04-6.18c1.6-.25,3.11,.52,3.86,1.97,.75,1.45,.51,3.15-.61,4.33l-27.32,28.9c-.1,.1-.21,.19-.34,.26L20.46,139.68c-1.49,.79-3.08,1.16-4.66,1.16ZM104.13,61.35L6.64,112.89c-3.65,1.93-5.07,6.5-3.16,10.2l5.69,11.03c1.9,3.69,6.42,5.13,10.07,3.2l97.49-51.54,27.17-28.75c.49-.52,.26-1.09,.17-1.25-.08-.16-.42-.68-1.12-.57l-38.82,6.14Zm13.4,25.51h0Z"/>
    <path class="cls-7" d="M118.23,87.45c-.36,0-.72-.15-.98-.45-.65-.74-1.59-.8-3.07-.83-1.81-.04-4.07-.09-5.58-2.43-1.47-2.41-.56-4.5,.17-6.18,.65-1.48,.99-2.37,.46-3.35-.51-1.03-1.43-1.25-3-1.56-1.78-.35-4-.79-5.09-3.36-1.04-2.63,.21-4.53,1.21-6.06,.82-1.25,1.31-2.06,1.08-3.03-.17-.72,.27-1.44,.97-1.61,.71-.17,1.42,.27,1.59,.99,.51,2.15-.58,3.8-1.45,5.13-.95,1.45-1.46,2.32-.97,3.56,.51,1.18,1.48,1.43,3.17,1.77,1.66,.33,3.73,.74,4.83,2.94,1.14,2.15,.29,4.1-.39,5.66-.69,1.59-1.05,2.54-.36,3.67,.7,1.08,1.71,1.16,3.42,1.19,1.57,.03,3.53,.08,4.98,1.72,.48,.55,.44,1.39-.11,1.88-.25,.23-.56,.34-.88,.34Z"/>
    <path class="cls-7" d="M138.87,64.27c-2.9-2.3-4.46-5.31-4.66-9.04l8.54-1.35c2.26-.36,3.68,2.39,2.1,4.07l-5.98,6.32Z"/>
    <path class="cls-7" d="M29.38,134.79c-.13,0-.27-.02-.39-.06-.33-.11-.61-.34-.77-.65l-13.82-26.79c-.16-.31-.19-.68-.09-1.02s.34-.62,.65-.78l8.37-4.42c.64-.34,1.44-.09,1.78,.56l13.82,26.79c.34,.65,.09,1.46-.56,1.8l-8.37,4.42c-.19,.1-.4,.15-.61,.15Zm-12.04-27.56l12.6,24.43,6.03-3.19-12.6-24.43-6.03,3.19Z"/>
    <path class="cls-7" d="M138.87,65.61c-.28,0-.57-.09-.81-.28-3.2-2.54-4.94-5.91-5.16-10.01-.04-.74,.52-1.36,1.24-1.41,.73-.04,1.35,.52,1.39,1.26,.18,3.35,1.54,5.99,4.16,8.06,.57,.45,.67,1.29,.23,1.87-.26,.34-.65,.51-1.04,.51Z"/>
  </g>
</svg>