<?xml version="1.0" encoding="UTF-8"?><svg id="Calque_1" xmlns="http://www.w3.org/2000/svg" viewBox="0 0 275 677.5"><defs><style>.cls-1{fill:#f9b981;}.cls-2{fill:#fff;}.cls-3{fill:#be4520;}.cls-4{fill:#be3271;}.cls-5{fill:#1d1a38;}.cls-6{isolation:isolate;}</style></defs><g id="pancarte_6"><g><path class="cls-1" d="M185.3,359.5l13-111.5c.3-2.7,.6-5.4,1.1-8.1,1.6-10.2-.5-13.8-2.2-22.3-1.8-9.1,1.5-20.5,1.5-20.5l18.4-2.3,1.4-21.9s5.7,2.2,7.4,2.8,4.9,11.2,8.2,16.7,4.6,7.3,1.5,15.2c-2.4,6.1-9.4,24.6-12.4,32.4-.9,2.4-1.3,4.9-1.1,7.4,1.1,20.6,6,110.7,6,112.2l-42.8-.1h0Z"/><path class="cls-3" d="M224.2,189.1c.1,0,.3-.1,.3-.2s-.1-.3-.2-.3c-3.4-.5-6.6-2-9-4.3-.1-.1-.3-.1-.4,0-.1,.1-.1,.3,0,.4,2.5,2.3,5.8,3.9,9.3,4.4h0Z"/><path class="cls-3" d="M223.3,201c.1,0,.2-.1,.2-.1,.1-.1,0-.3-.1-.4-4.1-2.6-7.2-6.4-8.9-10.9-.1-.1-.2-.2-.4-.2-.1,.1-.2,.2-.2,.4,1.7,4.6,4.9,8.6,9.1,11.2h.3Z"/></g><g><path class="cls-1" d="M93.9,359.5l-11.6-111.4c-.3-2.7-.6-5.4-.9-8.1-1.4-10.2,.4-13.8,1.9-22.3,1.6-9.1-1.4-20.5-1.4-20.5l-16.4-2.3-1.2-21.9s-5.1,2.2-6.5,2.8-4.3,11.2-7.3,16.7-4.1,7.3-1.3,15.2c2.2,6.1,8.4,24.6,11,32.4,.8,2.4,1.1,4.9,1,7.4-1,20.6-5.4,110.7-5.4,112.2l38.1-.2h0Z"/><path class="cls-3" d="M56,189.1c-.1,0-.3-.1-.3-.2s.1-.3,.2-.3c3.4-.5,6.6-2,9-4.3,.1-.1,.3-.1,.4,0s.1,.3,0,.4c-2.4,2.3-5.8,3.9-9.3,4.4,.1,0,0,0,0,0h0Z"/><path class="cls-3" d="M56.9,201c-.1,0-.2-.1-.2-.1-.1-.1,0-.3,.1-.4,4.1-2.6,7.2-6.4,8.9-10.9,.1-.1,.2-.2,.4-.2,.1,.1,.2,.2,.2,.4-1.7,4.6-4.9,8.6-9.1,11.2h-.3Z"/></g><g id="EST-CE_DU_HARCÈLEMENT___hover_6"><path class="cls-5" d="M23,36.8l9.4,151.6c.2,3.6,3,6.4,6.3,6.4H244.8c3.4,0,6.2-2.9,6.3-6.6l5.4-151.6c.1-3.9-2.7-7.1-6.3-7.1H29.2c-3.5,0-6.4,3.3-6.2,7.3h0Z"/><g class="cls-6"><path class="cls-2" d="M41.89,95.61v-28.21h11.28v5.45h-5.54v5.5h5.32v5.3h-5.32v6.46h5.91v5.5h-11.65Z"/><path class="cls-2" d="M62.1,95.87c-2.58,0-4.43-.64-5.57-1.92-1.14-1.28-1.71-3.32-1.71-6.12v-2.76h5.58v3.53c0,.65,.1,1.16,.3,1.53,.2,.37,.54,.55,1.03,.55s.87-.15,1.07-.45c.2-.3,.3-.79,.3-1.47,0-.87-.09-1.59-.26-2.17s-.47-1.14-.89-1.67c-.42-.53-1.01-1.15-1.75-1.85l-2.53-2.4c-1.89-1.78-2.84-3.82-2.84-6.12s.56-4.24,1.67-5.5c1.12-1.26,2.73-1.89,4.85-1.89,2.59,0,4.42,.69,5.5,2.07,1.08,1.38,1.63,3.47,1.63,6.28h-5.74v-1.94c0-.38-.11-.68-.33-.9-.22-.21-.52-.32-.89-.32-.45,0-.78,.12-.99,.38-.21,.25-.31,.58-.31,.97s.11,.82,.32,1.28,.64,.99,1.27,1.59l3.25,3.12c.65,.62,1.25,1.27,1.79,1.96,.54,.69,.98,1.49,1.31,2.4,.33,.91,.5,2.03,.5,3.34,0,2.65-.49,4.72-1.47,6.23s-2.68,2.25-5.1,2.25Z"/><path class="cls-2" d="M72.96,95.61v-22.79h-3.35v-5.42h12.34v5.42h-3.35v22.79h-5.64Z"/><path class="cls-2" d="M83.24,87.45v-3.72h8.27v3.72h-8.27Z"/><path class="cls-2" d="M100.3,95.87c-2.04,0-3.68-.64-4.93-1.91s-1.87-3.05-1.87-5.34v-13.01c0-2.73,.54-4.83,1.63-6.28,1.08-1.45,2.85-2.18,5.3-2.18,1.34,0,2.52,.25,3.57,.74s1.86,1.23,2.46,2.2c.6,.98,.9,2.21,.9,3.69v4.87h-5.61v-4.17c0-.84-.11-1.41-.32-1.71-.21-.29-.54-.44-.99-.44-.52,0-.88,.19-1.06,.57-.18,.38-.27,.88-.27,1.51v14.12c0,.78,.11,1.33,.34,1.65,.23,.32,.56,.48,.99,.48,.48,0,.82-.2,1.02-.59,.2-.4,.3-.91,.3-1.54v-5.08h5.67v5.34c0,2.48-.62,4.28-1.88,5.39s-3,1.67-5.24,1.67Z"/><path class="cls-2" d="M109.29,95.61v-28.21h11.28v5.45h-5.54v5.5h5.32v5.3h-5.32v6.46h5.91v5.5h-11.65Z"/><path class="cls-2" d="M130.49,95.61v-28.21h7.76c2.03,0,3.56,.56,4.58,1.69s1.54,2.77,1.54,4.94v13.21c0,2.67-.47,4.73-1.4,6.19-.93,1.45-2.57,2.18-4.91,2.18h-7.56Zm5.67-4.98h.98c1.04,0,1.55-.5,1.55-1.51v-14.55c0-.94-.13-1.55-.38-1.82-.25-.27-.76-.41-1.53-.41h-.62v18.28Z"/><path class="cls-2" d="M153.2,95.87c-2.35,0-4.08-.66-5.19-1.98s-1.67-3.26-1.67-5.83v-20.66h5.48v20.43c0,.47,.03,.92,.08,1.35s.18,.79,.37,1.07c.19,.28,.5,.42,.93,.42s.75-.14,.95-.41,.31-.63,.36-1.07c.05-.44,.07-.89,.07-1.36v-20.43h5.48v20.66c0,2.56-.56,4.51-1.67,5.83s-2.84,1.98-5.19,1.98Z"/></g><g class="cls-6"><path class="cls-2" d="M41.89,134.99v-28.21h5.61v10.08h2.66v-10.08h5.61v28.21h-5.61v-12.79h-2.66v12.79h-5.61Z"/><path class="cls-2" d="M57.5,134.99l2.72-28.21h9.57l2.68,28.21h-5.34l-.4-4.55h-3.4l-.35,4.55h-5.48Zm6.23-9.05h2.56l-1.23-14.34h-.26l-1.07,14.34Z"/><path class="cls-2" d="M74.2,134.99v-28.21h8.65c1.44,0,2.53,.33,3.27,.99,.74,.66,1.23,1.58,1.48,2.76s.38,2.57,.38,4.16-.19,2.77-.58,3.69-1.12,1.55-2.2,1.91c.89,.18,1.51,.62,1.87,1.32,.36,.7,.54,1.61,.54,2.72v10.67h-5.56v-11.04c0-.82-.17-1.33-.5-1.53-.34-.2-.88-.3-1.63-.3v12.87h-5.71Zm5.74-17.76h1.36c.78,0,1.17-.85,1.17-2.55,0-1.1-.09-1.82-.26-2.16s-.49-.51-.96-.51h-1.31v5.22Z"/><path class="cls-2" d="M96.41,135.25c-2.04,0-3.68-.64-4.93-1.91s-1.87-3.05-1.87-5.34v-13.01c0-2.73,.54-4.83,1.63-6.28,1.08-1.45,2.85-2.18,5.3-2.18,1.34,0,2.52,.25,3.57,.74s1.86,1.23,2.46,2.2c.6,.98,.9,2.21,.9,3.69v4.87h-5.61v-4.17c0-.84-.11-1.41-.32-1.71-.21-.29-.54-.44-.99-.44-.52,0-.88,.19-1.06,.57-.18,.38-.27,.88-.27,1.51v14.12c0,.78,.11,1.33,.34,1.65,.23,.32,.56,.48,.99,.48,.48,0,.82-.2,1.02-.59,.2-.4,.3-.91,.3-1.54v-5.08h5.67v5.34c0,2.48-.62,4.28-1.88,5.39s-3,1.67-5.24,1.67Z"/><path class="cls-2" d="M105.4,134.99v-28.21h11.28v5.45h-5.54v5.5h5.32v5.3h-5.32v6.46h5.91v5.5h-11.65Zm9.66-29.05l-7.61-1.51v-5.56l7.61,3.49v3.57Z"/><path class="cls-2" d="M118.91,134.99v-28.21h5.64v23.4h5.8v4.81h-11.44Z"/><path class="cls-2" d="M131.95,134.99v-28.21h11.28v5.45h-5.54v5.5h5.32v5.3h-5.32v6.46h5.91v5.5h-11.65Z"/><path class="cls-2" d="M145.46,134.99v-28.21h8.59l2.37,17.2,2.36-17.2h8.67v28.21h-5.16v-20.32l-3.24,20.32h-5.06l-3.43-20.32v20.32h-5.1Z"/><path class="cls-2" d="M169.95,134.99v-28.21h11.28v5.45h-5.54v5.5h5.32v5.3h-5.32v6.46h5.91v5.5h-11.65Z"/><path class="cls-2" d="M183.46,134.99v-28.21h5.8l2.6,13.51v-13.51h5.45v28.21h-5.51l-2.82-14.1v14.1h-5.51Z"/><path class="cls-2" d="M202.22,134.99v-22.79h-3.35v-5.42h12.34v5.42h-3.35v22.79h-5.64Z"/><path class="cls-2" d="M221.26,127.7v-6.67c1.34,0,2.48-.07,3.44-.21s1.74-.43,2.36-.88c.61-.45,1.07-1.13,1.36-2.04s.44-2.13,.44-3.65c0-.69-.09-1.3-.26-1.83-.18-.52-.58-.79-1.23-.79-.46,0-.8,.15-1.01,.44-.21,.29-.35,.67-.41,1.12s-.09,.93-.09,1.42v2.34h-5.87v-4.07c0-2.16,.69-3.76,2.06-4.8,1.37-1.04,3.14-1.56,5.31-1.56,1.9,0,3.4,.34,4.5,1.03,1.09,.68,1.88,1.68,2.34,2.99,.46,1.31,.7,2.91,.7,4.8s-.3,3.5-.91,4.95-1.52,2.6-2.75,3.43c-1.23,.83-2.78,1.25-4.65,1.25v2.72h-5.34Zm-.18,7.28v-4.78h5.74v4.78h-5.74Z"/></g></g><g><path class="cls-4" d="M87.2,236.5c-1.5-.9-3.5-.6-5,.4-1.2,.8-2.1,2-2.9,3.2,.6-1.3,.1-3-1.1-3.9-1.4-1-3.6-.8-4.9,.4-.8,.7-1.3,1.7-1.5,2.7-.4-1.7-1.8-3.1-3.5-3.4-1.9-.3-3.8,1.1-4.5,2.9-.2-1.6-1.6-3.2-3.3-3.1-1.7,.1-3,1.9-2.9,3.6-.4-.8-1.1-1.4-1.9-1.6-1.2-.4-2.7,0-3.6,.9-1.4,1.5-1.2,3.8-.8,5.8,.8,4.1,2,8.1,3.7,11.9,1.1,2.5,2.3,7.2,5.6,7.1,3.7,0,7.7-2,11.4-2.4,1.1-.1,12.6,.2,12.5,.5,2.3-6,3.8-12.3,4.5-18.7,.3-2.1,.2-5-1.8-6.3h0Z"/><path class="cls-4" d="M52.3,647.5l1.4-387.2s8.7-12.2,34.8-5.7l20.2,366c0-.1-56.4,26.9-56.4,26.9Z"/></g><g><path class="cls-4" d="M193,237.1c1.5-1.6,3.5-.9,5,.8,1.2,1.4,2.1,3.3,2.9,5.4-.6-2.1-.1-5,1.1-6.4,1.4-1.7,3.6-1.3,4.9,.7,.8,1.2,1.3,2.8,1.5,4.5,.4-2.8,1.8-5.2,3.5-5.6,1.9-.4,3.8,1.8,4.5,4.8,.2-2.7,1.6-5.2,3.3-5.1,1.7,.2,3,3.2,2.9,6,.4-1.3,1.1-2.3,1.9-2.7,1.2-.7,2.7-.1,3.6,1.6,1.4,2.5,1.2,6.4,.8,9.7-.8,6.8-2.1,13.4-3.7,19.8-1.1,4.2-2.3,11.9-5.6,11.9-3.7,0-7.6-3.4-11.4-4-1.1-.2-12.6,.4-12.5,.8-2.3-10-3.8-20.5-4.5-31.1-.3-4.2-.2-9,1.8-11.1h0Z"/><path class="cls-4" d="M170,647.5l63.7-13.5-7.7-362.9s-9.3-11.8-37.4-5.5"/></g><g><path class="cls-1" d="M83.3,197.1s-1.7-25.1-6.5-26.9c-4.8-1.7-5.9,4.5-5.7,10.6s.7,14.1-1.3,21.9c-2,7.9,14,11.9,13.5-5.6Z"/><g><path class="cls-3" d="M76.7,184.8c-.7,0-1.4-.2-2-.7q-.1-.1,0-.2t.2,0c.9,.7,2.3,.8,3.3,.2,.1,0,.2,0,.2,.1s0,.1-.1,.2c-.5,.3-1.1,.4-1.6,.4h0Z"/><path class="cls-3" d="M77.4,188c-.8,0-1.7-.3-2.3-.8q-.1-.1,0-.2t.2,0c.7,.6,1.7,.9,2.7,.7,.1,0,.2,0,.2,.1s0,.1-.1,.2h-.7Z"/></g><path class="cls-2" d="M72.4,176.1c-.3-1.7-.1-3.4,.1-5.1,.1-1,.3-2.1,1.2-2.7,1-.7,2.4-.2,3.2,.6,.8,.9,1.1,2,1.4,3.2,.3,1.1,.6,2.2,.7,3.4,.1,1.1-.2,2.4-.8,3.3-2.3,3.1-5.2,0-5.8-2.7h0Z"/></g><g><path class="cls-1" d="M196.9,197.1s1.7-25.1,6.5-26.9c4.8-1.7,5.9,4.5,5.7,10.6s-.7,14.1,1.3,21.9c2,7.9-13.9,11.9-13.5-5.6Z"/><g><path class="cls-3" d="M203.6,184.8c.7,0,1.4-.2,2-.7q.1-.1,0-.2t-.2,0c-.9,.7-2.3,.8-3.3,.2q-.1,0-.2,.1,0,.1,.1,.2c.4,.3,1,.4,1.6,.4h0Z"/><path class="cls-3" d="M202.8,188c.8,0,1.7-.3,2.4-.8q.1-.1,0-.2t-.2,0c-.7,.6-1.7,.9-2.7,.7q-.1,0-.2,.1,0,.1,.1,.2h.6Z"/></g><path class="cls-2" d="M207.8,176.1c.3-1.7,.1-3.4-.1-5.1-.1-1-.3-2.1-1.2-2.7-1-.7-2.4-.2-3.2,.6s-1.1,2-1.4,3.2c-.3,1.1-.6,2.2-.7,3.4-.1,1.1,.2,2.4,.8,3.3,2.4,3.1,5.2,0,5.8-2.7h0Z"/></g></g></svg>