<?xml version="1.0" encoding="utf-8"?>
<!-- Generator: Adobe Illustrator 26.3.1, SVG Export Plug-In . SVG Version: 6.00 Build 0)  -->
<svg version="1.1" id="Layer_1" xmlns="http://www.w3.org/2000/svg" xmlns:xlink="http://www.w3.org/1999/xlink" x="0px" y="0px"
	 viewBox="0 0 428 402.5" style="enable-background:new 0 0 428 402.5;" xml:space="preserve">
<style type="text/css">
	.st0{fill:#CDD9ED;}
	.st1{fill:#FBB97F;}
	.st2{fill:#2C3A64;}
	.st3{fill:#FFB27D;}
	.st4{fill:#84A1CA;}
	.st5{fill:#AB1866;}
	.st6{fill:#EE89B6;}
	.st7{fill:#2F3169;}
	.st8{fill:#233862;}
	.st9{fill:#4B70AB;}
	.st10{fill:#FFFFFF;}
	.st11{fill:#FB7402;}
	.st12{fill:#F2F4F7;}
	.st13{fill:#3B5A87;}
</style>
<path class="st0" d="M45.4,401c0,0-62.1-126-28.9-224.4C117.1-120.8,427,33.1,398,195.6c-15.9,89.3,43.2,116.1,12.5,205.6L45.4,401
	L45.4,401z"/>
<g>
	<path class="st1" d="M199.7,219l4.5,1.5c0,0,7.2-2.4,13.5,6c0,0,2,3.1-0.5,5.5c-2.2,2.2-2.7-3-7-2c-4.3,1-7.2-0.6-9.1-3.2L198,225
		L199.7,219z"/>
	<g>
		<path class="st2" d="M292.5,76.6c0-0.8,0.6-9.3,13.6-9.8c0,0-6.4,0.8-7.5,3.6c0,0,4.3-3.5,7.9-2.4c3.5,1.1,5.6,7.3,5.7,9.4
			c0,2.1-2,8.6-4.2,9.2c-0.8,0.2-1.8,0.2-2.7,0c0.6,0.9,1.2,2,1.7,3.1c5.2,10.7-0.2,21.1-4.6,19.9c-2.8-0.7-3.6,4.1-3.6,4.1
			l-27.4-22.2C271.4,91.5,281.5,70.7,292.5,76.6L292.5,76.6z"/>
		<path class="st3" d="M225.3,198.6c0,0-5.4-1.1-6.7,0s-7.1,7-5.9,9c1.3,2,7.3-1.6,8.5-2c1.2-0.3,4.8-1.7,4.8-1.7
			S225.3,198.6,225.3,198.6z"/>
		<path class="st4" d="M282.9,390.2l5.8,2.2c0,0,25.2-35,28.3-65.8c0.6-5.5,0.4-10.8-0.8-15.8c0,0,0.2-1.4,0.7-3.9
			c0.2-1.2,0.4-2.6,0.7-4.2c0.8-4.7,2-11.1,3.2-18.5c3-16.9,6.8-38.4,9.8-54.2l-1.6-0.5l-16.9-5.5l-3.5-11.1l-12.6-3.3
			c0,0-2.8,5.5-5.3,31.6c-0.5,3.4-0.9,7.2-1.2,11.3c-1,12.5-1.1,27.9,1.2,45.6c0.6,4.5,1.3,9.2,2.2,14c0.7,3.5,0.8,8.3,0.5,13.8
			C292.2,351.1,282.9,390.3,282.9,390.2L282.9,390.2z"/>
		<path class="st4" d="M289.5,252.5l27.4,54.5c0.2-1.2,0.4-2.6,0.7-4.2c0.8-4.7,2-11.1,3.2-18.5c3-16.9,6.8-38.4,9.8-54.2l-1.6-0.5
			l-16.9-5.5l-3.5-11.1l-12.6-3.3c0,0-2.8,5.5-5.3,31.6C290.3,244.7,289.9,248.5,289.5,252.5L289.5,252.5z"/>
		<path class="st4" d="M301.6,216.7l0.6-5.4c10.6,2.8,39-7.9,39-7.9s10.3,9,8.9,30.7c-0.7,10.6-1.9,55.6-3.1,68.9
			c-0.5,4.8-0.9,8.3-1,9.6l0,0c-0.1,0.4,0.1,0.8,0.3,1.2c1.9,3.1,3.4,6.4,4.6,9.8c12.4,32.9-1.9,73.4-1.9,73.4l-3.7-1.5
			c0,0-8.1-45.1-14.7-65c-1.1-3.4-2.2-6-3.2-7.6c-2.9-4.6-5.5-12.2-7.9-21.2c-4.6-17-8.2-39.1-10.7-56.2
			C308.6,245.5,301.6,216.7,301.6,216.7L301.6,216.7z"/>
		<path class="st1" d="M225.3,198.6l0.8,5.3c0,0,0.3,0,1,0c1.9-0.1,6.6-0.4,12-1c8-0.8,17.5-2.2,21.3-4.5
			c5.8-3.5,15.2-14.3,21.4-25.1c0.2-0.3,0.3-0.5,0.4-0.8c3.2-5.7,5.5-11.4,5.6-15.9c0.1-2.8-0.2-5.2-0.7-7.2c-0.7-2.7-2-4.9-3.3-6.5
			c-0.2-0.3-0.3-0.5-0.6-0.7c-2.1-2.5-4.2-3.6-4.2-3.6c-1.1-0.4-2.2,0.1-3.4,1.4v0c-1,1-2,2.5-3,4.5c0,0-0.1,0.1-0.1,0.1
			c-0.2,0.4-0.4,0.8-0.7,1.3c-0.1,0.1-0.1,0.2-0.2,0.3c-0.5,1-1,2.1-1.5,3.2c-5.4,11.8-10,29.1-14.8,34.4
			c-2.1,2.3-12.6,7.3-20.2,10.7C229.7,196.8,225.3,198.6,225.3,198.6L225.3,198.6z"/>
		<path class="st5" d="M234.9,187.1c6.3-2.9,13.5-0.5,16.4,11.6c1.9,8,20.5,17,12.1,29.2c-8,9.6-27.3,3.3-25.7-8.9
			c1.6-12.2,5.7-22.4,1.2-24.4C233.5,192.2,234.9,187.1,234.9,187.1L234.9,187.1z"/>
		<path class="st6" d="M224,222.4c13.2-1.9,25.9-1.4,26.6,13.1c0.7,14.6,4.1,41.9,0,47.3c-4.1,5.4-25.8,4.6-25.8,4.6
			C210.4,262.8,224,222.4,224,222.4z"/>
		<path class="st1" d="M281.3,150.7c3.3,1.6,7.4,2.6,12.2,2.9c18.3,1,22.4-15,23.2-25.6c-2.6-1-4.9-0.9-6.3-0.8
			c-1.3,0.1-2.6,0.2-3.8,0.3c-2.2-1.2-6.2-6.8-8.6-16.3l-0.8,0.4l-13.2,6.2c0,0,1.4,4.3,2.4,8.4c0.8,3.2,1.4,6.3,0.9,7.2
			c-1,0.4-1.7,0.7-1.7,0.7l0,0C285.7,134.3,282.8,141.6,281.3,150.7L281.3,150.7z"/>
		<path class="st1" d="M284.1,117.7c0,0,1.4,4.3,2.4,8.4c7.7-2.1,10-10.3,10.7-14.6C297.3,111.5,284.1,117.7,284.1,117.7z"/>
		<path class="st1" d="M282.5,122.3c0,0,18.4-4.3,15.6-15.7c-2.8-11.4-2.4-19.7-14.3-17.5c-11.9,2.2-13.1,7.2-13.1,11.2
			C270.8,104.4,277.6,123.1,282.5,122.3L282.5,122.3z"/>
		<path class="st2" d="M269.8,93.8c2-4.1,4.3-3.9,5.8-3.2c8.7-8,17.1-1.5,17.1-1.5c3.3,7.9,10.3,11.1,10.3,11.1s-2.8,2.9-11,2.8
			c-2.5,0-5-1.2-7.3-2.8c4.4,4.4,9.6,7.2,9.6,7.2c-10.3-2-17.2-13.9-17.9-15.1c-0.9,1.3-2.5,4-2.7,6.3c-0.2,3.1,0.9,9.2-0.9,9.5
			C272.8,108.2,266.8,100,269.8,93.8z"/>
		<path class="st6" d="M270.1,149.4c0.7-2,5.1-9.7,5.1-9.7l0,0c0,0,2.8-2.6,10.6-5.7l0,0c-0.1,0.5-3.4,12.5-2.2,15.1
			c1.2,2.6,24.6-5.8,25.8-7.8c1-1.6,1.1-9.7,1-12.9c0-0.8,0-1.3,0-1.3s8.7-1.2,13.6,0.8c0,0-1.9,4.2-2.6,8.8
			c-0.1,0.4-0.1,0.9-0.2,1.3c-0.1,0.9-0.1,1.9-0.1,2.8c0.1,1.2,0.7,2.3,1.7,3.3c0.9,1,2.1,1.9,3.5,2.9c0.9,0.7,1.9,1.3,2.9,2.1l0,0
			c0.1,5.5-0.3,14.4,0.7,24c0.2,2.4,1.1,4.8,2.3,6.8c0.5,0.8,1.1,1.6,1.7,2.3c5.2,5.8,14.3,17.3,12.3,24.4
			c-0.2,6.8-57.1,15.6-55.9,8.2c0,0-8.6-41.3-13.2-51.2c-0.2-0.4-0.3-0.7-0.5-1.1c-1.5-3.9-1.2-8-0.7-11.6
			C273.4,149.2,270.1,149.3,270.1,149.4L270.1,149.4z"/>
		<path class="st6" d="M305.7,201.2c11.2-0.1,20.8-11.8,26.6-21.1c-1.3-2.1-2.1-4.4-2.3-6.8c-1-9.6-0.6-18.5-0.7-24l0,0
			c-1-0.7-2-1.4-2.9-2.1c-1.4-1-2.6-2-3.5-2.9C313.7,159.8,290.5,201.3,305.7,201.2z"/>
		<path class="st1" d="M263.2,207.3l1.5,5.6c0,0,1.9-0.3,5-0.9c0.9-0.2,1.5-0.3,1.5-0.3c2.5-0.5,5.4-1.1,8.6-1.8h0
			c5.5-1.3,11.6-2.9,16.8-4.7c3.6-1.3,6.8-2.6,9-4c0.2-0.1,0.4-0.3,0.6-0.4c5.2-3.7,11.3-14.7,16-26.5c0.7-1.6,1.3-3.3,1.9-4.8
			c2.2-5.9,4-11.7,5-16.7c0.7-3,1.1-5.7,1.2-8c0-0.8,0.1-1.5,0-2.2c-0.1-12.8-6.4-14.5-6.4-14.5c-0.1,0-0.3-0.1-0.4-0.1
			c-1.1-0.2-2.2,0.6-3.4,2c-1.5,1.8-3.1,4.8-4.7,8.3c-2.5,5.7-5.2,13-7.6,20.3c-1.4,4-2.7,8-4,11.7c-0.7,2.2-1.5,4.3-2.2,6.3
			c-1.4,3.7-2.6,6.7-3.7,8.6c-0.7,1.2-2.7,3-5.4,4.9c-4.7,3.4-11.5,7.5-17.4,10.8c-2.5,1.4-4.8,2.7-6.7,3.7
			C265.3,206.2,263.2,207.3,263.2,207.3L263.2,207.3z"/>
		<path class="st6" d="M315.5,138.1c8.5-2.3,15,4.3,15,4.3c-0.1-12.7-6.4-14.5-6.4-14.5C321.5,126.9,318.6,131.3,315.5,138.1
			L315.5,138.1z"/>
		<path class="st7" d="M327.6,400h29.3c0,0,0.7-4.5-0.8-7.8c-1.5-3.2-3.8-4.7-3.2-8.7c-1.9,1.9-4.9,4.1-9.1,3.5
			c-0.5,0.8-3.4,5.3-5.1,6.6C336.7,394.9,328.2,394.4,327.6,400L327.6,400z"/>
		<path class="st8" d="M264.7,400H294c0,0,1.1-4.7-0.8-7.8c-1.7-2.8-1.1-4.4,0.2-6.7c-1.3,0.5-3,1-4.9,0.9c-1.5-0.1-3-0.7-4.3-1.5
			c-1.3,1.4-6.6,7.5-8.3,8.8C273.9,394.9,265.3,394.4,264.7,400L264.7,400z"/>
	</g>
	<g>
		<path class="st1" d="M199.1,297.2c0,0,11.8,83.6,10.4,94l7.4-0.9c0,0,9.3-36.5,8.2-46.7s9.2-52.3-0.3-56
			C215.3,283.8,199.1,297.2,199.1,297.2L199.1,297.2z"/>
		<path class="st1" d="M209.9,297.3c0,0,16.8,83.7,16.1,94.1l7.4-1.7c0,0,7.2-37.6,5.4-47.8c-1.7-10.1,6-52.8-3.8-55.9
			C225.2,282.9,209.9,297.3,209.9,297.3L209.9,297.3z"/>
		<path class="st7" d="M209.7,389.7c0,0-1.8,3.2-5.1,4c-2.1,0.5-3.9,1.6-5.1,3.1c-1,1.3,0,3.2,1.6,3.1l17.1-0.1
			c1.5,0,2.6-1.3,2.4-2.7c-0.1-1.3-0.3-2.7-0.3-3.9c-0.1-2.5-2.8-4.7-2.8-4.7s-2.4,1.3-3.3,1.5C212.3,390.5,209.7,389.7,209.7,389.7
			L209.7,389.7z"/>
		<path class="st7" d="M225.8,389.7c0,0-1.8,3.2-5.1,4c-2.1,0.5-3.9,1.6-5.1,3.1c-1,1.3,0,3.2,1.6,3.1l17.1-0.1
			c1.5,0,2.6-1.3,2.4-2.7c-0.1-1.3-0.3-2.7-0.3-3.9c-0.1-2.5-2.8-4.7-2.8-4.7s-2.4,1.3-3.3,1.5C228.4,390.5,225.8,389.7,225.8,389.7
			L225.8,389.7z"/>
		<path class="st1" d="M206.4,224.7c0,0-11.2,18.9-13.5,34.2c0,0,5.4,7.3,7.7,2.2C202.8,256,218.7,228.4,206.4,224.7z"/>
		<path class="st5" d="M208.5,191.2c0.1-0.2,5.1-8.1,14.5-9.7c7.6-1.3,14.7,4.1,15.8,11.7c1.2,7.6,0,17.5-12.5,21.1
			C226.4,214.3,208.5,191.2,208.5,191.2z"/>
		<path class="st1" d="M210.8,225.3l14.1,8.4l3.7-9.9c0,0-1.8-3.6-2.3-9.4c-0.2-2.4-0.2-5.3,0.2-8.3l-12.3,5.3c0,0,0.2,1.1,0.3,2.7
			c0.1,1.8,0,4.1-0.6,6.3C213.5,222.3,212.5,224.1,210.8,225.3L210.8,225.3z"/>
		<path class="st9" d="M243.2,313.7c-1.3-15.1-3.3-34.9-4.5-43c-0.4-2.7-0.4-5.4-0.1-8.1l2.9-21.4l0.9-6.7c0.5-3.5-1.5-7-4.8-8.4
			c-3-1.3-5.2-1.6-9-2.3c-2.4,2.1-6.9,5.2-11.8,4.2c-3.6-0.7-4.4-2.5-4.2-4.6c-0.9,0.1-1.8,0-2.6,0.1c-3.1,0.4-5.7,2.1-7.4,4.5l0,0
			l-0.1,0.1c-0.3,0.4-0.5,0.8-0.7,1.2l-5.4,9.2c0,0,0.5,3.2,3.1,4.7c-2.6,29-5.7,94.5-3.2,95.3c15.9,5.4,44.2-2.1,48-5.8
			C244.7,332.5,244.2,324.3,243.2,313.7L243.2,313.7z"/>
		<path class="st6" d="M208.4,225.3c-8.3,6.6-11,23.3-9.9,34.6c2.1-5.2,1.9-12.8,3.9-20.9c2-7.9,7.4-14,7.4-14
			C209.6,225,208.4,225.3,208.4,225.3L208.4,225.3z"/>
		<path class="st1" d="M214,220.4c6.8,0.2,12.3-6.1,12.3-6.1l-11.7-0.3C214.7,215.8,214.7,218.2,214,220.4z"/>
		<path class="st1" d="M211,216.4c0,0,13.2,4.4,18.6-6c5.7-11.2,0.8-20-3.8-20.9c-9-1.7-14.6,1.4-16.4,5
			C207.6,198.1,203.7,214.1,211,216.4z"/>
		<path class="st10" d="M216.7,210.7c0,0-0.7,1.4-4.2,0.3c0,0-3-0.8-2.5-2.4C210.1,208.7,213.2,208.2,216.7,210.7L216.7,210.7z"/>
		<path class="st9" d="M243.2,313.7c-0.4-0.5-27.2-31.7-28.2-48.4c-1-16.8,13.5-29,13.5-29c5.7-0.4,10,1.5,13.1,4.9l-2.9,21.4
			c-0.4,2.7-0.3,5.4,0.1,8.1C240,278.8,241.9,298.6,243.2,313.7L243.2,313.7z"/>
		<path class="st6" d="M232.7,224.2c-12.8,3-16.2,24.1-10.3,40.3c4.4,12,17.8,17.7,17.8,17.7c1.5-1.6,0.3-5.3,0.3-5.3
			c-19.7-12.6-16.4-30.3-11.8-39.3s5.5-12.3,12.2-9.9C240,223.9,232.7,224.2,232.7,224.2L232.7,224.2z"/>
		<path class="st5" d="M220.3,190.8c0,0-1.3,12.4,10.5,16.8c4.7,1.7,7.1-17.2-2.7-21c-9.8-3.8-19.4,0.7-20.6,7.3
			c-1.1,6.6-0.3,8-0.3,8S211.9,189.3,220.3,190.8L220.3,190.8z"/>
		<path class="st1" d="M227.4,231.4c0,0-5.4,21.4-5.6,29.9c0,0-11.9,20.7-12.6,22.2c-0.7,1.5,4.3,3.5,4.3,3.5s14.9-15.9,17.7-22.5
			c2.9-6.7,13-28.4,9-34.8C236.2,223.1,227.4,231.4,227.4,231.4L227.4,231.4z"/>
		<path class="st1" d="M193,259c0,0-1.1,14.6,9.3,26c0,0,2.8-3.4,2.5-4.5c-0.4-1.1-4.4-17.3-7.4-19.6C194.4,258.7,192.9,259,193,259
			L193,259z"/>
		<path class="st1" d="M209.3,283.5c0,0-6.6-0.1-7,1.5c-0.4,1.6,1.7,6.4,6.6,4.7c4.8-1.7,4.7-2.8,4.7-2.8L209.3,283.5L209.3,283.5z"
			/>
		<path class="st1" d="M204.7,280.6c0,0,5.3,2.5,3.5,5.1c-1.8,2.6-5.4,1.1-6-0.6C201.7,283.3,204.7,280.5,204.7,280.6L204.7,280.6z"
			/>
		<path class="st9" d="M223.5,242.7c0,0,7,6.5,17.7,5.5c0,0,5.3-18.7-3.2-21C229.6,224.8,222.5,235.9,223.5,242.7L223.5,242.7z"/>
	</g>
	<g>
		<path class="st9" d="M140.8,119.7c0,0,16.1,25.1,11,70.9c-1.6,14.3,48.6,37,48.6,37s3.8-3,2.1-8.2c0,0-27.8-27.8-30.7-31.2
			c-2.5-3-9.3-35.3-12.2-46C154.5,123.7,140.8,119.7,140.8,119.7L140.8,119.7z"/>
		<g>
			<path class="st7" d="M67.2,374.4c0,0-5.5,5-4.4,8.6c1.1,3.6,6,5.9,6.7,10.3c0.7,4.3,3.4,6.7,5.8,6.7h11.5c0,0,1.8-3.1-2.5-4
				c-4.3-0.9-5.9-6-5.6-10.8c0.3-4.8-0.4-11.1-0.4-11.1L69,372L67.2,374.4L67.2,374.4z"/>
			<path class="st7" d="M134.6,387.4c0,0-1,11.4,1.4,12.6l30.9-0.1c0,0,0-3.6-5-4.3c-5-0.8-13.7-3.7-15.1-10.2
				C145.3,378.9,134.6,387.4,134.6,387.4z"/>
			<path class="st11" d="M160.6,226.2c0,0-1.6,20-3.5,44c-2.6,32.7-5.7,72.8-6,80.4c-0.5,13.2-2.7,34.3-2.7,34.3s-5.1,5-15.3,2.9
				c0,0-9.1-30.1-11.7-62c0-0.5-0.1-1.1-0.1-1.6c-2.4-32.5-6.2-100.8-6.2-100.8L160.6,226.2L160.6,226.2z"/>
			<path class="st11" d="M160.6,226.2c0,0-1.6,20-3.5,44l-35.7,55.6c0-0.5-0.1-1.1-0.1-1.6c-2.4-32.5-6.2-100.8-6.2-100.8
				S160.6,226.2,160.6,226.2z"/>
			<path class="st11" d="M153.2,228.6c0,0-29.3,72.4-48.6,106.5c-19.3,34-25.3,43.5-25.3,43.5s-11.1-4.3-12.1-7.3
				c0,0,7.4-65.7,20.3-81.7c7.3-9,15.9-36.2,16.3-45.7c0.4-9.5,2.6-28.3,2.6-28.3S153.2,228.6,153.2,228.6z"/>
		</g>
		<path class="st1" d="M114.6,116.9c0,0,19.9,9.6,31.3,6c0,0-2.8-3.6-7.7-6.2c0.4-2.3,0.7-4.3,0.9-6c0.5-3.9,0.5-6.1,0.5-6.1l-7.7-6
			l-7.3-5.8C125.2,109.1,114.6,116.9,114.6,116.9z"/>
		<path class="st9" d="M161.9,227.8c-0.3,0.3-0.7,0.5-1.2,0.5c-4.3-0.1-16.9,2.3-27.5,1.2c-9-0.9-16.9-3.5-25.4-7.2
			c-1.1-0.5-3.7-1.9-3.7-3.1c0-1.4,0.2-3.3,0.3-5.9c0.4-4.9,0.9-12,1-20.3c0.1-6.2,0.1-13.1-0.4-20.4c0-0.5-0.1-1-0.1-1.5
			c-0.1-2.7-0.2-5.4-0.2-8c0-8.5,0.6-16.6,1.8-23.8c2.2-12.6,6.2-22.5,12.1-26.9c0.8-0.6,5.8,1.8,10.3,4.1c4.2,2,8.4,2.3,12.3,1.5
			l4,3.5c4.8,4.4,10.1,10.4,12.4,19.5c1.9,7.7,3.1,21.7,3.7,36.2c0.3,6.6,0.5,13.2,0.6,19.5v0.2c0,0.7,0,1.3,0,2
			C162.4,214.8,162.2,227.6,161.9,227.8L161.9,227.8z"/>
		<path class="st1" d="M124.4,99.1c0,0,5,9.1,14.6,11.7c0.5-3.9,0.5-6.1,0.5-6.1l-7.7-6L124.4,99.1L124.4,99.1z"/>
		<path class="st1" d="M143,104.4c0,0-18.9,3.1-20.7-8.5s-5.4-19.1,6.6-21.6c12-2.5,15.1,1.6,16.6,5.4S147.9,103.3,143,104.4z"/>
		<path class="st12" d="M115.4,72.9c-0.2-0.2-0.6-0.4-1.5-0.4c0,0,0.7-0.4,1.6-0.5c0.2-1.2,0.8-3.4,3-3.9c0,0-1.1,0.6-1.3,1.9
			c2.5-2.5,7.7-4.3,22.2-3.2c19.1,1.5,12.8,13.8,10.3,15.2c-2.5,1.5-8.7-2.5-13.3-2.2c-4.6,0.4-5.5,7-7.1,8c-1.6,0.9-1-0.7-3.1-1.7
			c-2.1-1-2.3,2.5-1.7,4.8c0.6,2.3-2.3,5.3-2.3,5.3l-2.9-3.2c-2.9-3.2-5.7-16.6-4.4-19.4C115.2,73.4,115.3,73.2,115.4,72.9
			L115.4,72.9z"/>
		<path class="st1" d="M206.3,221.4c0,0,2.4-1.1,3.9,0.5c1.5,1.6,4.8,2.6,4.5,3.4c-0.6,1.7-3.7-0.2-7,0.8
			C206.5,226.5,203,224.3,206.3,221.4z"/>
		<path class="st9" d="M105.5,193c0.1-6.2,0.1-13.1-0.4-20.4c0-0.5-0.1-1-0.1-1.5c1.8-8.9,4.5-16.8,8.5-17.1
			C113.5,154.1,125.5,172.9,105.5,193L105.5,193z"/>
		<path class="st1" d="M89.7,225.4c0,0,1,9.7,2.1,11.5c1.1,1.8,5.7,7.7,7.7,8.8c2,1.1-1.2-7.7-0.8-9.4s1.6,3.1,2.5,3.3
			c0.9,0.1,0.7-4.3,0.7-5.9c0-1.6-4.3-5.5-5.7-8.9C94.6,221.4,89.7,225.4,89.7,225.4z"/>
		<path class="st9" d="M118.8,112.4c0,0-12,5.7-17.7,14.4c-8.9,13.5-19.2,62.8-19.4,67.4c-0.2,4.6,7.5,36.8,7.5,36.8
			s7.8-0.5,9.9-4.5c0,0-1.6-33.1-0.6-35.3c1-2.1,32.7-44.4,29.1-53.5S118.8,112.4,118.8,112.4L118.8,112.4z"/>
	</g>
	<path class="st1" d="M245,212.7c2.8,1.2,6.8,5.3,13.1,2.8c4.5-1.8,9.3-3,11.6-3.6c0.9-0.2,1.5-0.3,1.5-0.3l-2.5-7.3
		c0,0-0.1,0-0.3,0.1c-1.6,0.3-9.9,2.1-13.8,1.2c-4.3-1-11.6,4.2-11.6,4.2S242.2,211.6,245,212.7L245,212.7z"/>
</g>
<path class="st13" d="M0.8,399.7h426.4c0.5,0,0.8,0.4,0.8,0.8v0.7c0,0.5-0.4,0.8-0.8,0.8H0.8c-0.5,0-0.8-0.4-0.8-0.8v-0.7
	C0,400.1,0.4,399.7,0.8,399.7z"/>
<g>
	<path class="st4" d="M227.2,52.5h-38.6c-5.1,0-9.2,4.2-9.2,9.2v14.6c0,2.3,0.9,4.4,2.3,6.1l-2.3,10.5l13.2-7.3h34.6
		c5.1,0,9.2-4.2,9.2-9.2V61.7C236.4,56.6,232.3,52.5,227.2,52.5L227.2,52.5z"/>
	<path class="st0" d="M227.9,63.6h-40c-0.8,0-1.5-0.7-1.5-1.5l0,0c0-0.8,0.7-1.5,1.5-1.5h40c0.8,0,1.5,0.7,1.5,1.5l0,0
		C229.4,62.9,228.8,63.6,227.9,63.6z"/>
	<path class="st0" d="M227.9,70.2h-40c-0.8,0-1.5-0.7-1.5-1.5l0,0c0-0.8,0.7-1.5,1.5-1.5h40c0.8,0,1.5,0.7,1.5,1.5l0,0
		C229.4,69.5,228.8,70.2,227.9,70.2z"/>
	<path class="st0" d="M227.9,76.5h-40c-0.8,0-1.5-0.7-1.5-1.5l0,0c0-0.8,0.7-1.5,1.5-1.5h40c0.8,0,1.5,0.7,1.5,1.5l0,0
		C229.4,75.8,228.8,76.5,227.9,76.5z"/>
</g>
</svg>
