<?xml version="1.0" encoding="UTF-8"?>
<svg id="Calque_1" data-name="Calque 1" xmlns="http://www.w3.org/2000/svg" viewBox="0 0 472.32 452.14">
  <defs>
    <style>
      .cls-1 {
        fill: #f7edf4;
      }

      .cls-2 {
        fill: #f2e2ed;
      }

      .cls-3 {
        fill: #fff;
      }

      .cls-4 {
        fill: #ffbf9d;
      }

      .cls-5 {
        fill: #fafafa;
      }

      .cls-6 {
        fill: #ff9a6c;
      }

      .cls-7 {
        fill: #eff2f9;
      }

      .cls-8 {
        fill: #333467;
      }

      .cls-9 {
        fill: #8e7584;
      }

      .cls-10 {
        fill: #a7336e;
      }

      .cls-11 {
        fill: #a85227;
      }

      .cls-12 {
        fill: #df731c;
      }

      .cls-13 {
        fill: #dbc6d3;
      }

      .cls-14 {
        fill: #d55e1a;
      }

      .cls-15 {
        fill: #586fa9;
      }

      .cls-16 {
        fill: #263238;
      }

      .cls-17 {
        opacity: .3;
      }
    </style>
  </defs>
  <g id="Background_Simple" data-name="Background Simple">
    <path class="cls-7" d="M452.3,66.14l-2.9-4.7C425.5,21.34,382.2-2.66,336.7,.24c-5.9,.4-11.7,1.2-17.4,2.5-41.5,9-77.6,40.9-92.5,81.7-8.8,24.1-11.3,51.6-27.9,70.7-21.8,24.8-58.6,25.6-91,24.5-32.4-1-69.3-.1-90.9,24.8C3.5,220.04-.8,242.24,.3,263.04c2.9,55.3,40.8,104.7,89,129.3,48.2,24.6,104.9,26.8,157.7,15.9,73.9-15.1,144.1-56.7,186.4-120.9,41.9-64.5,52.7-151.9,18.9-221.2Z"/>
  </g>
  <g id="Background_Complete" data-name="Background Complete">
    <g>
      <g>
        <path class="cls-2" d="M73.9,36.34s30-39.7,62.6,.8c0,0-30.3,33.5-62.6-.8Z"/>
        <path class="cls-13" d="M124.7,27.04c-1.8-4-6.1-5.5-9.9-6.7l-14,.5c-2.1,.5-4,2.3-5,4.5-1.1,2.2-1.4,4.7-1.4,7.2,.1,5.1,2,10.2,5.4,13.7,3.4,3.4,8.2,5,12.6,4.1,6.3-1.4,11.1-7.8,12.6-14.9,.7-2.8,.8-5.9-.3-8.4Z"/>
        <path class="cls-9" d="M136.5,37.14c-.2,.1-.8-.7-2-2.2-1.2-1.4-3-3.5-5.5-5.6-2.5-2.2-5.8-4.3-9.8-5.8s-8.8-2.4-13.8-2.5-9.7,1-13.7,2.5c-4.1,1.5-7.4,3.6-10.1,5.6-5.3,4-7.8,7.4-8.2,7.1-.2-.1,1.8-4,7-8.6,2.6-2.2,6.1-4.6,10.4-6.4,4.2-1.8,9.3-3,14.7-2.9,5.3,.1,10.4,1.1,14.7,2.9,4.3,1.8,7.7,4.3,10.2,6.7,2.5,2.5,4.1,4.8,5,6.4,.9,1.7,1.3,2.7,1.1,2.8Z"/>
        <path class="cls-9" d="M116.7,34.64c0,4.5-2.9,8.2-6.4,8.2s-6.4-3.7-6.4-8.2,2.9-8.2,6.4-8.2c3.6-.1,6.4,3.6,6.4,8.2Z"/>
      </g>
      <path class="cls-3" d="M90.2,33.24c2.7,.3,5.5,.2,8.2-.4,1.3-.3,2.8-.9,3-2.3,.1-.9-.4-1.7-1.1-2.2s-1.6-.7-2.5-.8c-2.6-.4-5.2-.3-7.8,.3-1.1,.3-2.3,.7-2.6,1.8-.3,.8,0,1.7,.6,2.2,.6,.6,1.3,.9,2.1,1.2"/>
    </g>
    <g>
      <g>
        <path class="cls-2" d="M392.5,317.14s23.6-31.3,49.3,.6c0,0-23.9,26.4-49.3-.6Z"/>
        <path class="cls-13" d="M432.5,309.74c-1.4-3.2-4.8-4.4-7.8-5.2l-11,.4c-1.7,.4-3.1,1.8-4,3.5s-1.1,3.7-1.1,5.7c.1,4,1.6,8.1,4.3,10.8s6.4,4,9.9,3.2c5-1.1,8.7-6.2,10-11.7,.5-2.2,.6-4.7-.3-6.7Z"/>
        <path class="cls-9" d="M441.8,317.74c-.4,.3-2.1-2.6-6-6-2-1.7-4.5-3.3-7.7-4.5-3.1-1.2-6.9-1.9-10.8-1.9-3.9-.1-7.6,.7-10.7,1.9-3.2,1.2-5.8,2.8-7.9,4.3-4.2,3.1-6.2,5.7-6.6,5.5-.2-.1,1.3-3.3,5.4-6.9,2.1-1.8,4.8-3.7,8.2-5.1,3.4-1.4,7.4-2.4,11.6-2.3s8.2,.9,11.6,2.3,6.1,3.4,8.1,5.4c1.9,2,3.2,3.8,3.9,5.1,.8,1.3,1.1,2.1,.9,2.2Z"/>
        <path class="cls-9" d="M426.2,315.74c0,3.6-2.2,6.5-5,6.5s-5-2.9-5-6.5,2.2-6.5,5-6.5,5,2.9,5,6.5Z"/>
      </g>
      <path class="cls-3" d="M405.4,314.64c2.1,.3,4.3,.2,6.4-.3,1-.2,2.2-.7,2.4-1.8,.1-.7-.3-1.4-.9-1.8s-1.3-.6-1.9-.7c-2-.3-4.1-.2-6.1,.2-.9,.2-1.8,.6-2.1,1.4-.2,.6,0,1.3,.5,1.8,.4,.5,1,.7,1.7,.9"/>
    </g>
    <g>
      <g>
        <path class="cls-2" d="M189.6,378.54s29.4-38.9,61.3,.8c-.1,0-29.8,32.8-61.3-.8Z"/>
        <path class="cls-13" d="M239.3,369.44c-1.8-3.9-5.9-5.4-9.7-6.5l-13.7,.5c-2.1,.5-3.9,2.3-4.9,4.4s-1.4,4.6-1.4,7.1c.1,5,2,10,5.3,13.4s8,4.9,12.3,4c6.2-1.4,10.9-7.7,12.4-14.6,.6-2.8,.8-5.8-.3-8.3Z"/>
        <path class="cls-9" d="M250.8,379.34c-.2,.1-.8-.7-2-2.1s-2.9-3.4-5.3-5.5-5.7-4.2-9.6-5.7c-3.9-1.5-8.6-2.4-13.5-2.4-4.9-.1-9.5,.9-13.5,2.5-4,1.5-7.3,3.5-9.9,5.4-5.2,3.9-7.7,7.2-8,7-.2-.1,1.7-3.9,6.9-8.4,2.6-2.2,6-4.5,10.1-6.2,4.2-1.7,9.1-2.9,14.4-2.8,5.2,.1,10.1,1.1,14.4,2.8,4.2,1.7,7.6,4.2,10,6.6s4,4.7,4.9,6.3c.9,1.4,1.3,2.4,1.1,2.5Z"/>
        <ellipse class="cls-9" cx="225.2" cy="376.84" rx="6.2" ry="8.1"/>
      </g>
      <path class="cls-3" d="M205.5,375.44c2.7,.3,5.4,.2,8-.4,1.3-.3,2.7-.9,2.9-2.2,.1-.8-.4-1.7-1.1-2.2-.7-.5-1.6-.7-2.4-.8-2.5-.4-5.1-.3-7.6,.3-1.1,.3-2.2,.7-2.6,1.8-.3,.8,0,1.6,.6,2.2,.5,.6,1.3,.9,2.1,1.2"/>
    </g>
    <g>
      <path class="cls-12" d="M362.1,59.74h-7.3s0,6.1-6.4,6.2c-3.3,.1-5-2.1-5.7-3.8-.8-1.9-.6-4.1,.5-5.9,1.2-2,4-3.9,8.9-3v-16.4h-7.2v9.6s-10.1,2.6-10.1,13.8,9.6,13.2,13.7,13.2c3.1,0,13.8-.8,13.6-13.7Z"/>
      <rect class="cls-12" x="344.9" y="26.64" width="7.3" height="6.8"/>
    </g>
    <g>
      <path class="cls-12" d="M95.1,293.34l7-2.1s-1.8-5.9,4.3-7.8c3.2-1,5.4,.6,6.6,1.9,1.3,1.6,1.7,3.8,1.2,5.8-.6,2.3-2.6,4.9-7.6,5.5l4.8,15.8,6.9-2.1-2.8-9.2s8.9-5.5,5.7-16.1c-3.1-10.2-13-9.8-16.9-8.6-3.1,.7-13.1,4.6-9.2,16.9Z"/>
      <rect class="cls-12" x="113.09" y="314.33" width="7.3" height="6.8" transform="translate(-87.35 47.68) rotate(-16.91)"/>
    </g>
    <g>
      <g>
        <g>
          <path class="cls-2" d="M73,171.74s-25.5-33.8-53.2,.7c0,0,25.7,28.6,53.2-.7Z"/>
          <path class="cls-13" d="M29.8,163.84c1.5-3.4,5.2-4.7,8.4-5.7l11.9,.5c1.8,.5,3.4,2,4.3,3.8,.9,1.9,1.2,4,1.2,6.1-.1,4.4-1.7,8.7-4.6,11.6s-6.9,4.3-10.7,3.4c-5.3-1.2-9.4-6.7-10.7-12.7-.6-2.2-.8-4.8,.2-7Z"/>
          <path class="cls-9" d="M17.9,174.64c-.2-.1,1.2-3.7,5.4-8.2,2.1-2.2,5-4.6,8.7-6.4,3.6-1.9,8-3.3,12.8-3.6,4.8-.2,9.3,.6,13.1,2.2,3.8,1.5,6.9,3.5,9.3,5.5,2.3,2,4,3.9,4.9,5.3,1,1.4,1.4,2.3,1.2,2.4-.3,.3-2.6-2.7-7.3-6.2-2.4-1.7-5.4-3.5-9-4.7-3.6-1.3-7.8-2-12.1-1.8-4.4,.3-8.4,1.5-11.9,3.1s-6.3,3.7-8.5,5.6c-4.3,3.8-6.2,7-6.6,6.8Z"/>
          <path class="cls-9" d="M36.6,170.34c0,3.9,2.4,7,5.4,7s5.4-3.1,5.4-7-2.4-7-5.4-7-5.4,3.1-5.4,7Z"/>
        </g>
        <path class="cls-3" d="M59.1,169.14c-2.3,.3-4.7,.2-6.9-.3-1.1-.3-2.4-.8-2.6-1.9-.1-.7,.3-1.5,.9-1.9s1.4-.6,2.1-.7c2.2-.3,4.4-.2,6.6,.3,.9,.2,1.9,.6,2.3,1.5,.2,.7,0,1.4-.5,1.9s-1.1,.8-1.9,1.1"/>
      </g>
      <path class="cls-9" d="M69.6,175.34s-.1,.1-.4,.3-.7,.5-1.1,.9c-1,.8-2.4,1.9-4.3,3.1-1.9,1.3-4.2,2.7-6.9,3.8-2.8,1.1-6,1.9-9.4,2.1-3.4,.2-6.7-.3-9.6-1.1-2.9-.8-5.3-2-7.2-3.2s-3.3-2.3-4.3-3.2c-.5-.4-.8-.8-1-1s-.3-.4-.3-.4c0,0,.5,.4,1.5,1.2s2.4,1.9,4.3,3c1.9,1.1,4.3,2.2,7.2,3,2.8,.8,6.1,1.2,9.4,1,3.4-.2,6.6-.9,9.3-2,2.7-1.1,5-2.4,6.9-3.6,1.9-1.2,3.3-2.3,4.4-3,.5-.3,.9-.6,1.2-.8,.2,0,.3-.1,.3-.1Z"/>
    </g>
    <g>
      <g>
        <g>
          <path class="cls-2" d="M73,241.74s-16-21.1-33.2,.4c0,.1,16.1,17.9,33.2-.4Z"/>
          <path class="cls-13" d="M46,236.84c1-2.1,3.2-2.9,5.3-3.5l7.4,.3c1.1,.3,2.1,1.2,2.7,2.4,.6,1.2,.8,2.5,.7,3.8-.1,2.7-1.1,5.4-2.9,7.3-1.8,1.8-4.3,2.7-6.7,2.2-3.3-.8-5.9-4.2-6.7-7.9-.3-1.6-.4-3.2,.2-4.6Z"/>
          <path class="cls-9" d="M38.6,243.54c-.2-.1,.7-2.3,3.4-5.1,1.3-1.4,3.1-2.8,5.4-4s5-2.1,8-2.2c3-.2,5.8,.4,8.2,1.3,2.4,.9,4.3,2.2,5.8,3.4,1.5,1.2,2.5,2.4,3.1,3.3s.9,1.4,.8,1.5c-.2,.2-1.6-1.7-4.6-3.9-1.5-1.1-3.4-2.2-5.6-2.9-2.2-.8-4.9-1.3-7.6-1.1-2.7,.2-5.3,.9-7.4,2-2.2,1-3.9,2.3-5.3,3.5-2.7,2.3-3.9,4.3-4.2,4.2Z"/>
          <path class="cls-9" d="M50.3,240.84c0,2.4,1.5,4.4,3.4,4.4s3.4-2,3.4-4.4-1.5-4.4-3.4-4.4-3.4,2-3.4,4.4Z"/>
        </g>
        <path class="cls-3" d="M64.3,240.14c-1.4,.2-2.9,.1-4.3-.2-.7-.2-1.5-.5-1.6-1.2-.1-.5,.2-.9,.6-1.2,.4-.3,.8-.4,1.3-.4,1.4-.2,2.8-.2,4.1,.2,.6,.1,1.2,.4,1.4,1,.1,.4,0,.9-.3,1.2-.3,.2-.7,.3-1.2,.6"/>
      </g>
      <path class="cls-9" d="M70.9,243.94l-.2,.2c-.2,.2-.4,.3-.7,.6-.6,.5-1.5,1.2-2.7,2s-2.6,1.7-4.3,2.4c-1.7,.7-3.7,1.2-5.9,1.3-2.1,.1-4.2-.2-6-.7s-3.3-1.2-4.5-2c-1.2-.7-2.1-1.5-2.7-2-.3-.3-.5-.5-.6-.6s-.2-.2-.2-.2c0,0,.3,.3,.9,.8,.6,.5,1.5,1.2,2.7,1.9,1.2,.7,2.7,1.4,4.5,1.9s3.8,.8,5.9,.6c2.1-.1,4.1-.6,5.8-1.2,1.7-.7,3.1-1.5,4.3-2.3,1.2-.8,2.1-1.4,2.7-1.9,.3-.2,.5-.4,.7-.5,.2-.2,.3-.3,.3-.3Z"/>
    </g>
    <g>
      <g>
        <g>
          <path class="cls-2" d="M426.2,94.64s-16-21.1-33.2,.4c0,.1,16.1,17.9,33.2-.4Z"/>
          <path class="cls-13" d="M399.3,89.74c1-2.1,3.2-2.9,5.3-3.5l7.4,.3c1.1,.3,2.1,1.2,2.7,2.4,.6,1.2,.8,2.5,.7,3.8-.1,2.7-1.1,5.4-2.9,7.3-1.8,1.8-4.3,2.7-6.7,2.2-3.3-.8-5.9-4.2-6.7-7.9-.3-1.6-.4-3.3,.2-4.6Z"/>
          <path class="cls-9" d="M391.9,96.44c-.2-.1,.7-2.3,3.4-5.1,1.3-1.4,3.1-2.8,5.4-4s5-2.1,8-2.2c3-.2,5.8,.4,8.2,1.3,2.4,.9,4.3,2.2,5.8,3.4,1.5,1.2,2.5,2.4,3.1,3.3s.9,1.4,.8,1.5c-.2,.2-1.6-1.7-4.6-3.9-1.5-1.1-3.4-2.2-5.6-2.9-2.2-.8-4.9-1.3-7.6-1.1-2.7,.2-5.3,.9-7.4,2-2.2,1-3.9,2.3-5.3,3.5-2.8,2.3-4,4.3-4.2,4.2Z"/>
          <path class="cls-9" d="M403.5,93.74c0,2.4,1.5,4.4,3.4,4.4s3.4-2,3.4-4.4-1.5-4.4-3.4-4.4-3.4,2-3.4,4.4Z"/>
        </g>
        <path class="cls-3" d="M417.6,93.04c-1.4,.2-2.9,.1-4.3-.2-.7-.2-1.5-.5-1.6-1.2-.1-.5,.2-.9,.6-1.2,.4-.3,.8-.4,1.3-.4,1.4-.2,2.8-.2,4.1,.2,.6,.1,1.2,.4,1.4,1,.1,.4,0,.9-.3,1.2-.4,.1-.8,.3-1.2,.6"/>
      </g>
      <path class="cls-9" d="M424.2,96.84l-.2,.2c-.2,.2-.4,.3-.7,.6-.6,.5-1.5,1.2-2.7,2s-2.6,1.7-4.3,2.4c-1.7,.7-3.7,1.2-5.9,1.3-2.1,.1-4.2-.2-6-.7s-3.3-1.2-4.5-2c-1.2-.7-2.1-1.5-2.7-2-.3-.3-.5-.5-.6-.6l-.2-.2s.3,.3,.9,.8,1.5,1.2,2.7,1.9c1.2,.7,2.7,1.4,4.5,1.9s3.8,.8,5.9,.6c2.1-.1,4.1-.6,5.8-1.2,1.7-.7,3.1-1.5,4.3-2.3,1.2-.8,2.1-1.4,2.7-1.9,.3-.2,.5-.4,.7-.5,.2-.2,.3-.3,.3-.3Z"/>
    </g>
    <g>
      <g>
        <g>
          <path class="cls-2" d="M97.6,102.44s-16-21.1-33.2,.4c-.1,0,16.1,17.9,33.2-.4Z"/>
          <path class="cls-13" d="M70.6,97.54c1-2.1,3.2-2.9,5.3-3.5l7.4,.3c1.1,.3,2.1,1.2,2.7,2.4,.6,1.2,.8,2.5,.7,3.8-.1,2.7-1.1,5.4-2.9,7.3-1.8,1.8-4.3,2.7-6.7,2.2-3.3-.8-5.9-4.2-6.7-7.9-.3-1.6-.4-3.3,.2-4.6Z"/>
          <path class="cls-9" d="M63.2,104.24c-.2-.1,.7-2.3,3.4-5.1,1.3-1.4,3.1-2.8,5.4-4s5-2.1,8-2.2c3-.2,5.8,.4,8.2,1.3,2.4,.9,4.3,2.2,5.8,3.4,1.5,1.2,2.5,2.4,3.1,3.3s.9,1.4,.8,1.5c-.2,.2-1.6-1.7-4.6-3.9-1.5-1.1-3.4-2.2-5.6-2.9-2.2-.8-4.9-1.3-7.6-1.1-2.7,.2-5.3,.9-7.4,2-2.2,1-3.9,2.3-5.3,3.5-2.7,2.3-4,4.3-4.2,4.2Z"/>
          <path class="cls-9" d="M74.9,101.54c0,2.4,1.5,4.4,3.4,4.4s3.4-2,3.4-4.4-1.5-4.4-3.4-4.4c-1.9,0-3.4,2-3.4,4.4Z"/>
        </g>
        <path class="cls-3" d="M88.9,100.84c-1.4,.2-2.9,.1-4.3-.2-.7-.2-1.5-.5-1.6-1.2-.1-.5,.2-.9,.6-1.2,.4-.3,.8-.4,1.3-.4,1.4-.2,2.8-.2,4.1,.2,.6,.1,1.2,.4,1.4,1,.1,.4,0,.9-.3,1.2-.3,.1-.7,.3-1.2,.6"/>
      </g>
      <path class="cls-9" d="M95.5,104.64s-.1,.1-.2,.2c-.2,.2-.4,.3-.7,.6-.6,.5-1.5,1.2-2.7,2s-2.6,1.7-4.3,2.4c-1.7,.7-3.7,1.2-5.9,1.3-2.1,.1-4.2-.2-6-.7s-3.3-1.2-4.5-2c-1.2-.7-2.1-1.5-2.7-2-.3-.3-.5-.5-.6-.6s-.2-.2-.2-.2c0,0,.3,.3,.9,.8s1.5,1.2,2.7,1.9,2.7,1.4,4.5,1.9,3.8,.8,5.9,.6c2.1-.1,4.1-.6,5.8-1.2,1.7-.7,3.1-1.5,4.3-2.3,1.2-.8,2.1-1.4,2.7-1.9,.3-.2,.5-.4,.7-.5,.2-.2,.3-.3,.3-.3Z"/>
    </g>
    <g>
      <path class="cls-12" d="M432.3,248.34h-7.3s0,6.1-6.4,6.2c-3.3,.1-5-2.1-5.7-3.8-.8-1.9-.6-4.1,.5-5.9,1.2-2,4-3.9,8.9-3v-16.5h-7.2v9.6s-10.1,2.6-10.1,13.8,9.6,13.2,13.7,13.2c3.1,.1,13.7-.7,13.6-13.6Z"/>
      <rect class="cls-12" x="415" y="215.24" width="7.3" height="6.8"/>
    </g>
    <g>
      <path class="cls-12" d="M118,142.14h-4.3s0,3.6-3.7,3.7c-1.9,0-2.9-1.2-3.4-2.2-.5-1.1-.3-2.4,.3-3.5,.7-1.2,2.3-2.3,5.2-1.8v-9.6h-4.2v5.6s-5.9,1.5-5.9,8.1,5.6,7.7,8,7.7c1.8-.1,8.1-.5,8-8Z"/>
      <rect class="cls-12" x="107.9" y="122.74" width="4.3" height="4"/>
    </g>
  </g>
  <g id="Floor">
    <path class="cls-16" d="M465.1,423.64c0,.1-104.1,.3-232.5,.3s-232.6-.1-232.6-.3c0-.1,104.1-.3,232.6-.3,128.3,.1,232.5,.2,232.5,.3Z"/>
  </g>
  <g id="Plant">
    <g>
      <path class="cls-15" d="M412.5,357.14c3.1,1.3,5.3,4.2,6.5,7.3,1.1,3.2,1.2,6.6,.9,9.9-.7,6.4-4.4,12.9-8.3,18.1-5.4-4.7-6.7-13-7-17.2-.7-6.7,2.3-19.1,7.9-18.1"/>
      <path class="cls-15" d="M417.8,403.14c-.9-3.6,.6-7.6,3.4-10.1s6.7-3.5,10.4-3.3c1.7,.1,3.6,.6,4.6,2.1,.9,1.3,.8,3.2,.1,4.6-.7,1.4-2,2.5-3.4,3.4-4.7,2.9-9.7,4.8-15.1,3.3"/>
      <path class="cls-16" d="M410.9,422.84s0-.5,.2-1.3c.2-.9,.4-2.1,.7-3.6,.6-3,1.4-7.3,3.7-11.4,2.3-4.1,5.5-7.2,8.2-8.7,1.3-.8,2.5-1.2,3.3-1.5,.4-.1,.7-.2,1-.2,.2,0,.3-.1,.3,0s-1.9,.5-4.5,2.1-5.7,4.6-8,8.7-3.1,8.3-3.8,11.3c-.3,1.5-.6,2.7-.8,3.5-.1,.6-.3,1.1-.3,1.1Z"/>
      <path class="cls-16" d="M411.1,366.84s0,.2,.1,.6c0,.4,.1,1,.1,1.7,.1,1.4,.2,3.5,.2,6.1,.2,5.2,.3,12.3,.3,20.2s-.2,15-.4,20.2c-.1,2.6-.2,4.7-.3,6.1,0,.7-.1,1.2-.1,1.7,0,.4-.1,.6-.1,.6v-2.3c0-1.5,.1-3.6,.1-6.1,.1-5.2,.3-12.3,.3-20.2s0-15-.1-20.2c0-2.5-.1-4.6-.1-6.1v-2.3Z"/>
      <path class="cls-15" d="M408.5,407.04c-1.2-7.8-6.5-14.8-13.6-18.2-1.8-.9-4.2-1.4-5.7-.1-1.5,1.4-1.2,3.8-.4,5.6,3,7.8,11.2,13.3,19.6,13.2"/>
      <path class="cls-16" d="M395.7,394.84s.4,.2,1.2,.5c.4,.2,.8,.4,1.3,.7,.5,.3,1.1,.6,1.7,1s1.3,.9,1.9,1.4c.7,.5,1.3,1.2,2,1.8,1.3,1.4,2.7,3,3.8,4.9,1.1,1.9,2,3.9,2.5,5.7,.3,.9,.5,1.8,.6,2.6,.2,.8,.3,1.6,.3,2.3,.1,.7,.1,1.4,.1,2v1.5c-.1,.8-.1,1.3-.1,1.2-.1,0,.1-1.8-.2-4.6-.1-.7-.2-1.5-.4-2.3-.1-.8-.4-1.7-.7-2.6-.6-1.8-1.4-3.7-2.5-5.6s-2.4-3.5-3.7-4.9c-.7-.7-1.3-1.3-2-1.8-.6-.6-1.3-1-1.8-1.5-2.4-1.4-4-2.2-4-2.3Z"/>
    </g>
  </g>
  <g id="Eyes">
    <g>
      <g>
        <g>
          <path class="cls-1" d="M314,31.94s-30.6-40.5-63.8,.8c0,.1,30.9,34.2,63.8-.8Z"/>
          <path class="cls-15" d="M296.7,44.54c-.9,1.1-5.2,2.1-10.5,3-4,.2-7.8,.4-10.6-.2-2.2-.5-7.1-1.7-7.9-3-1.1-1.8-1.5-4.1-1.4-6.2,.1-4.4,2.1-8.8,5.5-11.7s8.3-4.3,12.9-3.5c6.4,1.2,11.3,6.7,12.9,12.8,.5,2.4,.7,6.9-.9,8.8Z"/>
          <path class="cls-16" d="M248,35.34c-.1-.1,.3-1.1,1.3-2.9,1-1.7,2.8-4.2,5.3-6.8,2.6-2.6,6-5.4,10.4-7.6,4.3-2.3,9.6-3.9,15.3-4.3,5.7-.3,11.1,.8,15.6,2.5,2.3,.8,4.3,2,6.2,3,1.8,1.1,3.5,2.3,4.9,3.5,2.8,2.4,4.8,4.6,6,6.2,1.2,1.7,1.7,2.7,1.6,2.8-.4,.3-3-3.4-8.7-7.6-1.4-1.1-3-2.1-4.8-3.1-1.8-.9-3.8-1.9-6-2.7-4.3-1.6-9.4-2.5-14.7-2.2-5.3,.3-10.2,1.8-14.3,3.8-4.2,2-7.5,4.5-10.2,6.8-5.3,5-7.5,8.9-7.9,8.6Z"/>
          <path class="cls-16" d="M288.6,40.34c0-3.9-2.9-7.1-6.5-7.1s-6.5,3.2-6.5,7.1,2.9,7.1,6.5,7.1c3.6-.1,6.5-3.2,6.5-7.1Z"/>
        </g>
        <path class="cls-3" d="M271.4,38.24c-2.8,.4-5.6,.2-8.3-.4-1.3-.3-2.8-1-3.1-2.3-.1-.9,.4-1.8,1.1-2.3s1.6-.7,2.5-.9c2.6-.4,5.3-.3,7.9,.3,1.1,.3,2.3,.7,2.7,1.8,.3,.8,0,1.7-.6,2.3s-1.4,1-2.1,1.2"/>
      </g>
      <path class="cls-16" d="M304.1,40.84s-.1,.1-.4,.3c-.2,.2-.6,.4-1.1,.7-1,.6-2.4,1.3-4.2,2.2-3.6,1.7-9,3.6-15.2,3.6s-11.6-1.3-15.4-2.8c-1.9-.7-3.3-1.4-4.3-1.9-.5-.3-.9-.5-1.1-.6-.3-.2-.4-.2-.4-.3,0,0,.6,.2,1.6,.7s2.5,1.1,4.4,1.8c3.7,1.3,9.2,2.6,15.2,2.6s11.4-1.8,15-3.4c1.8-.8,3.3-1.5,4.3-2,1-.7,1.5-.9,1.6-.9Z"/>
    </g>
    <g>
      <g>
        <g>
          <path class="cls-1" d="M94.8,202.14s29.6-39.2,61.7,.8c0,0-29.9,33.1-61.7-.8Z"/>
          <path class="cls-15" d="M144.8,193.04c-1.8-4-6-5.5-9.8-6.6l-13.8,.5c-2.1,.5-3.9,2.3-5,4.4-1.1,2.1-1.4,4.7-1.4,7.1,.1,5.1,2,10.1,5.3,13.5s8.1,5,12.4,4c6.2-1.4,10.9-7.7,12.5-14.7,.8-2.7,.9-5.7-.2-8.2Z"/>
          <path class="cls-16" d="M158.6,205.44c-.4,.3-2.6-3.5-7.7-8.1-2.5-2.3-5.8-4.7-9.8-6.6-4-2-8.8-3.4-13.8-3.7-5.1-.3-10,.6-14.2,2.1s-7.7,3.5-10.4,5.5c-5.5,4-8,7.6-8.4,7.3-.1-.1,.4-1.1,1.5-2.7,1.2-1.6,3-3.8,5.8-6.1,2.7-2.3,6.3-4.6,10.7-6.3s9.6-2.8,15.1-2.5,10.6,1.9,14.8,4.1c4.2,2.2,7.5,4.9,10,7.4s4.1,4.9,5.2,6.6c.9,1.9,1.3,2.9,1.2,3Z"/>
          <ellipse class="cls-16" cx="130.7" cy="200.54" rx="6.3" ry="8.1"/>
        </g>
        <path class="cls-3" d="M110.9,199.14c2.7,.3,5.4,.2,8.1-.4,1.3-.3,2.8-.9,3-2.2,.1-.9-.4-1.7-1.1-2.2-.7-.5-1.6-.7-2.4-.8-2.5-.4-5.1-.3-7.6,.3-1.1,.3-2.3,.7-2.6,1.8-.3,.8,0,1.6,.6,2.2,.5,.6,1.3,.9,2,1.3"/>
      </g>
      <path class="cls-16" d="M153.9,205.94s-.1,.2-.4,.5c-.3,.3-.7,.8-1.3,1.3-1.2,1.1-3,2.5-5.4,4s-5.5,3-9.1,4.2c-3.6,1.1-7.7,1.9-12.1,1.9s-8.5-.8-12-2c-3.6-1.2-6.6-2.7-9-4.3-2.4-1.5-4.2-3-5.3-4.1-.6-.5-1-1-1.3-1.3s-.4-.5-.4-.5c0,0,.2,.1,.5,.4,.3,.3,.7,.7,1.4,1.2,1.2,1,3,2.5,5.4,3.9,2.4,1.5,5.4,3,9,4.1,3.5,1.1,7.6,1.9,11.9,1.9s8.4-.7,11.9-1.8c3.6-1.1,6.6-2.6,9-4,2.4-1.5,4.2-2.9,5.4-3.9,.6-.5,1.1-.9,1.4-1.2,.2-.2,.4-.3,.4-.3Z"/>
    </g>
    <g>
      <g>
        <path class="cls-1" d="M204.2,138.44s-25.5-33.8-53.2,.7c0,0,25.8,28.5,53.2-.7Z"/>
        <path class="cls-15" d="M163.9,130.64c1.7-3.6,5.7-4.9,9.3-5.9l13,.5c2,.5,3.7,2,4.7,4,1,1.9,1.4,4.2,1.3,6.4-.1,4.6-1.9,9.1-5.1,12.1-3.2,3-7.6,4.5-11.8,3.6-5.9-1.3-10.4-7-11.8-13.2-.5-2.5-.6-5.2,.4-7.5Z"/>
        <path class="cls-16" d="M149.2,141.24c-.2-.1,1.2-3.7,5.4-8.2,2.1-2.2,5-4.6,8.7-6.4,3.6-1.9,8-3.3,12.8-3.6,4.8-.2,9.3,.6,13.1,2.2,3.8,1.5,6.9,3.5,9.3,5.5,2.3,2,4,3.9,4.9,5.3,1,1.4,1.4,2.3,1.2,2.4-.3,.3-2.6-2.7-7.3-6.2-2.4-1.7-5.4-3.5-9-4.7-3.6-1.3-7.8-2-12.1-1.8-4.4,.3-8.4,1.5-11.9,3.1s-6.3,3.7-8.5,5.6c-4.3,3.8-6.2,7.1-6.6,6.8Z"/>
        <ellipse class="cls-16" cx="178" cy="137.04" rx="6.7" ry="8.7"/>
        <path class="cls-3" d="M167.2,137.04h-3.6c-1.3,0-2.3-1-2.3-2.3v-.2c0-1.3,1-2.3,2.3-2.3h3.6c1.3,0,2.3,1,2.3,2.3v.2c0,1.3-1,2.3-2.3,2.3Z"/>
      </g>
      <path class="cls-16" d="M201.3,141.64s-.1,.2-.4,.4c-.3,.2-.6,.6-1.1,1.1-1,.9-2.5,2.1-4.5,3.4-2,1.3-4.5,2.6-7.5,3.7-3,1-6.4,1.8-10.1,1.8s-7.1-.6-10.1-1.5c-3-1-5.6-2.2-7.6-3.5s-3.5-2.5-4.5-3.4c-.5-.4-.8-.8-1.1-1.1-.2-.3-.4-.4-.4-.4,0,0,.6,.5,1.6,1.3,1,.9,2.5,2,4.6,3.2,2,1.2,4.6,2.4,7.5,3.3,3,.9,6.4,1.5,10,1.5s7-.7,9.9-1.7c3-1,5.5-2.3,7.5-3.5s3.5-2.4,4.5-3.3c1.2-.9,1.7-1.4,1.7-1.3Z"/>
    </g>
    <g>
      <g>
        <path class="cls-1" d="M368.8,124.34s-16.4-21.6-34.1,.4c.1,.1,16.6,18.3,34.1-.4Z"/>
        <path class="cls-15" d="M343,119.34c1.1-2.3,3.6-3.1,5.9-3.8l8.4,.3c1.3,.3,2.4,1.3,3,2.5s.9,2.7,.8,4.1c-.1,2.9-1.2,5.8-3.2,7.8-2,1.9-4.9,2.9-7.5,2.3-3.8-.8-6.6-4.5-7.6-8.5-.4-1.5-.5-3.2,.2-4.7Z"/>
        <path class="cls-16" d="M333.6,126.14c-.3-.1,.5-2.5,3.3-5.5,1.4-1.5,3.2-3,5.6-4.3,2.3-1.3,5.2-2.2,8.4-2.4,3.1-.2,6.1,.4,8.6,1.4s4.5,2.4,6,3.7c3,2.7,4,5,3.8,5.2-.3,.3-1.8-1.6-4.9-3.7-1.5-1-3.4-2.1-5.7-2.9-2.3-.8-4.9-1.2-7.6-1.1-2.7,.2-5.3,.9-7.4,1.9-2.2,1-4,2.3-5.4,3.5-3,2.5-4.4,4.4-4.7,4.2Z"/>
        <path class="cls-16" d="M347.7,123.44c0,3.1,1.9,5.6,4.3,5.6s4.3-2.5,4.3-5.6-1.9-5.6-4.3-5.6c-2.3,.1-4.3,2.6-4.3,5.6Z"/>
        <path class="cls-3" d="M345.1,123.44h-2.3c-.8,0-1.5-.7-1.5-1.5v-.1c0-.8,.7-1.5,1.5-1.5h2.3c.8,0,1.5,.7,1.5,1.5v.1c0,.9-.7,1.5-1.5,1.5Z"/>
      </g>
      <path class="cls-16" d="M366.4,126.84s-.3,.4-.8,.9c-.6,.6-1.5,1.3-2.7,2.1-2.4,1.6-6.3,3.3-10.8,3.3-4.5,.1-8.4-1.4-10.9-2.9-1.2-.8-2.2-1.5-2.8-2-.6-.5-.9-.9-.9-.9,.1-.1,1.3,1.2,3.8,2.6,2.5,1.4,6.3,2.8,10.7,2.7,4.4-.1,8.2-1.6,10.6-3.1,2.6-1.5,3.8-2.8,3.8-2.7Z"/>
    </g>
    <g>
      <g>
        <g>
          <path class="cls-1" d="M418.6,176.44s-25.5-33.8-53.2,.7c0,0,25.8,28.5,53.2-.7Z"/>
          <path class="cls-15" d="M375.5,168.54c1.5-3.4,5.2-4.7,8.4-5.7l11.9,.5c1.8,.5,3.4,2,4.3,3.8,.9,1.9,1.2,4,1.2,6.1-.1,4.4-1.7,8.7-4.6,11.6-2.9,2.9-6.9,4.3-10.7,3.4-5.3-1.2-9.4-6.7-10.7-12.7-.7-2.2-.8-4.8,.2-7Z"/>
          <path class="cls-16" d="M363.6,179.24c-.2-.1,1.2-3.7,5.4-8.2,2.1-2.2,5-4.6,8.7-6.4,3.6-1.9,8-3.3,12.8-3.6,4.8-.2,9.3,.6,13.1,2.2,3.8,1.5,6.9,3.5,9.3,5.5,2.3,2,4,3.9,4.9,5.3,1,1.4,1.4,2.3,1.2,2.4-.3,.3-2.6-2.7-7.3-6.2-2.4-1.7-5.4-3.5-9-4.7-3.6-1.3-7.8-2-12.1-1.8-4.4,.3-8.4,1.5-11.9,3.1s-6.3,3.7-8.5,5.6c-4.3,3.9-6.3,7.1-6.6,6.8Z"/>
          <path class="cls-16" d="M382.2,175.04c0,3.9,2.4,7,5.4,7s5.4-3.1,5.4-7-2.4-7-5.4-7-5.4,3.1-5.4,7Z"/>
        </g>
        <path class="cls-3" d="M404.8,173.84c-2.3,.3-4.7,.2-6.9-.3-1.1-.3-2.4-.8-2.6-1.9-.1-.7,.3-1.5,.9-1.9s1.4-.6,2.1-.7c2.2-.3,4.4-.2,6.6,.3,.9,.2,1.9,.6,2.3,1.5,.2,.7,0,1.4-.5,1.9s-1.1,.8-1.8,1"/>
      </g>
      <path class="cls-16" d="M415.3,180.04s-.1,.1-.4,.3-.7,.5-1.1,.9c-1,.8-2.4,1.9-4.3,3.1-1.9,1.3-4.2,2.7-6.9,3.8-2.8,1.1-6,1.9-9.4,2.1-3.4,.2-6.7-.3-9.6-1.1s-5.3-2-7.2-3.2c-1.9-1.2-3.3-2.3-4.3-3.2-.5-.4-.8-.8-1-1s-.3-.4-.3-.4c0,0,.5,.4,1.5,1.2s2.4,1.9,4.3,3,4.3,2.2,7.2,3c2.8,.8,6.1,1.2,9.4,1,3.4-.2,6.6-.9,9.3-2,2.7-1.1,5-2.4,6.9-3.6,1.9-1.2,3.3-2.3,4.4-3,.5-.3,.9-.6,1.2-.8,.1-.1,.3-.1,.3-.1Z"/>
    </g>
    <g>
      <g>
        <g>
          <path class="cls-5" d="M335.4,235.34s-20.3-26.8-42.2,.6c0,0,20.4,22.6,42.2-.6Z"/>
          <path class="cls-15" d="M303,227.44c1.2-2.3,4.1-3.1,6.7-3.8l9.4,.3c1.4,.3,2.7,1.3,3.4,2.5s1,2.7,.9,4.1c-.1,2.9-1.4,5.8-3.7,7.8-2.3,1.9-5.5,2.9-8.5,2.3-4.2-.8-7.5-4.5-8.5-8.5-.3-1.5-.4-3.2,.3-4.7Z"/>
          <path class="cls-16" d="M291.7,237.64c-.3-.1,.8-3,4.2-6.6,1.7-1.8,4-3.7,6.9-5.2s6.4-2.7,10.3-2.9c3.8-.2,7.5,.5,10.5,1.7,3.1,1.2,5.5,2.9,7.4,4.5,3.7,3.2,5,6.1,4.8,6.2-.3,.3-2.2-2.1-5.9-4.8-1.9-1.3-4.3-2.7-7.1-3.7-2.8-1-6.1-1.6-9.5-1.4-3.4,.2-6.6,1.1-9.3,2.4-2.7,1.3-5,2.9-6.7,4.4-3.6,3.1-5.2,5.6-5.6,5.4Z"/>
          <path class="cls-16" d="M308.7,229.24c0,2.6,1.9,4.7,4.3,4.7s4.3-2.1,4.3-4.7-1.9-4.7-4.3-4.7c-2.4,0-4.3,2.1-4.3,4.7Z"/>
        </g>
        <path class="cls-3" d="M324.4,233.24c-1.8,.2-3.7,.1-5.5-.3-.9-.2-1.9-.6-2-1.5-.1-.6,.3-1.2,.7-1.5,.5-.3,1.1-.5,1.7-.6,1.7-.3,3.5-.2,5.2,.2,.7,.2,1.5,.5,1.8,1.2,.2,.5,0,1.1-.4,1.5s-.9,.6-1.4,.8"/>
      </g>
      <path class="cls-16" d="M333.1,237.64l-.3,.3c-.2,.2-.4,.5-.8,.8-.7,.7-1.8,1.6-3.3,2.6-2.9,2-7.6,4.1-13.1,4.4s-10.4-1.2-13.5-2.9c-1.6-.8-2.8-1.6-3.6-2.2-.4-.3-.7-.5-.9-.7l-.3-.3s.5,.3,1.3,.8,2.1,1.3,3.6,2c3.1,1.5,7.9,3,13.3,2.7s10-2.4,12.9-4.2c1.5-.9,2.6-1.8,3.4-2.4,.9-.6,1.3-1,1.3-.9Z"/>
    </g>
  </g>
  <g id="Speech_Bubble" data-name="Speech Bubble">
    <g>
      <g>
        <polygon class="cls-3" points="167.7 69.54 161.6 92.74 184.8 84.64 195.4 102.74 207.5 80.84 230.8 88.94 216.2 68.24 234.9 51.54 210.9 42.24 216.1 17.94 194.5 29.34 181.7 12.44 175.7 33.04 154.4 29.34 165.9 50.34 146 61.74 167.7 69.54"/>
        <path class="cls-16" d="M167.7,69.54s-.5-.2-1.5-.5-2.4-.8-4.2-1.5c-3.7-1.3-9.1-3.3-16.1-5.7l-.3-.1,.2-.1c5.5-3.2,12.2-7,19.9-11.4l-.1,.2c-3.4-6.2-7.3-13.3-11.5-20.9l-.2-.4,.4,.1c6.7,1.1,13.8,2.4,21.3,3.7l-.3,.2c1.9-6.5,3.9-13.5,5.9-20.7l.1-.5,.3,.4c4.1,5.4,8.4,11.1,12.8,17l-.3-.1c6.9-3.6,14.2-7.5,21.6-11.4l.5-.3-.1,.6c-1.7,7.8-3.4,16-5.2,24.3l-.2-.3c1.7,.7,3.6,1.4,5.4,2.1,6.3,2.4,12.5,4.8,18.6,7.2l.4,.2-.3,.3c-6.4,5.7-12.6,11.3-18.7,16.8v-.3c5,7.1,9.9,14,14.6,20.7l.5,.6-.7-.3c-8.1-2.8-15.9-5.5-23.2-8.1l.3-.1c-4.3,7.7-8.4,15-12.1,21.8l-.2,.3-.2-.3c-3.8-6.6-7.3-12.6-10.5-18.1l.2,.1c-9.1,3.2-16.9,5.9-23.3,8.1l-.2,.1,.1-.2c2-7.5,3.6-13.3,4.6-17.2,.5-2,.9-3.4,1.2-4.5,.4-1.2,.5-1.8,.5-1.8,0,0-.1,.5-.4,1.5-.3,1-.6,2.5-1.1,4.4-1,3.9-2.5,9.8-4.5,17.3l-.2-.2c6.4-2.2,14.1-5,23.3-8.2h.1l.1,.1c3.2,5.5,6.7,11.5,10.6,18h-.4c3.8-6.8,7.8-14.1,12.1-21.8l.1-.2,.2,.1c7.4,2.6,15.2,5.2,23.3,8l-.3,.4c-4.7-6.7-9.6-13.6-14.6-20.7l-.1-.2,.2-.2c6.1-5.5,12.3-11.1,18.7-16.8l.1,.5c-6.1-2.3-12.3-4.7-18.6-7.1-1.9-.7-3.7-1.4-5.4-2.1l-.2-.1v-.2c1.8-8.3,3.5-16.5,5.2-24.3l.4,.3c-7.4,3.9-14.7,7.8-21.6,11.4l-.2,.1-.1-.2c-4.4-5.9-8.8-11.6-12.8-17l.4-.1c-2.1,7.2-4.1,14.1-6,20.6l-.1,.2h-.2c-7.5-1.3-14.6-2.5-21.3-3.7l.2-.3c4.2,7.6,8,14.7,11.5,21l.1,.2-.2,.1c-7.7,4.4-14.4,8.2-20,11.3v-.2c7,2.6,12.4,4.5,16.1,5.9,1.8,.7,3.2,1.2,4.2,1.5,1,.5,1.4,.7,1.4,.7Z"/>
      </g>
      <path class="cls-15" d="M187.2,45.64l.9,14.7c.1,1.2,1,2.2,2.2,2.2h0c1.3,.1,2.4-.9,2.5-2.1l1.6-14.8c.1-1.1-.8-2.1-1.9-2.1h-3.6c-.9,.1-1.8,1-1.7,2.1Z"/>
      <path class="cls-15" d="M193.5,70.84c-.6,1.9-2.7,2.9-4.5,2.3-1.9-.6-2.9-2.7-2.3-4.5,.6-1.9,2.7-2.9,4.5-2.3,1.9,.6,2.9,2.6,2.3,4.5Z"/>
    </g>
    <g>
      <g>
        <polygon class="cls-3" points="324.9 313.54 318.8 336.74 342.1 328.64 352.6 346.64 364.7 324.84 388 332.94 373.4 312.24 392.1 295.44 368.1 286.24 373.3 261.94 351.7 273.34 338.9 256.34 332.9 277.04 311.6 273.34 323.1 294.34 303.2 305.64 324.9 313.54"/>
        <path class="cls-16" d="M324.9,313.54s-.5-.2-1.5-.5-2.4-.8-4.2-1.5c-3.7-1.3-9.1-3.3-16.1-5.7l-.3-.1,.2-.1c5.5-3.2,12.2-7,19.9-11.4l-.1,.2c-3.4-6.2-7.3-13.3-11.5-20.9l-.2-.4,.4,.1c6.7,1.1,13.8,2.4,21.3,3.7l-.3,.2c1.9-6.5,3.9-13.5,5.9-20.7l.1-.5,.3,.4c4.1,5.4,8.4,11.1,12.8,17l-.3-.1c6.9-3.6,14.2-7.5,21.6-11.4l.5-.3-.1,.6c-1.7,7.8-3.4,16-5.2,24.3l-.2-.3c1.7,.7,3.6,1.4,5.4,2.1,6.3,2.4,12.5,4.8,18.6,7.2l.4,.2-.3,.3c-6.4,5.7-12.6,11.3-18.7,16.8v-.3c5,7.1,9.9,14,14.6,20.7l.5,.6-.7-.3c-8.1-2.8-15.9-5.5-23.2-8.1l.3-.1c-4.3,7.7-8.4,15-12.1,21.8l-.2,.3-.2-.3c-3.8-6.6-7.3-12.6-10.5-18.1l.2,.1c-9.1,3.2-16.9,5.9-23.3,8.1l-.2,.1,.1-.2c2-7.5,3.6-13.3,4.6-17.2,.5-2,.9-3.4,1.2-4.5,.4-1.3,.5-1.8,.5-1.8,0,0-.1,.5-.4,1.5s-.6,2.5-1.1,4.4c-1,3.9-2.5,9.8-4.5,17.3l-.2-.2c6.4-2.2,14.1-5,23.3-8.2h.1l.1,.1c3.2,5.5,6.7,11.5,10.6,18h-.4c3.8-6.8,7.8-14.1,12.1-21.8l.1-.2,.2,.1c7.4,2.6,15.2,5.2,23.3,8l-.3,.4c-4.7-6.7-9.6-13.6-14.6-20.7l-.1-.2,.2-.2c6.1-5.5,12.3-11.1,18.7-16.8l.1,.5c-6.1-2.3-12.3-4.7-18.6-7.1-1.9-.7-3.7-1.4-5.4-2.1l-.2-.1v-.2c1.8-8.3,3.5-16.5,5.2-24.3l.4,.3c-7.4,3.9-14.7,7.8-21.6,11.4l-.2,.1-.1-.2c-4.4-5.9-8.8-11.6-12.8-17l.4-.1c-2.1,7.2-4.1,14.1-6,20.6l-.1,.2h-.2c-7.5-1.3-14.6-2.5-21.3-3.7l.2-.3c4.2,7.6,8,14.7,11.5,21l.1,.2-.2,.1c-7.7,4.4-14.4,8.2-20,11.3v-.2c7,2.6,12.4,4.5,16.1,5.9,1.8,.7,3.2,1.2,4.2,1.5,1,.5,1.4,.7,1.4,.7Z"/>
      </g>
      <path class="cls-15" d="M344.4,289.64l.9,14.7c.1,1.2,1,2.2,2.2,2.2h0c1.3,.1,2.4-.9,2.5-2.1l1.6-14.8c.1-1.1-.8-2.1-1.9-2.1h-3.6c-.9,.1-1.8,1-1.7,2.1Z"/>
      <path class="cls-15" d="M350.7,314.84c-.6,1.9-2.7,2.9-4.5,2.3-1.9-.6-2.9-2.7-2.3-4.5,.6-1.9,2.7-2.9,4.5-2.3,1.9,.6,2.9,2.6,2.3,4.5Z"/>
    </g>
  </g>
  <g id="Lines">
    <g>
      <path class="cls-16" d="M104.7,328.94c0,.1-14.9,.3-33.3,.3s-33.4-.1-33.4-.3,14.9-.3,33.4-.3c18.4,.1,33.3,.2,33.3,.3Z"/>
      <path class="cls-16" d="M89.6,337.94c0,.1-14.9,.3-33.3,.3s-33.4-.1-33.4-.3c0-.1,14.9-.3,33.4-.3,18.4,.1,33.3,.2,33.3,.3Z"/>
    </g>
  </g>
  <g id="Character">
    <g>
      <g>
        <g>
          <path class="cls-4" d="M347,165.84c-5.5-6.2-26-25.2-34.8-32.3,1.4-4.1,1.8-9.5,1.3-10.5-1.4-3.2-5-17.2-5-17.2-1.6,.2-2.3,.4-2-4.2l-13.4,39.7,9.6,4.2,21.2,21.4-23.5-1.5-3.2,28.2s38.2-2.8,44.5-5.4c6.2-2.5,10.7-16.2,5.3-22.4Z"/>
          <path class="cls-6" d="M347,165.84s.1,.1,.2,.3,.3,.4,.6,.8c.3,.3,.5,.8,.8,1.4,.2,.3,.2,.6,.3,1,.1,.4,.3,.7,.3,1.1,.4,1.6,.4,3.7,0,6.1-.4,2.4-1.3,5.1-3,7.7-.9,1.3-1.9,2.6-3.3,3.6l-1.2,.6c-.4,.2-.8,.3-1.3,.4-.9,.3-1.8,.4-2.7,.6-3.7,.7-7.7,1.2-11.9,1.7-8.5,1-18.2,1.9-28.8,2.7h-.3v-.3c1-8.7,2-18.2,3.1-28.2v-.2h.2c7.5,.5,15.4,1,23.5,1.5l-.2,.4c-4.7-4.8-9.7-9.8-14.7-14.9-2.2-2.2-4.3-4.4-6.5-6.5l.1,.1c-3.2-1.4-6.4-2.8-9.6-4.2l-.2-.1,.1-.2c4.8-14.1,9.4-27.4,13.6-39.6l.6-1.7-.1,1.8c-.1,1-.1,1.9,0,2.9,0,.4,.2,.9,.5,1s.8,0,1.3,0h.2v.2c1.3,5.1,2.6,9.9,4,14.5,.2,.6,.4,1.1,.6,1.7,.1,.3,.2,.5,.3,.8,.1,.1,.1,.3,.2,.4,0,.2,.1,.3,.1,.5,.1,1.2,0,2.3-.1,3.5-.3,2.3-.7,4.5-1.4,6.5l-.1-.2c5.7,4.6,10.6,9.1,14.9,13.1,4.3,3.9,7.9,7.4,10.9,10.2,3,2.9,5.2,5.1,6.7,6.7,1.6,1.4,2.3,2.3,2.3,2.3,0,0-.2-.2-.6-.6-.4-.4-1-1-1.7-1.8-1.5-1.5-3.8-3.8-6.8-6.6s-6.6-6.3-11-10.2c-4.3-3.9-9.2-8.4-14.9-13l-.1-.1v-.1c.7-2,1.1-4.2,1.3-6.4,.1-1.1,.2-2.3,.1-3.4,0-.3-.1-.5-.2-.8s-.2-.6-.3-.8c-.2-.6-.4-1.1-.6-1.7-1.4-4.6-2.7-9.4-4-14.5l.2,.2c-.5,0-.9,.2-1.5,0-.3-.1-.5-.4-.6-.7s-.1-.5-.2-.8c-.1-1,0-2,0-2.9l.5,.1c-4.2,12.2-8.7,25.6-13.5,39.7l-.1-.3c3.1,1.4,6.3,2.8,9.6,4.2h0c2.1,2.2,4.3,4.3,6.5,6.5,5,5.1,10,10.1,14.7,14.9l.5,.5h-.7c-8.1-.5-16-1-23.5-1.5l.3-.2c-1.1,10-2.2,19.5-3.2,28.2l-.2-.2c10.6-.8,20.2-1.7,28.8-2.6,4.3-.5,8.3-1,11.9-1.7,1.8-.4,3.6-.7,5-1.6,1.4-.9,2.4-2.2,3.3-3.5,1.7-2.6,2.6-5.2,3-7.6,.4-2.3,.4-4.4,0-6,0-.4-.2-.8-.3-1.1-.1-.3-.2-.7-.3-1-.3-.6-.5-1.1-.7-1.4-.2-.3-.4-.6-.6-.8,0-.3-.1-.4-.1-.4Z"/>
        </g>
        <path class="cls-6" d="M336,175.44c-.1,.1-2.4-2.6-6-4.9-3.6-2.4-6.9-3.5-6.9-3.6s.9,.1,2.2,.6c1.3,.5,3.1,1.4,4.9,2.6,1.8,1.2,3.3,2.5,4.3,3.6,1.1,.9,1.6,1.6,1.5,1.7Z"/>
      </g>
      <g>
        <g>
          <g>
            <path class="cls-4" d="M245.6,150.44l21.4-50.3c4.9-12.7,16.4-20.4,28.9-15.1l1.1,.6c11.4,5.6,16.6,19,11.9,30.8-4.3,11-9.3,23-12.1,28.7-5.9,11.6-18.5,7.7-18.5,7.7,0,0-3.3,7.2-4.8,10.7l-9.6,2.7h0l-18.3-15.8Z"/>
            <path class="cls-6" d="M278.4,152.74s-7.6-3.2-13-12c0,0-.7,10.6,11.6,15.3l1.4-3.3Z"/>
            <path class="cls-16" d="M300.2,125.54c-.4,.9-1.5,1.3-2.4,.9-.9-.4-1.4-1.5-1-2.4s1.5-1.3,2.4-.9c1,.5,1.4,1.5,1,2.4Z"/>
            <path class="cls-16" d="M304,120.34c-.3,.1-1.1-1.4-2.9-2.3-1.8-.9-3.6-.6-3.7-.9,0-.1,.4-.4,1.1-.6,.8-.1,1.9-.1,3.1,.5,1.1,.6,1.9,1.4,2.2,2.1,.4,.6,.3,1.1,.2,1.2Z"/>
            <path class="cls-16" d="M284.2,118.54c-.4,.9-1.5,1.3-2.4,.9-.9-.4-1.4-1.5-1-2.4s1.5-1.3,2.4-.9c1,.4,1.4,1.5,1,2.4Z"/>
            <path class="cls-16" d="M286.8,112.94c-.3,.1-1.1-1.4-2.9-2.3-1.8-.9-3.6-.6-3.7-.9,0-.1,.4-.4,1.1-.6,.8-.1,1.9-.1,3.1,.5,1.1,.6,1.9,1.4,2.2,2.1,.3,.7,.3,1.2,.2,1.2Z"/>
            <path class="cls-16" d="M285.8,129.04c0-.1,1.3,.2,3.2,.9,.5,.2,1,.3,1.2,0,.3-.3,.3-.9,.4-1.5,.1-1.3,.2-2.7,.4-4.2,.6-5.9,1.2-10.7,1.4-10.7s0,4.8-.6,10.7c-.1,1.5-.3,2.8-.4,4.2-.1,.6-.1,1.3-.6,1.9-.3,.3-.8,.4-1.1,.3-.3-.1-.6-.2-.8-.3-2-.6-3.1-1.2-3.1-1.3Z"/>
            <path class="cls-16" d="M282.3,106.34c.3-.5,2.2,.3,4.6,.7,2.3,.4,4.4,.2,4.5,.8,.1,.3-.4,.7-1.3,1s-2.2,.5-3.6,.2c-1.4-.2-2.6-.8-3.3-1.3-.7-.6-1-1.1-.9-1.4Z"/>
            <path class="cls-16" d="M301.2,109.84c.6,.1,1.1,1.7,2.1,3.4s2.2,2.9,2,3.5c-.1,.3-.6,.3-1.4-.1-.7-.4-1.7-1.2-2.4-2.4-.7-1.2-1-2.4-.9-3.2,.1-.8,.3-1.3,.6-1.2Z"/>
            <path class="cls-4" d="M263.7,109.34c-.2-.2-6.9-6.3-10.6,1.8s5.3,10.1,5.4,9.9c.2-.2,5.2-11.7,5.2-11.7Z"/>
            <path class="cls-6" d="M257.5,116.84h-.5c-.3,0-.7-.1-1.1-.5-.7-.7-.8-2.4-.2-3.9,.3-.7,.8-1.4,1.3-1.9s1.1-.7,1.6-.6c.5,.1,.7,.5,.7,.8s-.1,.4-.1,.4c0,0,.2-.1,.3-.4,0-.2,0-.4-.1-.7-.1-.2-.4-.5-.7-.6-.6-.2-1.5,.1-2.1,.6s-1.2,1.2-1.5,2c-.7,1.7-.5,3.6,.5,4.4,.5,.4,1.1,.5,1.4,.4,.3,.2,.5,0,.5,0Z"/>
          </g>
          <g>
            <path class="cls-16" d="M330.3,112.84c.1-.5-.1-1.1-.4-1.5-.7-1-1.8-1.4-2.8-1.9-2.6-1.2-4.8-3-6.6-5.2,1,0,2-.2,2.9-.5,1.9-.7,3.6-2.4,3.8-4.4,0-.4,0-.8-.3-1.1-.5-.4-1.2-.1-1.7,.2-1.8,.8-3.2,.9-4.9-.1-1.1-.6-2-1.4-2.7-2.3q0-.1-.1-.2c-.2-.6-.4-1.2-.7-1.8h0c-1.7-4.4-3.4-7.7-5.6-10-3.2-3.4-9.6-7.1-14.2-7.9s-9.9,.9-12.4,4.9c-1.4-3-4.9-4.6-8.3-4.7l-.1-.1c-3.7-.3-7,2.2-9.3,5-.1,.2-.3,.3-.4,.5-1.8,1.2-3.9,2-6.1,2.2-.4,0-.8,.1-1,.4s0,.8,.2,1.1c.5,.9,1.2,1.6,2.1,2.2-.6,.6-1.3,1.2-2,1.7-.6,.4-1.4,1-1.4,1.7,0,.6,.5,1.1,1.1,1.2,.6,.2,1.2,.1,1.8,0-.7,.7-1.5,1.4-2.2,2,1,.7,2.3,1.2,3.5,1.3-.7,3.3-2.7,9.1-2.9,11.5,2.1,1,2.8,1,3.7,1.9,1.2,1.1-.5,3.4,1.7,3.5,1.1,.1,4.1-2.8,4.9-3.6,4.9-5.4,8.7-11.8,10.9-18.7,1.9-.8,4-1.2,6.1-1.2l-.2,.1c3.8,.4,8.1,.9,10.6,3.9,1.9,2.3,2.2,5.5,3.1,8.4,1.7,5.4,4.7,9.2,9.8,11.8-1.2,3.8-3.7,9.7-5,13.2l5.9-5.4h0c.4-.3,.8-.6,1.1-.9l.1-.1h0c.6-.5,1.2-1,1.8-1.5h0c1.1,2.4,4.9,1.2,4.3-1.4-.1-.5-.3-1-.5-1.5,.5,1.2,1.5,2.1,2.8,2.2,1.2,.2,2.6-.6,3-1.7,.3-.8,0-1.7-.5-2.4,1.4,.8,3.1,1.1,4.7,1,1-.2,2.2-.6,2.4-1.8Z"/>
            <path class="cls-15" d="M287.8,83.94s-.6,.1-1.7,.5c-1,.5-2.4,1.5-3.6,3.1-.6,.8-1.2,1.8-1.7,2.9s-.9,2.3-1.4,3.6c-.5,1.3-1,2.6-1.7,3.9-.3,.7-.7,1.3-1.2,1.9s-1,1.3-1.7,1.6c-.6,.3-1.4,.2-1.9-.2-.5-.4-.9-.9-1.1-1.5-.4-1.2,0-2.5,.2-3.5l.2,.1c-.8,.7-1.6,1.4-2.6,1.8-.9,.4-2,.5-2.9,.2-.4-.2-.8-.4-1.1-.8-.3-.4-.4-.8-.5-1.2,0-.4,0-.8,.2-1.2,.2-.3,.5-.6,.8-.8l.1,.2c-1.4,.6-2.6,.7-3.4,.8-.4,0-.7,0-.9-.1-.2,0-.3-.1-.3-.1h1.2c.8,0,2-.2,3.4-.8l.1,.2c-.6,.2-1,1-.9,1.7,0,.4,.2,.8,.4,1.1,.3,.3,.6,.5,1,.7,.8,.3,1.8,.2,2.7-.2,.9-.4,1.7-1.1,2.5-1.8l.3-.3-.1,.4c-.3,1.1-.6,2.3-.2,3.4,.2,.5,.5,1.1,1,1.4s1.1,.4,1.6,.2c.7-.3,1.2-.9,1.6-1.5s.8-1.2,1.2-1.9c.7-1.3,1.2-2.6,1.7-3.9s.9-2.5,1.5-3.6c.5-1.1,1.1-2.1,1.7-2.9,1.2-1.7,2.7-2.7,3.7-3.1,1.1-.3,1.8-.3,1.8-.3Z"/>
            <path class="cls-15" d="M319.3,112.24h-.1c-.1,0-.2,0-.4,.1-.2,0-.4,.1-.7,.1s-.6,.1-.9,.1c-1.3,0-3.4-.3-5.5-1.4-2.1-1.1-4.4-3.1-6-5.9-1.6-2.8-2.5-6.3-2.9-9.9-.2-1.8-.2-3.6-.4-5.3-.2-1.7-.4-3.4-1-4.8-.6-1.5-1.4-2.7-2.5-3.6-.5-.5-1.1-.8-1.7-1s-1.2-.4-1.8-.4c-1.2-.1-2.3,.1-3.2,.4-.9,.3-1.6,.7-2.1,1.1-1,.8-1.4,1.5-1.4,1.5l.1-.1c.1-.1,.1-.2,.2-.3,.2-.3,.5-.7,1.1-1.1,.5-.4,1.2-.9,2.2-1.2,.9-.3,2-.5,3.2-.4,.6,.1,1.2,.2,1.9,.4,.6,.3,1.2,.6,1.8,1.1,1.1,.9,2,2.2,2.6,3.7s.9,3.2,1,4.9c.2,1.7,.2,3.5,.4,5.3,.4,3.6,1.3,7.1,2.9,9.8,1.5,2.8,3.7,4.7,5.8,5.9,2.1,1.1,4.1,1.5,5.4,1.5,1.3-.3,2-.5,2-.5Z"/>
            <path class="cls-15" d="M322.8,107.54s-.2,.1-.6,.1c-.4,.1-.9,.1-1.6,.1s-1.4-.1-2.3-.3-1.8-.4-2.7-.8c-.9-.4-1.8-.9-2.5-1.3-.7-.5-1.3-1-1.8-1.5s-.8-.9-1-1.2c-.2-.3-.3-.5-.3-.5,0,0,.5,.6,1.5,1.5,.5,.4,1.1,.9,1.8,1.4,.7,.5,1.5,.9,2.5,1.3,.9,.4,1.8,.6,2.7,.8,.8,.2,1.6,.3,2.3,.3,1.1,.1,2,0,2,.1Z"/>
          </g>
        </g>
        <path class="cls-6" d="M282.4,130.54c-1.1-.7-2.8-.4-3.6,.7-.8,1.1-.5,2.8,.6,3.6s2.8,.6,3.6-.4c.9-1,.7-2.7-.2-3.6"/>
        <path class="cls-16" d="M280.5,135.14c0-.1-.7,0-1.4-.6-.4-.3-.7-.8-.7-1.4s.2-1.3,.7-1.8,1.2-.7,1.8-.8c.6,0,1.2,.2,1.6,.5,.8,.5,1.1,1.1,1.1,1.1,0,0,0-.2-.2-.4-.1-.2-.4-.6-.8-.9-.4-.3-1-.6-1.7-.6s-1.5,.2-2.1,.8-.8,1.4-.7,2.1c.1,.7,.5,1.3,.9,1.6,.8,.6,1.5,.4,1.5,.4Z"/>
        <path class="cls-6" d="M306.8,122.14s-.1,.5-.5,1.4c-.3,1-.8,2.2-1.3,3.7-1.1,3.1-2.4,7.5-4.7,12.1-1.2,2.2-2.3,4.4-3.4,6.3-1.1,1.9-2.4,3.5-3.7,4.6-1.3,1.1-2.5,1.8-3.3,2.1-.4,.2-.8,.3-1,.4-.2,.1-.4,.1-.4,.1-.1-.1,2-.6,4.5-2.9,1.2-1.1,2.4-2.7,3.5-4.5,1.1-1.9,2.2-4,3.3-6.3,2.3-4.5,3.6-8.9,4.8-12,.6-1.6,1.1-2.8,1.5-3.6,.5-.9,.7-1.4,.7-1.4Z"/>
      </g>
      <g>
        <path class="cls-14" d="M84.5,408.54l-26.5,10.8s2.2,30.3-2.5,32.8l-23-50.2,40.6-18.5,11.4,25.1Z"/>
        <path class="cls-9" d="M53.1,402.84c-.7-.9-2.1-1-3-.4-.9,.7-1.1,2.1-.4,3s2.4,1.1,3.2,.4c.8-.8,.9-2.4,0-3.1"/>
        <path class="cls-11" d="M32.5,401.94l4.2-1.7,20.5,48.8s0,2.7-1.7,3.1l-23-50.2Z"/>
        <path class="cls-3" d="M58.7,420.04c-.3,.1-.9-1.1-2.3-1.9-1.3-.9-2.7-1-2.7-1.3-.1-.2,1.6-.5,3.2,.5,1.6,1.1,2,2.7,1.8,2.7Z"/>
        <path class="cls-3" d="M58.9,426.34c-.2,.2-1.1-.7-2.5-1.1s-2.6-.1-2.7-.4c-.1-.2,1.2-1,3-.5,1.6,.5,2.4,1.9,2.2,2Z"/>
        <path class="cls-3" d="M53.9,432.14c-.2-.2,.9-1.1,2.6-1.1,1.6,0,2.7,.9,2.5,1.1-.1,.2-1.2-.2-2.6-.2-1.3,0-2.4,.4-2.5,.2Z"/>
        <path class="cls-3" d="M64.4,416.94c-.3,0-.4-1.3-1.2-2.6-.7-1.4-1.7-2.2-1.5-2.4,.1-.2,1.5,.4,2.4,2,.8,1.5,.6,3,.3,3Z"/>
      </g>
      <g>
        <path class="cls-14" d="M327.3,392.74l16,23.8s29.2-8.3,32.6-4.2l-44.4,32.7-26.4-36,22.2-16.3Z"/>
        <path class="cls-11" d="M328.1,424.64c-.7,.9-.6,2.3,.3,3,.8,.7,2.3,.6,3-.2,.7-.9,.6-2.6-.3-3.2s-2.6-.4-3.1,.6"/>
        <path class="cls-11" d="M331.5,445.04l-2.5-3.7,43.6-30s2.6-.6,3.4,1l-44.5,32.7Z"/>
        <path class="cls-3" d="M343.9,415.74c.2,.2-.9,1.1-1.4,2.6-.6,1.5-.5,2.8-.7,2.9s-.9-1.4-.2-3.2c.7-1.9,2.2-2.6,2.3-2.3Z"/>
        <path class="cls-3" d="M349.9,414.24c.2,.2-.5,1.2-.5,2.7-.1,1.5,.4,2.6,.2,2.8s-1.3-1-1.1-2.8c.1-1.9,1.3-2.9,1.4-2.7Z"/>
        <path class="cls-3" d="M356.7,417.94c-.2,.2-1.3-.7-1.6-2.3-.3-1.6,.4-2.8,.6-2.7,.3,.1,.1,1.2,.3,2.5,.3,1.3,.9,2.3,.7,2.5Z"/>
        <path class="cls-3" d="M339.6,410.74c.1,.3-1.2,.7-2.3,1.7-1.2,1-1.8,2.1-2.1,2-.2-.1,.1-1.6,1.5-2.7,1.4-1.2,2.9-1.3,2.9-1Z"/>
      </g>
      <g>
        <path class="cls-8" d="M162.5,245.64c-5.3,8.3-14,20-10.4,41.4l-16.5,58.2s-10.8,7-20.5,11.3-67.9,34-67.9,34l18,30.9s84.6-34.4,98.4-43.6c9.4-6.3,56.3-106.5,56.3-106.5l-57.4-25.7Z"/>
        <path class="cls-8" d="M160.2,250.44s-17.5,38.4,9.2,49.5c28.2,11.6,81.8,45.7,82.8,45.7l62.9,81.7,30.6-18.4s-56.8-87.5-59.3-92.5-70.5-52.5-70.5-52.5l-55.7-13.5Z"/>
        <path class="cls-15" d="M157.3,291.04s.2,.2,.5,.6,.8,1,1.5,1.7c1.3,1.4,3.5,3.3,6.3,5.3,5.4,4.7,15.7,5,24.9,10.7,9.4,5,17.6,10,23.7,13.6,3,1.8,5.4,3.2,7.1,4.2,.8,.5,1.4,.9,1.9,1.1,.4,.3,.7,.4,.7,.4,0,0-.3-.1-.7-.3-.5-.2-1.1-.6-2-1.1-1.7-.9-4.2-2.3-7.2-4.1-6.1-3.5-14.3-8.4-23.7-13.4-2.4-1.2-4.7-2.4-7-3.4s-4.6-1.6-6.8-2.3c-2.2-.7-4.3-1.4-6.2-2.2-1.9-.8-3.5-1.9-4.9-3-2.8-2.1-4.9-4-6.2-5.4-.7-.7-1.1-1.3-1.4-1.8-.4-.4-.5-.6-.5-.6Z"/>
      </g>
      <g>
        <path class="cls-10" d="M292.5,161.54l-6.7-3.2-12.8-4.3s1.8,22.3,1.5,23.8-1.5,19.7-1.5,19.7l37.4-.7,1.1-32.1-19-3.2Z"/>
        <path class="cls-16" d="M289.2,178.44s-.2,.5-.6,1.3-1,2-1.8,3.5c-1.5,2.9-3.7,6.9-6.2,11.3-2.5,4.3-4.7,8.3-6.3,11.2-.8,1.4-1.4,2.5-1.9,3.4-.5,.8-.7,1.2-.8,1.2,0,0,.2-.5,.6-1.3s1-2,1.8-3.5c1.5-2.9,3.7-6.9,6.2-11.3,2.5-4.3,4.7-8.3,6.3-11.2,.8-1.4,1.4-2.5,1.9-3.4,.5-.8,.8-1.2,.8-1.2Z"/>
        <path class="cls-10" d="M248.9,142.64s-16.4-2.7-25.1,2.2c-6.8,3.8-31.1,47.7-41.4,66.4-3,5.4-4.8,8.8-4.8,8.8,0,0-17.9,18-23.9,22.8-5.2,4.1,2.7,9,15.5,11.7,5.7,1.2,24.8,2.7,37.9,7.9,16.3,6.4,29,15.8,29,14.7l55.7-104.3-14.3-11.7-28.6-18.5Z"/>
        <g class="cls-17">
          <path d="M278.7,194.34c-.4-.7-1.2-1-2-1.3-17-5.5-33.2-13.3-48.1-23.3l-4.4,4c4.3,8.7,13,14.3,21,19.8,3.4,2.3,6.8,4.8,10.5,6.6s7.8,3,12,2.7c4.1-.3,8.2-2.3,10.5-5.8,.5-.8,1-1.8,.5-2.7Z"/>
        </g>
        <path class="cls-16" d="M227.6,262.44s-.5-.5-1.5-1.3c-1-.9-2.5-2-4.5-3.2s-4.5-2.3-7.4-3.3-6.2-1.8-9.7-2.4-6.8-1-9.9-1.5c-3-.4-5.8-.9-8.1-1.4s-4.1-1-5.3-1.4c-.6-.2-1.1-.4-1.4-.5-.3-.1-.5-.2-.5-.2,0,0,.7,.2,2,.5,1.2,.4,3.1,.8,5.4,1.3,2.3,.5,5,.9,8.1,1.3,3,.4,6.4,.9,9.9,1.5s6.8,1.4,9.7,2.4,5.5,2.2,7.4,3.4c2,1.2,3.5,2.4,4.4,3.3,.5,.4,.8,.8,1.1,1.1,.2,.2,.3,.4,.3,.4Z"/>
        <g class="cls-17">
          <path d="M184.4,248.54c-1.2-.4-3.7-.3-4.3-1.4,1.9-1.5,4.8-2.4,7.2-2s4.6,1.3,6.9,2c5.6,1.6,11.6,1.7,17.2,3,5.7,1.3,11.5,4.5,13.5,10-4.7-4.9-10.8-6-16.6-7.5-6.6-1.8-18.2-1.8-24.3-4.1"/>
        </g>
      </g>
      <g>
        <g>
          <path class="cls-4" d="M254.2,135.14s-2.5-2.2-4.7-3.2-4.7-2.1-3.6-3.5c1.2-1.4,2.3-1.1,5.2-.9,0,0,.1-2.7-.9-4.9-1-2.1-3.3-4.2-3.8-9.9-.5-5.6,.5-7.1,1.7-7,1.1,.1,1.5-.2,2.9,3.5s3.1,5.5,3.1,5.5c0,0-1.8-7.2-.9-10.9s1.6-7.2,3.2-7.2,1.9,2,1.9,2c0,0-.9,4.5-.4,7.8s1.2,4.8,1.2,4.8c0,0,.3-6.1,1.3-8.5,1-2.4,3.5-8,4.9-7.8,1.5,.3,1.6,2.6,1.2,4.2-.4,1.7-1.5,2-1.4,4.5s.4,6.3,.4,6.3c0,0,1.6-4.3,2.4-6s5.8-6.8,6.1-6.9c.3-.1,1.3,.1,1.2,3-.2,3-3.1,6.5-3.4,7.9s-.4,7.2-.1,14.2-2.6,9.1-2.6,9.1l-14.9,3.9Z"/>
          <path class="cls-6" d="M254.2,135.14s.1,0,.3-.1c.2-.1,.4-.1,.7-.2,.7-.2,1.6-.4,2.9-.8,2.5-.7,6.2-1.6,10.9-2.9h0c1.1-.9,1.7-2.4,2.1-4s.5-3.4,.4-5.2c-.1-3.7-.2-7.8-.1-12.2,0-.6,.1-1.1,.1-1.7,.1-.6,.4-1.1,.7-1.6,.6-1,1.2-2,1.7-3s1-2.1,1-3.3c0-.6,0-1.2-.1-1.8-.1-.3-.1-.6-.3-.8-.1-.2-.4-.3-.5-.3-.1,.1-.4,.4-.6,.6l-.7,.7c-.4,.5-.9,.9-1.3,1.4-.9,.9-1.7,1.9-2.5,2.9-.4,.5-.8,1-1,1.6-.3,.6-.5,1.2-.8,1.8-.5,1.2-1,2.5-1.5,3.8l-.4,1.1-.1-1.1c-.1-2.1-.3-4.2-.4-6.4,0-.6,0-1.1,.2-1.7s.5-1.1,.7-1.5c.5-.9,.7-2,.7-3.1,0-.5-.1-1.1-.4-1.5-.2-.4-.8-.7-1.1-.4-.4,.2-.8,.7-1.1,1.1-.3,.5-.6,.9-.9,1.4-.6,1-1.1,2-1.5,3.1-.5,1.1-1,2.1-1.2,3.2-.5,2.3-.7,4.7-.8,7l-.1,1.1-.4-1.1c-.4-1.1-.7-2.1-.9-3.2-.2-1.1-.4-2.1-.4-3.2-.1-2.2,.2-4.3,.5-6.4v.1c-.1-.9-.7-1.8-1.6-1.8-.4,0-.7,.3-1,.6-.3,.4-.5,.8-.6,1.2-.6,1.8-1,3.6-1.5,5.4-.4,1.8-.2,3.6,0,5.4,.2,1.8,.5,3.5,.9,5.2l.2,.9-.6-.7c-1.2-1.4-2-2.9-2.7-4.4-.3-.8-.6-1.6-.9-2.3s-.6-1.6-1.2-2c-.3-.2-.7-.2-1.1-.2-.3,0-.6,.1-.8,.4-.4,.6-.5,1.4-.6,2.1-.1,1.5-.1,3,.1,4.4,.1,1.4,.4,2.8,.9,4.1s1.1,2.5,1.8,3.5c.7,1.1,1.3,2.2,1.6,3.4,.3,1.2,.4,2.3,.4,3.5v.2h-.2c-1.3-.1-2.6-.3-3.7,0-1,.3-2.1,1.5-1.3,2.3,.7,.7,1.6,1.1,2.4,1.5s1.5,.7,2.2,1.1c2.4,1.6,3.5,2.8,3.5,2.8,0,0-.1-.1-.2-.2-.2-.1-.4-.3-.7-.5-.6-.4-1.5-1.1-2.7-1.9-.6-.4-1.4-.7-2.2-1.1s-1.7-.8-2.5-1.5c-.2-.2-.4-.5-.4-.8s.1-.6,.3-.9c.4-.5,.8-.9,1.5-1,1.2-.3,2.5,0,3.8,0l-.2,.1c0-1.1-.1-2.2-.4-3.4s-.9-2.2-1.6-3.3-1.3-2.3-1.8-3.6-.8-2.7-.9-4.2c-.2-1.5-.3-3-.1-4.5,.1-.8,.2-1.6,.7-2.3,.2-.4,.7-.7,1.2-.6,.4,0,.8,0,1.3,.3,.4,.3,.6,.7,.8,1,.2,.4,.4,.8,.5,1.1,.3,.8,.6,1.6,.9,2.3,.7,1.5,1.5,3,2.6,4.3l-.4,.2c-.4-1.7-.7-3.4-1-5.3-.2-1.8-.4-3.7,0-5.6,.5-1.8,.8-3.7,1.5-5.5,.2-.5,.4-.9,.7-1.3,.3-.4,.8-.9,1.4-.8,.6,0,1.1,.3,1.5,.7,.3,.4,.5,.9,.6,1.5h0c-.4,2-.6,4.1-.5,6.3,0,1.1,.2,2.1,.4,3.2,.2,1,.5,2.1,.9,3.1l-.5,.1c.1-2.4,.3-4.7,.9-7.1,.2-1.2,.8-2.3,1.2-3.3,.5-1.1,1-2.1,1.6-3.1,.3-.5,.6-1,.9-1.5,.4-.5,.7-1,1.3-1.3,.7-.4,1.5,.1,1.8,.6s.4,1.2,.5,1.7c0,1.2-.1,2.3-.7,3.4-.3,.5-.5,.9-.7,1.4-.1,.5-.2,1-.2,1.5,.1,2.2,.3,4.3,.4,6.4l-.5-.1c.5-1.3,1-2.5,1.5-3.8,.3-.6,.5-1.2,.8-1.8s.7-1.2,1.1-1.7c.8-1,1.7-2,2.6-2.9,.4-.5,.9-.9,1.3-1.4l.7-.7,.3-.3,.2-.2,.2-.2c.5-.2,.9,.1,1.1,.4s.3,.6,.4,.9c.1,.6,.1,1.3,.1,1.9-.1,1.3-.6,2.4-1.1,3.5s-1.1,2.1-1.7,3c-.3,.5-.6,1-.6,1.5-.1,.5-.1,1.1-.1,1.6-.2,4.4-.1,8.5,0,12.2,.1,1.9,0,3.7-.5,5.3-.4,1.6-1.1,3.1-2.3,4.2h0c-4.7,1.2-8.4,2.1-10.9,2.8-1.2,.3-2.2,.5-2.9,.7-.3,.1-.5,.1-.7,.2-.4,.2-.5,.3-.5,.3Z"/>
        </g>
        <g>
          <path class="cls-4" d="M268.4,129.44s17.2,43.7,16.6,52.9c-2,33.3-40.7,6.2-44.4,4.6-2.3-.9-28.4-13.2-24.2-28.9s20.5-13.3,20.5-13.3l23.9,21-6.9-31.7"/>
          <path class="cls-6" d="M254,134.14s.1,.2,.1,.5c.1,.4,.2,.9,.4,1.6,.3,1.4,.8,3.5,1.4,6.3,1.2,5.5,2.9,13.4,5.1,23.3l.1,.5-.4-.4c-6.8-5.9-14.9-13-23.9-21l.1,.1c-4.2-.4-8.8,.2-12.7,2.5-1,.5-1.9,1.3-2.7,2l-1.2,1.3c-.4,.4-.7,.9-1,1.4l-.5,.7c-.2,.2-.3,.5-.4,.8-.3,.5-.5,1.1-.8,1.6-.2,.6-.4,1.1-.6,1.7-.2,.6-.4,1.1-.5,1.7-.3,1.2-.3,2.4-.3,3.6,.1,1.2,.3,2.4,.7,3.6,.8,2.3,2.1,4.5,3.7,6.5,3.2,3.9,7.4,7.1,11.8,9.9,1.8,1.1,3.6,2.2,5.5,3.1,.9,.5,1.9,.9,2.8,1.3,1,.5,1.8,1,2.7,1.5,3.6,2.1,7.1,4,10.7,5.7s7.3,3.1,11,3.9c1.9,.4,3.7,.7,5.6,.7,1.8,0,3.7-.2,5.4-.8,1.7-.6,3.2-1.6,4.4-2.9l.8-1c.3-.3,.5-.7,.7-1.1,.5-.7,.8-1.5,1.1-2.3,.3-.8,.5-1.6,.8-2.4,.2-.8,.3-1.7,.5-2.5,.1-.8,.2-1.7,.3-2.5,.1-.8,.1-1.6,0-2.4-.3-3.2-1.2-6.3-1.9-9.2-.8-2.9-1.6-5.7-2.5-8.3-3.4-10.5-6.5-18.9-8.6-24.8-1.1-2.9-1.9-5.1-2.5-6.7-.3-.8-.5-1.3-.6-1.7s-.2-.6-.2-.6c0,0,.1,.2,.3,.6,.2,.4,.4,1,.7,1.7,.6,1.5,1.5,3.8,2.6,6.6,2.2,5.8,5.3,14.2,8.8,24.7,.8,2.6,1.7,5.4,2.5,8.3,.8,2.9,1.6,6,2,9.2,.1,.8,.1,1.7,0,2.5s-.1,1.7-.3,2.5c-.2,.8-.3,1.7-.5,2.5-.3,.8-.4,1.7-.8,2.5s-.7,1.6-1.2,2.4c-.2,.4-.4,.8-.7,1.1l-.9,1c-1.2,1.3-2.8,2.4-4.6,3-1.8,.6-3.7,.8-5.6,.8s-3.8-.3-5.7-.7c-3.8-.9-7.5-2.3-11.1-3.9-3.6-1.7-7.2-3.6-10.7-5.7-.9-.5-1.8-1.1-2.7-1.5-1-.4-1.9-.9-2.8-1.3-1.9-1-3.7-2-5.5-3.1-4.5-2.8-8.7-6.1-11.9-10.1-1.6-2-3-4.2-3.8-6.6-.4-1.2-.6-2.5-.8-3.7,0-1.3,0-2.5,.3-3.7,.1-.6,.3-1.2,.5-1.8s.4-1.2,.6-1.7c.3-.5,.5-1.1,.8-1.6,.1-.3,.3-.6,.4-.8l.5-.7c.4-.5,.6-1,1.1-1.4,.4-.4,.8-.9,1.2-1.3,.9-.8,1.8-1.5,2.8-2.1,4-2.4,8.7-3,13-2.6h.2c9,8,17.1,15.1,23.9,21.1l-.3,.2c-2.1-9.9-3.8-17.8-5-23.3-.6-2.7-1-4.8-1.3-6.3-.1-.7-.3-1.2-.3-1.6-.1-.2-.1-.4-.1-.4Z"/>
        </g>
        <path class="cls-10" d="M244.6,142.64h-15s-9.2,2-12.1,7.8c-2.9,5.9-8.8,16.1-8.8,16.1,0,0,19.8,19.8,19.8,19.1s12.1-26.6,23-29.7l-6.9-13.3Z"/>
        <path class="cls-16" d="M248.9,154.34c-.1,.1-1.1-1-2.8-2.6-1.7-1.6-4-3.8-7-5.6s-6.2-2.5-8.5-2.5-3.7,.5-3.7,.4c0,0,.3-.2,.9-.4,.6-.2,1.6-.4,2.7-.4,2.3-.1,5.6,.6,8.7,2.4,3.1,1.8,5.4,4.1,7,5.7,.8,.8,1.4,1.5,1.9,2,.6,.7,.8,1,.8,1Z"/>
        <path class="cls-16" d="M231.1,183.04s-.3-.1-.8-.4c-.5-.3-1.2-.7-2.1-1.3-1.8-1.1-4.1-2.9-6.4-5.1-2.3-2.2-4.1-4.4-5.3-6.1-.6-.9-1.1-1.6-1.4-2.1-.3-.5-.4-.8-.4-.8,.1,0,.8,1,2.1,2.6s3.1,3.8,5.4,6c2.3,2.2,4.5,3.9,6.2,5.1,1.7,1.3,2.7,2,2.7,2.1Z"/>
        <path class="cls-6" d="M260.6,165.74c.1,0-.4,1.1-1,3-.6,1.8-1.1,4.4-1,7.4,0,2.9,.6,5.5,1.2,7.3s1.1,2.9,1,2.9c0,0-.2-.2-.5-.7s-.6-1.2-.9-2.1c-.7-1.8-1.3-4.5-1.4-7.5,0-3,.6-5.7,1.2-7.5,.3-.9,.6-1.6,.9-2.1,.3-.4,.5-.7,.5-.7Z"/>
        <g>
          <path class="cls-4" d="M255.4,133.64c2.7-3.5,7.5-5.2,11.9-4.3"/>
          <path class="cls-6" d="M267.3,129.34c0,.1-.8-.1-1.9-.1-1.2,0-2.8,.2-4.5,.8s-3.1,1.5-4,2.3-1.4,1.3-1.4,1.3c0,0,.3-.7,1.2-1.6,.9-.9,2.3-1.9,4-2.5,1.8-.6,3.5-.8,4.7-.6,1.2,.1,1.9,.4,1.9,.4Z"/>
        </g>
      </g>
    </g>
  </g>
</svg>