<?xml version="1.0" encoding="UTF-8"?>
<svg id="_Layer_" data-name="&amp;lt;Layer&amp;gt;" xmlns="http://www.w3.org/2000/svg" viewBox="0 0 560.67 317.67">
  <defs>
    <style>
      .cls-1 {
        fill: #f4a269;
      }

      .cls-2 {
        fill: #f99746;
      }

      .cls-3 {
        fill: #ed985f;
      }

      .cls-4 {
        fill: #ed7d2b;
      }

      .cls-5 {
        fill: #f4f6f9;
      }

      .cls-6 {
        fill: #ef8bb8;
      }

      .cls-7 {
        fill: #ffb27d;
      }

      .cls-8 {
        fill: #6b88aa;
      }

      .cls-9 {
        fill: #c33070;
      }

      .cls-10 {
        fill: #cedbef;
      }

      .cls-11 {
        fill: #ce5999;
      }

      .cls-12 {
        fill: #d3671e;
      }

      .cls-13 {
        fill: #dd629f;
      }

      .cls-14 {
        fill: #163560;
      }

      .cls-15 {
        fill: #233862;
      }

      .cls-16 {
        fill: #1c468a;
      }

      .cls-17 {
        fill: #87a3cc;
      }

      .cls-18 {
        fill: #821252;
      }

      .cls-19 {
        fill: #2c3a64;
      }

      .cls-20 {
        fill: #3a5a89;
      }
    </style>
  </defs>
  <path class="cls-10" d="M549.88,315.5c-3.23,6.25,1.92-3.35,0,0-.54,.98,.61-.94,0,0l-531.18-1.31s-52.84-121.03,19.14-179.62c.89-.73,1.8-1.45,2.71-2.15,.84-.66,1.68-1.29,2.53-1.9,.82-.61,1.64-1.19,2.46-1.78,21.69-15.33,45.47-22.91,70.39-27.61,.89-.16,1.76-.33,2.64-.49,.84-.16,1.68-.3,2.5-.44,20.22-3.49,41.14-5.31,62.29-8.05,7.37-.96,14.77-2.01,22.18-3.28,29.65-5.08,59.46-13.62,88.15-32.5,35.4-23.28,45.51-29.04,75.93-17.92,2.01,.73,11.04,4.91,13.1,5.31,3.02,.61,13.99,7.58,16.24,9.59,13.76,12.29,19.23,17.55,25.53,30.75,7.72,16.19,3.11,36.64,7.79,51.55,2.18,6.9,6.01,32.46,19.35,42.68,0,0,3.49,6.81,28.06,17.06,16.4,6.86,15.14-1.01,37.28,7.75,15.35,6.08,22.37,20.43,32.97,31.4,.09,.09,6.88,16.4,6.9,16.57,3.81,26.23,7.56,36.32-6.97,64.4Z"/>
  <path class="cls-5" d="M556.41,304.5c-1.29,3.65-2.88,7.16-4.8,10.53h-197.78V36.62c3.02,.61,5.99,1.31,8.89,2.11,37.25,10.23,56.6,44.06,60.58,70.36,3.53,23.38,8.26,29.16,12.99,44.18,2.18,6.9,4.35,11.28,7.79,17.06,.94,1.57,1.92,3.09,2.95,4.56,10.27,14.53,25.86,24.1,49.61,25.69,16.52,1.1,30.44,8.52,41.02,19.47,.09,.09,.19,.21,.3,.3,20.47,21.43,28.36,56.16,18.44,84.15Z"/>
  <g>
    <path class="cls-8" d="M556.41,302.12c-1.66,4.68-3.81,9.17-6.51,13.38h-187.15v.02h-13.06V146.53h22.37v-46.4h22.37v62.71h18.11v-14.02h23.21c2.18,6.9,4.91,13.34,8.33,19.12v4.56h2.95c10.27,14.53,25.86,24.1,49.61,25.69,16.52,1.1,30.44,8.52,41.02,19.47,.09,.09,.19,.21,.3,.3,20.48,21.41,28.36,56.16,18.44,84.15Z"/>
    <g>
      <path class="cls-17" d="M362.72,36.34V315.53h-15.14V33.16c5.22,.77,10.27,1.85,15.14,3.18Z"/>
      <path class="cls-10" d="M349.67,315.53h13.06v-.02h187.15c2.69-4.21,4.84-8.7,6.51-13.38h-212.07v13.38l5.36,.02Z"/>
    </g>
  </g>
  <g>
    <path class="cls-19" d="M214.51,9.24c-.02-.75-.61-8.82-12.92-9.24,0,0,6.06,.73,7.09,3.39,0,0-4.12-3.3-7.49-2.22-3.35,1.05-5.34,6.93-5.36,8.87s1.85,8.17,3.98,8.7c.8,.21,1.73,.14,2.57,0-.56,.89-1.12,1.87-1.66,2.95-4.91,10.09,.16,19.94,4.31,18.84,2.67-.7,3.42,3.86,3.42,3.86l25.9-20.97c.07-.02-9.45-19.73-19.84-14.18Z"/>
    <path class="cls-3" d="M286.88,125.73c-1.24-1.24-8.8-.96-8.8-.96,0,0-4.17-1.66-9.29-3.91-7.11-3.16-16.08-7.42-18.04-9.57-4.54-5.03-9.99-21.95-15.12-33.11-.47-1.05-.91-2.04-1.38-3-.05-.09-.09-.21-.16-.28-.26-.47-.47-.87-.66-1.24,0-.05-.05-.09-.09-.12-.96-1.83-1.97-3.3-2.88-4.26v-.07c-1.12-1.22-2.2-1.71-3.21-1.29,0,0-1.97,1.01-3.95,3.37-.26,.21-.42,.47-.59,.7-1.22,1.54-2.36,3.58-3.09,6.15-.54,1.97-.84,4.21-.7,6.83,.16,4.28,2.29,9.66,5.34,15.07,.12,.26,.26,.49,.42,.75,5.83,10.2,14.79,20.4,20.24,23.73,3.58,2.2,12.57,3.53,20.15,4.28,5.03,.54,9.5,.8,11.33,.91,.8,.87,6.53,7.46,8.7,5.55,2.39-2.01,3.02-8.28,1.78-9.55Z"/>
    <path class="cls-15" d="M353.83,233.13l-27.71-2.18s-.66-4.24,.77-7.42c1.38-3.07-.51-5.29-2.41-8.96,1.76,1.83,7.82,1.54,11.84,1.01,.49,.8,5.43,8.12,7.07,9.29,1.8,1.31,9.87,3.02,10.44,8.26Z"/>
    <path class="cls-15" d="M321.28,230.96h-27.71s-.66-4.24,.77-7.42c1.38-3.07,3.81-6.36,1.9-10.04,1.76,1.83,7.32,1.61,11.33,1.08,.49,.8-1.85,5.99,3.25,10.32,1.73,1.4,9.9,.82,10.46,6.06Z"/>
    <path class="cls-14" d="M316.7,132.44s-9.2-3.7-21.79,9.1c-24.17,19.59-55.2,69.38-58.13,72.89-5.85,7-1.33,16.75,22.56,16.52,13.97-.14,22.51-6.55,26.35-12.31,1.03-1.54,4.77-8.54,9.36-17.92-.14,9.43-.19,16.26-.19,16.26-.73,6.67,14.3,4.84,14.3,4.84,25.41-85.13,7.53-89.39,7.53-89.39Z"/>
    <path class="cls-5" d="M304.32,101.46c-1.4-2.81-4.02-4.77-6.01-5.94,.82-.19,1.92,.28,1.92,.28-1.05-.96-4.47-1.57-4.47-1.57-12.17-17.32-30.93,5.1-34.35,10.95-3.42,5.85-7.7,12.33-19.26,11.86-22.74-.89-24.2,22-19.54,33.7,.07,.16,11.21,19.91,11.21,19.91,2.62-4.82,26.23-25.23,41.96-25.08,5.29-2.13,10.86-8.4,11.3-8.92-4.14,5.17-7.14,7.63-9.13,8.8,14.93-2.29,30.09-36.55,26.37-43.99Z"/>
    <path class="cls-1" d="M276.7,145.6s-2.06,7.82-8.35,4.42c-4.14-2.22-10.76-11.77-8.21-15,1.22-1.54,6.58-4.45,12.14-14.32l.68,.59,11.26,9.73s-2.57,3.84-4.7,7.58c-1.83,3.14-3.35,6.25-2.81,7Z"/>
    <path class="cls-5" d="M272.54,118.83s.21-8,2.57-13.38c1.68-3.84,11.96-15.4,23.52-4.98,0,0,3.46,2.85,5.38,7.56,1.52,3.74,2.81,10.46-9.1,18.56l-3.67,2.97-18.7-10.72Z"/>
    <path class="cls-9" d="M257.4,130.78s4.14,.8,5.87-1.54c1.76-2.34,5.55-7.3,6.44-4.45s9.29,11.12,11.23,11.33,3.3,.75,2.2,1.78c-1.1,1.01-.63,5.03-1.73,5.41-1.08,.35-21.48-12.73-24.01-12.52Z"/>
    <path class="cls-7" d="M283.4,136.45s-16.24-10.51-9.55-20.5c6.69-10.02,9.1-18.11,19.75-11.82,10.65,6.27,10.09,11.44,8.66,15.33-1.4,3.86-14.46,19.47-18.86,16.99Z"/>
    <path class="cls-9" d="M284.22,144.57s-27.5-20.26-37.11-12.64c-14.2,11.26-11.35,49.26-14.65,54.19-3.3,4.94-21.88,40.41,8.33,44.02,30.21,3.6,37.16-15.44,38.54-29.72,1.36-14.3,4.89-55.86,4.89-55.86Z"/>
    <path class="cls-18" d="M248.02,144.31s-7.91,43.76,7.77,55.72c15.7,11.96,23.61-57.07-7.77-55.72Z"/>
    <path class="cls-18" d="M263.81,137.31s.3-5.12,4.82-3.16c4.52,1.97,12.87,4.89,16.1,3.67,3.23-1.19-5.19,14.98-12.89,9.55-7.72-5.41-8.03-10.06-8.03-10.06Z"/>
    <path class="cls-5" d="M301.09,108.76s-12.26,8.8-20.17,5.99c-7.91-2.78-9.62-6.55-9.62-6.55,0,0,7.93-.63,13.81-7.09,0,0,16.43-.16,15.98,7.65Z"/>
    <path class="cls-7" d="M322.01,165.81s6.22,2.71,4.98,9.85c-1.24,7.14-3.7,4.75-3.7,4.75l-1.29-14.6Z"/>
    <path class="cls-5" d="M299.36,108.97s1.52,4.82,.63,7.91c-.91,3.09-4.07,8.56-2.41,9.41,0,0,8.66-5.76,7.96-12.75-.75-7.42-6.18-4.56-6.18-4.56Z"/>
    <path class="cls-16" d="M229.04,214.44c3.67-4.4,52.11-89.08,72.28-87.94,30.33,1.71-22.67,86.28-26.4,91.87-3.84,5.76-9.34,12.45-23.31,12.59-23.89,.23-28.41-9.52-22.58-16.52Z"/>
    <path class="cls-16" d="M309.84,132.44s1.22,1.12,28.64,85.48c0,0-11.44,8.28-13.99,2.08,0,0-36.97-55.48-28.27-65.26,8.7-9.76,13.62-22.3,13.62-22.3Z"/>
    <path class="cls-3" d="M245.75,135.02s-7.25,11.19,15.28,21.46c22.53,10.27,25.18,12.78,29.58,13.69,6.83,1.43,33.13,1.22,33.13,1.22,0,0,.68-4.17-1.73-5.57-3.88-2.25-26.25-5.92-29.27-7.11-3.04-1.22-35.22-35.8-46.99-23.68Z"/>
    <path class="cls-20" d="M223.54,306.26l-5.5,2.06s-23.89-33.16-26.84-62.31c-.51-5.22-.35-10.25,.8-14.91,0,0-.23-1.33-.63-3.7-.19-1.1-.42-2.43-.68-3.95-.77-4.45-1.85-10.55-3.07-17.48-2.81-15.96-6.46-36.36-9.29-51.36l1.47-.47,16.05-5.17,3.32-10.53,11.96-3.14s2.67,5.22,5.05,29.88c.44,3.23,.84,6.81,1.15,10.67,.94,11.82,1.01,26.47-1.15,43.2-.54,4.28-1.24,8.7-2.11,13.27-.63,3.32-.73,7.89-.47,13.08,1.17,23.82,9.92,60.86,9.92,60.86Z"/>
    <path class="cls-15" d="M217.27,175.83l-25.93,51.57c-.19-1.1-.42-2.43-.68-3.95-.77-4.45-1.85-10.55-3.07-17.48-2.81-15.96-6.46-36.36-9.29-51.36l1.47-.47,16.05-5.17,3.32-10.53,11.96-3.14s2.67,5.22,5.05,29.88c.4,3.21,.8,6.79,1.1,10.65Z"/>
    <path class="cls-20" d="M205.87,141.9l-.61-5.15c-10.06,2.67-36.95-7.46-36.95-7.46,0,0-9.76,8.56-8.47,29.11,.63,10.02,1.76,52.63,2.95,65.22,.42,4.56,.82,7.82,.96,9.13v.02c.05,.4-.09,.77-.28,1.12-1.76,2.97-3.21,6.08-4.4,9.24-11.7,31.17,1.8,69.54,1.8,69.54l3.51-1.4s7.68-42.71,13.92-61.59c1.05-3.21,2.08-5.71,3-7.21,2.71-4.38,5.24-11.54,7.51-20.05,4.33-16.1,7.79-37.02,10.11-53.19,.35,0,6.95-27.33,6.95-27.33Z"/>
    <path class="cls-7" d="M225.08,79.42c-3.16,1.47-6.97,2.46-11.58,2.71-17.29,.96-21.22-14.23-21.95-24.29,2.5-.91,4.68-.82,5.94-.75,1.22,.07,2.5,.19,3.56,.33,2.11-1.1,5.92-6.48,8.12-15.44l.75,.35,12.47,5.87s-1.33,4.07-2.29,7.96c-.77,3.04-1.31,5.99-.84,6.81,.98,.4,1.57,.66,1.57,.66v.02c.12,.28,2.83,7.18,4.26,15.77Z"/>
    <path class="cls-3" d="M222.39,48.2s-1.33,4.05-2.29,7.96c-7.3-2.04-9.5-9.71-10.18-13.81l12.47,5.85Z"/>
    <path class="cls-7" d="M223.94,52.49s-17.46-4.05-14.77-14.86c2.69-10.83,2.25-18.65,13.5-16.52,11.26,2.13,12.4,6.79,12.38,10.62-.05,3.81-6.51,21.53-11.12,20.76Z"/>
    <path class="cls-9" d="M252.13,130.22s11.51,.47,35.5,22.58c0,0,3.67,4.47,5.5,4.75,1.83,.3,6.79,1.59,6.88,2.85,.12,1.26-6.08,17.06-13.99,17.5-7.89,.44-44.9-26.72-42.31-35.87,2.62-9.13,8.42-11.82,8.42-11.82Z"/>
    <path class="cls-19" d="M236.01,25.58c-1.87-3.93-4.1-3.72-5.48-3.02-8.19-7.58-16.24-1.38-16.24-1.38-3.09,7.49-9.8,10.53-9.8,10.53,0,0,2.69,2.74,10.46,2.69,2.36-.02,4.75-1.1,6.93-2.62-4.19,4.21-9.1,6.79-9.1,6.79,9.73-1.87,16.26-13.13,16.92-14.32,.82,1.22,2.41,3.81,2.53,5.99,.19,2.97-.84,8.75,.87,8.96,0,0,5.73-7.75,2.93-13.62Z"/>
    <path class="cls-2" d="M235.68,78.16c-.63-1.9-4.82-9.22-4.82-9.22h0s-2.67-2.46-10.04-5.34v.02c.12,.42,3.28,11.84,2.11,14.27-1.17,2.48-23.28-5.52-24.48-7.35-.96-1.47-.98-9.2-.96-12.21,0-.75,.02-1.22,.02-1.22,0,0-8.26-1.12-12.89,.75,0,0,1.83,3.98,2.5,8.38,.07,.42,.12,.84,.16,1.26,.09,.89,.12,1.78,.07,2.64-.07,1.15-.66,2.15-1.59,3.14-.84,.91-2.01,1.8-3.32,2.76-.87,.61-1.78,1.26-2.74,1.97h0c-.07,5.17,.28,13.67-.68,22.74-.23,2.29-1.01,4.49-2.2,6.46-.47,.77-1.03,1.52-1.64,2.2-4.87,5.48-13.53,16.36-11.63,23.14,.14,6.39,54.1,14.81,52.95,7.77,0,0,8.12-39.08,12.5-48.51,.16-.35,.3-.68,.42-1.03,1.4-3.72,1.17-7.56,.7-10.97,2.43-1.78,5.55-1.66,5.55-1.66Z"/>
    <path class="cls-4" d="M201.96,127.18c-10.65-.12-19.66-11.16-25.16-20.01,1.19-1.94,1.97-4.14,2.2-6.46,.96-9.08,.59-17.57,.68-22.74h0c.96-.7,1.87-1.36,2.74-1.97,1.31-.96,2.48-1.85,3.32-2.76,8.7,14.77,30.63,54.1,16.22,53.94Z"/>
    <path class="cls-7" d="M261.35,135.49s-6.9-4.96-11.04-4c-3.67,.84-11.49-.84-13.03-1.17-1.83-1.01-4.05-2.2-6.36-3.53-5.62-3.16-12.07-7.04-16.5-10.25-2.55-1.83-4.45-3.46-5.12-4.63-1.03-1.8-2.2-4.63-3.51-8.12-.66-1.83-1.38-3.84-2.08-5.97-1.24-3.49-2.5-7.28-3.79-11.07-2.34-6.9-4.82-13.88-7.21-19.23-1.54-3.37-3.04-6.15-4.45-7.86-1.12-1.38-2.2-2.08-3.25-1.92-.16,.05-.28,.09-.42,.12,0,0-5.99,1.66-6.08,13.74-.05,.68,0,1.38,.05,2.13,.09,2.13,.49,4.7,1.12,7.53,1.01,4.75,2.67,10.25,4.75,15.82,.59,1.5,1.17,3.04,1.8,4.59,4.49,11.16,10.3,21.57,15.16,25.11,.21,.16,.37,.28,.59,.42,2.04,1.29,5.03,2.57,8.49,3.79,4.91,1.66,10.74,3.16,15.96,4.42h.05c3.04,.66,5.83,1.29,8.17,1.76,0,0,.49,.12,1.38,.28,2.2,.54,6.74,1.71,11.04,3.37,5.99,2.36,9.73-1.54,12.4-2.67,2.64-1.08,1.9-2.64,1.9-2.64Z"/>
    <path class="cls-2" d="M192.7,67.53c-8.03-2.2-14.2,4.05-14.2,4.05,.09-12.05,6.11-13.71,6.11-13.71,2.41-1.01,5.22,3.18,8.1,9.66Z"/>
    <path class="cls-15" d="M181.26,315.5h-27.71s-.66-4.24,.77-7.42c1.38-3.07,3.56-4.47,3.04-8.19,1.76,1.83,4.63,3.84,8.63,3.3,.49,.8,3.16,5.05,4.82,6.22,1.8,1.31,9.87,.84,10.44,6.08Z"/>
    <path class="cls-15" d="M240.76,315.5h-27.71s-1.03-4.42,.77-7.42c1.61-2.67,.98-4.19-.21-6.39,1.26,.51,2.88,.98,4.66,.89,1.38-.07,2.83-.7,4.12-1.45,1.19,1.36,6.29,7.16,7.89,8.31,1.85,1.29,9.92,.82,10.48,6.06Z"/>
  </g>
  <g>
    <rect class="cls-6" x="205.92" y="233.74" width="101.46" height="81.76"/>
    <rect class="cls-6" x="266.31" y="233.74" width="91.8" height="81.76"/>
    <g>
      <path class="cls-12" d="M283.28,247.85c-.94,0-1.68,.73-1.68,1.64s.75,1.64,1.68,1.64,1.68-.73,1.68-1.64-.75-1.64-1.68-1.64Z"/>
      <path class="cls-11" d="M343.35,249.47c0-.89,.75-1.64,1.68-1.64s1.68,.73,1.68,1.64-.75,1.64-1.68,1.64-1.68-.73-1.68-1.64Z"/>
      <path class="cls-12" d="M283.28,299.36c-.94,0-1.68,.73-1.68,1.64s.75,1.64,1.68,1.64,1.68-.73,1.68-1.64-.75-1.64-1.68-1.64Z"/>
      <path class="cls-12" d="M343.35,300.97c0-.89,.75-1.64,1.68-1.64s1.68,.73,1.68,1.64-.75,1.64-1.68,1.64-1.68-.73-1.68-1.64Z"/>
    </g>
    <g>
      <path class="cls-11" d="M215.47,249.47c0-.89,.47-1.64,1.05-1.64s1.05,.73,1.05,1.64-.47,1.64-1.05,1.64-1.05-.73-1.05-1.64Z"/>
      <path class="cls-11" d="M253.73,249.47c0-.89,.47-1.64,1.05-1.64s1.05,.73,1.05,1.64-.47,1.64-1.05,1.64-1.05-.73-1.05-1.64Z"/>
      <path class="cls-11" d="M215.47,300.97c0-.89,.47-1.64,1.05-1.64s1.05,.73,1.05,1.64-.47,1.64-1.05,1.64-1.05-.73-1.05-1.64Z"/>
      <ellipse class="cls-11" cx="254.76" cy="300.97" rx="1.05" ry="1.64"/>
    </g>
    <path class="cls-13" d="M205.92,233.88s13.78-12.73,22.89-8.85c11.98,5.1,40.27,3.7,47.43,2.36,7.14-1.31,62.95,2.62,81.88,6.34l-152.19,.14Z"/>
    <path class="cls-11" d="M358.11,294.07v21.46h-91.8v-81.76h15.4l.3,.14s8.24,55.43,76.1,60.16Z"/>
  </g>
  <g>
    <path class="cls-15" d="M380.46,243.92s-18.65-2.64-19.75-5.66c0,0,1.29-2.71-.75-3.44-.54-.19-1.47-.54-1.9-.02l.02,5.55s2.01,1.97,3.14,3.53c.63,.87,12.68,5.92,12.68,5.92l6.55-5.87Z"/>
    <path class="cls-15" d="M418.91,284.66c1.78-2.55-.07-20.62-12.8-15.14-2.71,.82-5.97,2.78-9.85,6.34,0,0-5.59,13.17,16.47,21.9,0,0,2.18,.94,2.5,2.95,.3,2.01,.66,11.09-.09,11.35-.75,.28-1.85-.77-2.67,.37s-.51,3.04-.51,3.04h8.03s3.84-20.36,3.63-21.97c-.26-1.59-6.81-5.8-4.7-8.85Z"/>
    <path class="cls-15" d="M387.43,210.86s4.24,8.89,1.9,11.56l-6.6-5.29s0-2.62,4.7-6.27Z"/>
    <path class="cls-5" d="M432.9,258.78c-1.73-3.14-4.33-8.38-.91-10.53,2.93-1.83,1.8-5.64,.12-6.55-3.56-1.92-7.16,.51-8.85,2.88-3.23,4.52,1.05,11.56,1.05,11.56,4.05,8.7-4.28,13.24-8.28,14.86-2.29-3.42-4.66-5.97-6.76-7.96-1.38-1.31-2.64-2.39-3.72-3.3-11.3-9.66-8.56-13.2-11.23-17.53-.51-.87-2.6-3.21-3.16-3.95-.54-.75-.75-3.39-.82-5.71,1.26-1.08,1.4-2.29,1.4-2.29,.12,.49,0,1.01,0,1.01,1.31-1.08,1.01-3.53,1.01-3.53,.28,.35,.4,1.12,.4,1.12,.66-3.84-1.68-6.95-1.71-6.97,.42-3.6-2.57-9.85-2.57-9.85-2.18,1.68-3.35,3.16-3.98,4.26-2.04-.61-4.45-.59-6.97,1.9-.77,.75-3.07,1.38-4.14,1.24-.59-.07-1.94,2.9-2.01,3.32-.59,4.52,.84,6.74,3.42,9.06,.35,1.01,.63,2.39,0,3.3,0,0,.54-.21,.61-.4-.05,.23-.35,1.66-1.12,2.29,0,0,.35-.05,.51-.12-.68,.87-3.25,4.42-3.21,8.8-5.41,.05-10.55-.28-11.07-1.66,0,0,1.17-2.29-.75-3.44-.49-.3-1.36-.51-2.11-.49l-.09,6.22s2.34,1.76,3.49,3.32c.4,.54,7.96,3.95,13.62,6.46,3.3,14.3,13.88,22.56,17.39,24.94,.51,4.38,3.09,10.04,10.53,16.66,0,0,1.73,1.64,1.33,3.63s-3.18,10.62-3.98,10.62-3.46-1.15-4.61-.35,.44,3.91,.44,3.91h8.1s10.02-16.47,10.37-18.09c.35-1.59-4.35-7.79-1.33-9.92,1.29-.91,3.09-5.92,2.71-10.51,4.02-1.36,22.32-8.38,16.89-18.21Z"/>
    <path class="cls-14" d="M373.6,219.42s.37-.26,.75-.05c0,0-.09,1.5-1.57,1.59,0,0,.42-1.31,.82-1.54Z"/>
    <path class="cls-14" d="M376.29,222.79s5.55,2.06,9.5,6.6h0c-4-4.61-9.38-6.76-9.43-6.76l-.07,.16Z"/>
    <path class="cls-14" d="M375.78,223.19c.07,.05,5.83,3.95,9.08,10.3h0c-3.32-6.46-8.92-10.44-8.96-10.48l-.12,.19Z"/>
    <path class="cls-14" d="M375.2,223.66s4.1,4.28,5.66,10.09h0c-1.59-5.9-5.5-10.18-5.55-10.23l-.12,.14Z"/>
    <path class="cls-15" d="M388.88,212.03s.3,6.88,.98,8.14,1.57,1.71,1.57,1.71c.44-3.6-2.55-9.85-2.55-9.85Z"/>
  </g>
</svg>