<?xml version="1.0" encoding="UTF-8"?>
<svg id="Calque_1" data-name="Calque 1" xmlns="http://www.w3.org/2000/svg" xmlns:xlink="http://www.w3.org/1999/xlink" viewBox="0 0 219.06 145.11">
  <defs>
    <style>
      .cls-1 {
        fill: none;
      }

      .cls-2 {
        fill: #f3f5f8;
      }

      .cls-3 {
        fill: #f28d49;
      }

      .cls-4 {
        fill: #eaac8b;
      }

      .cls-5 {
        fill: #eacdc2;
      }

      .cls-6 {
        fill: #f1e3d3;
      }

      .cls-7 {
        fill: #f2d0a9;
      }

      .cls-8 {
        fill: #7c899b;
      }

      .cls-9 {
        fill: #b56576;
      }

      .cls-10 {
        fill: #b75d69;
      }

      .cls-11 {
        fill: #8da1c8;
      }

      .cls-12 {
        fill: #a5b8d6;
      }

      .cls-13 {
        fill: #a7336e;
      }

      .cls-14 {
        fill: #d88c9a;
      }

      .cls-15 {
        fill: #c1729d;
      }

      .cls-16 {
        fill: #df731c;
      }

      .cls-17 {
        fill: #d0d9ed;
      }

      .cls-18 {
        fill: #d789b4;
      }

      .cls-19 {
        fill: #372549;
      }

      .cls-20 {
        fill: #6f1951;
      }

      .cls-21 {
        fill: #586fa9;
      }

      .cls-22 {
        fill: #382b31;
      }

      .cls-23 {
        fill: #2e203f;
      }

      .cls-24 {
        fill: url(#Dégradé_sans_nom_18);
      }

      .cls-25 {
        fill: url(#Dégradé_sans_nom_17);
      }

      .cls-26 {
        fill: url(#Dégradé_sans_nom_15);
      }

      .cls-26, .cls-27, .cls-28, .cls-29, .cls-30, .cls-31, .cls-32, .cls-33, .cls-34, .cls-35, .cls-36, .cls-37, .cls-38, .cls-39, .cls-40, .cls-41, .cls-42 {
        isolation: isolate;
      }

      .cls-26, .cls-27, .cls-39, .cls-40, .cls-41, .cls-42 {
        opacity: .76;
      }

      .cls-27 {
        fill: url(#Dégradé_sans_nom_10);
      }

      .cls-28 {
        fill: url(#Dégradé_sans_nom_11);
      }

      .cls-28, .cls-29, .cls-34, .cls-36, .cls-37, .cls-38 {
        opacity: .57;
      }

      .cls-29 {
        fill: url(#Dégradé_sans_nom_12);
      }

      .cls-30 {
        fill: url(#Dégradé_sans_nom_14);
      }

      .cls-30, .cls-31, .cls-32, .cls-33 {
        opacity: .46;
      }

      .cls-31 {
        fill: url(#Dégradé_sans_nom_13);
      }

      .cls-32 {
        fill: url(#Dégradé_sans_nom_16);
      }

      .cls-33 {
        fill: url(#Dégradé_sans_nom_19);
      }

      .cls-34 {
        fill: url(#Dégradé_sans_nom);
      }

      .cls-35 {
        fill: url(#Dégradé_sans_nom_4);
        opacity: .41;
      }

      .cls-36 {
        fill: url(#Dégradé_sans_nom_7);
      }

      .cls-37 {
        fill: url(#Dégradé_sans_nom_3);
      }

      .cls-38 {
        fill: url(#Dégradé_sans_nom_8);
      }

      .cls-39 {
        fill: url(#Dégradé_sans_nom_5);
      }

      .cls-40 {
        fill: url(#Dégradé_sans_nom_2);
      }

      .cls-41 {
        fill: url(#Dégradé_sans_nom_9);
      }

      .cls-42 {
        fill: url(#Dégradé_sans_nom_6);
      }
    </style>
    <linearGradient id="Dégradé_sans_nom" data-name="Dégradé sans nom" x1="71.79" y1="78.82" x2="83.59" y2="59.21" gradientTransform="translate(.03 138.51) rotate(1.51) scale(1 -1)" gradientUnits="userSpaceOnUse">
      <stop offset="0" stop-color="#d88c9a" stop-opacity="0"/>
      <stop offset="1" stop-color="#b56576" stop-opacity=".4"/>
    </linearGradient>
    <linearGradient id="Dégradé_sans_nom_2" data-name="Dégradé sans nom 2" x1="86.23" y1="102.01" x2="86.23" y2="104.94" gradientTransform="translate(.03 138.51) rotate(1.51) scale(1 -1)" gradientUnits="userSpaceOnUse">
      <stop offset="0" stop-color="#d88c9a" stop-opacity="0"/>
      <stop offset="1" stop-color="#b56576" stop-opacity=".4"/>
    </linearGradient>
    <linearGradient id="Dégradé_sans_nom_3" data-name="Dégradé sans nom 3" x1="88.67" y1="106.86" x2="82.89" y2="112.63" gradientTransform="translate(.03 138.51) rotate(1.51) scale(1 -1)" gradientUnits="userSpaceOnUse">
      <stop offset="0" stop-color="#d88c9a" stop-opacity="0"/>
      <stop offset="1" stop-color="#b56576" stop-opacity=".4"/>
    </linearGradient>
    <linearGradient id="Dégradé_sans_nom_4" data-name="Dégradé sans nom 4" x1="78.01" y1="107.04" x2="81" y2="110.03" gradientTransform="translate(.03 138.51) rotate(1.51) scale(1 -1)" gradientUnits="userSpaceOnUse">
      <stop offset="0" stop-color="#d88c9a" stop-opacity="0"/>
      <stop offset="1" stop-color="#b56576" stop-opacity=".4"/>
    </linearGradient>
    <linearGradient id="Dégradé_sans_nom_5" data-name="Dégradé sans nom 5" x1="82.21" y1="110.88" x2="82.21" y2="107.91" gradientTransform="translate(.03 138.51) rotate(1.51) scale(1 -1)" gradientUnits="userSpaceOnUse">
      <stop offset="0" stop-color="#d88c9a" stop-opacity="0"/>
      <stop offset="1" stop-color="#b56576" stop-opacity=".4"/>
    </linearGradient>
    <linearGradient id="Dégradé_sans_nom_6" data-name="Dégradé sans nom 6" x1="152.76" y1="100.96" x2="148.41" y2="107.11" gradientTransform="translate(0 143.73) scale(1 -1)" gradientUnits="userSpaceOnUse">
      <stop offset="0" stop-color="#d88c9a" stop-opacity="0"/>
      <stop offset="1" stop-color="#b56576" stop-opacity=".4"/>
    </linearGradient>
    <linearGradient id="Dégradé_sans_nom_7" data-name="Dégradé sans nom 7" x1="150.49" y1="106.41" x2="144.29" y2="112.62" gradientTransform="translate(.03 138.51) rotate(1.51) scale(1 -1)" gradientUnits="userSpaceOnUse">
      <stop offset="0" stop-color="#d88c9a" stop-opacity="0"/>
      <stop offset="1" stop-color="#b56576" stop-opacity=".4"/>
    </linearGradient>
    <linearGradient id="Dégradé_sans_nom_8" data-name="Dégradé sans nom 8" x1="145.41" y1="108.29" x2="140.23" y2="113.47" gradientTransform="translate(0 143.73) scale(1 -1)" gradientUnits="userSpaceOnUse">
      <stop offset="0" stop-color="#d88c9a" stop-opacity="0"/>
      <stop offset="1" stop-color="#b56576" stop-opacity=".4"/>
    </linearGradient>
    <linearGradient id="Dégradé_sans_nom_9" data-name="Dégradé sans nom 9" x1="144.52" y1="67.29" x2="137.56" y2="77.59" gradientTransform="translate(0 143.73) scale(1 -1)" gradientUnits="userSpaceOnUse">
      <stop offset="0" stop-color="#d88c9a" stop-opacity="0"/>
      <stop offset="1" stop-color="#b56576" stop-opacity=".4"/>
    </linearGradient>
    <linearGradient id="Dégradé_sans_nom_10" data-name="Dégradé sans nom 10" x1="197.96" y1="97.26" x2="191.69" y2="98.63" gradientTransform="translate(0 143.73) scale(1 -1)" gradientUnits="userSpaceOnUse">
      <stop offset="0" stop-color="#d88c9a" stop-opacity="0"/>
      <stop offset="1" stop-color="#b56576" stop-opacity=".4"/>
    </linearGradient>
    <linearGradient id="Dégradé_sans_nom_11" data-name="Dégradé sans nom 11" x1="195.68" y1="99.87" x2="188.77" y2="106.78" gradientTransform="translate(.03 138.51) rotate(1.51) scale(1 -1)" gradientUnits="userSpaceOnUse">
      <stop offset="0" stop-color="#d88c9a" stop-opacity="0"/>
      <stop offset="1" stop-color="#b56576" stop-opacity=".4"/>
    </linearGradient>
    <linearGradient id="Dégradé_sans_nom_12" data-name="Dégradé sans nom 12" x1="190.31" y1="99.63" x2="184.46" y2="105.48" gradientTransform="translate(0 143.73) scale(1 -1)" gradientUnits="userSpaceOnUse">
      <stop offset="0" stop-color="#d88c9a" stop-opacity="0"/>
      <stop offset="1" stop-color="#b56576" stop-opacity=".4"/>
    </linearGradient>
    <linearGradient id="Dégradé_sans_nom_13" data-name="Dégradé sans nom 13" x1="109.1" y1="18.19" x2="109.1" y2="48.59" gradientTransform="translate(0 143.73) scale(1 -1)" gradientUnits="userSpaceOnUse">
      <stop offset=".01" stop-color="#99c1b9" stop-opacity="0"/>
      <stop offset="1" stop-color="#372549" stop-opacity=".3"/>
    </linearGradient>
    <linearGradient id="Dégradé_sans_nom_14" data-name="Dégradé sans nom 14" x1="50.02" y1="40.37" x2="62.09" y2="40.37" gradientTransform="translate(0 143.73) scale(1 -1)" gradientUnits="userSpaceOnUse">
      <stop offset=".01" stop-color="#99c1b9" stop-opacity="0"/>
      <stop offset="1" stop-color="#372549" stop-opacity=".3"/>
    </linearGradient>
    <linearGradient id="Dégradé_sans_nom_15" data-name="Dégradé sans nom 15" x1="39.9" y1="99.31" x2="40.87" y2="103.26" gradientTransform="translate(0 143.73) scale(1 -1)" gradientUnits="userSpaceOnUse">
      <stop offset="0" stop-color="#d88c9a" stop-opacity="0"/>
      <stop offset="1" stop-color="#b56576" stop-opacity=".3"/>
    </linearGradient>
    <linearGradient id="Dégradé_sans_nom_16" data-name="Dégradé sans nom 16" x1="49.15" y1="107.38" x2="47.84" y2="106.21" gradientTransform="translate(0 143.73) scale(1 -1)" gradientUnits="userSpaceOnUse">
      <stop offset="0" stop-color="#d88c9a" stop-opacity="0"/>
      <stop offset="1" stop-color="#b56576" stop-opacity=".3"/>
    </linearGradient>
    <linearGradient id="Dégradé_sans_nom_17" data-name="Dégradé sans nom 17" x1="45.75" y1="105.65" x2="47.91" y2="105.65" gradientTransform="translate(0 143.73) scale(1 -1)" gradientUnits="userSpaceOnUse">
      <stop offset="0" stop-color="#d88c9a" stop-opacity="0"/>
      <stop offset="1" stop-color="#b56576" stop-opacity=".3"/>
    </linearGradient>
    <linearGradient id="Dégradé_sans_nom_18" data-name="Dégradé sans nom 18" x1="45.77" y1="104.51" x2="47.52" y2="104.51" gradientTransform="translate(0 143.73) scale(1 -1)" gradientUnits="userSpaceOnUse">
      <stop offset="0" stop-color="#d88c9a" stop-opacity="0"/>
      <stop offset="1" stop-color="#b56576" stop-opacity=".3"/>
    </linearGradient>
    <linearGradient id="Dégradé_sans_nom_19" data-name="Dégradé sans nom 19" x1="40.74" y1="103.7" x2="47.79" y2="110.59" gradientTransform="translate(-4.59 142.47) rotate(1.75) scale(1 -1)" gradientUnits="userSpaceOnUse">
      <stop offset="0" stop-color="#d88c9a" stop-opacity="0"/>
      <stop offset="1" stop-color="#b56576" stop-opacity=".3"/>
    </linearGradient>
  </defs>
  <g id="OBJETCS">
    <path class="cls-17" d="M0,145.11v-51.56c-.21-12.16,5.74-23.39,11.68-34.03l1.29-2.28c4.35-7.81,1.83-14.36,2.16-23.3v-4.65C15.8,11.56,35.32,0,53.04,0h29.49c7.51,0,14.69,2.94,20.03,8.2l3.78,3.72c3.75,3.69,8.8,5.74,14.05,5.74h50.75c8.14,0,16.28,.87,24.24,2.61h0c12.76,2.79,23.67,13.36,23.67,26.43v98.38H0v.03Z"/>
    <ellipse class="cls-8" cx="109.77" cy="123.52" rx="102.02" ry="12.94"/>
    <g>
      <g>
        <g>
          <path class="cls-19" d="M108.39,52.08l-1.2,15.62c-.03,.57-.3,1.08-.69,1.44-.06,.06-.15,.12-.21,.18-.42,.3-.93,.48-1.5,.42l-26.28-2.1,.78-19.4,27,1.41c.36,.03,.69,.12,.96,.27,.15,.09,.3,.18,.42,.3,.48,.48,.78,1.14,.72,1.86Z"/>
          <path class="cls-5" d="M106.5,69.13c-.06,.06-.15,.12-.21,.18,.57-2.7,1.65-15.92,1.53-17.93-.03-.66-.27-1.11-.57-1.44,.15,.09,.3,.18,.42,.3,.18,.3,.3,.66,.3,1.14,.12,1.59-.84,14.51-1.47,17.75Z"/>
        </g>
        <g>
          <path class="cls-19" d="M70.55,84.63l25.11,.66c.21,0,.42-.03,.6-.12l6.88-3.42c.42-.21,.27-.78-.24-.81l-23.18-.6-9.16,4.29Z"/>
          <path class="cls-19" d="M97.22,113.97c-.09,0-.18-.06-.18-.15l-1.5-29.16c0-.09,.06-.18,.15-.18s.18,.06,.18,.15l1.5,29.16c.03,.09-.06,.15-.15,.18h0Z"/>
          <path class="cls-19" d="M107.04,105.05c-.09,0-.15-.06-.18-.15l-4.62-23.36c-.03-.09,.03-.18,.15-.21,.09-.03,.18,.03,.21,.15l4.62,23.36c.03,.09-.03,.18-.15,.21,0-.03,0,0-.03,0Z"/>
          <path class="cls-19" d="M95.78,89.11h0l-22.76-.24c-.09,0-.18-.09-.18-.18s.09-.18,.18-.18h0l22.73,.24,7.24-3.93c.09-.06,.18,0,.24,.06,.06,.09,0,.18-.06,.24l-7.27,3.96c-.06,.03-.09,.03-.12,.03Z"/>
          <path class="cls-19" d="M101.9,81.09l-.3-.18c2.07-3.57,1.89-12.01,1.89-12.1h.33c0,.33,.21,8.62-1.92,12.28Z"/>
        </g>
      </g>
      <g>
        <g>
          <path class="cls-10" d="M70.34,107.57l-.54,1.95s1.92,1.47,3.24,.54l.6-1.53-3.3-.96Z"/>
          <g>
            <path class="cls-23" d="M73.22,113.13v.09c-.03,.15-.03,.27-.06,.39-.03,.12-.12,.21-.21,.27-.84,.39-4.38,2.1-5.5,2.7-1.02,.57-5.08,.69-4.78-.9,.03-.09,.06-.21,.12-.33,.03-.03,.03-.09,.06-.12h0c.33-.57,1.05-1.29,1.92-2.07,.03-.03,.06-.03,.06-.06,.69-.63,1.47-1.23,2.16-1.8h0s.06-.06,.09-.06c.45-.36,.87-.66,1.23-.93,.03-.03,.06-.03,.09-.06,.6-.42,.96-.72,.96-.72,0,0,.57-1.05,1.5-.84,.96,.21,1.02,1.5,1.02,1.5,0,0,.81,.12,1.26-.45,0,0,.03,.24,.06,.63v.12h0c.06,.72,.09,1.77,0,2.64Z"/>
            <path class="cls-6" d="M73.22,113.13v.09c-.42,.27-.87,.51-1.29,.75h-.03c-.75,.42-1.5,.81-2.28,1.2-.9,.42-1.86,.87-2.85,1.11-.57,.12-1.11,.18-1.65,.18-.51,0-.96-.09-1.41-.24-.21-.06-.48-.18-.69-.39-.15-.15-.24-.3-.27-.48,.03-.03,.03-.09,.06-.12,0,.18,.09,.39,.24,.54,.21,.18,.45,.3,.66,.36,.87,.3,1.92,.3,3,.06,.51-.12,1.02-.3,1.5-.48,.03,0,.06-.03,.09-.03,.42-.18,.87-.39,1.26-.57,.75-.36,1.5-.75,2.25-1.17,.03,0,.06-.03,.09-.06,.45-.24,.9-.51,1.32-.75Z"/>
            <path class="cls-6" d="M68.33,115.68l-.06,.03v-.03c-.75-1.26-2.07-2.19-3.48-2.55,.03-.03,.06-.03,.06-.06,1.41,.39,2.7,1.35,3.48,2.61h0Z"/>
            <path class="cls-6" d="M73.22,110.52c-.84,.9-1.32,2.13-1.29,3.36v.09h-.09v-.06c-.03-1.29,.48-2.58,1.38-3.54v.15s0-.03,0,0Z"/>
            <path class="cls-6" d="M69.23,112.47s-.03,.03,0,0h-.06c-.51-.69-1.32-1.11-2.16-1.17,.03-.03,.06-.06,.09-.06,.84,.06,1.65,.51,2.13,1.2,.03,0,.03,.03,0,.03Z"/>
            <path class="cls-6" d="M70.16,111.87s-.03,.03,0,0h-.06c-.42-.69-1.05-1.23-1.77-1.56,.03-.03,.06-.03,.09-.06,.72,.33,1.35,.9,1.77,1.59-.03,0-.03,.03-.03,.03Z"/>
          </g>
        </g>
        <g>
          <path class="cls-10" d="M76.05,109.35l-.57,2.04s2.04,1.56,3.42,.57l.6-1.62-3.45-.99Z"/>
          <g>
            <path class="cls-19" d="M79.11,115.17v.09c-.03,.15-.03,.3-.06,.42s-.12,.24-.24,.3c-.87,.42-4.59,2.19-5.77,2.85-1.08,.6-5.35,.75-5.02-.96,.03-.09,.06-.21,.12-.33,.03-.03,.06-.09,.06-.12h0c.36-.6,1.11-1.38,2.01-2.16,.03-.03,.06-.03,.09-.06,.72-.66,1.53-1.32,2.28-1.89h0s.06-.06,.09-.09c.48-.36,.9-.69,1.29-.96,.03-.03,.06-.03,.09-.06,.63-.45,1.02-.75,1.02-.75,0,0,.6-1.11,1.59-.87,.99,.24,1.08,1.59,1.08,1.59,0,0,.84,.12,1.32-.48,0,0,.03,.27,.06,.66v.12h0c0,.69,.06,1.8-.03,2.7Z"/>
            <path class="cls-6" d="M79.11,115.17v.09c-.45,.27-.9,.54-1.35,.78h-.03c-.78,.45-1.59,.84-2.37,1.26-.93,.45-1.95,.9-3,1.14-.6,.15-1.17,.21-1.71,.18-.51,0-1.02-.09-1.47-.24-.21-.06-.51-.18-.72-.39-.15-.15-.24-.33-.27-.51,.03-.03,.06-.09,.06-.12,0,.21,.09,.42,.27,.57,.21,.21,.48,.3,.69,.39,.93,.3,2.01,.33,3.15,.06,.54-.12,1.05-.3,1.56-.51,.03,0,.06-.03,.09-.03,.45-.18,.9-.39,1.32-.6,.81-.39,1.59-.81,2.37-1.23,.03,0,.06-.03,.09-.06,.39-.24,.87-.51,1.32-.78Z"/>
            <path class="cls-6" d="M73.94,117.85l-.06,.03v-.03c-.81-1.32-2.16-2.31-3.66-2.67,.03-.03,.06-.03,.09-.06,1.47,.39,2.85,1.41,3.63,2.73h0Z"/>
            <path class="cls-6" d="M79.11,112.41c-.87,.96-1.38,2.25-1.38,3.54v.09h-.09v-.06c-.03-1.35,.51-2.73,1.44-3.69,0,.03,0,.09,.03,.12h0Z"/>
            <path class="cls-6" d="M74.91,114.48s-.03,.03,0,0h-.06c-.54-.72-1.38-1.17-2.28-1.23,.03-.03,.06-.06,.09-.09,.87,.09,1.71,.54,2.25,1.26,.03,.03,.03,.06,0,.06Z"/>
            <path class="cls-6" d="M75.87,113.85s0,.03,0,0h-.06c-.42-.72-1.11-1.29-1.86-1.65,.03-.03,.06-.03,.09-.06,.75,.36,1.41,.93,1.86,1.65,0,.03,0,.06-.03,.06Z"/>
          </g>
        </g>
        <path class="cls-10" d="M74.06,49.73s-.78,3.48-1.2,7.3-.33,6.34-.33,6.34l6.88,.03,1.77-11.29-7.12-2.37Z"/>
        <path class="cls-19" d="M86.5,21.65s-2.55-.63-4.47,1.83-1.11,4.96-1.65,5.77-1.71,1.62-1.5,3.03c.24,1.41,.33,2.52-.69,3.33s-2.4,2.22-1.65,4.62c.33,1.08,.39,2.1,.33,2.88-.03,.81,.6,1.47,1.41,1.41l10.06-.75-1.83-22.13Z"/>
        <path class="cls-2" d="M85.81,38.74s-4.5,1.11-5.02,1.44c-.54,.33-2.61,8.08-2.16,10.99,.45,2.88,.9,3.3,.9,3.3,0,0-1.05,6.79-1.29,8.59-.21,1.8-.12,1.92-.12,1.92l21.74-.24-.54-10.87,.51-12.13s-4.53-3.72-14.02-3Z"/>
        <g>
          <g>
            <path class="cls-21" d="M78.33,62.05s13.27,1.83,21.38-.21c0,0,2.94,6.25,3.57,9.55s-.09,8.23-1.56,10.18c-1.47,1.95-10.84,6.28-10.84,6.28,0,0-3.75,12.7-6.55,16.85-2.82,4.14-4.2,6.16-4.2,6.16l-4.72-1.35s4.02-23.61,5.53-26.7c1.5-3.06,4.9-7.63,4.9-7.63l-7.51-13.12Z"/>
            <path class="cls-21" d="M78.33,62.05s-.54,5.53-1.08,6.94c-.6,1.47-1.77,2.64-2.79,3.81-2.01,2.25-3.57,4.9-4.44,7.78-.96,3.21-.81,6.58-.78,9.91,.06,4.02,.03,8.08-.06,12.1-.03,1.89-.09,3.81-.12,5.71l5.29,.48,8.95-25.5,5.65-10.87-10.6-10.36Z"/>
          </g>
          <g>
            <path class="cls-19" d="M87.37,64.12c-5.74,0-9.67-.9-9.73-.93-.03,0-.06-.06-.06-.09s.03-.06,.09-.06c.09,.03,9.91,2.28,21.23-.39,.03,0,.06,0,.09,.06,0,.03,0,.06-.06,.09-4.2,1.02-8.2,1.32-11.56,1.32Z"/>
            <path class="cls-19" d="M85.27,69.58h-.09c-.18-.03-.36-.18-.45-.42-.06-.18-.06-.36-.06-.57,0-1.53,.12-3.09,.36-4.59,0-.03,.03-.06,.09-.06,.03,0,.06,.03,.06,.09-.24,1.5-.36,3.06-.36,4.59,0,.21,0,.36,.06,.54,.06,.15,.18,.3,.33,.33,.21,.03,.39-.12,.48-.27,.12-.18,.12-.42,.15-.63,.12-1.47,.24-2.94,.3-4.41,0-.03,.03-.06,.06-.06h0s.06,.03,.06,.06c-.06,1.47-.15,2.94-.3,4.41-.03,.21-.03,.45-.15,.69-.09,.12-.3,.3-.54,.3Z"/>
            <path class="cls-19" d="M75.36,109.59h0c-.06,0-.06-.03-.06-.09,.03-.24,4.41-23.61,5.05-27.09,.6-3.33,4.17-7.87,4.53-8.32l-1.74-3.27s0-.09,.03-.09c.03-.03,.06,0,.09,.03l1.77,3.3v.09c-.03,.06-3.9,4.87-4.53,8.32-.6,3.45-4.99,26.85-5.05,27.09-.03,.03-.06,.03-.09,.03Z"/>
            <path class="cls-19" d="M80.22,110.82s-.03,0,0,0c-.06-.03-.09-.06-.06-.09l9.37-22.19c.33-.81,.72-1.71,1.38-2.37,.63-.63,1.47-.99,2.28-1.35l.09-.03c1.89-.84,4.02-1.86,5.56-3.6,1.83-2.1,2.67-5.29,2.34-8.71-.33-3.12-1.47-6.07-2.61-8.92,0-.03,0-.09,.03-.09s.09,0,.09,.03c1.14,2.85,2.28,5.83,2.61,8.95,.36,3.48-.51,6.7-2.37,8.83-1.53,1.77-3.69,2.79-5.59,3.63l-.09,.03c-.81,.36-1.62,.72-2.25,1.32-.66,.63-1.02,1.53-1.35,2.34l-9.37,22.19s-.03,.03-.06,.03Z"/>
            <path class="cls-19" d="M101.33,73.04s-.03,0,0,0c-2.04-.6-3.9-1.83-5.23-3.48s-2.13-3.72-2.25-5.86c0-.03,.03-.06,.06-.06s.06,.03,.06,.06c.12,2.07,.93,4.14,2.22,5.77s3.12,2.85,5.14,3.45c.03,0,.06,.06,.06,.09,0,0-.03,.03-.06,.03Z"/>
          </g>
        </g>
        <path class="cls-10" d="M82.44,73.16c-.54-.84-2.67-2.22-2.67-2.22l-1.59-7.78-5.62-.84s-.42,2.49,1.26,5.23c1.68,2.73,3.75,4.87,3.75,4.87,0,0,.18,1.59,.63,2.67,.45,1.08,3.45,3.18,3.87,3.36s1.92-.78,2.13-1.23c.24-.42-1.23-3.18-1.77-4.05Z"/>
        <g>
          <g>
            <path class="cls-34" d="M82.44,73.16c-.54-.84-2.67-2.22-2.67-2.22l-1.59-7.78-5.62-.84s-.42,2.49,1.26,5.23c1.68,2.73,3.75,4.87,3.75,4.87,0,0,.18,1.59,.63,2.67,.45,1.08,3.45,3.18,3.87,3.36s1.92-.78,2.13-1.23c.24-.42-1.23-3.18-1.77-4.05Z"/>
            <g>
              <path class="cls-19" d="M82.65,78.38s-.03,0-.06-.03l-2.73-2.49s-.03-.06,0-.09c.03-.03,.06-.03,.09,0l2.73,2.49s.03,.06,0,.09c0,.03-.03,.03-.03,.03Z"/>
              <path class="cls-19" d="M83.31,78.05s-.03,0-.06-.03l-2.7-2.97s-.03-.06,0-.09,.06-.03,.09,0l2.7,2.97s.03,.06,0,.09c0,0-.03,.03-.03,.03Z"/>
              <path class="cls-19" d="M84,77.54s-.03,0-.06-.03l-2.46-3.18s-.03-.06,0-.09,.06-.03,.09,0l2.46,3.18s.03,.06,0,.09t-.03,.03Z"/>
            </g>
          </g>
          <path class="cls-19" d="M75,63.13s-.06,0-.06-.03c-.03-.03,0-.09,.03-.09s1.77-.87,3.36-.18c.03,0,.06,.06,.03,.09,0,.03-.06,.06-.09,.03-1.53-.63-3.21,.18-3.24,.18h-.03Z"/>
        </g>
        <g>
          <g>
            <path class="cls-10" d="M105,62.8c.09-.66,.15-1.44,.18-2.28,.03-4.72,.06-6.34,.06-6.34l-7.42,.87,.24,6.88-12.88,9.46c-.6,.15-3.87,1.08-5.05,2.13-1.26,1.17-3.12,4.17-3.36,4.93-.21,.72,2.76,1.29,3.51,.84,.78-.45,2.13-2.01,2.43-2.28s2.28-1.05,3.63-2.79v-.03c1.56-.33,12.52-2.76,16.4-6.43,1.74-1.62,2.16-3.75,2.25-4.96Z"/>
            <path class="cls-19" d="M101.69,63.25h-.03c-1.53-.99-3.57-1.26-3.6-1.26s-.06-.03-.06-.09c0-.03,.03-.06,.09-.06,.03,0,2.1,.27,3.66,1.29,.03,.03,.03,.06,.03,.09q-.06,.03-.09,.03Z"/>
            <g>
              <path class="cls-19" d="M79.35,79.52h-.03s-.03-.06,0-.09l2.13-2.7s.06-.03,.09,0c.03,.03,.03,.06,0,.09l-2.13,2.7h-.06Z"/>
              <path class="cls-19" d="M78.18,79.37h-.03s-.03-.06,0-.09l2.64-3.57s.06-.03,.09,0c.03,.03,.03,.06,0,.09l-2.64,3.57s-.03,0-.06,0Z"/>
              <path class="cls-19" d="M77.28,79.04h-.03s-.03-.06-.03-.09l2.55-3.81s.06-.03,.09-.03c.03,.03,.03,.06,.03,.09l-2.55,3.81s-.03,.03-.06,.03Z"/>
            </g>
          </g>
          <g>
            <g>
              <path class="cls-2" d="M80.79,40.21s-2.94,.75-4.96,4.87c-1.98,4.11-2.34,6.52-2.34,6.52l6.43,.75,.87-12.13Z"/>
              <path class="cls-2" d="M99.44,41.47s4.68,3.3,5.53,8.44c.57,3.51,.69,5.26,.69,5.26l-9.4,.99,3.18-14.69Z"/>
            </g>
            <g>
              <path class="cls-19" d="M78.78,52.35s-.06-.03-.06-.06c-.12-3.36,1.59-6.82,1.59-6.85,.03-.03,.06-.06,.09-.03,.03,.03,.06,.06,.03,.09s-1.71,3.45-1.59,6.79c0,.03-.03,.06-.06,.06h0Z"/>
              <path class="cls-19" d="M79.17,48.74s-.06-.03-.06-.06l-.06-2.07s.03-.06,.06-.06h0s.06,.03,.06,.06l.06,2.07s0,.06-.06,.06h0Z"/>
            </g>
            <g>
              <path class="cls-19" d="M97.91,56.16s-.06-.03-.06-.06l-.51-8.17s.03-.06,.06-.06,.06,.03,.06,.06l.51,8.17s0,.06-.06,.06h0Z"/>
              <path class="cls-19" d="M97.55,50.54s-.06-.03-.06-.06l-.69-2.22s0-.06,.06-.09c.03,0,.06,0,.09,.06l.69,2.22c-.03,.06-.06,.09-.09,.09h0Z"/>
            </g>
          </g>
        </g>
        <g>
          <g>
            <g>
              <g>
                <path class="cls-10" d="M92.14,39.01s-.42,1.05-3.03,1.77c-2.64,.72-3.36-1.62-3.36-1.62l.27-2.13,.18-1.47,4.84-3.42,1.05-.75,.06,7.63Z"/>
                <path class="cls-40" d="M92.08,31.44c-.03,1.95-.81,3.87-2.13,5.29-.42,.45-.9,.84-1.47,1.08s-1.23,.24-1.77-.03c-.27-.15-.51-.42-.69-.72l.18-1.47,4.84-3.42c.36-.27,.69-.51,1.05-.72Z"/>
              </g>
              <path class="cls-10" d="M92.56,29.07c-.06,.81-.24,1.65-.48,2.46-.3,.93-.69,1.8-1.17,2.55-.18,.3-.39,.57-.63,.81-.87,.9-2.1,1.5-3.51,1.5s-2.34-.63-3.09-1.38c-.24-.24-.45-.51-.66-.78-.6-.87-.93-1.95-1.14-3.06-.06-.39-.12-.81-.15-1.2-.03-.48-.06-.93-.06-1.38,0-.33,.03-.66,.06-.96,.27-2.07,1.26-4.05,3.12-5.02,.33-.18,.72-.33,1.08-.39,1.65-.36,3.42,.09,4.68,1.23,1.56,1.38,2.1,3.48,1.95,5.62Z"/>
              <g>
                <g>
                  <path class="cls-37" d="M91.75,31.95c-.03,1.26-1.08,2.25-2.34,2.22-1.26-.03-2.25-1.08-2.22-2.34,.03-1.26,1.08-2.25,2.34-2.22s2.25,1.08,2.22,2.34Z"/>
                  <path class="cls-35" d="M84.13,32.31c-.03,.81-.45,1.53-1.11,1.89-.6-.87-.93-1.95-1.14-3.06-.06-.39-.12-.81-.15-1.2h.18c1.26,.03,2.25,1.08,2.22,2.37Z"/>
                </g>
                <g>
                  <g>
                    <g>
                      <path class="cls-19" d="M84.34,28.35c.3,.69,.57,1.5,.15,2.22-.09,.18-.24,.33-.33,.48-.36,.51,.21,.96,.69,1.14,.18,.24-.51-.09-.57-.15-.39-.21-.54-.72-.27-1.08,.12-.18,.24-.3,.36-.45,.18-.3,.3-.69,.24-1.05s-.18-.72-.33-1.08c0-.06,.06-.09,.06-.03h0Z"/>
                      <path class="cls-39" d="M84.94,31.38c.09,0,.18-.06,.27-.06,.3-.06,.57,.12,.78,.3,.09,.09,.21,.24,.15,.36-.06,.09-.18,.09-.27,.09s-.21-.03-.27,.03c0,.09-.09,.15-.15,.18-.09,.03-.15,0-.24,0-.24-.03-.48-.09-.72-.21-.21-.12-.57-.42-.42-.69,.18-.39,.6,.03,.87,0Z"/>
                    </g>
                    <path class="cls-19" d="M85.96,31.47c.51,.45,.15,.99-.42,.54l.09-.06c-.03,.15,.03,.33-.09,.33s-.03-.18-.03-.33c0-.03,.03-.06,.06-.06,.12,.03,.18,.12,.3,.18,.21,.09,.33-.12,.24-.3-.03-.09-.09-.18-.18-.24-.03-.03,0-.09,.03-.06h0Z"/>
                  </g>
                  <g>
                    <path class="cls-19" d="M86.83,29.67c.03,.24,.24,.42,.48,.39,.24-.03,.42-.24,.39-.48-.03-.24-.24-.42-.48-.39-.24,.06-.42,.27-.39,.48Z"/>
                    <path class="cls-19" d="M82.86,29.58c.03,.24,.24,.42,.48,.39,.24-.03,.42-.24,.39-.48-.03-.24-.24-.42-.48-.39-.24,.06-.42,.27-.39,.48Z"/>
                  </g>
                  <g>
                    <path class="cls-19" d="M85.63,33.37c-.57,0-1.02-.12-1.05-.12s-.06-.06-.06-.09,.06-.06,.09-.06,1.59,.42,2.61-.33c.03-.03,.06,0,.09,.03,.03,.03,0,.06-.03,.09-.51,.39-1.11,.48-1.65,.48Z"/>
                    <path class="cls-19" d="M85.9,34.12c-.24,0-.42-.03-.45-.06-.03,0-.03-.03-.03-.06s.03-.03,.06-.03c0,0,.75,.18,1.26-.21h.06v.06c-.3,.24-.63,.3-.9,.3Z"/>
                  </g>
                  <g>
                    <path class="cls-19" d="M86.44,27.81l-.06,.06c-.69,.78,2.64,1.2,2.58,.69,0-.06-.06-.12-.09-.18-.48-.57-1.35-.84-2.07-.72-.12,.03-.24,.09-.36,.15Z"/>
                    <path class="cls-19" d="M83.94,27.84s.03,.03,.03,.06c.54,.75-2.1,.96-2.01,.51,0-.06,.03-.12,.09-.18,.39-.48,1.05-.69,1.62-.54,.09,.03,.18,.09,.27,.15Z"/>
                  </g>
                </g>
              </g>
            </g>
            <path class="cls-19" d="M83.76,23.76c-.24,.45-.39,.96-.69,1.35-.3,.42-.78,.72-.93,1.23-.18,.57,.15,1.2,.12,1.8-.03,.48-.27,.93-.45,1.35-.21,.45-.36,.93-.24,1.38-.6-1.44-.72-3.06-.3-4.56s1.38-2.82,2.64-3.72c.18-.12,1.47-.84,1.08-.15-.15,.24-.48,.39-.66,.57-.24,.24-.42,.48-.57,.75Z"/>
          </g>
          <path class="cls-19" d="M101.87,44.54s-.3,.03-.81,.12c-.33-.96-.78-2.1-2.07-2.82,.03,.06,.78,1.29,.93,3-2.04,.27-5.2,.72-7.15,.99,.06-.78-.03-1.59-.24-2.37-.06,.84-.21,1.68-.45,2.46-.63,.09-1.02,.15-1.02,.15-.84,.12-1.5-.72-1.2-1.5,.24-.63,.66-1.14,.78-1.8,.24-1.17-.9-1.32-1.32-3.39-.42-2.1,1.2-2.67,1.74-4.41s-1.26-1.59-2.34-3.54c-.03-.06-.06-.12-.09-.18v-.03c-.03-.09-.09-.18-.12-.24-.03-.06-.03-.12-.06-.15-.12-.39-.12-.75-.06-1.14,.06-.78,.21-1.59-.15-2.25-.21-.39-.57-.66-.78-1.02-.21-.36-.24-.78-.36-1.17-.24-.9-.87-1.65-1.65-2.1-.15-.09-.66-.18-.72-.39-.24-.96,1.08-1.44,3.09-1.83,1.98-.39,3.63,.42,4.96,1.23,2.94,1.74,2.88,5.35,2.85,6.82-.03,1.47,.93,1.35,2.1,2.73s.93,2.28,.96,4.05c0,1.59,1.5,2.13,2.58,2.97,.09,.06,.18,.15,.27,.24,.72,.66,1.08,1.53,1.38,2.46,.33,1.05,.57,2.88-1.05,3.12Z"/>
        </g>
      </g>
    </g>
    <g>
      <g>
        <g>
          <path class="cls-19" d="M167.01,50.33l-1.08,14.02c-.03,.51-.27,.96-.63,1.32-.06,.06-.12,.12-.18,.15-.39,.27-.84,.42-1.35,.39l-23.61-1.89,.69-17.42,24.27,1.26c.33,.03,.6,.12,.87,.24,.15,.09,.27,.18,.39,.27,.42,.42,.69,1.02,.63,1.65Z"/>
          <path class="cls-5" d="M165.3,65.68c-.06,.06-.12,.12-.18,.15,.51-2.4,1.47-14.3,1.38-16.13-.03-.6-.24-.99-.51-1.29,.15,.09,.27,.18,.39,.27,.15,.27,.27,.6,.27,1.02,.09,1.47-.78,13.06-1.35,15.98Z"/>
        </g>
        <g>
          <path class="cls-19" d="M133.02,79.61l22.55,.6c.18,0,.36-.03,.54-.12l6.16-3.06c.39-.18,.24-.69-.21-.72l-20.84-.54-8.2,3.84Z"/>
          <path class="cls-19" d="M156.68,106.37c-.09,0-.15-.06-.15-.15l-1.05-26.61c0-.09,.06-.15,.15-.15s.15,.06,.15,.15l1.05,26.61c0,.06-.06,.15-.15,.15h0Z"/>
          <path class="cls-19" d="M166.44,101c-.06,0-.15-.06-.15-.12l-4.81-24.06c-.03-.09,.03-.18,.12-.18,.09-.03,.18,.03,.18,.12l4.81,24.06c.03,.09-.03,.18-.12,.18h-.03Z"/>
          <path class="cls-19" d="M155.66,83.64h0l-20.45-.21c-.09,0-.15-.06-.15-.15s.09-.15,.15-.15l20.42,.21,6.52-3.54c.06-.03,.18,0,.21,.06,.03,.09,0,.18-.06,.21l-6.55,3.57s-.06,0-.09,0Z"/>
          <path class="cls-19" d="M161.19,76.4l-.27-.15c1.86-3.18,1.68-10.81,1.68-10.87h.3c.03,.3,.18,7.75-1.71,11.02Z"/>
        </g>
      </g>
      <g>
        <g>
          <g>
            <polygon class="cls-14" points="141.01 103.7 143.65 107.48 146.5 104.54 143.56 100.94 141.01 103.7"/>
            <path class="cls-21" d="M142.42,108.12c-.06-.45-.12-.9,0-1.35,.15-.42,.54-.81,.99-.78,.33,.03,.63,.3,.87,.54,.93-.54,1.59-1.56,1.68-2.64,.96,.78,1.71,1.41,2.52,2.46,.24,.3,.36,.63,.36,1.02s-.48,.96-.66,1.32c-.78,1.38-1.38,2.85-2.16,4.23-.75,1.35-1.59,2.79-2.97,3.48-.42,.21-.99,.36-1.38,.06-.42-.33-.36-.99-.27-1.5,.42-2.25,1.35-4.59,1.02-6.85Z"/>
          </g>
          <g>
            <polygon class="cls-14" points="140.32 104.15 138.9 107.12 142.21 109.98 144.52 106.1 140.32 104.15"/>
            <path class="cls-21" d="M138.9,107.12s1.02-.87,2.28-.39,1.02,2.73,1.02,2.73c0,0,.15,.06,.45-.18,0,0-1.14,3.06-1.44,3.63s-1.53,5.14-3,5.32c-2.07,.27-5.62-1.5-5.11-3.78,.36-1.62,2.46-3.45,3.3-4.44,.81-.99,1.77-2.25,2.49-2.88Z"/>
          </g>
          <path class="cls-2" d="M161.04,75.29s-5.98,14.54-7.48,16.82c-1.53,2.28-8.68,14.99-8.68,14.99l-6.07-2.37,7.27-16.7,1.29-11.83-7.51-6.1s14.54-5.56,21.17,5.2Z"/>
          <path class="cls-2" d="M139.86,70.06s-9.61,7.36-10.18,10.18c-.57,2.85,9.22,24.51,9.22,24.51l5.92-5.95-4.9-16.13,12.94-7.66-2.52-5.47-10.48,.51Z"/>
          <g>
            <g>
              <path class="cls-22" d="M144.31,106.88s-.03,0,0,0c-.03-.03-.06-.03-.03-.06,6.73-10.06,12.19-20.93,16.31-32.28,0-.03,.03-.03,.06-.03s.03,.03,.03,.06c-4.11,11.38-9.61,22.25-16.31,32.31h-.06Z"/>
              <path class="cls-22" d="M158.51,79.95s-.03,0-.03-.03c-1.26-2.58-1.71-5.56-1.23-8.38,0-.03,.03-.03,.06-.03s.03,.03,.03,.06c-.45,2.82-.03,5.77,1.23,8.32t-.06,.06s0,0,0,0Z"/>
            </g>
            <g>
              <path class="cls-22" d="M138.87,104.84h-.03s-.06-.06-.03-.09l7.15-16.76,1.29-11.8-1.68-3s0-.09,.03-.12c.03-.03,.09,0,.12,.03l1.68,3.03v.06l-1.29,11.83v.03l-7.15,16.76s-.06,.03-.09,.03Z"/>
              <path class="cls-22" d="M142.75,95.74s-.03,0-.03-.03l-3.54-10.9c-.24-.72-.42-1.44-.18-2.1,.24-.6,.75-.96,1.35-1.38l6.97-4.62h.06s0,.03,0,.06l-6.97,4.62c-.6,.39-1.11,.75-1.32,1.32-.24,.63-.06,1.32,.18,2.04l3.54,10.9c-.03,.06-.03,.09-.06,.09h0Z"/>
              <path class="cls-22" d="M139.92,82.74s-.03,0-.03-.03c-.21-.45-.54-.87-.93-1.2-.03,0-.03-.03,0-.06,0-.03,.03-.03,.06,0,.39,.33,.72,.75,.96,1.2q0,.06-.06,.09s.03,0,0,0Z"/>
            </g>
          </g>
        </g>
        <g>
          <g>
            <g>
              <path class="cls-14" d="M153.14,38.17c-.03,.6-.03,1.2,.03,1.68,0,0-2.82,6.1-5.02,6.1s-2.4-2.79-2.4-2.79l.39-2.25,.39-2.25,6.22-2.61,.66-.27s-.03,.15-.06,.42c-.06,.42-.18,1.2-.21,1.98Z"/>
              <path class="cls-42" d="M153.35,36.16c-.06,.45-.18,1.23-.21,2.01-.72,1.05-1.65,1.92-2.73,2.58-.63,.39-1.35,.69-2.1,.78s-1.53-.12-2.1-.6l-.03-.03,.39-2.25,6.22-2.61c.21,0,.42,.03,.57,.12Z"/>
            </g>
            <g>
              <path class="cls-2" d="M143.44,26.16c-.12,.39-.15,.81-.33,1.2-.18,.36-.48,.63-.63,.99-.15,.39-.09,.81,0,1.23,.12,.39,.27,.78,.33,1.2,.03,.15,.03,.33,.09,.48,.06,.15,.18,.3,.33,.33,.27,.06,.48-.24,.6-.48,.6-1.23,.9-2.58,1.14-3.96,.06-.33,.09-.69,.06-1.02-.06-.33-.27-.99-.72-.87-.42,.03-.75,.54-.87,.9Z"/>
              <path class="cls-14" d="M155.09,31.62c-.06,.9-.27,1.86-.54,2.76-.09,.3-.21,.57-.3,.84-.03,.03-.03,.09-.06,.12h0c-.27,.66-.6,1.29-.93,1.86-.21,.33-.45,.66-.72,.93-.99,1.02-2.37,1.68-3.96,1.68s-2.61-.72-3.48-1.56c-.27-.27-.51-.57-.72-.9-.27-.39-.51-.84-.69-1.32-.21-.48-.36-1.02-.48-1.53-.03-.09-.06-.21-.06-.3-.03-.09-.03-.18-.06-.27v-.03c-.09-.42-.12-.87-.18-1.29-.03-.42-.06-.87-.06-1.26v-.27c0-.36,.03-.72,.06-1.08,.3-2.31,1.41-4.53,3.48-5.62,.39-.21,.78-.36,1.23-.45,1.83-.42,3.84,.09,5.23,1.38,1.8,1.59,2.4,3.93,2.25,6.31Z"/>
              <path class="cls-2" d="M143.44,25.32c.72,.96,2.19,1.26,3.24,.69,.42-.24,.9-.6,1.32-.36,.24,.12,.33,.39,.45,.63,.57,.99,1.92,1.44,2.97,.99,.27-.12,.51-.27,.78-.33,.27-.06,.63,.06,.72,.33,.09,.24-.06,.51-.12,.75-.15,.54,.03,1.2,.48,1.56,.12,.09,.24,.15,.3,.27,.12,.21,.06,.48-.03,.72-.15,.42-.33,.87-.27,1.32,.06,.45,.48,.9,.93,.78,.15-.03,.27-.12,.39-.21,.6-.45,1.2-.87,1.77-1.32,.21-.15,.42-.33,.42-.57,0-.18-.12-.36-.15-.54-.15-.51,.18-.99,.39-1.47,.54-1.26,.12-2.88-.96-3.75-.51-.42-1.14-.66-1.68-1.02-.69-.45-1.2-1.11-1.89-1.56-.84-.54-1.89-.72-2.85-.51-.81,.18-1.56,.63-2.4,.66-1.08,.06-2.1-.54-3.15-.42-.84,.09-1.14,.99-1.17,1.74,0,.6,.15,1.17,.51,1.62Z"/>
              <g>
                <path class="cls-14" d="M153.5,32.58s1.74-2.49,3.18-1.86-.09,4.59-1.5,4.62-1.92-1.02-1.92-1.02l.24-1.74Z"/>
                <g>
                  <path class="cls-19" d="M155.27,33.97h0s-.03-.03-.03-.03c.03-.75,.27-1.53,.72-2.13,0-.03,.03-.03,.06,0,.03,0,.03,.03,0,.06-.42,.6-.66,1.35-.69,2.1h-.06Z"/>
                  <path class="cls-19" d="M156.08,33.52s-.03,0-.03-.03c-.09-.36-.24-.63-.48-.81-.03,0-.03-.03,0-.06,0-.03,.03-.03,.06,0,.24,.21,.42,.48,.51,.87-.03,0-.03,.03-.06,.03h0Z"/>
                </g>
              </g>
              <path class="cls-2" d="M153.53,33.31c.06,.18,.18,.42,.36,.39,.12-.03,.21-.15,.27-.24,.3-.57,.54-1.14,.75-1.74,.09-.24,.15-.48,.12-.72s-.18-.48-.39-.57c-.54-.18-.99,.45-1.08,.9-.15,.63-.18,1.35-.03,1.98Z"/>
              <g>
                <g>
                  <g>
                    <path class="cls-36" d="M153.56,33.88c-.03,1.35-1.17,2.43-2.52,2.4s-2.43-1.17-2.4-2.52,1.17-2.43,2.52-2.4c1.38,.03,2.46,1.14,2.4,2.52Z"/>
                    <path class="cls-38" d="M145.18,33.88c-.03,.99-.66,1.86-1.53,2.22-.21-.48-.36-1.02-.48-1.53-.03-.09-.06-.21-.06-.3-.03-.09-.03-.18-.06-.27v-.03c-.09-.42-.12-.87-.18-1.29-.03-.42-.06-.87-.06-1.26,1.38,0,2.4,1.11,2.37,2.46Z"/>
                  </g>
                  <path class="cls-2" d="M154.19,35.35s-.03,.03,0,0c-.27,.69-.6,1.32-.93,1.86-.21,.33-.45,.66-.72,.93-.99,1.02-2.37,1.68-3.96,1.68s-2.61-.72-3.48-1.56c-.27-.27-.51-.57-.72-.9-.57-.81-.93-1.83-1.17-2.85,.48-.15,2.13-.6,4.23-.66,.78-.03,1.56,.15,2.28,.45,.75,.3,1.53,.75,2.28,.54,.84-.24,1.2-1.38,2.07-1.44-.21,.6,0,1.35,.12,1.95Z"/>
                </g>
                <path class="cls-14" d="M147.43,34.21c.51,.03,.9,.39,1.38,.54,.45,.15,.99,.12,1.35,.45,.27,.24,.36,.63,.27,.96-.06,.33-.27,.63-.51,.9-.57,.63-1.35,1.05-2.22,1.14-.84,.06-1.74-.24-2.31-.87-.42-.48-.9-1.74-.33-2.28,.24-.21,.78-.3,1.08-.45,.42-.18,.84-.42,1.29-.39Z"/>
                <g>
                  <g>
                    <g>
                      <path class="cls-19" d="M146.17,29.61c-.48,1.08-1.41,3.72,.03,4.35,.06,.03,.03,.12-.03,.09-1.77-.51-.81-3.42-.15-4.5,.06-.09,.18-.03,.15,.06h0Z"/>
                      <path class="cls-19" d="M147.28,33.22c.12,.06,.18,.15,.21,.24s.06,.21,.03,.36c-.09,.15-.27,.09-.36,.09l-.3-.03,.09-.12,.12,.27s0,.06-.03,.09c-.03,0-.06,0-.09-.03l-.15-.27c-.03-.06,.03-.12,.09-.12,.09,.03,.36,.09,.45,.09,.24,0,.06-.48-.06-.54-.06,0-.03-.06,0-.03h0Z"/>
                    </g>
                    <path class="cls-19" d="M146.8,35.38c-.66,0-1.14-.15-1.2-.15-.03,0-.06-.06-.06-.09s.06-.06,.09-.06,1.71,.51,3.12-.39c.03-.03,.09,0,.12,.03s0,.09-.03,.12c-.69,.45-1.44,.54-2.04,.54Z"/>
                    <path class="cls-19" d="M147.13,35.98c-.27,0-.48-.06-.51-.06s-.03-.03-.03-.06,.03-.03,.06-.03c0,0,.81,.24,1.35-.27,.03-.03,.03,0,.06,0v.06c-.27,.3-.63,.36-.93,.36Z"/>
                  </g>
                  <g>
                    <path class="cls-19" d="M149.02,31.17c0,.27-.21,.48-.48,.48s-.48-.21-.48-.48,.21-.48,.48-.48c.27,0,.48,.21,.48,.48Z"/>
                    <path class="cls-19" d="M144.88,31.05c0,.27-.21,.51-.51,.51-.27,0-.51-.21-.51-.51,0-.27,.21-.51,.51-.51,.3,0,.51,.24,.51,.51Z"/>
                  </g>
                  <g>
                    <path class="cls-2" d="M147.97,29.16c-.06,.12-.06,.3,.03,.42,.09,.12,.27,.09,.42,.09,.42-.03,.84,.06,1.23,.24,.12,.06,.27,.12,.39,.18s.3,.03,.42-.06c.12-.09,.18-.24,.18-.39s-.09-.3-.18-.42c-.51-.78-2.1-1.17-2.49-.06Z"/>
                    <path class="cls-2" d="M145.63,29.25c.03,.12,0,.3-.09,.39-.12,.09-.27,.06-.42,.03-.39-.09-.81-.06-1.2,.06-.12,.03-.27,.09-.42,.09s-.3-.03-.39-.12-.12-.27-.09-.39c.03-.15,.12-.27,.21-.36,.63-.66,2.19-.78,2.4,.3Z"/>
                  </g>
                </g>
              </g>
            </g>
          </g>
          <path class="cls-21" d="M161.79,44.9c-2.85-2.91-6.82-3.9-6.82-3.9l-7.24,4.93-2.22-3.87c-1.32,.63-2.85,1.08-3.96,2.07-1.02,.9-2.07,2.34-2.61,3.57-1.77,4.08-2.88,8.23-4.08,12.55-.3,1.05-.69,2.22-.57,3.33,.33,3.24,2.76,6.88,2.76,6.88l2.91-3.33c0,.99-.15,2.94-.15,2.94,0,0,8.92-.78,13.63,0,4.75,.78,7.54,5.35,7.54,5.35,0,0,.84-7,1.08-9.22s-.27-21.29-.27-21.29Z"/>
          <g>
            <path class="cls-16" d="M147.67,45.92c.03-.09,.96-2.49,.96-2.49,0,0,2.1-1.23,3.12-2.28s1.38-2.04,1.38-2.04c0,0,.63,.18,.96,.48,.36,.33,.87,1.41,.87,1.41,0,0-2.73,3.42-4.05,4.32l-.42-.54-3.3,4.17-1.02-4.5-.75,.84-.45-3.09s.63-1.17,1.26-1.53l.06,1.53,1.26,1.26,.12,2.46Z"/>
            <g>
              <path class="cls-22" d="M150.95,45.35s-.03,0-.03-.03-1.26-1.65-1.53-1.86c-.03,0-.03-.03,0-.06,0-.03,.03-.03,.06,0,.3,.21,1.5,1.8,1.56,1.89-.03,0-.03,.03-.06,.06h0Z"/>
              <path class="cls-22" d="M145.39,45.32h0s-.03-.06-.03-.06l1.62-1.86s.03-.03,.06,0c.03,0,.03,.03,0,.06l-1.62,1.86h-.03Z"/>
            </g>
          </g>
          <g>
            <path class="cls-21" d="M159.99,43.88s2.7,.9,3.78,3.66c1.05,2.76,.78,17.3,.36,19.49-.42,2.19-13.72,6.55-13.72,6.55l-2.52-5.77,9.52-3.81-.72-15.29,3.3-4.84Z"/>
            <path class="cls-22" d="M157.13,54.93s-.03,0-.03-.03l-.66-1.95s0-.03,.03-.06t.06,.03l.66,1.95s-.03,.06-.06,.06h0Z"/>
            <g>
              <path class="cls-22" d="M150.41,73.61s-.03,0-.03-.03l-2.49-5.53s0-.03,.03-.06l9.43-4.35-.27-11.95s.03-.03,.03-.03h0s.03,.03,.03,.03l.27,11.95s0,.03-.03,.03l-9.4,4.32,2.46,5.47c.57-.18,8.14-2.55,11.35-4.59h.06v.06c-3.36,2.19-11.35,4.65-11.44,4.68,.03,0,0,0,0,0Z"/>
              <path class="cls-22" d="M157.34,48.89h0s-.03-.03-.03-.06c.51-2.1,2.25-4.05,3.6-4.81t.06,.03s0,.03-.03,.06c-1.35,.75-3.06,2.67-3.57,4.75,0,.03-.03,.03-.03,.03Z"/>
              <path class="cls-22" d="M161.25,69.31s-.03-.03-.03-.03c-.15-2.13,1.17-4.32,3.12-5.2t.06,.03s0,.03-.03,.06c-1.92,.87-3.21,3-3.09,5.11,.03,0,0,.03-.03,.03h0Z"/>
            </g>
          </g>
          <g>
            <path class="cls-22" d="M139.86,70.09s-.03-.03-.03-.03c-.03-.9,.21-3.39,.42-5.86,.15-1.59,.3-3.12,.33-3.96,.12-2.1-.27-8.56-.27-8.62,0-.03,.03-.03,.03-.03,.03,0,.03,.03,.03,.03,0,.06,.39,6.55,.27,8.62-.03,.84-.18,2.37-.33,3.96-.21,2.31-.45,4.96-.42,5.83,0,.03,0,.06-.03,.06h0Z"/>
            <path class="cls-22" d="M140.56,56.43s-.03,0-.03-.03l-.99-3.51s0-.03,.03-.06t.06,.03l.99,3.51s0,.06-.06,.06t0,0Z"/>
            <path class="cls-22" d="M140.41,49.04s-.03-.03-.03-.03c-.03-1.83,.54-3.69,1.53-5.23,0-.03,.03-.03,.06,0,.03,0,.03,.03,0,.06-.99,1.53-1.56,3.36-1.53,5.2,.03-.03,0,0-.03,0h0Z"/>
            <g>
              <path class="cls-22" d="M140.56,60.72h0c-.81-.51-1.8-.66-2.76-.36t-.06-.03s0-.03,.03-.06c.99-.3,2.01-.15,2.79,.36,.03,0,.03,.03,0,.06t0,.03Z"/>
              <path class="cls-22" d="M140.59,60.66s-.03,0-.03-.03c-.18-.42-.51-.78-.93-1.02-.42-.21-.9-.3-1.35-.21t-.06-.03s0-.03,.03-.06c.48-.09,.99-.03,1.41,.21,.42,.24,.78,.6,.96,1.05,0,.06,0,.09-.03,.09h0Z"/>
            </g>
            <path class="cls-22" d="M134.64,64.69s-.03,0,0,0c-.03-.03-.06-.03-.03-.06,1.11-1.56,1.32-3.72,.6-5.5t.03-.06s.03,0,.06,.03c.75,1.8,.51,3.99-.6,5.59-.03-.03-.06,0-.06,0Z"/>
          </g>
          <g>
            <g>
              <path class="cls-14" d="M137.46,70.09s.09-2.13,2.46-3.06c0,0,2.67,2.31,3.03,2.79,.39,.48,2.1,5.05,1.83,5.41-.27,.36-.69-.24-.69-.24,0,0,.15,.9-.36,1.11-.48,.21-.72-.24-.72-.24,0,0-.18,.63-.54,.48-.36-.15-1.89-1.5-2.31-2.04-.39-.54-2.7-4.2-2.7-4.2Z"/>
              <path class="cls-41" d="M137.46,70.09s.09-2.13,2.46-3.06c0,0,2.67,2.31,3.03,2.79,.39,.48,2.1,5.05,1.83,5.41-.27,.36-.69-.24-.69-.24,0,0,.15,.9-.36,1.11-.48,.21-.72-.24-.72-.24,0,0-.18,.63-.54,.48-.36-.15-1.89-1.5-2.31-2.04-.39-.54-2.7-4.2-2.7-4.2Z"/>
            </g>
            <g>
              <path class="cls-14" d="M148.18,68.62s-3.57,1.65-4.87,2.67-3.48,3.24-3.21,3.6c.27,.39,.99-.3,.99-.3,0,0-.6,.75-.45,1.11,.15,.33,.39,.6,.75,.54,.36-.09,1.23-.72,1.23-.72,0,0-.39,.45-.24,.63s.42,.18,1.02-.48c.6-.66,2.28-1.71,2.58-1.83,.27-.12,1.83-.75,2.28-1.47s.9-1.29,.9-1.29l-.99-2.46Z"/>
              <path class="cls-22" d="M141.1,74.66s0-.03,0,0c-.03-.03-.03-.06-.03-.06,0-.03,1.47-1.83,2.43-2.43h.06v.06c-.93,.6-2.4,2.4-2.4,2.43-.03-.03-.03,0-.06,0Z"/>
              <path class="cls-22" d="M140.83,76.04s0-.03,0,0c-.03-.03-.03-.06-.03-.06,.03-.03,2.1-2.28,3.21-2.97h.06v.06c-1.11,.66-3.18,2.91-3.24,2.97,.03-.03,.03,0,0,0Z"/>
              <path class="cls-22" d="M142.63,75.59s-.03,0,0,0c-.03-.03-.03-.06-.03-.06,0,0,.84-1.08,1.65-1.5t.06,.03s0,.03-.03,.06c-.81,.39-1.62,1.44-1.62,1.47h-.03Z"/>
            </g>
          </g>
          <line class="cls-1" x1="137.1" y1="70.46" x2="140.47" y2="67.45"/>
        </g>
      </g>
    </g>
    <g>
      <g>
        <path class="cls-19" d="M187.92,54.6l19.64,2.49c1.29,.18,2.16,1.44,1.8,2.7l-5.41,20.06c-.3,1.11-1.44,1.8-2.58,1.53l-20.33-4.81,6.88-21.98Z"/>
        <rect class="cls-19" x="193.41" y="86.59" width="12.76" height=".33" transform="translate(53.44 248.08) rotate(-71.26)"/>
        <g>
          <path class="cls-19" d="M167.07,93.25l17.45,3.21,15.53-2.19c.87-.21,.84-1.44-.03-1.62l-17.78-3.54c-.09-.03-.21-.03-.3,0l-14.81,2.52c-.87,.15-.93,1.38-.06,1.62Z"/>
          <g>
            <path class="cls-19" d="M182.81,124.81h0c-.09,0-.18-.09-.18-.18l1.62-28.8c0-.09,.09-.18,.18-.15,.09,0,.18,.09,.15,.18l-1.62,28.8c.03,.06-.06,.15-.15,.15Z"/>
            <path class="cls-19" d="M202.48,118.69c-.09,0-.15-.06-.18-.15l-3.9-24.3c-.03-.09,.06-.18,.15-.21s.18,.06,.21,.15l3.9,24.3c0,.12-.06,.21-.18,.21,.03,0,0,0,0,0Z"/>
            <path class="cls-19" d="M189.45,111.81c-.09,0-.18-.06-.18-.15l-.9-16.28c0-.09,.06-.18,.15-.18s.18,.06,.18,.15l.9,16.28c.03,.09-.03,.18-.15,.18h0Z"/>
            <path class="cls-19" d="M184.4,99.8h-.03l-13.63-3.51c-.09-.03-.15-.12-.12-.21,.03-.09,.12-.15,.21-.12l13.57,3.51,14.45-3.24c.09-.03,.18,.03,.21,.12,.03,.09-.03,.18-.12,.21l-14.48,3.24s-.03,0-.06,0Z"/>
          </g>
        </g>
      </g>
      <g>
        <g>
          <g>
            <path class="cls-19" d="M170.92,124.6v.06h0s0,.09-.03,.12c-.15,.66-1.11,.75-1.65,.81-.09,0-.18,.03-.27,.03-2.22,.27-4.41,.66-6.61,1.2-1.02,.24-2.04,.51-3.06,.84-.9,.27-1.89,.51-2.82,.39h0c-.06,0-.15-.03-.21-.03h-.06c-.75-.18-1.65-.6-1.65-1.5,0-1.08,1.68-2.01,3.12-2.82,.03-.03,.06-.03,.09-.06,.3-.18,.57-.33,.84-.48,1.23-.78,4.62-3.6,5.68-4.47,.09-.09,.21-.15,.33-.21,.12-.06,.24-.06,.36-.09l4.9-.48c.06,0,.12,.03,.12,.09h0c.09,.6,.21,1.2,.3,1.8,0,.06,.03,.09,.03,.15,.24,1.41,.45,2.85,.57,4.29,.03,.15,.06,.27,.03,.36Z"/>
            <path class="cls-10" d="M164.64,117.18l-.09,1.23s1.17,1.29,3.21,.87c2.01-.39,2.25-.96,2.25-.96l-.21-1.59-5.17,.45Z"/>
            <path class="cls-5" d="M161.19,126.83h0s-.06,0-.06-.03h0c-.69-1.41-2.01-2.58-3.45-3.09,.03-.03,.06-.03,.09-.06,1.44,.51,2.76,1.68,3.45,3.12h0s0,.06-.03,.06Z"/>
            <path class="cls-5" d="M170.32,119.98c-.75,1.59-1.11,3.36-1.05,5.14v.03s-.03,.03-.03,.03c-.03,0-.03-.03-.03-.03h0c-.06-1.83,.33-3.63,1.11-5.29,0,.03,0,.09,0,.12Z"/>
            <path class="cls-5" d="M170.92,124.69h0c-.69,.39-2.55,.69-4.53,1.02-1.62,.27-3.3,.54-4.29,.87-2.28,.75-4.75,1.32-5.59,1.47h0c-.06,0-.15-.03-.21-.03,.48-.09,2.64-.57,4.84-1.23,.03,0,.06-.03,.09-.03,.27-.09,.57-.18,.84-.27,.99-.33,2.7-.6,4.32-.87,1.02-.18,2.01-.33,2.82-.51,.03,0,.06,0,.09-.03,.72-.15,1.29-.33,1.62-.48h.06q-.03,.06-.06,.09Z"/>
          </g>
          <g>
            <path class="cls-19" d="M146.92,105.77s-.03,.03-.06,.03h0s-.06,.03-.12,.06c-.63,.27-1.26-.42-1.65-.84-.06-.06-.12-.12-.18-.21-1.53-1.62-3.18-3.15-4.9-4.59-.81-.69-1.65-1.32-2.49-1.95-.75-.57-1.53-1.2-2.01-2.04h0c-.03-.06-.06-.12-.09-.18h0s-.03-.03-.03-.06c-.33-.72-.51-1.68,.21-2.22,.87-.63,2.61,.15,4.11,.81,.03,0,.06,.03,.09,.03,.3,.15,.6,.27,.9,.39,1.35,.54,5.68,1.56,6.97,1.86,.12,.03,.27,.09,.36,.15,.09,.06,.21,.15,.27,.24l3.3,3.63c.03,.06,.03,.12,0,.15h0c-.42,.45-.84,.9-1.26,1.32l-.09,.09c-.99,1.05-2.01,2.07-3.09,3.03-.06,.15-.15,.24-.24,.3Z"/>
            <path class="cls-10" d="M149.11,96.28l-1.05,.69s-.33,1.71,1.23,3.12c1.53,1.38,2.13,1.23,2.13,1.23l1.14-1.11-3.45-3.93Z"/>
            <path class="cls-5" d="M139.32,99.29h0s-.03-.03-.03-.06h0c.72-1.41,.87-3.15,.39-4.62,.03,0,.06,.03,.09,.03,.45,1.47,.3,3.21-.42,4.62h0s0,.03-.03,.03Z"/>
            <path class="cls-5" d="M150.29,102.53c-1.71,.36-3.36,1.11-4.75,2.22h-.03s-.03,0-.06,0v-.06h0c1.41-1.14,3.12-1.92,4.9-2.25,0,0-.03,.03-.06,.09Z"/>
            <path class="cls-5" d="M146.86,105.8h0c-.72-.33-2.07-1.62-3.54-3.03-1.2-1.14-2.43-2.31-3.27-2.94-1.98-1.38-3.87-3.03-4.53-3.6h0c-.03-.06-.06-.12-.09-.18,.36,.33,2.01,1.77,3.87,3.15,.03,0,.06,.03,.06,.06,.24,.18,.48,.36,.72,.51,.87,.6,2.1,1.8,3.27,2.94,.75,.72,1.47,1.41,2.07,1.95l.06,.06c.57,.48,1.02,.87,1.35,.99l.03,.03v.03c.06,.03,.03,.03,0,.03Z"/>
          </g>
          <g>
            <g>
              <path class="cls-11" d="M199.84,85.62s-1.65,7.6-7.45,9.01c-7.39,1.8-15.47-2.31-15.47-2.31l-5.53,3.99-1.11,21.35-7.75,.54-2.37-24.84-6.91,9.13-5.77-6.88s10.18-17.66,18.71-18.98c8.53-1.32,24.42,3.69,24.42,3.69l9.58,3.21-.36,2.07Z"/>
              <g>
                <path class="cls-19" d="M152.39,101.21l-.06-.06c1.5-1.65,2.67-3.6,3.81-5.5,.6-.99,1.23-2.04,1.89-3.03,.21-.3,.42-.63,.63-.93,1.71-2.61,3.51-5.29,6.55-5.86,2.31-.45,5.17,.87,7.48,1.92,.42,.18,.81,.36,1.2,.54,2.79,1.2,5.98,2.58,9.25,3.48,4.99,1.38,8.11,.03,9.52-.93,2.61-1.74,3.99-4.9,5.11-7.69l.09,.03c-1.08,2.82-2.49,5.98-5.14,7.75-1.41,.96-4.56,2.34-9.58,.93-3.27-.9-6.46-2.28-9.25-3.48-.39-.15-.78-.33-1.2-.54-2.28-1.05-5.14-2.34-7.42-1.89-3,.57-4.78,3.24-6.49,5.83-.21,.3-.42,.63-.63,.93-.66,.99-1.29,2.01-1.89,3.03-1.17,1.83-2.34,3.78-3.87,5.47Z"/>
                <path class="cls-19" d="M194.13,89.68c-1.41-.99-2.46-2.52-2.85-4.2s-.15-3.51,.69-5.05l.06,.03c-.81,1.5-1.08,3.3-.66,4.99,.39,1.65,1.41,3.18,2.82,4.14l-.06,.09Z"/>
              </g>
            </g>
            <g>
              <path class="cls-19" d="M160.17,93.4h0s-.06-.03-.03-.06c0,0,.45-1.14,1.14-2.31,.93-1.59,1.8-2.52,2.64-2.73,1.29-.36,4.56,.6,5.92,1.05,2.58,.84,5.32,1.95,7.15,2.94,.03,0,.03,.03,.03,.06s-.03,.03-.06,.03c-1.8-.99-4.53-2.13-7.12-2.94-2.82-.9-4.96-1.29-5.86-1.05-1.95,.54-3.72,4.96-3.72,5.02h-.09Z"/>
              <g>
                <path class="cls-19" d="M171.4,96.34s-.03,0-.03-.03c-.51-1.41-1.59-1.77-1.62-1.77s-.03-.03-.03-.06,.03-.03,.06-.03c0,0,1.14,.39,1.65,1.83,.03,.03,0,.06-.03,.06,.03,0,0,0,0,0Z"/>
                <path class="cls-19" d="M171.46,96.31h0s-.03-.03-.03-.03c.03-1.44-.63-2.07-.63-2.07-.03,0-.03-.03,0-.06,0-.03,.03-.03,.06,0,.03,.03,.69,.66,.66,2.13-.03,0-.03,.03-.06,.03Z"/>
              </g>
              <path class="cls-19" d="M169.24,117.79c-.06-5.98-.03-12.01,.06-17.96,.03-1.14,.03-2.4,.51-3.54,.45-1.02,1.29-1.98,2.43-2.76,.99-.66,2.4-1.23,3.51-1.68l.12-.06,.03,.06-.06,.06c-1.11,.45-2.52,1.02-3.51,1.68-1.14,.75-1.98,1.71-2.4,2.73-.48,1.11-.48,2.37-.51,3.51-.12,5.95-.12,11.98-.06,17.96h-.12Z"/>
            </g>
          </g>
        </g>
        <g>
          <path class="cls-18" d="M189.18,52.74s-1.95,.72-3.27,4.38c-1.32,3.66-4.59,15.71-4.59,15.71l-8.68-.6,.21,4.99s10.51,2.43,12.79,1.89c2.28-.54,3.87-17.09,3.87-17.09l-.33-9.28Z"/>
          <path class="cls-4" d="M183.47,73.67h-.03c-.93-.54-2.13-.75-2.13-.78-.03,0-.06-.03-.06-.09,0-.03,.03-.06,.09-.06,0,0,1.23,.24,2.19,.78,.03,.03,.03,.06,.03,.09q-.06,.06-.09,.06Z"/>
        </g>
        <g>
          <path class="cls-19" d="M163.47,70.18s-.57-1.26,1.83-1.5c2.52-.27,3.03,.78,3.15,1.17l-4.99,.33Z"/>
          <polygon class="cls-16" points="160.26 70.97 165.45 76.88 178.52 78.14 172.87 69.22 159.75 70.3 160.26 70.97"/>
        </g>
        <path class="cls-21" d="M200.65,49.76l2.91,3.03s.06,16.61-1.05,21.98-2.64,10.84-2.64,10.84c0,0,.21-2.82-7.54-4.26-7.75-1.44-9.19-2.04-9.19-2.04,.72-1.77,1.44-3.57,2.1-5.38,1.05-2.85,1.5-5.95,1.89-8.95,0-1.77,.51-3.69,.75-5.44,.24-1.77,.6-4.87,.84-6.64l11.92-3.15Z"/>
        <g>
          <path class="cls-10" d="M199.21,47.9c-1.83,3.15-7.27,6.55-7.27,6.55,.12-.84,.24-2.58,.3-4.35,.06-1.62,.09-3.27,.12-4.29,0-.66,.03-1.08,.03-1.08l6.43-3.66s-.03,.24-.06,.66c-.03,.45-.06,1.14-.09,1.92,0,.45,0,.96,.03,1.44,.12,2.13,.51,2.82,.51,2.82Z"/>
          <path class="cls-27" d="M198.76,41.74c-.03,.45-.06,1.14-.09,1.92-.27,.9-.72,1.77-1.29,2.55-.99,1.35-2.34,2.43-3.72,3.39-.42,.3-.93,.57-1.41,.51,.06-1.62,.09-3.27,.12-4.29,1.26,.06,2.52-.39,3.54-1.11,1.11-.84,2.01-1.89,2.85-2.97Z"/>
        </g>
        <g>
          <g>
            <g>
              <path class="cls-7" d="M189.57,50.51l-.96,3.72,3.06-.87s-.51-1.65-.99-2.19c-.51-.6-1.11-.66-1.11-.66Z"/>
              <path class="cls-15" d="M189.57,50.51l-.96,3.72,3.06-.87s-.51-1.65-.99-2.19c-.51-.6-1.11-.66-1.11-.66Z"/>
            </g>
            <path class="cls-18" d="M189.57,50.51s1.56,.93,2.37,3.96c0,0,.27-2.58,.36-3.87,.09-1.29,.03-2.52,.03-2.52l-2.76,2.43Z"/>
          </g>
          <g>
            <g>
              <polygon class="cls-7" points="191.94 54.48 194.91 48.71 196.32 51.56 191.94 54.48"/>
              <polygon class="cls-18" points="191.94 54.48 194.91 48.71 196.32 51.56 191.94 54.48"/>
            </g>
            <path class="cls-18" d="M194.91,48.71s2.58-1.11,3.87-2.52l1.86,3.54-4.93,4.93-.81-5.95Z"/>
          </g>
        </g>
        <g>
          <path class="cls-18" d="M202.84,52.29c1.5,.12,2.07,1.98,2.49,3.15,.57,1.68,.81,3.48,.81,5.29,0,3.51-.66,7.03-1.53,10.42-.45,1.74-.57,3.51-1.08,5.23-.45,1.47-1.11,3.12-2.04,4.38s-3.69,2.1-9.73,2.49c-6.04,.39-9.07,.12-9.07,.12l.12-5.2,13.18-3.48c.12-3.6,.45-8.05,.99-11.62,.39-2.52,.81-5.17,2.04-7.45,.54-1.2,2.22-3.45,3.81-3.33Z"/>
          <g>
            <path class="cls-4" d="M199.57,74.78h0c-2.01-.66-3.66-.12-3.69-.12s-.06,0-.09-.03,0-.06,.03-.09c.03,0,1.71-.54,3.75,.12,.03,0,.06,.06,.03,.09,.03,0,0,.03-.03,.03Z"/>
            <path class="cls-4" d="M185.6,83.04c-.93,0-1.86,0-2.79-.03-.03,0-.06-.03-.06-.06s.03-.06,.06-.06h0c4.2,.03,8.56,.06,12.79-.63,1.77-.3,3.72-.78,5.02-2.16,1.2-1.26,1.62-3.12,1.95-4.62,.93-4.11,1.74-7.84,1.98-11.62,.3-4.44-.21-8.2-1.53-11.5,0-.03,0-.06,.03-.09,.03,0,.06,0,.09,.03,1.32,3.3,1.83,7.09,1.53,11.56-.24,3.81-1.05,7.54-1.98,11.65-.33,1.5-.78,3.39-1.98,4.68-1.32,1.41-3.33,1.89-5.11,2.19-3.27,.57-6.67,.66-10,.66Z"/>
            <path class="cls-4" d="M198.7,82.32h0s-.06-.03-.06-.06c0-1.11,.45-2.19,1.23-2.97,.78-.75,1.83-1.2,2.94-1.2h.03s.06,.03,.06,.06-.03,.06-.06,.06h-.03c-1.05,0-2.1,.42-2.85,1.17s-1.2,1.8-1.2,2.88c0,.03-.03,.06-.06,.06Z"/>
          </g>
        </g>
        <g>
          <g>
            <path class="cls-10" d="M182.75,78.71s-.99-.87-1.62-1.23c-.63-.36-3.54-3.6-4.05-3.09-.54,.51,1.14,2.79,1.14,2.79l.24,.99s-3.09-.96-3.6-1.38-3.48-3.15-3.81-2.67c-.33,.48,2.55,3.51,2.55,3.51-.72-.42-1.47-.84-2.19-1.26-.21-.12-.42-.24-.63-.36-.18-.09-.39-.24-.57-.27-.06-.03-.15,0-.21,.03-.21,.15-.15,.63-.15,.84,0,.27,.06,.66,.27,.87,.3,.3,.6,.51,.6,.51,0,0-.27,.36,0,.66,.24,.3,3.09,1.95,3.6,2.13,.54,.18,5.2,1.08,6.4,1.23,1.2,.18,1.95,.48,1.95,.48l.09-3.78Z"/>
            <path class="cls-19" d="M175.06,79.31h0c-.24-.03-.87-.27-.9-.3-.66-.3-4.23-2.34-4.26-2.34s-.03-.03-.03-.06,.03-.03,.06-.03c.03,.03,3.6,2.04,4.26,2.34,0,0,.66,.24,.9,.3,.03,0,.03,.03,.03,.06,0,.03-.03,.03-.06,.03Z"/>
            <path class="cls-19" d="M174.94,80.25h0c-.24-.03-.93-.3-.96-.3-.51-.21-3.12-1.8-3.21-1.86-.03,0-.03-.03,0-.06s.03-.03,.06,0c.03,.03,2.7,1.65,3.21,1.86,0,0,.72,.27,.93,.3,.03,0,.03,.03,.03,.06-.03-.03-.03,0-.06,0Z"/>
          </g>
          <path class="cls-19" d="M175.24,78.35h0l-1.68-.69s-.03-.03-.03-.06,.03-.03,.06-.03l1.68,.69s.03,.03,.03,.06t-.06,.03Z"/>
        </g>
        <g>
          <path class="cls-19" d="M202.18,37.66c0,.96-.3,1.89-.6,2.79s-.63,1.83-1.23,2.49-1.53,.96-2.22,.45c-.48-.39-.72-1.08-.9-1.77-.36-1.56-.51-3.21-.18-4.81,.3-1.56,1.08-3.06,2.19-3.9,.93-.72,1.8-1.02,2.1,.48,.27,1.38,.84,2.82,.84,4.26Z"/>
          <path class="cls-10" d="M197.29,45.35c-2.04,1.74-5.35,2.07-7.42,.36-.39-.33-.72-.69-1.02-1.11-.96-1.32-1.5-3.09-1.83-4.75-.09-.48-.18-.96-.24-1.44,0-.09-.03-.18-.03-.27-.03-.27-.06-.54-.06-.81-.09-1.98,.33-4.05,1.59-5.65,.33-.42,.75-.81,1.17-1.14,.36-.27,.78-.51,1.23-.69,1.89-.75,4.11-.54,5.8,.57,2.13,1.41,3.18,3.81,3.42,6.37,.27,2.91-.36,6.64-2.61,8.56Z"/>
          <path class="cls-19" d="M197.59,39.34c.03,.09,.06,.21,.15,.27,.15,.09,.33,0,.42-.12,.09-.15,.09-.3,.12-.48,.06-.6,.21-1.2,.42-1.77,.18-.51,.45-1.05,.33-1.59-.27-1.08-1.56-1.08-2.16-.33-.51,.6-.12,1.35,.09,1.98,.24,.66,.42,1.35,.63,2.04Z"/>
          <g>
            <path class="cls-19" d="M195.57,33.28c.06,.75,.39,1.44,.69,2.13,.48,1.02,.96,2.01,1.44,3.03,.06,.12,.12,.27,.24,.33,.24,.15,.57-.03,.69-.27,.12-.27,.09-.57,.06-.84-.03-.27-.03-.6,.12-.84,.42-.69,1.59-.27,2.16-.81,.33-.33,.36-.84,.33-1.32-.03-.93-.06-1.86-.27-2.76s-.66-1.77-1.35-2.4c-.39-.33-.9-.6-1.41-.6-1.02-.03-1.26,.72-1.74,1.44-.54,.84-1.05,1.83-.96,2.91Z"/>
            <path class="cls-19" d="M193.92,33.76c-.87-.15-1.68-.87-2.55-.72-.66,.12-1.14,.72-1.68,1.17-.66,.57-1.5,.96-2.37,1.05-.6,.06-1.32-.06-1.62-.6-.27-.42-.21-.99-.12-1.5,.15-.96,.3-1.92,.69-2.82,.39-.87,1.08-1.65,1.98-1.92,.69-.18,1.41-.06,2.1-.24,1.11-.3,2.01-1.38,3.12-1.23,.72,.09,1.32,.69,2.04,.87,.57,.15,1.23,.03,1.77,.3,.72,.39,.9,1.41,.63,2.22-.3,.9-1.02,1.41-1.65,2.04-.69,.75-1.23,1.56-2.34,1.38Z"/>
          </g>
          <g>
            <g>
              <g>
                <path class="cls-19" d="M189.54,37.69c.75,.66,.6,1.77,.33,2.64-.09,.45-.21,.9,.03,1.23,.24,.36,.63,.6,1.02,.78,.06,.03,.03,.12-.03,.12-.66-.18-1.44-.72-1.38-1.5,.06-.69,.42-1.32,.42-2.01,0-.45-.09-.9-.42-1.23-.03,0,0-.06,.03-.03h0Z"/>
                <path class="cls-19" d="M191.91,41.56c.57,.48,.21,1.05-.48,.57l.09-.06c-.03,.15,.03,.36-.09,.36s-.06-.21-.03-.36c0-.03,.03-.06,.06-.06,.12,.06,.21,.15,.33,.18,.21,.12,.36-.12,.27-.3-.03-.09-.12-.18-.18-.27-.06-.06-.03-.09,.03-.06h0Z"/>
              </g>
              <path class="cls-19" d="M191.94,39.13c.06,.27,.3,.42,.54,.39,.27-.06,.42-.3,.39-.54-.06-.27-.3-.42-.54-.39-.27,.03-.45,.27-.39,.54Z"/>
              <path class="cls-19" d="M188.1,39.52c.06,.27,.3,.42,.54,.39,.27-.06,.42-.3,.39-.54-.06-.27-.3-.42-.54-.39-.27,.03-.45,.27-.39,.54Z"/>
            </g>
            <g>
              <path class="cls-19" d="M191.43,37.78c.27,.24,.81,.18,1.17,.18,.45,0,.96,0,1.41-.12,.12-.03,.21-.09,.3-.15,.63-.63-.75-1.08-1.11-1.17-.51-.09-1.41-.18-1.77,.33-.24,.27-.3,.66,0,.93Z"/>
              <path class="cls-19" d="M189.09,37.93c-.21,.24-.69,.24-.99,.27-.39,.03-.84,.09-1.23,.03-.03,0-.09,0-.12-.03-.03-.27-.06-.54-.06-.81,.24-.21,.6-.36,.75-.39,.45-.15,1.2-.3,1.56,.09,.24,.24,.33,.57,.09,.84Z"/>
            </g>
            <g>
              <path class="cls-19" d="M191.01,43.67c-.54,0-.93-.12-.93-.12-.03,0-.06-.06-.06-.09s.06-.06,.09-.06,1.95,.51,2.94-.81c.03-.03,.09-.03,.12-.03,.03,.03,.03,.09,.03,.12-.6,.81-1.53,.99-2.19,.99Z"/>
              <path class="cls-19" d="M191.46,44.18h0s-.06-.03-.06-.03c0-.03,.03-.03,.03-.03h0s.78,0,1.11-.39c0-.03,.03-.03,.06,0,.03,0,.03,.03,0,.06-.3,.39-1.02,.39-1.14,.39Z"/>
            </g>
            <path class="cls-28" d="M198.61,41.35c-.03,1.5-1.29,2.7-2.82,2.67-1.5-.03-2.7-1.29-2.67-2.82,.03-1.5,1.29-2.7,2.82-2.67,1.5,.03,2.7,1.29,2.67,2.82Z"/>
            <path class="cls-29" d="M189.69,42.71c-.03,.75-.33,1.44-.84,1.92-.96-1.32-1.5-3.09-1.83-4.75h0c1.53,.03,2.7,1.29,2.67,2.82Z"/>
          </g>
          <g>
            <path class="cls-10" d="M197.53,38.56s.48-2.49,2.43-2.19,1.77,4.17,.27,4.87-2.4-.84-2.4-.84l-.3-1.83Z"/>
            <g>
              <path class="cls-19" d="M199.24,39.94s-.09-.03-.09-.06c-.03-.72,.15-1.44,.54-2.07,.03-.03,.06-.06,.12-.03,.03,.03,.06,.06,.03,.12-.36,.6-.54,1.29-.51,1.98,0,.03-.06,.06-.09,.06h0Z"/>
              <path class="cls-19" d="M200.41,39.31s-.03,0-.06-.03c-.24-.3-.57-.51-.96-.6-.03,0-.06-.06-.06-.09s.06-.06,.09-.06c.39,.09,.78,.33,1.02,.63,.03,.03,.03,.09,0,.12,0,.03-.03,.03-.03,.03Z"/>
            </g>
          </g>
          <path class="cls-19" d="M195.03,34.81c.27,.66,.69,1.26,.9,1.95,.12,.45,.18,.9,.36,1.32,.21,.45,.57,.81,.9,1.17,.18,.18,.42,.36,.63,.27,.18-.06,.27-.3,.3-.51,.33-1.59,.18-3.24-.15-4.81-.12-.51-.24-1.02-.51-1.47-.48-.78-1.68-1.38-2.43-.51-.45,.6-.24,1.95,0,2.58Z"/>
        </g>
      </g>
    </g>
    <g>
      <g>
        <g>
          <path class="cls-12" d="M136.65,68.95v.18c-.03,2.94-.18,5.95-.39,7.93v.15c-.09,.84-.18,1.47-.24,1.8-.42,1.8-1.41,3.33-1.41,3.33l-4.14-13.84,2.7-15.92,.09-.57h0l.15-.96s2.34,6.85,2.97,11.62c.21,1.62,.27,3.93,.27,6.28Z"/>
          <path class="cls-12" d="M112.99,76.58c.09-2.22,.09-4.41-.21-5.89-.87-4.32-3.21-17.3-3.21-17.3,.66-1.26,1.86-2.73,3.39-3.51,.12-.06,.42-.21,.57-.27,3.24-1.53,7.06-1.53,7.06-1.53,2.7-.3,5.74,.36,8.23,1.11,2.07,.63,3.72,1.35,4.41,1.68,.24,.09,.36,.15,.36,.15,0,0-.36,12.85-.63,15.71-.03,.48-.03,1.32,.03,2.37,.3,4.99,1.56,14.81,1.56,14.81l-22.37,1.47v-.03c.03-.3,.63-4.62,.81-8.77Z"/>
          <path class="cls-12" d="M115.84,62.62l-2.49,9.4-.03,.12-1.17,4.38v8.83l-.06,.03h0l-6.13,2.76c.18-.09-.36-3.57-.39-3.84-.03-.42-.09-.81-.12-1.23v-.18c-.24-3-.27-6.01-.12-9.01v-.21c.24-4.93,.93-9.82,1.86-14.69,.93-4.84,2.7-5.83,2.7-5.83l5.23,8.35,.03,.06h0l.69,1.05Z"/>
          <g>
            <path class="cls-19" d="M112.14,85.44s-.06-.03-.06-.06v-8.83l2.97-12.01s.06-.06,.09-.06,.06,.06,.06,.09l-2.97,11.98v8.8c0,.06-.03,.09-.09,.09Z"/>
            <path class="cls-19" d="M115.21,61.57s-.06-.03-.06-.06c-.06-3.51-2.04-6.97-4.99-8.83-.03-.03-.03-.06-.03-.09,.03-.03,.06-.03,.09-.03,3,1.89,4.99,5.41,5.08,8.95-.03,.03-.06,.06-.09,.06h0Z"/>
            <path class="cls-19" d="M110.31,78.59c-.24,1.2-.75,2.34-1.5,3.3-.69,.9-1.44,1.41-2.22,1.47h-.15c-.33,0-.69-.12-.99-.3v-.18c.33,.24,.75,.39,1.14,.33,.75-.06,1.44-.54,2.1-1.41,.72-.96,1.23-2.07,1.47-3.24,.24-1.2,.15-2.31-.24-3.21-.45-1.05-1.35-1.86-2.34-2.07-.81-.18-1.68,.09-2.25,.6v-.21c.6-.48,1.47-.72,2.28-.54,1.05,.21,1.98,1.05,2.46,2.16,.39,.96,.48,2.1,.24,3.3Z"/>
            <g>
              <path class="cls-19" d="M133.17,69.64s-.06-.03-.06-.06c-.3-2.37-.09-9.34-.09-9.43,0-.03,.03-.06,.06-.06s.06,.03,.06,.06c0,.06-.21,7.03,.09,9.4,0,.03-.03,.09-.06,.09h0Z"/>
              <path class="cls-19" d="M132.96,64.9h0c-.06,0-.09-.06-.06-.09l.87-4.11s.06-.06,.09-.06,.06,.06,.06,.09l-.87,4.11c0,.06-.03,.06-.09,.06Z"/>
              <path class="cls-19" d="M133.29,56.1s-.03,.06-.06,.06h0s-.06-.03-.06-.09c.12-1.26,.09-2.4,0-3.51l.09-.57c.09,1.32,.18,2.64,.03,4.11Z"/>
              <path class="cls-19" d="M136.65,68.95v.18c-1.65,1.5-2.43,3.99-1.83,6.16,.15,.51,.33,.9,.6,1.2,.24,.27,.54,.48,.84,.57v.15c-.36-.09-.69-.3-.96-.6-.27-.3-.48-.72-.63-1.26-.63-2.28,.21-4.9,1.98-6.4Z"/>
            </g>
          </g>
        </g>
        <g>
          <g>
            <polygon class="cls-14" points="109.32 121.33 110.61 126.16 114.13 125.29 113.56 120.73 109.32 121.33"/>
            <path class="cls-16" d="M116.83,129.2c-.9,1.05-3.42,4.05-4.75,5.17-.72,.63-2.1,.96-3.39,.99-.63,.03-1.23-.03-1.71-.15-.12-.03-.21-.06-.3-.09-.06-.03-.12-.03-.18-.06-.45-.18-.72-.45-.72-.84,.06-1.47,2.34-2.28,3.15-3.33h0c.06-.06,.12-.15,.15-.27,.63-1.41,.54-5.59,.54-5.59,0,0-.54-1.5,.48-1.23,.48,.12,.96,1.05,.96,1.05,0,0,2.58-.93,2.82-1.92,0,0,.81,.93,.93,1.53,0,.06,.03,.12,.06,.18,0,.03,.03,.06,.06,.12,.3,.48,1.05,1.26,1.62,2.28,0,.03,.03,.06,.03,.09,.09,.15,.15,.27,.21,.42,.09,.21,.18,.45,.24,.72,.09,.33,0,.66-.21,.93Z"/>
            <path class="cls-4" d="M116.83,129.2c-.9,1.05-3.42,4.05-4.75,5.17-.72,.63-2.1,.96-3.39,.99-.63,.03-1.23-.03-1.71-.15,1.11-.12,2.16-.57,3.09-1.2,1.08-.75,1.98-1.68,2.91-2.64,1.08-1.14,2.16-2.28,3.24-3.39,.18-.18,.36-.36,.6-.42,.09,.21,.18,.45,.24,.72,.06,.33-.03,.66-.24,.93Z"/>
            <path class="cls-6" d="M116.59,127.16c-1.14,.75-2.19,2.04-3.06,3.06l-.09,.12c-.9,1.08-1.86,2.19-3.03,3.09-1.14,.87-2.52,1.5-3.72,1.74-.06-.03-.12-.03-.18-.06,.93-.15,2.01-.54,2.97-1.14,.03,0,.06-.03,.09-.06,.27-.18,.54-.36,.81-.54,1.14-.9,2.13-2.01,3-3.06l.09-.12c.87-1.05,1.95-2.34,3.09-3.09,0,0,.03,.03,.03,.06Z"/>
            <path class="cls-6" d="M109.59,133.91l-.09,.06s0-.03-.03-.03c-.57-.87-.75-1.98-.54-3.03h0c.06-.06,.12-.15,.15-.27h0c-.33,1.08-.15,2.28,.48,3.24t.03,.03Z"/>
            <path class="cls-6" d="M114.94,124.78c-.33,1.11-.21,2.34,.27,3.39l-.09,.03c-.51-1.08-.6-2.4-.24-3.54h0l.06,.12Z"/>
          </g>
          <g>
            <path class="cls-13" d="M103.5,100.79c.18-.27,5.02,21.59,5.02,21.59l5.92-1.11,.27-20.75-11.2,.27Z"/>
            <path class="cls-31" d="M103.5,100.79c.18-.27,5.02,21.59,5.02,21.59l5.92-1.11,.27-20.75-11.2,.27Z"/>
            <rect class="cls-19" x="111.82" y="100.67" width=".15" height="20.69" transform="translate(-6.51 6.97) rotate(-3.47)"/>
          </g>
        </g>
        <g>
          <g>
            <path class="cls-14" d="M87.37,122.56l-.99,2.85s1.38,1.95,3.63,1.77l1.17-2.79-3.81-1.83Z"/>
            <g>
              <path class="cls-16" d="M90.34,129.02c.03,1.11,.06,2.73-.27,3.6,0,.03-.03,.06-.03,.09-.09,.18-.18,.33-.3,.39-.99,.69-3.21-.51-5.68-1.17-2.43-.66-6.82-2.97-6.1-4.99v-.03s0-.06,.09-.15c.18-.21,.72-.57,2.43-.54,.51,.03,.99,0,1.47-.03h.15c1.71-.12,3.03-.39,3.03-.39l.39-.9s.6-1.41,1.14-1.08c.51,.33,.12,1.77,.12,1.77,0,0,2.34,1.29,3.54,.93,0,0,.12,.69,.03,1.32-.03,.15-.03,.54,0,1.05-.03,.06-.03,.09-.03,.12Z"/>
              <path class="cls-6" d="M90.07,132.62s-.03,.06-.03,.09c-3.51-.3-6.7-1.23-9.49-2.76-.66-.36-1.35-.75-1.86-1.35-.42-.51-.66-1.08-.72-1.65v-.03s0-.06,.09-.15c0,.6,.24,1.23,.69,1.74,.39,.45,.9,.81,1.41,1.11,.03,.03,.06,.03,.09,.06,.12,.06,.24,.12,.33,.18,2.07,1.14,4.38,1.92,6.88,2.4,.03,0,.06,.03,.09,.03,.81,.15,1.65,.27,2.52,.33Z"/>
              <path class="cls-6" d="M87.52,132.32l-.09-.03c.33-1.02,.9-1.95,1.65-2.7,.27-.27,.69-.66,1.2-.66h.06v.09c-.36-.03-.75,.18-1.2,.63-.72,.75-1.26,1.68-1.62,2.67Z"/>
              <path class="cls-6" d="M82.08,126.22c-.96,.93-1.62,2.16-1.86,3.48v.03l-.09-.03s0-.06,.03-.09c.27-1.29,.9-2.49,1.8-3.42,.03,.03,.09,.03,.12,.03Z"/>
            </g>
          </g>
          <g>
            <path class="cls-13" d="M135.96,93.07c0,.06-.03,.09-.03,.15-.21,1.11-.54,2.04-.93,2.76-.96,1.77-3.27,2.76-6.13,3.45-.03,0-.09,.03-.12,.03-1.53,.36-3.24,.66-4.96,.96-4.62,.78-20.84,1.56-20.84,1.56l-11.38,23.24-3.33-1.29h-.03l-1.92-.75s6.4-27.06,9.28-29.67c2.88-2.58,16.61-8.2,16.61-8.2v-.03l.18-2.34v-.15l.51-6.13,.18-3.54c.36-.21,.69-.42,1.02-.66,.06-.03,.09-.06,.12-.12h0c4.17-3.39,4.5-10.72,4.5-10.72l-5.62-11.26-.03-.09,.42-.12,4.29-1.11,6.55,11.08,4.44-10.99c2.07,.63,3.72,1.35,4.41,1.68l-3.72,11.05,3.51,7.21,.21,.48c.45,5.83,1.2,9.55,2.4,14.27,.12,.51,.24,.99,.33,1.47,0,.03,0,.09,.03,.12,.51,2.85,.45,5.56,.03,7.66Z"/>
            <g>
              <path class="cls-19" d="M88.24,123.97s-.03,0,0,0c-.06-.03-.09-.06-.06-.09l8.08-21.83c1.02-2.79,2.22-5.98,4.59-8.14,2.01-1.83,4.68-2.73,7.27-3.57,.63-.21,1.26-.42,1.86-.63,1.56-.57,3.27-1.35,4.05-2.88,.6-1.17,.54-2.52,.48-3.75l-.45-10.63s.03-.06,.06-.09c.03,0,.06,.03,.09,.06l.45,10.63c.06,1.23,.12,2.61-.51,3.81-.81,1.56-2.55,2.37-4.14,2.94-.63,.21-1.26,.45-1.86,.63-2.55,.84-5.2,1.74-7.21,3.54-2.37,2.13-3.54,5.29-4.56,8.08l-8.08,21.83q-.03,.09-.06,.09Z"/>
              <path class="cls-19" d="M117.61,83.22c-1.77,0-3.54-.06-5.32-.21-.03,0-.06-.03-.06-.09,0-.03,.03-.09,.09-.06,7.54,.57,15.08-.06,22.43-1.92,.03,0,.09,0,.09,.06,0,.03,0,.09-.06,.09-5.65,1.41-11.38,2.13-17.18,2.13Z"/>
              <path class="cls-19" d="M128.81,99.5s-.03,0,0,0c-.06-.03-.09-.06-.06-.09,2.28-5.26,2.61-11.41,.96-16.88,0-.03,0-.09,.06-.09,.03,0,.09,0,.09,.06,1.68,5.53,1.32,11.71-.96,17q-.06,0-.09,0Z"/>
              <path class="cls-19" d="M128.12,88.53c-.09-.72-.18-1.47-.18-2.19t-.03-.06s-.03-.03-.06-.03c-2.88,.39-5.8,.48-8.71,.3t-.06,.03s-.03,.03-.03,.06c.12,.87,.03,1.71-.03,2.55-.09,1.02-.18,2.1,.09,3.15,.51,1.89,2.07,3.27,3.36,4.41,.33,.27,.66,.54,1.05,.54h.03c.36,0,.69-.27,.96-.51,1.11-1.02,2.13-2.13,3-3.36,1.05-1.38,.81-3.18,.6-4.9Zm-.66,4.81c-.87,1.2-1.86,2.34-2.97,3.33-.24,.21-.54,.45-.87,.48h-.03c-.36,0-.66-.24-.96-.51-1.26-1.11-2.82-2.49-3.33-4.32-.27-1.05-.18-2.04-.09-3.09,.06-.81,.15-1.65,.03-2.49,2.85,.18,5.74,.09,8.56-.27,0,.69,.09,1.41,.18,2.1,.21,1.68,.45,3.42-.51,4.78Z"/>
              <path class="cls-19" d="M134.19,90.55c-.3-.9-.33-1.8-.33-2.76,0-.72-.03-1.47-.18-2.22,.75-.03,1.5-.06,2.25-.15,0-.03,0-.09-.03-.12-.78,.09-1.53,.12-2.31,.15t-.06,.03v.06c.18,.75,.18,1.53,.18,2.25,0,.93,.03,1.86,.33,2.79,.36,1.08,1.08,1.92,1.86,2.64,0-.06,.03-.09,.03-.15-.69-.69-1.38-1.5-1.74-2.52Z"/>
            </g>
          </g>
        </g>
        <path class="cls-9" d="M136.5,53.43c-.27,.03-.57,.03-.9,.03-.12-1.02-.48-1.92-1.08-2.85,.18,.93,.24,1.89,.18,2.85h-6.01c-.27-1.02-.54-1.98-.9-3.03-.06,1.02-.15,2.01-.3,3.03h-15.32c-.21-1.02-.48-1.59-.48-2.64-.48,.96-.63,1.56-.66,2.64h-3.51c-.24,.15-.51,0-.69-.21-1.14-1.29-1.26-3.27-.24-4.65,.48-.66,1.2-1.2,1.5-1.95,.51-1.29-.39-2.73-.21-4.08,.24-1.86,2.37-2.97,3.48-4.56,1.2-1.74,1.14-3.96,2.07-5.86,.81-1.65,2.4-2.97,4.26-3.51,1.86-.54,3.99-.33,5.68,.6,1.29-.24,2.61,.09,3.66,.84s1.71,1.92,1.8,3.15c.09,1.14-.3,2.34,.21,3.36,.6,1.17,2.1,1.59,3.15,2.4,1.35,1.05,1.98,2.85,1.53,4.44-.3,1.11-1.08,2.34-.36,3.27,.36,.48,1.02,.69,1.53,1.05,.9,.6,1.41,1.59,1.62,2.61,.15,.99,.06,2.04-.03,3.06Z"/>
      </g>
      <g>
        <g>
          <g>
            <path class="cls-19" d="M138.15,100.64v1.23c0,.45-.36,.81-.81,.81l-34.66-.69v-1.35c0-.45,.36-.81,.81-.81h33.85c.45,0,.81,.36,.81,.81Z"/>
            <path class="cls-21" d="M115.96,99.83v2.4l-13.27-.27v-1.35c0-.45,.36-.81,.81-.81h12.46v.03Z"/>
            <rect class="cls-5" x="120.38" y="84.13" width=".09" height="35.5" transform="translate(17.77 221.63) rotate(-89.63)"/>
          </g>
          <g>
            <rect class="cls-19" x="116.02" y="90.7" width=".36" height="9.16"/>
            <rect class="cls-19" x="134.73" y="90.7" width=".36" height="9.16"/>
            <g>
              <path class="cls-19" d="M139.65,69.22v18.71c0,1.59-1.29,2.88-2.88,2.88h-24.39c-.75,0-1.44-.3-1.98-.78l-.09-.09c-.51-.51-.81-1.23-.81-2.01v-18.71c0-.78,.3-1.5,.81-2.01,.03-.03,.06-.06,.09-.09,.51-.48,1.2-.78,1.98-.78h24.39c1.59,0,2.88,1.29,2.88,2.88Z"/>
              <path class="cls-5" d="M110.4,67.12v22.91l-.09-.09v-22.73s.06-.06,.09-.09Z"/>
            </g>
          </g>
        </g>
        <g>
          <path class="cls-19" d="M100.49,132.38h-.03c-.09-.03-.15-.12-.15-.21l6.76-30.12c.03-.09,.12-.15,.21-.15,.09,.03,.15,.12,.15,.21l-6.76,30.12c-.03,.09-.09,.15-.18,.15Z"/>
          <path class="cls-19" d="M111.93,136.53s-.03,0,0,0c-.12,0-.18-.12-.18-.21l4.44-34.09c0-.09,.12-.18,.21-.15,.09,0,.18,.09,.15,.21l-4.44,34.09c-.03,.09-.09,.15-.18,.15Z"/>
          <path class="cls-19" d="M139.08,135.83c-.09,0-.18-.06-.18-.15l-3.69-33.01c0-.09,.06-.18,.15-.21,.09,0,.18,.06,.21,.15l3.69,33.01c0,.12-.06,.21-.18,.21h0Z"/>
          <path class="cls-19" d="M131.76,127.67c-.09,0-.18-.06-.18-.15l-2.58-25.11c0-.09,.06-.18,.15-.21,.09,0,.18,.06,.21,.15l2.58,25.08c.03,.15-.06,.24-.18,.24t0,0Z"/>
          <path class="cls-19" d="M135.57,105.62h-19.19l-9.64-.18c-.09,0-.18-.09-.18-.18s.09-.18,.18-.18l9.64,.18h19.19c.09,0,.18,.09,.18,.18s-.09,.18-.18,.18Z"/>
        </g>
      </g>
    </g>
    <g>
      <g>
        <g>
          <g>
            <polygon class="cls-14" points="50.55 109.38 49.44 112.29 52.68 114 54.27 111.09 50.55 109.38"/>
            <g>
              <path class="cls-21" d="M56.11,123.79v.09h0v.03c-.06,.42-.57,.69-1.02,.78-.87,.12-1.74-.12-2.52-.54-.57-.33-1.02-.84-1.44-1.35-1.47-1.74-2.94-3.48-4.44-5.26-.48-.57-1.05-1.23-.81-2.04,.09-.24,.18-.48,.33-.72,.03-.03,.03-.06,.06-.09,.21-.33,.45-.63,.69-.93,.33-.42,.69-.84,1.11-1.23,.03-.03,.03-.06,.06-.06,.06-.06,.15-.12,.21-.18,.15-.12,.27-.27,.42-.39,.24-.18,.6-.39,.9-.24h.03c.42,.21,.75,.84,1.41,1.17,.33,.15,1.41-.39,2.13,.09l.03,.03c.3,.24,.21,.84,.24,1.17,.06,.39,.06,.93,.09,1.38v.09c0,.15,0,.3,.03,.42,.03,.39,.06,.75,.09,1.11v.09c.09,1.08,.21,2.04,.39,3.21,.03,.18,.06,.36,.12,.51,0,.03,.03,.06,.03,.09,.24,.78,.78,1.41,1.44,1.92,.24,.21,.42,.51,.42,.84Z"/>
              <path class="cls-5" d="M56.11,123.79v.09h0c-.3,.12-.63,.21-.99,.21-.27,0-.57-.03-.84-.12-.72-.21-1.38-.66-1.86-1.02-2.4-1.83-4.44-4.5-6.19-8.14,.03-.03,.03-.06,.06-.09,.33,.72,.69,1.41,1.08,2.07,0,0,0,.03,.03,.03,1.2,2.07,2.49,3.78,3.96,5.11t.06,.06c.36,.33,.72,.63,1.08,.9,.51,.39,1.11,.81,1.83,1.02,.6,.15,1.26,.12,1.77-.12Z"/>
              <path class="cls-5" d="M54.21,121.06c-1.02-.06-2.04,.27-2.85,.93l-.03,.03-.06-.06,.03-.03c.81-.66,1.83-.99,2.88-.96,.03,.03,.03,.06,.03,.09Z"/>
              <path class="cls-5" d="M47.4,116.82l-.03-.03-.03-.03h0c.81-1.2,1.08-2.79,.69-4.2,.03-.03,.03-.06,.06-.06,.42,1.44,.15,3.09-.69,4.32Z"/>
              <path class="cls-5" d="M53.58,115.62c-.75-.06-1.53,.03-2.25,.24l-.03-.09c.72-.21,1.5-.3,2.25-.24,.03,.03,.03,.06,.03,.09Z"/>
              <path class="cls-5" d="M53.7,117.25c-.75,0-1.47,.09-2.19,.27v-.09c.72-.18,1.44-.27,2.19-.27v.09Z"/>
            </g>
          </g>
          <g>
            <g>
              <path class="cls-13" d="M55.47,93.97s-5.74,8.2-5.47,16.91l3.6,1.86,8.44-11.98-.54-6.07-6.04-.72Z"/>
              <path class="cls-30" d="M55.47,93.97s-5.74,8.2-5.47,16.91l3.6,1.86,8.44-11.98-.54-6.07-6.04-.72Z"/>
            </g>
            <path class="cls-19" d="M51.03,111.33h0s-.06-.03-.03-.06c1.89-5.53,4.08-10.39,6.88-15.29,0-.03,.03-.03,.06-.03s.03,.03,.03,.06c-2.79,4.9-4.99,9.76-6.88,15.29-.03,0-.06,.03-.06,.03Z"/>
          </g>
        </g>
        <g>
          <g>
            <g>
              <path class="cls-19" d="M23.61,94.78c-.96,0-1.95-1.11-2.94-3.27-.78-1.71-1.29-3.51-1.32-3.54-.03-.09,.03-.18,.12-.21s.18,.03,.21,.12c.54,1.95,2.37,6.91,4.11,6.52,.09-.03,.18,.03,.21,.12s-.03,.18-.12,.21c-.09,.03-.18,.06-.27,.06Z"/>
              <path class="cls-19" d="M26.19,90.7c-.12,0-.21-.03-.33-.06-1.71-.66-3-6.34-3-6.4-.03-.09,.03-.18,.15-.21,.09-.03,.18,.03,.21,.15,.24,1.17,1.5,5.65,2.79,6.13,.21,.09,.39,.06,.6-.12,.09-.06,.18-.03,.24,.03,.06,.09,.03,.18-.03,.24-.21,.18-.42,.24-.63,.24Z"/>
            </g>
            <g>
              <path class="cls-21" d="M24.39,83.07l-3.57,5.05c-.09,.12-.18,.21-.3,.3-.03,.03-.06,.03-.06,.06-.63,.39-1.53,.09-1.77-.69l-5.77-19.91c-.3-1.02,.27-2.07,1.26-2.4h.03l.09-.03,4.35-1.38c.72-.24,1.5,.18,1.68,.93l4.38,16.1c.18,.69,.06,1.41-.33,1.98Z"/>
              <path class="cls-5" d="M20.55,88.38s-.06,.03-.06,.06c-.06-.06-.12-.12-.18-.21-.3-.39-.45-.9-.6-1.35l-5.05-16.43c-.3-.93-.57-1.89-.66-2.88-.06-.57-.03-1.35,.21-2.13h.03l.09-.03c-.27,.78-.27,1.56-.21,2.16,.09,.99,.39,1.95,.66,2.85l5.05,16.43c.12,.45,.3,.93,.57,1.32,0,.09,.06,.15,.15,.21Z"/>
            </g>
          </g>
          <g>
            <g>
              <path class="cls-19" d="M19.35,126.25h-.03c-.09-.03-.15-.12-.12-.21l7.63-30.3c.03-.09,.12-.15,.21-.12,.09,.03,.15,.12,.12,.21l-7.66,30.27c0,.09-.09,.15-.15,.15Z"/>
              <path class="cls-19" d="M51.84,128.39c-.09,0-.15-.06-.18-.15l-6.1-32.1c-.03-.09,.03-.18,.15-.21s.18,.03,.21,.15l6.1,32.1c.03,.09-.03,.18-.15,.21h-.03Z"/>
              <path class="cls-19" d="M46.49,101.09H25.8c-.09,0-.18-.09-.18-.18s.09-.18,.18-.18h20.69c.09,0,.18,.09,.18,.18s-.09,.18-.18,.18Z"/>
            </g>
            <g>
              <path class="cls-21" d="M51.51,95.38s-.03,.06-.03,.09c-.33,.63-.99,1.11-1.77,1.08l-24.21-.39c-.72,0-1.32-.39-1.65-.96-.03-.03-.03-.06-.06-.09-.3-.57-.33-1.29,.06-1.95l1.89-3.15c.66-1.11,1.89-1.77,3.18-1.74l19.37,.57c1.32,.03,2.43,.96,2.7,2.25l.63,3.03c.09,.51,.06,.93-.12,1.26Z"/>
              <path class="cls-5" d="M51.51,95.38s-.03,.06-.03,.09c-5.11-.12-23.52-.21-27.63-.24-.03-.03-.03-.06-.06-.09,4.02,.03,22.67,.15,27.72,.24Z"/>
            </g>
          </g>
        </g>
        <g>
          <g>
            <g>
              <polygon class="cls-14" points="68.57 118.21 69.26 121.24 72.92 120.85 72.62 117.55 68.57 118.21"/>
              <path class="cls-21" d="M82.71,127.31v.09c-.15,.66-3.18,.72-6.1,.54-2.88-.18-6.55-.3-7.3-.48-.51-.12-.81-.48-.9-1.29v-.09c-.03-.36-.06-.78-.03-1.32,.03-.75,.18-1.44,.33-2.01,0-.03,.03-.06,.03-.09,.27-.84,.57-1.38,.57-1.38l1.95-.27s1.23-.87,1.89-.96h0c.39-.03,1.38,.72,2.43,1.62,.03,.03,.06,.03,.06,.06,.36,.3,.75,.63,1.11,.93l.06,.06c.39,.33,.75,.63,1.05,.87,.45,.36,1.14,.78,1.86,1.23,.03,0,.06,.03,.09,.06,1.44,.81,2.91,1.74,2.88,2.43Z"/>
              <g>
                <path class="cls-5" d="M82.71,127.31v.09c-.75,.09-1.53,.15-2.31,.15s-1.65-.03-2.49-.09h-.09c-.15,0-.3-.03-.48-.03-1.59-.12-3.24-.27-4.84-.42-1.5-.15-2.85-.33-4.08-.81v-.09c1.23,.51,2.61,.66,4.11,.81,1.59,.15,3.21,.3,4.84,.42,.15,0,.33,.03,.48,.03h.09c1.62,.09,3.21,.15,4.78-.06Z"/>
                <path class="cls-5" d="M79.86,124.81c-.84,.69-1.5,1.56-1.89,2.52,0,.03-.03,.06-.03,.09v.03l-.09-.03h0s.03-.06,.03-.09c.39-.99,1.08-1.86,1.92-2.58,0,.03,.03,.06,.06,.06Z"/>
                <path class="cls-5" d="M70.85,126.65h-.09c-.21-1.47-.93-2.85-2.04-3.93,0-.03,.03-.06,.03-.09,1.14,1.11,1.89,2.52,2.1,4.02Z"/>
                <path class="cls-5" d="M75.69,121.69c-.72,.6-1.32,1.32-1.68,2.16,0,.03-.03,.03-.03,.03h-.03s-.03-.03-.03-.06c.36-.84,.96-1.59,1.71-2.19,0,.03,.03,.03,.06,.06Z"/>
                <path class="cls-5" d="M76.86,122.68c-.54,.51-1.05,1.05-1.53,1.62l-.03,.03h-.03s-.03-.03,0-.06c.45-.57,.96-1.11,1.53-1.62,.03,0,.06,0,.06,.03Z"/>
              </g>
            </g>
            <g>
              <path class="cls-13" d="M30.4,70.18s-3.24,7.75-3.18,13.48c.09,5.74,3.6,8.71,5.11,8.89s16.82,.63,18.83,.96c2.01,.36,8.53,3.24,8.53,3.24,0,0,3,14.81,8.71,21.92l4.56-.78s-4.23-26.07-7.06-29.4c-2.82-3.33-21.14-7.75-21.14-7.75l-1.74-11.02c.09-.03-9.31,1.65-12.61,.45Z"/>
              <g>
                <path class="cls-19" d="M38.33,72.62c-4.59,0-8.35-1.32-8.41-1.35-.03,0-.03-.03-.03-.06s.03-.03,.06-.03c.06,.03,7.3,2.58,13.93,.57,.03,0,.06,0,.06,.03s0,.06-.03,.06c-1.86,.57-3.78,.78-5.59,.78Z"/>
                <path class="cls-19" d="M69.71,118.45s-.03,0-.03-.03c-2.94-6.46-5.41-13.18-7.33-20-.51-1.8-1.05-3.66-2.43-4.87-1.17-1.02-2.73-1.32-4.47-1.62-5.77-.96-11.62-1.77-17.45-2.43-1.77-.21-3.57-.51-4.56-1.86-.63-.9-.75-2.01-.81-3.18-.24-4.11-.18-8.26,.15-12.37,0-.03,.03-.03,.06-.03s.03,.03,.03,.06c-.33,4.08-.39,8.26-.15,12.34,.06,1.14,.18,2.25,.81,3.12,.96,1.32,2.73,1.62,4.5,1.8,5.83,.66,11.68,1.47,17.45,2.43,1.77,.3,3.33,.63,4.53,1.65,1.41,1.2,1.95,3.09,2.46,4.9,1.92,6.82,4.38,13.54,7.33,19.97-.03,.06-.03,.09-.09,.12t0,0Z"/>
                <path class="cls-19" d="M44.99,80.79h0c-1.35-.45-3.12-.87-3.12-.87-.03,0-.03-.03-.03-.06s.03-.03,.06-.03,1.77,.45,3.12,.87c.03,0,.03,.03,.03,.06s-.03,.03-.06,.03Z"/>
                <path class="cls-19" d="M43.76,78.83c-.06,0-.09,0-.15-.03-.12-.06-.24-.12-.3-.24-.15-.24-.18-.51-.21-.75l-.66-5.65s0-.03,.03-.06t.06,.03l.66,5.65c.03,.24,.06,.51,.18,.72,.06,.09,.15,.15,.24,.21,.09,.03,.18,.03,.27-.03,.09-.06,.15-.15,.15-.24,.03-1.35-.06-2.67-.18-4.05v-.06s.03-.03,.03-.06c.03,0,.03,.03,.06,.03v.06c.12,1.38,.21,2.7,.18,4.08,0,.12-.06,.24-.18,.33-.03,.03-.09,.06-.18,.06Z"/>
                <path class="cls-19" d="M32.62,79.83s-.03,0-.03-.03,0-.06,.03-.06c1.53-.45,2.91-1.41,3.9-2.67,.99-1.26,1.56-2.82,1.65-4.44,0-.03,.03-.03,.03-.03h0s.03,.03,.03,.06c-.09,1.62-.66,3.21-1.65,4.47-.99,1.29-2.4,2.22-3.96,2.7h0Z"/>
              </g>
            </g>
          </g>
          <g>
            <g>
              <path class="cls-14" d="M43.16,40.45l-.21,1.5-.3,2.16-.3,2.22s-6.31-.78-7.45-3.63l3.24-5.56,5.02,3.3Z"/>
              <path class="cls-26" d="M42.95,41.95l-.3,2.16c-.18-.06-.36-.18-.51-.27-.54-.36-1.02-.78-1.47-1.23-.81-.84-1.5-1.83-1.98-2.88-.09-.18-.33-.54-.09-.66,.18-.09,.69,.27,.87,.36,.6,.3,1.2,.63,1.77,.99,.66,.42,1.23,.93,1.71,1.53Z"/>
            </g>
            <g>
              <path class="cls-14" d="M49.08,36.49c0,.09-.03,.18-.09,.24-.27,.39-.87,.75-1.02,.9h0s-.03,.12-.06,.21c-.03,.21-.09,.51-.21,.51-.6,0-1.29-.06-1.95-.06h0s.03,.06,.06,.12c.03,.03,.03,.06,.03,.06,.21,.33,.63,.63,.99,.81,.33,.18,.69,.18,.69,.63v.09c-.03,.51-.33,1.17-.54,1.62-.15,.3-.3,.63-.66,.75-.42,.15-.87,.06-1.29,.03-.72-.03-1.41-.15-2.1-.33-.93-.24-1.8-.6-2.64-1.02-.48-.24-.93-.54-1.35-.87-.3-.24-.6-.51-.87-.81l-.03-.03c-.24-.27-.45-.57-.66-.87-1.17-1.8-1.47-4.02-1.23-6.16,.18-1.74,.9-3.42,2.28-4.53,1.08-.87,2.49-1.38,3.87-1.35,.75,.03,1.47,.18,2.13,.45,.06,.03,.12,.03,.15,.06,.87,.42,1.62,1.05,2.16,1.92,.75,1.23,.66,2.34,.57,3.45,0,.18-.03,.36-.03,.54-.03,.36-.06,.78,.09,1.11,.09,.27,.54,.63,.96,1.17,.33,.36,.78,.93,.75,1.35Z"/>
              <path class="cls-32" d="M49.08,36.49c0,.09-.03,.18-.09,.24-.27,.39-.87,.75-1.02,.9h0c-.09-.03-.15-.09-.15-.18-.03-.15,.09-.3,.21-.39,.24-.21,.54-.36,.81-.51,.06,0,.15-.03,.24-.06Z"/>
              <path class="cls-20" d="M49.17,32.31h-2.1l-.36-2.34-.09,2.34h-1.77l-.12-3.27-.48,3.27h-1.62l2.25-6.76s1.98,.12,3.27,2.28c1.29,2.13,1.02,4.47,1.02,4.47Z"/>
              <path class="cls-20" d="M45.05,25.62c.03-.09-.93-.6-.99-.63-.78-.45-1.65-.81-2.52-1.05-1.89-.48-3.9-.03-5.59,.87-1.77,.96-3,2.49-3.81,4.29-.3,.69-.54,1.41-.69,2.13-.72,3.39-.03,7.63,3.51,9.13,.51,.21,.84,.42,1.44,.27,1.47-.39,3.12-3.54,3.12-3.54l3.12-4.87c-.03,.06,2.4-6.58,2.4-6.61Z"/>
              <g>
                <path class="cls-14" d="M41.57,35.11c-.24-.84-.87-1.59-1.68-1.89-.84-.33-1.89-.15-2.46,.48-.69,.75-.57,1.98,.06,2.79,.63,.81,1.71,1.2,2.76,1.29,.6-.84,1.05-1.71,1.32-2.67Z"/>
                <g>
                  <path class="cls-19" d="M38.81,36.46s-.09-.03-.09-.06c-.18-.81,0-1.68,.48-2.31,.03-.03,.09-.06,.12-.03,.03,.03,.06,.09,.03,.12-.45,.6-.63,1.41-.45,2.16,0,.06-.03,.09-.09,.12h0Z"/>
                  <path class="cls-19" d="M40.1,35.89s-.06,0-.06-.03c-.42-.36-.69-.48-1.17-.69l-.06-.03c-.06-.03-.06-.09-.06-.12,.03-.06,.09-.06,.12-.06l.06,.03c.51,.21,.81,.33,1.23,.72,.03,.03,.03,.09,0,.15,0,0-.03,.03-.06,.03Z"/>
                </g>
              </g>
              <g>
                <g>
                  <path class="cls-25" d="M47.91,37.84c-.03,.21-.09,.51-.21,.51-.6,0-1.29-.06-1.95-.06-.03-.09,.12-.18,.27-.21,.51-.09,1.02-.15,1.53-.24,.12-.03,.24-.03,.36,0Z"/>
                  <path class="cls-24" d="M47.52,39.91v.09c-.06,.03-.09,.03-.15,.03-.09,0-.18-.03-.27-.06-.21-.09-.39-.21-.57-.36-.3-.27-.54-.6-.69-.96-.03-.06-.09-.18-.03-.24,.03,.03,.03,.06,.03,.06,.21,.33,.63,.63,.99,.81,.33,.18,.69,.18,.69,.63Z"/>
                </g>
                <g>
                  <path class="cls-20" d="M43.85,33.1c.09-.3,.24-.57,.48-.78s.51-.36,.84-.42c.33-.06,.69-.03,.96,.12,.3,.15,.51,.36,.66,.63,.03,.06,0,.09-.03,.12h-.06c-.3-.03-.54-.09-.75-.09s-.42,0-.6,.06c-.39,.06-.78,.27-1.32,.45h0c-.06,.03-.12,0-.15-.06-.03,0-.03-.03-.03-.03Z"/>
                  <path class="cls-19" d="M47.52,36.58c-.15,.06-.21,.36-.15,.48,.03,.06,.12,.03,.21,0l.3-.06s.09,.03,.09,.06c.03,.03-.15,.27-.15,.3-.03,.06-.15,0-.12-.06l.12-.27,.09,.12-.3,.03c-.09,0-.27,.06-.33-.09-.06-.12-.03-.24,.03-.33,.03-.09,.09-.21,.21-.24,.03-.03,.03,.03,0,.06h0Z"/>
                  <g>
                    <path class="cls-19" d="M45.5,34.42c.03,.27,.27,.48,.54,.45,.27-.03,.48-.27,.45-.54s-.27-.48-.54-.45c-.3,.03-.48,.27-.45,.54Z"/>
                    <path class="cls-33" d="M45.59,37.27c0,.45-.09,.9-.27,1.29,0,.03-.03,.06-.06,.09-.51,1.05-1.62,1.8-2.88,1.77-1.77,0-3.18-1.44-3.18-3.21s1.44-3.18,3.18-3.18c1.8,.06,3.24,1.5,3.21,3.24Z"/>
                  </g>
                </g>
              </g>
              <path class="cls-20" d="M41.6,35.92c.24,.09,.48-.06,.6-.27,.42-.66,.54-1.56,.66-2.31,.06-.51,.21-1.2,.03-1.71-.33-.9-1.56-.48-1.95,.12-.3,.48-.42,1.14-.24,1.68,.12,.39,.24,.75,.33,1.14,.06,.36,.06,.75,.27,1.05,.06,.12,.15,.21,.27,.27,0,.03,.03,.03,.03,.03Z"/>
              <path class="cls-20" d="M27.57,29.7c-.9-1.26-.96-3.03-.33-4.47s1.86-2.55,3.24-3.27c.66-.33,1.38-.6,2.13-.66,.75-.03,1.53,.15,2.1,.66,.72,.63,.99,1.68,1.02,2.64,.06,2.88-2.28,6.91-5.56,6.58-1.05-.09-2.01-.63-2.61-1.47Z"/>
            </g>
            <g>
              <g>
                <g>
                  <g>
                    <path class="cls-14" d="M46.98,55.86l3.39,3.63,7.12-8.65,2.43,1.71s-5.83,11.35-7.33,12.58c-1.53,1.23-3.45,.18-5.65-1.11-2.16-1.29-3.57-3.12-3.57-3.12l3.6-5.05Z"/>
                    <g>
                      <path class="cls-14" d="M57.16,52.14s.21-.93,.15-1.08c-.09-.15-.99-3.15-1.08-3.57-.12-.54,.42-4.44,.87-4.44s.63,.87,.66,1.56c.03,.69,.24,2.4,.24,2.4,0,0,1.11-2.43,1.62-3.51,.51-1.08,1.14-2.82,1.59-2.73,.42,.09,.27,.75,.12,1.38s-1.23,3.66-1.23,3.66c0,0,2.22-4.5,2.97-4.44,.72,.09,.84,.45,.72,.93-.12,.45-1.5,4.08-1.5,4.08,0,0,1.83-2.64,2.1-2.52,.45,.18-.39,1.53-.87,2.28s-.69,1.29-.69,1.29c0,0-.66,1.89-1.44,3.21-.72,1.2-1.95,2.52-1.95,2.52l-2.28-1.02Z"/>
                      <path class="cls-19" d="M61.3,46.16h0s-.06-.03-.03-.06l2.1-4.65s.03-.03,.06-.03,.03,.03,.03,.06l-2.1,4.65s-.03,.03-.06,.03Z"/>
                      <path class="cls-19" d="M62.38,46.55h0c-.24-.09-.42-.15-.6-.21-.6-.21-.96-.33-1.74-.48-.03,0-.03-.03-.03-.06s.03-.03,.06-.03c.81,.15,1.17,.27,1.77,.48,.18,.06,.36,.12,.57,.21,.03,0,.03,.03,.03,.06-.03,0-.03,.03-.06,.03Z"/>
                      <path class="cls-19" d="M60.31,49.82s-.03,0-.03-.03c-.27-1.11-1.14-2.22-2.28-2.82-.03,0-.03-.03-.03-.06s.03-.03,.06-.03c1.14,.6,2.07,1.74,2.31,2.85,.03,.06,0,.09-.03,.09h0Z"/>
                    </g>
                  </g>
                  <path class="cls-19" d="M50.85,62.5s-.03,0-.03-.03c-.3-.93-.48-1.89-.48-2.85,0-.03,.03-.03,.03-.03h0s.03,.03,.03,.03c0,.96,.15,1.92,.48,2.82,.03,.03,0,.06-.03,.06h0Z"/>
                </g>
                <path class="cls-21" d="M42.83,47.3c.27,.3,.54,.66,.78,.96,.39,.48,.69,1.08,1.02,1.62,.81,1.35,1.44,2.79,2.16,4.2,.21,.42,.42,.84,.63,1.23l-2.88,5.11s-1.71-13.12-1.71-13.12Z"/>
              </g>
              <path class="cls-21" d="M35.65,41.38s.96,1.44,3.75,2.01c2.82,.54,3.27,.39,3.27,.39l.09-.51s.78-.03,1.02,1.02c.27,1.08-1.02,2.94-1.02,2.94,0,0-3.99-.06-6.67-1.95-2.67-1.89-2.28-1.68-2.28-1.68,0,0-.21-2.52,1.14-2.94,.48-.15,.93,.24,.93,.24l-.24,.48Z"/>
              <path class="cls-21" d="M33.85,43.61s-3.06,4.2-3.84,9.55c-.75,5.35-.21,10.15-.06,11.83,.18,1.98,.45,5.38,.45,5.38,0,0,7.03,2.4,12.7-.63,0,0,.69-4.99,1.05-5.59s2.28-4.75,1.11-9.52c-1.17-4.75-2.46-7.36-2.46-7.36l-8.95-3.66Z"/>
              <g>
                <path class="cls-14" d="M59.35,83.4l-1.41,1.95s-16.04-8.89-17.27-10.48c-1.23-1.59-6.07-13.72-6.07-13.72l7.48-3.69,3.33,13.3h0l.06,.06,13.87,12.58Z"/>
                <path class="cls-19" d="M45.53,70.79c-.57,.27-1.08,.66-1.53,1.11h-.06s-.03-.03,0-.06c.45-.45,.96-.81,1.53-1.11l.06,.06Z"/>
                <g>
                  <g>
                    <path class="cls-14" d="M59.17,83.19s4.53,1.26,5.89,2.31,2.97,3.09,2.79,3.33c-.18,.24-1.98,.9-2.31,.69-.33-.24-1.89-1.32-1.89-1.32,0,0,2.01,1.29,1.68,1.56-.33,.27-2.31-1.17-2.61-1.35-.18-.09-1.83-.72-3.09-1.53-.99-.63-1.68-1.5-1.68-1.5l1.23-2.19Z"/>
                    <path class="cls-19" d="M67.52,89.04s-.03,0-.03-.03c-.66-1.26-2.67-2.79-2.7-2.82-.03,0-.03-.03,0-.06,0-.03,.03-.03,.06,0,.03,.03,2.07,1.56,2.73,2.85-.03,0-.03,.03-.06,.06h0Z"/>
                    <path class="cls-19" d="M66.62,89.38s-.03,0-.03-.03c-.51-.87-2.64-2.52-2.67-2.55-.03,0-.03-.03,0-.06,0-.03,.03-.03,.06,0,.09,.06,2.19,1.65,2.7,2.55-.03,.06-.03,.09-.06,.09h0Z"/>
                  </g>
                  <path class="cls-19" d="M65.54,89.56s0-.03,0,0c-.6-.54-2.76-1.86-2.76-1.89-.03,0-.03-.03,0-.06,0-.03,.03-.03,.06,0,.09,.06,2.16,1.35,2.76,1.89t0,.06s-.03,0-.06,0Z"/>
                </g>
              </g>
              <g>
                <g>
                  <g>
                    <path class="cls-19" d="M36.43,44.96h0c-.96-.24-1.83-.69-2.55-1.35t0-.06s.03-.03,.06,0c.72,.63,1.59,1.11,2.49,1.32,.03,0,.03,.03,.03,.06,0,0,0,.03-.03,.03Z"/>
                    <path class="cls-19" d="M42.8,47.27c-.84,0-1.65-.21-2.37-.6-.03,0-.03-.03-.03-.06s.03-.03,.06-.03c.72,.39,1.53,.57,2.34,.57h.03s.03,.03,.03,.03l-.03,.03c0,.06-.03,.06-.03,.06Z"/>
                  </g>
                  <path class="cls-19" d="M45.62,58.47s-.03-.03-.03-.03c-.03-3.3-1.56-7.66-1.59-7.69,0-.03,0-.06,.03-.06s.06,0,.06,.03c.03,.03,1.53,4.41,1.59,7.72-.03,0-.03,.03-.06,.03h0Z"/>
                </g>
                <g>
                  <path class="cls-21" d="M33.82,63.1s-4.23-13.42,1.05-16.64,8.02,12.73,8.02,12.73l-9.07,3.9Z"/>
                  <g>
                    <path class="cls-19" d="M42.56,59.34s-.03,0-.03-.03,0-.06,.03-.06l.93-.51c-.09-.45-1.23-5.29-2.61-8.53-.75-1.77-1.74-2.76-2.43-3.27-.75-.57-1.32-.72-1.35-.72s-.03-.03-.03-.06,.03-.03,.06-.03,.6,.15,1.35,.72c.69,.51,1.71,1.53,2.46,3.3,1.44,3.39,2.61,8.53,2.64,8.59t-.03,.06l-.99,.54s.03,0,0,0Z"/>
                    <path class="cls-19" d="M34.09,63.07s0-.03,0,0c-.03,0-.03-.03-.03-.03l-1.32-4.14c-1.32-4.11-.63-7.9-.63-7.96,0-.03,.03-.03,.06-.03s.03,.03,.03,.06-.69,3.81,.6,7.9l1.29,4.08,2.46-1.08s.06,0,.06,.03,0,.06-.03,.06l-2.49,1.11s0,0,0,0Z"/>
                    <path class="cls-19" d="M32.2,56.46s-.03,0-.03-.03c-.21-.75-.33-1.08-.57-1.62-.09-.21-.18-.48-.33-.81,0-.03,0-.06,.03-.06s.06,0,.06,.03c.12,.33,.24,.6,.33,.81,.21,.54,.33,.84,.57,1.62l-.06,.06h0Z"/>
                  </g>
                </g>
              </g>
            </g>
          </g>
        </g>
      </g>
      <g>
        <path class="cls-3" d="M68.87,18.53h-15.11c-1.23,0-2.22,.99-2.22,2.22v8.23c0,1.23,.99,2.22,2.22,2.22h.66l-3.09,6.34,8.2-6.34h9.37c1.23,0,2.22-.99,2.22-2.22v-8.2c-.03-1.23-1.02-2.25-2.25-2.25Z"/>
        <g>
          <path class="cls-2" d="M58.3,24.57c0,.39-.33,.72-.72,.72s-.72-.33-.72-.72,.33-.72,.72-.72c.39-.03,.72,.3,.72,.72Z"/>
          <path class="cls-2" d="M62.2,24.57c0,.39-.33,.72-.72,.72s-.72-.33-.72-.72,.33-.72,.72-.72c.39-.03,.72,.3,.72,.72Z"/>
          <path class="cls-2" d="M66.11,24.57c0,.39-.33,.72-.72,.72s-.72-.33-.72-.72,.33-.72,.72-.72c.39-.03,.72,.3,.72,.72Z"/>
        </g>
      </g>
    </g>
  </g>
</svg>