<?xml version="1.0" encoding="utf-8"?>
<!-- Generator: Adobe Illustrator 26.3.1, SVG Export Plug-In . SVG Version: 6.00 Build 0)  -->
<svg version="1.1" id="_ÎÓÈ_1" xmlns="http://www.w3.org/2000/svg" xmlns:xlink="http://www.w3.org/1999/xlink" x="0px" y="0px"
	 viewBox="0 0 552.8 402.5" style="enable-background:new 0 0 552.8 402.5;" xml:space="preserve">
<style type="text/css">
	.st0{fill:#CEDBEF;}
	.st1{fill:#87A3CC;}
	.st2{fill:#4C6FAE;}
	.st3{fill:#A32C65;}
	.st4{fill:#FFFFFF;}
	.st5{fill:#3A5A89;}
	.st6{fill:#FDCF76;}
	.st7{fill:#FD7403;}
	.st8{fill:#C16256;}
	.st9{fill:#163356;}
	.st10{fill:#182947;}
	.st11{fill:#395B96;}
	.st12{fill:#FDBB80;}
	.st13{fill:#EF8BB8;}
	.st14{fill:#F4D4BE;}
</style>
<g id="_">
	<path class="st0" d="M101.5,333.7c0,0-56.3-160.8-10.6-198.8c30.6-25.4,55.7,20.7,94.5-8.9c34.5-26.4,23.5-106.6,78.5-117.7
		C325.6-4.3,339.3,145.4,390,125c61.5-24.8,122.8,25.6,69.9,209L101.5,333.7z"/>
	<path class="st0" d="M516.1,277.4c-21.7-3.4-18.1,27-49,27c-28.3,0-37.3-115.6-57.8-82.6c-105.4,169.4-44.2-72.1-128-75.1
		c-37.9-1.4-63.1,40.9-72.5,115.7c-13.5,67.6-44.8-51.6-77-40.5c-20.5,7-18.1,82.5-46.4,82.5c-30.9,0-27.4-30.4-49-27
		C13,281,6.1,334.7,6.1,334.7h540.4C546.4,334.7,539.5,281,516.1,277.4L516.1,277.4z"/>
	<path class="st1" d="M496.9,310.2c-19.9-1.4-16.7,11.5-45.1,11.5c-26,0-25.3-29.1-42.7-35.2c-32-11.4-58.4,46.2-70.8,17.3
		c-23.6-76.6-92.4-115.1-124.1,0c-12.4,28.9-41.4-22.7-70.8-17.3c-18.1,3.3-16.7,35.2-42.7,35.2c-28.4,0-25.2-13-45.1-11.5
		c-21.5,1.5-27.9,24.5-27.9,24.5h497.1C524.8,334.7,518.4,311.8,496.9,310.2L496.9,310.2z"/>
	<path class="st2" d="M6.1,334.7c0,0-3.4,13.8,12.3,17.3c21.5,4.7,147.6,17.1,116.9,26.6c-17.3,5.3,8.8,12.6,93.1,15.2
		c84.2,2.7,228.8-7.8,180.1-23.2c-48.6-15.4,149.9-3.7,137.9-35.8H6.1z"/>
</g>
<g id="_-2">
	<circle class="st3" cx="276.4" cy="183.8" r="137.7"/>
	<circle class="st4" cx="276.4" cy="183.8" r="127.2"/>
	<circle class="st3" cx="276.4" cy="183.8" r="118.2"/>
	<path class="st4" d="M336.4,175.9c-5.1-2.7-11.4-0.8-14.1,4.3l-9.8,18.3c-1.6-2.9-3.5-5.7-5.7-8.2v-66.9c0-4.8-3.9-8.7-8.7-8.7
		s-8.7,3.9-8.7,8.7v54.3c-1.3-0.6-2.7-1.1-4.1-1.5V109c0-4.8-3.9-8.7-8.7-8.7c-4.8,0-8.7,3.9-8.7,8.7v65.3c-1.4,0.1-2.8,0.3-4.1,0.5
		v-55.1c0-4.8-3.9-8.7-8.7-8.7s-8.7,3.9-8.7,8.7v61.8c-1.4,0.9-2.8,1.9-4.1,3v-42.9c0-4.8-3.9-8.7-8.7-8.7c-4.8,0-8.7,3.9-8.7,8.7
		V218c0,0.5,0.1,1,0.1,1.5c0,0.4,0,0.9,0,1.3c0,25.8,20.9,46.7,46.7,46.7c19.3,0,35.9-11.8,43-28.5l26.2-48.8
		C343.5,185,341.6,178.7,336.4,175.9L336.4,175.9z"/>
</g>
<g id="_-3">
	<g>
		<path class="st5" d="M367.5,22.7V44c-0.3,1.7-1.8,3.1-3.7,3.1c-1.8,0-3.4-1.3-3.7-3.1V22.7c0-2,1.6-3.7,3.7-3.7
			C365.9,19.1,367.5,20.7,367.5,22.7z"/>
		<circle class="st5" cx="363.9" cy="53.8" r="3.7"/>
	</g>
	<path class="st5" d="M103.1,151.5c3.3-3.5,5.4-8.1,5.4-13.3c0-10.6-8.6-19.2-19.2-19.2c-5.2,0-9.9,2.1-13.3,5.4
		c-0.1,0.1-0.2,0.1-0.2,0.2c-0.1,0.1-0.2,0.2-0.2,0.2c-3.3,3.5-5.4,8.1-5.4,13.3c0,10.6,8.6,19.2,19.2,19.2c5.2,0,9.9-2.1,13.3-5.4
		c0.1-0.1,0.2-0.1,0.2-0.2C103,151.7,103.1,151.6,103.1,151.5z M102.7,138.2c0,2.6-0.8,5.1-2.1,7.2L82.2,127
		c2.1-1.3,4.5-2.1,7.2-2.1C96.8,124.9,102.7,130.8,102.7,138.2z M76.1,138.2c0-2.6,0.8-5.1,2.1-7.2l18.4,18.4
		c-2.1,1.3-4.5,2.1-7.2,2.1C82,151.6,76.1,145.6,76.1,138.2z"/>
	<path class="st3" d="M460.2,138.3c3.3-3.5,5.4-8.1,5.4-13.3c0-10.6-8.6-19.2-19.2-19.2c-5.2,0-9.9,2.1-13.3,5.4
		c-0.1,0.1-0.2,0.1-0.2,0.2c-0.1,0.1-0.2,0.2-0.2,0.2c-3.3,3.5-5.4,8.1-5.4,13.3c0,10.6,8.6,19.2,19.2,19.2c5.2,0,9.9-2.1,13.3-5.4
		c0.1-0.1,0.2-0.1,0.2-0.2C460,138.5,460.1,138.4,460.2,138.3z M459.8,125c0,2.6-0.8,5.1-2.1,7.2l-18.4-18.4
		c2.1-1.3,4.5-2.1,7.2-2.1C453.8,111.7,459.8,117.6,459.8,125z M433.1,125c0-2.6,0.8-5.1,2.1-7.2l18.4,18.4
		c-2.1,1.3-4.5,2.1-7.2,2.1C439,138.3,433.1,132.4,433.1,125z"/>
	<path class="st3" d="M163.5,49.4l10-10c1.4-1.4,1.4-3.7,0-5.2c-1.4-1.4-3.7-1.4-5.2,0l-10,10l-10-10c-1.4-1.4-3.7-1.4-5.2,0
		c-1.4,1.4-1.4,3.7,0,5.2l10,10l-10,10c-1.4,1.4-1.4,3.7,0,5.2c0.7,0.7,1.7,1.1,2.6,1.1c0.9,0,1.9-0.4,2.6-1.1l10-10l10,10
		c0.7,0.7,1.7,1.1,2.6,1.1s1.9-0.4,2.6-1.1c1.4-1.4,1.4-3.7,0-5.2L163.5,49.4L163.5,49.4z"/>
</g>
<g id="_-4">
	<path class="st2" d="M410.2,211.9c-9.5,8.2-23.7,10.8-34.2,2.8l0,0c-3.1-2.3-6.3-6-8.5-9.8l2.6-4.2c20.5,12.6,28.6-8.9,45.3-10.6
		l-3.3,4.9C412.1,195,410.5,211.6,410.2,211.9L410.2,211.9z"/>
	<path class="st6" d="M429.1,356.1l0.3-0.2c0,0.2,0.3,1,0.5,1l9.2,0.2c0.2,0,0.4-0.4,0.4-0.6l0.8-0.2c0-1.4-0.1-1.9-0.7-3
		c-2.3-3,0.4-16.4,0.4-19.9c0.6-0.9-9.7-0.2-9.9-0.4c-0.2,0-0.4,0.2-0.4,0.4l1.2,15.3C431.4,351.6,429.2,353.3,429.1,356.1
		L429.1,356.1z"/>
	<path class="st6" d="M389,357.4h18.4c1.6-0.1,1.6-1.7,1.3-3c-1-4.6,0.8-15.1,1.1-19.8c0.1-0.9-0.6-1.6-1.5-1.6h-8.1
		c-0.9,0-1.6,0.8-1.5,1.7l1.5,11.8c0.8,5.1-5.3,6.1-8.8,6.7C389.1,353.2,385.3,356.4,389,357.4L389,357.4z"/>
	<path class="st2" d="M409.4,355.5c-0.1,0.9-0.5,1.9-1.5,1.9h-19.1c-4.5-1.7,2-7.7,10.8-7.6c3.6,1,8.9,0.3,8.9,0.3
		S409.5,351.7,409.4,355.5L409.4,355.5z"/>
	<path class="st2" d="M438.8,357.4h-8.2c-4-0.6-1.1-7.6,4.1-7.6C440,349.7,442.8,356.9,438.8,357.4L438.8,357.4z"/>
	<path class="st2" d="M393.3,354.8c0.3,0,0.5-0.3,0.4-0.6c-0.9-2.1-2.5-2.8-2.6-2.8c-0.5-0.2-0.8,0.6-0.3,0.8c0.1,0,1.4,0.6,2.1,2.4
		C393,354.7,393.1,354.8,393.3,354.8L393.3,354.8z"/>
	<path class="st2" d="M396.5,354.4c0.3,0,0.5-0.3,0.4-0.5c-0.7-2.7-4.2-4.7-3.3-2.8c0,0,1.9,1,2.5,3.1
		C396.1,354.3,396.3,354.4,396.5,354.4L396.5,354.4z"/>
	<path class="st2" d="M400.1,354c0.3,0,0.5-0.3,0.4-0.5c-0.8-2.7-4-5.1-3.3-3.1c0,0,1.8,1.2,2.5,3.4
		C399.7,353.9,399.9,354,400.1,354L400.1,354z"/>
	<path class="st2" d="M437.7,352.2c0.4,0,0.6-0.6,0.2-0.8c-2.7-1.6-6.2-0.1-6.3,0c-0.5,0.2-0.2,1,0.3,0.7
		C432,352.1,435.4,350.8,437.7,352.2L437.7,352.2z"/>
	<path class="st5" d="M387.4,355.5h22c-0.1,0.7-0.3,1.3-0.6,1.9h-20.1C387.7,357.4,387,356.4,387.4,355.5z"/>
	<path class="st5" d="M438.8,357.4h-8.2c-1,0-1.9-0.9-1.8-1.9h11.8C440.7,356.5,439.9,357.4,438.8,357.4L438.8,357.4z"/>
	<path class="st6" d="M412.8,169c0,0-0.1-6,5.3-7l2.8,2.9L412.8,169L412.8,169z"/>
	<path class="st7" d="M441.2,347c0,0-8.7,2.1-13.2-0.2c-2.3-14.7-8.8-55.5-11.1-83.4c-0.1,1.6-4.8,67.4-5.7,83.4
		c-3.1,1-9.3,2.3-12.8-0.2c-1.6-16.9-6.6-72.5,1-117.9c0,0,20.8,2.3,37-2.6C440.8,240.5,442,329.7,441.2,347L441.2,347z"/>
	<path class="st7" d="M401.7,345.2c-2.1-48.5,2.8-90.3,2-90.8C402.5,254.5,397.6,296.6,401.7,345.2z"/>
	<path class="st7" d="M434.4,345.2c-0.9-49.9-8.3-97.1-9.4-97.3C424.1,248.6,431.4,295.2,434.4,345.2z"/>
	<path class="st6" d="M415.3,189.9c-0.5-3.9,0.2-9.7,0.7-12c1-4.6,8.3-2.8,7.1,1.7c-0.2-0.2-1,8.2-0.5,10.6
		C429.5,192.3,408.8,199.1,415.3,189.9L415.3,189.9z"/>
	<path class="st6" d="M423.2,179.2c0,0.1,0,0.3-0.1,0.4c-0.2-0.1-0.6,4.5-0.6,7.9c-3.2,1.4-6.7,0.8-7.3,0.7
		c-0.1-4.3,0.3-8.1,0.9-10.6C417.3,173.5,423.8,175,423.2,179.2L423.2,179.2z"/>
	<path class="st6" d="M428.1,177.5c-1,3.2-2.7,6.6-5.6,8.4l0,0c-1.2,0.7-2.5,1-3.9,1.1c-7.8,1-15.4-9.5-8.4-14.8
		c1.2-0.8,2.2-2,2.8-3.2C419.1,157,431.9,166.4,428.1,177.5L428.1,177.5z"/>
	<path class="st5" d="M401.8,206.6l-3.2,11.7c-6.9,2.1-14.2,1.6-20.6-2.3c7.1,4,16.8,1.7,18.4-0.6
		C397.9,212.9,401.5,206.9,401.8,206.6L401.8,206.6z"/>
	<path class="st2" d="M439.4,245.7c-0.7,0.9-1.5,1.8-2.4,2.7c0,0-4.1,0.8-7.3-3.5c13-27.6-12.1-30.2-7.1-54.8
		C439.4,192.2,462.8,217.2,439.4,245.7L439.4,245.7z"/>
	<path class="st8" d="M416,173.5c-0.2-0.6,0.8-0.9,0.9-0.3C417.1,173.8,416.2,174.1,416,173.5z"/>
	<path class="st8" d="M412,172.1c-0.2-0.6,0.8-0.9,0.9-0.3C413.1,172.5,412.2,172.8,412,172.1z"/>
	<path class="st6" d="M428.1,177.5c-1,3.2-2.7,6.6-5.6,8.4l0,0c-0.2,0.1-0.5,0.3-0.7,0.4c2.3-1.6,4.1-5.6,4.1-5.6l0.1-3.6
		c-2.6-3.7-0.7-7.1-0.7-7.1c-5.5,0.6-6.8-2.9-6.8-2.9c-1.7-0.1-3.3-1.2-3.3-1.2C422.6,158.3,431.4,169.2,428.1,177.5L428.1,177.5z"
		/>
	<path class="st8" d="M413.2,176.7c0.3,0.1,0.6-0.4,0.2-0.4c-0.7,0.1-2.1-0.6-1.3-0.9c1.1-0.4,2.9-3,1.9-2.5c0,0-1,1.8-2,2.2
		C410.5,175.7,412.2,176.7,413.2,176.7L413.2,176.7z"/>
	<path class="st5" d="M439.4,245.7c-0.7,0.9-1.5,1.8-2.4,2.7c0,0-4.2,0.6-7.3-3.7c0.5-1.1,1-1.9,1.4-3
		C431,241.8,433.5,244.5,439.4,245.7z"/>
	<path class="st9" d="M437.3,249c0.9,0.3,1.8-0.8,0.6-1.1c-6.5,0.3-8.2-4-8.3-4.2C426.8,242.2,430.3,249.4,437.3,249L437.3,249z"/>
	<path class="st5" d="M396.3,248.2c0,0,1.3,5.4,11.4,8.1c2.9,0.8,4.6,0.4,5-1.6c0.2-1,0.8-2.8,1.8-3.4c0,0,2.3,1,3.1,2.4
		c1.9,3.1,4.7,0.3,6.1-2.9c1.7-3.9,7.2-8,8.1-11.3L396.3,248.2L396.3,248.2z"/>
	<path class="st2" d="M437.7,241.5c-0.3,0.6-0.5,0.5-0.9,0.2c-9.1-6.8-12.4,8.1-22.2,8.3c-10,1-15.6,1.6-18.3-1.8
		c-4.8-7.4,2.8-40.3,8.9-48.3c2.7-4.2,7.4-7.8,10-10c-0.1,0.2-1.4,5.9,7.4,0.3c0.4,0.2,3.2,2.9,3.1,4.3
		C426.1,201.2,442,234,437.7,241.5L437.7,241.5z"/>
	<path class="st10" d="M412.4,160.5c0,0,2.6-0.7,5.2,0.3c0.3-1,0.9-1.9,1.9-2.7c0.4,1.2,1,2.4,1.7,3.5c0.2-2.3,1.7-4.1,1.7-4.1
		c0.4,2.2,3.4,3.8,4.8,6.1c0,0,8.1,2.8,2.3,9.9l0,0c-0.2,2.6-1.5,5.3-1.5,5.3c-4.2-3.9-3.3-8.5-1.4-9.7c-3.5,1.2-6.5-0.2-8.3-2.5
		C416.3,166.1,413.1,164.7,412.4,160.5L412.4,160.5z"/>
	<path class="st5" d="M432.4,243.6l-2-0.4c8-18-1.4-25.6-6.4-35.8C435.6,220.8,437.3,228.1,432.4,243.6z"/>
	<path class="st6" d="M429.9,179.5c-1.3,3.6-5.8,1.8-4.4-1.7C426.8,174.2,431.3,175.9,429.9,179.5z"/>
	<path class="st8" d="M428.6,180c0.8-0.9,0.8-2.3,0.4-2.7c-0.7-0.7-2-0.6-2-0.2c0.2,0.4,1-0.3,1.7,0.4
		C429.4,178.1,428.1,179.8,428.6,180L428.6,180z"/>
	<path class="st8" d="M426.9,179.5c0.3,0,0.8-1.3,2.2-1.2c0.1,0,0.2-0.1,0.2-0.2C428.4,177.2,426.1,179.5,426.9,179.5z"/>
	<path class="st5" d="M425.3,190.7c0.1,3.3-8.5,6.3-9,6.3l-1-3c-1.3,0.3-2.5,2.2-2.5,2.2c-3.8-3.6-0.2-6.8,2.5-6.2l0,0
		c-0.1,0.2-0.6,5.2,7.3,0.1C423.6,189.5,425.3,190.7,425.3,190.7L425.3,190.7z"/>
	<path class="st7" d="M411.2,346.8c0,0-1.1,0.4-2.7,0.7c0,0,4.4-65.3,5-74c0.6-8.7,3.4-10.2,3.4-10.2S411.1,345.4,411.2,346.8
		L411.2,346.8z"/>
	<path class="st9" d="M411.4,343.6c-0.1,1.9-0.2,3-0.2,3.2c-3.1,1-9.3,2.3-12.8-0.2c0,0-0.1-1-0.3-2.9
		C398.1,343.6,404.2,346.4,411.4,343.6L411.4,343.6z"/>
	<path class="st9" d="M441.2,347c0,0-8.7,2.1-13.2-0.2c0,0-0.2-1.1-0.5-3.2c0,0,6.2,1.6,13.8-0.1C441.4,345.5,441.2,346.8,441.2,347
		L441.2,347z"/>
	<path class="st5" d="M372.4,202c0,2.7-3.6,4.8-3.6,4.8c-0.4-0.6-0.8-1.3-1.2-1.9l2.6-4.2C370.9,201.1,371.6,201.6,372.4,202
		L372.4,202z"/>
	<path class="st6" d="M366.3,193.1c-1,0.6,0.6,2.6,0.5,3.7c-1.7-0.8-3.1-2-3.1-2c-1.4-1.7-2.8-3.6-4-5.5c-3.1-1.4,1.8,5.5,2.2,6.4h0
		c-1.8-1.5-3.6-3.1-5.2-4.8c-3.4-0.7,3.5,5.6,4.1,6.4l0,0c-2-1.1-3.8-2.4-5.5-3.9c-3.5-0.4,4,5.5,4.9,6l0,0
		c-1.5-0.2-4.6-2.9-5.6-2.3c-0.9,1.5,9.2,7,12.7,7.7c1.3,0.3,3.1-2.8,2.8-4.1c-0.3-1.2-1.1-2.6-1.4-3.2
		C368.3,196.3,367.8,193.3,366.3,193.1L366.3,193.1z"/>
	<path class="st11" d="M376,214.7c0.1,0.1,0.2,0.2,0.3,0.2C376.2,214.8,376.1,214.8,376,214.7L376,214.7L376,214.7L376,214.7z"/>
	<path class="st8" d="M418.9,172.7C418.9,172.7,418.9,172.7,418.9,172.7c0.2-0.1,0.2-0.3,0.1-0.4c0-0.1-1.1-1.3-2.8-1.2
		c-0.1,0-0.2,0.1-0.2,0.2c0,0.1,0.1,0.2,0.2,0.2c1.4-0.1,2.4,1,2.4,1C418.7,172.7,418.8,172.7,418.9,172.7L418.9,172.7z"/>
	<path class="st8" d="M412.4,170.5c0,0,0.1,0,0.1,0c0.8-0.4,1.6,0.1,1.6,0.2c0.1,0.1,0.3,0,0.3-0.1c0.1-0.1,0-0.3-0.1-0.3
		c0,0-1.1-0.7-2.1-0.2c-0.1,0.1-0.2,0.2-0.1,0.3C412.2,170.5,412.3,170.5,412.4,170.5L412.4,170.5z"/>
	<path class="st8" d="M414.6,177.6c0,0-0.1,0-0.1,0.1c-0.6,0.6-1.6,0.3-1.6,0.3c-0.1,0-0.3,0-0.3,0.2c0,0.1,0,0.3,0.2,0.3
		c0.1,0,1.2,0.4,2.1-0.4c0.1-0.1,0.1-0.2,0-0.3C414.7,177.6,414.6,177.6,414.6,177.6L414.6,177.6z"/>
</g>
<g id="_-5">
	<path class="st10" d="M122.2,197.1c3.1-19.7,14.5-15.1,14.5-15.1s6.3-3.3,11.4,4.7c8.2,12.6,17.8,9.4,20.1,20.8
		c2.2,11.1-12.9,23.7-30.9,15.5C137.3,223,119.1,217,122.2,197.1z"/>
	<path class="st12" d="M181.7,229.6c0.8,0.7-1.1,2.2-1.2,3.2c1.6-0.3,3.1-1.2,3.1-1.2c1.6-1.3,3.1-2.6,4.6-4c3-0.7-2.7,4.6-3.1,5.2
		l0,0c1.9-0.9,3.8-2,5.5-3.2c3.2-0.1-4.2,4.3-4.9,4.8l0,0c1.9-0.6,3.8-1.4,5.6-2.4c3.3,0.2-4.7,4.1-5.4,4.3l0,0
		c1.6-0.2,3.2-0.7,4.7-1.2c3,0.6-4.3,3-5.1,3.2c-0.5,0.4-3.3,1.2-6.9,1.3c-1.2,0.1-2.2-3.1-1.7-4.2c0.5-1,1.5-2.1,1.8-2.5
		C179.3,232.1,180.5,229.3,181.7,229.6L181.7,229.6z"/>
	<path class="st12" d="M135.3,220.1c3,2.2,4.5,5.5,6.8,8.6c2.7,3.8,5.8,7.9,9.7,10.5c8.4,5.4,18.9,3.3,27.7,0.4c3.2-1,1.8-6-1.5-5.1
		c-7.6,1.7-17.7,3.2-23-3.6c-5.2-6-6.8-14.3-12.6-19.9C136.2,205.2,128.2,215.4,135.3,220.1L135.3,220.1z"/>
	<path class="st13" d="M139.1,230.7c0.9,2.6,2.2,4.7,3.7,6.3c2.7,3.1,5.9,4.4,8.3,4.9c0.1,0,0.2,0,0.2,0c3.7,0.6,11.5-8.4,7.3-11.5
		c-4.3-3.1-3.5-5-8.6-12.5c-5.1-7.5-9.3-8.8-9.3-8.8C140.7,214.9,136.3,222.8,139.1,230.7L139.1,230.7z"/>
	<path class="st12" d="M71.1,328.1l-2.8-17.1c0.9-0.4,5.1-0.3,6.6-0.7c0.9-0.1,12.9-3.4,14.2-3.7l1.6,9.8l-12.9,0.5
		c-1.5,0.1-2.8,1.2-3,2.7c-0.7,3.3,0.5,6.8-1.7,9.2C72.4,329.5,71.3,329.1,71.1,328.1L71.1,328.1z"/>
	<path class="st5" d="M69.9,310.3c-0.6,0.2-1.1,0.4-1.6,0.8l2.8,17.2c0.1,0.8,1.1,1.3,1.8,0.9c1.7-0.9,4-3.6,3.2-11.6
		c0,0-1.2-2.6-1.2-7.1C75,310.4,72.2,309.7,69.9,310.3z"/>
	<path class="st5" d="M75.6,326c-0.6-0.2-0.6-1.1-2.6-1.7c-0.2,0-0.3-0.2-0.3-0.4C73.5,322.8,77.2,325.9,75.6,326z"/>
	<path class="st5" d="M76.2,323.4c-0.1,0-0.2-0.1-0.3-0.1l0,0c0,0-1.1-1.4-3-1.7c-0.5-0.1-0.4-0.8,0.1-0.7c2.2,0.3,3.4,1.9,3.5,2
		C76.6,323.1,76.5,323.4,76.2,323.4L76.2,323.4z"/>
	<path class="st5" d="M76.3,320.2c-0.5-0.1-1.2-1.4-3.5-1.8c-0.5-0.1-0.3-0.8,0.1-0.7C75.2,318.2,77.4,319.8,76.3,320.2L76.3,320.2z
		"/>
	<path class="st11" d="M73,329.2l-3.1-18.9c-0.6,0.2-1.1,0.4-1.6,0.8l2.8,17.2C71.3,329.1,72.2,329.6,73,329.2L73,329.2z"/>
	<path class="st3" d="M142.8,237c2.7,3.1,5.9,4.4,8.3,4.9c-1.5-3.1,0.6-4.4,1-9.5c0.4-5.3-4.2-10.8-4.2-10.8S142.8,237,142.8,237z"
		/>
	<path class="st12" d="M147.2,357.1l-17.3-0.2c-0.3-0.9,0.6-5.1,0.5-6.6c0-0.6-0.2-4.2-0.2-4.8l1.3-9.7l7.6,0.1l-1.7,12.7
		c-0.2,1.5,0.7,2.9,2.1,3.4c3.2,1.3,6.8,0.7,8.8,3.2C148.8,356,148.2,357.1,147.2,357.1L147.2,357.1z"/>
	<path class="st5" d="M129.5,355.3c0.1,0.6,0.2,1.2,0.5,1.7l17.4,0.2c0.9,0,1.5-0.8,1.2-1.6c-0.6-1.9-2.9-4.6-10.9-5.1
		c0,0-2.7,0.8-7.2-0.1C130.4,350.3,129.2,352.9,129.5,355.3L129.5,355.3z"/>
	<path class="st5" d="M143.5,354.8c-0.2,0-0.4-0.3-0.3-0.5c0.8-1.9,2.2-2.4,2.3-2.4c0.4-0.2,0.7,0.5,0.2,0.7c-0.1,0-1.2,0.5-1.9,2.1
		C143.7,354.7,143.6,354.8,143.5,354.8L143.5,354.8z"/>
	<path class="st5" d="M140.7,354.5c-0.2,0-0.4-0.2-0.3-0.5c0.6-2.3,3.7-4.1,2.9-2.4c0,0-1.6,0.9-2.2,2.7
		C141,354.4,140.9,354.5,140.7,354.5L140.7,354.5z"/>
	<path class="st5" d="M137.6,354.1c-0.2,0-0.4-0.2-0.3-0.5c0.8-2.1,2.4-3.2,2.5-3.3c0.4-0.2,0.8,0.3,0.4,0.6c0,0-1.6,1-2.2,2.9
		C137.9,354,137.8,354,137.6,354.1L137.6,354.1z"/>
	<path class="st11" d="M148.6,355.5l-19.1-0.2c0.1,0.6,0.2,1.2,0.5,1.7l17.4,0.2C148.2,357.1,148.9,356.3,148.6,355.5L148.6,355.5z"
		/>
	<path class="st2" d="M77.8,308.8c0,0,0,4.9,1.3,9.5c33.1-2.8,46.9-7.1,49.4-39.2c0,0,11.3,21.6,0.5,62.8l0,0
		c-0.3,1.2-0.6,2.4-1,3.6c0,0,4.3,3.5,10.1,2.3c7.3-13.9,23.5-47.4,9.5-91.2c-8.3-9.6-25.1-10.6-35.7-5.8
		C103.5,272.8,118.5,299.9,77.8,308.8L77.8,308.8z"/>
	<path class="st5" d="M77.8,308.8c0,0,0,4.9,1.3,9.5c0,0,1.5-0.1,3.9-0.4c-1.5-3.7-1.5-10.1-1.5-10.1
		C80.3,308.2,79.1,308.5,77.8,308.8L77.8,308.8z"/>
	<path class="st5" d="M128.1,345.5c0,0,4.3,3.5,10.1,2.3c0,0,0.6-1.1,1.6-3.1c0,0-6.9,0.6-10.7-2.9l0,0
		C128.7,343.1,128.4,344.3,128.1,345.5z"/>
	<path class="st2" d="M129,341.9c-0.1,0.4-0.2,0.8-0.3,1.3h2.1c7.3-22,8.6-58.3-2.3-64C128.6,279.1,139.9,300.7,129,341.9L129,341.9
		L129,341.9z"/>
	<path class="st2" d="M136.3,346.8c5.8-13.2,9.7-26.1,11.5-38.3c1.5-9.8,1.6-19.2,0.5-27.9c-1.9-14.9-6.9-22.7-7.2-23l-1.4,0.9
		l0.7-0.5l-0.7,0.5c0,0,5,7.8,6.9,22.4c1.7,13.5,1.1,35.7-11.9,65.2L136.3,346.8L136.3,346.8z"/>
	<path class="st2" d="M80.5,317.1c11.8-1.1,20.7-3.2,27-6.2c6.3-3,10.6-7.3,13.1-12.9c6.2-14.2,3.9-42.8,3.8-44l-1.7,0.1
		c0,0.3,2.4,29.4-3.7,43.2c-4.7,10.7-15.9,16-38.7,18.2L80.5,317.1L80.5,317.1z"/>
	<path class="st13" d="M111.5,252.4c7.4,3.5,24.6,10.9,36.5,5.1c0.7-1.4,0.8-3.5,0.3-5.1c-4.6-15.9,7.7-17.9-0.7-31.2
		c-1.9-3-5.4-9.3-6.9-12c-1.4,3.3-5.5,0.2-7.1-1.7c-1.2,0.1-14.4,1.2-19.7,29.3C113.3,239.6,106.1,248,111.5,252.4z"/>
	<path class="st12" d="M136.5,247.2c0.2,1-2.2,1-2.9,1.7c1.4,0.8,3.1,1.1,3.1,1.1c2,0,4.1,0,6.1-0.2c2.8,1.3-5,1.8-5.7,2v0
		c2.1,0.5,4.2,0.9,6.3,1.1c2.5,2-6,0.6-6.8,0.6l0,0c1.9,0.8,3.8,1.4,5.8,1.7c2.4,2.3-6.2,0.2-6.9-0.1l0,0c1.4,0.9,2.9,1.5,4.4,2.1
		c1.9,2.4-5.2-0.4-5.9-0.8c-0.6,0-3.3-1.2-6.2-3.4c-0.9-0.7,0.3-3.8,1.4-4.3c1-0.4,2.5-0.7,3-0.8
		C133.1,247.5,135.8,246.2,136.5,247.2L136.5,247.2z"/>
	<path class="st12" d="M123.8,209.4c-7.1,5.3-14.4,13.5-17,22c-4.1,11.7,10.6,18.6,20.1,21.4c1.8,0.7,4,1.1,4.8-1.3
		c0.6-2.1-1.2-3-2.9-3.6c-3.1-1.4-6.3-3.3-8.9-5.4c-3-2.5-5.4-5.9-3.1-9.4c2.8-5.7,7.6-10.7,13-13.8
		C136.3,215.1,130.2,205.4,123.8,209.4L123.8,209.4z"/>
	<path class="st13" d="M133.5,207.4c0,0-10.6-1.9-18.3,7.7c-7.8,9.6-14.1,21.8-9,25c2.9,1.8,3.3-3,10.5-1.6
		c5.7,1.1,4.6-9.4,13.1-18.3C134.5,215.3,134.7,209.2,133.5,207.4z"/>
	<path class="st3" d="M117.3,239c0.9,0,4-0.5,6-6.6c2.2-6.6,6.1-11.2,6.2-11.3c0.2-0.2,0.2-0.5-0.1-0.7c-0.2-0.2-0.5-0.2-0.7,0.1
		c-0.2,0.2-4,4.8-6.3,11.6c-2.1,6.2-5.2,5.9-5.2,5.9c-0.3,0-0.5,0.2-0.5,0.4c0,0.3,0.1,0.5,0.4,0.5C117.1,239,117.2,239,117.3,239
		L117.3,239z"/>
	<path class="st3" d="M140.6,208.9c0,0,2,0.7,2.9,2c0,0-0.2,1.8-1.6,2.4c-1.5,0.7-3-2-3-2s-0.3,2.4-2.2,2.2
		c-1.8-0.2-5.3-2.9-6.4-6.2c0,0,2.2-0.4,3.1,0.2L140.6,208.9L140.6,208.9z"/>
	<path class="st12" d="M140.9,206.8l-0.3,2c-0.7,3.2-6.2,0.1-7.1-1.4c0,0,0.3-1.2,0.3-2.2L140.9,206.8L140.9,206.8z"/>
	<path class="st12" d="M134.1,197.8c0,0.1,0,0.2,0,0.4c0.2-0.1,0.1,4.5-0.3,7.7c2.9,1.8,6.4,1.6,7,1.5c0.6-4.1,0.6-7.9,0.3-10.4
		C140.4,192.9,133.9,193.6,134.1,197.8L134.1,197.8z"/>
	<path class="st12" d="M129.4,195.3c0.6,3.2,1.7,6.8,4.3,8.9l0,0c1,0.8,2.3,1.4,3.6,1.6c7.5,2,16.2-6.9,10.3-13.1
		c-2.2-1.9-2.7-5.4-4.4-7.3c-2.5-3.6-7.9-3.3-10.8-0.3C129.7,187.7,128.9,191.3,129.4,195.3z"/>
	<path class="st8" d="M141.6,193.1c0.3-0.6-0.6-1-0.9-0.4C140.5,193.3,141.4,193.7,141.6,193.1z"/>
	<path class="st8" d="M145.7,192.4c0.3-0.6-0.6-1-0.9-0.4C144.6,192.5,145.5,193,145.7,192.4z"/>
	<path class="st8" d="M144.5,196.6c-0.3,0-0.9,0.1-0.9-0.3c0-0.1,0.1-0.2,0.2-0.1c0.6,0.2,1.5-0.1,1.6-0.4c0-0.1-0.1-0.2-0.2-0.3
		c-1-0.5-2.4-3.4-1.5-2.7c0,0,0.7,1.9,1.6,2.4C146.4,195.9,145.3,196.5,144.5,196.6L144.5,196.6z"/>
	<path class="st12" d="M129.4,195.3c0.6,3.2,1.7,6.8,4.3,8.9l0,0c-1.4-1.7-2.4-5.6-2.4-5.6l0.6-1.7c11.1-3.8,10-12.8,10-12.8
		C135.1,178.6,127.8,187.9,129.4,195.3L129.4,195.3z"/>
	<path class="st10" d="M140.9,183.3c0,0,0.9,8.9-9,12.7l-3.6-1.9C124.6,187.2,130.9,176.9,140.9,183.3L140.9,183.3z"/>
	<path class="st10" d="M129.1,180.8c2.4,8.4,12.2,5.7,10-2.8C136.7,169.6,126.9,172.3,129.1,180.8z"/>
	<path class="st12" d="M127.4,196.9c0.8,3.6,5.4,2.6,4.5-1C131.1,192.3,126.5,193.3,127.4,196.9z"/>
	<path class="st8" d="M128.6,197.7c-0.8-0.8-0.5-2.4-0.1-2.7c0.7-0.6,2-0.3,1.9,0.1c-0.2,0.4-1-0.4-1.7,0.2
		C128,195.8,129,197.4,128.6,197.7L128.6,197.7z"/>
	<path class="st8" d="M130.3,197.4c-0.4,0-0.5-1.4-2-1.5c-0.1,0-0.2-0.1-0.2-0.2C129.1,194.9,131,197.5,130.3,197.4L130.3,197.4z"/>
	<path class="st14" d="M129.4,198.4c0,0.5,0.8,0.5,0.8,0C130.2,197.8,129.4,197.8,129.4,198.4z"/>
	<path class="st8" d="M143,198.9c-0.2-0.1-0.4-0.2-0.6-0.4c-0.3-0.4-0.3-1,0.1-1.3c0.2-0.1,0.4-0.2,0.7-0.1c0.2,0.1,0.4,0.2,0.6,0.4
		c0.3,0.4,0.3,1-0.1,1.3c-0.1,0.1-0.3,0.1-0.4,0.1C143.1,199,143.1,199,143,198.9L143,198.9z M142.7,197.5c-0.2,0.2-0.2,0.5,0,0.8
		c0.1,0.1,0.2,0.2,0.4,0.3c0.1,0,0.3,0,0.4-0.1c0.2-0.2,0.2-0.5,0-0.8l0,0c-0.1-0.1-0.2-0.2-0.4-0.3c0,0-0.1,0-0.1,0
		C142.8,197.5,142.8,197.5,142.7,197.5L142.7,197.5z M143.6,197.6L143.6,197.6z"/>
	<path class="st8" d="M139.6,192.1c0,0,0.1,0,0.2-0.1c0.7-0.9,1.9-0.9,1.9-0.9l0,0c0.1,0,0.2-0.1,0.2-0.2c0-0.1-0.1-0.2-0.2-0.2l0,0
		c0,0-1.5,0-2.2,1.1C139.4,191.9,139.4,192,139.6,192.1C139.5,192.1,139.6,192.1,139.6,192.1L139.6,192.1z"/>
	<path class="st8" d="M143.5,190.8C143.5,190.8,143.5,190.8,143.5,190.8c1.2-0.5,2.1,0,2.1,0c0.1,0.1,0.2,0,0.2-0.1
		c0.1-0.1,0-0.2-0.1-0.2c0,0-1-0.6-2.4,0c-0.1,0-0.1,0.2-0.1,0.2C143.3,190.8,143.4,190.9,143.5,190.8L143.5,190.8z"/>
</g>
</svg>
