<?xml version="1.0" encoding="utf-8"?>
<!-- Generator: Adobe Illustrator 26.3.1, SVG Export Plug-In . SVG Version: 6.00 Build 0)  -->
<svg version="1.1" id="Layer_1" xmlns="http://www.w3.org/2000/svg" xmlns:xlink="http://www.w3.org/1999/xlink" x="0px" y="0px"
	 viewBox="0 0 671.8 402.5" style="enable-background:new 0 0 671.8 402.5;" xml:space="preserve">
<style type="text/css">
	.st0{fill:#CBD7EB;}
	.st1{fill:#3B5A85;}
	.st2{fill:#B8AFBC;}
	.st3{fill:#F0F2F5;}
	.st4{fill:#4B70A9;}
	.st5{fill:#6B3B4A;}
	.st6{fill:#F48462;}
	.st7{fill:#0A59A6;}
	.st8{fill:#EFA459;}
	.st9{fill:#F7B369;}
	.st10{fill:#2F3169;}
	.st11{fill:#F9B77E;}
	.st12{fill:#182947;}
	.st13{fill:#E6F4FF;}
	.st14{fill:#EC87B4;}
	.st15{fill:#FF9C85;}
	.st16{fill:#40507F;}
	.st17{fill:#F97402;}
	.st18{fill:#BF3070;}
	.st19{fill:#801252;}
	.st20{fill:#92B4EA;}
	.st21{fill:#DD857A;}
	.st22{fill:#B78BA4;}
	.st23{fill:#FFCB8D;}
	.st24{fill:#FCA397;}
	.st25{fill:#C4574F;}
	.st26{fill:#99594F;}
	.st27{fill:#6876AA;}
</style>
<g>
	<rect x="2.9" y="315.4" class="st0" width="663.9" height="84.7"/>
	<path class="st0" d="M31.6,398.2c-0.1,0-0.3-0.1-0.3-0.2c-0.1-0.2,0-0.4,0.2-0.4l181.3-63.9c0.2-0.1,0.4,0,0.4,0.2
		c0.1,0.2,0,0.4-0.2,0.4L31.7,398.1C31.7,398.1,31.6,398.2,31.6,398.2L31.6,398.2z"/>
	<path class="st0" d="M253.6,399.4c-0.1,0-0.3-0.1-0.3-0.2c-0.1-0.2,0-0.4,0.2-0.4l181.3-63.9c0.2-0.1,0.4,0,0.4,0.2s0,0.4-0.2,0.4
		l-181.3,63.9C253.8,399.4,253.7,399.4,253.6,399.4L253.6,399.4z"/>
	<path class="st0" d="M484.2,399.4c-0.1,0-0.3-0.1-0.3-0.2c-0.1-0.2,0-0.4,0.2-0.4l181.3-63.9c0.2-0.1,0.4,0,0.4,0.2s0,0.4-0.2,0.4
		l-181.3,63.9C484.3,399.4,484.3,399.4,484.2,399.4L484.2,399.4z"/>
</g>
<rect x="134.2" y="174.3" class="st0" width="532.6" height="60.7"/>
<path class="st1" d="M600,159.1h-36.9c-5.2,0-9.3-4.2-9.3-9.3s4.2-9.3,9.3-9.3H600c5.2,0,9.3,4.2,9.3,9.3S605.2,159.1,600,159.1z"/>
<rect x="159.8" y="167.1" class="st2" width="506" height="10.6"/>
<path class="st3" d="M152.4,161.7h3.9c3.5,0,6.3,2.8,6.3,6.3v59.6c0,3.5-2.8,6.3-6.3,6.3h-3.9c-3.5,0-6.3-2.8-6.3-6.3v-59.6
	C146.1,164.6,149,161.7,152.4,161.7z"/>
<path class="st1" d="M619.9,89.7h17.8c16.1,0,29.1,13,29.1,29.1v42.9h-76.1v-42.9C590.8,102.7,603.9,89.7,619.9,89.7z"/>
<path class="st1" d="M666.8,158.6v23.2c-1,0.4-2.2,0.6-3.3,0.6h-69.3c-6.1,0-11-5.5-11-12.2c0-3.4,1.2-6.4,3.2-8.6
	c2-2.2,4.7-3.6,7.8-3.6h69.3C664.6,158,665.8,158.2,666.8,158.6z"/>
<path class="st4" d="M601.3,89.7h17.8c16.1,0,29.1,13,29.1,29.1v42.9h-76.1v-42.9C572.2,102.7,585.2,89.7,601.3,89.7z"/>
<path class="st4" d="M573.9,158h72.6c5.1,0,9.3,4.2,9.3,9.3v5.7c0,5.1-4.2,9.3-9.3,9.3h-72.6c-5.1,0-9.3-4.2-9.3-9.3v-5.7
	C564.6,162.2,568.8,158,573.9,158z"/>
<path class="st1" d="M666.8,140.5v18.7h-31.9c-4.2,0-7.8-2.8-8.9-6.7c-0.3-0.8-0.4-1.7-0.4-2.6c0-2.6,1-4.9,2.7-6.6
	c1.7-1.7,4-2.7,6.6-2.7L666.8,140.5L666.8,140.5z"/>
<path class="st5" d="M469.7,159.1h-36.9c-5.2,0-9.3-4.2-9.3-9.3s4.2-9.3,9.3-9.3h36.9c5.2,0,9.3,4.2,9.3,9.3
	S474.8,159.1,469.7,159.1z"/>
<path class="st1" d="M489.6,89.7h17.8c16.1,0,29.1,13,29.1,29.1v42.9h-76.1v-42.9C460.5,102.7,473.5,89.7,489.6,89.7z"/>
<path class="st1" d="M462.2,158h72.6c5.1,0,9.3,4.2,9.3,9.3v5.7c0,5.1-4.2,9.3-9.3,9.3h-72.6c-5.1,0-9.3-4.2-9.3-9.3v-5.7
	C452.9,162.2,457.1,158,462.2,158z"/>
<path class="st4" d="M471,89.7h17.8c16.1,0,29.1,13,29.1,29.1v42.9h-76.1v-42.9C441.9,102.7,454.9,89.7,471,89.7L471,89.7z"/>
<path class="st4" d="M443.6,158h72.6c5.1,0,9.3,4.2,9.3,9.3v5.7c0,5.1-4.2,9.3-9.3,9.3h-72.6c-5.1,0-9.3-4.2-9.3-9.3v-5.7
	C434.3,162.2,438.5,158,443.6,158z"/>
<g>
	<g>
		<polygon class="st6" points="472.2,200.2 472.2,213.2 482.2,217 488.4,210 489.5,197.9 		"/>
		<polygon class="st6" points="453.6,197.5 453.6,210.5 464.2,214.3 470.9,207.3 472,195.2 		"/>
		<path class="st7" d="M475.3,139c0,0-25.3,12.7-28.4,17.9c-3.1,5.2,0.3,47.4,0.3,47.4l22.4,0.3l3.1-23.6l17.1-39.7L475.3,139
			L475.3,139z"/>
		<path class="st7" d="M506.1,141.6c0,0,1,11.3,0.7,15s-12.1,12.5-12.1,12.5l-0.6,36.2l-26,1.2c0,0-0.6-41.4-0.1-45.3
			c0.4-3.9,17.7-18.1,17.7-18.1L506.1,141.6L506.1,141.6z"/>
		<path class="st8" d="M473.8,225.3c0,0-0.5-21-3.7-20.5c-3.3,0.4-6.5,3.5-6.5,3.5s-7.5-3.9-10.7-1.8c-3.3,2.2-5.1,7-5.1,7
			l-18.2,11.8c0,0-2.2,3.5-1.6,5.3c0.5,1.4,28.1,0.6,40.2,0.2C471.3,230.6,473.7,228.2,473.8,225.3L473.8,225.3L473.8,225.3z"/>
		<path class="st9" d="M464.4,220.2c0,0,4.6-11.1,7.5-13.1c3-1.9,10.3,4.2,10.3,4.2s6.1-6.5,7.7-3.1c1.5,3.4,2.2,15.6,1.1,18.3
			c-1.1,2.7-9.6,7.2-20.7,7.1c-5.2,0-12.8-1.6-12.8-3.4C457.5,227.4,462.6,222.1,464.4,220.2L464.4,220.2z"/>
		<path class="st3" d="M477.5,216.6H469c-0.1,0-0.2-0.1-0.2-0.2c0-0.1,0.1-0.2,0.2-0.2h8.5c0.1,0,0.2,0.1,0.2,0.2
			C477.7,216.5,477.6,216.6,477.5,216.6z"/>
		<path class="st3" d="M476.6,220.4h-9c-0.1,0-0.2-0.1-0.2-0.2s0.1-0.2,0.2-0.2h9c0.1,0,0.2,0.1,0.2,0.2S476.7,220.4,476.6,220.4z"
			/>
		<path class="st3" d="M452.2,215.3l-5.5-0.7c-0.1,0-0.2-0.2-0.2-0.3c0-0.1,0.1-0.2,0.3-0.2l5.4,0.7c0.1,0,0.2,0.2,0.2,0.3
			C452.4,215.2,452.3,215.3,452.2,215.3z"/>
		<path class="st3" d="M450.8,219l-9.2-1.4c-0.1,0-0.2-0.2-0.2-0.3c0-0.1,0.1-0.2,0.3-0.2l9.1,1.4c0.1,0,0.2,0.2,0.2,0.3
			C451,218.9,450.9,219,450.8,219L450.8,219z"/>
		<path class="st3" d="M467,203.5c-0.1,0-0.2-0.1-0.2-0.2c0-1.6-1-38.7,0-43.3c0.6-2.9,8.6-11,10.3-12.7l-6.6-2.4
			c-0.1-0.1-0.2-0.2-0.2-0.3c0.1-0.1,0.2-0.2,0.3-0.2l7,2.6c0,0,0.2,0.1,0.2,0.2c0,0.1,0,0.2-0.1,0.2c-0.1,0.1-9.8,9.6-10.5,12.7
			c-1,4.5,0,42.7,0,43.1C467.2,203.4,467.1,203.5,467,203.5L467,203.5L467,203.5z"/>
		<path class="st3" d="M473.2,200.1c-0.1,0-0.2-0.1-0.2-0.2c0-0.1,0.1-0.3,0.2-0.3l20.4-1.1c0.2,0,0.3,0.1,0.3,0.2
			c0,0.1-0.1,0.3-0.2,0.3L473.2,200.1L473.2,200.1L473.2,200.1z"/>
		<path class="st3" d="M466.8,199.1h-18.2c-0.1,0-0.2-0.1-0.2-0.2c0-0.1,0.1-0.2,0.2-0.2h18.2c0.1,0,0.2,0.1,0.2,0.2
			C467.1,199,467,199.1,466.8,199.1z"/>
		<path class="st10" d="M485.7,96.3c0,0-6.6-0.4-10.6,4.7c-4,5.2-2.8,39-2.5,39.4c0.3,0.5,7.7,3.8,20.7,3.5
			c13-0.3,16.1-2.8,16.6-3.5c0.4-0.7,3.2-37.3,0-40.4C506.7,97,493.5,95.4,485.7,96.3L485.7,96.3z"/>
		<path class="st11" d="M492.1,90.7l-0.2,7c0,0-1.3,2-5.4,2.2c-3,0.2-4.1-0.5-4.1-0.5l0.5-3.5l0.5-3.4l7.4-1.4L492.1,90.7
			L492.1,90.7z"/>
		<path class="st12" d="M490.8,91c0,0.2-0.1,0.4-0.2,0.7c-1.6,3.4-5.9,4.1-7.7,4.2l0.5-3.4L490.8,91z"/>
		<path class="st11" d="M482.3,76.5c0,0-3.8,8.6-2.5,13.5c1.3,4.9,5.8,4.2,8.4,3.2c2.7-0.9,3.9-2.6,3.9-2.6s2.5,0.9,4.2-1.4
			c1.7-2.3,0.7-5-0.7-5.6c-1.4-0.6-3.1,0.4-3.1,0.4l1.3-2.5C493.7,81.6,488.2,68.7,482.3,76.5L482.3,76.5z"/>
		<path class="st12" d="M482.6,87.5c-0.1,0-0.2-0.1-0.2-0.2c-0.6-1.8,0.7-3.7,0.8-3.8c0.1-0.1,0.2-0.2,0.4-0.1
			c0.1,0.1,0.2,0.2,0.1,0.4c0,0-1.2,1.8-0.7,3.4C482.8,87.3,482.8,87.5,482.6,87.5C482.6,87.5,482.6,87.5,482.6,87.5L482.6,87.5z"/>
		<path class="st12" d="M492.7,88.2c0,0-0.1,0-0.2-0.1c-0.1-0.1-0.1-0.3,0-0.4l2.4-2.5c0.1-0.1,0.3-0.1,0.4,0c0.1,0.1,0.1,0.3,0,0.4
			l-2.4,2.5C493,88.1,492.8,88.2,492.7,88.2L492.7,88.2z"/>
		<path class="st12" d="M495.2,87.5l-1.7-0.2c-0.2,0-0.2-0.2-0.2-0.3c0-0.1,0.2-0.2,0.3-0.2l1.6,0.2c0.2,0,0.2,0.2,0.2,0.3
			C495.5,87.4,495.4,87.5,495.2,87.5L495.2,87.5z"/>
		<path class="st12" d="M486.5,84.3c-0.2,0-0.3-0.2-0.3-0.3l0.2-1.6c0-0.2,0.2-0.2,0.3-0.2c0.2,0,0.2,0.2,0.2,0.3l-0.2,1.6
			C486.7,84.2,486.6,84.3,486.5,84.3L486.5,84.3z"/>
		<path class="st12" d="M481.7,83.9c-0.2,0-0.3-0.2-0.3-0.3l0.2-1.6c0-0.2,0.2-0.2,0.3-0.2c0.2,0,0.2,0.2,0.2,0.3l-0.2,1.6
			C481.9,83.8,481.8,83.9,481.7,83.9z"/>
		<path class="st12" d="M487.6,81.4c0,0-0.2-0.1-0.2-0.1c-0.4-0.8-1.5-0.5-1.5-0.5c-0.2,0-0.3-0.1-0.3-0.2s0.1-0.3,0.2-0.3
			c0.1,0,1.5-0.3,2.1,0.8c0.1,0.1,0,0.3-0.1,0.4C487.7,81.3,487.7,81.4,487.6,81.4z"/>
		<path class="st12" d="M481.4,80.7c0,0-0.1,0-0.2-0.1c-0.1-0.1-0.1-0.2-0.1-0.4c0,0,0.5-0.6,1.1-0.7c0.3,0,0.6,0.1,1,0.3
			c0.1,0.1,0.1,0.3,0,0.4c-0.1,0.1-0.3,0.1-0.4,0c-0.2-0.2-0.4-0.2-0.6-0.2c-0.4,0-0.7,0.5-0.7,0.5
			C481.5,80.6,481.4,80.7,481.4,80.7L481.4,80.7z"/>
		<path class="st12" d="M491.5,84.7c0,0-2.4-1.6-2.2-4c0.1-2.4,0.7-3,0.7-3s-2.7-0.1-5-0.9c-1.5-0.5-2.1-1-2.1-1l-0.6,0.7
			c-0.7,0-2.3-4.2-1.2-5c1-0.7,6.6,1.2,6.6,1.2s5.9-1.4,9.3,2.8c3.4,4.2-0.4,9.1-0.4,9.1S495.5,82.5,491.5,84.7z"/>
		<path class="st12" d="M484.8,90.4c-0.8,0-1.4-0.5-1.4-0.6c-0.1-0.1-0.1-0.2-0.1-0.2c0-0.1,0.1-0.2,0.2-0.2l2.2-0.8
			c0,0,0.1,0,0.2,0c0.1,0,0.1,0.1,0.1,0.2c0,0,0.2,0.6-0.1,1c-0.1,0.3-0.4,0.5-0.7,0.6C485.1,90.4,485,90.4,484.8,90.4L484.8,90.4z
			 M484.1,89.7c0.3,0.1,0.6,0.2,1,0.1c0.2-0.1,0.3-0.2,0.4-0.3c0.1-0.1,0.1-0.2,0.1-0.4L484.1,89.7L484.1,89.7z"/>
		<path class="st11" d="M442.1,114.8l-0.2-1.6c0,0-6-4.5-9.6-6c-1.5-0.6-3.7-0.1-1.9,1.9c1,1.1,1.5,2.4,1.5,2.4s-3-0.9-5-2.3
			c-1.3-0.9-3.2-4.3-4.3-3.6c-1.8,1.2,0.3,4.6,0.3,4.6s-0.9-4.3-2.7-2.6c-1.7,1.7,3,10,5.3,12c2.3,2,14.2,4.3,14.2,4.3L442.1,114.8
			L442.1,114.8z"/>
		<path class="st12" d="M429.5,113.4c-2.8-0.3-5.3-2.6-5.4-2.7c-0.1-0.1-0.1-0.3,0-0.4c0.1-0.1,0.3-0.1,0.4,0c0,0,2.5,2.3,5.1,2.6
			c0.2,0,0.2,0.1,0.2,0.3C429.8,113.3,429.6,113.4,429.5,113.4L429.5,113.4z"/>
		<path class="st12" d="M426.4,115.3c0,0-0.1,0-0.2-0.1l-2.5-1.9c-0.1-0.1-0.1-0.2-0.1-0.4c0.1-0.1,0.2-0.1,0.4-0.1l2.3,1.8l5.1-3.1
			c0.1-0.1,0.3,0,0.4,0.1c0.1,0.1,0,0.3-0.1,0.4l-5.2,3.2C426.6,115.3,426.5,115.3,426.4,115.3L426.4,115.3z"/>
		<path class="st12" d="M436.5,115.2C436.5,115.2,436.4,115.2,436.5,115.2c-3.1-0.9-4.9-3.1-5-3.1c-0.1-0.1-0.1-0.3,0-0.4
			c0.1-0.1,0.3-0.1,0.4,0c0,0,1.9,2.1,4.7,3c0.1,0,0.2,0.2,0.2,0.3C436.7,115.2,436.6,115.2,436.5,115.2L436.5,115.2z"/>
		<path class="st10" d="M476.8,99.3c0,0-14.6,12.5-24.4,13.1c-4.7,0.3-11.1-2-11.1-2l-5.6,14.7c0,0,19.8,18.8,40,4
			C481.4,124.9,476.8,99.3,476.8,99.3z"/>
		<path class="st13" d="M470.9,119.6c-0.2,0-0.3-0.1-0.3-0.3c0-1.8,3.1-11.3,3.3-11.7c0-0.1,0.2-0.2,0.3-0.2c0.1,0,0.2,0.2,0.2,0.3
			c0,0.1-3.2,9.8-3.2,11.6C471.1,119.4,471,119.5,470.9,119.6L470.9,119.6z"/>
		<polygon class="st14" points="485.4,100.4 481.5,126.5 484.7,126.5 487.6,99.9 		"/>
		<path class="st0" d="M442.2,110l1.6,0.5c0.7,0.2,1.1,1,0.9,1.7l-4.8,14.4c-0.2,0.7-1,1.1-1.7,0.9l-1.6-0.5c-0.7-0.2-1.1-1-0.9-1.7
			l4.8-14.4C440.7,110.2,441.5,109.8,442.2,110z"/>
		<path class="st0" d="M482.8,96.8c0,0-2.2,7.4-1.5,7.3s5.2-4.1,5.2-4.1s3.2,4.1,4.3,4.1c1.1,0,1.4-8,1.4-8s-1.1,2.5-5,3.1
			C483.3,99.7,482.8,96.8,482.8,96.8z"/>
		<path class="st11" d="M492.8,129.8c0,0-0.4,0.1-2,0.7c-1.5,0.6-5.4,4.4-5.4,4.4s-3.2,3.6-5.3,7.3c-2,3.7-0.5,4.8-0.5,4.8
			s-1.1,2.7,0.3,2.9s4.1-2.9,4.1-2.9s-3,4.4-0.7,4.2c2.3-0.3,6.1-6.1,6.1-6.1s10.4-2.8,11.1-7.5
			C501.3,132.8,492.8,129.8,492.8,129.8L492.8,129.8z"/>
		<path class="st10" d="M509.9,100.1c0,0,18.8,20.4,15.8,33.6c-3,13.1-27.9,8.3-27.9,8.3l-6.6-14l14-8.3L509.9,100.1L509.9,100.1z"
			/>
		<path class="st13" d="M511.5,120.5c-2,0-4.7-0.4-5.8-0.6c-0.1,0-0.2-0.1-0.2-0.2c0-0.1,0-0.2,0.1-0.3c0.2-0.1,5.7-3,8-0.6
			c0.4,0.4,0.5,0.7,0.3,1C513.7,120.4,512.7,120.6,511.5,120.5L511.5,120.5z M506.7,119.5c3.2,0.5,6.5,0.7,6.8,0.1
			c0-0.1,0-0.2-0.2-0.4C511.7,117.6,508.2,118.9,506.7,119.5z"/>
		<path class="st13" d="M505.8,119.9c0,0-0.1,0-0.2,0c-2-1.4-0.5-5.6-0.4-5.7c0.1-0.1,0.2-0.2,0.3-0.2c0.1,0.1,0.2,0.2,0.2,0.3
			c0,0-1.5,3.9,0.2,5.1c0.1,0.1,0.2,0.2,0.1,0.4C506,119.9,505.9,119.9,505.8,119.9z"/>
		<path class="st0" d="M490.6,127.3l1.5-0.7c0.7-0.3,1.5,0,1.8,0.6l6.6,13.7c0.3,0.7,0,1.5-0.6,1.8l-1.5,0.7c-0.7,0.3-1.5,0-1.8-0.6
			l-6.6-13.7C489.7,128.5,489.9,127.7,490.6,127.3z"/>
		<path class="st3" d="M494.6,169.4c-0.1,0-0.2-0.1-0.2-0.2c-0.1-0.2-1.8-5.8-0.4-7.8c0.3-0.5,0.7-0.7,1.2-0.8
			c0.6-0.1,1,0.2,1.1,0.4c1.2,1.6-1.2,7.6-1.5,8.3C494.8,169.3,494.7,169.4,494.6,169.4L494.6,169.4z M495.4,161.1c0,0-0.1,0-0.2,0
			c-0.4,0.1-0.6,0.2-0.9,0.6c-0.9,1.5-0.1,5.1,0.3,6.7c0.8-2.1,2.1-6,1.3-7C495.8,161.2,495.7,161.1,495.4,161.1L495.4,161.1z"/>
	</g>
	<path class="st12" d="M483.4,148c0,0-0.1,0-0.1,0c-0.1-0.1-0.2-0.2-0.1-0.4l2.4-3.7c0.1-0.1,0.2-0.2,0.4-0.1
		c0.1,0.1,0.2,0.2,0.1,0.4l-2.4,3.7C483.7,147.8,483.5,148,483.4,148z"/>
	<path class="st12" d="M479.6,147.2c0,0-0.1,0-0.1,0c-0.1-0.1-0.2-0.2-0.1-0.4c0,0,1.5-2.9,3.3-5.3c0.1-0.1,0.2-0.1,0.4-0.1
		c0.1,0.1,0.1,0.2,0.1,0.4c-1.8,2.3-3.3,5.2-3.3,5.3C479.8,147.1,479.7,147.2,479.6,147.2L479.6,147.2z"/>
</g>
<path class="st1" d="M541.5,159.1h-36.9c-5.2,0-9.3-4.2-9.3-9.3s4.2-9.3,9.3-9.3h36.9c5.2,0,9.3,4.2,9.3,9.3
	S546.6,159.1,541.5,159.1z"/>
<path class="st5" d="M339.8,159.1H303c-5.2,0-9.3-4.2-9.3-9.3s4.2-9.3,9.3-9.3h36.9c5.2,0,9.3,4.2,9.3,9.3S345,159.1,339.8,159.1z"
	/>
<path class="st1" d="M359.8,89.7h17.8c16.1,0,29.1,13,29.1,29.1v42.9h-76.1v-42.9C330.6,102.7,343.7,89.7,359.8,89.7L359.8,89.7z"/>
<path class="st1" d="M332.4,158H405c5.1,0,9.3,4.2,9.3,9.3v5.7c0,5.1-4.2,9.3-9.3,9.3h-72.6c-5.1,0-9.3-4.2-9.3-9.3v-5.7
	C323.1,162.2,327.3,158,332.4,158z"/>
<path class="st4" d="M341.1,89.7H359c16.1,0,29.1,13,29.1,29.1v42.9H312v-42.9C312,102.7,325.1,89.7,341.1,89.7L341.1,89.7z"/>
<path class="st4" d="M313.8,158h72.6c5.1,0,9.3,4.2,9.3,9.3v5.7c0,5.1-4.2,9.3-9.3,9.3h-72.6c-5.1,0-9.3-4.2-9.3-9.3v-5.7
	C304.5,162.2,308.6,158,313.8,158z"/>
<path class="st1" d="M411.6,159.1h-36.9c-5.2,0-9.3-4.2-9.3-9.3s4.2-9.3,9.3-9.3h36.9c5.2,0,9.3,4.2,9.3,9.3
	S416.8,159.1,411.6,159.1z"/>
<path class="st1" d="M209.4,159.1h-36.9c-5.2,0-9.3-4.2-9.3-9.3s4.2-9.3,9.3-9.3h36.9c5.2,0,9.3,4.2,9.3,9.3
	S214.6,159.1,209.4,159.1z"/>
<path class="st1" d="M229.3,89.7h17.8c16.1,0,29.1,13,29.1,29.1v42.9h-76.1v-42.9C200.2,102.7,213.2,89.7,229.3,89.7z"/>
<path class="st1" d="M201.9,158h72.6c5.1,0,9.3,4.2,9.3,9.3v5.7c0,5.1-4.2,9.3-9.3,9.3h-72.6c-5.1,0-9.3-4.2-9.3-9.3v-5.7
	C192.6,162.2,196.8,158,201.9,158z"/>
<path class="st4" d="M210.7,89.7h17.8c16.1,0,29.1,13,29.1,29.1v42.9h-76.1v-42.9C181.6,102.7,194.6,89.7,210.7,89.7z"/>
<path class="st4" d="M183.3,158h72.6c5.1,0,9.3,4.2,9.3,9.3v5.7c0,5.1-4.2,9.3-9.3,9.3h-72.6c-5.1,0-9.3-4.2-9.3-9.3v-5.7
	C174,162.2,178.2,158,183.3,158z"/>
<g>
	<polygon class="st15" points="209.8,211.2 209.6,220.2 227.4,218.6 227.5,211.4 	"/>
	<polygon class="st15" points="188.2,209.9 188,218.8 205.9,217.2 205.9,210 	"/>
	<path class="st8" d="M185.8,217.6c0,0-22.3,14.4-23.4,17.5c-1.1,3,2.1,4.3,3.6,4.4c1.5,0.2,38.7-2.2,38.7-2.2L208,226
		c0,0-0.5-9.6-0.8-9.9c-0.4-0.3-20.4-0.1-20.4-0.1L185.8,217.6L185.8,217.6z"/>
	<path class="st3" d="M186.2,225.8l-10.9-0.1c-0.1,0-0.2-0.1-0.2-0.2c0-0.1,0.1-0.2,0.2-0.2l9.9,0.1l-4.1-2.1c0,0-0.1-0.2-0.1-0.2
		s0.1-0.2,0.2-0.2l7.8-0.2l-6-3c-0.1-0.1-0.2-0.2-0.1-0.3c0.1-0.1,0.2-0.2,0.3-0.1l6.8,3.4c0,0,0.1,0.2,0.1,0.2
		c0,0.1-0.1,0.2-0.2,0.2l-7.8,0.2l4.2,2.1c0,0,0.2,0.2,0.1,0.3C186.4,225.7,186.3,225.8,186.2,225.8L186.2,225.8z"/>
	<path class="st10" d="M241.7,139.5c0,0,0.3,12.1,0.3,16.3c0,4.2-8.8,15.9-8.8,15.9l-0.7,41.4l-28.9-0.2c0,0-1.9-42.9-1.8-47.2
		c0.1-4.4,18.4-21.8,18.4-21.8S241.7,139.5,241.7,139.5z"/>
	<path class="st16" d="M226.9,173.3c-0.6,0-1-0.1-1.3-0.3c-0.2-0.1-0.3-0.4-0.2-0.8c0.6-2.3,7.1-0.9,7.8-0.7c0.1,0,0.2,0.1,0.2,0.2
		s-0.1,0.2-0.2,0.2C232.8,172.1,229.1,173.3,226.9,173.3L226.9,173.3z M228.6,171.4c-1.4,0-2.5,0.2-2.7,1c-0.1,0.2,0,0.3,0.1,0.3
		c0.6,0.6,4-0.2,6.4-0.9C231.3,171.5,229.9,171.3,228.6,171.4L228.6,171.4z"/>
	<path class="st3" d="M164.9,234.4c-0.1,0-0.2-0.1-0.2-0.2c0-0.1,0.1-0.2,0.2-0.2l32.9-1.6c0.1,0,0.2,0.1,0.2,0.2
		c0,0.1-0.1,0.2-0.2,0.2L164.9,234.4L164.9,234.4L164.9,234.4z"/>
	<path class="st10" d="M212.5,143.2c0,0-28,13-31,18.7c-3,5.7,1.3,52.7,1.3,52.7l25.8-1.8l1.1-25.1l15.4-39.5L212.5,143.2
		L212.5,143.2z"/>
	<path class="st16" d="M203.6,213c-0.1,0-0.2-0.1-0.2-0.2c-0.1-1.9-3.2-45.7-2.7-49.1c0.4-3.1,11.2-10.9,13.6-12.6l-8.4-1.6
		c-0.1,0-0.2-0.1-0.2-0.3c0-0.1,0.2-0.2,0.3-0.2l8.9,1.7c0,0,0.2,0.1,0.2,0.2c0,0.1,0,0.2-0.1,0.2c-0.1,0.1-13.4,9.3-13.8,12.6
		c-0.4,3.4,2.7,48.6,2.7,49C203.9,212.9,203.8,213,203.6,213L203.6,213L203.6,213z"/>
	<path class="st7" d="M210.4,101.1c0,0-22.3,14.8-21.7,30.6c0.4,10.1,18.3,11.6,23.6,9.6c5.3-2,3.5-28.1,3.5-28.1
		S210.4,101.1,210.4,101.1z"/>
	<path class="st7" d="M222.8,98.4c0,0,9.2,0,12.7,3.9c3.5,3.9,9.3,40.8,7.6,42.7c-1.7,2.1-26.8,2.9-31.9,2l-5.1-0.9
		c0,0,1.8-43.8,4.3-45.2C213.5,99.3,222.8,98.4,222.8,98.4L222.8,98.4z"/>
	<path class="st12" d="M229.5,86.3c0,0-0.2,4-2,4.1c-1.8,0.2-4.4-2.1-4.4-2.1l1.2-4.5L229.5,86.3L229.5,86.3z"/>
	<path class="st11" d="M223.9,93.8l-0.1,6.2c0,0-1.1,1.8-4.8,2c-2.7,0.2-3.7-0.4-3.7-0.4l0.4-3.1l0.4-3.1l6.6-1.4
		C222.8,94,223.9,93.8,223.9,93.8z"/>
	<path class="st11" d="M222.8,94c0,0.2-0.1,0.4-0.2,0.6c-1.4,3.1-5.2,3.7-6.8,3.8l0.4-3.1L222.8,94L222.8,94z"/>
	<path class="st17" d="M215.2,151h-15.5c-0.6,0-1.1-0.4-1.2-1l-3.4-24.8c-0.1-0.7,0.5-1.4,1.2-1.4h22.3c0.7,0,1.3,0.6,1.2,1.4
		l-3.4,24.8C216.3,150.6,215.8,151,215.2,151z"/>
	<path class="st17" d="M193.3,124.2c0,0,0.9-2.6,4.2-2.5c3.3,0.1,3.6,2.5,3.6,2.5s0.2-1.4,1.6-1.6s2.8,1.6,2.8,1.6s-0.7-3.8,3.9-3.8
		c4.5,0,5,3.8,5,3.8s1.4-2.6,2.7-1.6c1.3,0.9,1,3,1,3L193.3,124.2L193.3,124.2z"/>
	<path class="st3" d="M212.4,151h-15.5c-0.6,0-1.1-0.4-1.2-1l-3.4-24.8c-0.1-0.7,0.5-1.4,1.2-1.4h22.3c0.7,0,1.3,0.6,1.2,1.4
		l-3.4,24.8C213.5,150.6,213,151,212.4,151z"/>
	<path class="st11" d="M215,81.2c0,0-3.3,7.7-2.1,12.1c1.2,4.3,5.2,3.6,7.6,2.8s3.4-2.3,3.4-2.3s2.2,0.7,3.7-1.3
		c1.5-2.1,0.5-4.4-0.7-5c-1.3-0.5-2.8,0.4-2.8,0.4l1.2-2.2C225.3,85.6,220.2,74.2,215,81.2L215,81.2z"/>
	<path class="st12" d="M224.3,91.2c0,0-0.1,0-0.2-0.1c-0.1-0.1-0.1-0.2,0.1-0.3l2.8-2c0.1-0.1,0.2,0,0.3,0.1
		c0.1,0.1,0.1,0.2-0.1,0.3l-2.8,2C224.5,91.2,224.4,91.2,224.3,91.2z"/>
	<path class="st12" d="M226.9,91.2C226.9,91.2,226.8,91.2,226.9,91.2l-1.9-0.5c-0.1,0-0.2-0.2-0.2-0.3c0-0.1,0.2-0.2,0.3-0.2
		l1.8,0.5c0.1,0,0.2,0.2,0.2,0.3C227.1,91.1,227,91.2,226.9,91.2L226.9,91.2z"/>
	<path class="st12" d="M220.2,84.5c0,0-0.1,0-0.2-0.1c-0.8-1-1.8-0.5-1.8-0.5c-0.1,0.1-0.2,0-0.3-0.1c-0.1-0.1,0-0.2,0.1-0.3
		c0.5-0.2,1.6-0.4,2.4,0.6c0.1,0.1,0.1,0.2,0,0.3C220.3,84.5,220.2,84.5,220.2,84.5L220.2,84.5z"/>
	<path class="st12" d="M214.2,84.2c0,0-0.1,0-0.2-0.1c-0.1-0.1-0.1-0.2,0-0.3c0.9-0.7,1.9-0.2,1.9-0.2c0.1,0.1,0.2,0.2,0.1,0.3
		c-0.1,0.1-0.2,0.2-0.3,0.1c0,0-0.7-0.4-1.4,0.1C214.3,84.2,214.2,84.2,214.2,84.2z"/>
	<path class="st12" d="M215.2,90.8c-0.1,0-0.2-0.1-0.2-0.2c-0.4-1.6,0.6-3.9,0.7-4c0.1-0.1,0.2-0.2,0.3-0.1c0.1,0.1,0.2,0.2,0.1,0.3
		c0,0-1,2.2-0.6,3.7C215.5,90.6,215.4,90.8,215.2,90.8C215.3,90.8,215.3,90.8,215.2,90.8z"/>
	<path class="st12" d="M214.2,87.2C214.2,87.2,214.1,87.2,214.2,87.2c-0.2,0-0.2-0.2-0.2-0.3l0.4-1.4c0-0.1,0.2-0.2,0.3-0.2
		c0.1,0,0.2,0.2,0.2,0.3l-0.4,1.4C214.3,87.1,214.3,87.2,214.2,87.2L214.2,87.2z"/>
	<path class="st12" d="M218.1,87.3C218.1,87.3,218,87.3,218.1,87.3c-0.2,0-0.2-0.2-0.2-0.3l0.4-1.4c0-0.1,0.2-0.2,0.3-0.2
		c0.1,0,0.2,0.2,0.2,0.3l-0.4,1.4C218.3,87.2,218.2,87.3,218.1,87.3L218.1,87.3z"/>
	<path class="st12" d="M214.6,82.4c0,0,0.5-0.6,2-0.6c1.5,0,2.4,1.1,2.4,1.1s0.1,2.8,2.2,4.2c2.1,1.4,2.9,0.8,2.9,0.8l1.5-0.5
		l1.1-2.2l-4.4-4.8l-5.3-2.2l-2.6,2.9L214.6,82.4L214.6,82.4z"/>
	<path class="st12" d="M216.8,92.6c0,0-0.1,0-0.2,0c-0.1,0-0.2-0.1-0.2-0.2c0-0.1,0.1-0.2,0.2-0.2c0,0,1.3,0.1,1.8-1
		c0.1-0.1,0.2-0.2,0.3-0.1c0.1,0.1,0.2,0.2,0.1,0.3C218.4,92.5,217.2,92.6,216.8,92.6z"/>
	<path class="st18" d="M228.6,90c1.1-1.1,2-3.8,1.8-5.4l0-0.3c0,0,1.8-0.2,1.2-2.6c-0.6-2.4-3.7-5.6-8.4-6.8s-8.6,6.1-8.6,6.1
		s4-0.2,7,2.1c3,2.3,4.1,4.3,4.1,4.3L228.6,90L228.6,90z"/>
	<path class="st7" d="M231.8,100c0,0,25.6,9.2,23.4,28.6c-2.1,19.3-28.9,15-28.9,15l-0.3-16.4l8.2-3.8L231.8,100L231.8,100z"/>
	<path class="st11" d="M188.8,128.5c0,0-4-1.9-1.8-3.3c1.9-1.2,10.9,1.3,11.7,2.2c0.8,1-2.4,2.2-2.4,2.2s4.5,0.5,4.4,2.1
		c-0.1,1.6-3.9,1.4-3.9,1.4s3.5,0.5,2.3,2.8c-1.2,2.3-10.1,0.2-11.1-1c-0.9-1.2,0.5-1.8,0.5-1.8s-1.3-0.7-1.5-2.4
		C186.8,129.1,188.8,128.6,188.8,128.5L188.8,128.5z"/>
	<path class="st12" d="M195.4,129.3l-5.7-0.7c-0.1,0-0.2-0.1-0.2-0.2c0-0.1,0.1-0.2,0.2-0.2l5.7,0.7c0.1,0,0.2,0.1,0.2,0.2
		C195.6,129.3,195.5,129.4,195.4,129.3L195.4,129.3z"/>
	<path class="st12" d="M196.8,133.6l-7.1-0.1c-0.1,0-0.2-0.1-0.2-0.2c0-0.1,0.1-0.2,0.2-0.2l7.1,0.1c0.1,0,0.2,0.1,0.2,0.2
		C197,133.5,196.9,133.6,196.8,133.6z"/>
	<path class="st17" d="M229.9,124.8c0,0-0.2,0-0.2-0.1c-0.1-0.1,0-0.2,0.1-0.3c0.1,0,7.4-3.8,11.5-5c0.1,0,0.2,0,0.3,0.2
		c0,0.1,0,0.2-0.2,0.3C237.4,121,230.1,124.7,229.9,124.8C230,124.8,229.9,124.8,229.9,124.8L229.9,124.8z"/>
	<path class="st17" d="M235.4,122.2c0,0-0.1,0-0.1,0c-0.1,0-0.1-0.1-0.1-0.2c0-0.2,0.7-5.4,3.8-5.8c0.5-0.1,0.8,0.1,0.9,0.3
		c0.5,1.1-3.2,4.6-4.3,5.7C235.5,122.1,235.5,122.2,235.4,122.2L235.4,122.2z M239.2,116.5c0,0-0.1,0-0.2,0c-2.1,0.2-3,3.4-3.2,4.7
		c2-2,3.9-4.2,3.7-4.7C239.5,116.6,239.4,116.5,239.2,116.5z"/>
	<path class="st9" d="M218,102.4c-0.9,0-1.8-0.2-2.7-0.6c-0.1-0.1-0.2-0.2-0.1-0.3s0.2-0.2,0.3-0.1c3.7,1.9,8.1-1.6,8.2-1.6
		c0.1-0.1,0.2-0.1,0.3,0c0.1,0.1,0.1,0.2,0,0.3C223.8,100.3,221.1,102.5,218,102.4L218,102.4z"/>
	<path class="st9" d="M230.4,84.9c0,0-0.2,0-0.2-0.1l-0.9-1.6c-0.1-0.1,0-0.2,0.1-0.3c0.1-0.1,0.2,0,0.3,0.1l0.9,1.6
		c0.1,0.1,0,0.2-0.1,0.3C230.5,84.8,230.4,84.9,230.4,84.9z"/>
	<path class="st17" d="M206.1,123.2c-0.1,0-0.2-0.1-0.2-0.2v-4.3c0-0.1,0.1-0.2,0.2-0.2c0.1,0,0.2,0.1,0.2,0.2v4.3
		C206.4,123.1,206.3,123.2,206.1,123.2z"/>
	<path class="st11" d="M221,125.1c0,0-6.8-1-5.9,1c0.9,2.1,6.7,1.7,6.7,1.7l3.5-0.3L221,125.1L221,125.1z"/>
	<path class="st11" d="M227.2,126.9c0,0-2.2-0.9-3.7-1.3c-1.4-0.5-2.5-0.4-2.5-0.4l-0.6,2.2c0,0-5,0.8-8.6,2.3c-3.6,1.5-3,3.2-3,3.2
		s-2.3,1.3-1.4,2.3c0.9,1,4.6,0.3,4.6,0.3s-4.7,1.5-2.8,2.6c1.8,1.1,6,1.1,6,1.1s11.7,0.5,14.3-3.1
		C230.9,133.9,227.2,127,227.2,126.9L227.2,126.9z"/>
	<path class="st12" d="M209,132.8c-0.1,0-0.2-0.1-0.3-0.2c0-0.2,0.1-0.3,0.2-0.3l7.2-1.6c0.2,0,0.3,0.1,0.3,0.2
		c0,0.2-0.1,0.3-0.2,0.3L209,132.8C209.1,132.8,209.1,132.8,209,132.8z"/>
	<path class="st12" d="M211.5,135.7c-0.1,0-0.2-0.1-0.3-0.2c0-0.2,0.1-0.3,0.2-0.3l4.5-1c0.2,0,0.3,0.1,0.3,0.2
		c0,0.2-0.1,0.3-0.2,0.3L211.5,135.7C211.6,135.7,211.5,135.7,211.5,135.7z"/>
	<path class="st9" d="M208.7,216.2c0,0-16.2,14.5-16.8,17.5c-0.6,3,1.1,4.5,2.2,4.9s22.1,0.4,27.9,0.2c5.8-0.2,6.8-4,7.4-7.4
		s-1.5-15-1.5-15L208.7,216.2L208.7,216.2z"/>
	<path class="st3" d="M217.4,226.1C217.4,226.1,217.4,226.1,217.4,226.1l-10.3-2.3c-0.1,0-0.2-0.1-0.2-0.2c0-0.1,0.1-0.2,0.2-0.2
		l11-2.5l-8.6-0.5c-0.1,0-0.2-0.1-0.2-0.2c0-0.1,0.1-0.2,0.2-0.2l10.2,0.5c0.1,0,0.2,0.1,0.2,0.2c0,0.1-0.1,0.2-0.2,0.2l-11.6,2.7
		l9.2,2c0.1,0,0.2,0.2,0.2,0.3C217.6,226,217.5,226,217.4,226.1L217.4,226.1z"/>
	<path class="st3" d="M218.4,232.5c-8.6,0-22.5-0.4-24.6-0.5c-0.1,0-0.2-0.1-0.2-0.2c0-0.1,0.1-0.2,0.2-0.2
		c12,0.4,30.3,0.8,31.3,0.2c1.4-0.7,3.1-2.1,3.1-2.1c0.1-0.1,0.2-0.1,0.3,0c0.1,0.1,0.1,0.2,0,0.3c-0.1,0.1-1.7,1.4-3.2,2.2
		C224.8,232.4,222,232.5,218.4,232.5L218.4,232.5z"/>
</g>
<path class="st1" d="M281.2,159.1h-36.9c-5.2,0-9.3-4.2-9.3-9.3s4.2-9.3,9.3-9.3h36.9c5.2,0,9.3,4.2,9.3,9.3
	S286.4,159.1,281.2,159.1z"/>
<rect x="89.1" y="234.6" class="st0" width="577.7" height="60.7"/>
<path class="st5" d="M546,219.9h-36.9c-5.2,0-9.3-4.2-9.3-9.3s4.2-9.3,9.3-9.3H546c5.2,0,9.3,4.2,9.3,9.3S551.2,219.9,546,219.9z"/>
<rect x="106.1" y="227.9" class="st4" width="528.5" height="10.6"/>
<path class="st19" d="M632.7,222.5h3.9c3.5,0,6.3,2.8,6.3,6.3v59.6c0,3.5-2.8,6.3-6.3,6.3h-3.9c-3.5,0-6.3-2.8-6.3-6.3v-59.6
	C626.4,225.3,629.2,222.5,632.7,222.5z"/>
<path class="st3" d="M98.5,222.5h3.9c3.5,0,6.3,2.8,6.3,6.3v59.6c0,3.5-2.8,6.3-6.3,6.3h-3.9c-3.5,0-6.3-2.8-6.3-6.3v-59.6
	C92.1,225.3,95,222.5,98.5,222.5z"/>
<path class="st1" d="M565.9,150.4h17.8c16.1,0,29.1,13,29.1,29.1v42.9h-76.1v-42.9C536.8,163.4,549.9,150.4,565.9,150.4z"/>
<path class="st1" d="M538.6,218.6h72.4c5.2,0,9.4,4.2,9.4,9.4v5.7c0,5.2-4.2,9.4-9.4,9.4h-72.4c-5.2,0-9.4-4.2-9.4-9.4V228
	C529.2,222.8,533.5,218.6,538.6,218.6z"/>
<path class="st4" d="M547.3,150.4h17.8c16.1,0,29.1,13,29.1,29.1v42.9h-76.1v-42.9C518.2,163.4,531.2,150.4,547.3,150.4z"/>
<path class="st4" d="M520,218.6h72.4c5.2,0,9.4,4.2,9.4,9.4v5.7c0,5.2-4.2,9.4-9.4,9.4H520c-5.2,0-9.4-4.2-9.4-9.4V228
	C510.6,222.8,514.8,218.6,520,218.6z"/>
<path class="st1" d="M415.7,219.9h-36.9c-5.2,0-9.3-4.2-9.3-9.3s4.2-9.3,9.3-9.3h36.9c5.2,0,9.3,4.2,9.3,9.3
	S420.8,219.9,415.7,219.9z"/>
<path class="st1" d="M435.6,150.4h17.8c16.1,0,29.1,13,29.1,29.1v42.9h-76.1v-42.9C406.5,163.4,419.5,150.4,435.6,150.4L435.6,150.4
	z"/>
<path class="st1" d="M408.3,218.6h72.4c5.2,0,9.4,4.2,9.4,9.4v5.7c0,5.2-4.2,9.4-9.4,9.4h-72.4c-5.2,0-9.4-4.2-9.4-9.4V228
	C398.9,222.8,403.1,218.6,408.3,218.6z"/>
<path class="st4" d="M417,150.4h17.8c16.1,0,29.1,13,29.1,29.1v42.9h-76.1v-42.9C387.9,163.4,400.9,150.4,417,150.4L417,150.4z"/>
<path class="st4" d="M389.7,218.6h72.4c5.2,0,9.4,4.2,9.4,9.4v5.7c0,5.2-4.2,9.4-9.4,9.4h-72.4c-5.2,0-9.4-4.2-9.4-9.4V228
	C380.3,222.8,384.5,218.6,389.7,218.6z"/>
<path class="st1" d="M285.8,219.9H249c-5.2,0-9.3-4.2-9.3-9.3s4.2-9.3,9.3-9.3h36.9c5.2,0,9.3,4.2,9.3,9.3S291,219.9,285.8,219.9z"
	/>
<path class="st1" d="M305.8,150.4h17.8c16.1,0,29.1,13,29.1,29.1v42.9h-76.1v-42.9C276.6,163.4,289.7,150.4,305.8,150.4L305.8,150.4
	z"/>
<path class="st1" d="M278.5,218.6h72.4c5.2,0,9.4,4.2,9.4,9.4v5.7c0,5.2-4.2,9.4-9.4,9.4h-72.4c-5.2,0-9.4-4.2-9.4-9.4V228
	C269.1,222.8,273.3,218.6,278.5,218.6z"/>
<path class="st4" d="M287.1,150.4H305c16.1,0,29.1,13,29.1,29.1v42.9H258v-42.9C258,163.4,271.1,150.4,287.1,150.4L287.1,150.4z"/>
<path class="st4" d="M259.9,218.6h72.4c5.2,0,9.4,4.2,9.4,9.4v5.7c0,5.2-4.2,9.4-9.4,9.4h-72.4c-5.2,0-9.4-4.2-9.4-9.4V228
	C250.4,222.8,254.7,218.6,259.9,218.6z"/>
<path class="st1" d="M155.4,219.9h-36.9c-5.2,0-9.3-4.2-9.3-9.3s4.2-9.3,9.3-9.3h36.9c5.2,0,9.3,4.2,9.3,9.3
	S160.6,219.9,155.4,219.9z"/>
<path class="st1" d="M175.3,150.4h17.8c16.1,0,29.1,13,29.1,29.1v42.9h-76.1v-42.9C146.2,163.4,159.2,150.4,175.3,150.4z"/>
<path class="st1" d="M148,218.6h72.4c5.2,0,9.4,4.2,9.4,9.4v5.7c0,5.2-4.2,9.4-9.4,9.4H148c-5.2,0-9.4-4.2-9.4-9.4V228
	C138.6,222.8,142.8,218.6,148,218.6z"/>
<path class="st4" d="M156.7,150.4h17.8c16.1,0,29.1,13,29.1,29.1v42.9h-76.1v-42.9C127.6,163.4,140.6,150.4,156.7,150.4z"/>
<path class="st4" d="M129.4,218.6h72.4c5.2,0,9.4,4.2,9.4,9.4v5.7c0,5.2-4.2,9.4-9.4,9.4h-72.4c-5.2,0-9.4-4.2-9.4-9.4V228
	C120,222.8,124.2,218.6,129.4,218.6z"/>
<ellipse class="st4" cx="339.5" cy="354.9" rx="325.2" ry="8.7"/>
<rect x="48.7" y="294.2" class="st0" width="618.1" height="60.7"/>
<path class="st3" d="M665.8,294.6h-22.3c-0.2,0-0.4-0.2-0.4-0.4c0-0.2,0.2-0.4,0.4-0.4h22.3c0.2,0,0.4,0.2,0.4,0.4
	C666.2,294.4,666,294.6,665.8,294.6z"/>
<path class="st3" d="M665.8,235h-22.3c-0.2,0-0.4-0.2-0.4-0.4c0-0.2,0.2-0.4,0.4-0.4h22.3c0.2,0,0.4,0.2,0.4,0.4
	C666.2,234.8,666,235,665.8,235z"/>
<path class="st3" d="M665.8,355.3h-70.4c-0.2,0-0.4-0.2-0.4-0.4s0.2-0.4,0.4-0.4h70.4c0.2,0,0.4,0.2,0.4,0.4S666,355.3,665.8,355.3z
	"/>
<g>
	<polygon class="st15" points="549.5,274.9 549.4,283.6 566.7,281.9 566.7,274.9 	"/>
	<polygon class="st15" points="522.6,273.8 522.5,282.5 539.9,280.8 539.9,273.8 	"/>
	<path class="st20" d="M520.4,281.3c0,0-21.6,14.2-22.7,17.2c-1,3,2.1,4.2,3.5,4.3c1.4,0.1,37.7-2.4,37.7-2.4l3.1-11
		c0,0-0.5-9.3-0.9-9.6c-0.4-0.3-19.9,0-19.9,0L520.4,281.3L520.4,281.3z"/>
	<path class="st20" d="M548.5,279.7c0,0-15.7,14.2-16.3,17.2c-0.6,2.9,1.1,4.4,2.2,4.8c1,0.4,21.6,0.2,27.2,0c5.6-0.2,6.6-4,7.2-7.3
		c0.5-3.3-1.5-14.6-1.5-14.6L548.5,279.7L548.5,279.7z"/>
	<path class="st16" d="M557,289.3C557,289.3,557,289.3,557,289.3l-10-2.1c-0.1,0-0.2-0.1-0.2-0.2s0.1-0.2,0.2-0.2l10.6-2.5l-8.3-0.4
		c-0.1,0-0.2-0.1-0.2-0.2c0-0.1,0.1-0.2,0.2-0.2l10,0.5c0.1,0,0.2,0.1,0.2,0.2c0,0.1-0.1,0.2-0.2,0.2l-11.2,2.7l8.9,1.9
		c0.1,0,0.2,0.2,0.2,0.3C557.2,289.2,557.1,289.3,557,289.3L557,289.3z"/>
	<path class="st16" d="M520.8,289.3h-10.6c-0.1,0-0.2-0.1-0.2-0.2s0.1-0.2,0.2-0.2h9.6l-4-2c-0.1-0.1-0.2-0.2-0.1-0.3
		c0-0.1,0.1-0.2,0.2-0.2l7.5-0.3l-5.8-2.9c-0.1-0.1-0.2-0.2-0.1-0.3c0.1-0.1,0.2-0.2,0.3-0.1l6.6,3.3c0.1,0.1,0.2,0.2,0.1,0.3
		s-0.1,0.2-0.2,0.2l-7.5,0.3l4,2c0.1,0.1,0.2,0.2,0.1,0.3C521,289.2,520.9,289.3,520.8,289.3L520.8,289.3z"/>
	<path class="st16" d="M500.1,297.9c-0.1,0-0.2-0.1-0.2-0.2c0-0.1,0.1-0.2,0.2-0.2l32.1-1.8c0.2,0,0.2,0.1,0.2,0.2s-0.1,0.2-0.2,0.2
		L500.1,297.9L500.1,297.9L500.1,297.9z"/>
	<path class="st16" d="M555.8,295.6c-8.4,0-19.8-0.3-21.8-0.3c-0.1,0-0.2-0.1-0.2-0.2c0-0.1,0.1-0.2,0.2-0.2
		c11.7,0.3,29.5,0.6,30.5,0c1.4-0.7,3-2.1,3-2.1c0.1-0.1,0.2-0.1,0.3,0c0.1,0.1,0.1,0.2,0,0.3c-0.1,0.1-1.7,1.4-3.1,2.2
		C564.2,295.5,560.5,295.6,555.8,295.6L555.8,295.6z"/>
	<path class="st10" d="M550.4,203.8c0,0-29.5,17.6-32.2,23.2c-2.7,5.6,1.5,51.3,1.5,51.3l23.3-2l0.8-24.4l26.1-48.1L550.4,203.8
		L550.4,203.8z"/>
	<path class="st10" d="M579.4,205.2c0,0,0.4,11.2,0.4,15.2s-9.4,15.7-9.4,15.7l-0.4,40.3H544c0,0-2-41.8-2-46
		c0.1-4.3,16.5-21.4,16.5-21.4L579.4,205.2L579.4,205.2z"/>
	<path class="st11" d="M523.3,171.2c0,0-3.3,0.6-1.7,5.2c1.6,4.6,4-1.6,4-1.6L523.3,171.2L523.3,171.2z"/>
	<path class="st18" d="M543.4,166.8l-20.9,20.9c0,0,1.2,12.1,12.9,14.1c11.7,2,16.5-12.4,16.5-12.4L543.4,166.8L543.4,166.8z"/>
	<path class="st11" d="M530.4,183.6c0,0,1.3,6.7-4.2,6.7c-5.5,0-6.1-7.8-6.1-7.8L530.4,183.6L530.4,183.6z"/>
	<path class="st18" d="M577.4,206.9c0,0,5.3-32.4-4.6-41.7s-29.4,1.6-29.4,1.6l1.4,40.8L577.4,206.9z"/>
	<path class="st11" d="M559,188.1c0,0-6.2-7.7-8.9-8.4c-2.7-0.7-8.7,1.3-8.6,2.1c0.1,0.7,5.9,1,5.9,1s-2.6,6-2.5,7.3
		c0.1,1.3,3.4,4.6,4.1,4.9c0.7,0.3,2-1.9,2-1.9s2,1.9,4.6,2.3c2.6,0.4,5-3.7,5-3.7L559,188.1L559,188.1z"/>
	<path class="st12" d="M550.6,184.6l-3.5-0.2c-0.2,0-0.3-0.1-0.3-0.3c0-0.2,0.2-0.3,0.3-0.3l3.5,0.2c0.2,0,0.3,0.1,0.3,0.3
		S550.7,184.6,550.6,184.6L550.6,184.6z"/>
	<path class="st11" d="M563.9,155.5l0.6,6.7c0,0-1,2-5,2.7c-2.9,0.5-3.8-0.4-3.8-0.4l-0.1-3.1l0.1-3.4l7-2.2L563.9,155.5
		L563.9,155.5z"/>
	<path class="st12" d="M562.7,156.4c0,0.2-0.1,0.4-0.1,0.6c-1.2,3.4-5.2,4.4-6.9,4.7l0.1-3.2L562.7,156.4L562.7,156.4z"/>
	<path class="st11" d="M553.3,144c0,0-2.7,8.4-0.9,12.8c1.7,4.4,5.8,3.2,8.1,2.1c2.4-1.1,3.4-2.8,3.4-2.8s2.4,0.5,3.7-1.8
		c1.3-2.3,0.1-4.6-1.3-5.1c-1.4-0.4-2.8,0.7-2.8,0.7l1-2.5C564.4,147.5,558,136.1,553.3,144L553.3,144z"/>
	<path class="st12" d="M554.7,154.1c0,0-0.2-0.1-0.2-0.1c-0.7-1.6,0.3-3.5,0.3-3.6c0.1-0.1,0.2-0.2,0.3-0.1c0.1,0.1,0.2,0.2,0.1,0.3
		c0,0-0.9,1.8-0.3,3.2c0.1,0.1,0,0.3-0.1,0.3C554.8,154.1,554.8,154.1,554.7,154.1L554.7,154.1z"/>
	<path class="st12" d="M564.2,153.6c0,0-0.1,0-0.1,0c-0.1-0.1-0.1-0.2,0-0.3l1.9-2.6c0.1-0.1,0.2-0.1,0.3,0c0.1,0.1,0.1,0.2,0,0.3
		l-1.9,2.6C564.4,153.5,564.2,153.6,564.2,153.6L564.2,153.6z"/>
	<path class="st12" d="M566.4,152.7l-1.5-0.1c-0.1,0-0.2-0.1-0.2-0.2c0-0.1,0.1-0.2,0.2-0.2l1.5,0.1c0.1,0,0.2,0.1,0.2,0.2
		S566.5,152.7,566.4,152.7z"/>
	<path class="st12" d="M563.4,149.9c0,0-0.8,0.6-1.5-0.2c-0.7-0.9,0.3-3.8,0.3-3.8s-2.4,0.8-4.1,0.2c-1.6-0.6-2.6-2.8-2.6-2.8
		s-0.9,2.5-4.4,1.8c-3.5-0.6-4.7-5.2-1.2-6.5c3.5-1.4,5.7,0,5.7,0s0.1-3.4,4.7-2.2c4.2,1,5.5,6.1,5.5,6.1s2.5-0.2,3.2,2.5
		c0.8,2.6-2.1,4.9-2.1,4.9S565.2,148.9,563.4,149.9L563.4,149.9z"/>
	<path class="st12" d="M558,150.7c-0.1,0-0.2-0.1-0.2-0.2v-1.5c0-0.1,0.1-0.2,0.3-0.2s0.2,0.1,0.2,0.2v1.5
		C558.2,150.6,558.1,150.7,558,150.7z"/>
	<path class="st12" d="M553.5,150.8c-0.1,0-0.2-0.1-0.2-0.2l0.1-1.5c0-0.1,0.1-0.2,0.2-0.2c0.1,0,0.2,0.1,0.2,0.2l-0.1,1.5
		C553.7,150.7,553.6,150.8,553.5,150.8z"/>
	<path class="st12" d="M559.1,147.7c0,0-0.2,0-0.2-0.1c-0.5-0.7-1.4-0.4-1.5-0.4c-0.1,0-0.2,0-0.3-0.2c0-0.1,0-0.2,0.2-0.3
		c0.1,0,1.4-0.4,2,0.5c0.1,0.1,0,0.2-0.1,0.3C559.2,147.6,559.1,147.6,559.1,147.7L559.1,147.7z"/>
	<path class="st12" d="M552.8,147.4c0,0-0.1,0-0.2-0.1c-0.1-0.1-0.1-0.2,0-0.3c0,0,0.6-0.6,1.3-0.6c0.4,0,0.6,0.2,0.9,0.5
		c0.1,0.1,0.1,0.2,0,0.3c-0.1,0.1-0.2,0.1-0.3,0c-0.2-0.2-0.3-0.3-0.6-0.3c-0.5,0-0.9,0.5-1,0.5
		C552.9,147.4,552.9,147.5,552.8,147.4L552.8,147.4z"/>
	<path class="st12" d="M556.7,156.1c-0.1,0-0.2,0-0.3,0c-0.1,0-0.2-0.1-0.2-0.3c0-0.1,0.1-0.2,0.3-0.2c1.3,0.2,1.8-1,1.8-1.1
		c0.1-0.1,0.2-0.2,0.3-0.1c0.1,0.1,0.2,0.2,0.1,0.3C558.4,155.3,557.7,156.2,556.7,156.1L556.7,156.1z"/>
	<path class="st18" d="M567.8,162.3c0,0,31.9,11.7,29.8,33.6c-1.7,18.7-40.2,7.4-40.2,7.4l-0.2-17.5l16.7-0.1L567.8,162.3
		L567.8,162.3z"/>
	<path class="st16" d="M559.8,185.5c-0.1,0-0.2-0.1-0.2-0.2c0-0.1,0.1-0.2,0.2-0.3c0.1,0,10.4-1.8,19.7-1c0.1,0,0.2,0.1,0.2,0.2
		c0,0.1-0.1,0.2-0.2,0.2C570.1,183.7,559.9,185.5,559.8,185.5L559.8,185.5L559.8,185.5z"/>
	<path class="st16" d="M570.7,184.1c0,0-0.2-0.1-0.2-0.1c0-0.1,0-0.2,0.1-0.3c0.1-0.1,3.4-3.2,5.5-3.2h0.1c0.5,0,0.9,0.2,1.2,0.5
		c0.4,0.4,0.3,0.7,0.2,0.9C577,183.4,571.4,184.1,570.7,184.1L570.7,184.1z M576.1,181c-1.5,0-3.7,1.7-4.6,2.6
		c2.3-0.3,5.4-1,5.7-1.8c0-0.1,0.1-0.2-0.2-0.4C576.8,181.1,576.5,181,576.1,181L576.1,181L576.1,181z"/>
	<path class="st16" d="M563.2,168.6c-1.7,0-4.8-2.5-5.6-3.1c-0.7,0.4-3.4,1.7-4.4,1.3c-0.2-0.1-0.3-0.2-0.3-0.4
		c-0.2-1,2.1-3.8,2.6-4.3c0.1-0.1,0.2-0.1,0.3-0.1c0.1,0,0.2,0.1,0.2,0.2l0,1.5c0,0.6,0.5,1.1,1.1,1.2c0.2,0,0.4,0,0.7,0
		c0,0,0.1,0,0.1,0c0.6,0,1.2-0.1,1.9-0.3c3.3-0.9,4.8-2.9,4.8-2.9c0.1-0.1,0.2-0.1,0.2-0.1c0.1,0,0.2,0.1,0.2,0.2
		c0.1,0.6,0.4,5.9-1.1,6.6C563.5,168.5,563.4,168.6,563.2,168.6L563.2,168.6z M558.2,165.4c1.8,1.4,4.4,3.1,5.2,2.7
		c0.9-0.4,1-3.4,0.9-5.6c-0.7,0.7-2.2,2-4.7,2.7C559.2,165.3,558.7,165.4,558.2,165.4L558.2,165.4z M555.3,162.8
		c-1,1.3-2.2,2.9-2.1,3.4c0,0,0,0,0,0.1c0.6,0.2,2.2-0.4,3.4-0.9c-0.8-0.2-1.3-0.8-1.4-1.6L555.3,162.8L555.3,162.8z"/>
	<path class="st17" d="M538.3,191.3h-10.4c-0.4,0-0.7-0.4-0.8-0.9l-2.3-21.4c-0.1-0.6,0.3-1.2,0.8-1.2h14.9c0.5,0,0.9,0.6,0.8,1.2
		l-2.3,21.4C539.1,190.9,538.7,191.3,538.3,191.3L538.3,191.3z"/>
	<path class="st17" d="M523.6,168.2c0,0,0.6-2.2,2.8-2.2c2.2,0.1,2.4,2.2,2.4,2.2s0.1-1.2,1.1-1.4c1-0.2,1.8,1.4,1.8,1.4
		s-0.5-3.3,2.6-3.3c3,0,3.3,3.3,3.3,3.3s0.9-2.2,1.8-1.4c0.9,0.8,0.7,2.6,0.7,2.6L523.6,168.2L523.6,168.2z"/>
	<path class="st3" d="M536.5,191.3h-10.4c-0.4,0-0.7-0.4-0.8-0.9L523,169c-0.1-0.6,0.3-1.2,0.8-1.2h14.9c0.5,0,0.9,0.6,0.8,1.2
		l-2.3,21.4C537.2,190.9,536.9,191.3,536.5,191.3L536.5,191.3z"/>
	<path class="st11" d="M521.6,180.3c0,0-4.8,0-3.6-2.4c1.2-2.4,9.7-4.4,10.9-1.9C530.1,178.5,521.6,180.3,521.6,180.3L521.6,180.3z"
		/>
	<path class="st11" d="M522.5,184.1c0,0-4.8,0-3.6-2.4c1.2-2.4,9.7-4.4,10.9-1.9C531.1,182.3,522.5,184.1,522.5,184.1L522.5,184.1z"
		/>
	<path class="st11" d="M525.6,187.1c-1,0.5-2.1,0.7-3.1,0.6c-1-0.1-1.8-0.5-1.5-1.6c0.7-2.2,7.8-5.3,9.2-3.3
		C531.3,184.2,527.6,186.2,525.6,187.1L525.6,187.1z"/>
	<path class="st12" d="M520.9,179.8c-0.1,0-0.2-0.1-0.2-0.2c0-0.1,0.1-0.2,0.2-0.3l5.5-1c0.1,0,0.2,0.1,0.3,0.2
		c0,0.1-0.1,0.2-0.2,0.3L520.9,179.8L520.9,179.8L520.9,179.8z"/>
	<path class="st12" d="M522.3,184c-0.1,0-0.2-0.1-0.2-0.2c0-0.1,0.1-0.2,0.2-0.3l5.5-1c0.1,0,0.2,0.1,0.3,0.2c0,0.1-0.1,0.2-0.2,0.3
		L522.3,184L522.3,184L522.3,184z"/>
	<path class="st3" d="M543.1,266.6c-0.1,0-0.2-0.1-0.2-0.2c-0.1-1.2-2.3-30-1.8-35c0.5-4.7,9.3-17.5,10.9-19.9h-6
		c-0.1,0-0.2-0.1-0.2-0.2s0.1-0.2,0.2-0.2h6.5c0,0,0.2,0.1,0.2,0.1c0,0.1,0,0.2,0,0.2c-0.1,0.2-10.6,15.1-11.1,20.1
		c-0.5,5,1.8,34.6,1.8,34.9C543.4,266.5,543.3,266.7,543.1,266.6L543.1,266.6L543.1,266.6z"/>
	<path class="st3" d="M570.4,236.4c-0.1,0-0.2-0.1-0.2-0.2c-0.2-0.9-2.1-8.6,0.5-9.3c0.4-0.1,0.7,0,0.8,0.2c1.3,1.3-0.6,8.3-0.8,9.1
		C570.6,236.3,570.5,236.4,570.4,236.4L570.4,236.4z M570.9,227.4c0,0-0.1,0-0.2,0c-1.5,0.4-0.9,5.1-0.3,7.7
		c0.7-2.9,1.4-6.9,0.7-7.7C571.1,227.4,571,227.4,570.9,227.4L570.9,227.4z"/>
	<path class="st3" d="M570.1,272.1h-20.7c-0.1,0-0.2-0.1-0.2-0.2s0.1-0.2,0.2-0.2h20.7c0.1,0,0.2,0.1,0.2,0.2
		S570.2,272.1,570.1,272.1z"/>
	<path class="st3" d="M522.6,274c-0.1,0-0.2-0.1-0.2-0.2c0-0.1,0.1-0.2,0.2-0.2l20.5-1.9c0.1,0,0.2,0.1,0.2,0.2
		c0,0.1-0.1,0.2-0.2,0.2L522.6,274L522.6,274z"/>
</g>
<path class="st1" d="M496,280.9h-36.9c-5.2,0-9.3-4.2-9.3-9.3s4.2-9.3,9.3-9.3H496c5.2,0,9.3,4.2,9.3,9.3S501.2,280.9,496,280.9z"/>
<rect x="56.1" y="289.9" class="st4" width="528.5" height="10.6"/>
<g>
	<polygon class="st21" points="399.7,269.6 398.8,281.3 417,281.3 417,269.6 	"/>
	<polygon class="st21" points="370.4,236.5 362.2,245 376.4,256.5 383.8,247.5 	"/>
	<polygon class="st20" points="395.8,242.3 395.8,273.7 421.1,273.7 425.8,230.4 405.7,228.1 	"/>
	<path class="st10" d="M365.3,236.3c0,0,18.3-22,28.7-29.9c7.3-5.6,24.1-5.1,29.5-5.5c16.1-1.3,26,4.5,26,4.5s3.9,18-6.4,22.8
		c-10.3,4.7-30.2,3.9-33.6,5.6c-3.4,1.7-24,21.9-24,21.9L365.3,236.3L365.3,236.3z"/>
	<path class="st22" d="M372.7,296.8c-0.4-0.1-0.7-0.5-0.6-0.9c0.3-2,1.5-7.5,4.7-9.9c3.9-2.9,12-4.1,14.9-6c3-1.9,6.2-6.6,8-5.7
		c1.8,0.9,5.1,5,9.9,4.4c4.8-0.6,7-1.7,8.3-0.6s2,17.4,1.5,18.4c-0.6,1-7.3,0.1-7.9,0.2c-0.6,0.2-2.2-3.7-3.4-3.1
		c-1.1,0.6-2.5,2.4-4.1,3.2C402.5,297.5,377.5,297.4,372.7,296.8L372.7,296.8z"/>
	<path class="st1" d="M332.5,244.2c-0.3-0.3-0.3-0.7,0-1.1c1.4-1.5,5.4-5.5,9.3-5.7c4.8-0.3,12.2,3.2,15.7,3.2
		c3.5,0,8.8-2.1,9.8-0.4c1,1.7,1.5,6.9,5.8,9.1s6.8,2.4,7.2,4.1s-7.9,15.7-8.9,16.1c-1,0.5-6.1-3.9-6.7-4.2
		c-0.6-0.2,0.2-4.3-1.1-4.5c-1.2-0.1-3.4,0.6-5.2,0.5C356.9,261.2,336.2,247.4,332.5,244.2L332.5,244.2z"/>
	<path class="st23" d="M396.6,245.2c0,0-0.1,0-0.2-0.1c-0.1-0.1-0.1-0.2,0-0.4c0.4-0.4,9.8-10.6,13-11.3c3.1-0.7,15.7-1.8,16.3-1.9
		c0.2,0,0.3,0.1,0.3,0.2s-0.1,0.3-0.2,0.3c-0.1,0-13.1,1.2-16.2,1.8c-3.1,0.7-12.7,11.1-12.8,11.2
		C396.7,245.2,396.6,245.2,396.6,245.2L396.6,245.2z"/>
	<path class="st23" d="M409.5,234c0,0-0.2,0-0.2-0.1c-0.3-0.5-3.3-5.2-1.7-6.3c0.3-0.2,0.6-0.2,0.7-0.1c1.1,0.6,1.4,5.3,1.4,6.2
		C409.7,233.8,409.6,233.9,409.5,234C409.5,234,409.5,234,409.5,234L409.5,234z M408,228c0,0-0.1,0-0.2,0.1
		c-0.8,0.5,0.2,2.9,1.3,4.8C409,230.7,408.6,228.3,408,228C408.1,228,408.1,228,408,228L408,228z"/>
	<path class="st23" d="M391.4,250.1c0,0-0.1,0-0.2-0.1l-14.9-14.9c-0.1-0.1-0.1-0.2,0-0.4c0.1-0.1,0.2-0.1,0.4,0l14.9,14.9
		c0.1,0.1,0.1,0.2,0,0.4C391.6,250.1,391.5,250.1,391.4,250.1L391.4,250.1z"/>
	<path class="st23" d="M421.1,267.7h-18c-0.1,0-0.2-0.1-0.2-0.2c0-0.1,0.1-0.2,0.2-0.2h18c0.1,0,0.2,0.1,0.2,0.2
		C421.4,267.6,421.3,267.7,421.1,267.7z"/>
	<g>
		<path class="st7" d="M421.3,164.6c0,0-26.1,14.7-20.9,31c5.2,16.4,25.2,12.1,25.2,12.1L421.3,164.6L421.3,164.6z"/>
		<path class="st7" d="M431.4,160.9c0,0-6.4-4.3-16,11.5c-6,9.9,4.1,32.3,4.1,32.3l20.6-34.5l2.8-8.4L431.4,160.9L431.4,160.9z"/>
		<path class="st7" d="M431.3,162.5c0,0-8.2,3-10.8,16.4c-3.3,16.7-4.3,24.9-4.3,24.9s8.3,4.4,18.7,4.4s14.5-0.4,14.5-0.4l-9.2-47.9
			L431.3,162.5L431.3,162.5z"/>
		<path class="st12" d="M427.4,152c0,0-0.5-5.6-0.2-9.6c0.2-2.7,5-4.4,5-4.4s9.1,0,10.5,2.8c1.3,2.8,0.5,7.1,0.5,7.1L427.4,152
			L427.4,152z"/>
		<path class="st24" d="M439.8,154.4l0.3,6.6c0,0-1.1,2-5,2.5c-2.9,0.4-3.8-1-3.8-1l0.4-5.8l6.9-1.9L439.8,154.4L439.8,154.4z"/>
		<path class="st12" d="M439.8,154c0,0.2-0.1,0.4-0.2,0.6c-1.3,3.4-6.4,5-8.1,5.2l0.2-3.3L439.8,154L439.8,154z"/>
		<path class="st25" d="M429.5,141.6c0,0-3,8.5-1.4,13c1.6,4.5,5.7,3.5,8.2,2.5c2.5-1.1,3.5-2.7,3.5-2.7s2.4,0.6,3.8-1.7
			c1.4-2.3,0.3-4.7-1.1-5.2c-1.4-0.5-2.9,0.6-2.9,0.6l1.1-2.5C440.7,145.7,434.6,133.9,429.5,141.6L429.5,141.6z"/>
		<path class="st12" d="M439.6,148.1c0,0-3.5,1-6.2-2.8c-2.8-3.8-2.6-5.4-2.6-5.4l-2.1,4.2c0,0-0.8-2.8,0.2-4.6
			c1-1.9,2.2-1.6,2.2-1.6l7.9,1.4l2.5,6.1L439.6,148.1L439.6,148.1z"/>
		<path class="st12" d="M430.5,152.1c-0.6-0.1-1-0.4-1.2-0.8c-0.5-1.2,0.9-3.2,1-3.4c0.1-0.1,0.2-0.1,0.3-0.1
			c0.1,0.1,0.1,0.2,0.1,0.3c-0.4,0.6-1.3,2.1-1,3c0.1,0.3,0.4,0.4,0.7,0.5c0.1,0,0.2,0.2,0.2,0.3C430.7,152,430.6,152.1,430.5,152.1
			L430.5,152.1z"/>
		<path class="st12" d="M440.2,152c0,0-0.1,0-0.2-0.1c-0.1-0.1-0.1-0.2,0-0.3l2.1-2.5c0.1-0.1,0.2-0.1,0.4,0c0.1,0.1,0.1,0.2,0,0.3
			l-2.1,2.5C440.4,151.9,440.3,152,440.2,152L440.2,152z"/>
		<path class="st12" d="M442.5,151.2L441,151c-0.1,0-0.2-0.1-0.2-0.3c0-0.1,0.1-0.2,0.3-0.2l1.6,0.1c0.1,0,0.2,0.1,0.2,0.3
			C442.8,151.1,442.7,151.2,442.5,151.2z"/>
		<path class="st12" d="M428.4,145.5c-0.1,0-0.2-0.1-0.2-0.2c0-0.1,0-0.3,0.2-0.3l1.4-0.4c0.1,0,0.3,0,0.3,0.2c0,0.1,0,0.3-0.2,0.3
			L428.4,145.5C428.5,145.5,428.5,145.5,428.4,145.5z"/>
		<path class="st12" d="M434.6,146C434.6,146,434.5,146,434.6,146l-2.6-1c-0.1-0.1-0.2-0.2-0.1-0.3c0.1-0.1,0.2-0.2,0.3-0.1l2.5,1
			c0.1,0.1,0.2,0.2,0.1,0.3C434.8,145.9,434.7,146,434.6,146L434.6,146z"/>
		<path class="st12" d="M428.7,148.8C428.7,148.8,428.7,148.8,428.7,148.8c-0.2,0-0.3-0.2-0.2-0.3l0.3-1.4l-0.4-0.4
			c-0.1-0.1-0.1-0.3,0-0.4s0.3-0.1,0.4,0l0.5,0.5c0,0,0.1,0.2,0.1,0.2l-0.3,1.5C428.9,148.7,428.8,148.8,428.7,148.8L428.7,148.8z"
			/>
		<path class="st12" d="M433.2,148.9C433.2,148.9,433.2,148.9,433.2,148.9c-0.2,0-0.3-0.2-0.2-0.3l0.3-1.4l-0.6-0.6
			c-0.1-0.1-0.1-0.2,0-0.4c0.1-0.1,0.2-0.1,0.4,0l0.7,0.7c0,0,0.1,0.2,0.1,0.2l-0.3,1.5C433.4,148.8,433.3,148.9,433.2,148.9
			L433.2,148.9z"/>
		<path class="st7" d="M440.3,159.9c0,0,10.3-0.2,21.5,12.9c11.2,13,6.9,24.6-6.2,30.6c-13.1,5.9-26.8,7.4-26.8,7.4l-2.7-18.7
			l11.7-3.9C437.8,188.1,435.9,166.9,440.3,159.9z"/>
		<path class="st21" d="M420.1,193c0,0-7.5,0-6.2,2.1c1.3,2.1,7.4,0.8,7.4,0.8l3.7-0.9C425,195,420.1,193,420.1,193z"/>
		<path class="st25" d="M428,194.9c0,0-3.5-1.5-5.2-1.8c-1.6-0.3-2.7-0.1-2.7-0.1l-0.3,2.5c0,0-5.3,1.7-8.9,3.9
			c-3.6,2.2-2.8,3.9-2.8,3.9s-2.3,1.8-1.1,2.7s5-0.4,5-0.4s-4.8,2.3-2.6,3.3c2.2,0.9,6.7,0.2,6.7,0.2s10,0.8,13-2.9
			S428,194.9,428,194.9L428,194.9z"/>
		<path class="st12" d="M408.4,203.2c-0.1,0-0.2-0.1-0.3-0.2c-0.1-0.2,0-0.3,0.2-0.4l7.5-2.9c0.2-0.1,0.3,0,0.4,0.2
			c0.1,0.2,0,0.3-0.2,0.4l-7.5,2.9C408.5,203.2,408.4,203.2,408.4,203.2z"/>
		<path class="st12" d="M411.5,205.9c-0.1,0-0.2-0.1-0.3-0.2c-0.1-0.2,0-0.3,0.2-0.4l4.7-1.8c0.2-0.1,0.3,0,0.4,0.2
			c0.1,0.2,0,0.3-0.2,0.4l-4.7,1.8C411.6,205.9,411.5,205.9,411.5,205.9z"/>
		<path class="st7" d="M447.2,183.1l-21.3,6.9l1.9,20.9c0,0,25.2-3,34-11.3c8.8-8.2-5-17.6-5-17.6L447.2,183.1L447.2,183.1z"/>
		<path class="st3" d="M447.5,185.3c-1.4,0-3-0.2-4.4-0.7c-0.1,0-0.2-0.1-0.2-0.2c0-0.1,0-0.2,0.1-0.2c0.2-0.1,5.1-3.2,9.1-2
			c0.8,0.2,1.2,0.5,1.3,0.9c0,0.2,0,0.5-0.4,0.9C452.2,184.6,450,185.3,447.5,185.3L447.5,185.3z M443.8,184.3
			c3.7,1.1,7.9,0.2,8.9-0.8c0.1-0.1,0.2-0.2,0.2-0.4c0-0.1-0.1-0.3-1-0.6C448.9,181.6,445.1,183.5,443.8,184.3L443.8,184.3z"/>
		<path class="st3" d="M434.5,163.9c-1.2,0-2.4-0.3-3.4-1.3c-0.1-0.1-0.1-0.3,0-0.4c0.1-0.1,0.3-0.1,0.4,0c2.4,2.6,7.7-0.1,7.7-0.1
			c0.1-0.1,0.3,0,0.3,0.1c0.1,0.1,0,0.3-0.1,0.3C439.3,162.7,436.9,163.9,434.5,163.9L434.5,163.9z"/>
		<path class="st17" d="M427.4,141.5c0,0,4.1-4.6,9.5,1.5c5.4,6.1,2.4,10.3,2.4,10.3s-2.8,6.2-8.9,4.2c-4.1-1.4-3.3-15.3-3.3-15.3
			s-3.4,11.3-0.1,18.8c3.4,7.4,11.2,6.4,14.8,5c3.7-1.5,5.6-4.6,5.6-4.6l-2.1-2.2c0,0,2.6-15.2-2.2-20.1
			C438.2,134.2,429.2,134.9,427.4,141.5L427.4,141.5z"/>
		<path class="st12" d="M431.8,154.3c-0.2,0-0.4,0-0.6-0.1c-0.1,0-0.2-0.2-0.2-0.3c0-0.1,0.2-0.2,0.3-0.2c1,0.3,1.6-0.6,1.6-0.6
			c0.1-0.1,0.2-0.2,0.3-0.1c0.1,0.1,0.2,0.2,0.1,0.3C433.1,153.8,432.6,154.3,431.8,154.3L431.8,154.3z"/>
		<path class="st17" d="M427.2,159.1l-3.3,3.2c0,0,1.7,4.1,8.6,4.1C439.5,166.4,427.2,159.1,427.2,159.1L427.2,159.1z"/>
		<path class="st3" d="M432,166.2C432,166.2,432,166.2,432,166.2c-0.2-0.1-3.8-1.4-5.2-5c-0.1-0.1,0-0.3,0.1-0.3
			c0.1-0.1,0.3,0,0.3,0.1c1.3,3.3,4.8,4.6,4.8,4.7c0.1,0.1,0.2,0.2,0.2,0.3C432.2,166.1,432.1,166.2,432,166.2L432,166.2z"/>
		<path class="st3" d="M432.8,164.2c-1.3,0-2.7-0.1-4.2-0.4c-0.1,0-0.2-0.2-0.2-0.3c0-0.1,0.2-0.2,0.3-0.2c10.1,2,16.4-4.1,16.5-4.2
			c0.1-0.1,0.2-0.1,0.4,0c0.1,0.1,0.1,0.2,0,0.3C445.5,159.6,440.7,164.2,432.8,164.2L432.8,164.2z"/>
		<path class="st3" d="M430.4,164c-0.6,0-1.1,0-1.7-0.2c-0.1,0-0.2-0.2-0.2-0.3c0-0.1,0.2-0.2,0.3-0.2c8.5,1.5,16.2-9.2,16.2-9.3
			c0.1-0.1,0.2-0.1,0.3-0.1c0.1,0.1,0.1,0.2,0.1,0.3C445.3,154.4,438.4,164,430.4,164L430.4,164z"/>
		<path class="st3" d="M420.1,191.1c0,0-0.2-0.1-0.2-0.1c-5-9.4,2.1-18.6,2.1-18.7c0.1-0.1,0.2-0.1,0.3,0c0.1,0.1,0.1,0.2,0,0.3
			c-0.1,0.1-6.9,9.1-2.1,18.2c0.1,0.1,0,0.3-0.1,0.3C420.2,191.1,420.1,191.1,420.1,191.1z"/>
		<path class="st3" d="M434.3,188.5c-0.1,0-0.2-0.1-0.2-0.2c-0.1-0.1,0-0.3,0.1-0.3l8.9-3.9c0.1-0.1,0.3,0,0.3,0.1
			c0.1,0.1,0,0.3-0.1,0.3L434.3,188.5C434.4,188.5,434.3,188.5,434.3,188.5z"/>
		<path class="st25" d="M407.9,189.2c0,0,0.4-0.1,1.9-0.2c1.4-0.2,6.2,1.3,6.2,1.3s4.1,1.6,7.3,3.8c3.2,2.2,2.4,3.6,2.4,3.6
			s2,1.7,0.9,2.5c-1.1,0.8-4.5-0.6-4.5-0.6s4.3,2.3,2.3,3.1c-2,0.8-7.4-2.4-7.4-2.4s-9.5,2-12.1-1.5
			C402.3,195.2,407.9,189.2,407.9,189.2L407.9,189.2z"/>
		<path class="st12" d="M425.6,197.9c0,0-0.1,0-0.2-0.1c0,0-2.6-2.4-6.1-4.3c-0.1-0.1-0.2-0.2-0.1-0.3c0.1-0.1,0.2-0.2,0.3-0.1
			c3.6,2,6.2,4.4,6.2,4.4c0.1,0.1,0.1,0.2,0,0.3C425.7,197.8,425.6,197.9,425.6,197.9z"/>
		<path class="st12" d="M422.4,199.7c0,0-0.1,0-0.2-0.1c0,0-2.1-2.2-4.3-2.9c-0.1,0-0.2-0.2-0.2-0.3c0-0.1,0.2-0.2,0.3-0.2
			c2.3,0.7,4.4,3,4.5,3c0.1,0.1,0.1,0.2,0,0.3C422.6,199.7,422.5,199.7,422.4,199.7L422.4,199.7z"/>
	</g>
</g>
<path class="st19" d="M582.7,284.5h3.9c3.5,0,6.3,2.8,6.3,6.3v59.6c0,3.5-2.8,6.3-6.3,6.3h-3.9c-3.5,0-6.3-2.8-6.3-6.3v-59.6
	C576.4,287.3,579.2,284.5,582.7,284.5z"/>
<path class="st1" d="M487.5,219.9h-36.9c-5.2,0-9.3-4.2-9.3-9.3s4.2-9.3,9.3-9.3h36.9c5.2,0,9.3,4.2,9.3,9.3
	S492.6,219.9,487.5,219.9z"/>
<path class="st19" d="M48.4,284.5h3.9c3.5,0,6.3,2.8,6.3,6.3v59.6c0,3.5-2.8,6.3-6.3,6.3h-3.9c-3.5,0-6.3-2.8-6.3-6.3v-59.6
	C42.1,287.3,44.9,284.5,48.4,284.5z"/>
<path class="st1" d="M515.9,212.4h17.8c16.1,0,29.1,13,29.1,29.1v42.9h-76.1v-42.9C486.8,225.5,499.8,212.4,515.9,212.4z"/>
<path class="st1" d="M489.2,279.1h71.3c5.5,0,10,4.5,10,10v6.1c0,5.5-4.5,10-10,10h-71.3c-5.5,0-10-4.5-10-10V289
	C479.2,283.5,483.7,279.1,489.2,279.1z"/>
<path class="st4" d="M497.3,212.4h17.8c16.1,0,29.1,13,29.1,29.1v42.9h-76.1v-42.9C468.2,225.5,481.2,212.4,497.3,212.4z"/>
<path class="st4" d="M470.6,279.1h71.3c5.5,0,10,4.5,10,10v6.1c0,5.5-4.5,10-10,10h-71.3c-5.5,0-10-4.5-10-10V289
	C460.6,283.5,465.1,279.1,470.6,279.1z"/>
<path class="st1" d="M365.7,280.9h-36.9c-5.2,0-9.3-4.2-9.3-9.3s4.2-9.3,9.3-9.3h36.9c5.2,0,9.3,4.2,9.3,9.3
	S370.8,280.9,365.7,280.9z"/>
<path class="st1" d="M385.6,212.4h17.8c16.1,0,29.1,13,29.1,29.1v42.9h-76.1v-42.9C356.5,225.5,369.5,212.4,385.6,212.4L385.6,212.4
	z"/>
<path class="st1" d="M358.9,279.1h71.3c5.5,0,10,4.5,10,10v6.1c0,5.5-4.5,10-10,10h-71.3c-5.5,0-10-4.5-10-10V289
	C348.9,283.5,353.3,279.1,358.9,279.1z"/>
<g>
	<path class="st9" d="M245.3,268.5c0,0-5.8,6.9-7.1,7.5s-15.4,5.4-18.1,8c-2.7,2.6-2.9,7.8-2.1,8.3c0.8,0.5,47,0,47,0l0.5-22.3
		L245.3,268.5L245.3,268.5z"/>
	<path class="st3" d="M240.6,273.2c0,0,6.5,7.4,5,8c-1.5,0.6-13.9-1.3-13.6-2.6S239.1,273.1,240.6,273.2z"/>
	<path class="st17" d="M294,262c0,0-3.7,8.2-4.8,9.2c-1.1,1-13.3,9.5-15.1,12.8c-1.8,3.3-0.6,8.3,0.3,8.6
		c0.9,0.2,45.1-13.2,45.1-13.2l-8.1-24.6L294,262L294,262z"/>
	<path class="st3" d="M290.8,267.8c0,0,8.3,5.3,7,6.3c-1.2,1-13.7,2.6-13.8,1.3C284,274,289.4,268.1,290.8,267.8L290.8,267.8z"/>
	<path class="st11" d="M271.5,169.3c0,0-1.2-6.5-5.1-5.5c-1.8,0.5,1.2,4,1.2,4l-5.2-2c0,0-5.9-1.6-7.1-1.1c-1.2,0.5,0.8,2.4,0.8,2.4
		s-4.2-1.3-3.6,0.8c0.6,2,3.5,3.2,3.5,3.2s-4.1-1.4-3.2,1c0.5,1.3,9.5,6.8,15.6,6.5c6.1-0.2,4.1-5,4.1-5L271.5,169.3L271.5,169.3z"
		/>
	<path class="st12" d="M258.3,172.4c0,0-0.1,0-0.2-0.1c-0.1-0.1-0.1-0.2,0-0.3l5.2-4.5c0,0,0.2-0.1,0.3,0c0.1,0.1,0.1,0.2,0,0.3
		l-5.2,4.5C258.5,172.4,258.4,172.4,258.3,172.4z"/>
	<path class="st12" d="M269.3,175c0,0-1.8-0.2-2.7-1.6c-0.7-1.2-0.5-2.9,0.6-5c0.1-0.1,0.2-0.2,0.3-0.1s0.2,0.2,0.1,0.3
		c-1,2-1.2,3.5-0.6,4.6c0.7,1.2,2.3,1.4,2.3,1.4c0.1,0,0.2,0.1,0.2,0.2C269.5,174.9,269.4,175,269.3,175L269.3,175z"/>
	<path class="st17" d="M272.9,168.8l-7.1,10.7c0,0,11.8,17.5,29.5,11.2c15.5-5.5,2.5-24.8,2.5-24.8s-7,3.4-13.5,5.6
		C279.8,172.9,272.9,168.8,272.9,168.8L272.9,168.8z"/>
	<polygon class="st18" points="295.5,215.4 314.9,258.1 286.5,268.6 272.1,241.2 281,216.6 	"/>
	<path class="st18" d="M323.3,202.4c0,0,1.7,20.4-3,23c-4.7,2.6-36.5,6.6-38.2,8.2c-1.8,1.6-12.4,38.2-12.4,38.2l-28.8-3
		c0,0,9.3-51.5,16.8-57.1c5.7-4.2,37.2-9.3,37.2-9.3L323.3,202.4L323.3,202.4z"/>
	<path class="st17" d="M278.2,244.3c0,0-0.1,0-0.1,0c-0.2-0.1-0.2-0.2-0.2-0.4c0.2-0.4,4.2-10.5,5.7-12.3c1.5-1.8,17.6-3.6,19.4-3.8
		c0.2,0,0.3,0.1,0.3,0.3c0,0.2-0.1,0.3-0.3,0.3c-7.1,0.8-18,2.5-19,3.6c-1.4,1.7-5.6,12-5.6,12.1
		C278.4,244.3,278.3,244.4,278.2,244.3L278.2,244.3z"/>
	<path class="st9" d="M284.4,231.1c0,0-0.1,0-0.2,0c-0.2-0.2-5.8-3.6-6.3-6.4c-0.1-0.6,0-1.2,0.4-1.7c0.4-0.6,0.9-0.6,1.2-0.6
		c2.2,0.4,4.9,7.4,5.1,8.3c0,0.1,0,0.2-0.1,0.3C284.5,231.1,284.5,231.1,284.4,231.1L284.4,231.1z M279.3,223
		c-0.2,0-0.4,0.1-0.6,0.3c-0.3,0.3-0.4,0.7-0.3,1.2c0.4,2,3.8,4.5,5.3,5.5C282.8,227.6,280.9,223.2,279.3,223
		C279.4,223,279.3,223,279.3,223L279.3,223z"/>
	<path class="st12" d="M307.3,148.9c0,0,7.3-5.6,13.4-1.8c6.2,3.8,3.8,11.8,3.8,11.8s7.7,2.1,8.8,11.9c1.1,9.8-8.2,11.6-8.2,11.6
		l-16-9.5L307.3,148.9L307.3,148.9z"/>
	<path class="st17" d="M287.6,199.8l0.1,4.5c0,0,11.5,2.3,20.8,1.4c9.3-0.9,12.8-2.6,12.8-2.6l3.4-22.9l-14.5-16.8l-9.5,2.7
		L287.6,199.8L287.6,199.8z"/>
	<path class="st12" d="M297.6,153c0,0-2.4-2.5-1.8-6.5c0.4-2.7,1.6-3.6,1.6-3.6s-1.9-3.6,3.5-3.6c5.5,0.1,8.7,2.7,8.7,2.7
		s2.6-0.7,4.8,1.5c2.5,2.5,1.4,7,1.4,7L297.6,153L297.6,153z"/>
	<path class="st6" d="M309.7,157.1v6.7c0,0-1.2,1.9-5.1,2.2c-2.9,0.2-3.8-1.3-3.8-1.3l0.7-5.8l7-1.6L309.7,157.1z"/>
	<path class="st12" d="M309.7,156.7c0,0.2-0.1,0.4-0.2,0.6c-1.5,3.3-6.7,4.7-8.4,4.9l0.4-3.3C301.5,159,309.7,156.7,309.7,156.7z"/>
	<path class="st11" d="M300,143.8c0,0-3.5,8.4-2.1,13c1.4,4.6,5.6,3.8,8.1,2.9s3.7-2.5,3.7-2.5s2.4,0.8,3.9-1.5
		c1.6-2.2,0.5-4.8-0.8-5.3c-1.4-0.6-3,0.4-3,0.4l1.2-2.4C311,148.4,305.5,136.2,300,143.8L300,143.8z"/>
	<path class="st12" d="M309.9,150.8c0,0-3.6,0.8-6.1-3.1c-2.6-3.9-2.4-5.5-2.4-5.5l-2.4,4.2c0,0-0.6-2.8,0.5-4.7
		c1.1-1.8,2.3-1.5,2.3-1.5l7.9,1.8l2.2,6.3L309.9,150.8L309.9,150.8z"/>
	<path class="st12" d="M300.5,154.3c-0.1,0-0.2-0.1-0.2-0.2c-0.6-1.8,0.6-3.6,0.7-3.7c0.1-0.1,0.2-0.2,0.4-0.1
		c0.1,0.1,0.2,0.2,0.1,0.4c0,0-1.1,1.7-0.6,3.2C300.8,154.1,300.8,154.3,300.5,154.3C300.6,154.3,300.6,154.3,300.5,154.3
		L300.5,154.3z"/>
	<path class="st12" d="M310.3,154.7c0,0-0.1,0-0.2-0.1c-0.1-0.1-0.1-0.2,0-0.4l2.2-2.4c0.1-0.1,0.2-0.1,0.4,0c0.1,0.1,0.1,0.2,0,0.4
		l-2.2,2.4C310.5,154.6,310.4,154.7,310.3,154.7L310.3,154.7z"/>
	<path class="st12" d="M312.7,154l-1.6-0.2c-0.1,0-0.2-0.2-0.2-0.3c0-0.1,0.1-0.2,0.3-0.2l1.6,0.2c0.1,0,0.2,0.2,0.2,0.3
		C312.9,153.9,312.8,154,312.7,154z"/>
	<path class="st12" d="M303.6,156.7c-0.6,0-1.3-0.2-1.4-0.3c-0.1,0-0.2-0.1-0.2-0.2c0-0.1,0-0.2,0.1-0.2l2.2-1.8
		c0,0,0.1-0.1,0.2-0.1c0.1,0,0.1,0.1,0.2,0.1c0,0.1,0.7,1.3,0,2C304.4,156.6,304,156.7,303.6,156.7L303.6,156.7z M302.8,156
		c0.5,0.1,1.2,0.2,1.5-0.1c0.3-0.3,0.2-0.9,0.1-1.2L302.8,156L302.8,156z"/>
	<path class="st12" d="M298.8,147.6c-0.1,0-0.2-0.1-0.2-0.2c0-0.1,0.1-0.3,0.2-0.3l1.5-0.3c0.2,0,0.3,0.1,0.3,0.2
		c0,0.1-0.1,0.3-0.2,0.3L298.8,147.6C298.8,147.6,298.8,147.6,298.8,147.6z"/>
	<path class="st12" d="M304.9,148.4c0,0-0.1,0-0.1,0l-2.5-1.2c-0.1-0.1-0.2-0.2-0.1-0.3c0.1-0.1,0.2-0.2,0.3-0.1l2.5,1.2
		c0.1,0.1,0.2,0.2,0.1,0.3C305.1,148.3,305,148.4,304.9,148.4L304.9,148.4z"/>
	<path class="st12" d="M298.9,151C298.9,151,298.8,151,298.9,151c-0.2,0-0.3-0.2-0.2-0.3l0.4-1.4l-0.4-0.4c-0.1-0.1-0.1-0.3,0-0.4
		c0.1-0.1,0.3-0.1,0.4,0l0.5,0.6c0,0,0.1,0.2,0.1,0.2l-0.4,1.5C299.1,150.9,299,151,298.9,151z"/>
	<path class="st12" d="M303.1,151.2C303.1,151.2,303,151.2,303.1,151.2c-0.2,0-0.3-0.2-0.2-0.3l0.4-1.4l-0.6-0.6
		c-0.1-0.1-0.1-0.3,0-0.4c0.1-0.1,0.3-0.1,0.4,0l0.6,0.7c0,0,0.1,0.2,0.1,0.2l-0.4,1.5C303.3,151.2,303.2,151.2,303.1,151.2
		L303.1,151.2z"/>
	<path class="st17" d="M300.6,166c0,0-0.5-3.6,0.5-3.7c1-0.2,2.1,0.5,4.4,0.1c2.3-0.4,3.5-1.2,4.2-1.2c0.7,0,0.2,4.4,0.2,4.4
		l-5.7,1.9L300.6,166L300.6,166z"/>
	<path class="st17" d="M299.5,181.4l1.3-16.6c0,0-10.9-0.8-10.9,29C289.9,205.2,299.5,181.4,299.5,181.4L299.5,181.4z"/>
	<path class="st11" d="M303.2,197.8c0,0-11.2-3.2-12.8-2.7c-1.6,0.5-7.9,5.6-7.5,6.9c0.4,1.3,1.8,0.9,1.8,0.9s-1.4,0.9-0.8,1.8
		c0.5,0.9,2.2,0.5,2.2,0.5s-1.1,0.7,0.3,1.3c1.5,0.6,5.4-0.9,5.4-0.9s2.4,2,6.4,1.8c4-0.2,5.2-1.2,5.2-1.2L303.2,197.8L303.2,197.8z
		"/>
	<path class="st17" d="M309.3,163.3c0,0,16.2,0.2,24.7,13c8.5,12.9,6.1,21.1-5.9,26.6c-11.8,5.4-26.1,5.2-26.1,5.2l0.7-14.6
		l10.8-6.3l6.2-8L309.3,163.3L309.3,163.3z"/>
	<path class="st3" d="M309.5,189.5c0,0-0.2-0.1-0.2-0.2c-0.1-0.1,0-0.3,0.1-0.3c0.1,0,8.2-3.9,13.2-5.2c0.1,0,0.3,0.1,0.3,0.2
		c0,0.1,0,0.3-0.2,0.3C317.8,185.6,309.7,189.4,309.5,189.5C309.6,189.4,309.5,189.5,309.5,189.5L309.5,189.5z"/>
	<path class="st3" d="M316.4,186.5c0,0-0.1,0-0.2-0.1c-0.1-0.1-0.1-0.2-0.1-0.3c0.2-0.6,2.5-5.6,4.5-5.1c0.4,0.1,0.5,0.3,0.5,0.5
		c0.2,1.2-3.5,4.1-4.7,5C316.5,186.5,316.5,186.5,316.4,186.5L316.4,186.5z M320.4,181.5c-1,0-2.4,2.1-3.3,3.9
		c1.9-1.5,3.7-3.3,3.6-3.8c0,0-0.1-0.1-0.2-0.1C320.5,181.5,320.5,181.5,320.4,181.5z"/>
	<path class="st3" d="M305.5,164.7c-0.1,0-0.2-0.1-0.2-0.2s0.1-0.3,0.2-0.3c1-0.1,4.2-0.6,4.2-0.6c0.2,0,0.3,0.1,0.3,0.2
		c0,0.1-0.1,0.3-0.2,0.3C309.7,164.1,306.6,164.6,305.5,164.7L305.5,164.7L305.5,164.7z"/>
	<path class="st12" d="M284.8,203.1c0,0-0.2,0-0.2-0.1c-0.1-0.1-0.1-0.3,0.1-0.4l4.7-3.6c0.1-0.1,0.3-0.1,0.4,0.1
		c0.1,0.1,0.1,0.3-0.1,0.4l-4.7,3.6C284.9,203.1,284.8,203.2,284.8,203.1L284.8,203.1z"/>
	<path class="st12" d="M286.1,205.4c0,0-0.2,0-0.2-0.1c-0.1-0.1-0.1-0.3,0-0.4l4.7-3.6c0.1-0.1,0.3-0.1,0.4,0c0.1,0.1,0.1,0.3,0,0.4
		l-4.7,3.6C286.2,205.4,286.1,205.4,286.1,205.4z"/>
	<path class="st3" d="M291.1,185.5c-0.1,0-0.2-0.1-0.2-0.2c-1.2-5.9,1.9-12.6,2.1-12.9c0.1-0.1,0.2-0.2,0.3-0.1
		c0.1,0.1,0.2,0.2,0.1,0.3c0,0.1-3.2,6.8-2,12.6C291.4,185.3,291.3,185.4,291.1,185.5C291.2,185.5,291.2,185.5,291.1,185.5
		L291.1,185.5z"/>
</g>
<path class="st1" d="M617.8,219.9h-36.9c-5.2,0-9.3-4.2-9.3-9.3s4.2-9.3,9.3-9.3h36.9c5.2,0,9.3,4.2,9.3,9.3S623,219.9,617.8,219.9z
	"/>
<path class="st1" d="M227.2,219.9h-36.9c-5.2,0-9.3-4.2-9.3-9.3s4.2-9.3,9.3-9.3h36.9c5.2,0,9.3,4.2,9.3,9.3
	S232.4,219.9,227.2,219.9z"/>
<path class="st1" d="M357.6,219.9h-36.9c-5.2,0-9.3-4.2-9.3-9.3s4.2-9.3,9.3-9.3h36.9c5.2,0,9.3,4.2,9.3,9.3
	S362.8,219.9,357.6,219.9z"/>
<path class="st4" d="M366.9,212.4h17.8c16.1,0,29.1,13,29.1,29.1v42.9h-76.1v-42.9C337.8,225.5,350.9,212.4,366.9,212.4L366.9,212.4
	z"/>
<path class="st4" d="M340.2,279.1h71.3c5.5,0,10,4.5,10,10v6.1c0,5.5-4.5,10-10,10h-71.3c-5.5,0-10-4.5-10-10V289
	C330.3,283.5,334.7,279.1,340.2,279.1z"/>
<path class="st1" d="M235.8,280.9h-36.9c-5.2,0-9.3-4.2-9.3-9.3s4.2-9.3,9.3-9.3h36.9c5.2,0,9.3,4.2,9.3,9.3S241,280.9,235.8,280.9z
	"/>
<path class="st1" d="M255.7,212.4h17.8c16.1,0,29.1,13,29.1,29.1v42.9h-76.1v-42.9C226.6,225.5,239.7,212.4,255.7,212.4L255.7,212.4
	z"/>
<path class="st1" d="M229,279.1h71.3c5.5,0,10,4.5,10,10v6.1c0,5.5-4.5,10-10,10H229c-5.5,0-10-4.5-10-10V289
	C219,283.5,223.5,279.1,229,279.1z"/>
<path class="st4" d="M237.1,212.4H255c16.1,0,29.1,13,29.1,29.1v42.9H208v-42.9C208,225.5,221,212.4,237.1,212.4z"/>
<path class="st4" d="M210.4,279.1h71.3c5.5,0,10,4.5,10,10v6.1c0,5.5-4.5,10-10,10h-71.3c-5.5,0-10-4.5-10-10V289
	C200.4,283.5,204.9,279.1,210.4,279.1z"/>
<path class="st1" d="M307.6,280.9h-36.9c-5.2,0-9.3-4.2-9.3-9.3s4.2-9.3,9.3-9.3h36.9c5.2,0,9.3,4.2,9.3,9.3
	S312.8,280.9,307.6,280.9z"/>
<path class="st1" d="M105.4,280.9H68.5c-5.2,0-9.3-4.2-9.3-9.3s4.2-9.3,9.3-9.3h36.9c5.2,0,9.3,4.2,9.3,9.3S110.5,280.9,105.4,280.9
	z"/>
<path class="st1" d="M125.3,212.4h17.8c16.1,0,29.1,13,29.1,29.1v42.9H96.2v-42.9C96.2,225.5,109.2,212.4,125.3,212.4z"/>
<path class="st1" d="M98.6,279.1h71.3c5.5,0,10,4.5,10,10v6.1c0,5.5-4.5,10-10,10H98.6c-5.5,0-10-4.5-10-10V289
	C88.6,283.5,93.1,279.1,98.6,279.1z"/>
<path class="st4" d="M106.7,212.4h17.8c16.1,0,29.1,13,29.1,29.1v42.9h-76v-42.9C77.6,225.5,90.6,212.4,106.7,212.4L106.7,212.4z"/>
<path class="st4" d="M80,279.1h71.3c5.5,0,10,4.5,10,10v6.1c0,5.5-4.5,10-10,10H80c-5.5,0-10-4.5-10-10V289
	C70,283.5,74.5,279.1,80,279.1z"/>
<g>
	<polygon class="st11" points="108.4,326.1 108.4,339.7 118.8,343.6 125.4,336.3 126.4,323.7 	"/>
	<polygon class="st11" points="89,323.2 89,336.9 100,340.8 107,333.5 108.2,320.8 	"/>
	<path class="st17" d="M111.6,260c0,0-24.6,13.4-27.9,18.8s-1.5,49.4-1.5,49.4l23.5,0.3l3.3-24.7l17.9-41.5L111.6,260L111.6,260z"/>
	<path class="st17" d="M144.1,258.9c0,0,0.7,15.7,0.4,19.6s-12.6,13-12.6,13l-0.6,37.9l-27.2,1.2c0,0-0.6-43.3-0.1-47.4
		c0.5-4.1,18.7-23.3,18.7-23.3L144.1,258.9L144.1,258.9z"/>
	<path class="st18" d="M110,352.3c0,0-0.5-22-3.9-21.5s-6.8,3.7-6.8,3.7s-7.8-4.1-11.2-1.8c-3.4,2.3-5.4,7.3-5.4,7.3l-19,12.4
		c0,0-2.3,3.7-1.6,5.5c0.5,1.4,29.4,0.6,42.1,0.2C107.4,357.9,110,355.4,110,352.3L110,352.3L110,352.3z"/>
	<path class="st18" d="M100.2,347c0,0,4.8-11.7,7.8-13.7s10.8,4.4,10.8,4.4s6.4-6.8,8-3.2c1.6,3.6,2.4,16.3,1.2,19.1
		c-1.2,2.8-10,7.5-21.6,7.5c-5.5,0-13.4-1.7-13.4-3.6C93,354.5,98.4,349,100.2,347L100.2,347z"/>
	<path class="st3" d="M113.9,343.2H105c-0.2,0-0.3-0.1-0.3-0.3s0.1-0.3,0.3-0.3h8.9c0.2,0,0.3,0.1,0.3,0.3S114.1,343.2,113.9,343.2z
		"/>
	<path class="st3" d="M113,347.3h-9.4c-0.2,0-0.3-0.1-0.3-0.3s0.1-0.3,0.3-0.3h9.4c0.2,0,0.3,0.1,0.3,0.3S113.1,347.3,113,347.3z"/>
	<path class="st3" d="M87.4,341.9l-5.7-0.8c-0.1,0-0.2-0.2-0.2-0.3c0-0.1,0.2-0.2,0.3-0.2l5.7,0.8c0.1,0,0.2,0.2,0.2,0.3
		C87.7,341.8,87.5,341.9,87.4,341.9L87.4,341.9z"/>
	<path class="st3" d="M86,345.8l-9.6-1.4c-0.1,0-0.2-0.2-0.2-0.3c0-0.1,0.2-0.2,0.3-0.2l9.6,1.4c0.1,0,0.2,0.2,0.2,0.3
		C86.2,345.7,86.1,345.8,86,345.8L86,345.8z"/>
	<path class="st16" d="M102.9,327.4c-0.1,0-0.2-0.1-0.3-0.2c0-1.7-1-40.5,0-45.2c0.6-3.1,9.1-11.5,10.8-13.3l-6.9-2.6
		c-0.1-0.1-0.2-0.2-0.2-0.3c0.1-0.1,0.2-0.2,0.3-0.2l7.3,2.7c0,0,0.2,0.1,0.2,0.2c0,0.1,0,0.2-0.1,0.2c-0.1,0.1-10.3,10.1-10.9,13.3
		c-1,4.7,0,44.7,0,45.1C103.2,327.3,103.1,327.5,102.9,327.4L102.9,327.4L102.9,327.4z"/>
	<path class="st16" d="M131.7,293.8c0,0-0.1,0-0.1,0c-0.5-0.3-5.2-3-5-4.6c0.1-0.5,0.4-0.8,1.1-1c0.8-0.2,1.5-0.1,2.1,0.3
		c1.8,1.2,2.2,5,2.2,5.1c0,0.1,0,0.2-0.1,0.2C131.7,293.8,131.7,293.8,131.7,293.8L131.7,293.8z M128.4,288.5c-0.2,0-0.4,0-0.6,0.1
		c-0.4,0.1-0.7,0.3-0.7,0.6c-0.1,0.9,2.4,2.8,4.3,3.9c-0.2-1-0.7-3.4-1.9-4.2C129.1,288.6,128.8,288.5,128.4,288.5L128.4,288.5z"/>
	<path class="st16" d="M109.5,323.9c-0.1,0-0.2-0.1-0.3-0.2c0-0.2,0.1-0.3,0.2-0.3l21.3-1.1c0.2,0,0.3,0.1,0.3,0.2
		c0,0.2-0.1,0.3-0.2,0.3L109.5,323.9C109.5,323.9,109.5,323.9,109.5,323.9z"/>
	<path class="st16" d="M102.8,322.8H83.7c-0.2,0-0.3-0.1-0.3-0.3c0-0.2,0.1-0.3,0.3-0.3h19.1c0.2,0,0.3,0.1,0.3,0.3
		C103.1,322.7,102.9,322.8,102.8,322.8z"/>
	<path class="st12" d="M120.7,209.8c0,0-6.6,5-7.1,11c-0.7,9.2,9.7,5.2,10.8-0.7C125.6,214.3,120.7,209.8,120.7,209.8z"/>
	<path class="st7" d="M108.6,256.8v4.6c0,0,11.7,2.7,21.2,2S143,261,143,261l4.1-23.4l-12.2-17.2l-10-0.8l-24.4,17.7l6,16.2
		L108.6,256.8L108.6,256.8z"/>
	<path class="st17" d="M125.4,262.1h-11.1c-0.4,0-0.8-0.4-0.8-1l-2.4-22.9c-0.1-0.7,0.3-1.2,0.8-1.2h16c0.5,0,0.9,0.6,0.8,1.2
		l-2.4,22.9C126.2,261.7,125.8,262.1,125.4,262.1L125.4,262.1z"/>
	<path class="st17" d="M109.7,237.4c0,0,0.6-2.4,3-2.3c2.4,0.1,2.6,2.3,2.6,2.3s0.1-1.3,1.1-1.5c1-0.3,2,1.5,2,1.5s-0.5-3.5,2.8-3.5
		c3.2,0,3.6,3.5,3.6,3.5s1-2.4,1.9-1.5c1,0.9,0.7,2.8,0.7,2.8L109.7,237.4L109.7,237.4z"/>
	<path class="st17" d="M123.4,262.1h-11.1c-0.4,0-0.8-0.4-0.8-1l-2.4-22.9c-0.1-0.7,0.3-1.2,0.8-1.2h16c0.5,0,0.9,0.6,0.8,1.2
		l-2.4,22.9C124.2,261.7,123.8,262.1,123.4,262.1L123.4,262.1z"/>
	<path class="st12" d="M120.1,209.2c0,0-4.4-13.9,3.7-14c5.6,0,13,3.9,14.1,6.9c1.1,3-0.6,7.7-0.6,7.7L120.1,209.2L120.1,209.2z"/>
	<path class="st11" d="M109,245.7c0,0,5-0.5,6.1-0.5c1.1,0,2.5,2.5,2.5,2.5l3.2,0.9l-3.7,10.3c0,0-7.6,1-10.8-2.7
		C105.2,254.9,109,245.7,109,245.7L109,245.7z"/>
	<path class="st7" d="M124.8,220.1c0,0-9.6,0.2-19.3,8.3c-9.7,8.1-13.9,16.1-11.9,23.2c2,7,14.5,7.3,14.5,7.3l3.7-14.5l-9.6-6.3
		L124.8,220.1L124.8,220.1z"/>
	<path class="st11" d="M130,248.1c0,0-3-1.6-4.4-2c-1.3-0.3-2.6,0.5-2.9,1.8v0.1c0,0-4.8,1-8.1,2.7c-3.4,1.7-2.7,3.2-2.7,3.2
		s-2.1,1.4-1.2,2.3c0.9,0.9,4.4,0,4.4,0s-4.4,1.7-2.6,2.7c1.8,1,5.9,0.7,5.9,0.7s8.8,1.5,11.7-1.5C132.9,255,130,248.1,130,248.1
		L130,248.1z"/>
	<path class="st11" d="M132.4,213.8l-0.2,6.8c0,0-1.3,1.9-5.3,2.2c-3,0.2-3.9-1.4-3.9-1.4l0.9-6l7.3-1.4L132.4,213.8L132.4,213.8z"
		/>
	<path class="st7" d="M131.8,220.1c0,0,16.6,0.6,24.9,14c8.3,13.4,1.8,25.5-11.3,27.9c-13.1,2.4-19.9-1.1-19.9-1.1l3.1-15.2l6.7-1
		l6.5-8L131.8,220.1L131.8,220.1z"/>
	<path class="st11" d="M132.4,213.4c0,0.2-0.1,0.4-0.2,0.6c-1.6,3.4-7,4.7-8.7,4.8l0.5-3.4L132.4,213.4L132.4,213.4z"/>
	<path class="st11" d="M122.8,199.9c0,0-3.8,8.5-2.5,13.3c1.3,4.8,5.7,4.1,8.3,3.2c2.6-0.9,3.8-2.5,3.8-2.5s2.4,0.9,4.1-1.4
		c1.7-2.2,0.7-4.9-0.7-5.5c-1.4-0.6-3,0.4-3,0.4l1.3-2.5C134,204.9,128.7,192.3,122.8,199.9L122.8,199.9z"/>
	<path class="st12" d="M132.7,207.3c0,0-3.7,0.7-6.2-3.3c-2.6-4.1-2.3-5.7-2.3-5.7l-2.5,4.2c0,0-0.6-2.9,0.6-4.8
		c1.2-1.9,2.4-1.5,2.4-1.5l8.1,2l2.1,6.5L132.7,207.3L132.7,207.3z"/>
	<path class="st12" d="M123.1,210.6c-0.1,0-0.2-0.1-0.2-0.2c-0.6-1.8,0.7-3.7,0.8-3.7c0.1-0.1,0.2-0.2,0.4-0.1
		c0.1,0.1,0.2,0.2,0.1,0.4c0,0-1.2,1.7-0.7,3.3C123.4,210.4,123.3,210.6,123.1,210.6C123.1,210.6,123.1,210.6,123.1,210.6
		L123.1,210.6z"/>
	<path class="st12" d="M133,211.3c0,0-0.1,0-0.2-0.1c-0.1-0.1-0.1-0.3,0-0.4l2.3-2.4c0.1-0.1,0.3-0.1,0.4,0c0.1,0.1,0.1,0.3,0,0.4
		l-2.3,2.4C133.2,211.2,133.1,211.3,133,211.3z"/>
	<path class="st12" d="M135.5,210.6l-1.6-0.2c-0.1,0-0.2-0.2-0.2-0.3c0-0.1,0.2-0.2,0.3-0.2l1.6,0.2c0.1,0,0.2,0.2,0.2,0.3
		C135.7,210.6,135.6,210.6,135.5,210.6z"/>
	<path class="st12" d="M121.4,203.7c-0.1,0-0.2-0.1-0.2-0.2c0-0.1,0.1-0.3,0.2-0.3l1.5-0.3c0.1,0,0.3,0.1,0.3,0.2
		c0,0.1-0.1,0.3-0.2,0.3L121.4,203.7L121.4,203.7L121.4,203.7z"/>
	<path class="st12" d="M127.7,204.7c0,0-0.1,0-0.1,0l-2.5-1.3c-0.1-0.1-0.2-0.2-0.1-0.3c0.1-0.1,0.2-0.2,0.3-0.1l2.5,1.3
		c0.1,0.1,0.2,0.2,0.1,0.3C127.9,204.6,127.8,204.7,127.7,204.7z"/>
	<path class="st12" d="M137.3,209.8c0,0,7.5,3.4,6.7,10.9c-0.7,7.4-6.7,7.2-10.2,4.2c-3.6-3.1-1.5-11.1-1.5-11.1
		S136.9,214.6,137.3,209.8L137.3,209.8z"/>
	<path class="st12" d="M121.4,207.2C121.4,207.2,121.4,207.2,121.4,207.2c-0.2,0-0.3-0.2-0.2-0.3l0.4-1.4l-0.4-0.5
		c-0.1-0.1-0.1-0.3,0-0.4c0.1-0.1,0.3-0.1,0.4,0l0.5,0.6c0,0,0.1,0.2,0,0.2l-0.5,1.5C121.6,207.1,121.5,207.2,121.4,207.2
		L121.4,207.2z"/>
	<path class="st12" d="M125.7,207.6C125.7,207.6,125.7,207.6,125.7,207.6c-0.2,0-0.3-0.2-0.2-0.3l0.4-1.4l-0.6-0.6
		c-0.1-0.1-0.1-0.3,0-0.4c0.1-0.1,0.3-0.1,0.4,0l0.6,0.8c0,0,0.1,0.2,0.1,0.2l-0.5,1.5C125.9,207.5,125.9,207.6,125.7,207.6
		L125.7,207.6z"/>
	<path class="st12" d="M117.6,247.9l-4.9-0.9c-0.1,0-0.2-0.2-0.2-0.3c0-0.1,0.2-0.2,0.3-0.2l4.8,0.9c0.1,0,0.2,0.2,0.2,0.3
		C117.9,247.8,117.7,247.9,117.6,247.9L117.6,247.9z"/>
	<path class="st12" d="M122.7,248.3c-0.1,0-0.2-0.1-0.2-0.2c0-0.1,0-0.3,0.2-0.3l2.7-0.8c0.1,0,0.3,0,0.3,0.2c0,0.1,0,0.3-0.2,0.3
		L122.7,248.3C122.8,248.3,122.7,248.3,122.7,248.3L122.7,248.3z"/>
	<path class="st12" d="M112,254c-0.1,0-0.2-0.1-0.2-0.2c0-0.1,0-0.3,0.2-0.3l6.8-2c0.1,0,0.3,0,0.3,0.2c0,0.1,0,0.3-0.2,0.3L112,254
		C112.1,253.9,112,253.9,112,254L112,254z"/>
	<path class="st12" d="M114.6,256.6c-0.1,0-0.2-0.1-0.2-0.2c0-0.1,0-0.3,0.2-0.3l4.3-1.3c0.1,0,0.3,0,0.3,0.2c0,0.1,0,0.3-0.2,0.3
		L114.6,256.6C114.6,256.6,114.6,256.6,114.6,256.6L114.6,256.6z"/>
	<path class="st3" d="M127,223c-2.6,0-4.1-1.4-4.1-1.4c-0.1-0.1-0.1-0.3,0-0.4c0.1-0.1,0.3-0.1,0.4,0c0.1,0.1,3.1,2.8,7.8,0.1
		c0.1-0.1,0.3,0,0.3,0.1c0.1,0.1,0,0.3-0.1,0.3C129.7,222.7,128.2,223,127,223z"/>
	<path class="st3" d="M135.4,244.9c-0.1,0-0.2-0.1-0.2-0.2c0-0.1,0.1-0.3,0.2-0.3c0.1,0,9.1-1.8,14.4-1.8c0.1,0,0.3,0.1,0.3,0.3
		c0,0.2-0.1,0.3-0.3,0.3C144.5,243.1,135.5,244.9,135.4,244.9C135.4,244.9,135.4,244.9,135.4,244.9z"/>
	<path class="st3" d="M143,243.6c0,0-0.2,0-0.2-0.1c-0.1-0.1-0.1-0.2,0-0.3c0.4-0.5,3.9-4.9,5.8-3.9c0.3,0.2,0.4,0.4,0.4,0.6
		C148.9,241.1,144.5,243,143,243.6C143.1,243.6,143,243.6,143,243.6z M148,239.6c-1,0-2.8,1.6-4.1,3.1c2.3-1,4.6-2.3,4.6-2.9
		c0,0,0-0.1-0.1-0.1C148.2,239.7,148.1,239.6,148,239.6L148,239.6z"/>
	<path class="st3" d="M108.1,242.3c0,0-0.1,0-0.2-0.1c0,0-3-3.1-5.8-3.8c-0.1,0-0.2-0.2-0.2-0.3c0-0.1,0.2-0.2,0.3-0.2
		c2.9,0.7,5.9,3.8,6.1,4c0.1,0.1,0.1,0.3,0,0.4C108.2,242.3,108.1,242.3,108.1,242.3L108.1,242.3z"/>
	<path class="st3" d="M105.1,239.6c0,0-0.1,0-0.2-0.1c-0.2-0.2-2-2-1.9-3.1c0-0.3,0.1-0.5,0.3-0.7c0.2-0.2,0.4-0.2,0.6-0.1
		c0.9,0.3,1.3,2.9,1.4,3.7c0,0.1,0,0.2-0.1,0.3C105.2,239.6,105.2,239.6,105.1,239.6L105.1,239.6z M103.8,236.1
		C103.8,236.1,103.7,236.1,103.8,236.1c-0.2,0.1-0.2,0.2-0.2,0.3c0,0.6,0.6,1.5,1.2,2.1C104.5,237.4,104.1,236.3,103.8,236.1
		C103.8,236.1,103.8,236.1,103.8,236.1L103.8,236.1z"/>
	<path class="st12" d="M124.2,212.9c-0.1,0-0.2,0-0.2,0c-0.1,0-0.2-0.2-0.2-0.3c0-0.1,0.1-0.2,0.3-0.2c0,0,1.1,0.1,2-0.7
		c0.1-0.1,0.3-0.1,0.4,0c0.1,0.1,0.1,0.3,0,0.4C125.6,212.8,124.6,212.9,124.2,212.9L124.2,212.9z"/>
</g>
<path class="st1" d="M177.2,280.9h-36.9c-5.2,0-9.3-4.2-9.3-9.3s4.2-9.3,9.3-9.3h36.9c5.2,0,9.3,4.2,9.3,9.3
	S182.3,280.9,177.2,280.9z"/>
<g>
	<polygon class="st26" points="353,332.3 352,344.5 371.1,344.5 371.1,332.3 	"/>
	<polygon class="st26" points="322.2,297.6 313.7,306.5 328.5,318.6 336.3,309.1 	"/>
	<polygon class="st10" points="348.8,303.7 348.8,336.6 375.4,336.6 380.4,291.2 359.2,288.8 	"/>
	<path class="st10" d="M316.9,297.4c0,0,19.2-23.1,30.1-31.4c7.7-5.8,25.2-5.3,30.9-5.8c16.9-1.3,27.3,4.7,27.3,4.7
		s4.1,18.9-6.8,23.9c-10.8,5-31.7,4.1-35.2,5.8c-3.5,1.8-25.1,23-25.1,23L316.9,297.4L316.9,297.4z"/>
	<path class="st12" d="M324.6,360.8c-0.4-0.1-0.7-0.5-0.6-0.9c0.4-2.1,1.6-7.9,4.9-10.4c4.1-3,12.5-4.3,15.6-6.3
		c3.1-2,6.5-6.9,8.4-6c1.8,0.9,5.3,5.2,10.3,4.6c5-0.6,7.3-1.8,8.7-0.6c1.4,1.2,2.1,18.2,1.5,19.2c-0.6,1-7.7,0.1-8.3,0.2
		c-0.6,0.2-2.4-3.9-3.5-3.3c-1.2,0.6-2.6,2.5-4.3,3.4C355.8,361.6,329.7,361.5,324.6,360.8L324.6,360.8z"/>
	<path class="st12" d="M282.5,305.6c-0.3-0.3-0.3-0.8,0-1.1c1.4-1.5,5.7-5.7,9.8-6c5.1-0.3,12.8,3.4,16.5,3.4
		c3.7,0,9.3-2.2,10.3-0.4c1,1.8,1.6,7.3,6.1,9.5c4.5,2.2,7.1,2.5,7.6,4.3c0.5,1.8-8.3,16.4-9.3,16.9c-1,0.5-6.4-4.1-7-4.3
		c-0.6-0.2,0.2-4.6-1.1-4.7c-1.3-0.1-3.5,0.7-5.4,0.5C308.1,323.5,286.4,309,282.5,305.6L282.5,305.6z"/>
	<path class="st17" d="M349.6,306.8c0,0-0.1,0-0.2-0.1c-0.1-0.1-0.1-0.3,0-0.4c0.4-0.5,10.3-11.1,13.7-11.9c3.3-0.7,16.5-1.9,17-2
		c0.2,0,0.3,0.1,0.3,0.2c0,0.2-0.1,0.3-0.2,0.3c-0.1,0-13.7,1.2-17,1.9c-3.2,0.7-13.3,11.6-13.4,11.7
		C349.8,306.7,349.7,306.7,349.6,306.8L349.6,306.8z"/>
	<path class="st17" d="M363.2,295c0,0-0.2,0-0.2-0.1c-0.4-0.6-3.5-5.4-1.7-6.6c0.3-0.2,0.6-0.2,0.8-0.1c1.2,0.6,1.4,5.5,1.4,6.5
		C363.4,294.8,363.4,294.9,363.2,295C363.2,295,363.2,295,363.2,295L363.2,295z M361.7,288.7c0,0-0.1,0-0.2,0.1
		c-0.9,0.6,0.2,3.1,1.4,5C362.7,291.5,362.3,289,361.7,288.7C361.8,288.7,361.7,288.7,361.7,288.7L361.7,288.7z"/>
	<path class="st17" d="M344.3,311.9c0,0-0.1,0-0.2-0.1l-15.6-15.7c-0.1-0.1-0.1-0.3,0-0.4c0.1-0.1,0.3-0.1,0.4,0l15.6,15.7
		c0.1,0.1,0.1,0.3,0,0.4C344.4,311.8,344.3,311.9,344.3,311.9L344.3,311.9z"/>
	<path class="st17" d="M375.4,330.4h-18.8c-0.2,0-0.3-0.1-0.3-0.3c0-0.2,0.1-0.3,0.3-0.3h18.8c0.2,0,0.3,0.1,0.3,0.3
		C375.7,330.2,375.6,330.4,375.4,330.4z"/>
	<g>
		<path class="st12" d="M397.1,203.8c0,0,4-1,5.3,2.2c0.8,2-0.1,4.2-0.1,4.2s3.5-0.7,5.1,2.4c1.4,2.6-0.2,5.1-0.2,5.1s4.6,2,5.3,5.9
			c0.6,3.9-1.4,6-1.4,6l-22.7-4.9l0.9-17.4L397.1,203.8L397.1,203.8z"/>
		<path class="st14" d="M371.8,261.4c0,0-11.1,1.4-14.3-11.6c-3.1-13.1,15.1-28.9,15.1-28.9L371.8,261.4z"/>
		<path class="st17" d="M394.9,263.8c0,0-13.1,2.5-19.5-0.9c-6.4-3.4-2.1-21.5-2.1-21.5s4.4-24.9,9.5-25.2c5.1-0.4,9.6,0.5,9.6,0.5
			l5.5,21.4L394.9,263.8z"/>
		<path class="st14" d="M384.9,215.5c0,0-0.9,0.2-2.1,0.6l8.7,0.8c0,0,0.8,12.3,0.7,26.3c0,9.9-0.6,18.9-1,23.2l12.3,0.1
			c0,0,7.3-40.1,2.8-44.5c-4.5-4.5-16-6.3-16-6.3L384.9,215.5L384.9,215.5z"/>
		<path class="st14" d="M370.2,261.5l7.6,3.2c-0.2-5.3-1.5-16.5,0.1-29.1c2.1-16,4.7-19.4,4.9-19.6c-3.4,1-9.6,3.2-10.9,5.8
			C370.2,225.5,370.2,261.5,370.2,261.5L370.2,261.5z"/>
		<path class="st25" d="M392,256.7c0,0-12.2-2.4-15.3-1.2c-3.1,1.2-0.6,11.4,0.4,13.2c0.9,1.8,14.8-1,14.8-1l2.4-5.2L392,256.7
			L392,256.7z"/>
		<path class="st25" d="M376.7,255.5c0,0-7.4,5.1-7.7,8.2c-0.3,3.1,8.8-3.5,8.8-3.5L376.7,255.5z"/>
		<path class="st25" d="M381.6,268.2c0,0,6.3,1.4,4.3,3.1c-2,1.7-8.2-1-8.8-2.6c-0.6-1.6,3.9-3.6,3.9-3.6L381.6,268.2L381.6,268.2z"
			/>
		<path class="st12" d="M382.2,269.2c-0.1,0-0.2-0.1-0.2-0.2s0.1-0.2,0.2-0.3h1.5l-0.7-1.1c-0.1-0.1,0-0.3,0.1-0.4
			c0.1-0.1,0.3,0,0.4,0.1l1,1.5c0,0,0.1,0.2,0,0.3c0,0.1-0.1,0.1-0.2,0.1L382.2,269.2L382.2,269.2z"/>
		<path class="st12" d="M375.2,261.8c0,0-0.1,0-0.2-0.1c-0.1-0.1-0.1-0.2,0-0.4c0.2-0.2,2.1-2.4,2.9-2.7c0.1,0,0.3,0,0.3,0.2
			s0,0.3-0.2,0.3c-0.5,0.2-1.9,1.6-2.7,2.5C375.4,261.7,375.3,261.8,375.2,261.8L375.2,261.8z"/>
		<path class="st12" d="M376,265.4c0,0-0.1,0-0.2-0.1c-0.1-0.1-0.1-0.3,0-0.4l3.6-3.3c0.1-0.1,0.3-0.1,0.4,0c0.1,0.1,0.1,0.3,0,0.4
			l-3.6,3.3C376.1,265.3,376,265.4,376,265.4z"/>
		<path class="st25" d="M391.9,210.8l-0.5,6.8c0,0-1.4,1.9-5.4,1.9c-3,0-3.8-1.6-3.8-1.6l1.1-5.9l7.3-1L391.9,210.8L391.9,210.8z"/>
		<path class="st12" d="M391.9,210.4c0,0.2-0.1,0.4-0.2,0.6c-1.8,3.3-7.2,4.3-8.9,4.3l0.6-3.3L391.9,210.4L391.9,210.4z"/>
		<path class="st25" d="M383.1,196.5c0,0-4.2,8.2-3.1,13s5.4,4.3,8.1,3.6c2.6-0.8,3.9-2.3,3.9-2.3s2.4,1,4.1-1.2s0.9-4.8-0.4-5.5
			s-3,0.2-3,0.2l1.4-2.4C394,202,389.3,189.2,383.1,196.5L383.1,196.5z"/>
		<path class="st12" d="M382.7,206.8c0,0-0.1,0-0.2-0.1c-0.6-0.5-0.9-1-0.9-1.6c0-1.3,1.3-2.5,1.3-2.5c0.1-0.1,0.3-0.1,0.4,0
			c0.1,0.1,0.1,0.3,0,0.4c0,0-1.2,1-1.2,2.1c0,0.5,0.2,0.9,0.7,1.2c0.1,0.1,0.1,0.2,0,0.4C382.8,206.8,382.7,206.8,382.7,206.8
			L382.7,206.8z"/>
		<path class="st12" d="M392.7,208.4c0,0-0.1,0-0.2-0.1c-0.1-0.1-0.1-0.3,0-0.4l2.4-2.3c0.1-0.1,0.3-0.1,0.4,0
			c0.1,0.1,0.1,0.3,0,0.4l-2.4,2.3C392.9,208.3,392.8,208.4,392.7,208.4z"/>
		<path class="st12" d="M395.2,207.9C395.2,207.9,395.1,207.9,395.2,207.9l-1.6-0.3c-0.1,0-0.2-0.2-0.2-0.3c0-0.1,0.2-0.2,0.3-0.2
			l1.6,0.3c0.1,0,0.2,0.2,0.2,0.3C395.4,207.8,395.3,207.9,395.2,207.9L395.2,207.9z"/>
		<path class="st12" d="M381.5,200.3c-0.1,0-0.2-0.1-0.2-0.2s0.1-0.3,0.2-0.3l1.5-0.2c0.1,0,0.3,0.1,0.3,0.2c0,0.1-0.1,0.3-0.2,0.3
			L381.5,200.3L381.5,200.3L381.5,200.3z"/>
		<path class="st12" d="M387.7,201.5c0,0-0.1,0-0.1,0l-2.4-1.4c-0.1-0.1-0.2-0.2-0.1-0.3c0.1-0.1,0.2-0.2,0.3-0.1l2.4,1.4
			c0.1,0.1,0.2,0.2,0.1,0.3C387.9,201.5,387.8,201.5,387.7,201.5L387.7,201.5z"/>
		<path class="st12" d="M381.4,203.7C381.4,203.7,381.3,203.7,381.4,203.7c-0.2-0.1-0.3-0.2-0.2-0.3l0.5-1.4l-0.4-0.5
			c-0.1-0.1-0.1-0.3,0.1-0.4c0.1-0.1,0.3-0.1,0.4,0.1l0.4,0.6c0,0,0.1,0.2,0,0.2l-0.5,1.5C381.6,203.7,381.5,203.8,381.4,203.7
			L381.4,203.7z"/>
		<path class="st12" d="M385.6,204.3C385.6,204.3,385.6,204.3,385.6,204.3c-0.2-0.1-0.3-0.2-0.2-0.3l0.5-1.4l-0.5-0.7
			c-0.1-0.1-0.1-0.3,0-0.4c0.1-0.1,0.3-0.1,0.4,0l0.6,0.8c0,0,0.1,0.2,0,0.2l-0.5,1.5C385.8,204.3,385.7,204.3,385.6,204.3
			L385.6,204.3z"/>
		<path class="st12" d="M384,209.5c-0.2,0-0.4-0.1-0.7-0.2c-0.1-0.1-0.2-0.2-0.1-0.4c0.1-0.1,0.2-0.2,0.4-0.1
			c0.8,0.5,1.5-0.6,1.5-0.6c0.1-0.1,0.2-0.2,0.4-0.1s0.2,0.2,0.1,0.4C385.3,209,384.7,209.5,384,209.5L384,209.5z"/>
		<path class="st14" d="M404.1,220.4c0,0,16.5,11,15.7,30.3c-0.8,19.3-28.3,18.6-28.3,18.6l-3.9-18.3l14.3-6.8L404.1,220.4
			L404.1,220.4z"/>
		<path class="st27" d="M393.1,248.4c0,0-0.2,0-0.2-0.1c-0.1-0.1,0-0.3,0.1-0.3c0.4-0.2,9.2-5.4,12.6-6.1c0.1,0,0.3,0.1,0.3,0.2
			c0,0.1-0.1,0.3-0.2,0.3c-3.3,0.7-12.3,6-12.4,6.1C393.2,248.4,393.2,248.4,393.1,248.4z"/>
		<path class="st27" d="M401.2,243.9c0,0-0.1,0-0.1,0c-0.1-0.1-0.2-0.2-0.1-0.2c0.1-0.5,0.5-4.9,2-5.6c0.2-0.1,0.7-0.2,1.2,0.1
			c0.4,0.3,0.6,0.6,0.6,1.1c0.1,1.8-3.3,4.6-3.4,4.7C401.3,243.9,401.3,243.9,401.2,243.9L401.2,243.9z M403.5,238.4
			c-0.1,0-0.2,0-0.2,0.1c-0.9,0.4-1.5,3-1.7,4.6c1.1-1,2.8-2.7,2.7-3.8c0-0.3-0.2-0.5-0.4-0.7C403.7,238.4,403.6,238.4,403.5,238.4
			L403.5,238.4z"/>
		<path class="st25" d="M370.9,225.9c0,0,4.6,6.5,4.3,9c-0.3,2.5-2.1,1.2-2.1,1.2s1,2.8-0.2,3.4c-1.2,0.6-1.9-1.3-1.9-1.3
			s-0.1,2.4-1.4,2.4s-6.7-6.7-6.8-8.7c0-1.9,2.4-1.4,2.4-1.4s-0.5-3,0.6-3.6c1.1-0.6,2.7,1,2.7,1S368.5,223.8,370.9,225.9
			L370.9,225.9z"/>
		<path class="st25" d="M369.7,238.6c0,0,1,6.5-2.7,6.3c-7.6-0.3-4.1-13.1-4.1-13.1L369.7,238.6z"/>
		<path class="st27" d="M367.9,258.1c0,0-0.1,0-0.2-0.1c-0.1-0.1-0.1-0.2,0-0.4c2.2-2.4,2.2-12.5,2.2-12.6c0-0.1,0.1-0.2,0.2-0.2
			c0.1,0,0.3,0.1,0.2,0.3c0,0.4-0.1,10.4-2.4,12.9C368,258.1,368,258.1,367.9,258.1L367.9,258.1z"/>
		<path class="st12" d="M373.2,236.3c0,0-0.2-0.1-0.2-0.1l-3.9-7.4c-0.1-0.1,0-0.3,0.1-0.3c0.1-0.1,0.3,0,0.3,0.1l3.9,7.4
			c0.1,0.1,0,0.3-0.1,0.3C373.3,236.3,373.2,236.3,373.2,236.3L373.2,236.3z"/>
		<path class="st12" d="M370.4,238.4c0,0-0.2,0-0.2-0.1l-3.8-6.7c-0.1-0.1,0-0.3,0.1-0.3c0.1-0.1,0.3,0,0.3,0.1l3.8,6.7
			c0.1,0.1,0,0.3-0.1,0.3C370.5,238.3,370.4,238.4,370.4,238.4L370.4,238.4z"/>
		<path class="st27" d="M385.7,219.7c-2.7,0-3.6-1.6-3.6-1.7c-0.1-0.1,0-0.3,0.1-0.3c0.1-0.1,0.3,0,0.3,0.1c0,0.1,0.9,1.6,3.5,1.4
			c2.5-0.2,5.2-1.8,5.2-1.8c0.1-0.1,0.3,0,0.4,0.1c0.1,0.1,0,0.3-0.1,0.4s-2.8,1.8-5.5,1.9C386,219.7,385.8,219.7,385.7,219.7z"/>
		<path class="st12" d="M392.5,204.4c0,0-1.4-0.3-2.6-2.1s-0.9-4.6-0.9-4.6s-1.5,0.6-3.3,0.5c-1.8-0.1-2.9-1.1-2.9-1.1
			s-1.6-1.3-1.2-3.3s2.6-1.5,2.6-1.5s2-1.4,5.1-1.2c3.1,0.2,4,2,4,2s2.8,0.2,3.8,1.6s0.9,3.4,0.9,3.4s1.2,0.4,1.5,3.1
			c0.3,2.6-2.7,4.8-2.7,4.8S395.5,203.5,392.5,204.4L392.5,204.4z"/>
		<path class="st12" d="M396.7,195.9c0,0,4.4-7.5,7.8-3.3c3.9,4.8-4.5,9.5-6.9,6.8S396.7,195.9,396.7,195.9z"/>
	</g>
</g>
<g>
	<polygon class="st25" points="497.5,335.3 497.3,344.2 515.2,342.7 515.2,335.4 	"/>
	<polygon class="st25" points="475.9,333.9 475.8,342.9 493.6,341.3 493.6,334.1 	"/>
	<path class="st17" d="M473.6,341.7c0,0-22.3,14.4-23.4,17.5c-1.1,3,2.1,4.3,3.6,4.4c1.5,0.2,38.7-2.2,38.7-2.2l3.2-11.3
		c0,0-0.5-9.6-0.8-9.9c-0.4-0.3-20.4-0.1-20.4-0.1L473.6,341.7L473.6,341.7z"/>
	<path class="st3" d="M474,349.9l-10.9-0.1c-0.1,0-0.2-0.1-0.2-0.2s0.1-0.2,0.2-0.2l9.8,0.1l-4-2.1c-0.1-0.1-0.2-0.2-0.1-0.3
		c0-0.1,0.1-0.2,0.2-0.2l7.7-0.2l-5.9-3c-0.1-0.1-0.2-0.2-0.1-0.3c0.1-0.1,0.2-0.2,0.3-0.1l6.8,3.4c0.1,0.1,0.2,0.2,0.1,0.3
		c0,0.1-0.1,0.2-0.2,0.2l-7.7,0.2l4.1,2.1c0.1,0.1,0.2,0.2,0.1,0.3C474.2,349.8,474.1,349.9,474,349.9z"/>
	<path class="st7" d="M529.5,263.5c0,0,0.3,12.1,0.3,16.3c0,4.2-8.8,15.9-8.8,15.9l-0.7,41.4l-28.9-0.2c0,0-1.9-42.9-1.8-47.2
		c0.1-4.4,18.4-21.8,18.4-21.8L529.5,263.5L529.5,263.5z"/>
	<path class="st3" d="M514.7,297.4c-0.6,0-1.1-0.1-1.3-0.3c-0.2-0.1-0.3-0.4-0.2-0.8c0.6-2.3,7.1-0.9,7.9-0.7c0.1,0,0.2,0.1,0.2,0.2
		c0,0.1-0.1,0.2-0.2,0.2C520.2,296.3,516.7,297.4,514.7,297.4L514.7,297.4z M516.4,295.5c-1.4,0-2.6,0.2-2.8,0.9
		c-0.1,0.2,0,0.3,0.1,0.3c0.6,0.6,3.9-0.2,6.3-0.9C518.8,295.6,517.5,295.4,516.4,295.5L516.4,295.5z"/>
	<path class="st7" d="M502.1,262.9c0,0-29.9,17.3-32.9,23.1c-3,5.7,1.3,52.7,1.3,52.7l25.8-1.8l1.1-25.1l18.5-47.7L502.1,262.9
		L502.1,262.9z"/>
	<path class="st3" d="M491.3,337.1c-0.1,0-0.2-0.1-0.2-0.2c-0.1-1.9-3.2-45.7-2.7-49.1c0.4-3.1,11.1-10.8,13.5-12.6l-8.3-1.5
		c-0.1,0-0.2-0.2-0.2-0.3c0-0.1,0.2-0.2,0.3-0.2l8.9,1.7c0.1,0,0.2,0.1,0.2,0.2c0,0.1,0,0.2-0.1,0.2c-0.1,0.1-13.4,9.3-13.8,12.6
		c-0.4,3.4,2.7,48.6,2.7,49C491.6,337,491.5,337.1,491.3,337.1L491.3,337.1L491.3,337.1z"/>
	<path class="st17" d="M496.4,340.3c0,0-16.2,14.5-16.8,17.5c-0.6,3,1.1,4.5,2.2,4.9c1.1,0.4,22.1,0.4,27.9,0.2
		c5.8-0.2,6.8-4,7.4-7.4c0.6-3.4-1.5-15-1.5-15L496.4,340.3L496.4,340.3z"/>
	<path class="st3" d="M505.2,350.2C505.2,350.2,505.1,350.2,505.2,350.2l-10.3-2.3c-0.1,0-0.2-0.1-0.2-0.2c0-0.1,0.1-0.2,0.2-0.2
		l10.9-2.5l-8.4-0.4c-0.1,0-0.2-0.1-0.2-0.3c0-0.1,0.1-0.2,0.3-0.2l10.2,0.5c0.1,0,0.2,0.1,0.2,0.2c0,0.1-0.1,0.2-0.2,0.3l-11.5,2.6
		l9.1,2c0.1,0,0.2,0.2,0.2,0.3C505.4,350.1,505.3,350.2,505.2,350.2L505.2,350.2z"/>
	<path class="st25" d="M481.7,229.8c0,0-1.3-7.2-5.7-6c-2,0.6,1.4,4.4,1.4,4.4l-5.7-2.2c0,0-6.5-1.8-7.8-1.3
		c-1.3,0.6,0.8,2.7,0.8,2.7s-4.6-1.4-4,0.9c0.6,2.3,3.8,3.6,3.8,3.6s-4.5-1.6-3.5,1c0.6,1.4,10.5,7.5,17.2,7.3
		c6.7-0.2,4.6-5.5,4.6-5.5L481.7,229.8L481.7,229.8z"/>
	<path class="st12" d="M467,233.3c0,0-0.1,0-0.2-0.1c-0.1-0.1-0.1-0.3,0-0.3l5.8-4.9c0.1-0.1,0.3-0.1,0.3,0c0.1,0.1,0.1,0.3,0,0.3
		l-5.8,4.9C467.2,233.2,467.1,233.3,467,233.3L467,233.3z"/>
	<path class="st12" d="M479.1,236.1c-0.1,0-2-0.2-2.9-1.8c-0.7-1.3-0.5-3.2,0.6-5.5c0.1-0.1,0.2-0.2,0.3-0.1
		c0.1,0.1,0.2,0.2,0.1,0.3c-1.1,2.2-1.3,3.9-0.6,5.1c0.8,1.4,2.5,1.5,2.5,1.5c0.1,0,0.2,0.1,0.2,0.3
		C479.4,236,479.3,236.1,479.1,236.1L479.1,236.1z"/>
	<path class="st10" d="M483.3,233l-8.7,7.6c0,0,3.8,18.8,12.5,24c8.8,5.2,16.2,0.4,16.2,0.4l-6.2-21
		C497.1,243.9,483.3,233,483.3,233z"/>
	<path class="st12" d="M509.3,205c0,0-0.7-7,1.4-7.4c2-0.4,5.4,2.2,5.4,2.2s6,0.9,7.6,3.8c1.5,2.9,0,6.5,0,6.5s-2.2-0.2-3.6,0.1
		C518.6,210.3,509.3,205,509.3,205L509.3,205z"/>
	<polygon class="st10" points="496.7,267 497.8,241.5 533.7,244.9 531.7,269.5 	"/>
	<path class="st10" d="M491,238.8c0,0,7.4-15.7,21.8-16.7c14.4-1,21.3,3.1,26.4,16.4c3,7.5,2.6,15.1,2.6,15.1h-21.4l-21.6-2.1
		L491,238.8L491,238.8z"/>
	<path class="st25" d="M519.9,216.4l0.2,7.2c0,0-1.1,1.1-5,1.4c-2.9,0.3-4.1-1.3-4.1-1.3l0.2-2.1l0.4-3.3l7.1-1.7L519.9,216.4
		L519.9,216.4z"/>
	<path class="st12" d="M518.8,216.7c0,0.2-0.1,0.4-0.2,0.6c-1.5,3.4-5.6,4.2-7.3,4.3l0.4-3.3L518.8,216.7L518.8,216.7z"/>
	<path class="st25" d="M510,203.1c0,0-3.4,8.5-2,13.1s5.7,3.8,8.2,2.8c2.5-1,3.7-2.6,3.7-2.6s2.4,0.7,4-1.5c1.5-2.3,0.5-4.8-0.9-5.4
		c-1.4-0.6-3,0.5-3,0.5l1.2-2.5C521.2,207.6,515.5,195.4,510,203.1L510,203.1z"/>
	<path class="st12" d="M520.3,213.6c0,0-0.2,0-0.2-0.1c-0.1-0.1-0.1-0.3,0.1-0.3l3-2.2c0.1-0.1,0.3-0.1,0.3,0.1
		c0.1,0.1,0.1,0.3-0.1,0.3l-3,2.2C520.4,213.6,520.4,213.6,520.3,213.6z"/>
	<path class="st12" d="M523.1,213.6C523.1,213.6,523,213.6,523.1,213.6l-2.1-0.5c-0.1,0-0.2-0.2-0.2-0.3c0-0.1,0.2-0.2,0.3-0.2
		l2,0.5c0.1,0,0.2,0.2,0.2,0.3C523.3,213.5,523.1,213.6,523.1,213.6L523.1,213.6z"/>
	<path class="st12" d="M515.5,206.9c-0.1,0-0.2-0.1-0.2-0.2c-0.5-1.3-1.7-1.1-1.7-1.1c-0.1,0-0.3-0.1-0.3-0.2c0-0.1,0.1-0.3,0.2-0.3
		c0.6-0.1,1.8,0.1,2.3,1.4C515.7,206.7,515.7,206.8,515.5,206.9C515.5,206.8,515.5,206.8,515.5,206.9L515.5,206.9z"/>
	<path class="st12" d="M509.1,206.3c0,0-0.1,0-0.2-0.1c-0.1-0.1-0.1-0.2,0-0.3c0.3-0.2,1-0.9,1.4-0.5c0.1,0.1,0.1,0.2,0,0.3
		c-0.1,0.1-0.2,0.1-0.2,0c-0.1,0-0.3,0.1-0.8,0.5C509.2,206.2,509.2,206.3,509.1,206.3L509.1,206.3z"/>
	<path class="st12" d="M510.8,212.6c0,0-0.2,0-0.2-0.1c-1-1.4,0.6-3.6,0.7-3.7c0.1-0.1,0.2-0.1,0.3-0.1s0.1,0.2,0.1,0.3
		c0,0-1.5,2-0.7,3.1c0.1,0.1,0.1,0.3,0,0.3C510.9,212.6,510.8,212.7,510.8,212.6L510.8,212.6z"/>
	<path class="st12" d="M509.2,209.5C509.2,209.5,509.2,209.5,509.2,209.5c-0.2,0-0.3-0.2-0.2-0.3l0.4-1.5c0-0.1,0.2-0.2,0.3-0.2
		c0.1,0,0.2,0.2,0.2,0.3l-0.4,1.5C509.4,209.4,509.3,209.5,509.2,209.5L509.2,209.5z"/>
	<path class="st12" d="M513.3,210C513.3,210,513.2,210,513.3,210c-0.2,0-0.3-0.2-0.2-0.3l0.4-1.5c0-0.1,0.2-0.2,0.3-0.2
		c0.1,0,0.2,0.2,0.2,0.3l-0.4,1.5C513.5,210,513.4,210.1,513.3,210L513.3,210z"/>
	<path class="st12" d="M509.3,205c0,0,0.7-1.4,2.4-1.4c1.7,0,2.7,1.1,2.7,1.1s-0.7,2.8,1.6,4.3c2.3,1.5,4.1,1,4.1,1l1.6-0.6l1.2-2.4
		l-4.1-5.7l-8-2.6L509.3,205L509.3,205z"/>
	<path class="st3" d="M508.2,211.7c0,0-0.1,0-0.2,0c-0.6-0.1-1.2-0.4-1.6-1c-0.4-0.6-0.6-1.3-0.5-2c0.1-1.5,1.4-2.6,2.7-2.5
		c0.6,0.1,1.2,0.4,1.6,1c0.4,0.6,0.6,1.3,0.5,2c-0.1,0.7-0.4,1.4-0.9,1.9C509.4,211.4,508.8,211.7,508.2,211.7L508.2,211.7z
		 M508.3,206.7c-1,0-1.9,0.9-2,2.1c-0.1,0.6,0.1,1.2,0.4,1.7s0.8,0.7,1.3,0.8c0.5,0,1-0.1,1.4-0.5c0.4-0.4,0.7-0.9,0.7-1.5
		c0.1-0.6-0.1-1.2-0.4-1.7s-0.8-0.7-1.3-0.8C508.4,206.7,508.4,206.7,508.3,206.7L508.3,206.7z"/>
	<path class="st3" d="M514.4,212.6c0,0-0.2,0-0.2,0c-1.5-0.1-2.6-1.5-2.5-3c0.1-0.7,0.4-1.4,1-1.9c0.6-0.5,1.3-0.7,2-0.6
		c1.5,0.1,2.6,1.5,2.5,3C517,211.6,515.8,212.6,514.4,212.6z M514.4,207.6c-0.5,0-1,0.2-1.4,0.5c-0.5,0.4-0.7,0.9-0.8,1.5
		c-0.1,1.2,0.8,2.3,2,2.5c1.3,0.1,2.3-0.8,2.5-2c0.1-1.2-0.8-2.3-2-2.5C514.6,207.6,514.5,207.6,514.4,207.6L514.4,207.6z"/>
	<path class="st3" d="M512.1,209.3C512.1,209.3,512,209.3,512.1,209.3c-0.3-0.1-1-0.3-1.3-0.2c-0.1,0.1-0.3,0-0.3-0.1
		c-0.1-0.1,0-0.3,0.1-0.3c0.6-0.3,1.5,0.1,1.7,0.1c0.1,0.1,0.2,0.2,0.1,0.3C512.3,209.3,512.2,209.4,512.1,209.3L512.1,209.3z"/>
	<path class="st3" d="M516.9,210.4c0,0-0.2,0-0.2-0.1c-0.1-0.1,0-0.3,0.1-0.3c1.7-1.1,5.1-0.8,5.3-0.8c0.1,0,0.2,0.1,0.2,0.3
		c0,0.1-0.1,0.2-0.3,0.2c0,0-3.4-0.3-5,0.7C517,210.4,517,210.4,516.9,210.4z"/>
	<path class="st12" d="M512.6,216.2c-0.7,0-1.4-0.8-1.4-0.8c0-0.1-0.1-0.1,0-0.2c0-0.1,0.1-0.1,0.1-0.2l2.2-1c0,0,0.2,0,0.2,0
		s0.1,0.1,0.1,0.2c0,0.1,0.1,1.5-0.8,1.9C512.9,216.1,512.8,216.2,512.6,216.2L512.6,216.2z M511.8,215.3c0.2,0.2,0.7,0.5,1,0.4
		c0.3-0.2,0.5-0.7,0.5-1.1L511.8,215.3L511.8,215.3z"/>
	<path class="st16" d="M515,225.3c-2.4,0-4.1-0.7-4.2-0.8c-0.1-0.1-0.2-0.2-0.1-0.3c0.1-0.1,0.2-0.2,0.3-0.1c0,0,4.7,2,9-0.7
		c0.1-0.1,0.3,0,0.3,0.1c0.1,0.1,0,0.3-0.1,0.3C518.5,225,516.6,225.3,515,225.3L515,225.3z"/>
	<path class="st25" d="M503.7,262.1c0,0-12.5-1.3-14.2-0.6c-1.6,0.8-7.3,7.4-6.7,8.7c0.6,1.3,2.1,0.6,2.1,0.6s-1.3,1.2-0.6,2
		c0.7,0.8,2.4,0.2,2.4,0.2s-1.1,0.9,0.6,1.3c1.7,0.3,5.6-1.9,5.6-1.9s2.9,1.7,7.1,0.7c4.2-1,5.4-2.2,5.4-2.2L503.7,262.1
		L503.7,262.1z"/>
	<path class="st12" d="M485.3,270.6c0,0-0.1,0-0.2-0.1c-0.1-0.1-0.2-0.3-0.1-0.4l3.9-5.4c0.1-0.1,0.3-0.2,0.4-0.1
		c0.1,0.1,0.2,0.3,0.1,0.4l-3.9,5.4C485.5,270.4,485.4,270.6,485.3,270.6L485.3,270.6z"/>
	<path class="st12" d="M487.4,272.8c0,0-0.1,0-0.2-0.1c-0.1-0.1-0.2-0.3-0.1-0.4l4.1-5.4c0.1-0.1,0.3-0.2,0.4-0.1
		c0.1,0.1,0.2,0.3,0.1,0.4l-4.1,5.4C487.6,272.7,487.5,272.8,487.4,272.8L487.4,272.8z"/>
	<path class="st16" d="M521.8,254.7c-0.1,0-0.2-0.1-0.2-0.2v-3c0-0.1,0.1-0.2,0.2-0.2s0.2,0.1,0.2,0.2v3
		C522,254.6,521.9,254.7,521.8,254.7z"/>
	<path class="st16" d="M497.4,250.2c-0.1,0-0.2-0.1-0.2-0.2v-4.8c0-0.1,0.1-0.2,0.2-0.2s0.2,0.1,0.2,0.2v4.8
		C497.7,250.1,497.6,250.2,497.4,250.2z"/>
	<path class="st10" d="M522.8,253.5l-20.6,8.1l0.2,11.3c0,0,20.5,4.5,30.1-2.6c9.6-7.1,7.4-16.7,7.4-16.7H522.8L522.8,253.5z"/>
</g>
<path class="st1" d="M567.8,280.9h-36.9c-5.2,0-9.3-4.2-9.3-9.3s4.2-9.3,9.3-9.3h36.9c5.2,0,9.3,4.2,9.3,9.3S573,280.9,567.8,280.9z
	"/>
<path class="st1" d="M437.5,280.9h-36.9c-5.2,0-9.3-4.2-9.3-9.3s4.2-9.3,9.3-9.3h36.9c5.2,0,9.3,4.2,9.3,9.3
	S442.6,280.9,437.5,280.9z"/>
<g>
	<path class="st7" d="M143,15.7c0,2.6-10,4.6-22.2,4.6s-22.2-2.1-22.2-4.6s10-4.6,22.2-4.6S143,13.2,143,15.7z"/>
	<ellipse class="st3" cx="120.8" cy="16.5" rx="12.8" ry="2.7"/>
</g>
<g>
	<path class="st7" d="M289.3,15.7c0,2.6-10,4.6-22.2,4.6s-22.2-2.1-22.2-4.6s10-4.6,22.2-4.6S289.3,13.2,289.3,15.7z"/>
	<ellipse class="st3" cx="267.1" cy="16.5" rx="12.8" ry="2.7"/>
</g>
<g>
	<path class="st7" d="M435.6,15.7c0,2.6-10,4.6-22.2,4.6c-12.3,0-22.2-2.1-22.2-4.6s10-4.6,22.2-4.6
		C425.7,11.1,435.6,13.2,435.6,15.7z"/>
	<ellipse class="st3" cx="413.4" cy="16.5" rx="12.8" ry="2.7"/>
</g>
<g>
	<path class="st7" d="M581.9,15.7c0,2.6-10,4.6-22.2,4.6s-22.2-2.1-22.2-4.6s10-4.6,22.2-4.6S581.9,13.2,581.9,15.7z"/>
	<ellipse class="st3" cx="559.7" cy="16.5" rx="12.8" ry="2.7"/>
</g>
<path class="st19" d="M59.2,2.6c0,0,5.3,68.8-8.8,126.1c-15.3,62.1-36,92.1-36,92.1S33.8,342,33.1,347c-0.7,5-10.8-0.9-10.8-0.9
	s6.7,9.4-0.7,10.6C9.7,358.6,3,354.9,3,354.9V2.6H59.2z"/>
<path class="st0" d="M23.1,231.3c-3.4,0-8.1-8.5-8.9-10.1L6.3,220c-0.2,0-0.3-0.2-0.3-0.4c0-0.2,0.2-0.3,0.4-0.3l7.9,1.2
	c1.4-0.3,10.9-2.4,12.3,1.1c0.3,0.8,0.3,1.5-0.2,1.9c-1.4,1.4-6.5-0.2-9.7-1.3c3,2.2,8,6.2,7.8,8.1c0,0.3-0.2,0.7-0.8,0.9
	C23.5,231.2,23.3,231.3,23.1,231.3L23.1,231.3z M15.4,222c2,3.5,5.9,9.4,8.1,8.5c0.3-0.1,0.3-0.2,0.3-0.4
	C24,228.7,19.1,224.7,15.4,222z M15.5,220.9c3.8,1.5,9.3,3.1,10.4,2c0.2-0.2,0.2-0.6,0-1.2C25,219.5,18.9,220.2,15.5,220.9
	L15.5,220.9z"/>
<path class="st0" d="M26.4,177.9c0,0-0.1,0-0.1,0c-0.2-0.1-0.3-0.3-0.2-0.5c0.2-0.4,15.7-37.9,22.3-84.1c0-0.2,0.2-0.3,0.4-0.3
	c0.2,0,0.3,0.2,0.3,0.4c-6.6,46.2-22.2,83.9-22.3,84.2C26.7,177.8,26.6,177.9,26.4,177.9L26.4,177.9z"/>
<path class="st0" d="M22.3,346.5c-0.2,0-0.3-0.1-0.3-0.3l-5.9-42.3c0-0.2,0.1-0.4,0.3-0.4c0.2,0,0.4,0.1,0.4,0.3l5.9,42.3
	C22.6,346.2,22.5,346.4,22.3,346.5L22.3,346.5L22.3,346.5z"/>
</svg>
