<?xml version="1.0" encoding="UTF-8"?><svg id="Calque_1" xmlns="http://www.w3.org/2000/svg" viewBox="0 0 409.02 223.63"><defs><style>.cls-1{fill:none;}.cls-2{fill:#010101;}.cls-3{fill:#fafafa;}.cls-4{fill:#2e307e;}.cls-5{fill:#4d6fa9;}</style></defs><g><line class="cls-1" x1="374.63" y1="142.39" x2="213.5" y2="27.99"/><rect class="cls-2" x="292.85" y="-13.59" width="2.48" height="197.62" transform="translate(54.33 275.65) rotate(-54.62)"/></g><g><line class="cls-1" x1="29.91" y1="142.39" x2="198.22" y2="25.58"/><rect class="cls-2" x="11.63" y="82.74" width="204.87" height="2.48" transform="translate(-27.53 80.02) rotate(-34.76)"/></g><rect class="cls-5" x="14.39" y="134.39" width="383.29" height="75.62"/><g><path class="cls-3" d="M38.22,188.32l3.22-33.33h11.3l3.16,33.33h-6.3l-.47-5.38h-4.02l-.41,5.38h-6.48Zm7.37-10.7h3.03l-1.46-16.95h-.31l-1.27,16.95h0Z"/><path class="cls-3" d="M66.68,188.62c-3.04,0-5.24-.76-6.58-2.27-1.34-1.52-2.01-3.93-2.01-7.24v-3.26h6.59v4.17c0,.77,.12,1.37,.35,1.81s.64,.65,1.22,.65,1.02-.17,1.26-.53c.23-.35,.35-.93,.35-1.74,0-1.02-.1-1.88-.31-2.57s-.55-1.34-1.05-1.97-1.19-1.35-2.07-2.19l-3-2.84c-2.24-2.1-3.35-4.52-3.35-7.24s.66-5.01,1.98-6.49c1.32-1.49,3.23-2.24,5.73-2.24,3.05,0,5.22,.82,6.5,2.44s1.92,4.1,1.92,7.43h-6.78v-2.29c0-.45-.13-.81-.39-1.06s-.61-.38-1.05-.38c-.53,0-.92,.15-1.16,.45s-.37,.68-.37,1.15,.12,.97,.38,1.52c.26,.54,.75,1.17,1.49,1.87l3.85,3.7c.77,.73,1.48,1.5,2.12,2.32,.64,.82,1.16,1.76,1.55,2.84s.59,2.39,.59,3.94c0,3.13-.58,5.59-1.73,7.36-1.16,1.77-3.17,2.66-6.03,2.66h0Z"/><path class="cls-3" d="M77.13,173.37v-4.39h9.77v4.39h-9.77Z"/><path class="cls-3" d="M93.21,188.32v-26.92h-3.96v-6.4h14.58v6.4h-3.96v26.92h-6.66Z"/><path class="cls-3" d="M114.21,188.62c-2.78,0-4.82-.78-6.14-2.34-1.31-1.56-1.97-3.85-1.97-6.88v-24.41h6.48v24.14c0,.55,.03,1.09,.09,1.6,.07,.51,.21,.93,.44,1.26s.59,.5,1.1,.5,.89-.17,1.11-.48c.23-.32,.37-.74,.43-1.26,.06-.52,.08-1.06,.08-1.61v-24.14h6.48v24.41c0,3.03-.66,5.32-1.97,6.88-1.31,1.56-3.36,2.34-6.14,2.34h.02Z"/><path class="cls-3" d="M135.59,188.32v-33.33h9.17c2.4,0,4.2,.67,5.41,2s1.82,3.28,1.82,5.84v15.6c0,3.16-.55,5.59-1.66,7.31s-3.04,2.57-5.8,2.57h-8.94Zm6.7-5.89h1.16c1.22,0,1.84-.59,1.84-1.78v-17.2c0-1.11-.15-1.82-.45-2.15-.3-.32-.9-.48-1.81-.48h-.74v21.61h0Z"/><path class="cls-3" d="M155.53,188.32v-33.33h13.33v6.44h-6.55v6.49h6.29v6.27h-6.29v7.63h6.99v6.49h-13.77Zm2.43-34.33v-4.22l8.99-4.13v6.57l-8.99,1.78h0Z"/><path class="cls-3" d="M179.69,188.62c-1.5,0-2.87-.29-4.11-.87-1.24-.58-2.22-1.44-2.95-2.58s-1.09-2.55-1.09-4.22v-8.35h6.59v7.95c0,.58,.12,1.05,.35,1.4,.23,.35,.61,.53,1.13,.53,1,0,1.49-.61,1.49-1.84v-25.66h6.72v24.99c0,1.77-.35,3.3-1.04,4.6s-1.65,2.29-2.88,3c-1.22,.7-2.63,1.05-4.22,1.05h0Z"/><path class="cls-3" d="M190.3,188.32l3.22-33.33h11.3l3.16,33.33h-6.3l-.47-5.38h-4.02l-.41,5.38h-6.48Zm13.31-34.33l-8.99-1.78v-6.57l8.99,4.13v4.22h0Zm-5.95,23.63h3.03l-1.46-16.95h-.31l-1.27,16.95h0Z"/><path class="cls-3" d="M220.74,188.32v-33.33h13.33v6.44h-6.55v6.49h6.29v6.27h-6.29v7.63h6.99v6.49h-13.77Z"/><path class="cls-3" d="M237.52,188.32v-33.33h6.86l3.07,15.97v-15.97h6.44v33.33h-6.51l-3.33-16.67v16.67h-6.52Z"/><path class="cls-3" d="M260.51,188.32v-26.92h-3.96v-6.4h14.58v6.4h-3.96v26.92h-6.66Z"/><path class="cls-3" d="M273.81,188.32v-33.33h13.33v6.44h-6.55v6.49h6.29v6.27h-6.29v7.63h6.99v6.49h-13.77Z"/><path class="cls-3" d="M290.58,188.32v-33.33h6.86l3.07,15.97v-15.97h6.44v33.33h-6.51l-3.33-16.67v16.67h-6.52Z"/><path class="cls-3" d="M310.71,188.32v-33.33h9.17c2.4,0,4.2,.67,5.41,2s1.82,3.28,1.82,5.84v15.6c0,3.16-.55,5.59-1.66,7.31s-3.04,2.57-5.8,2.57h-8.94Zm6.7-5.89h1.16c1.22,0,1.84-.59,1.84-1.78v-17.2c0-1.11-.15-1.82-.45-2.15s-.9-.48-1.81-.48h-.74v21.61h0Z"/><path class="cls-3" d="M338.35,188.62c-2.78,0-4.82-.78-6.14-2.34-1.31-1.56-1.97-3.85-1.97-6.88v-24.41h6.48v24.14c0,.55,.03,1.09,.09,1.6,.07,.51,.21,.93,.44,1.26s.59,.5,1.1,.5,.89-.17,1.11-.48c.23-.32,.37-.74,.43-1.26s.08-1.06,.08-1.61v-24.14h6.48v24.41c0,3.03-.66,5.32-1.97,6.88-1.31,1.56-3.36,2.34-6.14,2.34h.02Z"/><path class="cls-3" d="M360.67,179.7v-7.88c1.58,0,2.93-.08,4.06-.25,1.13-.17,2.05-.51,2.78-1.04s1.26-1.33,1.61-2.41c.35-1.07,.52-2.51,.52-4.32,0-.82-.11-1.54-.31-2.16s-.69-.92-1.45-.92c-.54,0-.94,.17-1.2,.52s-.41,.79-.49,1.33-.11,1.1-.11,1.67v2.76h-6.93v-4.81c0-2.55,.81-4.44,2.43-5.67,1.63-1.23,3.71-1.85,6.28-1.85,2.24,0,4.02,.4,5.31,1.21s2.21,1.99,2.76,3.53,.83,3.44,.83,5.67-.35,4.13-1.07,5.85c-.71,1.72-1.8,3.07-3.25,4.05s-3.28,1.48-5.5,1.48v3.22h-6.28Zm-.21,8.61v-5.64h6.78v5.64h-6.78Z"/></g><circle class="cls-4" cx="206.03" cy="22.05" r="12.23"/></svg>