<svg width="62" height="62" viewBox="0 0 62 62" fill="none" xmlns="http://www.w3.org/2000/svg">
<path d="M35.0921 29.1399C34.5961 29.1399 34.1001 28.8919 33.7281 28.5199L28.8921 22.6919C28.2721 21.9479 28.3961 20.8319 29.1401 20.2119C29.8841 19.5919 31.0001 19.7159 31.6201 20.4599L36.4561 26.2879C37.0761 27.0319 36.9521 28.1479 36.2081 28.7679C35.8361 29.0159 35.4641 29.1399 35.0921 29.1399Z" fill="#2F2D84"/>
<path d="M35.0921 30.38C34.2241 30.38 33.3561 30.008 32.7361 29.264L27.9001 23.436C27.4041 22.816 27.1561 22.072 27.2801 21.204C27.4041 20.46 27.7761 19.716 28.3961 19.22C29.0161 18.724 29.7601 18.476 30.6281 18.6C31.3721 18.724 32.1161 19.096 32.6121 19.716L37.4481 25.544C37.9441 26.164 38.1921 26.908 38.0681 27.776C37.9441 28.52 37.5721 29.264 36.9521 29.76C36.3321 30.132 35.7121 30.38 35.0921 30.38ZM30.2561 20.956C30.1321 20.956 30.0081 20.956 29.8841 21.08C29.7601 21.204 29.7601 21.328 29.7601 21.452C29.7601 21.576 29.7601 21.7 29.8841 21.824L34.7201 27.652C34.9681 27.9 35.2161 27.9 35.4641 27.652C35.5881 27.528 35.5881 27.404 35.5881 27.28C35.5881 27.156 35.5881 27.032 35.4641 26.908L30.6281 21.08C30.5041 21.08 30.3801 20.956 30.2561 20.956Z" fill="#2F2D84"/>
<path d="M30.2561 23.1881C29.8841 23.1881 29.5121 23.0641 29.1401 22.8161C28.3961 22.1961 28.2721 21.0801 28.8921 20.3361L33.7281 14.7561C34.3481 14.0121 35.4641 13.8881 36.2081 14.5081C36.9521 15.1281 37.0761 16.2441 36.4561 16.9881L31.6201 22.5681C31.2481 23.0641 30.7521 23.1881 30.2561 23.1881Z" fill="#2F2D84"/>
<path d="M30.256 24.428C29.512 24.428 28.892 24.18 28.272 23.684C27.652 23.188 27.28 22.444 27.28 21.7C27.156 20.956 27.404 20.088 28.024 19.468L32.86 13.888C33.356 13.268 34.1 12.896 34.968 12.896C35.712 12.896 36.58 13.144 37.076 13.64C37.696 14.136 38.068 14.88 38.068 15.624C38.192 16.368 37.944 17.236 37.324 17.856L32.488 23.436C31.992 24.056 31.124 24.428 30.256 24.428ZM35.092 15.376C34.968 15.376 34.968 15.376 35.092 15.376C34.968 15.376 34.844 15.376 34.72 15.5L29.884 21.08C29.76 21.328 29.76 21.452 29.76 21.576C29.76 21.7 29.76 21.824 29.884 21.948C30.132 22.072 30.38 22.072 30.628 21.948L35.464 16.244C35.588 16.12 35.588 15.996 35.588 15.872C35.588 15.748 35.588 15.624 35.464 15.5C35.216 15.376 35.092 15.376 35.092 15.376Z" fill="#2F2D84"/>
<path d="M40.3001 46.748H22.9401C10.2921 46.004 10.4161 39.556 10.5401 33.728C10.5401 33.108 10.5401 32.488 10.5401 31.744C10.5401 25.792 15.0041 21.824 19.2201 21.7H19.3441C23.0641 21.7 26.9081 24.552 27.0321 32.612C27.0321 33.604 26.2881 34.348 25.2961 34.348C24.3041 34.348 23.5601 33.604 23.5601 32.612C23.4361 27.9 21.8241 25.172 19.3441 25.172C16.8641 25.172 14.0121 27.9 14.1361 31.62C14.1361 32.364 14.1361 32.984 14.1361 33.604C14.0121 39.308 14.0121 42.532 23.1881 43.028H40.3001C44.8881 43.028 48.6081 38.688 48.6081 32.984C48.6081 27.28 45.0121 22.94 40.3001 22.94H31.6201C30.6281 22.94 29.8841 22.196 29.8841 21.204C29.8841 20.212 30.6281 19.468 31.6201 19.468H40.3001C46.8721 19.468 52.0801 25.42 52.0801 32.984C51.9561 40.796 46.8721 46.748 40.3001 46.748Z" fill="#2F2D84"/>
<path d="M40.3002 47.9881H22.9402C9.05219 47.2441 9.17619 39.4321 9.30019 33.7281C9.30019 33.1081 9.30019 32.4881 9.30019 31.8681C9.17619 25.1721 14.3842 20.7081 19.2202 20.5841C23.5602 20.5841 28.1482 23.8081 28.2722 32.7361C28.2722 34.3481 27.0322 35.7121 25.2962 35.8361C23.5602 35.8361 22.3202 34.5961 22.1962 32.8601C22.1962 29.8841 21.3282 26.5361 19.2202 26.5361C17.4842 26.5361 15.1282 28.5201 15.1282 31.7441C15.1282 32.4881 15.1282 33.1081 15.1282 33.8521C15.0042 39.4321 15.0042 41.5401 23.0642 42.0361H40.1762C44.1442 42.0361 47.2442 38.1921 47.2442 33.2321C47.2442 28.2721 44.1442 24.4281 40.1762 24.4281H31.4962C29.8842 24.4281 28.5202 23.0641 28.5202 21.4521C28.5202 19.8401 29.8842 18.4761 31.4962 18.4761H40.1762C47.4922 18.4761 53.1962 24.9241 53.1962 33.2321C53.1962 37.4481 51.5842 41.5401 48.8562 44.2681C46.5002 46.6241 43.5242 47.9881 40.3002 47.9881ZM19.3442 23.0641C15.6242 23.0641 11.7802 26.6601 11.7802 31.7441C11.7802 32.3641 11.7802 33.1081 11.7802 33.7281C11.6562 39.4321 11.6562 44.7641 23.0642 45.3841H40.3002C42.9042 45.3841 45.2602 44.3921 47.2442 42.4081C49.6002 40.0521 50.8402 36.7041 50.8402 33.1081C50.8402 26.2881 46.2522 20.8321 40.3002 20.8321H31.6202C31.3722 20.8321 31.1242 21.0801 31.1242 21.3281C31.1242 21.5761 31.3722 21.8241 31.6202 21.8241H40.3002C45.6322 21.8241 49.8482 26.7841 49.8482 33.1081C49.8482 39.4321 45.6322 44.3921 40.3002 44.3921H23.0642C13.0202 43.8961 12.6482 40.1761 12.7722 33.7281C12.7722 33.1081 12.7722 32.3641 12.7722 31.7441C12.7722 27.1561 16.1202 24.0561 19.2202 24.0561C22.5682 24.0561 24.6762 27.2801 24.8002 32.7361C24.8002 32.9841 25.0482 33.2321 25.2962 33.2321C25.5442 33.2321 25.7922 32.9841 25.7922 32.7361C25.6682 26.6601 23.3122 23.0641 19.3442 23.0641Z" fill="#2F2D84"/>
</svg>
