<svg width="76" height="72" viewBox="0 0 76 72" fill="none" xmlns="http://www.w3.org/2000/svg">
<path d="M42.6485 33.84C42.046 33.84 41.4435 33.552 40.9917 33.12L35.1174 26.352C34.3643 25.488 34.515 24.192 35.4187 23.472C36.3224 22.752 37.678 22.896 38.4311 23.76L44.3053 30.528C45.0584 31.392 44.9078 32.688 44.0041 33.408C43.5522 33.696 43.1003 33.84 42.6485 33.84Z" fill="#2F2D84"/>
<path d="M42.6486 35.2799C41.5942 35.2799 40.5399 34.8479 39.7868 33.9839L33.9126 27.2159C33.3101 26.4959 33.0089 25.6319 33.1595 24.6239C33.3101 23.7599 33.762 22.8959 34.5151 22.3199C35.2682 21.7439 36.1719 21.4559 37.2262 21.5999C38.13 21.7439 39.0337 22.1759 39.6362 22.8959L45.5104 29.6639C46.1129 30.3839 46.4141 31.2479 46.2635 32.2559C46.1129 33.1199 45.661 33.9839 44.9079 34.5599C44.1548 34.9919 43.4017 35.2799 42.6486 35.2799ZM36.7744 24.3359C36.6238 24.3359 36.4731 24.3359 36.3225 24.4799C36.1719 24.6239 36.1719 24.7679 36.1719 24.9119C36.1719 25.0559 36.1719 25.1999 36.3225 25.3439L42.1967 32.1119C42.498 32.3999 42.7992 32.3999 43.1004 32.1119C43.2511 31.9679 43.2511 31.8239 43.2511 31.6799C43.2511 31.5359 43.2511 31.3919 43.1004 31.2479L37.2262 24.4799C37.0756 24.4799 36.925 24.3359 36.7744 24.3359Z" fill="#2F2D84"/>
<path d="M36.7748 26.928C36.3229 26.928 35.871 26.784 35.4192 26.496C34.5155 25.776 34.3648 24.48 35.1179 23.616L40.9921 17.136C41.7453 16.272 43.1008 16.128 44.0046 16.848C44.9083 17.568 45.0589 18.864 44.3058 19.728L38.4316 26.208C37.9797 26.784 37.3772 26.928 36.7748 26.928Z" fill="#2F2D84"/>
<path d="M36.7746 28.3681C35.8709 28.3681 35.1178 28.0801 34.3647 27.5041C33.6116 26.9281 33.1597 26.0641 33.1597 25.2001C33.0091 24.3361 33.3103 23.3281 34.0635 22.6081L39.9377 16.1281C40.5401 15.4081 41.4439 14.9761 42.4982 14.9761C43.4019 14.9761 44.4563 15.2641 45.0588 15.8401C45.8119 16.4161 46.2637 17.2801 46.2637 18.1441C46.4143 19.0081 46.1131 20.0161 45.36 20.7361L39.4858 27.2161C38.8833 27.9361 37.829 28.3681 36.7746 28.3681ZM42.6488 17.8561C42.4982 17.8561 42.4982 17.8561 42.6488 17.8561C42.4982 17.8561 42.3476 17.8561 42.197 18.0001L36.3228 24.4801C36.1721 24.7681 36.1721 24.9121 36.1721 25.0561C36.1721 25.2001 36.1721 25.3441 36.3228 25.4881C36.624 25.6321 36.9252 25.6321 37.2265 25.4881L43.1007 18.8641C43.2513 18.7201 43.2513 18.5761 43.2513 18.4321C43.2513 18.2881 43.2513 18.1441 43.1007 18.0001C42.7995 17.8561 42.6488 17.8561 42.6488 17.8561Z" fill="#2F2D84"/>
<path d="M48.9745 54.2882H27.8877C12.5243 53.4242 12.675 45.9362 12.8256 39.1682C12.8256 38.4482 12.8256 37.7282 12.8256 36.8642C12.8256 29.9522 18.2479 25.3442 23.369 25.2002H23.5197C28.0383 25.2002 32.7075 28.5122 32.8581 37.8722C32.8581 39.0242 31.9544 39.8882 30.7494 39.8882C29.5445 39.8882 28.6408 39.0242 28.6408 37.8722C28.4901 32.4002 26.5321 29.2322 23.5197 29.2322C20.5072 29.2322 17.043 32.4002 17.1936 36.7202C17.1936 37.5842 17.1936 38.3042 17.1936 39.0242C17.043 45.6482 17.043 49.3922 28.1889 49.9682H48.9745C54.5475 49.9682 59.0661 44.9282 59.0661 38.3042C59.0661 31.6802 54.6981 26.6402 48.9745 26.6402H38.4311C37.2261 26.6402 36.3224 25.7762 36.3224 24.6242C36.3224 23.4722 37.2261 22.6082 38.4311 22.6082H48.9745C56.9574 22.6082 63.2835 29.5202 63.2835 38.3042C63.1329 47.3762 56.9574 54.2882 48.9745 54.2882Z" fill="#2F2D84"/>
<path d="M48.9745 55.7281H27.8876C11.0181 54.8641 11.1687 45.7921 11.3194 39.1681C11.3194 38.4481 11.3194 37.7281 11.3194 37.0081C11.1687 29.2321 17.4948 24.0481 23.369 23.9041C28.6407 23.9041 34.2137 27.6481 34.3643 38.0161C34.3643 39.8881 32.8581 41.4721 30.7494 41.6161C28.6407 41.6161 27.1345 40.1761 26.9839 38.1601C26.9839 34.7041 25.9296 30.8161 23.369 30.8161C21.2603 30.8161 18.3985 33.1201 18.3985 36.8641C18.3985 37.7281 18.3985 38.4481 18.3985 39.3121C18.2479 45.7921 18.2479 48.2401 28.0383 48.8161H48.8239C53.6438 48.8161 57.4093 44.3521 57.4093 38.5921C57.4093 32.8321 53.6438 28.3681 48.8239 28.3681H38.2805C36.3224 28.3681 34.6656 26.7841 34.6656 24.9121C34.6656 23.0401 36.3224 21.4561 38.2805 21.4561H48.8239C57.7105 21.4561 64.6391 28.9441 64.6391 38.5921C64.6391 43.4881 62.681 48.2401 59.3674 51.4081C56.5056 54.1441 52.8907 55.7281 48.9745 55.7281ZM23.5196 26.7841C19.001 26.7841 14.3318 30.9601 14.3318 36.8641C14.3318 37.5841 14.3318 38.4481 14.3318 39.1681C14.1811 45.7921 14.1811 51.9841 28.0383 52.7041H48.9745C52.1376 52.7041 54.9994 51.5521 57.4093 49.2481C60.2711 46.5121 61.7773 42.6241 61.7773 38.4481C61.7773 30.5281 56.2043 24.1921 48.9745 24.1921H38.4311C38.1298 24.1921 37.8286 24.4801 37.8286 24.7681C37.8286 25.0561 38.1298 25.3441 38.4311 25.3441H48.9745C55.4512 25.3441 60.5723 31.1041 60.5723 38.4481C60.5723 45.7921 55.4512 51.5521 48.9745 51.5521H28.0383C15.838 50.9761 15.3861 46.6561 15.5367 39.1681C15.5367 38.4481 15.5367 37.5841 15.5367 36.8641C15.5367 31.5361 19.6035 27.9361 23.369 27.9361C27.4358 27.9361 29.9963 31.6801 30.1469 38.0161C30.1469 38.3041 30.4482 38.5921 30.7494 38.5921C31.0507 38.5921 31.3519 38.3041 31.3519 38.0161C31.2013 30.9601 28.3395 26.7841 23.5196 26.7841Z" fill="#2F2D84"/>
</svg>
