<svg width="77" height="72" viewBox="0 0 77 72" fill="none" xmlns="http://www.w3.org/2000/svg">
<path d="M43.3956 33.84C42.7931 33.84 42.1906 33.552 41.7387 33.12L35.8645 26.352C35.1114 25.488 35.262 24.192 36.1658 23.472C37.0695 22.752 38.4251 22.896 39.1782 23.76L45.0524 30.528C45.8055 31.392 45.6549 32.688 44.7511 33.408C44.2993 33.696 43.8474 33.84 43.3956 33.84Z" fill="#FF8EBF"/>
<path d="M43.3957 35.2799C42.3413 35.2799 41.287 34.8479 40.5339 33.9839L34.6597 27.2159C34.0572 26.4959 33.7559 25.6319 33.9065 24.6239C34.0572 23.7599 34.509 22.8959 35.2621 22.3199C36.0152 21.7439 36.919 21.4559 37.9733 21.5999C38.877 21.7439 39.7808 22.1759 40.3832 22.8959L46.2574 29.6639C46.8599 30.3839 47.1612 31.2479 47.0105 32.2559C46.8599 33.1199 46.4081 33.9839 45.655 34.5599C44.9019 34.9919 44.1488 35.2799 43.3957 35.2799ZM37.5214 24.3359C37.3708 24.3359 37.2202 24.3359 37.0696 24.4799C36.919 24.6239 36.919 24.7679 36.919 24.9119C36.919 25.0559 36.919 25.1999 37.0696 25.3439L42.9438 32.1119C43.245 32.3999 43.5463 32.3999 43.8475 32.1119C43.9981 31.9679 43.9981 31.8239 43.9981 31.6799C43.9981 31.5359 43.9981 31.3919 43.8475 31.2479L37.9733 24.4799C37.8227 24.4799 37.6721 24.3359 37.5214 24.3359Z" fill="#FF8EBF"/>
<path d="M37.5218 26.928C37.07 26.928 36.6181 26.784 36.1663 26.496C35.2625 25.776 35.1119 24.48 35.865 23.616L41.7392 17.136C42.4923 16.272 43.8479 16.128 44.7516 16.848C45.6554 17.568 45.806 18.864 45.0529 19.728L39.1787 26.208C38.7268 26.784 38.1243 26.928 37.5218 26.928Z" fill="#FF8EBF"/>
<path d="M37.5217 28.3681C36.618 28.3681 35.8649 28.0801 35.1118 27.5041C34.3587 26.9281 33.9068 26.0641 33.9068 25.2001C33.7562 24.3361 34.0574 23.3281 34.8105 22.6081L40.6847 16.1281C41.2872 15.4081 42.1909 14.9761 43.2453 14.9761C44.149 14.9761 45.2033 15.2641 45.8058 15.8401C46.5589 16.4161 47.0108 17.2801 47.0108 18.1441C47.1614 19.0081 46.8602 20.0161 46.1071 20.7361L40.2329 27.2161C39.6304 27.9361 38.576 28.3681 37.5217 28.3681ZM43.3959 17.8561C43.2453 17.8561 43.2453 17.8561 43.3959 17.8561C43.2453 17.8561 43.0947 17.8561 42.944 18.0001L37.0698 24.4801C36.9192 24.7681 36.9192 24.9121 36.9192 25.0561C36.9192 25.2001 36.9192 25.3441 37.0698 25.4881C37.3711 25.6321 37.6723 25.6321 37.9736 25.4881L43.8478 18.8641C43.9984 18.7201 43.9984 18.5761 43.9984 18.4321C43.9984 18.2881 43.9984 18.1441 43.8478 18.0001C43.5465 17.8561 43.3959 17.8561 43.3959 17.8561Z" fill="#FF8EBF"/>
<path d="M49.7216 54.2882H28.6347C13.2714 53.4242 13.422 45.9362 13.5727 39.1682C13.5727 38.4482 13.5727 37.7282 13.5727 36.8642C13.5727 29.9522 18.995 25.3442 24.1161 25.2002H24.2667C28.7853 25.2002 33.4546 28.5122 33.6052 37.8722C33.6052 39.0242 32.7015 39.8882 31.4965 39.8882C30.2915 39.8882 29.3878 39.0242 29.3878 37.8722C29.2372 32.4002 27.2791 29.2322 24.2667 29.2322C21.2543 29.2322 17.79 32.4002 17.9407 36.7202C17.9407 37.5842 17.9407 38.3042 17.9407 39.0242C17.79 45.6482 17.79 49.3922 28.936 49.9682H49.7216C55.2946 49.9682 59.8132 44.9282 59.8132 38.3042C59.8132 31.6802 55.4452 26.6402 49.7216 26.6402H39.1782C37.9732 26.6402 37.0695 25.7762 37.0695 24.6242C37.0695 23.4722 37.9732 22.6082 39.1782 22.6082H49.7216C57.7045 22.6082 64.0306 29.5202 64.0306 38.3042C63.88 47.3762 57.7045 54.2882 49.7216 54.2882Z" fill="#FF8EBF"/>
<path d="M49.7216 55.7281H28.6347C11.7652 54.8641 11.9158 45.7921 12.0664 39.1681C12.0664 38.4481 12.0664 37.7281 12.0664 37.0081C11.9158 29.2321 18.2419 24.0481 24.1161 23.9041C29.3878 23.9041 34.9608 27.6481 35.1114 38.0161C35.1114 39.8881 33.6052 41.4721 31.4965 41.6161C29.3878 41.6161 27.8816 40.1761 27.731 38.1601C27.731 34.7041 26.6766 30.8161 24.1161 30.8161C22.0074 30.8161 19.1456 33.1201 19.1456 36.8641C19.1456 37.7281 19.1456 38.4481 19.1456 39.3121C18.995 45.7921 18.995 48.2401 28.7853 48.8161H49.571C54.3908 48.8161 58.1564 44.3521 58.1564 38.5921C58.1564 32.8321 54.3908 28.3681 49.571 28.3681H39.0275C37.0695 28.3681 35.4126 26.7841 35.4126 24.9121C35.4126 23.0401 37.0695 21.4561 39.0275 21.4561H49.571C58.4576 21.4561 65.3862 28.9441 65.3862 38.5921C65.3862 43.4881 63.4281 48.2401 60.1144 51.4081C57.2526 54.1441 53.6377 55.7281 49.7216 55.7281ZM24.2667 26.7841C19.7481 26.7841 15.0788 30.9601 15.0788 36.8641C15.0788 37.5841 15.0788 38.4481 15.0788 39.1681C14.9282 45.7921 14.9282 51.9841 28.7853 52.7041H49.7216C52.8846 52.7041 55.7464 51.5521 58.1564 49.2481C61.0182 46.5121 62.5244 42.6241 62.5244 38.4481C62.5244 30.5281 56.9514 24.1921 49.7216 24.1921H39.1782C38.8769 24.1921 38.5757 24.4801 38.5757 24.7681C38.5757 25.0561 38.8769 25.3441 39.1782 25.3441H49.7216C56.1983 25.3441 61.3194 31.1041 61.3194 38.4481C61.3194 45.7921 56.1983 51.5521 49.7216 51.5521H28.7853C16.585 50.9761 16.1332 46.6561 16.2838 39.1681C16.2838 38.4481 16.2838 37.5841 16.2838 36.8641C16.2838 31.5361 20.3506 27.9361 24.1161 27.9361C28.1828 27.9361 30.7434 31.6801 30.894 38.0161C30.894 38.3041 31.1953 38.5921 31.4965 38.5921C31.7977 38.5921 32.099 38.3041 32.099 38.0161C31.9484 30.9601 29.0866 26.7841 24.2667 26.7841Z" fill="#FF8EBF"/>
</svg>
