<svg width="354" height="354" viewBox="0 0 354 354" fill="none" xmlns="http://www.w3.org/2000/svg">
<g clip-path="url(#clip0_1478_10218)">
<path opacity="0.2" d="M176.55 353.05C274.028 353.05 353.05 274.028 353.05 176.55C353.05 79.0718 274.028 0.0500488 176.55 0.0500488C79.0715 0.0500488 0.0498047 79.0718 0.0498047 176.55C0.0498047 274.028 79.0715 353.05 176.55 353.05Z" fill="#D883B6"/>
<path d="M176.55 353.09C79.2 353.09 0 273.89 0 176.55C0 79.21 79.2 0 176.55 0C273.9 0 353.1 79.2 353.1 176.55C353.1 273.9 273.9 353.1 176.55 353.1V353.09ZM176.55 1C79.75 1 1 79.75 1 176.55C1 273.35 79.75 352.1 176.55 352.1C273.35 352.1 352.1 273.35 352.1 176.55C352.1 79.75 273.34 1 176.55 1Z" fill="white"/>
<path d="M256.16 41.4499C269.89 46.6199 299.66 59.8599 320.52 95.2299C321.47 96.8399 335.89 121.77 327.48 130.88C324.29 134.34 317.85 135.48 313.88 133.18C309.22 130.48 309.29 123.81 307.83 115.32C307.83 115.32 305.85 103.77 297.71 85.7899C286.24 60.4499 256.16 41.4399 256.16 41.4399V41.4499Z" fill="white"/>
<path d="M328.04 143.98C325.88 142.74 322.61 143.73 321.71 146.28C320.84 148.75 322.57 151.65 325.16 152.03C327.49 152.37 329.71 150.55 330.05 148.29C330.3 146.62 329.51 144.82 328.04 143.98Z" fill="#F4F6F9"/>
</g>
<defs>
<clipPath id="clip0_1478_10218">
<rect width="353.09" height="353.09" fill="white"/>
</clipPath>
</defs>
</svg>
