<?xml version="1.0" encoding="UTF-8"?><svg id="Calque_1" xmlns="http://www.w3.org/2000/svg" viewBox="0 0 314.6 892.9"><defs><style>.cls-1{fill:#f5a254;}.cls-2{fill:#fff;}.cls-3{fill:#c9584f;}.cls-4{fill:#1a1732;}.cls-5{fill:#5c292f;}.cls-6{fill:#7579b8;}.cls-7{fill:#4d6fa9;}.cls-8{fill:#885055;opacity:.2;}.cls-8,.cls-9{isolation:isolate;}</style></defs><g id="Calque_1-2"><g id="pancarte_4"><path class="cls-5" d="M88.2,415.7l15.7,3.5L183.6,57.3c1.5-6.7-.8-13-5.2-13.9h0c-4.4-1-9.1,3.7-10.6,10.5L88.2,415.7Z"/><g id="pencarte_4"><polygon class="cls-2" points="30 180.6 271.6 226.7 296.6 86.1 56.9 36.9 30 180.6"/><g class="cls-9"><path class="cls-4" d="M102.18,115.87l7.75-37.36-5.49-1.14,1.84-8.88,20.23,4.19-1.84,8.88-5.49-1.14-7.75,37.36-9.25-1.92Z"/><path class="cls-4" d="M127.13,86.95l3.02-5.84-3.34-.69,1.62-7.83,9.83,2.04-1.57,7.59-4.01,5.88-5.54-1.15Z"/><path class="cls-4" d="M142.76,124.72c-2.8-.58-4.93-1.57-6.37-2.97-1.45-1.4-2.32-3.16-2.63-5.29-.31-2.13-.17-4.58,.4-7.37l3.28-15.84c.76-3.66,2.38-6.21,4.88-7.66,2.49-1.45,5.58-1.79,9.26-1.03,7.57,1.57,10.58,6.07,9.04,13.49l-.59,2.87c-.72,3.47-1.24,5.79-1.55,6.97l-13.66-2.83-1.58,7.62c-.15,.7-.24,1.4-.3,2.09s.03,1.29,.25,1.79c.22,.5,.67,.82,1.35,.96,.98,.2,1.68-.09,2.1-.89,.42-.8,.77-1.88,1.06-3.25l.78-3.78,9.35,1.94-.46,2.23c-.61,2.94-1.48,5.33-2.62,7.17-1.14,1.84-2.68,3.08-4.61,3.73-1.93,.65-4.39,.67-7.37,.05Zm2.97-24.35l4.47,.93,1.1-5.31c.29-1.42,.33-2.48,.11-3.17-.22-.69-.68-1.11-1.38-1.26-.75-.16-1.4,.02-1.93,.53-.54,.51-.96,1.5-1.26,2.97l-1.1,5.31Z"/><path class="cls-4" d="M168.8,130.12c-7.78-1.61-10.85-6.36-9.21-14.24l.65-3.13,9.46,1.96-.96,4.62c-.19,.89-.16,1.63,.09,2.21,.24,.58,.75,.95,1.52,1.11,1.37,.28,2.26-.6,2.69-2.65,.36-1.72,.26-3.07-.28-4.07-.54-1-1.25-2-2.12-3l-4.22-4.9c-1.32-1.55-2.25-3.1-2.79-4.63s-.56-3.52-.05-5.96c.47-2.26,1.39-4.01,2.78-5.26,1.38-1.25,3.04-2.05,4.96-2.4,1.93-.35,3.92-.31,5.99,.12,7.64,1.58,10.67,6.18,9.09,13.8l-.15,.74-9.72-2.02,.31-1.5c.16-.79,.19-1.58,.07-2.37-.12-.79-.57-1.27-1.36-1.43-1.33-.28-2.14,.29-2.43,1.69-.29,1.42,.04,2.65,.99,3.69l4.95,5.47c1.55,1.69,2.75,3.57,3.62,5.63,.86,2.06,.98,4.59,.36,7.58-.77,3.71-2.41,6.32-4.93,7.83-2.51,1.51-5.61,1.88-9.29,1.12Z"/></g><g class="cls-9"><path class="cls-6" d="M99.17,160.73c-6.2-1.29-8.38-6.37-6.54-15.24l3.88-18.71c1.68-8.1,6.07-11.42,13.17-9.95,2.93,.61,5.05,1.66,6.37,3.16s2.04,3.44,2.16,5.81c.12,2.38-.15,5.18-.82,8.42l-8.48-1.76,.8-3.85c.19-.94,.23-1.75,.11-2.43-.12-.69-.59-1.11-1.39-1.28-1-.21-1.73,0-2.19,.6-.46,.61-.77,1.31-.94,2.12l-4.36,21.03c-.24,1.17-.29,2.15-.13,2.94,.15,.79,.67,1.28,1.56,1.47,.92,.19,1.61-.05,2.06-.72,.46-.67,.81-1.6,1.06-2.8l1.28-6.19-2.32-.48,1.55-7.5,10.6,2.2-5.24,25.27-3.48-.72-.72-3.96c-2.07,2.38-4.73,3.24-7.99,2.56Z"/><path class="cls-6" d="M114.79,163.55l9-43.4,13.31,2.76c2.22,.46,3.79,1.31,4.72,2.56s1.39,2.82,1.4,4.71c0,1.9-.24,4.07-.75,6.52-.49,2.37-1.18,4.2-2.08,5.49-.89,1.29-2.23,2.03-4,2.23,1.31,.56,2.12,1.44,2.45,2.63,.33,1.19,.31,2.64-.04,4.35l-3.4,16.42-8.56-1.77,3.52-16.99c.26-1.27,.17-2.1-.29-2.52s-1.26-.74-2.41-.97l-4.1,19.8-8.78-1.82Zm14.49-25.49l2.1,.43c1.2,.25,2.07-.93,2.61-3.55,.35-1.69,.45-2.83,.29-3.41-.15-.58-.59-.95-1.32-1.1l-2.02-.42-1.67,8.04Z"/><path class="cls-6" d="M149.13,171.09c-3.47-.72-5.9-2.32-7.3-4.79-1.4-2.48-1.69-5.69-.87-9.66l4.27-20.61c.77-3.71,2.26-6.35,4.48-7.89s5.07-1.96,8.58-1.23c3.5,.73,5.96,2.24,7.38,4.54,1.42,2.3,1.74,5.31,.97,9.02l-4.27,20.61c-.82,3.96-2.37,6.8-4.63,8.52-2.27,1.72-5.14,2.21-8.6,1.5Zm1.73-7.97c1.31,.27,2.24-.87,2.76-3.41l4.39-21.18c.44-2.14,.02-3.34-1.26-3.6-1.45-.3-2.4,.64-2.85,2.83l-4.39,21.16c-.28,1.35-.32,2.35-.11,3,.21,.65,.69,1.06,1.45,1.21Z"/><path class="cls-6" d="M173.64,176.17c-3.96-.82-6.61-2.4-7.95-4.74-1.34-2.33-1.57-5.66-.67-9.96l.88-4.24,8.58,1.78-1.12,5.42c-.21,1-.22,1.82-.03,2.45,.19,.63,.66,1.02,1.41,1.18,.79,.16,1.38,.05,1.78-.35,.4-.4,.71-1.12,.93-2.17,.28-1.33,.38-2.47,.3-3.42-.08-.95-.36-1.9-.84-2.85-.48-.95-1.18-2.08-2.11-3.41l-3.13-4.5c-2.34-3.35-3.14-6.79-2.41-10.32,.77-3.7,2.21-6.34,4.33-7.92s4.81-2.04,8.06-1.36c3.98,.82,6.58,2.47,7.81,4.94,1.23,2.47,1.39,5.86,.5,10.18l-8.83-1.83,.62-2.98c.12-.59,.05-1.09-.22-1.49-.27-.4-.69-.66-1.27-.78-.69-.14-1.24-.05-1.64,.26-.4,.32-.66,.78-.79,1.39s-.1,1.3,.08,2.08c.18,.78,.66,1.72,1.44,2.84l4.01,5.85c.81,1.16,1.52,2.36,2.14,3.59,.62,1.23,1.04,2.61,1.25,4.12,.22,1.51,.12,3.28-.3,5.3-.85,4.08-2.26,7.11-4.24,9.11-1.98,2-4.84,2.61-8.57,1.84Z"/><path class="cls-6" d="M196.94,181c-3.96-.82-6.61-2.4-7.95-4.74-1.34-2.33-1.57-5.66-.67-9.96l.88-4.24,8.58,1.78-1.12,5.42c-.21,1-.22,1.82-.03,2.45,.19,.63,.66,1.02,1.41,1.18,.79,.16,1.38,.05,1.78-.35,.4-.4,.71-1.12,.93-2.17,.28-1.33,.38-2.47,.3-3.42-.08-.95-.36-1.9-.84-2.85-.48-.95-1.18-2.08-2.11-3.41l-3.13-4.5c-2.34-3.35-3.14-6.79-2.41-10.32,.77-3.7,2.21-6.34,4.33-7.92,2.12-1.58,4.81-2.04,8.06-1.36,3.98,.83,6.58,2.47,7.81,4.94,1.23,2.47,1.39,5.86,.5,10.18l-8.83-1.83,.62-2.98c.12-.59,.05-1.09-.22-1.49-.27-.4-.69-.66-1.27-.78-.69-.14-1.24-.05-1.64,.26-.4,.32-.66,.78-.79,1.39-.13,.61-.1,1.3,.08,2.07,.18,.78,.66,1.72,1.44,2.85l4.01,5.84c.81,1.16,1.52,2.36,2.14,3.59,.62,1.23,1.04,2.61,1.25,4.12,.22,1.51,.12,3.28-.3,5.3-.85,4.08-2.26,7.12-4.24,9.11-1.98,2-4.84,2.61-8.57,1.84Z"/><path class="cls-6" d="M210.01,183.3l9-43.4,17.36,3.6-1.74,8.38-8.53-1.77-1.75,8.46,8.19,1.7-1.69,8.16-8.19-1.7-2.06,9.94,9.1,1.89-1.75,8.46-17.93-3.72Z"/></g></g><path class="cls-3" d="M142,407.5c0,18.6,4.5,71.3,4.5,71.3,0,0-43.3,4.9-47.4,1-2.4-2.2,4.7-71.3,4.7-71.3,0,0-18.4-8.9-20.5-17-1.4-5.6,3.1-8.6,3.1-8.6,0,0-4.8-3.1-3.9-9.2,.7-4.7,6.8-6.3,6.8-6.3,0,0-5.3-2.9-4.3-8.5s8.7-7.3,8.7-7.3c0,0-6-5.5-2.6-9.5,5.3-6.2,38.6,5.2,38.6,5.2,0,0,13.8,10.2,16.8,18,0,0,4.4,21.3-4.4,37.6-.1,1.1-.1,2.7-.1,4.6h0Z"/><path class="cls-8" d="M142.1,402.9c-.1,1.1-.1,2.6-.1,4.6-7.5,3.3-19.3,5.6-19.3,5.6l-1.5,16.7s-.5-7-1.4-19c6.5,.3,22.3-7.9,22.3-7.9Z"/><path class="cls-1" d="M96,479l2,395.4h71.4l-21.9-406c.1,0-29.7-10.7-51.5,10.6h0Z"/><path class="cls-7" d="M94.8,468.3c-2.7,2.9-4.3,29.4-.7,30.6,3.6,1.2,54.7-3.1,57.2-4.8,2.4-1.7-1.1-28-3.6-30.7s-47.7-.7-52.9,4.9h0Z"/><path class="cls-2" d="M105.5,483c0,3-1.7,5.4-3.8,5.4s-3.7-2.4-3.7-5.4,1.7-5.4,3.8-5.4,3.7,2.4,3.7,5.4Z"/><path class="cls-8" d="M110,341.9c-.1,0,5.3,.9,5.7,5.5,.3,2.8-1.4,6.1-5.5,5.6,4.7,2.6,5.1,5.6,4.7,7.8-.8,4.7-5.7,6.4-5.7,6.4,0,0,5.5,2.7,4.5,8-1.1,5.9-7.5,6.6-7.5,6.6,0,0,6.7,.6,6.1,6.4-.5,5.8-11.4,7.2-11.4,7.2,0,0,13.5,1,19.3,2.3-5.1-7.8,1.5-24.6,9.4-31.3-9.1-6.5-4.4-19.9-4.4-19.9,0,0-10.1-4.7-15.2-4.6h0Z"/><path class="cls-5" d="M110,341.9c2.8,0,7.1,1.3,10.4,2.6l-6.6,29.8c.2-4.6-4.6-7-4.6-7,0,0,4.9-1.8,5.7-6.4,.4-2.2,.1-5.2-4.7-7.8,4.1,.5,5.9-2.8,5.5-5.6-.7-4.5-5.8-5.6-5.7-5.6h0Z"/><path class="cls-5" d="M109.9,392.1l-6,27.1c-1.5-.1-11,2.5-15.7-3.5,2.8-12.5,4.2-19.4,4.2-19.4,4,.1,8.5-1.9,8.5-1.9,0,0,5.7,.3,9-2.3h0Z"/><path class="cls-5" d="M106.2,381.8s5.4-.6,7.1-5.2l-1.8,8.1c-1.6-2.5-5.3-2.8-5.3-2.9h0Z"/><path class="cls-3" d="M146.5,365.3s-3.6-24-12-27.7-20.7-6-22.4-2.8c-.9,1.7-.5,8,11.5,10.8-1.5,6.9,.6,13.8,.6,13.8,0,0-12.3,9.2-5.3,40.6"/><path class="cls-3" d="M108.8,343.5l-1.1,7s6,1.4,6.7-1.8-2.9-5-5.6-5.2h0Z"/><path class="cls-3" d="M107.2,356.3l-1.6,7.3s6,1.6,7-2.5-5.4-4.8-5.4-4.8Z"/><path class="cls-3" d="M106.3,370.6l-.7,8.2s5.7,.6,6-3.7c.2-4.4-5.3-4.5-5.3-4.5h0Z"/><path class="cls-3" d="M105.6,384.2l-.9,6.7s5.3,.1,5.6-3c.2-3.2-4.7-3.7-4.7-3.7Z"/><path class="cls-3" d="M124.9,335l-2.1,1.4s-8.8-2.2-8.3-3c.6-.8,8.5-1.8,10.4,1.6h0Z"/></g></g></svg>