<?xml version="1.0" encoding="UTF-8"?><svg id="Calque_1" xmlns="http://www.w3.org/2000/svg" viewBox="0 0 286.3 844.7"><defs><style>.cls-1{fill:#6b2627;}.cls-2{fill:#f6a657;}.cls-3{fill:#fff;}.cls-4{fill:#f18982;}.cls-5{fill:#b93b32;}.cls-6{fill:#e0dbc4;}.cls-7{fill:#c9584f;}.cls-8{fill:#4d6fa9;}.cls-9{isolation:isolate;}</style></defs><g id="Calque_1-2"><g id="pancarte_7"><g id="pencarte_7"><path class="cls-1" d="M203.2,396.7c-2.2,.1-4.3-2-4.7-5.1l-29-193.4c-.5-3.4,1.1-6.6,3.6-7.2,2.5-.6,5,1.6,5.5,5l29,193.4c.5,3.4-1.1,6.6-3.6,7.2-.3,0-.6,.1-.8,.1h0Z"/></g><path class="cls-2" d="M61.1,91.5l48.8,177.9c2.5,9.2,11.1,15,19.6,13.1l124.5-26.8c8.8-1.9,14.3-11.1,12.4-20.8L230.6,54.2c-2-9.9-11-16.5-20-14.5l-137.5,29.6c-9.2,2-14.7,12.1-12,22.2Z"/><g class="cls-9"><path class="cls-3" d="M120.22,109.58l-7.87-32.31-4.75,1.16-1.87-7.68,17.5-4.26,1.87,7.68-4.75,1.16,7.87,32.31-8,1.95Z"/><path class="cls-3" d="M129.07,77.49l.19-5.73-2.89,.7-1.65-6.77,8.5-2.07,1.6,6.57-.96,6.13-4.79,1.17Z"/><path class="cls-3" d="M145.99,103.31l-9.74-40,16-3.89,1.88,7.73-7.86,1.91,1.9,7.79,7.54-1.84,1.83,7.52-7.54,1.84,2.23,9.16,8.38-2.04,1.9,7.79-16.52,4.02Z"/><path class="cls-3" d="M174.74,96.7c-3.65,.89-6.5,.62-8.56-.8-2.06-1.43-3.57-4.12-4.53-8.09l-.95-3.91,7.91-1.92,1.22,5c.22,.92,.54,1.61,.95,2.07,.41,.45,.96,.6,1.66,.43,.73-.18,1.18-.51,1.36-1,.18-.49,.15-1.22-.09-2.19-.3-1.23-.67-2.22-1.11-2.99-.44-.77-1.06-1.45-1.84-2.06-.78-.6-1.82-1.28-3.13-2.02l-4.42-2.54c-3.3-1.88-5.34-4.44-6.14-7.7-.83-3.41-.67-6.2,.48-8.37,1.15-2.17,3.22-3.62,6.22-4.35,3.67-.89,6.51-.55,8.52,1.03,2.01,1.58,3.5,4.36,4.47,8.35l-8.13,1.98-.67-2.75c-.13-.55-.39-.93-.78-1.16-.38-.23-.84-.28-1.37-.15-.64,.15-1.06,.45-1.27,.87-.21,.43-.24,.92-.11,1.48,.14,.56,.44,1.13,.9,1.71,.46,.58,1.24,1.18,2.34,1.81l5.69,3.31c1.14,.65,2.21,1.38,3.22,2.16,1.01,.79,1.91,1.77,2.69,2.96,.79,1.18,1.4,2.7,1.86,4.57,.92,3.76,.94,6.87,.07,9.33-.87,2.47-3.02,4.12-6.46,4.95Z"/></g><g class="cls-9"><path class="cls-3" d="M120.6,143.08l-4.25-29.66,9.83-2.39,9.8,28.31-5.48,1.33-1.55-4.58-3.49,.85,.78,4.77-5.63,1.37Zm4.14-10.86l2.63-.64-4.86-14.43-.26,.06,2.48,15.01Z"/><path class="cls-3" d="M144.71,137.49c-2.65,.64-4.71,.45-6.2-.58-1.49-1.03-2.58-2.99-3.28-5.86l-.69-2.83,5.73-1.4,.88,3.62c.16,.67,.39,1.17,.69,1.5,.29,.33,.7,.43,1.2,.31,.53-.13,.85-.37,.98-.73,.13-.36,.11-.89-.06-1.59-.22-.89-.49-1.61-.81-2.17-.32-.56-.76-1.05-1.33-1.49-.57-.44-1.32-.93-2.27-1.46l-3.2-1.84c-2.39-1.36-3.87-3.22-4.45-5.58-.6-2.47-.49-4.49,.35-6.07,.83-1.57,2.33-2.63,4.51-3.15,2.66-.65,4.71-.4,6.17,.75,1.46,1.15,2.54,3.16,3.24,6.05l-5.9,1.44-.49-1.99c-.1-.4-.28-.67-.56-.84-.28-.16-.61-.2-.99-.11-.46,.11-.77,.32-.92,.63-.15,.31-.18,.67-.08,1.08,.1,.41,.32,.82,.65,1.24,.33,.42,.9,.86,1.7,1.31l4.12,2.4c.82,.47,1.6,1,2.33,1.57,.73,.57,1.38,1.29,1.95,2.14,.57,.86,1.02,1.96,1.35,3.31,.66,2.72,.68,4.98,.05,6.76-.63,1.79-2.19,2.98-4.68,3.59Z"/><path class="cls-3" d="M160.27,133.7c-2.65,.64-4.71,.45-6.2-.58-1.49-1.03-2.58-2.99-3.29-5.86l-.69-2.83,5.73-1.39,.88,3.62c.16,.67,.39,1.17,.69,1.5s.7,.43,1.2,.31c.53-.13,.86-.37,.98-.73,.13-.36,.11-.89-.06-1.59-.22-.89-.49-1.61-.81-2.17-.32-.56-.76-1.05-1.33-1.49-.57-.44-1.32-.93-2.27-1.46l-3.2-1.84c-2.39-1.36-3.87-3.22-4.45-5.58-.6-2.47-.49-4.49,.35-6.07,.83-1.57,2.33-2.63,4.51-3.16,2.66-.65,4.71-.4,6.17,.75,1.46,1.15,2.54,3.16,3.24,6.05l-5.89,1.44-.49-1.99c-.1-.4-.28-.67-.56-.84-.28-.16-.61-.2-.99-.11-.46,.11-.77,.32-.92,.63-.15,.31-.18,.67-.08,1.08,.1,.41,.32,.82,.65,1.24,.33,.42,.9,.86,1.7,1.31l4.12,2.4c.82,.47,1.6,1,2.34,1.57,.73,.57,1.38,1.29,1.95,2.14,.57,.86,1.02,1.96,1.35,3.31,.66,2.72,.68,4.98,.05,6.76-.63,1.79-2.19,2.98-4.68,3.59Z"/><path class="cls-3" d="M168.88,131.32l-7.05-28.98,11.59-2.82,1.36,5.6-5.7,1.39,1.38,5.65,5.47-1.33,1.33,5.45-5.47,1.33,1.62,6.64,6.08-1.48,1.37,5.65-11.97,2.91Z"/><path class="cls-3" d="M182,128.13l-1.28-5.27,2.16-19.99-5.99,1.46-1.3-5.33,12.1-2.95,1.23,5.07-2.23,20.22,6.47-1.58,1.3,5.33-12.46,3.03Z"/></g><g class="cls-9"><path class="cls-3" d="M129.61,174.7c-3.72,.91-6.24-1.31-7.54-6.64l-2.74-11.25c-1.19-4.87,.36-7.83,4.62-8.87,1.76-.43,3.19-.4,4.3,.08,1.11,.48,2.01,1.35,2.69,2.62,.69,1.27,1.27,2.88,1.74,4.82l-5.1,1.24-.56-2.31c-.14-.56-.33-1.02-.57-1.36-.25-.34-.61-.46-1.1-.34-.6,.15-.95,.45-1.04,.9-.09,.45-.08,.92,.04,1.4l3.08,12.64c.17,.7,.4,1.25,.69,1.65,.29,.39,.7,.53,1.23,.4,.55-.13,.87-.44,.94-.93,.08-.48,.03-1.09-.15-1.81l-.91-3.72-1.39,.34-1.1-4.5,6.37-1.55,3.7,15.19-2.09,.51-1.42-1.98c-.51,1.84-1.75,3-3.71,3.48Z"/><path class="cls-3" d="M138.89,172.19l-6.35-26.08,8-1.95c1.33-.32,2.42-.27,3.25,.18,.83,.44,1.49,1.18,1.99,2.22,.5,1.04,.93,2.29,1.28,3.76,.35,1.42,.44,2.6,.29,3.54-.15,.94-.69,1.69-1.61,2.26,.86-.03,1.54,.24,2.02,.8,.49,.57,.86,1.36,1.11,2.39l2.4,9.87-5.14,1.25-2.49-10.21c-.19-.76-.46-1.19-.81-1.3-.36-.11-.88-.08-1.57,.09l2.9,11.9-5.28,1.28Zm1.31-17.71l1.26-.31c.72-.18,.89-1.05,.51-2.62-.25-1.02-.49-1.67-.72-1.94-.24-.28-.57-.36-1-.26l-1.22,.3,1.18,4.83Z"/><path class="cls-3" d="M159.64,167.4c-2.08,.51-3.83,.27-5.24-.73-1.41-.99-2.4-2.68-2.98-5.06l-3.02-12.39c-.54-2.23-.41-4.06,.4-5.48,.81-1.42,2.27-2.39,4.37-2.9s3.84-.32,5.22,.57c1.37,.89,2.33,2.45,2.88,4.69l3.02,12.39c.58,2.38,.47,4.34-.32,5.86-.79,1.53-2.23,2.55-4.32,3.05Zm-1.12-4.81c.79-.19,1-1.05,.63-2.59l-3.1-12.73c-.31-1.28-.85-1.83-1.62-1.65-.87,.21-1.14,.97-.83,2.29l3.1,12.72c.2,.81,.44,1.37,.72,1.67,.28,.3,.65,.4,1.11,.29Z"/><path class="cls-3" d="M174.37,163.81c-2.38,.58-4.24,.4-5.58-.52-1.34-.93-2.33-2.69-2.96-5.28l-.62-2.55,5.16-1.26,.79,3.26c.15,.6,.35,1.05,.62,1.35,.27,.3,.62,.39,1.08,.28,.47-.12,.77-.33,.88-.65s.1-.8-.06-1.43c-.2-.8-.44-1.45-.73-1.95-.29-.5-.69-.95-1.2-1.34-.51-.39-1.19-.83-2.04-1.32l-2.88-1.65c-2.15-1.22-3.48-2.9-4-5.02-.54-2.22-.44-4.04,.31-5.46,.75-1.42,2.1-2.36,4.06-2.84,2.39-.58,4.24-.36,5.56,.67,1.31,1.03,2.29,2.84,2.92,5.44l-5.31,1.29-.44-1.79c-.09-.36-.26-.61-.51-.76s-.55-.18-.89-.1c-.42,.1-.69,.29-.83,.57-.14,.28-.16,.6-.07,.97,.09,.37,.28,.74,.58,1.11,.3,.38,.81,.77,1.53,1.18l3.71,2.16c.74,.43,1.44,.9,2.1,1.41,.66,.51,1.24,1.16,1.76,1.93,.51,.77,.92,1.76,1.21,2.98,.6,2.45,.61,4.48,.04,6.09-.57,1.61-1.97,2.69-4.21,3.23Z"/><path class="cls-3" d="M188.38,160.4c-2.38,.58-4.24,.4-5.58-.52-1.34-.93-2.33-2.69-2.96-5.28l-.62-2.55,5.16-1.26,.79,3.26c.15,.6,.35,1.05,.62,1.35,.27,.3,.62,.39,1.08,.28,.47-.12,.77-.33,.88-.65s.1-.8-.06-1.43c-.19-.8-.44-1.45-.73-1.95-.29-.5-.69-.95-1.2-1.34-.51-.39-1.19-.83-2.04-1.32l-2.88-1.65c-2.15-1.22-3.48-2.9-4-5.02-.54-2.22-.44-4.04,.31-5.46,.75-1.42,2.1-2.36,4.06-2.84,2.39-.58,4.24-.36,5.56,.67,1.31,1.03,2.29,2.84,2.92,5.44l-5.31,1.29-.44-1.79c-.09-.36-.26-.61-.51-.76-.25-.15-.55-.18-.9-.1-.41,.1-.69,.29-.83,.57-.14,.28-.16,.6-.07,.97,.09,.37,.28,.74,.58,1.11,.3,.38,.81,.77,1.53,1.18l3.71,2.16c.74,.43,1.44,.9,2.1,1.41,.66,.51,1.24,1.16,1.76,1.93,.51,.77,.92,1.76,1.21,2.98,.6,2.45,.61,4.48,.04,6.09-.57,1.61-1.97,2.69-4.21,3.23Z"/><path class="cls-3" d="M196.13,158.26l-6.35-26.08,10.43-2.54,1.23,5.04-5.13,1.25,1.24,5.08,4.92-1.2,1.19,4.91-4.92,1.2,1.45,5.97,5.47-1.33,1.24,5.08-10.78,2.62Z"/></g><g class="cls-9"><path class="cls-3" d="M137.1,206.46c-1.89,.46-3.55,.24-4.99-.65-1.44-.9-2.41-2.4-2.93-4.51l-2.93-12.03c-.62-2.53-.59-4.59,.09-6.18s2.14-2.66,4.41-3.21c1.23-.3,2.39-.34,3.46-.12,1.07,.22,2,.71,2.77,1.48,.77,.77,1.33,1.84,1.66,3.21l1.1,4.51-5.19,1.26-.94-3.85c-.19-.78-.42-1.28-.68-1.51-.26-.22-.6-.29-1.02-.18-.48,.12-.77,.37-.85,.76-.08,.39-.05,.88,.09,1.46l3.18,13.06c.18,.72,.41,1.2,.69,1.45,.28,.24,.62,.32,1.02,.22,.44-.11,.71-.37,.81-.78,.09-.41,.07-.91-.07-1.49l-1.14-4.7,5.25-1.28,1.2,4.94c.56,2.29,.38,4.1-.52,5.41s-2.39,2.22-4.47,2.73Z"/><path class="cls-3" d="M151.64,202.92c-2.08,.51-3.83,.27-5.24-.73-1.41-.99-2.4-2.68-2.98-5.06l-3.02-12.39c-.54-2.23-.41-4.06,.4-5.48,.81-1.42,2.27-2.39,4.37-2.9,2.1-.51,3.84-.32,5.22,.57,1.37,.89,2.33,2.45,2.88,4.69l3.02,12.39c.58,2.38,.47,4.34-.32,5.86-.8,1.53-2.24,2.55-4.32,3.05Zm-1.12-4.81c.79-.19,1-1.05,.63-2.59l-3.1-12.73c-.31-1.28-.85-1.83-1.63-1.65-.87,.21-1.14,.97-.82,2.29l3.1,12.72c.2,.81,.44,1.37,.72,1.67,.28,.3,.65,.4,1.11,.29Z"/><path class="cls-3" d="M160.12,200.61l-6.35-26.08,7.94-1.93,6.06,15.37-1.69-16.43,8.02-1.95,6.35,26.08-4.77,1.16-4.57-18.79,1.58,19.52-4.68,1.14-7.75-18.02,4.57,18.79-4.71,1.15Z"/><path class="cls-3" d="M182.77,195.1l-6.35-26.08,7.94-1.93,6.06,15.37-1.69-16.43,8.02-1.95,6.35,26.08-4.77,1.16-4.58-18.79,1.58,19.52-4.68,1.14-7.75-18.02,4.57,18.79-4.71,1.15Z"/><path class="cls-3" d="M205.41,189.59l-6.35-26.08,10.43-2.54,1.23,5.04-5.13,1.25,1.24,5.08,4.92-1.2,1.19,4.91-4.92,1.2,1.45,5.97,5.47-1.33,1.24,5.08-10.77,2.62Z"/></g><g class="cls-9"><path class="cls-3" d="M159.91,253.97c-3.31,.81-6.23,.42-8.75-1.15-2.52-1.57-4.24-4.21-5.14-7.93l-5.14-21.12c-1.08-4.44-1.03-8.05,.16-10.84,1.19-2.79,3.77-4.66,7.74-5.63,2.17-.53,4.2-.6,6.08-.21,1.89,.39,3.51,1.25,4.86,2.6,1.36,1.35,2.33,3.23,2.92,5.64l1.92,7.91-9.11,2.22-1.65-6.76c-.33-1.37-.73-2.25-1.2-2.65-.46-.39-1.06-.5-1.79-.32-.85,.21-1.35,.65-1.49,1.34-.15,.69-.09,1.54,.16,2.57l5.58,22.92c.31,1.27,.71,2.11,1.21,2.54,.5,.43,1.1,.56,1.79,.39,.78-.19,1.25-.65,1.42-1.36,.17-.72,.12-1.59-.13-2.62l-2.01-8.25,9.21-2.24,2.11,8.66c.98,4.02,.68,7.19-.91,9.5-1.59,2.31-4.2,3.9-7.84,4.79Zm3.24,16.16c-1.79,.43-3.59,.51-5.4,.21l-1.41-5.8c.58,.04,1.14,.06,1.69,.04,.55-.01,1.06-.08,1.52-.19,.87-.21,1.54-.62,2-1.22,.47-.6,.57-1.47,.29-2.59-.24-.97-.74-2.02-1.53-3.16-.78-1.13-1.75-2.23-2.91-3.29l4.19-1.02c2.04,1.06,3.75,2.39,5.12,3.98,1.37,1.59,2.25,3.19,2.64,4.8,.43,1.79,.18,3.44-.75,4.96-.93,1.52-2.75,2.61-5.46,3.27Z"/><path class="cls-3" d="M174.11,250.07l-6.72-46.87,15.53-3.78,15.49,44.73-8.66,2.11-2.45-7.23-5.52,1.34,1.23,7.53-8.9,2.17Zm6.54-17.16l4.16-1.01-7.67-22.8-.42,.1,3.92,23.71Z"/><path class="cls-3" d="M213.82,227.21l-9.93-32.88,9.31-2.27,6.29,33.77-5.67,1.38Zm1.21,12.88l-1.89-7.75,9.31-2.27,1.89,7.75-9.31,2.27Z"/></g><g><path class="cls-7" d="M197.2,337.9l-4.2-12.7s-1.6,.8-3.6,1.8c1.2-3.4,1.4-6.6,.3-7.6-1.6-1.4-12.1,5.1-17.7,8.6-3.1,2-6.1,.9-8.6,15.2s-6.8,23.1-6.8,23.1l23.5,16.5c11.3-.9,17.3-9,17.3-9l-6.6-31.9,6.4-4h0Z"/><path class="cls-5" d="M199.4,372.3c2.8-.9,9.4-7.1,11.8-12.6l-3.6-5.3s2.3-1.6,3.4-5.2c1-3.7-4.6-5.6-4.6-5.6,0,0,2.3-1.7,4.1-3.8l-7-7.3s3.3-2.8,4.6-5.6l-11.8,4,.5,25.1,2.6,16.3h0Z"/><path class="cls-7" d="M81,582.7c.6-.9,75.5-216.4,75.5-216.4l23.5,16.5-41,205.8-58-5.9h0Z"/><g><path class="cls-5" d="M185.9,332.8c.1-.1,.1-.3-.1-.4-.1-.1-.3-.1-.4,.1-1.7,2.4-4.5,4.3-7.4,5.1-.1,0-.2,.1-.2,.2v.3c2.8,7.1,2.9,14.5,.3,22.6-.1,.2,0,.3,.2,.4h.1c.1,0,.3-.1,.3-.2,2.5-8.2,2.5-15.6-.2-22.7,2.9-1,5.7-3,7.4-5.4h0Z"/><path class="cls-5" d="M173.5,376.6c-.1-.1-.3-.2-.4-.1-.1,.1-.2,.3-.1,.4,1.5,2.8,4,5,6.9,6.2l.1-.2c.3,0,.6,0,.8-.1-3.1-1.1-5.7-3.3-7.3-6.2h0Z"/><path class="cls-5" d="M182.2,365.1c.7,.2,1.4,.3,2.1,.3,1.2,0,2.5-.3,3.6-.8,.2-.1,.2-.3,.1-.4-.1-.2-.3-.2-.4-.1-1.6,.8-3.5,1-5.3,.5-.2,0-.3,0-.4,.2,0,.1,.1,.3,.3,.3h0Z"/></g></g><g><path class="cls-3" d="M135.2,384.8c-1-2.8-2.3-5.6-2.3-8.6s2.1-6.3,4.7-6c2.9,.4,4.8,4.7,7.7,4.1,2.2-.5,3.7-3.7,5.8-3,1.3,.4,1.9,2,2.1,3.5,.2,1.5,.2,3.1,1,4.3,1.3,2.1,4,1.9,6.3,1.6,2.2-.4,4.9-.5,6.3,1.6,1,1.5,.7,3.8,1.7,5.3,2.5,3.8,9.1-.4,11.6,3.4,1.1,1.7,.8,4.4,2.2,5.9,1.6,1.7,4.9,.9,5.7,3.2,.5,1.5-.6,3.1-1.9,3.6-1.3,.5-2.7,.3-4.1,.3-5.8-.1-8.3,5.5-11,11.3,.3-.7-10.3-7.3-11.1-7.8-3-1.8-6.2-3.1-9.5-4.1-4.5-1.3-12.2,.5-13.1-6-.7-4.3-.7-8.4-2.1-12.6h0Z"/><path class="cls-8" d="M14.4,809.4l121.2-416.5s21.9-2.5,40.1,15.7l-43.7,415.1-117.6-14.3Z"/><path class="cls-6" d="M151.2,407.2c-3.7-1.1-11.2-2.4-18.9-2.9l-.3,.9c6.9,.3,13.1,1.3,19,2.9,8.6,2.4,16.3,6.4,22.9,11.5l.2-1c-6.7-5-14.5-8.7-22.9-11.4h0Z"/><path class="cls-3" d="M161,423.2c-.4,1.3,.3,2.9,1.4,3.5s2.6,0,3.2-1.3c1.7-3.7-3.6-5.9-4.6-2.2Z"/></g><g><g><path class="cls-7" d="M208.1,323c-2.1-1.9-5.2-2.4-7.9-1.4-3.9,1.5-9.7,4.3-10,7.1-.6,4.4,5.8,4.5,10.9,3,4.1-1.1,11.7-4.5,7-8.7h0Z"/><path class="cls-4" d="M197,324.4c.3-.1,.7-.2,1-.1,.5,.1,.9,.4,1.2,.7,.3,.4,.5,.8,.7,1.2,.3,.6,.5,1.2,.6,1.9,.1,.7,0,1.4-.4,1.9-.5,.6-1.2,.8-1.9,.9-1.1,.2-2.2,.3-3.3,.3-.6,0-1.3,0-1.9-.3-.6-.2-1.2-.6-1.5-1.2-.8-1.5,.5-2.6,1.5-3.4,1.1-.7,2.6-1.4,4-1.9h0Z"/><path class="cls-7" d="M203.8,325.8s-.1,0,0,0c-.1,0-.2-.1-.1-.2,.1-.5-.1-1.1-.4-1.4-.1-.1-.1-.2,0-.2s.2-.1,.2,0c.4,.5,.6,1.1,.5,1.7-.1,0-.2,.1-.2,.1h0Z"/><path class="cls-5" d="M205.5,324.5q-.1,0-.1-.1c-.1-.4-.4-.8-.8-1.1-.1,0-.1-.1-.1-.2q.1-.1,.2,0c.4,.3,.8,.7,.9,1.2,.1,.1,0,.1-.1,.2h0Z"/></g><g><path class="cls-7" d="M212,337.9c.4-3.9-3.2-7-7-6.2-4.1,.9-10.8,2.6-13.2,4.3-3.6,2.5-2.1,7.3,7.5,6.8,9.6-.5,12.3-1.8,12.7-4.9h0Z"/><path class="cls-4" d="M193.5,336.4c-.5,.3-1.1,.6-1.4,1.1s-.7,1.1-.6,1.7c.1,.7,.6,1.2,1.2,1.5s1.3,.4,2,.5c1.4,.2,2.8,.2,4.2,.2,.6,0,1.3,0,1.7-.5,.6-.5,.6-1.4,.6-2.1,0-1-.1-1.9-.4-2.8-.2-.6-.6-1.1-1.1-1.4-.6-.4-1-.2-1.6,0-1.7,.4-3.2,1-4.6,1.8h0Z"/><path class="cls-5" d="M206.6,337.6h0c-.1,0-.2-.1-.1-.2,.1-.6-.1-1.2-.5-1.7-.1-.1-.1-.2,0-.2,.1-.1,.2,0,.2,0,.5,.5,.7,1.3,.6,2,0,.1-.1,.1-.2,.1h0Z"/></g><g><path class="cls-7" d="M209.2,343c-3.1-.8-12.5,2.1-15.8,4.2s-1.6,8.2,7.4,6.6c3.9-.7,11.4-.9,11.5-6.2,0-.9,0-1.7-.3-2.5-.5-1.2-1.6-1.8-2.8-2.1h0Z"/><path class="cls-4" d="M195.8,347.1c-1.2,.5-2.4,1.3-2.6,2.6-.1,1.1,.6,2.2,1.6,2.7s2.1,.6,3.2,.6c1.2,0,2.6-.3,3.4-1.2,1.2-1.5,.6-4.1-.8-5.2-1.2-1.1-3.5,0-4.8,.5h0Z"/><path class="cls-5" d="M207.7,348.9s-.1,0,0,0c-.1-.1-.2-.1-.1-.2,.3-.7,.3-1.6-.1-2.3,0-.1,0-.2,.1-.2s.2,0,.2,.1c.4,.8,.4,1.8,.1,2.5-.1,0-.2,.1-.2,.1h0Z"/><path class="cls-5" d="M209,347.9h0c-.1,0-.2-.1-.1-.2,.1-.5,.1-1-.2-1.5,0-.1,0-.2,.1-.2s.2,0,.2,.1c.3,.5,.4,1.2,.2,1.8h-.2Z"/></g><g><path class="cls-7" d="M206.6,354.1c-3.1,.3-10.9,1.7-10.2,6.4,.6,3.9,8.4,1.9,12.1,1.1s5.9-8.1-1.9-7.5h0Z"/><path class="cls-5" d="M208.5,359.8h-.1c-.1,0-.1-.1,0-.2,.4-.5,.5-1.2,.2-1.8,0-.1,0-.2,.1-.2s.2,0,.2,.1c.4,.7,.2,1.6-.2,2.2q-.1-.1-.2-.1h0Z"/><path class="cls-4" d="M198.5,357.8c-.9,.8-1.4,2.3-.7,3.3,.4,.6,1,.9,1.7,1.1s1.4,.1,2.1,0c.9-.1,1.9-.2,2.5-.9,.3-.4,.4-1,.4-1.5,0-1.3-.8-2.8-2-3.4-1.1-.5-3.2,.7-4,1.4h0Z"/></g><g><path class="cls-7" d="M171.9,328c-2.9,1.9-5.8,1.1-8.2,12.8,0,.1,5,.3,5.5,.3,1.9,0,3.8-.2,5.6-.7,2.4-.6,4.6-1.8,6.6-3.2,2.1-1.6,4.1-3.3,5.6-5.4,1.6-2.2,2.7-4.8,3.2-7.5,.2-1.3,.7-3.7-.5-4.8-1.6-1.4-12.2,5-17.8,8.5h0Z"/><path class="cls-4" d="M190.1,320c-.1-.2-.3-.4-.4-.6-1-.9-5.9,1.5-10.7,4.3,.1,.1,.2,.1,.3,.1,.5,.2,1,.2,1.5,.2,3.3,0,6.5-1.3,8.9-3.6,.1,0,.2-.2,.4-.4h0Z"/></g></g></g></g></svg>