<?xml version="1.0" encoding="utf-8"?>
<!-- Generator: Adobe Illustrator 26.3.1, SVG Export Plug-In . SVG Version: 6.00 Build 0)  -->
<svg version="1.1" id="Calque_1" xmlns="http://www.w3.org/2000/svg" xmlns:xlink="http://www.w3.org/1999/xlink" x="0px" y="0px"
	 viewBox="0 0 275 677.5" style="enable-background:new 0 0 275 677.5;" xml:space="preserve">
<style type="text/css">
	.st0{fill:#F9B981;}
	.st1{fill:#BE4520;}
	.st2{fill:#FFFFFF;}
	.st3{fill:#1A1732;}
	.st4{fill:#4D6FA9;}
	.st5{fill:#BE3271;}
</style>
<g id="pancarte_6">
	<g>
		<path class="st0" d="M93.9,359.5L82.3,248.1c-0.3-2.7-0.6-5.4-0.9-8.1c-1.4-10.2,0.4-13.8,1.9-22.3c1.6-9.1-1.4-20.5-1.4-20.5
			l-16.4-2.3L64.3,173c0,0-5.1,2.2-6.5,2.8s-4.3,11.2-7.3,16.7s-4.1,7.3-1.3,15.2c2.2,6.1,8.4,24.6,11,32.4c0.8,2.4,1.1,4.9,1,7.4
			c-1,20.6-5.4,110.7-5.4,112.2L93.9,359.5L93.9,359.5z"/>
		<path class="st1" d="M56,189.1c-0.1,0-0.3-0.1-0.3-0.2s0.1-0.3,0.2-0.3c3.4-0.5,6.6-2,9-4.3c0.1-0.1,0.3-0.1,0.4,0s0.1,0.3,0,0.4
			C62.9,187,59.5,188.6,56,189.1C56.1,189.1,56,189.1,56,189.1L56,189.1L56,189.1z"/>
		<path class="st1" d="M56.9,201c-0.1,0-0.2-0.1-0.2-0.1c-0.1-0.1,0-0.3,0.1-0.4c4.1-2.6,7.2-6.4,8.9-10.9c0.1-0.1,0.2-0.2,0.4-0.2
			c0.1,0.1,0.2,0.2,0.2,0.4c-1.7,4.6-4.9,8.6-9.1,11.2C57.2,201,56.9,201,56.9,201z"/>
	</g>
	<g>
		<path class="st0" d="M185.3,359.5l13-111.5c0.3-2.7,0.6-5.4,1.1-8.1c1.6-10.2-0.5-13.8-2.2-22.3c-1.8-9.1,1.5-20.5,1.5-20.5
			l18.4-2.3l1.4-21.9c0,0,5.7,2.2,7.4,2.8s4.9,11.2,8.2,16.7s4.6,7.3,1.5,15.2c-2.4,6.1-9.4,24.6-12.4,32.4
			c-0.9,2.4-1.3,4.9-1.1,7.4c1.1,20.6,6,110.7,6,112.2L185.3,359.5L185.3,359.5L185.3,359.5z"/>
		<path class="st1" d="M224.2,189.1c0.1,0,0.3-0.1,0.3-0.2s-0.1-0.3-0.2-0.3c-3.4-0.5-6.6-2-9-4.3c-0.1-0.1-0.3-0.1-0.4,0
			c-0.1,0.1-0.1,0.3,0,0.4C217.4,187,220.7,188.6,224.2,189.1L224.2,189.1L224.2,189.1z"/>
		<path class="st1" d="M223.3,201c0.1,0,0.2-0.1,0.2-0.1c0.1-0.1,0-0.3-0.1-0.4c-4.1-2.6-7.2-6.4-8.9-10.9c-0.1-0.1-0.2-0.2-0.4-0.2
			c-0.1,0.1-0.2,0.2-0.2,0.4c1.7,4.6,4.9,8.6,9.1,11.2H223.3L223.3,201z"/>
	</g>
	<g>
		<path class="st2" d="M23,36.8l9.4,151.6c0.2,3.6,3,6.4,6.3,6.4h206.1c3.4,0,6.2-2.9,6.3-6.6l5.4-151.6c0.1-3.9-2.7-7.1-6.3-7.1
			h-221C25.7,29.5,22.8,32.8,23,36.8C23,36.8,23,36.8,23,36.8z"/>
		<g>
			<path class="st3" d="M51.4,89.5V69.1h6.2l1.7,12.5l1.7-12.5h6.3v20.4h-3.7V74.8l-2.3,14.7h-3.7l-2.5-14.7v14.7H51.4z"/>
			<path class="st3" d="M72.2,89.7c-1,0-1.7-0.2-2.2-0.7c-0.5-0.4-0.8-1.1-1-1.8c-0.2-0.8-0.3-1.7-0.3-2.7c0-1.1,0.1-1.9,0.3-2.6
				s0.6-1.2,1.1-1.7s1.2-0.8,2.1-1.1l2.6-0.9v-1.8c0-0.9-0.3-1.4-0.9-1.4c-0.6,0-0.8,0.4-0.8,1.1v1.1h-4c0-0.1,0-0.1,0-0.2v-0.3
				c0-1.7,0.4-3,1.2-3.7c0.8-0.7,2.1-1.1,3.9-1.1c0.9,0,1.8,0.2,2.5,0.5s1.3,0.8,1.8,1.5c0.4,0.6,0.6,1.4,0.6,2.4v13.3h-4.1v-2.1
				c-0.2,0.7-0.5,1.3-1,1.7C73.4,89.5,72.8,89.7,72.2,89.7L72.2,89.7z M73.9,86.5c0.3,0,0.6-0.1,0.7-0.4c0.1-0.3,0.2-0.6,0.2-0.9
				v-4.9c-0.6,0.2-1,0.5-1.3,0.9S73,82,73,82.7V85C73,86,73.3,86.5,73.9,86.5z"/>
			<path class="st3" d="M84.2,89.7c-1.1,0-1.9-0.2-2.3-0.7c-0.4-0.5-0.6-1.2-0.6-2.2V76h-1.2v-3.2h1.2v-3.7h4v3.7h1.2V76h-1.2v9.9
				c0,0.3,0.1,0.5,0.1,0.6c0.1,0.1,0.3,0.2,0.5,0.2c0.2,0,0.3,0,0.5-0.1v2.8c-0.1,0-0.4,0.1-0.9,0.2C85.1,89.7,84.7,89.7,84.2,89.7
				L84.2,89.7z"/>
			<path class="st3" d="M92.7,89.7c-1.2,0-2.2-0.2-3-0.7c-0.7-0.5-1.3-1.1-1.6-2c-0.3-0.9-0.5-1.9-0.5-3.2v-7c0-1.6,0.5-2.8,1.4-3.7
				s2.2-1.2,3.8-1.2c3.3,0,5,1.6,5,4.9v1.3c0,1.5,0,2.6-0.1,3.1h-6v3.4c0,0.3,0,0.6,0.1,0.9s0.1,0.5,0.3,0.7
				c0.1,0.2,0.3,0.3,0.7,0.3c0.4,0,0.7-0.2,0.8-0.6c0.1-0.4,0.2-0.9,0.2-1.5v-1.7h4.1v1c0,1.3-0.2,2.4-0.5,3.3s-0.9,1.5-1.6,2
				S94,89.8,92.7,89.7L92.7,89.7z M91.8,79.2h2v-2.3c0-0.6-0.1-1.1-0.2-1.3S93.2,75,92.9,75c-0.3,0-0.6,0.1-0.8,0.4
				c-0.2,0.3-0.3,0.7-0.3,1.4L91.8,79.2L91.8,79.2z"/>
			<path class="st3" d="M109.8,89.7c-3.4,0-5.2-1.7-5.2-5.2v-1.4h4.2v2c0,0.4,0.1,0.7,0.2,0.9s0.4,0.3,0.7,0.3
				c0.6,0,0.9-0.4,0.9-1.4c0-0.8-0.2-1.3-0.5-1.7c-0.3-0.4-0.7-0.7-1.2-1.1l-2.2-1.7c-0.7-0.5-1.2-1.1-1.6-1.7
				c-0.4-0.6-0.6-1.4-0.6-2.5c0-1,0.2-1.8,0.7-2.5c0.5-0.7,1.1-1.1,1.9-1.4s1.6-0.5,2.6-0.5c3.4,0,5.1,1.7,5.1,5.1v0.3h-4.3v-0.7
				c0-0.3-0.1-0.7-0.2-1c-0.1-0.3-0.3-0.5-0.7-0.5c-0.6,0-0.9,0.3-0.9,0.9s0.2,1.1,0.7,1.5l2.6,1.9c0.8,0.6,1.5,1.3,2,2.1
				s0.8,1.9,0.8,3.2c0,1.6-0.5,2.9-1.4,3.8S111.4,89.7,109.8,89.7L109.8,89.7z"/>
			<path class="st3" d="M119.5,89.7c-1,0-1.7-0.2-2.2-0.7c-0.5-0.4-0.8-1.1-1-1.8c-0.2-0.8-0.3-1.7-0.3-2.7c0-1.1,0.1-1.9,0.3-2.6
				s0.6-1.2,1.1-1.7s1.2-0.8,2.1-1.1l2.6-0.9v-1.8c0-0.9-0.3-1.4-0.9-1.4c-0.6,0-0.8,0.4-0.8,1.1v1.1h-4c0-0.1,0-0.1,0-0.2v-0.3
				c0-1.7,0.4-3,1.2-3.7c0.8-0.7,2.1-1.1,3.9-1.1c0.9,0,1.8,0.2,2.5,0.5s1.3,0.8,1.8,1.5c0.4,0.6,0.6,1.4,0.6,2.4v13.3h-4.1v-2.1
				c-0.2,0.7-0.5,1.3-1,1.7C120.6,89.5,120.1,89.7,119.5,89.7L119.5,89.7z M121.1,86.5c0.3,0,0.6-0.1,0.7-0.4
				c0.1-0.3,0.2-0.6,0.2-0.9v-4.9c-0.6,0.2-1,0.5-1.3,0.9s-0.5,0.9-0.5,1.6V85C120.2,86,120.5,86.5,121.1,86.5z"/>
		</g>
		<g>
			<path class="st3" d="M133.9,91.5V56.3h9.3c1.9,0,3.5,0.4,4.6,1.3s2,2.1,2.4,3.7c0.5,1.6,0.7,3.5,0.7,5.7s-0.2,4-0.6,5.6
				c-0.4,1.6-1.1,2.8-2.2,3.7c-1.1,0.9-2.6,1.3-4.5,1.3h-2.9v14H133.9z M140.9,71.2h0.4c1.3,0,2.1-0.4,2.4-1.1
				c0.3-0.7,0.4-1.8,0.4-3.2c0-1.3-0.1-2.4-0.4-3.1s-1-1.1-2-1.1h-0.8V71.2L140.9,71.2z"/>
			<path class="st3" d="M153.3,91.5V56.3h7v12.6h3.3V56.3h7v35.2h-7v-16h-3.3v16C160.3,91.5,153.3,91.5,153.3,91.5z"/>
			<path class="st3" d="M182.2,91.9c-2.8,0-5-0.8-6.5-2.6s-2.2-4.2-2.2-7.4V65.2c0-3,0.7-5.3,2.2-6.9c1.5-1.6,3.6-2.3,6.5-2.3
				s5,0.8,6.5,2.3c1.5,1.6,2.2,3.8,2.2,6.9v16.7c0,3.2-0.7,5.7-2.2,7.4S185,91.9,182.2,91.9z M182.2,85.4c1.1,0,1.6-1,1.6-3.1V65.1
				c0-1.7-0.5-2.6-1.6-2.6c-1.2,0-1.8,0.9-1.8,2.7v17.2c0,1.1,0.1,1.9,0.4,2.3C181.2,85.1,181.6,85.4,182.2,85.4L182.2,85.4z"/>
			<path class="st3" d="M196.8,91.5V63.1h-4.2v-6.8H208v6.8h-4.2v28.5H196.8L196.8,91.5z"/>
			<path class="st3" d="M218.4,91.9c-2.8,0-5-0.8-6.5-2.6s-2.2-4.2-2.2-7.4V65.2c0-3,0.7-5.3,2.2-6.9c1.5-1.6,3.6-2.3,6.5-2.3
				s5,0.8,6.5,2.3c1.5,1.6,2.2,3.8,2.2,6.9v16.7c0,3.2-0.7,5.7-2.2,7.4S221.2,91.9,218.4,91.9z M218.4,85.4c1.1,0,1.6-1,1.6-3.1
				V65.1c0-1.7-0.5-2.6-1.6-2.6c-1.2,0-1.8,0.9-1.8,2.7v17.2c0,1.1,0.1,1.9,0.4,2.3C217.4,85.1,217.8,85.4,218.4,85.4L218.4,85.4z"
				/>
			<path class="st3" d="M230.7,96.2l1.3-4.7h-2.5v-6h7.5v5.8l-2,4.9H230.7L230.7,96.2z"/>
		</g>
		<g>
			<path class="st3" d="M48.2,119.8c-1.2,0-2.1-0.2-2.8-0.7s-1.2-1.1-1.5-1.9c-0.3-0.8-0.4-1.8-0.4-2.9v-6.5c0-1.5,0.4-2.7,1.3-3.4
				s2.1-1.2,3.6-1.2c3.1,0,4.7,1.5,4.7,4.6v1.2c0,1.4,0,2.4,0,2.9h-5.6v3.1c0,0.3,0,0.6,0,0.8c0,0.3,0.1,0.5,0.2,0.7
				c0.1,0.2,0.3,0.3,0.6,0.3c0.4,0,0.7-0.2,0.8-0.5s0.2-0.8,0.2-1.4v-1.6h3.8v0.9c0,1.2-0.2,2.2-0.5,3s-0.8,1.4-1.5,1.8
				S49.5,119.9,48.2,119.8L48.2,119.8z M47.4,110h1.8v-2.2c0-0.6-0.1-1-0.2-1.3c-0.1-0.3-0.4-0.4-0.7-0.4c-0.3,0-0.5,0.1-0.7,0.4
				s-0.2,0.7-0.2,1.3L47.4,110L47.4,110z"/>
			<path class="st3" d="M54.5,119.7v-19h3.9v19H54.5z"/>
			<path class="st3" d="M60,119.7v-19h3.9v19H60z"/>
			<path class="st3" d="M70,119.8c-1.2,0-2.1-0.2-2.8-0.7s-1.2-1.1-1.5-1.9c-0.3-0.8-0.4-1.8-0.4-2.9v-6.5c0-1.5,0.4-2.7,1.3-3.4
				s2.1-1.2,3.6-1.2c3.1,0,4.7,1.5,4.7,4.6v1.2c0,1.4,0,2.4,0,2.9h-5.6v3.1c0,0.3,0,0.6,0.1,0.8c0,0.3,0.1,0.5,0.2,0.7
				c0.1,0.2,0.3,0.3,0.6,0.3c0.4,0,0.7-0.2,0.8-0.5s0.2-0.8,0.2-1.4v-1.6h3.8v0.9c0,1.2-0.2,2.2-0.4,3s-0.8,1.4-1.5,1.8
				S71.2,119.9,70,119.8L70,119.8z M69.2,110H71v-2.2c0-0.6-0.1-1-0.2-1.3c-0.1-0.3-0.4-0.4-0.7-0.4c-0.3,0-0.6,0.1-0.7,0.4
				s-0.2,0.7-0.2,1.3L69.2,110L69.2,110z"/>
		</g>
		<g>
			<path class="st3" d="M83.9,122.5v-17.7h-1v-4.2h1v-1.6c0-2.5,1.2-3.7,3.7-3.7c1.2,0,2.1,0.2,2.8,0.4v3.4
				c-0.2-0.1-0.4-0.1-0.5-0.1c-0.3,0-0.5,0.1-0.6,0.3c-0.1,0.2-0.1,0.5-0.1,0.9v0.3h1.2v4.2h-1.1v17.6
				C89.3,122.5,83.9,122.5,83.9,122.5z"/>
			<path class="st3" d="M96.3,122.7c-1.3,0-2.2-0.3-2.9-0.9s-1.1-1.4-1.4-2.4s-0.4-2.2-0.4-3.5c0-1.4,0.1-2.5,0.4-3.4
				c0.3-0.9,0.7-1.6,1.4-2.2c0.7-0.6,1.6-1.1,2.8-1.4l3.4-1.2v-2.3c0-1.2-0.4-1.8-1.2-1.8c-0.7,0-1.1,0.5-1.1,1.5v1.4H92
				c0-0.1,0-0.2,0-0.3v-0.4c0-2.3,0.5-3.9,1.6-4.8c1.1-0.9,2.8-1.4,5.1-1.4c1.2,0,2.3,0.2,3.3,0.7s1.7,1.1,2.3,1.9
				c0.6,0.8,0.8,1.9,0.8,3.1v17.4h-5.4v-2.7c-0.3,0.9-0.7,1.7-1.3,2.2S97.1,122.8,96.3,122.7L96.3,122.7z M98.5,118.5
				c0.4,0,0.8-0.2,0.9-0.6c0.2-0.4,0.2-0.8,0.2-1.2v-6.4c-0.8,0.3-1.3,0.7-1.8,1.2s-0.6,1.1-0.6,2v2.9
				C97.2,117.8,97.7,118.5,98.5,118.5z"/>
			<path class="st3" d="M107.2,98.3v-4.5h5.4v4.5H107.2z M107.2,122.5V99.7h5.4v22.8H107.2z"/>
			<path class="st3" d="M119.5,122.7c-1.5,0-2.5-0.3-3-0.9c-0.5-0.6-0.8-1.6-0.8-2.9v-14.2h-1.5v-4.2h1.5v-4.8h5.3v4.8h1.5v4.2h-1.5
				v13c0,0.4,0.1,0.6,0.2,0.8s0.3,0.2,0.7,0.2c0.2,0,0.5,0,0.7-0.1v3.7c-0.1,0-0.5,0.1-1.1,0.2C120.8,122.7,120.2,122.7,119.5,122.7
				L119.5,122.7z"/>
			<path class="st3" d="M136.3,122.7c-1.5,0-2.5-0.3-3-0.9c-0.5-0.6-0.8-1.6-0.8-2.9v-14.2H131v-4.2h1.5v-4.8h5.3v4.8h1.5v4.2h-1.5
				v13c0,0.4,0.1,0.6,0.2,0.8s0.4,0.2,0.7,0.2c0.2,0,0.5,0,0.7-0.1v3.7c-0.1,0-0.5,0.1-1.1,0.2C137.6,122.7,137,122.7,136.3,122.7
				L136.3,122.7z"/>
			<path class="st3" d="M141.2,122.5V99.7h5.5v2.5c0.3-0.9,0.7-1.6,1.4-2.1s1.5-0.8,2.5-0.8v4.6c-0.4,0-1,0.1-1.6,0.1
				s-1.2,0.2-1.6,0.4s-0.7,0.3-0.7,0.6v17.5L141.2,122.5L141.2,122.5z"/>
			<path class="st3" d="M158.6,122.7c-4.6,0-6.8-2.4-6.8-7.1v-9.2c0-2.2,0.6-3.9,1.8-5.2s2.9-1.9,5-1.9s3.8,0.6,5,1.9s1.8,3,1.8,5.2
				v9.2C165.4,120.4,163.1,122.7,158.6,122.7L158.6,122.7z M158.6,118.5c0.5,0,0.8-0.2,1-0.5s0.3-0.8,0.3-1.3v-11.2
				c0-1.3-0.4-2-1.3-2s-1.3,0.7-1.3,2v11.2c0,0.5,0.1,0.9,0.3,1.3S158.2,118.5,158.6,118.5z"/>
			<path class="st3" d="M167.4,126.3V99.7h5.5v2.4c0.3-0.8,0.8-1.5,1.4-2s1.4-0.7,2.6-0.7c1.5,0,2.5,0.5,3.2,1.6
				c0.6,1.1,0.9,2.5,0.9,4.3v11.2c0,1.2-0.2,2.2-0.5,3.2s-0.9,1.7-1.6,2.2s-1.6,0.8-2.8,0.8c-1.5,0-2.6-0.9-3.2-2.7v6.2H167.4z
				 M174.3,118.5c0.6,0,0.9-0.3,1-0.8s0.2-1.3,0.2-2.1v-8.9c0-0.8-0.1-1.6-0.2-2.1s-0.5-0.8-1-0.8s-0.9,0.3-1.1,0.9
				s-0.2,1.3-0.2,2.1v8.9c0,0.8,0.1,1.5,0.2,2.1S173.7,118.5,174.3,118.5z"/>
		</g>
		<g>
			<path class="st4" d="M130.6,169c-1.5,0-2.8-0.1-3.9-0.2s-2.1-0.4-2.9-0.8c-0.9-0.4-1.7-1-2.6-1.7l2.7-4.6
				c1.9,1.1,3.8,1.7,5.8,1.7c1.3,0,2.2-0.4,2.8-1.2c0.6-0.8,0.9-1.9,0.9-3.1v-3.2c-0.6,2.3-2.3,3.4-5.1,3.4c-1.6,0-2.8-0.4-3.8-1.1
				c-1-0.8-1.7-1.8-2.1-3c-0.4-1.3-0.7-2.7-0.7-4.3V139c0-1.8,0.2-3.4,0.6-4.7c0.4-1.4,1.1-2.4,2-3.2s2.3-1.1,4-1.1
				c1.4,0,2.6,0.4,3.4,1.1c0.8,0.7,1.4,1.7,1.6,3v-3.7h8v28.3c0,3.8-0.9,6.4-2.6,8S134.3,169.1,130.6,169L130.6,169z M131.5,153.3
				c1.2,0,1.9-1.1,1.9-3.4v-11.2c0-0.6-0.2-1.2-0.5-1.9s-0.8-0.9-1.4-0.9c-0.8,0-1.2,0.3-1.4,0.9c-0.2,0.6-0.3,1.2-0.3,1.9V150
				c0,0.8,0.1,1.6,0.3,2.3S130.7,153.3,131.5,153.3L131.5,153.3z"/>
			<path class="st4" d="M153.7,163.7c-2.4,0-4.2-0.4-5.6-1.3s-2.4-2.1-3-3.8c-0.6-1.7-0.9-3.7-0.9-6v-13.3c0-3.1,0.9-5.4,2.6-7
				s4.2-2.4,7.3-2.4c6.4,0,9.5,3.1,9.5,9.3v2.4c0,2.9,0,4.9-0.1,5.9h-11.5v6.4c0,0.6,0,1.2,0.1,1.7c0.1,0.6,0.2,1,0.5,1.4
				s0.7,0.6,1.2,0.6c0.8,0,1.3-0.4,1.5-1.1c0.2-0.7,0.3-1.6,0.3-2.8v-3.2h7.8v1.9c0,2.5-0.3,4.5-0.9,6.2s-1.6,2.9-3.1,3.8
				C158.2,163.2,156.2,163.7,153.7,163.7L153.7,163.7z M152,143.6h3.8v-4.4c0-1.2-0.1-2.1-0.4-2.6c-0.3-0.5-0.7-0.8-1.3-0.8
				c-0.6,0-1.1,0.2-1.5,0.8c-0.4,0.5-0.5,1.4-0.5,2.6L152,143.6L152,143.6z"/>
			<path class="st4" d="M166.5,163.3v-33.1h7.9v4.2c0.3-1.3,0.8-2.3,1.6-3.2s1.9-1.3,3.3-1.3c2.3,0,4,0.7,5,2.1s1.6,3.3,1.6,5.8
				v25.5h-7.8v-24.7c0-0.6-0.1-1.2-0.4-1.8c-0.3-0.6-0.7-0.8-1.4-0.8c-0.6,0-1.1,0.2-1.3,0.6s-0.5,0.9-0.5,1.6s-0.1,1.2-0.1,1.9
				v23.2L166.5,163.3L166.5,163.3z"/>
			<path class="st4" d="M189,163.3v-33.1h8v3.7c0.4-1.3,1.1-2.3,2-3s2.2-1.1,3.7-1.1v6.6c-0.6,0-1.4,0.1-2.3,0.2s-1.7,0.3-2.4,0.6
				s-1,0.5-1,0.8v25.3L189,163.3L189,163.3z"/>
			<path class="st4" d="M213.9,163.7c-2.4,0-4.2-0.4-5.6-1.3s-2.4-2.1-3-3.8c-0.6-1.7-0.9-3.7-0.9-6v-13.3c0-3.1,0.9-5.4,2.6-7
				s4.2-2.4,7.3-2.4c6.4,0,9.5,3.1,9.5,9.3v2.4c0,2.9,0,4.9-0.1,5.9h-11.5v6.4c0,0.6,0,1.2,0.1,1.7c0.1,0.6,0.2,1,0.5,1.4
				s0.7,0.6,1.2,0.6c0.8,0,1.3-0.4,1.5-1.1c0.2-0.7,0.3-1.6,0.3-2.8v-3.2h7.8v1.9c0,2.5-0.3,4.5-0.9,6.2s-1.6,2.9-3.1,3.8
				C218.3,163.2,216.4,163.7,213.9,163.7L213.9,163.7z M212.2,143.6h3.8v-4.4c0-1.2-0.1-2.1-0.4-2.6c-0.3-0.5-0.7-0.8-1.3-0.8
				c-0.6,0-1.1,0.2-1.5,0.8c-0.4,0.5-0.5,1.4-0.5,2.6L212.2,143.6L212.2,143.6z"/>
		</g>
	</g>
	<g>
		<path class="st5" d="M87.2,236.5c-1.5-0.9-3.5-0.6-5,0.4c-1.2,0.8-2.1,2-2.9,3.2c0.6-1.3,0.1-3-1.1-3.9c-1.4-1-3.6-0.8-4.9,0.4
			c-0.8,0.7-1.3,1.7-1.5,2.7c-0.4-1.7-1.8-3.1-3.5-3.4c-1.9-0.3-3.8,1.1-4.5,2.9c-0.2-1.6-1.6-3.2-3.3-3.1c-1.7,0.1-3,1.9-2.9,3.6
			c-0.4-0.8-1.1-1.4-1.9-1.6c-1.2-0.4-2.7,0-3.6,0.9c-1.4,1.5-1.2,3.8-0.8,5.8c0.8,4.1,2,8.1,3.7,11.9c1.1,2.5,2.3,7.2,5.6,7.1
			c3.7,0,7.7-2,11.4-2.4c1.1-0.1,12.6,0.2,12.5,0.5c2.3-6,3.8-12.3,4.5-18.7C89.3,240.7,89.2,237.8,87.2,236.5
			C87.2,236.5,87.2,236.5,87.2,236.5z"/>
		<path class="st5" d="M52.3,647.5l1.4-387.2c0,0,8.7-12.2,34.8-5.7l20.2,366C108.7,620.5,52.3,647.5,52.3,647.5z"/>
	</g>
	<g>
		<path class="st5" d="M193,237.1c1.5-1.6,3.5-0.9,5,0.8c1.2,1.4,2.1,3.3,2.9,5.4c-0.6-2.1-0.1-5,1.1-6.4c1.4-1.7,3.6-1.3,4.9,0.7
			c0.8,1.2,1.3,2.8,1.5,4.5c0.4-2.8,1.8-5.2,3.5-5.6c1.9-0.4,3.8,1.8,4.5,4.8c0.2-2.7,1.6-5.2,3.3-5.1c1.7,0.2,3,3.2,2.9,6
			c0.4-1.3,1.1-2.3,1.9-2.7c1.2-0.7,2.7-0.1,3.6,1.6c1.4,2.5,1.2,6.4,0.8,9.7c-0.8,6.8-2.1,13.4-3.7,19.8
			c-1.1,4.2-2.3,11.9-5.6,11.9c-3.7,0-7.6-3.4-11.4-4c-1.1-0.2-12.6,0.4-12.5,0.8c-2.3-10-3.8-20.5-4.5-31.1
			C190.9,244,191,239.2,193,237.1L193,237.1L193,237.1z"/>
		<path class="st5" d="M170,647.5l63.7-13.5L226,271.1c0,0-9.3-11.8-37.4-5.5"/>
	</g>
	<g>
		<path class="st0" d="M83.3,197.1c0,0-1.7-25.1-6.5-26.9c-4.8-1.7-5.9,4.5-5.7,10.6s0.7,14.1-1.3,21.9
			C67.8,210.6,83.8,214.6,83.3,197.1z"/>
		<g>
			<path class="st1" d="M76.7,184.8c-0.7,0-1.4-0.2-2-0.7c-0.1-0.1-0.1-0.1,0-0.2c0.1-0.1,0.1-0.1,0.2,0c0.9,0.7,2.3,0.8,3.3,0.2
				c0.1,0,0.2,0,0.2,0.1s0,0.1-0.1,0.2C77.8,184.7,77.2,184.8,76.7,184.8L76.7,184.8z"/>
			<path class="st1" d="M77.4,188c-0.8,0-1.7-0.3-2.3-0.8c-0.1-0.1-0.1-0.1,0-0.2s0.1-0.1,0.2,0c0.7,0.6,1.7,0.9,2.7,0.7
				c0.1,0,0.2,0,0.2,0.1s0,0.1-0.1,0.2C78.1,188,77.4,188,77.4,188z"/>
		</g>
		<path class="st2" d="M72.4,176.1c-0.3-1.7-0.1-3.4,0.1-5.1c0.1-1,0.3-2.1,1.2-2.7c1-0.7,2.4-0.2,3.2,0.6c0.8,0.9,1.1,2,1.4,3.2
			c0.3,1.1,0.6,2.2,0.7,3.4c0.1,1.1-0.2,2.4-0.8,3.3C75.9,181.9,73,178.8,72.4,176.1L72.4,176.1L72.4,176.1z"/>
	</g>
	<g>
		<path class="st0" d="M196.9,197.1c0,0,1.7-25.1,6.5-26.9c4.8-1.7,5.9,4.5,5.7,10.6s-0.7,14.1,1.3,21.9
			C212.4,210.6,196.5,214.6,196.9,197.1z"/>
		<g>
			<path class="st1" d="M203.6,184.8c0.7,0,1.4-0.2,2-0.7c0.1-0.1,0.1-0.1,0-0.2c-0.1-0.1-0.1-0.1-0.2,0c-0.9,0.7-2.3,0.8-3.3,0.2
				c-0.1,0-0.1,0-0.2,0.1c0,0.1,0,0.1,0.1,0.2C202.4,184.7,203,184.8,203.6,184.8L203.6,184.8L203.6,184.8z"/>
			<path class="st1" d="M202.8,188c0.8,0,1.7-0.3,2.4-0.8c0.1-0.1,0.1-0.1,0-0.2c-0.1-0.1-0.1-0.1-0.2,0c-0.7,0.6-1.7,0.9-2.7,0.7
				c-0.1,0-0.1,0-0.2,0.1c0,0.1,0,0.1,0.1,0.2H202.8L202.8,188z"/>
		</g>
		<path class="st2" d="M207.8,176.1c0.3-1.7,0.1-3.4-0.1-5.1c-0.1-1-0.3-2.1-1.2-2.7c-1-0.7-2.4-0.2-3.2,0.6s-1.1,2-1.4,3.2
			c-0.3,1.1-0.6,2.2-0.7,3.4c-0.1,1.1,0.2,2.4,0.8,3.3C204.4,181.9,207.2,178.8,207.8,176.1L207.8,176.1L207.8,176.1z"/>
	</g>
</g>
</svg>
