<?xml version="1.0" encoding="UTF-8"?><svg id="Calque_1" xmlns="http://www.w3.org/2000/svg" viewBox="0 0 323.1 873.1"><defs><style>.cls-1{fill:#f9c4a6;}.cls-2{fill:#f9b981;}.cls-3{fill:#010101;}.cls-4{fill:#f5a254;}.cls-5{fill:#fff;}.cls-6{fill:#ba7c5f;}.cls-7{fill:#a29fcf;}.cls-8{fill:#2e307e;}.cls-9{fill:#4d6fa9;}.cls-10{fill:#885055;opacity:.2;}.cls-10,.cls-11{isolation:isolate;}</style></defs><g id="Calque_1-2"><g><g><path class="cls-6" d="M169.5,374h-15.6V47.6c0-6.5,3.5-11.8,7.8-11.8h0c4.3,0,7.8,5.3,7.8,11.8V374h0Z"/><rect class="cls-10" x="153.9" y="257.4" width="15.6" height="11.9"/><polygon class="cls-5" points="304.8 221.7 23 217.1 30.2 49.7 298.1 49.7 304.8 221.7"/></g><path class="cls-2" d="M124.9,314.2s-8.6,19.2-3.7,36.4c-1.1,15.6-4.3,78.8-4.3,78.8,0,0,41.5,1.1,42.1,0,.5-1.1-2.7-65.5-2.7-65.5,0,0,19.2-4.6,22.9-11.8,2.5-5-1.2-8.8-1.2-8.8,0,0,5.1-2,5.6-7.9,.3-4.6-5.1-7.4-5.1-7.4,0,0,5.6-1.6,5.8-7.1s-6.7-8.7-6.7-8.7c0,0,6.8-4,4.4-8.4-3.7-6.9-37.5-3.1-37.5-3.1,0,0-15.1,6.8-19.6,13.5h0Z"/><polygon class="cls-7" points="189.2 803.6 112.3 844.3 112.3 425.9 163.8 425.9 164.5 437.6 168 493.9 189.2 803.6"/><path class="cls-9" d="M168,467.9c-5.2,1-10.4,1.6-15.7,1.8-13.7,.5-27.9-2.1-40-8.3v-21.8c8.2-2.6,16.9-4.1,25.4-5,8.9-.9,17.9-1.4,26.8-1.5l3.5,34.8h0Z"/><path class="cls-8" d="M112.3,419.7l-2.6,26.5s20,9.3,34.3,9.2,26.8-11.8,26.8-11.8l-6.7-23.9c.1,0-16.6,7-51.8,0h0Z"/><path class="cls-5" d="M124.9,434.6c0,2.7-1.8,5-4,5s-4-2.2-4-5,1.8-5,4-5,4,2.3,4,5Z"/><path class="cls-10" d="M164.3,299.7c.1,0-5.2-.3-6.6,4-.8,2.6,0,6.1,4,6.4-5,1.5-5.9,4.2-6,6.4-.2,4.6,4.1,7.3,4.1,7.3,0,0-5.8,1.4-5.9,6.6-.2,5.8,5.8,7.8,5.8,7.8,0,0-6.4-.9-7.1,4.7-.7,5.6,9.3,9.1,9.3,9.1,0,0-13-1.9-18.7-1.9,6.4-6.3,3.7-23.6-2.4-31.5,10-4.2,8.3-17.9,8.3-17.9,0,0,10.4-2.1,15.2-1h0Z"/><path class="cls-6" d="M164.3,299.7c-2.6-.6-7-.2-10.4,.3v29.5c.8-4.4,5.8-5.7,5.8-5.7,0,0-4.2-2.7-4.1-7.3,.1-2.2,1-4.9,6-6.4-4-.3-5-3.9-4-6.4,1.7-4,6.8-4,6.7-4h0Z"/><path class="cls-6" d="M153.9,347.1v26.9c1.4,.2,9.9,4.7,15.6,0,0-12.4,.1-19.2,.1-19.2-3.8-.7-7.6-3.5-7.6-3.5,0,0-5.4-1-8.1-4.2h0Z"/><path class="cls-6" d="M159.6,338.2s-5-1.7-5.7-6.4v8c2.2-2,5.7-1.6,5.7-1.6h0Z"/><path class="cls-2" d="M124.9,314.2s8.4-22,17.1-23.7c8.7-1.8,20.8-1.4,21.7,2,.5,1.8-1.2,7.7-13.1,7.8,0,6.9-3.4,12.9-3.4,12.9,0,0,9.7,11.2-3.4,39.5"/><path class="cls-1" d="M165.1,301.5l-.4,6.8s-6,0-5.9-3.1,3.7-4.2,6.3-3.7h0Z"/><path class="cls-1" d="M163.9,313.9v7.2s-6,.3-6.1-3.8c-.1-4.1,6.1-3.4,6.1-3.4h0Z"/><path class="cls-1" d="M161.9,327.6l-1,7.9s-5.5-.6-4.9-4.7c.6-4.2,5.9-3.2,5.9-3.2Z"/><path class="cls-1" d="M159.6,340.6l-.5,6.5s-5.1-1-4.6-4c.4-3,5.1-2.5,5.1-2.5h0Z"/><path class="cls-1" d="M151.6,290.1l1.7,1.8s8.8-.2,8.4-1.1c-.3-1-7.5-3.5-10.1-.7h0Z"/></g><rect class="cls-4" x="159.4" y="110.2" width="118.1" height="63.6"/><g class="cls-11"><path class="cls-5" d="M179.56,147.34c-.99,0-1.77-.18-2.35-.54-.58-.36-1.01-.86-1.3-1.5s-.47-1.38-.56-2.24c-.09-.86-.14-1.77-.14-2.75v-9.3c0-1.64,.29-2.98,.88-3.99,.58-1.02,1.58-1.53,2.97-1.53,1.04,0,1.83,.22,2.39,.66,.56,.44,.99,1.06,1.29,1.85v-5.99h5.19v25.09h-5.19v-2.27c-.29,.77-.66,1.38-1.13,1.82-.47,.45-1.15,.67-2.05,.67Zm1.95-3.99c.48,0,.81-.2,.98-.58s.25-1.09,.25-2.1v-9c0-.5-.07-1-.22-1.49-.15-.49-.47-.73-.98-.73-.55,0-.9,.23-1.04,.7s-.21,.97-.21,1.53v9c0,1.79,.41,2.68,1.23,2.68Z"/><path class="cls-5" d="M189.87,124.41v-4.25h5.1v4.25h-5.1Zm0,22.7v-21.39h5.1v21.39h-5.1Z"/><path class="cls-5" d="M202.85,147.34c-4.22,0-6.33-2.14-6.33-6.42v-1.7h5.13v2.51c0,.48,.09,.87,.29,1.14,.19,.28,.49,.41,.91,.41,.74,0,1.11-.56,1.11-1.67,0-.93-.19-1.63-.58-2.09-.39-.46-.87-.91-1.43-1.33l-2.72-2.1c-.86-.67-1.51-1.37-1.95-2.11-.45-.74-.67-1.77-.67-3.09,0-1.23,.29-2.24,.88-3.04,.58-.8,1.36-1.39,2.32-1.78s2.01-.58,3.13-.58c4.14,0,6.22,2.07,6.22,6.2v.4h-5.28v-.81c0-.43-.07-.84-.22-1.24s-.43-.6-.86-.6c-.72,0-1.08,.38-1.08,1.14s.3,1.37,.91,1.81l3.17,2.31c.99,.71,1.82,1.56,2.49,2.54,.67,.98,1,2.28,1,3.91,0,2.02-.57,3.55-1.72,4.61-1.15,1.05-2.72,1.58-4.71,1.58Z"/><path class="cls-5" d="M215.24,147.34c-1.38,0-2.31-.29-2.79-.88-.48-.58-.72-1.48-.72-2.69v-13.33h-1.44v-3.89h1.44v-4.53h4.96v4.53h1.44v3.89h-1.44v12.13c0,.35,.06,.6,.17,.74,.11,.14,.33,.21,.66,.21,.23,0,.43-.02,.61-.06v3.48c-.12,.04-.47,.11-1.07,.22-.6,.11-1.21,.16-1.82,.16Z"/><path class="cls-5" d="M219.76,147.11v-21.39h5.19v2.38c.25-.83,.68-1.47,1.31-1.94,.63-.47,1.42-.7,2.37-.7v4.26c-.42,0-.92,.04-1.5,.13-.58,.09-1.09,.21-1.53,.37s-.66,.33-.66,.52v16.35h-5.19Z"/><path class="cls-5" d="M233.78,147.34c-1.19,0-2.09-.28-2.72-.83-.62-.55-1.05-1.31-1.28-2.27-.23-.96-.34-2.05-.34-3.26,0-1.3,.13-2.37,.39-3.2,.26-.83,.7-1.51,1.32-2.05,.62-.53,1.48-.98,2.57-1.35l3.17-1.08v-2.2c0-1.15-.38-1.72-1.13-1.72-.68,0-1.03,.47-1.03,1.4v1.28h-4.96c0-.08-.01-.17-.01-.29v-.41c0-2.13,.5-3.64,1.5-4.53,1-.89,2.59-1.33,4.77-1.33,1.14,0,2.16,.2,3.07,.61,.9,.4,1.62,1,2.14,1.79,.53,.79,.79,1.76,.79,2.92v16.3h-5.08v-2.54c-.25,.89-.66,1.58-1.23,2.05-.57,.47-1.22,.71-1.95,.71Zm2.01-3.96c.42,0,.7-.18,.86-.53s.23-.73,.23-1.14v-5.96c-.7,.29-1.25,.64-1.64,1.08-.39,.43-.58,1.07-.58,1.9v2.75c0,1.26,.38,1.9,1.14,1.9Z"/><path class="cls-5" d="M243.97,124.41v-4.25h5.11v4.25h-5.11Zm0,22.7v-21.39h5.11v21.39h-5.11Z"/><path class="cls-5" d="M255.49,147.34c-1.38,0-2.31-.29-2.79-.88-.48-.58-.72-1.48-.72-2.69v-13.33h-1.44v-3.89h1.44v-4.53h4.96v4.53h1.44v3.89h-1.44v12.13c0,.35,.06,.6,.17,.74,.11,.14,.33,.21,.66,.21,.23,0,.43-.02,.61-.06v3.48c-.11,.04-.47,.11-1.07,.22-.6,.11-1.21,.16-1.83,.16Z"/></g><g class="cls-11"><path class="cls-3" d="M59.34,111.06v-25.34h-3.72v-6.02h13.72v6.02h-3.73v25.34h-6.27Z"/></g><g class="cls-11"><path class="cls-3" d="M57.91,177.13v-24.4h5.05v24.4h-5.05Z"/><path class="cls-3" d="M70.77,177.35c-1.48,0-2.66-.28-3.54-.83-.88-.55-1.51-1.35-1.89-2.4-.38-1.04-.57-2.3-.57-3.77v-8.36c0-1.93,.55-3.39,1.66-4.39,1.11-.99,2.63-1.49,4.57-1.49,3.99,0,5.99,1.96,5.99,5.88v1.51c0,1.83-.02,3.06-.06,3.69h-7.21v4.02c0,.37,.02,.73,.07,1.09,.05,.36,.15,.65,.31,.88,.16,.23,.42,.35,.78,.35,.52,0,.84-.22,.97-.67s.19-1.03,.19-1.75v-2h4.93v1.18c0,1.55-.19,2.85-.58,3.9s-1.03,1.84-1.94,2.37c-.91,.53-2.15,.8-3.72,.8Zm-1.05-12.63h2.36v-2.8c0-.75-.09-1.29-.28-1.62-.19-.33-.46-.49-.83-.49-.4,0-.7,.16-.92,.47s-.33,.86-.33,1.64v2.8Z"/><path class="cls-3" d="M84.51,177.35c-4.1,0-6.15-2.08-6.15-6.24v-1.65h4.99v2.44c0,.47,.09,.84,.28,1.11,.19,.27,.48,.4,.89,.4,.72,0,1.08-.54,1.08-1.62,0-.91-.19-1.58-.57-2.03s-.84-.88-1.39-1.3l-2.65-2.04c-.83-.65-1.46-1.33-1.9-2.05-.43-.72-.65-1.72-.65-3.01,0-1.19,.28-2.18,.85-2.95s1.32-1.35,2.26-1.73c.94-.38,1.95-.57,3.04-.57,4.03,0,6.04,2.01,6.04,6.03v.39h-5.13v-.79c0-.42-.07-.82-.21-1.21-.14-.39-.42-.58-.84-.58-.7,0-1.05,.37-1.05,1.11s.3,1.34,.89,1.76l3.08,2.25c.96,.69,1.77,1.52,2.42,2.47,.65,.95,.98,2.22,.98,3.8,0,1.96-.56,3.45-1.67,4.48-1.11,1.03-2.64,1.54-4.58,1.54Z"/><path class="cls-3" d="M102.73,177.35c-1.16,0-2.04-.27-2.64-.8s-1.02-1.27-1.24-2.2c-.22-.93-.33-1.99-.33-3.17,0-1.27,.12-2.3,.37-3.11,.25-.81,.68-1.47,1.28-1.99,.6-.52,1.44-.96,2.5-1.32l3.08-1.05v-2.13c0-1.12-.37-1.68-1.1-1.68-.67,0-1,.45-1,1.36v1.25h-4.82c0-.07-.01-.17-.01-.28v-.39c0-2.07,.49-3.54,1.46-4.4,.97-.86,2.52-1.3,4.64-1.3,1.11,0,2.1,.2,2.98,.59s1.57,.97,2.09,1.74c.51,.77,.77,1.71,.77,2.84v15.84h-4.93v-2.47c-.24,.87-.64,1.53-1.19,2-.55,.46-1.19,.69-1.9,.69Zm1.95-3.85c.41,0,.68-.17,.83-.51,.15-.34,.22-.71,.22-1.11v-5.79c-.68,.28-1.22,.63-1.59,1.05-.38,.42-.57,1.04-.57,1.85v2.68c0,1.23,.37,1.84,1.11,1.84Z"/><path class="cls-3" d="M116.67,177.35c-1.11,0-1.96-.23-2.54-.69-.59-.46-.99-1.11-1.2-1.93-.21-.83-.32-1.79-.32-2.9v-15.48h4.99v14.9c0,.83,.06,1.41,.19,1.74s.43,.49,.92,.49c.52,0,.84-.23,.98-.69,.13-.46,.2-1.06,.2-1.79v-14.65h4.95v20.79h-4.96v-2.22c-.31,.79-.69,1.4-1.13,1.82s-1.13,.62-2.07,.62Z"/><path class="cls-3" d="M131.1,177.35c-1.34,0-2.24-.28-2.71-.85-.47-.57-.7-1.44-.7-2.61v-12.96h-1.4v-3.78h1.4v-4.41h4.82v4.41h1.4v3.78h-1.4v11.8c0,.34,.06,.58,.17,.72s.32,.21,.64,.21c.22,0,.42-.02,.6-.06v3.38c-.11,.04-.46,.11-1.04,.21s-1.17,.16-1.77,.16Z"/><path class="cls-3" d="M135.5,177.13v-20.79h5.05v2.31c.24-.8,.67-1.43,1.28-1.88,.61-.45,1.38-.68,2.3-.68v4.14c-.41,0-.89,.04-1.46,.13-.56,.09-1.06,.21-1.48,.36-.43,.15-.64,.32-.64,.51v15.9h-5.05Z"/><path class="cls-3" d="M151.16,177.35c-1.48,0-2.66-.28-3.54-.83-.88-.55-1.51-1.35-1.89-2.4-.38-1.04-.57-2.3-.57-3.77v-8.36c0-1.93,.55-3.39,1.66-4.39,1.11-.99,2.63-1.49,4.57-1.49,3.99,0,5.99,1.96,5.99,5.88v1.51c0,1.83-.02,3.06-.06,3.69h-7.21v4.02c0,.37,.02,.73,.07,1.09,.05,.36,.15,.65,.31,.88,.16,.23,.42,.35,.78,.35,.52,0,.84-.22,.97-.67s.19-1.03,.19-1.75v-2h4.93v1.18c0,1.55-.19,2.85-.58,3.9s-1.03,1.84-1.94,2.37c-.91,.53-2.15,.8-3.72,.8Zm-1.05-12.63h2.36v-2.8c0-.75-.09-1.29-.28-1.62-.19-.33-.46-.49-.83-.49-.4,0-.7,.16-.92,.47s-.33,.86-.33,1.64v2.8Z"/><path class="cls-3" d="M164.9,177.35c-4.1,0-6.15-2.08-6.15-6.24v-1.65h4.99v2.44c0,.47,.09,.84,.28,1.11,.19,.27,.48,.4,.89,.4,.72,0,1.08-.54,1.08-1.62,0-.91-.19-1.58-.57-2.03s-.84-.88-1.39-1.3l-2.65-2.04c-.83-.65-1.46-1.33-1.9-2.05-.43-.72-.65-1.72-.65-3.01,0-1.19,.28-2.18,.85-2.95s1.32-1.35,2.26-1.73c.94-.38,1.95-.57,3.04-.57,4.03,0,6.04,2.01,6.04,6.03v.39h-5.13v-.79c0-.42-.07-.82-.21-1.21-.14-.39-.42-.58-.84-.58-.7,0-1.05,.37-1.05,1.11s.3,1.34,.89,1.76l3.08,2.25c.96,.69,1.77,1.52,2.42,2.47s.98,2.22,.98,3.8c0,1.96-.56,3.45-1.67,4.48-1.11,1.03-2.64,1.54-4.58,1.54Z"/><path class="cls-3" d="M185.15,177.35c-1.48,0-2.66-.28-3.54-.83-.88-.55-1.51-1.35-1.89-2.4-.38-1.04-.57-2.3-.57-3.77v-8.36c0-1.93,.55-3.39,1.66-4.39,1.11-.99,2.63-1.49,4.57-1.49,3.99,0,5.99,1.96,5.99,5.88v1.51c0,1.83-.02,3.06-.05,3.69h-7.21v4.02c0,.37,.02,.73,.07,1.09s.15,.65,.31,.88c.16,.23,.42,.35,.78,.35,.52,0,.84-.22,.97-.67,.13-.45,.19-1.03,.19-1.75v-2h4.93v1.18c0,1.55-.19,2.85-.58,3.9-.38,1.05-1.03,1.84-1.94,2.37s-2.15,.8-3.72,.8Zm-3.04-21.75v-3.09l6.58-3.02v4.81l-6.58,1.3Zm1.98,9.12h2.36v-2.8c0-.75-.09-1.29-.28-1.62-.18-.33-.46-.49-.83-.49-.4,0-.7,.16-.92,.47-.22,.31-.33,.86-.33,1.64v2.8Z"/><path class="cls-3" d="M193.19,177.13v-24.4h5.05v24.4h-5.05Z"/><path class="cls-3" d="M206.05,177.35c-1.48,0-2.66-.28-3.54-.83-.88-.55-1.51-1.35-1.89-2.4-.38-1.04-.57-2.3-.57-3.77v-8.36c0-1.93,.55-3.39,1.66-4.39,1.11-.99,2.63-1.49,4.57-1.49,3.99,0,5.99,1.96,5.99,5.88v1.51c0,1.83-.02,3.06-.05,3.69h-7.21v4.02c0,.37,.02,.73,.07,1.09s.15,.65,.31,.88c.16,.23,.42,.35,.78,.35,.52,0,.84-.22,.97-.67,.13-.45,.19-1.03,.19-1.75v-2h4.93v1.18c0,1.55-.19,2.85-.58,3.9-.38,1.05-1.03,1.84-1.94,2.37s-2.15,.8-3.72,.8Zm3.53-21.75l-6.58-1.3v-4.81l6.58,3.02v3.09Zm-4.59,9.12h2.36v-2.8c0-.75-.09-1.29-.28-1.62-.18-.33-.46-.49-.83-.49-.4,0-.7,.16-.92,.47-.22,.31-.33,.86-.33,1.64v2.8Z"/><path class="cls-3" d="M216.74,177.13l-3.34-20.79h4.98l1.19,13.89,1.34-13.89h4.96l-3.4,20.79h-5.74Z"/><path class="cls-3" d="M233,177.35c-1.48,0-2.66-.28-3.54-.83-.88-.55-1.51-1.35-1.89-2.4-.38-1.04-.57-2.3-.57-3.77v-8.36c0-1.93,.55-3.39,1.66-4.39,1.11-.99,2.63-1.49,4.57-1.49,3.99,0,5.99,1.96,5.99,5.88v1.51c0,1.83-.02,3.06-.05,3.69h-7.21v4.02c0,.37,.02,.73,.07,1.09s.15,.65,.31,.88c.16,.23,.42,.35,.78,.35,.52,0,.84-.22,.97-.67,.13-.45,.19-1.03,.19-1.75v-2h4.93v1.18c0,1.55-.19,2.85-.58,3.9-.38,1.05-1.03,1.84-1.94,2.37s-2.15,.8-3.72,.8Zm-1.05-12.63h2.36v-2.8c0-.75-.09-1.29-.28-1.62-.18-.33-.46-.49-.83-.49-.4,0-.7,.16-.92,.47-.22,.31-.33,.86-.33,1.64v2.8Z"/><path class="cls-3" d="M246.74,177.35c-4.1,0-6.16-2.08-6.16-6.24v-1.65h4.99v2.44c0,.47,.09,.84,.28,1.11,.19,.27,.48,.4,.89,.4,.72,0,1.08-.54,1.08-1.62,0-.91-.19-1.58-.57-2.03s-.84-.88-1.39-1.3l-2.65-2.04c-.83-.65-1.46-1.33-1.9-2.05-.43-.72-.65-1.72-.65-3.01,0-1.19,.28-2.18,.85-2.95s1.32-1.35,2.26-1.73c.94-.38,1.95-.57,3.04-.57,4.03,0,6.04,2.01,6.04,6.03v.39h-5.13v-.79c0-.42-.07-.82-.21-1.21-.14-.39-.42-.58-.84-.58-.7,0-1.05,.37-1.05,1.11s.3,1.34,.89,1.76l3.08,2.25c.96,.69,1.77,1.52,2.42,2.47s.98,2.22,.98,3.8c0,1.96-.56,3.45-1.67,4.48-1.11,1.03-2.64,1.54-4.58,1.54Z"/><path class="cls-3" d="M254.28,177.12v-4.13h4.96v4.13h-4.96Z"/></g><g class="cls-11"><path class="cls-3" d="M77.95,111.35c-5.32,0-7.98-2.76-7.98-8.29v-10.73c0-2.52,.71-4.53,2.12-6.03,1.41-1.5,3.37-2.25,5.86-2.25s4.47,.75,5.88,2.25c1.41,1.5,2.12,3.51,2.12,6.03v10.73c0,5.52-2.67,8.29-8,8.29Zm0-4.92c.53,0,.92-.19,1.15-.58,.23-.39,.35-.88,.35-1.47v-13.06c0-1.56-.5-2.33-1.5-2.33s-1.5,.78-1.5,2.33v13.06c0,.59,.12,1.08,.35,1.47,.23,.39,.61,.58,1.15,.58Z"/><path class="cls-3" d="M88.31,111.06v-26.73h6.38v3.4c.24-1.02,.68-1.89,1.33-2.61s1.55-1.08,2.7-1.08c1.85,0,3.2,.57,4.04,1.71,.84,1.14,1.26,2.7,1.26,4.69v20.62h-6.29v-19.96c0-.52-.11-1.01-.32-1.45-.21-.45-.58-.67-1.1-.67-.49,0-.85,.17-1.08,.51-.23,.34-.38,.76-.44,1.27-.06,.5-.09,1.01-.09,1.51v18.8h-6.38Z"/><path class="cls-3" d="M120.32,111.35c-1.24,0-2.22-.23-2.94-.68-.73-.45-1.27-1.07-1.62-1.87-.36-.8-.59-1.73-.7-2.8-.11-1.07-.17-2.22-.17-3.44v-11.62c0-2.06,.37-3.72,1.1-4.99,.73-1.27,1.97-1.91,3.72-1.91,1.29,0,2.29,.28,2.99,.83,.69,.55,1.23,1.32,1.61,2.31v-7.49h6.49v31.37h-6.49v-2.83c-.36,.96-.83,1.72-1.42,2.28-.59,.56-1.44,.84-2.56,.84Zm2.44-4.99c.61,0,1.01-.24,1.22-.73s.31-1.36,.31-2.62v-11.25c0-.63-.09-1.25-.28-1.86-.18-.61-.59-.92-1.22-.92-.69,0-1.12,.29-1.3,.87-.18,.58-.27,1.22-.27,1.91v11.25c0,2.23,.51,3.35,1.53,3.35Z"/><path class="cls-3" d="M140.72,111.35c-1.9,0-3.42-.36-4.54-1.07s-1.94-1.74-2.42-3.08-.73-2.96-.73-4.85v-10.75c0-2.48,.71-4.36,2.14-5.64s3.39-1.92,5.88-1.92c5.13,0,7.7,2.52,7.7,7.56v1.94c0,2.35-.02,3.93-.07,4.74h-9.27v5.17c0,.48,.03,.94,.09,1.4,.06,.46,.19,.83,.4,1.13,.21,.3,.54,.45,1.01,.45,.67,0,1.08-.29,1.25-.86,.17-.58,.25-1.33,.25-2.25v-2.57h6.34v1.51c0,2-.25,3.67-.74,5.02s-1.32,2.36-2.5,3.05c-1.17,.68-2.77,1.02-4.79,1.02Zm-3.9-27.96v-3.97l8.47-3.88v6.18l-8.47,1.68Zm2.55,11.73h3.03v-3.6c0-.96-.12-1.65-.36-2.08-.24-.42-.59-.63-1.07-.63-.51,0-.91,.2-1.19,.61-.28,.4-.42,1.11-.42,2.1v3.6Z"/><path class="cls-3" d="M159.1,111.35c-2.99,0-5.12-.77-6.37-2.3-1.25-1.53-1.88-3.78-1.88-6.75v-8.23c0-2.23,.24-4.09,.71-5.58,.48-1.48,1.31-2.6,2.5-3.33,1.19-.74,2.84-1.1,4.95-1.1,1.47,0,2.79,.26,3.97,.78,1.17,.52,2.09,1.29,2.77,2.3,.68,1.01,1.02,2.25,1.02,3.71v4.08h-6.5v-3.74c0-.62-.09-1.14-.27-1.56-.18-.42-.56-.63-1.16-.63-1.05,0-1.57,.74-1.57,2.23v12.96c0,.55,.12,1.05,.36,1.51,.24,.46,.63,.69,1.18,.69s.95-.22,1.17-.67c.22-.45,.33-.97,.33-1.56v-4.49h6.47v4.67c0,1.47-.33,2.74-.99,3.79-.66,1.05-1.57,1.86-2.72,2.42-1.15,.56-2.47,.84-3.96,.84Z"/><path class="cls-3" d="M176.76,111.35c-5.32,0-7.98-2.76-7.98-8.29v-10.73c0-2.52,.71-4.53,2.12-6.03,1.41-1.5,3.37-2.25,5.86-2.25s4.47,.75,5.88,2.25,2.12,3.51,2.12,6.03v10.73c0,5.52-2.67,8.29-8,8.29Zm0-4.92c.53,0,.92-.19,1.15-.58s.35-.88,.35-1.47v-13.06c0-1.56-.5-2.33-1.5-2.33s-1.5,.78-1.5,2.33v13.06c0,.59,.12,1.08,.35,1.47,.23,.39,.61,.58,1.15,.58Z"/><path class="cls-3" d="M187.12,111.06v-31.37h6.49v31.37h-6.49Z"/><path class="cls-3" d="M196.17,111.06v-31.37h6.49v31.37h-6.49Z"/><path class="cls-3" d="M212.71,111.35c-1.9,0-3.42-.36-4.54-1.07s-1.94-1.74-2.42-3.08-.73-2.96-.73-4.85v-10.75c0-2.48,.71-4.36,2.14-5.64s3.39-1.92,5.88-1.92c5.13,0,7.7,2.52,7.7,7.56v1.94c0,2.35-.02,3.93-.07,4.74h-9.27v5.17c0,.48,.03,.94,.09,1.4,.06,.46,.19,.83,.4,1.13s.54,.45,1.01,.45c.67,0,1.08-.29,1.25-.86,.17-.58,.25-1.33,.25-2.25v-2.57h6.34v1.51c0,2-.25,3.67-.74,5.02s-1.33,2.36-2.5,3.05c-1.17,.68-2.77,1.02-4.79,1.02Zm-1.35-16.24h3.03v-3.6c0-.96-.12-1.65-.36-2.08s-.59-.63-1.07-.63c-.51,0-.91,.2-1.18,.61-.28,.4-.42,1.11-.42,2.1v3.6Z"/><path class="cls-3" d="M228.53,111.35c-1.72,0-2.88-.37-3.48-1.1-.6-.73-.9-1.85-.9-3.36v-16.66h-1.8v-4.87h1.8v-5.67h6.2v5.67h1.8v4.87h-1.8v15.17c0,.44,.07,.75,.21,.93,.14,.18,.42,.27,.82,.27,.29,0,.54-.02,.77-.07v4.35c-.14,.05-.59,.14-1.34,.28-.75,.14-1.51,.21-2.28,.21Z"/><path class="cls-3" d="M241.67,111.35c-1.9,0-3.42-.36-4.54-1.07s-1.94-1.74-2.42-3.08-.73-2.96-.73-4.85v-10.75c0-2.48,.71-4.36,2.14-5.64s3.39-1.92,5.88-1.92c5.13,0,7.7,2.52,7.7,7.56v1.94c0,2.35-.02,3.93-.07,4.74h-9.27v5.17c0,.48,.03,.94,.09,1.4s.19,.83,.4,1.13c.21,.3,.54,.45,1.01,.45,.67,0,1.08-.29,1.25-.86s.25-1.33,.25-2.25v-2.57h6.34v1.51c0,2-.25,3.67-.74,5.02s-1.32,2.36-2.5,3.05c-1.17,.68-2.77,1.02-4.79,1.02Zm-3.9-27.96v-3.97l8.47-3.88v6.18l-8.47,1.68Zm2.55,11.73h3.03v-3.6c0-.96-.12-1.65-.36-2.08-.24-.42-.59-.63-1.07-.63-.51,0-.91,.2-1.19,.61-.28,.4-.42,1.11-.42,2.1v3.6Z"/></g></g></svg>