<?xml version="1.0" encoding="UTF-8"?><svg id="Calque_1" xmlns="http://www.w3.org/2000/svg" viewBox="0 0 240.9 626.5"><defs><style>.cls-1{fill:#f9bb82;}.cls-2{fill:#6b2627;}.cls-3{fill:#f5a254;}.cls-4{fill:#ef7f75;}.cls-5{fill:#f088b6;}.cls-6{fill:#fce7f0;}.cls-7{fill:#be3271;}.cls-8{fill:#1a1732;}.cls-9{isolation:isolate;}</style></defs><g id="Calque_1-2"><g id="pencarte_9"><path class="cls-2" d="M82.3,247.7h-1c-2-.3-3.5-2.1-3.2-4.2l14.4-107.9c.3-2,2.2-3.5,4.2-3.2s3.5,2.1,3.2,4.2l-14.4,107.9c-.3,1.7-1.6,3-3.2,3.2h0Z"/><g><path class="cls-6" d="M31.1,28.1l-14.3,102.6c-.4,2.7,1.5,5.1,4.2,5.4l153,15.4c2.6,.3,5-1.7,5.2-4.4l7.6-103.3c.2-2.6-1.7-4.8-4.2-5L36.3,24.1c-2.5-.3-4.8,1.5-5.2,4Z"/><g class="cls-9"><path class="cls-8" d="M38.27,77.88l6.77-29.26,10.05,1.33-1.1,30.01-5.61-.74,.21-4.84-3.57-.47-1,4.73-5.76-.76Zm7.81-8.65l2.69,.36,.69-15.24-.27-.04-3.12,14.92Z"/><path class="cls-8" d="M55.81,80.19l3.91-29.64,7.83,1.03c1.64,.22,2.89,.75,3.75,1.61,.86,.86,1.41,1.99,1.65,3.39,.24,1.4,.23,3.04-.01,4.9-.24,1.8-.62,3.34-1.14,4.62s-1.28,2.23-2.27,2.84c-.99,.61-2.3,.81-3.94,.6l-2.41-.32-1.55,11.74-5.83-.77Zm8.08-16.29l.34,.04c1.1,.15,1.81-.08,2.14-.66,.33-.58,.57-1.48,.73-2.68,.15-1.12,.14-2-.02-2.65-.16-.64-.69-1.02-1.59-1.14l-.66-.09-.95,7.17Z"/><path class="cls-8" d="M72.1,82.34l3.91-29.64,7.83,1.03c1.64,.22,2.89,.75,3.75,1.61s1.41,1.99,1.65,3.39c.24,1.4,.23,3.04-.01,4.9-.24,1.8-.62,3.34-1.14,4.62s-1.28,2.23-2.27,2.84-2.3,.81-3.94,.59l-2.41-.32-1.55,11.74-5.83-.77Zm8.08-16.29l.34,.04c1.1,.14,1.81-.08,2.14-.66,.33-.58,.57-1.48,.73-2.68,.15-1.12,.14-2-.02-2.65-.16-.64-.69-1.02-1.59-1.14l-.66-.09-.95,7.17Z"/><path class="cls-8" d="M88.38,84.48l3.91-29.64,9.09,1.2c1.52,.2,2.62,.7,3.3,1.49,.68,.79,1.08,1.83,1.18,3.1,.1,1.27,.04,2.75-.18,4.42-.21,1.62-.59,2.88-1.13,3.79-.54,.91-1.4,1.48-2.58,1.7,.91,.31,1.5,.86,1.78,1.65,.28,.79,.34,1.76,.19,2.93l-1.48,11.22-5.84-.77,1.53-11.6c.11-.86,0-1.42-.32-1.68-.33-.25-.88-.43-1.67-.54l-1.78,13.52-6-.79Zm8.49-17.87l1.43,.19c.82,.11,1.35-.73,1.58-2.51,.15-1.16,.16-1.93,.03-2.31-.13-.38-.45-.61-.94-.67l-1.38-.18-.72,5.49Z"/><path class="cls-8" d="M104.82,86.65l3.91-29.64,11.86,1.56-.75,5.72-5.83-.77-.76,5.78,5.59,.74-.73,5.57-5.59-.74-.9,6.79,6.21,.82-.76,5.78-12.24-1.61Z"/><path class="cls-8" d="M119.02,88.52l3.91-29.64,6.1,.8,.86,14.56,1.87-14.2,5.72,.75-3.91,29.64-5.79-.76-1.01-15.21-1.95,14.82-5.79-.76Z"/><path class="cls-8" d="M136.2,90.79l3.91-29.64,8.15,1.08c2.13,.28,3.66,1.08,4.58,2.41,.92,1.33,1.23,3.13,.93,5.41l-1.83,13.88c-.37,2.81-1.15,4.91-2.33,6.31-1.18,1.4-3,1.93-5.46,1.61l-7.95-1.05Zm6.65-4.45l1.03,.14c1.09,.14,1.7-.31,1.84-1.37l2.02-15.29c.13-.99,.08-1.64-.14-1.96-.23-.32-.74-.54-1.55-.64l-.66-.09-2.53,19.22Z"/><path class="cls-8" d="M160.21,94.23c-2.71-.36-4.57-1.29-5.59-2.79s-1.33-3.73-.95-6.67l.38-2.9,5.86,.77-.49,3.71c-.09,.68-.06,1.23,.1,1.65,.16,.41,.49,.66,1.01,.72,.54,.07,.93-.04,1.18-.32,.25-.29,.42-.79,.52-1.51,.12-.91,.13-1.68,.03-2.32-.1-.64-.33-1.26-.7-1.88-.37-.61-.9-1.34-1.59-2.19l-2.33-2.88c-1.74-2.14-2.45-4.41-2.13-6.83,.33-2.53,1.17-4.37,2.52-5.55,1.35-1.17,3.13-1.61,5.36-1.32,2.72,.36,4.55,1.34,5.5,2.94s1.23,3.87,.84,6.83l-6.03-.79,.27-2.04c.05-.4-.02-.73-.22-.99-.2-.25-.5-.41-.89-.46-.47-.06-.83,.02-1.09,.26-.25,.24-.41,.56-.46,.98s0,.88,.16,1.39c.16,.51,.53,1.13,1.11,1.84l2.99,3.74c.6,.74,1.14,1.51,1.62,2.31,.48,.8,.83,1.7,1.05,2.71,.22,1.01,.24,2.2,.06,3.58-.37,2.79-1.17,4.9-2.4,6.34-1.24,1.44-3.13,2-5.68,1.66Z"/></g><g class="cls-9"><path class="cls-7" d="M33.34,106.19l6.77-29.26,10.05,1.33-1.09,30.01-5.61-.74,.21-4.84-3.57-.47-1,4.73-5.76-.76Zm7.8-8.65l2.69,.36,.69-15.24-.27-.04-3.12,14.92Zm8.06-20.32l-7.79-2.64,.77-5.84,7.51,4.73-.5,3.76Z"/></g><g class="cls-9"><path class="cls-7" d="M73.93,111.54l6.77-29.26,10.05,1.33-1.1,30.01-5.61-.74,.21-4.84-3.57-.47-1,4.73-5.76-.76Zm7.81-8.65l2.69,.36,.69-15.24-.27-.04-3.12,14.92Z"/><path class="cls-7" d="M91.48,113.85l3.91-29.64,9.09,1.2c1.52,.2,2.62,.7,3.3,1.49,.68,.79,1.08,1.83,1.18,3.1,.1,1.27,.04,2.75-.18,4.42-.21,1.62-.59,2.88-1.13,3.79-.54,.91-1.4,1.48-2.58,1.7,.91,.31,1.5,.86,1.78,1.65,.28,.79,.34,1.76,.19,2.93l-1.48,11.22-5.84-.77,1.53-11.6c.11-.86,0-1.42-.32-1.68-.33-.25-.88-.43-1.67-.54l-1.78,13.52-6-.79Zm8.49-17.87l1.43,.19c.82,.11,1.35-.73,1.58-2.51,.15-1.16,.16-1.93,.03-2.31-.13-.38-.45-.61-.94-.67l-1.38-.18-.72,5.49Z"/><path class="cls-7" d="M107.92,116.02l3.91-29.64,5.93,.78-3.24,24.59,6.1,.8-.67,5.05-12.02-1.58Z"/><path class="cls-7" d="M121.63,117.83l3.91-29.64,11.86,1.56-.75,5.73-5.83-.77-.76,5.78,5.59,.74-.73,5.57-5.59-.74-.9,6.79,6.21,.82-.76,5.78-12.24-1.61Z"/><path class="cls-7" d="M135.83,119.7l3.91-29.64,9.09,1.2c1.52,.2,2.62,.7,3.3,1.49,.68,.79,1.08,1.83,1.18,3.1,.1,1.28,.04,2.75-.18,4.42-.21,1.62-.59,2.88-1.13,3.79-.54,.91-1.4,1.48-2.58,1.7,.91,.31,1.5,.86,1.78,1.65,.28,.79,.34,1.76,.19,2.93l-1.48,11.22-5.84-.77,1.53-11.6c.11-.86,0-1.42-.32-1.68-.33-.25-.88-.43-1.67-.54l-1.78,13.52-6-.79Zm8.49-17.87l1.43,.19c.82,.11,1.35-.73,1.58-2.51,.15-1.16,.16-1.93,.03-2.31-.13-.38-.45-.61-.94-.67l-1.38-.18-.72,5.49Z"/></g><g class="cls-9"><path class="cls-7" d="M58.97,109.57l3.91-29.64,7.83,1.03c1.64,.22,2.89,.75,3.75,1.61,.86,.86,1.42,1.99,1.65,3.39,.24,1.4,.23,3.04-.01,4.9-.24,1.8-.62,3.34-1.14,4.62s-1.28,2.23-2.27,2.84c-.99,.61-2.3,.81-3.94,.59l-2.41-.32-1.55,11.74-5.83-.77Zm8.08-16.29l.34,.04c1.1,.15,1.81-.07,2.14-.66,.33-.58,.57-1.48,.73-2.68,.15-1.12,.14-2-.02-2.65-.16-.64-.69-1.02-1.59-1.14l-.66-.09-.95,7.17Z"/></g></g><path class="cls-1" d="M107.7,199c-4.2-7.7-13.2-20.4-19-21.3-5.8-.9-11.7-3.6-11.7,1.1s10.7,6.1,14.7,14.4,16,5.8,16,5.8h0Z"/><g><path class="cls-1" d="M147.9,336.8c-6.3-25.1-12.9-50.1-18.9-75.3-3.4-14.4-7.5-28.7-12.2-42.8-3.7-11.1-6.1-21.1-17.9-25.8-12.2-4.8-24.5-11.5-28.1-9.3s-4,6.5,1.8,12.9c0,0-6.9-.2-4.8,7.7,0,0-7.7,1.8-3.1,9.6,0,0-3.9,2.3-1.4,7.4,2.1,4.2,6.2,6.3,15.6,10.6,9.4,4.2,15.3,7,19.2,11l6.2,95.8,43.6-1.8h0Z"/><g><g><path class="cls-4" d="M77.7,198.5l-5.7-2.6c.2,.2,.3,.4,.5,.6h-.5l5.4,2.5h.2c.1,0,.2-.1,.2-.1,.1-.2,0-.3-.1-.4h0Z"/><path class="cls-4" d="M64.7,213.8s-.2,.1-.4,.3l4,1.6h.1c.1,0,.2-.1,.2-.2,.1-.1,0-.3-.2-.4l-3.9-1.6q.1,.2,.2,.3h0Z"/><path class="cls-4" d="M67.6,203.7c0,.2,.1,.3,.1,.5,0,0-.1,0-.2,.1l5.5,3.2h.2c.1,0,.2-.1,.2-.1,.1-.1,0-.3-.1-.4l-5.7-3.3h0Z"/></g><g><path class="cls-4" d="M75.7,224c-.1,0-.3-.1-.3-.2-.3-1-.3-2,0-3,0-.1,.2-.2,.3-.2s.2,.2,.2,.3c-.3,.9-.3,1.8,0,2.7,.1,.2,0,.3-.2,.4q0-.1,0,0h0Z"/><path class="cls-4" d="M78.1,215.9c-.2,0-.3-.1-.3-.2-.2-1.4,.4-2.8,1.5-3.7,.1-.1,.3-.1,.4,0s.1,.3,0,.4c-.9,.8-1.4,2-1.3,3.2-.1,.2-.2,.3-.3,.3h0Z"/><path class="cls-4" d="M81.5,207.2c-.1,0-.3-.1-.3-.2-.4-1.3,.1-2.8,1.2-3.7,.1-.1,.3-.1,.4,0s.1,.3,0,.4c-.9,.7-1.3,2-1,3.1,0,.2-.1,.4-.3,.4h0Z"/><path class="cls-4" d="M85.6,196.9s-.1,0,0,0c-.2,0-.3-.1-.3-.3,.1-1.4,.9-2.7,2.1-3.3,.1-.1,.3,0,.4,.1s0,.3-.1,.4c-1,.6-1.8,1.7-1.8,2.9-.1,.1-.2,.2-.3,.2h0Z"/></g><path class="cls-4" d="M101.1,242.7c.7-.1,1.4-.2,2.1-.4,.1,0,.2-.2,.2-.3s-.2-.2-.3-.2c-1.8,.5-3.7,.7-5.5,.4l.6,.6h0c.9,0,1.9,0,2.9-.1h0Z"/></g></g><g><g><path class="cls-3" d="M98.8,274.8l-3.3-18.2c-.3-1.5,.5-2.9,1.9-3.6,4.2-1.9,13.9-5.4,30-5.4,1.6,0,3,1.1,3.3,2.6l4.5,21.5-36.4,3.1h0Z"/><g><path class="cls-8" d="M106.7,274.1c-.5-7.8-1.8-15.6-3.8-23.2-.1,0-.2,.1-.3,.1,2,7.6,3.2,15.3,3.8,23.2l.3-.1h0Z"/><path class="cls-8" d="M107.7,249.6c-.1,0-.2,0-.3,.1l3.1,24h-.2v.1h.5l-3.1-24.2h0Z"/><path class="cls-8" d="M98.1,252.7c-.1,0-.2,.1-.3,.1l4.3,21.7h.3l-4.3-21.8h0Z"/><path class="cls-8" d="M116.3,272.9h.3l-3.3-24.3h-.3l3.3,24.3Z"/><path class="cls-8" d="M117.7,248h-.3l3.1,24.2h-.1l.2,.7h.3l-3.2-24.9h0Z"/><path class="cls-8" d="M124.2,247.7h-.3l2.8,24h-.2l.2,.7h.3l-2.8-24.7h0Z"/><path class="cls-8" d="M126.8,247.6h-.3l4.1,24.5h.3l-4.1-24.5h0Z"/><path class="cls-8" d="M120.8,247.8h-.3l3.2,23.7h-.2l.2,1.1h.4l-3.3-24.8h0Z"/></g></g><g><path class="cls-7" d="M129.1,610.1l-32.7-335.9s22.3-17.8,40.2-7.7l61.5,343.5-69,.1Z"/><g><path class="cls-5" d="M102.5,336.3l.1,1.9c14.9-4.9,30.8-6.2,46.3-3.7l-.4-2c-6.2-.9-12.4-1.3-18.8-1.1-9.4,.4-18.5,2-27.2,4.9h0Z"/><path class="cls-5" d="M101.6,326.2l.1,2c14.2-5.8,29.9-7.6,45.1-5.4l-.4-2c-8.8-1.1-37,2.3-44.8,5.4h0Z"/><path class="cls-5" d="M117.8,297.1c8.3-.4,16.6,.7,24.8,2l-.5-2c-8.1-1.3-16.2-2.3-24.4-1.9-5.4,.2-12.1,1.1-18.8,3.7l.1,2c6.7-2.6,13.5-3.5,18.8-3.8h0Z"/><path class="cls-5" d="M144.9,310.6l-.4-1.9c-9.4-.7-18.9-.2-28.2,1.7-5.4,1.1-10.8,2.6-15.9,4.6l.1,2c14-5.4,29.4-7.6,44.4-6.4h0Z"/><path class="cls-5" d="M97.7,288.4l.1,1.9c13.7-4,28-5.6,42.3-4.8l-.4-1.9c-14.2-.7-28.7,.9-42,4.8Z"/><path class="cls-5" d="M112.8,272c-5.5,1.5-10.8,3.6-15.8,6.4l.1,2.1c5.1-2.9,10.5-5.2,16.2-6.7,7.9-2.1,16.2-2.8,24.3-2l-.5-1.9c-8.1-.8-16.4-.1-24.3,2.1h0Z"/></g></g></g></g></g></svg>