<?xml version="1.0" encoding="UTF-8"?><svg id="Calque_1" xmlns="http://www.w3.org/2000/svg" viewBox="0 0 232.4 731.3"><defs><style>.cls-1{fill:#f9b981;}.cls-2{fill:#6b2627;}.cls-3{fill:#f5a254;}.cls-4{fill:#fff;}.cls-5{fill:#d05a47;}.cls-6{fill:#be3271;}.cls-7{fill:#1a1732;}.cls-8{fill:#a29fcf;}.cls-9{fill:#813939;}.cls-10{fill:#7579b8;}.cls-11{fill:#4d6fa9;}.cls-12{isolation:isolate;}</style></defs><g id="Calque_1-2"><g id="pancarte_8"><path class="cls-2" d="M96.1,306.4c-2.1-.3-3.8-2.2-3.8-4.4l-.5-142.7c0-2.5,2-4.5,4.5-4.5s4.5,2,4.5,4.5l.5,142.7c0,2.5-2,4.5-4.5,4.5-.2-.1-.4-.1-.7-.1h0Z"/><g><path class="cls-4" d="M208.5,39.8l7.4,133.5c.2,3.5-3.7,6.5-8.5,6.5H27.2c-4.8,0-8.6-2.9-8.5-6.4L23.1,39.9c.1-3.4,3.9-6.1,8.5-6.1H199.9c4.6,.1,8.4,2.7,8.6,6h0Z"/><polygon class="cls-10" points="206.3 154.7 24.7 154.7 26.7 105.1 203.7 106.2 206.3 154.7"/><g class="cls-12"><path class="cls-4" d="M40.39,145.53l-4.08-25.36h6.07l1.45,16.94,1.64-16.94h6.05l-4.14,25.36h-7Z"/><path class="cls-4" d="M53.09,118.61v-5.04h6.05v5.04h-6.05Zm0,26.92v-25.36h6.05v25.36h-6.05Z"/><path class="cls-4" d="M66.54,145.8c-1.17,0-2.1-.21-2.79-.64-.69-.43-1.2-1.02-1.54-1.78s-.56-1.64-.67-2.65c-.11-1.01-.16-2.1-.16-3.26v-11.03c0-1.95,.35-3.53,1.04-4.73s1.87-1.81,3.53-1.81c1.23,0,2.17,.26,2.83,.79,.66,.52,1.17,1.25,1.53,2.19v-7.1h6.15v29.76h-6.15v-2.69c-.34,.91-.79,1.63-1.34,2.16-.56,.53-1.37,.79-2.43,.79Zm2.32-4.73c.57,0,.96-.23,1.16-.69,.2-.46,.3-1.29,.3-2.49v-10.67c0-.6-.09-1.19-.26-1.77-.17-.58-.56-.87-1.16-.87-.65,0-1.07,.28-1.23,.83-.17,.55-.25,1.16-.25,1.81v10.67c0,2.12,.48,3.18,1.45,3.18Z"/><path class="cls-4" d="M85.9,145.8c-1.8,0-3.24-.34-4.31-1.01-1.07-.68-1.84-1.65-2.3-2.92-.46-1.27-.69-2.81-.69-4.6v-10.2c0-2.36,.68-4.14,2.03-5.35,1.35-1.21,3.21-1.82,5.58-1.82,4.87,0,7.3,2.39,7.3,7.17v1.84c0,2.23-.02,3.73-.07,4.5h-8.79v4.9c0,.45,.03,.89,.08,1.33,.06,.43,.18,.79,.38,1.07,.2,.28,.52,.42,.96,.42,.63,0,1.03-.27,1.18-.82,.16-.55,.24-1.26,.24-2.14v-2.43h6.02v1.44c0,1.89-.23,3.48-.7,4.76s-1.26,2.24-2.37,2.89c-1.11,.65-2.62,.97-4.54,.97Zm-3.7-26.53v-3.77l8.03-3.69v5.87l-8.03,1.59Zm2.42,11.13h2.87v-3.42c0-.91-.11-1.57-.34-1.97-.23-.4-.56-.6-1.01-.6-.48,0-.86,.19-1.12,.57-.27,.38-.4,1.05-.4,2v3.42Z"/><path class="cls-4" d="M103.08,145.8c-5.05,0-7.58-2.62-7.58-7.86v-10.18c0-2.39,.67-4.3,2.01-5.72,1.34-1.43,3.2-2.14,5.56-2.14s4.24,.71,5.58,2.14c1.34,1.43,2.01,3.33,2.01,5.72v10.18c0,5.24-2.53,7.86-7.59,7.86Zm0-4.67c.51,0,.87-.18,1.09-.55,.22-.37,.33-.83,.33-1.39v-12.39c0-1.48-.47-2.21-1.42-2.21s-1.42,.74-1.42,2.21v12.39c0,.56,.11,1.03,.33,1.39,.22,.37,.58,.55,1.09,.55Z"/><path class="cls-4" d="M126,145.8c-1.17,0-2.1-.21-2.79-.64-.69-.43-1.2-1.02-1.54-1.78-.34-.75-.56-1.64-.67-2.65-.11-1.01-.16-2.1-.16-3.26v-11.03c0-1.95,.35-3.53,1.04-4.73s1.87-1.81,3.53-1.81c1.23,0,2.17,.26,2.83,.79,.66,.52,1.17,1.25,1.53,2.19v-7.1h6.15v29.76h-6.15v-2.69c-.34,.91-.79,1.63-1.34,2.16-.56,.53-1.37,.79-2.43,.79Zm2.32-4.73c.57,0,.96-.23,1.16-.69,.2-.46,.3-1.29,.3-2.49v-10.67c0-.6-.09-1.19-.26-1.77-.17-.58-.56-.87-1.16-.87-.65,0-1.07,.28-1.23,.83-.17,.55-.25,1.16-.25,1.81v10.67c0,2.12,.49,3.18,1.46,3.18Z"/><path class="cls-4" d="M138.92,124.49l1.12-3.99h-2.15v-5.04h6.32v4.89l-1.72,4.14h-3.57Z"/><path class="cls-4" d="M153.4,145.8c-1.8,0-3.24-.34-4.31-1.01-1.07-.68-1.84-1.65-2.3-2.92-.46-1.27-.69-2.81-.69-4.6v-10.2c0-2.36,.68-4.14,2.03-5.35,1.35-1.21,3.21-1.82,5.58-1.82,4.87,0,7.3,2.39,7.3,7.17v1.84c0,2.23-.02,3.73-.07,4.5h-8.79v4.9c0,.45,.03,.89,.08,1.33,.06,.43,.18,.79,.38,1.07,.2,.28,.52,.42,.96,.42,.63,0,1.03-.27,1.18-.82,.16-.55,.24-1.26,.24-2.14v-2.43h6.02v1.44c0,1.89-.23,3.48-.7,4.76s-1.26,2.24-2.37,2.89c-1.11,.65-2.62,.97-4.54,.97Zm-1.29-15.4h2.87v-3.42c0-.91-.11-1.57-.34-1.97-.23-.4-.56-.6-1.01-.6-.48,0-.86,.19-1.12,.57-.27,.38-.4,1.05-.4,2v3.42Z"/><path class="cls-4" d="M163.2,145.53v-29.76h6.16v29.76h-6.16Z"/><path class="cls-4" d="M171.79,145.53v-29.76h6.16v29.76h-6.16Z"/><path class="cls-4" d="M187.49,145.8c-1.8,0-3.24-.34-4.31-1.01-1.07-.68-1.84-1.65-2.3-2.92-.46-1.27-.69-2.81-.69-4.6v-10.2c0-2.36,.68-4.14,2.03-5.35,1.35-1.21,3.21-1.82,5.58-1.82,4.87,0,7.3,2.39,7.3,7.17v1.84c0,2.23-.02,3.73-.07,4.5h-8.79v4.9c0,.45,.03,.89,.08,1.33,.06,.43,.18,.79,.38,1.07,.2,.28,.52,.42,.96,.42,.63,0,1.03-.27,1.18-.82,.16-.55,.24-1.26,.24-2.14v-2.43h6.02v1.44c0,1.89-.23,3.48-.7,4.76s-1.26,2.24-2.37,2.89c-1.11,.65-2.62,.97-4.54,.97Zm-1.29-15.4h2.87v-3.42c0-.91-.11-1.57-.34-1.97-.23-.4-.56-.6-1.01-.6-.48,0-.86,.19-1.12,.57-.27,.38-.4,1.05-.4,2v3.42Z"/></g><g class="cls-12"><path class="cls-7" d="M35.76,97.09c-1.11,0-2.13-.22-3.04-.65-.92-.43-1.64-1.07-2.18-1.91-.54-.85-.81-1.89-.81-3.12v-6.18h4.88v5.89c0,.43,.09,.78,.26,1.04s.45,.39,.83,.39c.74,0,1.11-.45,1.11-1.36v-19h4.98v18.51c0,1.31-.26,2.44-.77,3.4s-1.23,1.7-2.13,2.22c-.91,.52-1.95,.78-3.13,.78Z"/><path class="cls-7" d="M44.15,79.42l.93-3.31h-1.78v-4.18h5.24v4.05l-1.43,3.44h-2.96Z"/><path class="cls-7" d="M49.67,96.87l2.38-24.68h8.37l2.34,24.68h-4.67l-.35-3.98h-2.97l-.31,3.98h-4.8Zm5.46-7.92h2.24l-1.08-12.55h-.22l-.94,12.55Z"/><path class="cls-7" d="M64.06,96.87v-24.68h4.77v24.68h-4.77Z"/><path class="cls-7" d="M83.23,97.09c-2.06,0-3.57-.58-4.54-1.73-.97-1.15-1.46-2.85-1.46-5.1v-18.08h4.8v17.88c0,.41,.02,.81,.07,1.19,.05,.38,.15,.69,.32,.93,.17,.24,.44,.36,.81,.36s.66-.12,.83-.36c.17-.24,.27-.55,.32-.93,.04-.38,.06-.78,.06-1.19v-17.88h4.8v18.08c0,2.24-.49,3.94-1.46,5.1-.97,1.16-2.49,1.73-4.54,1.73Z"/><path class="cls-7" d="M91.13,96.87v-24.68h5.08l2.27,11.82v-11.82h4.77v24.68h-4.82l-2.47-12.34v12.34h-4.82Z"/><path class="cls-7" d="M105.43,96.87v-24.68h9.87v4.77h-4.85v4.81h4.66v4.64h-4.66v5.65h5.17v4.81h-10.2Z"/></g></g><g><path class="cls-1" d="M96.2,250.7s16.2-7.5,18.4-16.6h-8.7l-5.8,1.9-2.2,7.1-1.7,7.6h0Z"/><path class="cls-1" d="M37,423.6l16.6-160.4c1.5-14.7,5.3-29.1,11.3-42.5,.9-2,1.8-4.1,2.6-6.4,5.2-13.8,8-12.2,11.5-13.6,6.2-2.5,18-6.9,19.3-5.3,.9,1.2,.2,4.3-1.7,7.5,2.2-.6,3.9-1.1,3.9-1.1l1.9,13.4-7.4,2.9,8.8,24.9s-8.9,14.8-27.1,13.9l3.3,166.7H37Z"/><g><g><path class="cls-9" d="M92.1,208c.1-.1,.1-.3,0-.4-.1-.1-.3-.1-.4,0-2.2,2.1-5.3,3.4-8.4,3.7-.1,0-.2,.1-.2,.1-.1,.1-.1,.2-.1,.2,1.4,7.6,.2,15-3.9,22.6-.1,.2,0,.4,.1,.4h.1c.1,0,.3,0,.3-.2,4.1-7.7,5.4-15.1,4-22.7,3.2-.1,6.3-1.6,8.5-3.7h0Z"/><path class="cls-9" d="M71.6,249.4c-.1-.2-.2-.3-.4-.2-.2,.1-.3,.2-.2,.4,1,3.1,3.1,5.7,5.7,7.5l.2-.2c.3,0,.6,0,.8,.1-2.9-1.7-5.1-4.4-6.1-7.6h0Z"/><path class="cls-9" d="M82.4,239.6c.7,.3,1.3,.5,2.1,.7,1.2,.2,2.5,.2,3.8-.1,.2-.1,.3-.2,.2-.4-.1-.2-.2-.3-.4-.2-1.8,.5-3.7,.3-5.3-.5-.2-.1-.3,0-.4,.1-.3,.1-.2,.3,0,.4h0Z"/></g><g><path class="cls-9" d="M105.4,211.7c-.1,0-.2-.1-.3-.2-.1-.1,0-.3,.1-.4,1.8-.9,3.7-1.6,5.7-2-.1,.1-.3,.2-.4,.3,.6-.1,1.2,0,1.7,.1-2.3,.4-4.6,1.1-6.7,2.2,0-.1-.1-.1-.1,0h0Z"/><path class="cls-9" d="M112.9,219.2c.3,.1,.5,.2,.8,.3-2.5-.2-5.1,.2-7.4,1.2h-.1c-.1,0-.2-.1-.3-.2-.1-.1,0-.3,.2-.4,2.3-1,4.9-1.5,7.4-1.3-.3,.3-.4,.3-.6,.4h0Z"/><path class="cls-9" d="M105,230.9h-.1c-.1,0-.2-.1-.3-.2-.1-.1,0-.3,.1-.4,2.2-1.1,4.6-1.7,7.1-1.9-.4,.2-.8,.4-1.2,.5,.3,0,.6,0,.9,.1-2.3,.3-4.5,.9-6.5,1.9h0Z"/></g></g></g><path class="cls-5" d="M93.4,207.1h0q-.1,0-.1,.1l.1-.1h0Z"/><g><path class="cls-8" d="M79.1,300.4s4.4-20.7,1.8-28.6c-2.7-8-26.7-14.6-30-5.8s-4.1,29.1-4.1,29.1l32.3,5.3h0Z"/><g><path class="cls-11" d="M72.8,295.1c3.8-8.6,5.5-17.9,5.1-27.2l.3,.3c.3,9.3-1.4,18.5-5.2,27.1l-.2-.2h0Z"/><path class="cls-11" d="M55.1,288.9h-.3c-1.1-9-.3-18.2,2.2-27h.3c-2.5,8.7-3.3,17.9-2.2,27h0Z"/><path class="cls-11" d="M64.3,289.6h.1l-.2,1h-.3l2.5-28c.1,0,.2,0,.3,.1l-2.4,26.9h0Z"/><path class="cls-11" d="M59.3,287.2h-.3l2.2-25.4h.3l-2.2,24.6h.1l-.1,.8h0Z"/><path class="cls-11" d="M68.7,289.9l-.3-.1c1.7-8.3,2.9-16.8,3.9-25.2,.1,0,.2,.1,.3,.1-1,8.4-2.3,16.9-3.9,25.2h0Z"/></g><path class="cls-3" d="M83.7,710.3s3.5-378-1.5-406.4c-4.9-28.4-30.5-32.1-37.6-6.1s-28.5,388.8-28.5,388.8l67.6,23.7h0Z"/><g><path class="cls-4" d="M57.3,397.6c-1.5-.7-2.4-2.5-1.9-4.1s2.4-2.6,4-2.2,2.7,2.3,2.2,3.8c.5-1.3,1.1-2.6,1.7-3.9,.3-.6,.6-1.3,1.3-1.3,.4,0,.8,.2,1,.5s.3,.7,.4,1.1c.3,1.5,.3,3.1-.1,4.6,.8-.2,1.5-.5,2.3-.5,1.2-.1,2.4,.1,3.3,.8,.6,.5,1,1.2,1.3,2h-21.7c2-.8,4.2-1.1,6.2-.8h0Z"/><path class="cls-4" d="M81.4,347.7c-1.2-1.3-1.5-3.1-1.6-4.8-.6,.9-1.2,1.8-2,2.4-.9,.6-2.1,.9-3,.4-1.4-.7-1.5-2.7-.7-4s2.2-2.1,3.6-2.8c-1-.5-2.1-1-2.8-1.8-.7-.8-1.1-2.1-.6-3.1,.8-1.4,3-1.4,4.5-.7,1.6,.7,3,1.8,4,3.2,0-1-.1-2,.3-3,.2-.5,.5-1,.9-1.4,.1,5.5,.2,11.1,.3,16.7-1.1,0-2.2-.4-2.9-1.1h0Z"/><path class="cls-4" d="M83.2,314.4c.5,1.4-.9,3-2.4,3s-2.9-1.3-3.1-2.7c-.3-1.5,.4-3,1.4-4.1-1,.6-2.1,1.2-3.3,1.3s-2.5-.7-2.6-1.8c-.1-1.2,1.1-2.2,2.2-2.8,1.2-.6,2.4-1,3.7-1.3-1.1-.3-2.3-.7-3-1.6s-1-2.3-.1-3c.7-.6,1.8-.5,2.6,.1,.8,.5,1.2,1.4,1.6,2.2-.4-1.6-.2-4.6,2.3-3.6h0c.4,3.9,.8,9,1,14.6-.2,0-.3-.2-.3-.3h0Z"/><path class="cls-4" d="M79.7,382.2c-.9-1.6-.8-3.5-.8-5.3-1.1,.9-2.3,1.9-3.7,2.2-1.4,.3-3.2-.2-3.7-1.5-.5-1.2,.2-2.6,1.2-3.4s2.4-1.1,3.7-1.4c-1.7,0-2.5-2.5-1.4-3.8s3.2-1.4,4.7-.7c1.6,.7,2.7,2,3.8,3.3-.3-1.1-.7-2.3-.5-3.5,.1-1,.6-2,1.4-2.5v18.4c-1.7,.8-3.9-.3-4.7-1.8h0Z"/><path class="cls-4" d="M54.7,282.2c1.3,.6,2,2.4,1.5,3.9-.5,1.7-1.9,2.5-3.3,3.5,.5,1,1.9,1.7,2.4,2.9,.6,1.2,.5,2.8-.6,3.6-.9,.7-2.3,.6-3.3,0s-1.7-1.5-2.3-2.5c-.1,1.1-.2,2.2-.7,3.2s-1.4,1.9-2.6,2c-.5,.1-1,0-1.4-.1,.8-3.9,1.6-6.9,2.3-8.6,.8-1.7,1.8-3.2,3-4.5,.2,.6,.3,1.2,.2,1.9,.1-.8,.2-1.7,.4-2.5,1.4-1.2,2.9-2.1,4.4-2.8h0Z"/><path class="cls-4" d="M37.5,366c.2,.3,.4,.7,.5,1l.3,.9c1.1-.4,2.5-.4,3.4,.3,.9,.7,1.2,2,.7,3-.4,.8-1.2,1.3-2.1,1.4,1.9,.2,3.5,1.8,3.7,3.6,.2,2-1.5,4.1-3.5,4.4-1.7,.2-3.5-.8-4.3-2.2,.4-3.8,.8-8,1.3-12.4h0Z"/><path class="cls-4" d="M62.8,319c-.4,1.2-1.8,1.9-3.1,1.7s-2.5-.8-3.6-1.5c.7,.6,1.3,1.4,1.4,2.3s-.5,1.9-1.4,2.1c-.8,.2-1.6-.3-2-.9s-.7-1.4-.9-2.1c.3,1.7-1.2,3.4-3,3.4s-3.3-1.7-3-3.3c.2-1.2,1-2.1,2.1-2.8,1-.6,2.2-.9,3.4-1.2-1.8-.1-3.6-1.4-3.8-3.1-.2-1.8,1.7-3.6,3.6-3.3,1.3,.2,2.3,1.4,2.5,2.6,.1-.8,.4-1.5,.9-2.1,.8-1,2.6-1.4,3.5-.4,.7,.8,.5,1.9,.3,2.9-.2,.7-.5,1.5-.8,2.2,.8,.1,1.5,.2,2.1,.5,1.2,.4,2.2,1.7,1.8,3h0Z"/><path class="cls-4" d="M57.3,359.8c-.7,1-2.1,1.4-3.4,1.1-1.2-.3-2.2-1.2-2.8-2.3-.6-1.1-.9-2.3-1.1-3.5-.9,.7-1.9,1.5-3.1,1.8s-2.6-.2-3.1-1.3c-.5-1.1,.3-2.5,1.5-3s2.4-.6,3.7-.6c-.8-.8-1.6-1.7-1.8-2.8s.2-2.4,1.2-2.9c1.2-.6,2.7,.1,3.5,1.2s1,2.4,1.1,3.7c.1-1.7,.2-3.5,1.3-4.9s3.4-2,4.6-.7c1.1,1.2,.6,3,.1,4.5-.2,.7-.5,1.3-.7,2,.3,.1,.6,.1,.8,.2,1.3,.5,2.5,1.5,2.6,2.9,.1,1.2-.7,2.4-1.9,2.8-.8,.2-1.7,.1-2.4-.4,.4,.6,.4,1.6-.1,2.2h0Z"/></g></g><g><g><path class="cls-1" d="M113.2,201.6c-1.6-2.4-5.5-2-8.1-.6-3.8,1.9-9.4,5.2-9.5,8.1-.2,4.5,6.3,4,11.3,2.1,4-1.6,9.3-5,6.3-9.6h0Z"/><path class="cls-1" d="M96.3,215.2c2.3-2,8.9-4.3,13-5.6,3.8-1.2,6.8,1.6,6.8,5,0,3-1.9,5.4-11.6,6.8s-11.5-3.3-8.2-6.2h0Z"/><path class="cls-1" d="M111.9,219c-3.2-.5-12.4,3.3-15.6,5.7s-.8,8.5,8.1,6c3.8-1.1,11.5-2,11.1-7.3-.1-.9-.2-1.8-.6-2.5-.6-1.3-1.8-1.7-3-1.9h0Z"/><path class="cls-1" d="M107.5,229.5c-3.7,1-12.9,4.5-11,10.1,1.6,4.6,10.6,.4,15-1.3,4.3-1.9,5.4-11.4-4-8.8h0Z"/><path class="cls-6" d="M104.1,204.9s2.4,1.4,.9,4.1c-1.6,2.7-7.3,3.2-8.7,3.3-1.2,0-2.2-1.7-1.7-2.7,.2-.4,.5-.6,.8-.9,1.3-1.2,2.8-2.2,4.4-3.1,1.3-1,2.7-1.6,4.3-.7h0Z"/><path class="cls-6" d="M104.1,214.3s2.6,1.9,.4,4.8c-2.2,2.9-8.9,2.6-10.5,2.4-1.4-.1-2.2-2.3-1.5-3.4,.3-.4,.6-.7,1-.9,1.7-1.2,3.6-2,5.5-2.8,1.8-.8,3.5-1.3,5.1-.1h0Z"/><path class="cls-6" d="M102.8,224.8s2.3,1.7,.3,4.3-7.9,2.3-9.4,2.1c-1.3-.1-2-2-1.3-3,.2-.3,.6-.6,.9-.8,1.5-1,3.2-1.8,4.9-2.5,1.7-.7,3.2-1.2,4.6-.1h0Z"/><path class="cls-6" d="M103.6,234.7s2.2,1.1,.9,3.6-6.5,3.1-7.8,3.2c-1.1,.1-2-1.4-1.6-2.4,.2-.3,.4-.6,.7-.8,1.2-1.1,2.5-2.1,3.9-2.9,1.2-.8,2.4-1.4,3.9-.7Z"/></g><g><path class="cls-1" d="M79.1,200.7c-3.3,1.3-5.9,0-10.5,11.2,0,.1,4.9,1.2,5.4,1.3,1.9,.3,3.8,.4,5.7,.3,2.5-.1,4.9-.9,7.2-2,2.3-1.2,4.7-2.5,6.6-4.4,2-1.9,3.6-4.3,4.6-6.9,.5-1.3,1.4-3.6,.4-4.9-1.5-1.6-13.2,2.9-19.4,5.4h0Z"/><path class="cls-6" d="M86.1,197.9s-.1,2.2,2.9,2c2.5-.2,7.7-2,10.1-4.2,.6-.6,.2-1.6-.6-1.6h0c-1.2,.1-12.4,3.8-12.4,3.8h0Z"/></g></g></g></g></svg>