<?xml version="1.0" encoding="UTF-8"?><svg id="Calque_1" xmlns="http://www.w3.org/2000/svg" viewBox="0 0 334.5 788"><defs><style>.cls-1{fill:#010101;}.cls-2{fill:#f28d5d;}.cls-3{fill:#fdcf77;}.cls-4{fill:#fff;}.cls-5{fill:#f088b6;}.cls-6{fill:#fce7f0;}.cls-7{fill:#be3271;}.cls-8{fill:#ea5258;opacity:.2;}.cls-8,.cls-9{isolation:isolate;}</style></defs><g id="Calque_1-2"><g id="pencarte_3"><g><polygon class="cls-6" points="310.4 25.8 309.3 105.4 308.7 150.1 308.1 193.9 64.3 198.1 60.8 99.5 58.3 27.9 152.6 27.1 228.1 26.5 246.8 26.3 310.4 25.8"/><g class="cls-9"><path class="cls-1" d="M114.77,124.65c-1.01,0-1.93-.19-2.75-.58s-1.49-.97-1.97-1.73c-.49-.77-.73-1.71-.73-2.83v-5.6h4.42v5.33c0,.39,.08,.7,.23,.94s.41,.36,.76,.36c.67,0,1-.41,1-1.23v-17.2h4.51v16.76c0,1.18-.23,2.21-.7,3.08-.47,.87-1.11,1.54-1.93,2.01-.82,.47-1.76,.71-2.83,.71Z"/><path class="cls-1" d="M121.94,124.45v-22.34h8.94v4.32h-4.39v4.35h4.21v4.2h-4.21v5.12h4.68v4.35h-9.23Z"/></g><g class="cls-9"><path class="cls-1" d="M78.15,79.81c-1.7,0-2.93-.42-3.69-1.27s-1.13-2.2-1.13-4.05v-1.83h3.69v2.33c0,.43,.06,.77,.2,1.01,.13,.24,.36,.37,.68,.37s.57-.1,.71-.3c.13-.2,.2-.52,.2-.98,0-.57-.06-1.05-.17-1.44-.11-.39-.31-.75-.59-1.1-.28-.35-.67-.76-1.16-1.23l-1.68-1.59c-1.25-1.18-1.88-2.53-1.88-4.05s.37-2.8,1.11-3.64,1.81-1.25,3.21-1.25c1.71,0,2.93,.46,3.64,1.37,.72,.91,1.08,2.3,1.08,4.16h-3.8v-1.28c0-.25-.07-.45-.22-.59-.15-.14-.34-.21-.59-.21-.3,0-.51,.08-.65,.25-.14,.17-.21,.38-.21,.64s.07,.54,.21,.85,.42,.65,.84,1.05l2.15,2.07c.43,.41,.83,.84,1.19,1.3s.65,.99,.87,1.59,.33,1.34,.33,2.21c0,1.75-.32,3.13-.97,4.12-.65,.99-1.77,1.49-3.38,1.49Z"/><path class="cls-1" d="M83.57,79.64v-18.67h3.61v18.67h-3.61Z"/><path class="cls-1" d="M95.36,79.64v-15.09h-2.22v-3.59h8.17v3.59h-2.22v15.09h-3.73Z"/><path class="cls-1" d="M106.67,79.81c-1.56,0-2.7-.44-3.44-1.31-.74-.87-1.1-2.16-1.1-3.86v-13.68h3.63v13.53c0,.31,.02,.61,.05,.9,.04,.29,.12,.52,.24,.71,.13,.18,.33,.28,.62,.28s.5-.09,.63-.27c.13-.18,.21-.42,.24-.71s.05-.59,.05-.9v-13.53h3.63v13.68c0,1.7-.37,2.98-1.1,3.86-.74,.87-1.88,1.31-3.44,1.31Z"/><path class="cls-1" d="M117.74,79.64v-18.67h5.69l1.57,11.38,1.56-11.38h5.74v18.67h-3.42v-13.45l-2.14,13.45h-3.35l-2.27-13.45v13.45h-3.37Z"/><path class="cls-1" d="M133.95,79.64v-18.67h7.47v3.61h-3.67v3.64h3.52v3.51h-3.52v4.28h3.92v3.64h-7.71Z"/></g><g class="cls-9"><path class="cls-1" d="M141.86,125.52c-.85,0-1.52-.16-2.02-.47-.5-.31-.87-.74-1.11-1.29-.25-.55-.41-1.19-.48-1.92-.08-.73-.12-1.52-.12-2.36v-7.98c0-1.41,.25-2.55,.75-3.43s1.35-1.31,2.55-1.31c.89,0,1.57,.19,2.05,.57,.48,.38,.85,.91,1.11,1.58v-5.14h4.46v21.54h-4.46v-1.95c-.24,.66-.57,1.18-.97,1.57-.4,.38-.99,.58-1.76,.58Zm1.68-3.43c.42,0,.7-.17,.84-.5,.14-.33,.21-.93,.21-1.8v-7.72c0-.43-.06-.86-.19-1.28-.13-.42-.41-.63-.84-.63-.47,0-.77,.2-.89,.6-.12,.4-.18,.84-.18,1.31v7.72c0,1.53,.35,2.3,1.05,2.3Z"/><path class="cls-1" d="M150.71,105.83v-3.65h4.38v3.65h-4.38Zm0,19.49v-18.36h4.38v18.36h-4.38Z"/><path class="cls-1" d="M157.24,125.32v-14.21h-.8v-3.34h.8v-1.25c0-1.97,.99-2.96,2.96-2.96,.93,0,1.68,.12,2.25,.35v2.71c-.2-.04-.34-.06-.4-.06-.25,0-.41,.09-.47,.28s-.09,.42-.09,.7v.23h.95v3.39h-.87v14.16h-4.35Zm7.03,0v-14.21h-.8v-3.34h.8v-1.25c0-1.97,.99-2.96,2.96-2.96,.93,0,1.68,.12,2.25,.35v2.71c-.2-.04-.34-.06-.4-.06-.25,0-.41,.09-.46,.28-.06,.18-.09,.42-.09,.7v.23h.96v3.39h-.87v14.16h-4.35Z"/><path class="cls-1" d="M174.42,125.52c-.98,0-1.73-.2-2.25-.61s-.87-.98-1.06-1.71-.28-1.58-.28-2.56v-13.67h4.41v13.16c0,.73,.06,1.25,.17,1.54,.11,.29,.38,.43,.81,.43,.46,0,.75-.2,.86-.61s.18-.93,.18-1.58v-12.94h4.37v18.36h-4.38v-1.96c-.28,.7-.61,1.24-1,1.6-.39,.37-1,.55-1.83,.55Z"/><path class="cls-1" d="M188.43,125.52c-3.62,0-5.43-1.84-5.43-5.51v-1.46h4.41v2.15c0,.42,.08,.74,.25,.98,.16,.24,.42,.36,.78,.36,.64,0,.96-.48,.96-1.43,0-.8-.17-1.4-.5-1.79-.33-.4-.74-.78-1.22-1.14l-2.34-1.8c-.73-.57-1.29-1.17-1.68-1.81s-.58-1.52-.58-2.66c0-1.05,.25-1.92,.75-2.61s1.17-1.2,2-1.53,1.72-.5,2.69-.5c3.56,0,5.34,1.78,5.34,5.33v.34h-4.53v-.7c0-.37-.06-.72-.19-1.06-.13-.34-.37-.51-.74-.51-.62,0-.93,.33-.93,.98s.26,1.18,.78,1.55l2.72,1.98c.85,.61,1.56,1.34,2.14,2.18s.86,1.96,.86,3.35c0,1.73-.49,3.05-1.47,3.95-.98,.91-2.33,1.36-4.05,1.36Z"/><path class="cls-1" d="M200.44,125.52c-1.31,0-2.35-.25-3.12-.74-.78-.49-1.33-1.2-1.67-2.12-.33-.92-.5-2.03-.5-3.33v-7.38c0-1.71,.49-3,1.47-3.88,.98-.88,2.33-1.32,4.04-1.32,3.53,0,5.29,1.73,5.29,5.19v1.33c0,1.62-.02,2.7-.05,3.26h-6.37v3.55c0,.33,.02,.65,.06,.96,.04,.31,.13,.57,.28,.78s.37,.31,.69,.31c.46,0,.74-.2,.86-.59s.17-.91,.17-1.55v-1.76h4.36v1.04c0,1.37-.17,2.52-.51,3.45-.34,.93-.91,1.62-1.71,2.09-.8,.47-1.9,.7-3.29,.7Zm-.93-11.15h2.08v-2.47c0-.66-.08-1.14-.24-1.43-.16-.29-.41-.43-.74-.43-.35,0-.62,.14-.81,.42-.19,.28-.29,.76-.29,1.44v2.47Z"/></g><g class="cls-9"><path class="cls-1" d="M166.5,86.75l-5.71-3.75c-.65,.18-1.33,.26-2.02,.26-2.8,0-4.94-.83-6.42-2.49-1.48-1.66-2.21-4.08-2.21-7.26v-17.37c0-3.09,.76-5.43,2.27-7.04,1.52-1.6,3.71-2.41,6.58-2.41s5.06,.8,6.58,2.41c1.52,1.61,2.27,3.95,2.27,7.04v17.37c0,2.96-.67,5.3-2,7l3.08,1.96-2.43,4.29Zm-7.51-10.1c.52,0,.89-.19,1.11-.57s.37-.85,.43-1.41c.06-.56,.09-1.1,.09-1.61v-16.79c0-.76-.11-1.45-.32-2.05-.21-.6-.66-.91-1.36-.91s-1.17,.3-1.39,.89-.33,1.28-.33,2.05v16.96c0,.48,.03,.98,.09,1.52,.06,.54,.21,.99,.46,1.37,.24,.37,.65,.56,1.2,.56Z"/><path class="cls-1" d="M179.56,83.26c-2.99,0-5.2-.84-6.61-2.52-1.42-1.68-2.12-4.15-2.12-7.42v-26.3h6.98v26.02c0,.6,.03,1.17,.1,1.72,.07,.55,.22,1,.47,1.36s.64,.53,1.18,.53,.96-.17,1.2-.52c.24-.35,.4-.8,.46-1.36,.06-.56,.09-1.14,.09-1.73v-26.02h6.98v26.3c0,3.27-.71,5.74-2.12,7.42-1.42,1.68-3.62,2.52-6.61,2.52Z"/><path class="cls-1" d="M190.72,82.93V47.02h6.94v35.91h-6.94Z"/><path class="cls-1" d="M203.59,82.93v-29.02h-4.26v-6.9h15.71v6.9h-4.26v29.02h-7.18Z"/><path class="cls-1" d="M220.12,82.93v-29.02h-4.26v-6.9h15.71v6.9h-4.26v29.02h-7.18Z"/><path class="cls-1" d="M233.57,82.93V47.02h14.37v6.94h-7.06v7h6.77v6.75h-6.77v8.22h7.53v7h-14.83Z"/><path class="cls-1" d="M259.3,83.26c-3.28,0-5.64-.82-7.09-2.45-1.45-1.63-2.17-4.23-2.17-7.79v-3.51h7.1v4.49c0,.83,.13,1.48,.38,1.95,.25,.47,.69,.7,1.32,.7s1.1-.19,1.36-.57,.38-1.01,.38-1.88c0-1.1-.11-2.02-.33-2.76s-.59-1.45-1.13-2.12c-.54-.67-1.28-1.46-2.23-2.36l-3.22-3.06c-2.41-2.27-3.61-4.87-3.61-7.79s.71-5.39,2.13-7c1.42-1.6,3.48-2.41,6.17-2.41,3.29,0,5.63,.88,7.01,2.63,1.38,1.75,2.07,4.42,2.07,8h-7.3v-2.47c0-.49-.14-.87-.42-1.14-.28-.27-.66-.41-1.13-.41-.57,0-.99,.16-1.25,.48-.27,.32-.4,.73-.4,1.24s.14,1.05,.41,1.63c.27,.58,.81,1.26,1.61,2.02l4.14,3.98c.83,.79,1.59,1.62,2.29,2.5s1.25,1.9,1.67,3.06,.63,2.58,.63,4.25c0,3.37-.62,6.02-1.87,7.93-1.24,1.91-3.41,2.87-6.5,2.87Z"/></g><g class="cls-9"><path class="cls-7" d="M129.56,174.77v-29.02h-4.26v-6.9h15.71v6.9h-4.26v29.02h-7.18Z"/><path class="cls-7" d="M143.01,174.77v-35.91h14.37v6.94h-7.06v7h6.77v6.75h-6.77v8.22h7.53v7h-14.83Z"/><path class="cls-7" d="M168.74,175.1c-3.28,0-5.64-.82-7.09-2.45s-2.17-4.23-2.17-7.79v-3.51h7.1v4.49c0,.83,.13,1.48,.38,1.95,.25,.47,.69,.7,1.32,.7s1.11-.19,1.36-.57c.25-.38,.38-1.01,.38-1.88,0-1.1-.11-2.02-.33-2.76s-.6-1.45-1.13-2.12c-.54-.67-1.28-1.46-2.23-2.36l-3.22-3.06c-2.41-2.27-3.61-4.87-3.61-7.79s.71-5.39,2.13-7c1.42-1.6,3.48-2.41,6.17-2.41,3.29,0,5.63,.88,7.01,2.63s2.07,4.42,2.07,8h-7.31v-2.47c0-.49-.14-.87-.42-1.14-.28-.27-.66-.41-1.13-.41-.57,0-.99,.16-1.25,.48-.27,.32-.4,.73-.4,1.24s.14,1.05,.41,1.63,.81,1.26,1.61,2.02l4.14,3.98c.83,.79,1.59,1.62,2.29,2.5,.69,.88,1.25,1.9,1.67,3.06,.42,1.16,.63,2.58,.63,4.25,0,3.37-.62,6.02-1.87,7.93-1.25,1.91-3.41,2.87-6.5,2.87Z"/><path class="cls-7" d="M189.29,174.77v-35.91h9.49c1.99,0,3.56,.44,4.72,1.33,1.16,.88,2,2.14,2.5,3.78,.5,1.63,.75,3.58,.75,5.84s-.21,4.07-.63,5.68c-.42,1.61-1.17,2.86-2.25,3.74-1.08,.88-2.62,1.33-4.6,1.33h-2.92v14.22h-7.06Zm7.06-20.67h.41c1.33,0,2.15-.37,2.45-1.12,.3-.75,.45-1.85,.45-3.31,0-1.36-.15-2.41-.44-3.15-.29-.74-.98-1.11-2.07-1.11h-.8v8.69Z"/><path class="cls-7" d="M209.02,174.77v-35.91h7.14v12.83h3.39v-12.83h7.14v35.91h-7.14v-16.28h-3.39v16.28h-7.14Z"/><path class="cls-7" d="M238.45,175.1c-2.87,0-5.06-.87-6.58-2.6s-2.27-4.24-2.27-7.52v-17.06c0-3.07,.75-5.41,2.25-7s3.7-2.39,6.6-2.39,5.1,.8,6.6,2.39c1.5,1.59,2.25,3.92,2.25,7v17.06c0,3.28-.76,5.79-2.27,7.52-1.52,1.73-3.71,2.6-6.58,2.6Zm.06-6.61c1.09,0,1.63-1.05,1.63-3.16v-17.53c0-1.77-.53-2.65-1.59-2.65-1.2,0-1.79,.91-1.79,2.71v17.51c0,1.12,.14,1.92,.41,2.4,.27,.48,.72,.72,1.35,.72Z"/><path class="cls-7" d="M253.28,174.77v-29.02h-4.26v-6.9h15.71v6.9h-4.26v29.02h-7.18Z"/><path class="cls-7" d="M275.3,175.1c-2.87,0-5.06-.87-6.58-2.6-1.52-1.73-2.28-4.24-2.28-7.52v-17.06c0-3.07,.75-5.41,2.25-7s3.7-2.39,6.6-2.39,5.1,.8,6.6,2.39,2.25,3.92,2.25,7v17.06c0,3.28-.76,5.79-2.28,7.52s-3.71,2.6-6.58,2.6Zm.06-6.61c1.09,0,1.63-1.05,1.63-3.16v-17.53c0-1.77-.53-2.65-1.59-2.65-1.2,0-1.8,.91-1.8,2.71v17.51c0,1.12,.14,1.92,.41,2.4,.27,.48,.72,.72,1.35,.72Z"/><path class="cls-7" d="M295.58,175.1c-3.28,0-5.64-.82-7.09-2.45-1.45-1.63-2.17-4.23-2.17-7.79v-3.51h7.1v4.49c0,.83,.13,1.48,.38,1.95,.25,.47,.69,.7,1.32,.7s1.1-.19,1.36-.57,.38-1.01,.38-1.88c0-1.1-.11-2.02-.33-2.76s-.59-1.45-1.13-2.12c-.54-.67-1.28-1.46-2.23-2.36l-3.22-3.06c-2.41-2.27-3.61-4.87-3.61-7.79s.71-5.39,2.13-7c1.42-1.6,3.48-2.41,6.17-2.41,3.29,0,5.63,.88,7.01,2.63,1.38,1.75,2.07,4.42,2.07,8h-7.3v-2.47c0-.49-.14-.87-.42-1.14-.28-.27-.66-.41-1.13-.41-.57,0-.99,.16-1.25,.48-.27,.32-.4,.73-.4,1.24s.14,1.05,.41,1.63c.27,.58,.81,1.26,1.61,2.02l4.14,3.98c.83,.79,1.59,1.62,2.29,2.5s1.25,1.9,1.67,3.06,.63,2.58,.63,4.25c0,3.37-.62,6.02-1.87,7.93-1.24,1.91-3.41,2.87-6.5,2.87Z"/></g></g><path class="cls-2" d="M130.6,338.4c-18.6,25-2,36.6-2,36.6l33-10.4"/><path class="cls-3" d="M179.1,195.7s-4.5,7.8-4.6,15.4c-.1,7.6-9.8,13.7-9.8,13.7l-8.5,142.4h-58.2s18.9-129.7,21.9-143.6c-10.3-20.1-16.4-32.9-15.5-36.7,1.9-7.8,5.1-24.2,5.1-24.2,0,0,5.2,.2,7.6,5.4,1.8,3.8,3.3,18.2,3.3,18.2,0,0,3.2,.7,8.1,8.9,7.8-2.9,19.8-3,26.9,.8,12.2-1.8,23.7-.3,23.7-.3h0Z"/><path class="cls-8" d="M179.1,195.7s-4.5,7.8-4.6,15.4c-.1,7.6-9.8,13.7-9.8,13.7h-15.1l-3.9,17.1,.5-18.3s4.7-23.3-17.7-28.4c7.8-2.9,19.8-3,26.9,.8,12.2-1.8,23.7-.3,23.7-.3h0Z"/><path class="cls-4" d="M107.7,172.4s-.7-8.4,1.5-12.1c1.4,5.6-1.5,12.1-1.5,12.1Z"/><path class="cls-5" d="M161.5,358.6c-19-2.4-29.2-23.9-39.5-38.4l-5.7,28.1-1.9-40.2c-7.4-13.2-11.1-24.3-11.1-24.3l-28.9,449.5,91.5,43.8c0,.1-2.7-354.3-4.4-418.5h0Z"/><path class="cls-7" d="M117.7,236.3s-13,15.4,18.8,53c20.5,24.3,40.3,16.6,24.6-1.6l-.2,2.7c7.3,18.7-15.1,.2-24.7-12.1-16.3-20.8-18.5-42-18.5-42h0Z"/></g></g></svg>