<?xml version="1.0" encoding="UTF-8"?><svg id="Calque_1" xmlns="http://www.w3.org/2000/svg" viewBox="0 0 218.3 694.5"><defs><style>.cls-1{fill:#f5a254;}.cls-2{fill:#fff;}.cls-3{fill:#f088b6;}.cls-4{fill:#d21e7f;}.cls-5{fill:#a29fcf;}.cls-6{fill:#965e5b;}.cls-7{isolation:isolate;}</style></defs><g id="pancarte_5"><g><polygon class="cls-4" points="202.5 27.7 201.9 45.9 197.7 177.5 178.8 177.1 21 173.8 14.6 25.8 202.5 27.7"/><rect class="cls-1" x="37.1" y="79.1" width="95.9" height="27.3"/><g class="cls-7"><path class="cls-2" d="M53.19,69.1c-2.66,0-4.8-.83-6.43-2.49-1.62-1.66-2.44-3.98-2.44-6.96v-16.97c0-3.57,.71-6.3,2.12-8.19,1.41-1.9,3.72-2.84,6.91-2.84,1.74,0,3.29,.32,4.65,.96,1.36,.64,2.43,1.6,3.21,2.88,.78,1.27,1.17,2.88,1.17,4.82v6.36h-7.32v-5.44c0-1.1-.14-1.84-.42-2.23-.28-.38-.71-.58-1.3-.58-.68,0-1.14,.25-1.38,.74s-.35,1.15-.35,1.98v18.42c0,1.02,.15,1.74,.45,2.15,.3,.42,.73,.63,1.29,.63,.63,0,1.07-.26,1.33-.77,.26-.51,.39-1.18,.39-2.01v-6.63h7.4v6.96c0,3.23-.82,5.58-2.45,7.03s-3.91,2.18-6.84,2.18Zm-.52,12.86c-1.44,0-2.81-.28-4.14-.84v-4.66c.43,.14,.86,.25,1.27,.34s.82,.14,1.19,.14c.7,0,1.28-.18,1.75-.55,.47-.37,.7-1.01,.7-1.91,0-.78-.19-1.67-.57-2.68-.38-1-.92-2.01-1.6-3.03h3.37c1.35,1.18,2.4,2.5,3.15,3.96s1.12,2.83,1.12,4.13c0,1.43-.49,2.64-1.48,3.63-.99,.98-2.57,1.47-4.75,1.47Z"/><path class="cls-2" d="M70.5,69.1c-1.74,0-3.07-.4-3.98-1.21-.91-.81-1.54-1.92-1.87-3.32-.33-1.41-.5-3-.5-4.79,0-1.91,.19-3.47,.56-4.69,.38-1.22,1.02-2.22,1.93-3,.91-.78,2.17-1.44,3.77-1.99l4.64-1.59v-3.22c0-1.69-.55-2.53-1.65-2.53-1,0-1.5,.68-1.5,2.05v1.88h-7.27c-.01-.11-.02-.25-.02-.43v-.6c0-3.12,.73-5.33,2.21-6.64,1.47-1.3,3.8-1.95,6.99-1.95,1.67,0,3.17,.3,4.49,.89,1.32,.59,2.37,1.47,3.15,2.62,.77,1.16,1.16,2.58,1.16,4.29v23.89h-7.44v-3.72c-.36,1.31-.96,2.31-1.8,3.01-.84,.7-1.79,1.04-2.86,1.04Zm2.95-5.81c.61,0,1.03-.26,1.25-.77,.22-.52,.33-1.07,.33-1.67v-8.74c-1.03,.42-1.83,.94-2.4,1.58-.57,.63-.86,1.56-.86,2.79v4.03c0,1.85,.56,2.78,1.67,2.78Z"/><path class="cls-2" d="M99.51,68.77l-5.04-31.36h7.5l1.8,20.95,2.03-20.95h7.48l-5.12,31.36h-8.65Z"/><path class="cls-2" d="M120.96,69.1c-1.74,0-3.07-.4-3.98-1.21-.91-.81-1.54-1.92-1.87-3.32-.33-1.41-.5-3-.5-4.79,0-1.91,.19-3.47,.56-4.69,.38-1.22,1.02-2.22,1.93-3s2.17-1.44,3.77-1.99l4.64-1.59v-3.22c0-1.69-.55-2.53-1.65-2.53-1,0-1.5,.68-1.5,2.05v1.88h-7.27c-.01-.11-.02-.25-.02-.43v-.6c0-3.12,.74-5.33,2.21-6.64,1.47-1.3,3.8-1.95,6.99-1.95,1.67,0,3.17,.3,4.5,.89,1.32,.59,2.37,1.47,3.15,2.62,.77,1.16,1.16,2.58,1.16,4.29v23.89h-7.44v-3.72c-.36,1.31-.96,2.31-1.8,3.01-.84,.7-1.79,1.04-2.86,1.04Zm2.95-5.81c.61,0,1.03-.26,1.25-.77,.22-.52,.33-1.07,.33-1.67v-8.74c-1.03,.42-1.83,.94-2.4,1.58-.57,.63-.86,1.56-.86,2.79v4.03c0,1.85,.56,2.78,1.67,2.78Z"/><path class="cls-2" d="M136.87,73.68l1.38-4.93h-2.65v-6.23h7.82v6.04l-2.13,5.12h-4.41Z"/></g><g class="cls-7"><path class="cls-2" d="M46.73,141.34v-23.24h-3.42v-5.52h12.58v5.52h-3.42v23.24h-5.75Z"/></g><g class="cls-7"><path class="cls-2" d="M56.29,141.34l2.78-28.76h9.76l2.73,28.76h-5.44l-.41-4.64h-3.46l-.36,4.64h-5.59Zm6.36-9.23h2.61l-1.26-14.63h-.26l-1.09,14.63Z"/><path class="cls-2" d="M87.86,141.6c-2.08,0-3.76-.65-5.03-1.95-1.27-1.3-1.9-3.11-1.9-5.44v-13.27c0-2.79,.55-4.92,1.66-6.41,1.11-1.48,2.91-2.22,5.4-2.22,1.36,0,2.57,.25,3.64,.75,1.06,.5,1.9,1.25,2.51,2.25,.61,1,.92,2.25,.92,3.77v4.97h-5.72v-4.25c0-.86-.11-1.44-.33-1.74s-.56-.45-1.01-.45c-.53,0-.89,.19-1.08,.58-.19,.39-.28,.9-.28,1.54v14.4c0,.79,.12,1.36,.35,1.68,.23,.33,.57,.49,1,.49,.49,0,.84-.2,1.04-.61,.2-.4,.3-.93,.3-1.57v-5.18h5.79v5.44c0,2.53-.64,4.36-1.91,5.5s-3.06,1.71-5.34,1.71Z"/><path class="cls-2" d="M103.9,141.6c-2.3,0-4.06-.69-5.27-2.08-1.21-1.39-1.82-3.4-1.82-6.02v-13.66c0-2.46,.6-4.33,1.81-5.61,1.2-1.28,2.97-1.91,5.29-1.91s4.08,.64,5.29,1.91c1.2,1.27,1.81,3.14,1.81,5.61v13.66c0,2.63-.61,4.63-1.82,6.02-1.21,1.39-2.97,2.08-5.27,2.08Zm.05-5.29c.87,0,1.31-.84,1.31-2.53v-14.04c0-1.42-.42-2.12-1.27-2.12-.96,0-1.44,.72-1.44,2.17v14.02c0,.89,.11,1.53,.33,1.92,.22,.39,.58,.58,1.08,.58Z"/><path class="cls-2" d="M113.05,141.34v-28.76h5.56v28.76h-5.56Z"/><path class="cls-2" d="M120.89,141.34v-28.76h5.92l2.65,13.78v-13.78h5.56v28.76h-5.62l-2.88-14.38v14.38h-5.62Z"/><path class="cls-2" d="M144.26,141.6c-2.08,0-3.76-.65-5.03-1.95-1.27-1.3-1.9-3.11-1.9-5.44v-13.27c0-2.79,.55-4.92,1.66-6.41,1.11-1.48,2.91-2.22,5.4-2.22,1.36,0,2.57,.25,3.64,.75,1.06,.5,1.9,1.25,2.51,2.25,.61,1,.92,2.25,.92,3.77v4.97h-5.72v-4.25c0-.86-.11-1.44-.33-1.74s-.56-.45-1.01-.45c-.53,0-.89,.19-1.08,.58s-.28,.9-.28,1.54v14.4c0,.79,.12,1.36,.35,1.68,.23,.33,.57,.49,1,.49,.49,0,.84-.2,1.04-.61,.2-.4,.3-.93,.3-1.57v-5.18h5.79v5.44c0,2.53-.64,4.36-1.91,5.5-1.27,1.14-3.06,1.71-5.34,1.71Z"/><path class="cls-2" d="M153.43,141.34v-28.76h11.51v5.56h-5.66v5.61h5.43v5.41h-5.43v6.59h6.03v5.61h-11.88Zm2.09-29.63v-3.64l7.76-3.56v5.67l-7.76,1.54Z"/><path class="cls-2" d="M167.21,141.34v-28.76h11.5v5.56h-5.65v5.61h5.43v5.41h-5.43v6.59h6.03v5.61h-11.88Z"/></g><g class="cls-7"><path class="cls-2" d="M53.8,100.95v-11.91h-.67v-2.8h.67v-1.05c0-1.65,.83-2.48,2.48-2.48,.78,0,1.41,.1,1.89,.3v2.27c-.17-.03-.28-.05-.34-.05-.21,0-.34,.08-.39,.23-.05,.15-.07,.35-.07,.59v.2h.8v2.84h-.73v11.87h-3.64Z"/><path class="cls-2" d="M62.15,101.11c-.85,0-1.51-.2-1.95-.59-.45-.4-.75-.94-.92-1.63-.16-.69-.25-1.47-.25-2.35,0-.94,.09-1.71,.28-2.3,.18-.6,.5-1.09,.95-1.47s1.07-.71,1.85-.97l2.28-.78v-1.58c0-.83-.27-1.24-.81-1.24-.49,0-.74,.33-.74,1v.92h-3.57c0-.05-.01-.12-.01-.21v-.29c0-1.53,.36-2.62,1.08-3.26s1.87-.96,3.43-.96c.82,0,1.56,.15,2.21,.44s1.16,.72,1.54,1.29c.38,.57,.57,1.27,.57,2.1v11.73h-3.65v-1.83c-.18,.64-.47,1.14-.88,1.48-.41,.34-.88,.51-1.41,.51Zm1.45-2.85c.3,0,.51-.13,.62-.38s.16-.53,.16-.82v-4.29c-.51,.21-.9,.46-1.18,.77-.28,.31-.42,.77-.42,1.37v1.98c0,.91,.27,1.36,.82,1.36Z"/><path class="cls-2" d="M69.48,84.62v-3.06h3.67v3.06h-3.67Zm0,16.33v-15.39h3.67v15.39h-3.67Z"/><path class="cls-2" d="M78.83,101.11c-3.04,0-4.56-1.54-4.56-4.62v-1.22h3.69v1.81c0,.35,.07,.62,.21,.82s.36,.3,.66,.3c.53,0,.8-.4,.8-1.2,0-.67-.14-1.17-.42-1.5-.28-.33-.62-.65-1.03-.96l-1.96-1.51c-.62-.48-1.08-.98-1.41-1.52-.32-.53-.48-1.28-.48-2.23,0-.88,.21-1.61,.63-2.19,.42-.57,.98-1,1.67-1.28s1.44-.42,2.25-.42c2.98,0,4.47,1.49,4.47,4.46v.29h-3.8v-.58c0-.31-.05-.6-.16-.89-.11-.29-.31-.43-.62-.43-.52,0-.78,.27-.78,.82s.22,.99,.66,1.3l2.28,1.66c.71,.51,1.31,1.12,1.79,1.83,.48,.7,.72,1.64,.72,2.81,0,1.45-.41,2.55-1.24,3.31-.82,.76-1.95,1.14-3.39,1.14Z"/><path class="cls-2" d="M89.51,103.51v-17.95h3.73v1.64c.23-.57,.54-1.01,.94-1.33,.4-.32,.97-.48,1.72-.48,1.01,0,1.71,.37,2.13,1.1,.41,.73,.62,1.69,.62,2.87v7.57c0,.79-.11,1.5-.33,2.13-.22,.63-.57,1.13-1.05,1.5-.48,.37-1.1,.55-1.86,.55-1,0-1.72-.6-2.16-1.81v4.21h-3.73Zm4.61-5.26c.38,0,.61-.19,.69-.57s.12-.85,.12-1.42v-6.01c0-.57-.04-1.04-.12-1.42-.08-.38-.31-.57-.69-.57s-.64,.19-.73,.58-.14,.86-.14,1.41v6.01c0,.55,.05,1.02,.14,1.41,.09,.39,.34,.58,.73,.58Z"/><path class="cls-2" d="M102.84,101.11c-.85,0-1.51-.2-1.95-.59-.45-.4-.75-.94-.92-1.63-.16-.69-.25-1.47-.25-2.35,0-.94,.09-1.71,.28-2.3,.18-.6,.5-1.09,.95-1.47s1.07-.71,1.85-.97l2.28-.78v-1.58c0-.83-.27-1.24-.81-1.24-.49,0-.74,.33-.74,1v.92h-3.57c0-.05-.01-.12-.01-.21v-.29c0-1.53,.36-2.62,1.08-3.26s1.87-.96,3.43-.96c.82,0,1.56,.15,2.21,.44s1.16,.72,1.54,1.29c.38,.57,.57,1.27,.57,2.1v11.73h-3.65v-1.83c-.18,.64-.47,1.14-.88,1.48-.41,.34-.88,.51-1.41,.51Zm1.45-2.85c.3,0,.51-.13,.62-.38s.16-.53,.16-.82v-4.29c-.51,.21-.9,.46-1.18,.77-.28,.31-.42,.77-.42,1.37v1.98c0,.91,.27,1.36,.82,1.36Z"/><path class="cls-2" d="M114.42,101.11c-3.04,0-4.55-1.54-4.55-4.62v-1.22h3.69v1.81c0,.35,.07,.62,.21,.82s.36,.3,.66,.3c.53,0,.8-.4,.8-1.2,0-.67-.14-1.17-.42-1.5-.28-.33-.62-.65-1.03-.96l-1.96-1.51c-.62-.48-1.08-.98-1.41-1.52-.32-.53-.48-1.28-.48-2.23,0-.88,.21-1.61,.63-2.19,.42-.57,.98-1,1.67-1.28s1.45-.42,2.25-.42c2.98,0,4.47,1.49,4.47,4.46v.29h-3.79v-.58c0-.31-.05-.6-.16-.89-.11-.29-.31-.43-.62-.43-.52,0-.78,.27-.78,.82s.22,.99,.66,1.3l2.28,1.66c.71,.51,1.31,1.12,1.79,1.83,.48,.7,.72,1.64,.72,2.81,0,1.45-.41,2.55-1.24,3.31s-1.95,1.14-3.39,1.14Z"/></g></g><path class="cls-6" d="M150.9,312.7l-58-5.7-9.3-100.9s-10.6-6.6-10.7-14.9c-.1-8.3-5-16.8-5-16.8,0,0,36-7.8,55.2-.6,5.4-9,9.4-13.4,9.4-13.4,0,0-7.5-12.9-6-17.2s9.3-4.5,9.3-4.5c0,0,12.1,22,13.6,26s-5.5,30.8-16.9,40.1c3.4,15.1,18.4,107.9,18.4,107.9h0Z"/><polygon class="cls-3" points="86.5 241.3 97.1 666.4 189.1 622.2 142.9 233.8 86.5 241.3"/><polygon class="cls-5" points="82.4 233.8 82.4 245.5 146.1 241.8 143.2 228.7 82.4 233.8"/><circle class="cls-2" cx="92.4" cy="254.6" r="4.1"/><path class="cls-6" d="M121.6,173.7c-17.5,3.5-19.4,31-19.4,31l-2.4,11.6-3.6-10.3h-14.1s-10.6-6.6-10.7-14.9c-.1-8.3-5-16.8-5-16.8,0,0,36-7.7,55.2-.6h0Z"/></g></svg>