<svg width="62" height="62" viewBox="0 0 62 62" fill="none" xmlns="http://www.w3.org/2000/svg">
<g filter="url(#filter0_i_1198_15599)">
<path d="M35.092 29.1404C34.596 29.1404 34.1 28.8924 33.728 28.5204L28.892 22.6924C28.272 21.9484 28.396 20.8324 29.14 20.2124C29.884 19.5924 31 19.7164 31.62 20.4604L36.456 26.2884C37.076 27.0324 36.952 28.1484 36.208 28.7684C35.836 29.0164 35.464 29.1404 35.092 29.1404Z" fill="#FCDDEC"/>
<path d="M35.092 30.38C34.224 30.38 33.356 30.008 32.736 29.264L27.9 23.436C27.404 22.816 27.156 22.072 27.28 21.204C27.404 20.46 27.776 19.716 28.396 19.22C29.016 18.724 29.76 18.476 30.628 18.6C31.372 18.724 32.116 19.096 32.612 19.716L37.448 25.544C37.944 26.164 38.192 26.908 38.068 27.776C37.944 28.52 37.572 29.264 36.952 29.76C36.332 30.132 35.712 30.38 35.092 30.38ZM30.256 20.956C30.132 20.956 30.008 20.956 29.884 21.08C29.76 21.204 29.76 21.328 29.76 21.452C29.76 21.576 29.76 21.7 29.884 21.824L34.72 27.652C34.968 27.9 35.216 27.9 35.464 27.652C35.588 27.528 35.588 27.404 35.588 27.28C35.588 27.156 35.588 27.032 35.464 26.908L30.628 21.08C30.504 21.08 30.38 20.956 30.256 20.956Z" fill="#FCDDEC"/>
<path d="M30.256 23.1883C29.884 23.1883 29.512 23.0643 29.14 22.8163C28.396 22.1963 28.272 21.0803 28.892 20.3363L33.728 14.7563C34.348 14.0123 35.464 13.8883 36.208 14.5083C36.952 15.1283 37.076 16.2443 36.456 16.9883L31.62 22.5683C31.248 23.0643 30.752 23.1883 30.256 23.1883Z" fill="#FCDDEC"/>
<path d="M30.256 24.4285C29.512 24.4285 28.892 24.1805 28.272 23.6845C27.652 23.1885 27.28 22.4445 27.28 21.7005C27.156 20.9565 27.404 20.0885 28.024 19.4685L32.86 13.8885C33.356 13.2685 34.1 12.8965 34.968 12.8965C35.712 12.8965 36.58 13.1445 37.076 13.6405C37.696 14.1365 38.068 14.8805 38.068 15.6245C38.192 16.3685 37.944 17.2365 37.324 17.8565L32.488 23.4365C31.992 24.0565 31.124 24.4285 30.256 24.4285ZM35.092 15.3765C34.968 15.3765 34.968 15.3765 35.092 15.3765C34.968 15.3765 34.844 15.3765 34.72 15.5005L29.884 21.0805C29.76 21.3285 29.76 21.4525 29.76 21.5765C29.76 21.7005 29.76 21.8245 29.884 21.9485C30.132 22.0725 30.38 22.0725 30.628 21.9485L35.464 16.2445C35.588 16.1205 35.588 15.9965 35.588 15.8725C35.588 15.7485 35.588 15.6245 35.464 15.5005C35.216 15.3765 35.092 15.3765 35.092 15.3765Z" fill="#FCDDEC"/>
<path d="M40.3 46.7478H22.94C10.292 46.0038 10.416 39.5558 10.54 33.7278C10.54 33.1078 10.54 32.4878 10.54 31.7438C10.54 25.7918 15.004 21.8238 19.22 21.6998H19.344C23.064 21.6998 26.908 24.5518 27.032 32.6118C27.032 33.6038 26.288 34.3478 25.296 34.3478C24.304 34.3478 23.56 33.6038 23.56 32.6118C23.436 27.8998 21.824 25.1718 19.344 25.1718C16.864 25.1718 14.012 27.8998 14.136 31.6198C14.136 32.3638 14.136 32.9838 14.136 33.6038C14.012 39.3078 14.012 42.5318 23.188 43.0278H40.3C44.888 43.0278 48.608 38.6878 48.608 32.9838C48.608 27.2798 45.012 22.9398 40.3 22.9398H31.62C30.628 22.9398 29.884 22.1958 29.884 21.2038C29.884 20.2118 30.628 19.4678 31.62 19.4678H40.3C46.872 19.4678 52.08 25.4198 52.08 32.9838C51.956 40.7958 46.872 46.7478 40.3 46.7478Z" fill="#FCDDEC"/>
<path d="M40.3 47.9876H22.94C9.052 47.2436 9.176 39.4316 9.3 33.7276C9.3 33.1076 9.3 32.4876 9.3 31.8676C9.176 25.1716 14.384 20.7076 19.22 20.5836C23.56 20.5836 28.148 23.8076 28.272 32.7356C28.272 34.3476 27.032 35.7116 25.296 35.8356C23.56 35.8356 22.32 34.5956 22.196 32.8596C22.196 29.8836 21.328 26.5356 19.22 26.5356C17.484 26.5356 15.128 28.5196 15.128 31.7436C15.128 32.4876 15.128 33.1076 15.128 33.8516C15.004 39.4316 15.004 41.5396 23.064 42.0356H40.176C44.144 42.0356 47.244 38.1916 47.244 33.2316C47.244 28.2716 44.144 24.4276 40.176 24.4276H31.496C29.884 24.4276 28.52 23.0636 28.52 21.4516C28.52 19.8396 29.884 18.4756 31.496 18.4756H40.176C47.492 18.4756 53.196 24.9236 53.196 33.2316C53.196 37.4476 51.584 41.5396 48.856 44.2676C46.5 46.6236 43.524 47.9876 40.3 47.9876ZM19.344 23.0636C15.624 23.0636 11.78 26.6596 11.78 31.7436C11.78 32.3636 11.78 33.1076 11.78 33.7276C11.656 39.4316 11.656 44.7636 23.064 45.3836H40.3C42.904 45.3836 45.26 44.3916 47.244 42.4076C49.6 40.0516 50.84 36.7036 50.84 33.1076C50.84 26.2876 46.252 20.8316 40.3 20.8316H31.62C31.372 20.8316 31.124 21.0796 31.124 21.3276C31.124 21.5756 31.372 21.8236 31.62 21.8236H40.3C45.632 21.8236 49.848 26.7836 49.848 33.1076C49.848 39.4316 45.632 44.3916 40.3 44.3916H23.064C13.02 43.8956 12.648 40.1756 12.772 33.7276C12.772 33.1076 12.772 32.3636 12.772 31.7436C12.772 27.1556 16.12 24.0556 19.22 24.0556C22.568 24.0556 24.676 27.2796 24.8 32.7356C24.8 32.9836 25.048 33.2316 25.296 33.2316C25.544 33.2316 25.792 32.9836 25.792 32.7356C25.668 26.6596 23.312 23.0636 19.344 23.0636Z" fill="#FCDDEC"/>
</g>
<defs>
<filter id="filter0_i_1198_15599" x="0" y="0" width="62" height="66" filterUnits="userSpaceOnUse" color-interpolation-filters="sRGB">
<feFlood flood-opacity="0" result="BackgroundImageFix"/>
<feBlend mode="normal" in="SourceGraphic" in2="BackgroundImageFix" result="shape"/>
<feColorMatrix in="SourceAlpha" type="matrix" values="0 0 0 0 0 0 0 0 0 0 0 0 0 0 0 0 0 0 127 0" result="hardAlpha"/>
<feOffset dy="4"/>
<feGaussianBlur stdDeviation="2"/>
<feComposite in2="hardAlpha" operator="arithmetic" k2="-1" k3="1"/>
<feColorMatrix type="matrix" values="0 0 0 0 0 0 0 0 0 0 0 0 0 0 0 0 0 0 0.1 0"/>
<feBlend mode="normal" in2="shape" result="effect1_innerShadow_1198_15599"/>
</filter>
</defs>
</svg>
