<?xml version="1.0" encoding="utf-8"?>
<!-- Generator: Adobe Illustrator 26.3.1, SVG Export Plug-In . SVG Version: 6.00 Build 0)  -->
<svg version="1.1" id="Illustration" xmlns="http://www.w3.org/2000/svg" xmlns:xlink="http://www.w3.org/1999/xlink" x="0px"
	 y="0px" viewBox="0 0 50 50" style="enable-background:new 0 0 50 50;" xml:space="preserve">
<style type="text/css">
	.st0{fill:#2F2D84;}
	.st1{fill:#7F7DEE;}
	.st2{fill:#FF8EBF;}
	.st3{fill:#C33070;}
	.st4{fill:#F78008;}
	.st5{fill:#FFB31F;}
	.st6{fill:#4C6EAE;}
	.st7{fill:#AEC9FF;}
</style>
<path class="st0" d="M28.6,28.1h5.2l2.1-8.3h-7.3v-4.2c0-2.1,0-4.2,4.2-4.2h3.1v-7c-0.7-0.1-3.2-0.3-6-0.3c-5.7,0-9.7,3.5-9.7,9.8
	v5.8h-6.2v8.3h6.2v17.7h8.3V28.1z"/>
<g>
	<path class="st1" d="M28.6,96.4h5.2l2.1-8.3h-7.3v-4.2c0-2.1,0-4.2,4.2-4.2h3.1v-7c-0.7-0.1-3.2-0.3-6-0.3c-5.7,0-9.7,3.5-9.7,9.8
		v5.8h-6.2v8.3h6.2v17.7h8.3V96.4z"/>
</g>
<path class="st2" d="M97.4,4.2c5.7,0,6.4,0,8.6,0.1c2.2,0.1,3.7,0.5,5.1,1c1.4,0.5,2.5,1.2,3.7,2.4c1.1,1,1.9,2.3,2.4,3.7
	c0.5,1.3,0.9,2.8,1,5.1c0.1,2.2,0.1,2.9,0.1,8.6c0,5.7,0,6.4-0.1,8.6c-0.1,2.2-0.5,3.7-1,5.1c-0.5,1.4-1.3,2.7-2.4,3.7
	c-1,1.1-2.3,1.9-3.7,2.4c-1.3,0.5-2.8,0.9-5.1,1c-2.2,0.1-2.9,0.1-8.6,0.1c-5.7,0-6.4,0-8.6-0.1c-2.2-0.1-3.7-0.5-5.1-1
	c-1.4-0.5-2.7-1.3-3.7-2.4c-1.1-1-1.9-2.3-2.4-3.7c-0.5-1.3-0.9-2.8-1-5.1c-0.1-2.2-0.1-2.9-0.1-8.6c0-5.7,0-6.4,0.1-8.6
	c0.1-2.2,0.5-3.7,1-5.1c0.5-1.4,1.3-2.7,2.4-3.7c1-1.1,2.3-1.9,3.7-2.4c1.3-0.5,2.8-0.9,5.1-1C91,4.2,91.7,4.2,97.4,4.2z M97.4,14.6
	c-2.8,0-5.4,1.1-7.4,3.1S87,22.2,87,25c0,2.8,1.1,5.4,3.1,7.4c2,2,4.6,3.1,7.4,3.1c2.8,0,5.4-1.1,7.4-3.1c2-2,3.1-4.6,3.1-7.4
	c0-2.8-1.1-5.4-3.1-7.4S100.2,14.6,97.4,14.6z M110.9,14.1c0-0.7-0.3-1.4-0.8-1.8c-0.5-0.5-1.2-0.8-1.8-0.8c-0.7,0-1.4,0.3-1.8,0.8
	c-0.5,0.5-0.8,1.2-0.8,1.8c0,0.7,0.3,1.4,0.8,1.8c0.5,0.5,1.2,0.8,1.8,0.8c0.7,0,1.4-0.3,1.8-0.8C110.7,15.4,110.9,14.8,110.9,14.1z
	 M97.4,18.7c1.7,0,3.2,0.7,4.4,1.8c1.2,1.2,1.8,2.8,1.8,4.4s-0.7,3.2-1.8,4.4c-1.2,1.2-2.8,1.8-4.4,1.8s-3.2-0.7-4.4-1.8
	c-1.2-1.2-1.8-2.8-1.8-4.4s0.7-3.2,1.8-4.4C94.2,19.4,95.7,18.7,97.4,18.7z"/>
<g>
	<path class="st3" d="M97.4,72.5c5.7,0,6.4,0,8.6,0.1c2.2,0.1,3.7,0.5,5.1,1c1.4,0.5,2.5,1.2,3.7,2.4c1.1,1,1.9,2.3,2.4,3.7
		c0.5,1.3,0.9,2.8,1,5.1c0.1,2.2,0.1,2.9,0.1,8.6c0,5.7,0,6.4-0.1,8.6c-0.1,2.2-0.5,3.7-1,5.1c-0.5,1.4-1.3,2.7-2.4,3.7
		c-1,1.1-2.3,1.9-3.7,2.4c-1.3,0.5-2.8,0.9-5.1,1c-2.2,0.1-2.9,0.1-8.6,0.1c-5.7,0-6.4,0-8.6-0.1c-2.2-0.1-3.7-0.5-5.1-1
		c-1.4-0.5-2.7-1.3-3.7-2.4c-1.1-1-1.9-2.3-2.4-3.7c-0.5-1.3-0.9-2.8-1-5.1c-0.1-2.2-0.1-2.9-0.1-8.6c0-5.7,0-6.4,0.1-8.6
		c0.1-2.2,0.5-3.7,1-5.1c0.5-1.4,1.3-2.7,2.4-3.7c1-1.1,2.3-1.9,3.7-2.4c1.3-0.5,2.8-0.9,5.1-1C91,72.5,91.7,72.5,97.4,72.5z
		 M97.4,82.9C94.6,82.9,92,84,90,86c-2,2-3.1,4.6-3.1,7.4c0,2.8,1.1,5.4,3.1,7.4c2,2,4.6,3.1,7.4,3.1c2.8,0,5.4-1.1,7.4-3.1
		c2-2,3.1-4.6,3.1-7.4c0-2.8-1.1-5.4-3.1-7.4C102.8,84,100.2,82.9,97.4,82.9z M110.9,82.4c0-0.7-0.3-1.4-0.8-1.8
		c-0.5-0.5-1.2-0.8-1.8-0.8c-0.7,0-1.4,0.3-1.8,0.8c-0.5,0.5-0.8,1.2-0.8,1.8s0.3,1.4,0.8,1.8c0.5,0.5,1.2,0.8,1.8,0.8
		c0.7,0,1.4-0.3,1.8-0.8C110.7,83.7,110.9,83.1,110.9,82.4z M97.4,87.1c1.7,0,3.2,0.7,4.4,1.8c1.2,1.2,1.8,2.8,1.8,4.4
		s-0.7,3.2-1.8,4.4c-1.2,1.2-2.8,1.8-4.4,1.8c-1.7,0-3.2-0.7-4.4-1.8c-1.2-1.2-1.8-2.8-1.8-4.4s0.7-3.2,1.8-4.4
		C94.2,87.7,95.7,87.1,97.4,87.1z"/>
</g>
<path class="st4" d="M167.1,44.5c-2.5,0-4.1-1.2-5.6-2.2c-1-0.7-2-1.5-3.2-1.6c-0.6-0.1-1.1-0.1-1.7-0.1c-1,0-1.8,0.1-2.3,0.3
	c-0.4,0.1-0.6,0.1-0.9,0.1c-0.2,0-0.5-0.1-0.7-0.5c-0.1-0.3-0.2-0.6-0.2-1c-0.2-0.8-0.3-1.2-0.6-1.3c-3.1-0.5-5-1.2-5.3-2
	c0-0.1-0.1-0.2-0.1-0.3c0-0.3,0.2-0.5,0.4-0.5c2.5-0.4,4.7-1.7,6.5-3.9c1.4-1.7,2.2-3.3,2.2-3.5c0,0,0,0,0,0
	c0.4-0.7,0.4-1.4,0.2-1.9c-0.4-1-1.7-1.4-2.6-1.6c-0.2-0.1-0.4-0.1-0.6-0.2c-0.8-0.3-2.1-1-1.9-1.9c0.1-0.6,1-1.1,1.7-1.1
	c0.2,0,0.4,0,0.5,0.1c0.8,0.4,1.5,0.5,2.1,0.5c0.8,0,1.1-0.3,1.2-0.4c0-0.4,0-0.8-0.1-1.2c-0.2-2.8-0.4-6.4,0.5-8.4
	c2.7-6.1,8.4-6.5,10.1-6.5l0.7,0h0.1c1.7,0,7.4,0.5,10.1,6.5c0.9,2,0.7,5.6,0.5,8.4l0,0.1c0,0.4,0,0.7-0.1,1.1
	c0.1,0.1,0.4,0.4,1.1,0.4c0.6,0,1.2-0.2,2-0.5c0.2-0.1,0.4-0.1,0.7-0.1c0.3,0,0.5,0.1,0.7,0.1h0c0.6,0.2,1,0.7,1,1.1
	c0,0.4-0.3,1.1-1.9,1.7c-0.2,0.1-0.4,0.1-0.6,0.2c-0.9,0.3-2.2,0.7-2.6,1.6c-0.2,0.5-0.1,1.1,0.2,1.9c0,0,0,0,0,0
	c0.1,0.3,2.8,6.4,8.8,7.3c0.1,0,0.2,0.1,0.3,0.2c0.1,0.1,0.1,0.2,0.1,0.3c0,0.1,0,0.2-0.1,0.3c-0.4,0.9-2.2,1.5-5.3,2
	c-0.3,0-0.4,0.5-0.6,1.3c-0.1,0.3-0.1,0.6-0.2,1c-0.1,0.3-0.3,0.5-0.6,0.5h0c-0.3,0-0.6,0-0.9-0.1c-0.8-0.2-1.5-0.2-2.3-0.2
	c-0.6,0-1.1,0-1.7,0.1c-1.2,0.2-2.1,0.9-3.2,1.6c-1.5,1-3.2,2.2-5.6,2.2H167.1z"/>
<g>
	<path class="st5" d="M167.1,112.9c-2.5,0-4.1-1.2-5.6-2.2c-1-0.7-2-1.5-3.2-1.6c-0.6-0.1-1.1-0.1-1.7-0.1c-1,0-1.8,0.1-2.3,0.3
		c-0.4,0.1-0.7,0.1-0.9,0.1c-0.2,0-0.5-0.1-0.7-0.5c-0.1-0.3-0.2-0.6-0.2-1c-0.2-0.8-0.3-1.2-0.6-1.3c-3.1-0.5-5-1.2-5.3-2
		c0-0.1-0.1-0.2-0.1-0.3c0-0.3,0.2-0.5,0.4-0.5c2.5-0.4,4.7-1.7,6.5-3.9c1.4-1.7,2.2-3.3,2.2-3.5c0,0,0,0,0,0
		c0.4-0.7,0.4-1.4,0.2-1.9c-0.4-1-1.7-1.4-2.6-1.6c-0.2-0.1-0.4-0.1-0.6-0.2c-0.8-0.3-2.1-1-1.9-1.9c0.1-0.7,1-1.1,1.7-1.1
		c0.2,0,0.4,0,0.5,0.1c0.8,0.4,1.5,0.5,2.1,0.5c0.8,0,1.1-0.3,1.2-0.4c0-0.4,0-0.8-0.1-1.2c-0.2-2.8-0.4-6.4,0.5-8.4
		c2.7-6.1,8.4-6.5,10.1-6.5l0.7,0h0.1c1.7,0,7.4,0.5,10.1,6.5c0.9,2,0.7,5.6,0.5,8.4l0,0.1c0,0.4,0,0.7-0.1,1.1
		c0.1,0.1,0.4,0.4,1.1,0.4c0.6,0,1.2-0.2,2-0.5c0.2-0.1,0.4-0.1,0.6-0.1c0.3,0,0.5,0.1,0.7,0.1h0c0.6,0.2,1,0.7,1,1.1
		c0,0.4-0.3,1.1-1.9,1.7c-0.2,0.1-0.4,0.1-0.6,0.2c-0.9,0.3-2.2,0.7-2.6,1.6c-0.2,0.5-0.1,1.1,0.2,1.9c0,0,0,0,0,0
		c0.1,0.3,2.8,6.4,8.8,7.3c0.1,0,0.2,0.1,0.3,0.2c0.1,0.1,0.1,0.2,0.1,0.3c0,0.1,0,0.2-0.1,0.3c-0.4,0.9-2.2,1.5-5.3,2
		c-0.3,0-0.4,0.5-0.6,1.3c-0.1,0.3-0.1,0.6-0.2,1c-0.1,0.3-0.3,0.5-0.6,0.5h0c-0.3,0-0.6,0-0.9-0.1c-0.8-0.2-1.5-0.2-2.3-0.2
		c-0.6,0-1.1,0-1.7,0.1c-1.2,0.2-2.1,0.9-3.2,1.6c-1.5,1-3.2,2.2-5.6,2.2H167.1z"/>
</g>
<path class="st3" d="M243,16.4C243,16.4,244,17.4,243,16.4c-1.4-1.6-2.2-3.7-2.2-5.9h-6.4v25.8c0,1.4-0.6,2.7-1.6,3.7
	c-1,1-2.4,1.5-3.7,1.5c-3,0-5.4-2.4-5.4-5.4c0-3.6,3.5-6.3,7-5.2v-6.6c-7.2-1-13.5,4.6-13.5,11.7c0,6.9,5.8,11.9,11.9,11.9
	c6.5,0,11.9-5.3,11.9-11.9V23c2.6,1.9,5.7,2.9,9,2.9v-6.4C249.7,19.5,245.8,19.6,243,16.4z"/>
<g>
	<path class="st2" d="M243,80.4C243,80.4,244,81.5,243,80.4c-1.4-1.6-2.2-3.7-2.2-5.9h-6.4v25.8c0,1.4-0.6,2.7-1.6,3.7
		c-1,1-2.4,1.5-3.7,1.5c-3,0-5.4-2.4-5.4-5.4c0-3.6,3.5-6.3,7-5.2v-6.6c-7.2-1-13.5,4.6-13.5,11.8c0,6.9,5.8,11.9,11.9,11.9
		c6.5,0,11.9-5.3,11.9-11.9V87.1c2.6,1.9,5.7,2.9,9,2.9v-6.4C249.7,83.5,245.8,83.7,243,80.4z"/>
</g>
<path class="st6" d="M320.2,15.7c-1.6,0.7-3.3,1.2-5.1,1.4c1.8-1.1,3.2-2.9,3.9-5c-1.7,1-3.6,1.8-5.7,2.2c-1.6-1.8-4-2.8-6.6-2.8
	c-4.9,0-8.9,4-8.9,8.9c0,0.7,0.1,1.4,0.2,2c-7.4-0.4-14-3.9-18.4-9.3c-0.8,1.3-1.2,2.9-1.2,4.5c0,3.1,1.6,5.9,4,7.4
	c-1.5,0-2.9-0.4-4.1-1v0.1c0,4.3,3.1,8,7.2,8.8c-1.3,0.4-2.7,0.4-4,0.1c0.6,1.8,1.7,3.3,3.2,4.4c1.5,1.1,3.3,1.7,5.2,1.8
	c-3.2,2.5-7.1,3.9-11.1,3.8c-0.7,0-1.4,0-2.1-0.1c4,2.5,8.7,4,13.7,4c16.4,0,25.4-13.6,25.4-25.4c0-0.4,0-0.8,0-1.2
	C317.4,19.1,318.9,17.5,320.2,15.7z"/>
<g>
	<path class="st7" d="M320.2,79.8c-1.6,0.7-3.3,1.2-5.1,1.4c1.8-1.1,3.2-2.9,3.9-5c-1.7,1-3.6,1.8-5.7,2.2c-1.6-1.8-4-2.8-6.6-2.8
		c-4.9,0-8.9,4-8.9,8.9c0,0.7,0.1,1.4,0.2,2c-7.4-0.4-14-3.9-18.4-9.3c-0.8,1.3-1.2,2.9-1.2,4.5c0,3.1,1.6,5.9,4,7.4
		c-1.5,0-2.9-0.4-4.1-1v0.1c0,4.3,3.1,8,7.2,8.8c-1.3,0.4-2.7,0.4-4,0.1c0.6,1.8,1.7,3.3,3.2,4.4c1.5,1.1,3.3,1.7,5.2,1.8
		c-3.2,2.5-7.1,3.9-11.1,3.8c-0.7,0-1.4,0-2.1-0.1c4,2.5,8.7,4,13.7,4c16.4,0,25.4-13.6,25.4-25.4c0-0.4,0-0.8,0-1.2
		C317.4,83.2,318.9,81.6,320.2,79.8z"/>
</g>
</svg>
