<?xml version="1.0" encoding="UTF-8"?><svg id="Illustration" xmlns="http://www.w3.org/2000/svg" viewBox="0 0 50 50"><defs><style>.cls-1{fill:#ff8ebf;}</style></defs><path class="cls-1" d="M25,4.17c5.66,0,6.37,.02,8.59,.12,2.22,.1,3.73,.45,5.06,.97,1.38,.53,2.53,1.25,3.69,2.4,1.06,1.04,1.88,2.3,2.4,3.69,.51,1.33,.86,2.84,.97,5.06,.1,2.22,.12,2.93,.12,8.59s-.02,6.37-.12,8.59c-.1,2.22-.45,3.73-.97,5.06-.52,1.39-1.34,2.65-2.4,3.69-1.04,1.06-2.3,1.88-3.69,2.4-1.33,.51-2.84,.86-5.06,.97-2.22,.1-2.93,.12-8.59,.12s-6.37-.02-8.59-.12c-2.22-.1-3.73-.45-5.06-.97-1.39-.52-2.65-1.34-3.69-2.4-1.06-1.04-1.88-2.3-2.4-3.69-.52-1.33-.86-2.84-.97-5.06-.1-2.22-.12-2.93-.12-8.59s.02-6.37,.12-8.59c.1-2.22,.45-3.73,.97-5.06,.52-1.39,1.34-2.65,2.4-3.69,1.04-1.06,2.3-1.88,3.69-2.4,1.33-.52,2.84-.86,5.06-.97,2.22-.1,2.93-.12,8.59-.12Zm0,10.42c-2.76,0-5.41,1.1-7.37,3.05s-3.05,4.6-3.05,7.37,1.1,5.41,3.05,7.37c1.95,1.95,4.6,3.05,7.37,3.05s5.41-1.1,7.37-3.05c1.95-1.95,3.05-4.6,3.05-7.37s-1.1-5.41-3.05-7.37c-1.95-1.95-4.6-3.05-7.37-3.05Zm13.54-.52c0-.69-.27-1.35-.76-1.84-.49-.49-1.15-.76-1.84-.76s-1.35,.27-1.84,.76c-.49,.49-.76,1.15-.76,1.84s.27,1.35,.76,1.84c.49,.49,1.15,.76,1.84,.76s1.35-.27,1.84-.76c.49-.49,.76-1.15,.76-1.84Zm-13.54,4.69c1.66,0,3.25,.66,4.42,1.83s1.83,2.76,1.83,4.42-.66,3.25-1.83,4.42-2.76,1.83-4.42,1.83-3.25-.66-4.42-1.83-1.83-2.76-1.83-4.42,.66-3.25,1.83-4.42,2.76-1.83,4.42-1.83Z"/></svg>