<?xml version="1.0" encoding="UTF-8"?><svg id="Illustration" xmlns="http://www.w3.org/2000/svg" viewBox="0 0 50 50"><defs><style>.cls-1{fill:#ffb31f;}</style></defs><path class="cls-1" d="M24.73,44.55c-2.48,0-4.13-1.17-5.61-2.2-1.05-.74-2.03-1.45-3.19-1.65-.55-.1-1.11-.14-1.67-.14-.98,0-1.76,.15-2.32,.26-.35,.06-.65,.12-.88,.12s-.55-.07-.67-.48c-.1-.33-.17-.65-.23-.96-.17-.77-.31-1.24-.6-1.29-3.1-.47-4.96-1.19-5.32-2.03-.03-.09-.06-.19-.06-.26-.02-.26,.17-.47,.43-.52,2.46-.41,4.67-1.72,6.54-3.87,1.45-1.67,2.16-3.29,2.22-3.46,0-.02,.02-.02,.02-.02,.35-.73,.43-1.35,.21-1.86-.4-.96-1.72-1.37-2.62-1.65-.23-.06-.43-.14-.59-.19-.77-.31-2.05-.96-1.89-1.86,.12-.65,.98-1.11,1.69-1.11,.2,0,.36,.03,.5,.1,.79,.36,1.51,.55,2.12,.55,.76,0,1.12-.29,1.22-.38-.02-.41-.04-.82-.07-1.24-.19-2.84-.4-6.37,.5-8.4,2.7-6.06,8.44-6.54,10.14-6.54l.74-.02h.1c1.7,0,7.44,.47,10.14,6.54,.91,2.02,.69,5.56,.5,8.4l-.02,.14c-.02,.38-.05,.74-.07,1.11,.09,.07,.43,.35,1.11,.36,.6-.02,1.25-.21,1.99-.55,.21-.09,.43-.14,.65-.14,.26,0,.52,.06,.74,.14h.02c.62,.23,1.03,.67,1.03,1.12,.02,.43-.32,1.08-1.9,1.72-.17,.06-.36,.14-.59,.19-.88,.27-2.2,.7-2.62,1.65-.23,.5-.14,1.14,.21,1.86,0,.02,.02,.02,.02,.02,.1,.26,2.79,6.35,8.76,7.35,.12,.02,.23,.08,.31,.18,.08,.1,.12,.22,.12,.34,0,.09-.02,.19-.06,.27-.36,.85-2.2,1.55-5.32,2.03-.29,.05-.43,.52-.59,1.29-.07,.32-.14,.64-.23,.96-.09,.31-.29,.47-.62,.47h-.05c-.3,0-.59-.04-.88-.1-.76-.16-1.54-.24-2.32-.24-.56,0-1.12,.05-1.67,.14-1.15,.19-2.15,.9-3.2,1.65-1.49,1.02-3.16,2.19-5.62,2.19h-.53Z"/></svg>