<?xml version="1.0" encoding="UTF-8"?><svg id="Illustration" xmlns="http://www.w3.org/2000/svg" viewBox="0 0 50 50"><defs><style>.cls-1{fill:#c33070;}</style></defs><path class="cls-1" d="M34.58,11.73s1.06,1.04,0,0c-1.42-1.63-2.21-3.71-2.21-5.88h-6.44V31.69c-.05,1.4-.64,2.72-1.65,3.69-1.01,.97-2.35,1.51-3.75,1.51-2.96,0-5.42-2.42-5.42-5.42,0-3.58,3.46-6.27,7.02-5.17v-6.58c-7.19-.96-13.48,4.62-13.48,11.75s5.75,11.88,11.85,11.88c6.54,0,11.85-5.31,11.85-11.88v-13.1c2.61,1.87,5.74,2.88,8.96,2.88v-6.44s-3.92,.19-6.75-3.08Z"/></svg>