<?xml version="1.0" encoding="UTF-8"?><svg id="Illustration" xmlns="http://www.w3.org/2000/svg" viewBox="0 0 50 50"><defs><style>.cls-1{fill:#4c6eae;}</style></defs><path class="cls-1" d="M46.32,11.07c-1.6,.73-3.33,1.21-5.12,1.44,1.83-1.1,3.25-2.85,3.92-4.96-1.73,1.04-3.65,1.77-5.67,2.19-1.65-1.79-3.96-2.83-6.58-2.83-4.9,0-8.9,4-8.9,8.94,0,.71,.08,1.4,.23,2.04-7.42-.38-14.02-3.94-18.42-9.33-.77,1.31-1.21,2.85-1.21,4.48,0,3.1,1.56,5.85,3.98,7.42-1.48,0-2.85-.42-4.06-1.04v.06c0,4.33,3.08,7.96,7.17,8.77-1.31,.36-2.69,.41-4.02,.15,.57,1.78,1.67,3.33,3.17,4.44,1.49,1.11,3.3,1.73,5.16,1.76-3.16,2.5-7.08,3.85-11.1,3.83-.71,0-1.42-.04-2.12-.12,3.96,2.54,8.67,4.02,13.71,4.02,16.42,0,25.44-13.62,25.44-25.44,0-.4,0-.77-.02-1.17,1.75-1.25,3.25-2.83,4.46-4.65Z"/></svg>