<svg width="716" height="358" viewBox="0 0 716 358" fill="none" xmlns="http://www.w3.org/2000/svg">
<path d="M70.9707 264.235C62.65 263.116 58.5246 227.526 58.9441 188.929C59.2238 159.911 62.0207 129.076 67.6144 110.686C71.6 97.7507 92.9261 90.9683 113.203 91.1781C127.537 91.3179 141.242 94.814 148.095 102.156C150.402 104.743 152.849 108.169 154.947 112.085C157.254 116.28 158.513 120.685 158.862 126.139L159.002 129.495C158.932 133.9 158.163 138.585 156.555 143.759C154.527 150.192 150.612 157.464 144.738 165.435C152.779 171.448 158.373 178.231 161.589 185.293C165.016 192.355 166.694 199.347 166.973 206.06L167.113 210.954C166.694 257.872 132.921 267.661 102.575 267.381C90.8285 267.241 79.641 265.843 70.9707 264.235ZM110.407 164.246C117.609 162.498 123.622 155.296 123.692 148.304C123.762 142.081 119.566 138.166 113.903 138.096L110.616 138.585L108.868 139.075L108.659 164.456L110.407 164.246ZM110.407 224.869C120.475 222.911 128.866 214.171 128.936 205.85C129.006 198.578 123.272 193.614 115.161 193.544L110.896 194.033C110.127 194.033 109.358 194.243 108.589 194.523L108.099 225.148L110.407 224.869Z" fill="#FFB7D6"/>
<path d="M202.843 261.997C195.851 260.879 190.118 258.501 185.573 255.005C181.028 251.649 177.811 247.384 175.714 242C173.406 236.126 173.057 230.462 173.057 224.449V218.716C173.266 216.198 173.266 212.702 173.406 208.297C173.406 203.892 173.616 197.879 173.966 190.257L174.945 162.918C174.945 158.513 182.706 155.926 190.887 155.926C199.977 155.926 209.905 159.072 209.905 166.834L209.696 168.861C209.346 174.595 204.591 197.32 204.591 214.59C204.591 224.729 206.339 233.12 211.444 234.868C212.772 235.357 213.891 235.497 215.08 235.497C224.379 235.497 226.687 219.695 226.687 203.543C226.687 188.649 224.799 173.476 224.589 170.33C224.939 163.687 232.56 160.331 240.951 160.331C247.803 160.331 254.795 162.568 258.431 166.973C258.781 178.86 259.41 188.3 259.55 195.641L260.109 221.163C260.109 225.918 259.9 230.672 258.781 235.427C258.012 239.832 256.334 243.818 253.816 247.314C251.299 250.81 247.943 253.816 243.748 256.334C239.413 258.851 234.238 260.599 227.805 261.718C222.491 262.487 217.737 262.836 213.332 262.836C209.486 262.766 206.06 262.627 202.843 261.997Z" fill="#FFB7D6"/>
<path d="M266.123 254.306L265.354 146.207C265.354 135.159 276.961 130.334 288.148 130.334C294.93 130.334 301.643 132.222 305.349 135.718C307.167 137.466 308.076 139.984 308.006 142.571L304.44 215.989C304.44 219.065 306.188 220.604 308.705 220.604C309.334 220.604 309.964 220.534 310.593 220.394L339.261 214.241C340.24 214.031 341.219 213.891 342.128 213.891C350.239 213.891 356.252 222.771 356.252 232.42C356.252 235.707 355.972 242.979 354.434 246.125C350.029 255.425 350.239 256.753 341.149 259.27C340.45 259.48 339.68 259.62 338.911 259.62L275.422 261.438L273.185 261.578C272.905 261.578 272.555 261.578 272.276 261.578C267.731 261.508 266.123 259.2 266.123 254.306Z" fill="#FFB7D6"/>
<path d="M362.964 254.306L362.195 146.207C362.195 135.159 373.802 130.334 384.99 130.334C394.429 130.334 403.729 133.97 404.918 140.613L401.212 216.059C401.212 219.135 402.96 220.673 405.477 220.673H406.456L436.033 214.311C437.012 214.101 437.991 213.961 438.9 213.961C447.011 213.961 453.024 222.841 453.024 232.49C453.024 235.287 453.164 247.663 452.255 253.047C452.045 254.306 451.276 255.425 450.087 255.914C444.004 258.781 439.669 258.012 430.579 259.061L372.194 261.438L369.467 261.648C364.713 261.648 362.964 259.34 362.964 254.306Z" fill="#FFB7D6"/>
<path d="M462.673 257.662C460.156 250.32 458.967 233.749 458.967 215.779C458.967 197.949 460.156 178.79 462.673 166.554C464.421 157.814 530.148 158.093 541.965 157.324C546.23 157.324 548.957 162.359 548.957 168.232C548.957 174.036 546.3 180.748 539.238 184.104C537.909 184.734 536.441 185.153 534.972 185.293L499.802 189.558C498.473 189.838 497.284 191.586 497.284 193.404C497.284 195.082 498.473 196.76 501.69 196.9L527.98 195.222C531.266 195.222 533.224 199.977 533.224 205.011C533.224 211.024 530.707 217.457 525.113 217.457L499.382 219.764C497.075 220.534 496.096 222.212 496.096 223.89C496.096 226.057 497.424 228.015 500.361 228.365L541.755 222.561C549.097 222.561 553.152 230.393 553.152 238.643C553.152 245.775 550.145 253.187 543.992 256.334C542.454 257.103 540.706 257.522 539.028 257.662C529.588 258.431 501.69 261.368 482.461 261.368C471.553 261.368 463.442 260.459 462.673 257.662Z" fill="#FFB7D6"/>
<path d="M562.521 257.312C560.004 249.971 558.815 233.539 558.815 215.779C558.815 198.158 560.004 179.07 562.521 166.903C564.269 158.233 629.996 158.513 641.813 157.744C646.078 157.744 648.805 162.778 648.805 168.582C648.805 174.595 645.938 181.517 638.247 184.734C637.268 185.153 636.289 185.363 635.24 185.503L599.72 189.768C598.391 190.048 597.203 191.726 597.203 193.544C597.203 195.222 598.391 196.9 601.678 197.04L627.968 195.362C631.254 195.362 633.212 200.046 633.212 205.081C633.212 211.024 630.695 217.387 625.101 217.387L599.37 219.694C597.063 220.464 596.084 222.142 596.084 223.82C596.084 225.917 597.412 227.945 600.349 228.225L640.554 222.631C641.673 222.491 642.862 222.491 643.98 222.701C649.924 224.1 653.14 231.092 653.14 238.433C653.14 245.496 650.133 252.837 643.91 255.984C642.372 256.753 640.694 257.173 638.946 257.312C629.576 258.012 601.608 261.018 582.309 261.018C571.401 260.948 563.29 260.039 562.521 257.312Z" fill="#FFB7D6"/>
<path d="M109.078 96.8417C109.148 96.4222 124.391 94.7441 137.606 103.554C143.06 107.19 149.213 113.134 148.863 114.672C148.724 115.161 148.164 116.21 146.836 116C141.242 115.161 135.928 110.407 132.991 107.05C124.111 96.9117 109.008 97.2613 109.078 96.8417Z" fill="white"/>
<path d="M150.332 118.378L149.913 118.797C149.213 119.217 148.095 120.825 148.584 121.524L149.353 122.713C150.052 123.692 152.08 123.412 153.199 123.202C153.479 123.132 153.618 123.132 153.828 122.992L153.968 122.713C154.178 122.083 154.038 121.524 153.758 120.965L153.548 120.615C152.849 119.357 151.451 117.608 150.332 118.378Z" fill="white"/>
<path d="M184.873 238.713C184.314 238.923 186.202 244.727 191.586 249.621C199.557 256.823 212.213 259.48 213.052 258.152C213.891 256.823 211.863 256.124 210.325 255.355C203.752 252.138 199.627 250.88 194.313 248.083C187.32 244.307 185.433 238.504 184.873 238.713Z" fill="white"/>
<path d="M182.216 230.113L182.356 230.043C183.475 229.623 184.663 230.183 185.083 231.301L185.363 232.001C185.782 233.119 185.223 234.448 184.104 234.867L183.824 235.007C182.776 235.427 181.587 234.867 181.167 233.819L180.888 233.119C180.398 231.861 181.028 230.532 182.216 230.113Z" fill="white"/>
<path d="M284.232 133.621C284.372 133.271 301.853 135.578 304.16 144.528C304.3 145.158 303.88 151.66 302.412 151.381C300.664 151.031 300.664 149.143 300.524 148.794C299.196 144.668 299.965 143.55 297.168 140.193C292.483 134.669 284.162 133.9 284.232 133.621Z" fill="white"/>
<path d="M421.139 223.26C421.069 222.911 437.012 215.01 443.934 221.303C444.423 221.722 447.71 227.526 446.381 228.085C444.773 228.784 443.654 227.176 443.375 226.966C439.948 224.239 439.948 222.841 435.753 221.582C428.621 219.485 421.209 223.54 421.139 223.26Z" fill="white"/>
<path d="M519.17 162.149C519.17 161.799 538.398 157.394 544.062 164.736C544.482 165.295 546.3 171.448 544.691 171.728C542.734 172.078 542.034 170.33 541.825 170.05C538.958 166.764 539.377 165.435 535.182 163.407C528.19 159.981 519.17 162.358 519.17 162.149Z" fill="white"/>
<path d="M618.738 229.903C618.669 229.484 639.365 223.121 646.288 230.742C646.777 231.301 649.434 237.944 647.686 238.364C645.588 238.853 644.61 237.035 644.33 236.755C640.834 233.399 641.183 231.861 636.429 229.973C628.458 226.826 618.738 230.183 618.738 229.903Z" fill="white"/>
<path d="M301.014 153.548L301.153 153.479C302.272 153.059 303.461 153.618 303.88 154.737L304.16 155.436C304.58 156.555 304.02 157.884 302.901 158.303L302.622 158.443C301.573 158.863 300.384 158.303 299.965 157.254L299.685 156.555C299.196 155.227 299.825 153.968 301.014 153.548Z" fill="white"/>
<path d="M445.822 231.162L445.962 231.092C447.08 230.672 448.269 231.232 448.688 232.35L448.968 233.049C449.388 234.168 448.828 235.497 447.71 235.916L447.43 236.056C446.381 236.476 445.192 235.916 444.773 234.867L444.493 234.168C444.004 232.91 444.633 231.581 445.822 231.162Z" fill="white"/>
<path d="M540.706 173.756L540.846 173.686C541.965 173.266 543.153 173.826 543.573 174.945L543.852 175.644C544.272 176.762 543.713 178.091 542.594 178.511L542.314 178.65C541.265 179.07 540.077 178.511 539.657 177.462L539.377 176.762C538.888 175.504 539.517 174.175 540.706 173.756Z" fill="white"/>
<path d="M645.449 241.72L645.588 241.65C646.707 241.23 647.896 241.79 648.315 242.908L648.595 243.608C649.015 244.726 648.455 246.055 647.337 246.475L647.057 246.614C646.008 247.034 644.819 246.475 644.4 245.426L644.12 244.726C643.631 243.468 644.26 242.139 645.449 241.72Z" fill="white"/>
<path d="M549.376 173.266H549.726C549.866 173.266 550.006 173.406 549.936 173.546V174.035C549.936 174.175 549.796 174.315 549.656 174.315H549.516C549.306 174.315 549.097 174.105 549.167 173.896V173.546C549.097 173.336 549.236 173.266 549.376 173.266Z" fill="white"/>
<path d="M653.7 235.707H654.049C654.189 235.707 654.329 235.846 654.259 235.986V236.476C654.259 236.616 654.119 236.755 653.979 236.755H653.839C653.63 236.755 653.42 236.546 653.49 236.336V235.986C653.42 235.846 653.56 235.707 653.7 235.707Z" fill="white"/>
</svg>
