<?xml version="1.0" encoding="UTF-8"?>
<svg id="_Layer_" data-name="&amp;lt;Layer&amp;gt;" xmlns="http://www.w3.org/2000/svg" viewBox="0 0 284.49 182.13">
  <defs>
    <style>
      .cls-1 {
        fill: #f8a16a;
      }

      .cls-2 {
        fill: #f59a6d;
      }

      .cls-3 {
        fill: #f9a672;
      }

      .cls-4 {
        fill: #020202;
      }

      .cls-5 {
        fill: #68a1bf;
      }

      .cls-6 {
        fill: #f09268;
      }

      .cls-7 {
        fill: #f5f8fc;
      }

      .cls-8 {
        fill: #ef8016;
      }

      .cls-9 {
        fill: #fff;
      }

      .cls-10 {
        fill: #ffb27d;
      }

      .cls-11 {
        fill: #ffbd8f;
      }

      .cls-12 {
        fill: #8e1a51;
      }

      .cls-13 {
        fill: #c33070;
      }

      .cls-14 {
        fill: #331832;
      }

      .cls-15 {
        fill: #bc5500;
      }

      .cls-16 {
        fill: #bacfe8;
      }

      .cls-17 {
        fill: #cfd6e4;
      }

      .cls-18 {
        fill: #daebe8;
      }

      .cls-19 {
        fill: #080435;
      }

      .cls-20 {
        fill: #5c305d;
      }

      .cls-21 {
        fill: #2a4d7f;
      }

      .cls-22 {
        fill: #4c6fae;
      }

      .cls-23 {
        fill: #5f3563;
      }

      .cls-24 {
        fill: #764678;
      }

      .cls-25 {
        opacity: .3;
      }
    </style>
  </defs>
  <path class="cls-16" d="M284.49,34.16v113.4c0,19.05-18.06,30.61-37.09,32.93-5.22,.63-10.49,1.07-16.05,1.34-23.46,1.13-56.24-1.29-58.38-1.29-39.65-2.2-28.65-2.73-115.74-.44-.22,0-11.58,.33-20.14,.39-20.48,.16-37.09-14.74-37.09-32.93V34.16C0,15.97,16.64,.15,37.09,1.23c18.99,1,46.92,4.93,76.04,2.52C147.76,.88,213.5-1.55,247.41,1.23c20.4,1.67,37.08,14.75,37.08,32.93Z"/>
  <path class="cls-10" d="M80.97,52.47s4.18,.58,5.21,2.86c.88,1.92-1.31,1.87-1.31,1.87l-3.65-.11-2.3-1.66,2.05-2.96Z"/>
  <path class="cls-14" d="M154.28,61.08s-.88,2.43,4.62,3.56c5.5,1.13,2.98,3.53,3.96,4.93,0,0,.49,.62,2.52,1.02s2.59,5.38-3.92,4.14c-6.51-1.24-9.41-5.65-9.41-5.65l-.09-3.27,2.32-4.72Z"/>
  <path class="cls-10" d="M126.19,70.39s-3.3-1.49-5.08-.32c-1.51,1,.1,1.96,.1,1.96l2.69,1.58,2.42-.15-.13-3.07Z"/>
  <path class="cls-18" d="M155.73,71.19c-4.49-4.03-13.18-1.38-19.08-1.14-4.76,.2-10.52-.47-10.52-.47,0,0-1.87,2.84-.54,4.95,0,0,4.77,1.97,10.43,2.85,6.08,.94,12.15,.23,11.42-.11-.01,0,9.74-4.77,8.29-6.08Z"/>
  <path class="cls-18" d="M160.01,78.12c-.45-5.33-.01-6.61-5.16-8.34-.68-.23-3.93-.7-4.66-.71-4.25-.07-6.03,7.82-6.28,14.91,.03,1.16,.15,4.73,.25,6.04,0,0,7.86-2.64,17.28,.96,.01-.21-1-7.75-1.42-12.86Z"/>
  <path class="cls-14" d="M161.45,91.19c-.18,1.13-4.05,2.58-8.87,1.76s-8.59-1.81-8.42-2.93,4.18-1.51,9.05-1.16c5.2,.38,8.41,1.2,8.23,2.33Z"/>
  <path class="cls-13" d="M149.91,73.71c-.01-.15-.14-.26-.28-.25-.14,.01-.25,.14-.24,.3,.01,.15,.14,.26,.28,.25,.14-.01,.25-.14,.24-.3Z"/>
  <path class="cls-13" d="M149.63,84.22c-.01-.15-.14-.26-.28-.25-.14,.01-.25,.14-.24,.3,.01,.15,.14,.26,.28,.25,.14-.01,.25-.14,.24-.3Z"/>
  <path class="cls-13" d="M149.13,78.62c-.01-.15-.14-.26-.28-.25-.14,.01-.25,.14-.24,.3,.01,.15,.14,.26,.28,.25,.14-.01,.25-.14,.24-.3Z"/>
  <path class="cls-14" d="M144.54,77.88s-.01,0,0,0c-.03-.01-.04-.03-.04-.05,.49-1.72-.19-2.94-.19-2.96-.01-.02,0-.04,.01-.05,.02-.01,.04,0,.05,.01s.7,1.27,.2,3.02c0,.02-.02,.03-.03,.03Z"/>
  <path class="cls-14" d="M142.56,120.78s.02,2.12-1.08,1.93c-1.24-.23-3.63,.09-2.49,1.04,.66,.55,2.54,.82,3.39,1.03,1.26,.31,2.51,.67,3.15,.1,.71-.62-.08-4.11-.08-4.11,0,0-.76,.38-1.43,.36-.99-.02-1.47-.35-1.47-.35Z"/>
  <path class="cls-13" d="M144.74,90.43s-7.14,4.11-8.91,10.48c-1.74,6.23,4.38,19.1,5.38,20.38s5.47,2.08,5.85-.51c.55-3.81-2.93-15.61-2.01-17.11,1.64-2.67,15.23-7.54,15.07-7.13,0,0-.89-5.46-3.91-6.32-3.48-1-8.21-.84-11.46,.21Z"/>
  <path class="cls-14" d="M163,126.69s-.21,1.48-1.3,1.77-4.18,.3-3.15,1.39c.59,.62,3.71,.65,4.58,.76s1.64,.57,2.35,.09c.78-.53,.41-3.66,.41-3.66,0,0-.79,.28-1.47,.19-.96-.14-1.41-.54-1.41-.54Z"/>
  <path class="cls-13" d="M147.6,91.78c9.56,24.73,13.71,33.95,14.92,36.03,.79,1.35,5.91,.39,5.5-2.4-.59-4.03-5.36-28.19-7.54-33.25-.96-2.27-14.26-3.96-12.87-.38Z"/>
  <path class="cls-14" d="M150.91,100.36s-.07-.02-.07-.05c-.72-2.77-1.96-3.55-1.97-3.55-.03-.02-.04-.07-.02-.1,.02-.03,.07-.04,.1-.02,.05,.03,1.29,.81,2.04,3.63,.01,.03-.01,.08-.05,.09t-.02,0Z"/>
  <path class="cls-10" d="M221.73,95.92s-3.3-1.49-5.08-.32c-1.51,1,.1,1.96,.1,1.96l2.69,1.58,2.42-.15-.13-3.07Z"/>
  <path class="cls-10" d="M175.13,84.95s-3.3-1.49-5.08-.32c-1.51,1,.1,1.96,.1,1.96l2.69,1.58,2.42-.15-.13-3.07Z"/>
  <g>
    <path class="cls-11" d="M126.27,117.89s-2.39-6.56-8.68-8.82c-6.29-2.27-16.69-3.46-19.87-3.51-3.17-.04-11.11,6.16-11.11,6.16l39.66,6.17Z"/>
    <path class="cls-3" d="M89.21,150.34s-5.61-3.92-10.71-9.92c-2.67-3.14-13.91-3.82-14.95-5.12-2.55-3.21-21.95-8.42-24.26-10.53-3.15-2.88-12.97-7.93-12.97-7.93l23.8-23.65s15.83,10.02,22.56,14.26c2.46,1.55,5.15,3.94,9.72,4,6.38,.08,12.98,4.78,19.41,8.58,3.02,1.77,8.5,5.47,10.31,7.09,1.93,1.71,10.51,5.28,9.27,8.31-2.18,5.35-8.91-.27-13.09-1.4-4.18-1.14-19.09,16.3-19.09,16.3Z"/>
    <path class="cls-6" d="M68.07,115.83c-.09,.03-.15,.1-.18,.2-.02,.09-.55,2.11,0,4.82,.32,1.59,.94,3.09,1.85,4.44,1.13,1.69,2.7,3.16,4.69,4.39,.14,.09,.32,.04,.39-.1,.08-.14,.02-.33-.11-.42-1.9-1.18-3.42-2.59-4.5-4.21-.86-1.29-1.45-2.7-1.75-4.21-.51-2.56-.01-4.51-.01-4.53,.04-.16-.04-.33-.2-.38-.07-.01-.13-.01-.19,.01Z"/>
    <path class="cls-2" d="M120.01,120.01h-.03c-.76-.11-4.53-.69-4.9-1.69-.37-1.03,.13-1.73,.15-1.76,.08-.1,.22-.12,.32-.04s.12,.22,.04,.32c-.01,.02-.38,.55-.1,1.34,.2,.55,2.77,1.14,4.53,1.39,.12,.02,.21,.13,.2,.26,0,.1-.1,.19-.21,.19Z"/>
    <path class="cls-22" d="M69.44,100.07c-3.13,8.17-9.28,20.01-15.56,27.32-3.03,3.54-7.01,7.17-11.47,8.43L0,118.83v-54.63c2.5,1.28,67,34.6,69.44,35.86Z"/>
    <path class="cls-11" d="M168.66,134.49l-7.92,29.9s-12.94-4.5-23.66-7.85c-.66-.21-1.31-.41-1.95-.6-.79-.24-1.55-.47-2.31-.7-4.61-1.37-8.27-2.31-9.44-2.24-.03,0-.07,0-.1,.01-1.39,.12-22.55-5.73-22.55-5.73,0,0,6.56-25.16,5.76-29.05-1.47-7.17-2.86-10.49,.45-9.38,7.07,2.36,14.9,4.23,19.31,9.05,.96,1.05,5.22,2.98,10.7,5.17,12.63,5.05,31.7,11.43,31.7,11.43Z"/>
    <path class="cls-22" d="M281.16,160.77c-5.88,10.83-18.87,17.9-33.76,19.72-5.22,.63-10.49,1.07-16.05,1.34-23.46,1.13-56.24-1.29-58.38-1.29l-36.01-12.55c-3.38-12.79-2.06-32.93,0-44.92,83.16,21.74,41.93,10.96,144.2,37.7Z"/>
    <path class="cls-11" d="M97.34,115.82s-2.29,6.03-9.44,5.61c-5.93-.35-23.97,6.54-27.71,12.12-.77,1.15,1.67,3.6,2.42,3.93,4.02,1.76,17.24-5.58,17.24-5.58,0,0-13.98,4.62-13.94,8.53,.02,1.48,1.38,4.6,3.51,4.52,5.41-.22,14.81-4,14.81-4,0,0-11.99,3.42-9.64,7.38,.56,.95,2.36,2.23,3.84,2.24,4.69,.04,11.97-3.04,11.97-3.04,0,0-1.36-.3-1.22,2.82,.16,3.7-1.26,1.62,11-.88,6.1-1.24,19.42,2.42,21.62,.22,6.66-6.65-24.48-33.87-24.48-33.87Z"/>
    <g>
      <path class="cls-3" d="M92.66,152.25l-1.41-7.39c-.82-1.94,.22-4.13,2.33-4.88h0c2.11-.76,4.49,.21,5.32,2.15l2.13,5.04c1.4,3.44,1.69,6.29-1.72,7.51-4.79,1.72-5.86-.55-6.66-2.42Z"/>
      <path class="cls-2" d="M94.56,146.32c-.59,0-1-.18-1.15-.53-.49-1.09-.38-3.19-.38-3.32,0-.2,.11-.37,.32-.54,.69-.56,2.44-.89,3.3-.72,1.17,.22,1.83,2.06,1.75,3.19-.07,.85-1.88,1.64-3.12,1.86-.26,.03-.5,.05-.71,.05Zm1.57-4.66c-.83,0-2.03,.3-2.46,.66-.1,.08-.13,.14-.13,.16h0s-.11,2.11,.34,3.11c.1,.23,.61,.3,1.31,.18,1.34-.24,2.68-1.01,2.71-1.4,.07-.94-.5-2.5-1.35-2.66-.13-.03-.27-.04-.43-.04Zm-2.85,.82h0Z"/>
      <path class="cls-3" d="M84.56,151.68l-.05-6.31c-.39-1.72,.8-3.39,2.67-3.75h0c1.86-.36,3.7,.74,4.08,2.45l1.02,4.44c.65,3.03,.45,5.44-2.55,6.01-4.25,.82-4.79-1.19-5.17-2.85Z"/>
      <path class="cls-2" d="M87.52,147.08s-.01,0,0,0c-1.03,0-1.34-.36-1.41-.66-.24-.97,.15-2.7,.19-2.82,.03-.18,.15-.32,.36-.43,.67-.38,2.18-.43,2.87-.18,.96,.34,1.24,1.98,1,2.91-.19,.71-1.89,1.17-3,1.17Zm-.99-3.43l.24,.05s-.41,1.72-.19,2.58c.03,.13,.33,.27,.92,.27h.01c1.19,0,2.44-.49,2.52-.8,.19-.73-.04-2.1-.68-2.32-.6-.22-1.93-.14-2.44,.13-.12,.07-.14,.11-.14,.11l-.24-.03Zm0,0h0Z"/>
      <path class="cls-2" d="M91.7,147.4c-.1,0-.2-.07-.23-.16-.05-.15-1.32-3.63-.5-5.01,.07-.12,.22-.15,.34-.09,.12,.08,.15,.22,.09,.34-.58,.97,.2,3.63,.55,4.59,.04,.13-.02,.27-.14,.32-.04,.01-.08,.02-.1,.02Z"/>
      <path class="cls-3" d="M102.28,154.3l-1.41-7.39c-.82-1.94,.22-4.13,2.33-4.88h0c2.11-.76,4.49,.21,5.32,2.15l2.13,5.04c1.4,3.44,1.69,6.29-1.72,7.51-4.79,1.72-5.86-.54-6.66-2.42Z"/>
      <path class="cls-2" d="M104.19,148.38c-.59,0-1-.18-1.15-.53-.49-1.09-.38-3.19-.38-3.32,0-.2,.11-.37,.32-.54,.69-.57,2.44-.89,3.3-.72,1.22,.23,1.82,2.19,1.74,3.19-.07,.85-1.88,1.64-3.12,1.86-.26,.03-.49,.05-.7,.05Zm1.55-4.65c-.83,0-2.03,.3-2.46,.66-.1,.08-.13,.14-.13,.16h0s-.11,2.11,.34,3.11c.1,.23,.61,.3,1.31,.18,1.34-.24,2.68-1.01,2.71-1.41,.07-.94-.5-2.5-1.35-2.66-.12-.02-.26-.03-.43-.03Zm-2.84,.81h0Z"/>
      <path class="cls-2" d="M101.31,149.45c-.1,0-.2-.07-.23-.16-.05-.15-1.32-3.63-.5-5.01,.07-.12,.22-.15,.34-.09,.12,.08,.15,.22,.09,.34-.58,.97,.2,3.63,.55,4.59,.04,.13-.02,.27-.14,.32-.03,.02-.07,.02-.1,.02Z"/>
      <path class="cls-3" d="M110.42,153.67l-1.41-7.39c-.82-1.94,.22-4.13,2.33-4.88h0c2.11-.76,4.49,.21,5.32,2.15l2.13,5.04c1.4,3.44,1.69,6.29-1.72,7.51-4.79,1.72-5.87-.55-6.66-2.42Z"/>
      <path class="cls-2" d="M112.31,147.74c-.59,0-1-.18-1.15-.53-.49-1.09-.38-3.19-.38-3.32,0-.2,.11-.37,.32-.54,.69-.56,2.45-.89,3.3-.72,1.17,.22,1.83,2.06,1.75,3.19-.07,.85-1.88,1.64-3.13,1.86-.25,.03-.49,.05-.7,.05Zm1.57-4.65c-.83,0-2.03,.3-2.46,.66-.1,.08-.13,.14-.13,.16h0s-.11,2.11,.34,3.11c.1,.23,.61,.3,1.31,.18,1.34-.24,2.68-1.01,2.71-1.4,.07-.94-.5-2.5-1.35-2.66-.13-.03-.27-.04-.43-.04Zm-2.85,.82h0Z"/>
      <path class="cls-2" d="M109.44,148.82c-.1,0-.2-.07-.23-.16-.05-.15-1.32-3.63-.5-5.01,.07-.12,.22-.15,.34-.09,.12,.08,.15,.22,.09,.34-.58,.97,.2,3.63,.55,4.59,.04,.13-.02,.27-.14,.32-.04,.01-.08,.02-.1,.02Z"/>
      <path class="cls-2" d="M84.69,152.46c-.12,0-.23-.1-.25-.22-.03-.26-.71-6.4-.33-7.98,.41-1.63,1.47-2.24,1.51-2.28,.12-.07,.27-.02,.34,.1s.02,.27-.09,.34c-.01,.01-.92,.55-1.28,1.96-.37,1.49,.33,7.74,.34,7.81,.01,.13-.09,.26-.22,.27h-.02Z"/>
    </g>
    <path class="cls-3" d="M68.83,105.03s15.97,4.71,21.65,4.04c6.37-.74,13.61-2.16,16.99,3.36,3.38,5.52,4.81,8.14,5.55,10.36,.76,2.21-3.05,14.26-7.32,10.99-4.07-3.12-1.18-8.67-1.94-10.06-3.01-5.5-9.62-3.95-9.62-3.95l-15.68-4.64-6.38-4.66-3.25-5.43Z"/>
    <path class="cls-2" d="M107.89,131.64c-.8,0-1.6-.14-2-.55-.65-.65-.31-2.15,.1-3.31,.15-.45,.6-.72,1.08-.63h0l2.7,.48c.33,.05,.61,.25,.79,.54s.22,.62,.13,.94c-.43,1.46-.47,1.76-.47,1.83-.01,.24-.26,.36-.45,.44-.39,.13-1.13,.26-1.88,.26Zm-.99-4.01c-.2,0-.38,.12-.45,.32-.48,1.4-.56,2.44-.21,2.79,.25,.25,.85,.41,1.65,.41h0c.93,0,1.65-.19,1.83-.31,.03-.26,.2-.89,.48-1.87,.05-.19,.03-.37-.08-.54-.1-.16-.26-.27-.45-.31l-2.7-.48s-.05-.01-.08-.01Zm2.81,3.26h0Z"/>
    <path class="cls-21" d="M53.88,127.4c-3.03,3.54-7.01,7.17-11.47,8.43L0,118.83v-28.39c4.31,4.55,11.9,13.26,15.32,21.36,5.45,12.95,36.43,3.11,38.57,15.59Z"/>
    <path class="cls-3" d="M68.9,137.06c2.64-.95,5.32-1.76,8.05-2.42,.38-.09,.22-.69-.16-.59-2.73,.66-5.41,1.47-8.05,2.42-.36,.13-.21,.72,.16,.59h0Z"/>
    <path class="cls-3" d="M79.81,143.01c1.18-.5,2.41-.84,3.69-1.03,.39-.05,.22-.65-.16-.59-1.34,.2-2.59,.56-3.83,1.08-.36,.16-.05,.69,.31,.54h0Z"/>
    <path class="cls-3" d="M125.79,118.16c.67,2.56,.74,5.1,.21,7.7-.08,.38,.51,.55,.59,.16,.55-2.69,.48-5.36-.21-8.02-.1-.38-.69-.22-.59,.16h0Z"/>
  </g>
  <g>
    <path class="cls-17" d="M251.27,96.72c-4.49-4.03-13.18-1.38-19.08-1.14-4.76,.2-10.52-.47-10.52-.47,0,0-1.87,2.84-.54,4.95,0,0,4.77,1.97,10.43,2.85,6.08,.94,12.15,.23,11.42-.11-.01,.01,9.74-4.76,8.29-6.08Z"/>
    <path class="cls-17" d="M255.55,103.65c-.45-5.33-.01-6.61-5.16-8.34-.68-.23-3.93-.7-4.66-.71-4.25-.07-6.03,7.82-6.28,14.91,.03,1.16,.15,4.73,.25,6.04,0,0,7.86-2.64,17.28,.96,.01-.21-1-7.74-1.42-12.86Z"/>
    <path class="cls-14" d="M256.99,116.73c-.18,1.13-4.05,2.58-8.87,1.76-4.82-.82-8.59-1.81-8.42-2.93s4.18-1.51,9.05-1.16c5.2,.38,8.41,1.2,8.23,2.33Z"/>
    <path class="cls-14" d="M244.5,84.94s-.23-2.45,1.85-2.64c2.09-.19,1.6,1.45,1.97,1.87,.37,.43-.6,1.64-1.61,1.8-1.01,.14-2.21-1.03-2.21-1.03Z"/>
    <path class="cls-10" d="M249.59,94.94c-.73,1.03-1.61,1.4-2.78,1.49-1.77,.13-1.07-1.83-1.07-1.83,.44-.04,.66-.28,.67-.74v-.56s.01-.27,.01-.27v-.89s.02-.79,.02-.79l.03-3.25,1.04,3.23,.18,.55,.61,1.89c.18,.61,.68,1.05,1.29,1.17t0,0Z"/>
    <path class="cls-14" d="M247.67,91.87s-.46,1-1.27,1.15v-.89c.51-.14,1.27-.26,1.27-.26Z"/>
    <path class="cls-14" d="M250.46,88.52s-.25,.48-.23,1.62c.03,1.66-1.83,1.84-2.16,1.28-.04-.07,.69-2.68,.69-2.68l.62-.19,1.07-.03Z"/>
    <ellipse class="cls-10" cx="246.67" cy="88.56" rx="3.76" ry="2.95" transform="translate(107.81 310.84) rotate(-77.76)"/>
    <path class="cls-14" d="M246.23,85.47c.05,.13-.86,1.88,2.35,3.24,3.23,1.36,2.28-3.39-.16-4.16-3.53-1.11-4.66,1.24-4.54,2.22s2.35-1.3,2.35-1.3Z"/>
    <path class="cls-14" d="M248.38,88.02s.99,1.87,.13,3.26c0,0,1.02-.68,1.12-1.02,.1-.33,.2-1.6,.2-1.6l-1.45-.65Z"/>
    <path class="cls-10" d="M248.98,89.79c-.41,.23-.86,.14-1.02-.2-.16-.34,.03-.81,.43-1.04,.41-.23,.86-.14,1.02,.2,.16,.35-.03,.81-.43,1.04Z"/>
    <path class="cls-19" d="M246.37,88.53s-.03-.03-.03-.05c0-.03,.02-.08,.05-.08,.02,0,.51-.12,.79,.43,.02,.03,.01,.08-.02,.1s-.07,0-.09-.02c-.24-.28-.63-.35-.66-.35-.02-.01-.03-.01-.04-.02Z"/>
    <path class="cls-19" d="M246.69,89.41c-.03,.16-.15,.27-.26,.24s-.18-.18-.14-.34,.15-.27,.26-.24c.12,.02,.19,.18,.14,.34Z"/>
    <path class="cls-19" d="M243.97,88.25s-.04-.01-.05-.03c-.02-.03-.01-.08,.02-.1,.02-.01,.44-.31,.89,.08,.03,.02,.03,.07,.01,.1-.02,.03-.07,.03-.1,.01-.33-.18-.71-.08-.73-.07,0,.01-.02,.02-.03,.01Z"/>
    <path class="cls-19" d="M244.6,88.94c.02,.16-.04,.31-.15,.33s-.23-.1-.25-.26,.04-.31,.15-.33,.23,.1,.25,.26Z"/>
    <g class="cls-25">
      <path class="cls-9" d="M248,88.82c.04,.93-.44,1.84-1.07,2.03s-1.18-.43-1.23-1.36,.44-1.84,1.07-2.03,1.18,.42,1.23,1.36Z"/>
    </g>
    <g class="cls-25">
      <ellipse class="cls-9" cx="244.01" cy="88.82" rx="1.71" ry=".99" transform="translate(101.61 305.97) rotate(-76.74)"/>
    </g>
    <path class="cls-5" d="M248.08,88.69c0-.08-.01-.14-.02-.21-.07-.48-.26-.89-.57-1.12-.24-.18-.51-.23-.8-.15-.05,.02-.11,.03-.16,.07-.44,.21-.8,.74-.94,1.37h0c-.02,.07-.03,.14-.04,.21h0c-.02,.18-.03,.34-.02,.53,.01,.16,.03,.33,.08,.48,.1,.36,.27,.66,.51,.84,.1,.08,.21,.13,.32,.15,.03,.01,.07,.01,.1,.02,.12,.02,.25,.01,.38-.02s.26-.1,.37-.19h.01c.3-.23,.54-.6,.68-1.04h0s.02-.09,.04-.14c.02-.1,.04-.2,.05-.3,.01-.12,.02-.24,.02-.37-.01-.04-.01-.09-.01-.13Zm-2.16,1.63c-.09-.14-.16-.31-.21-.49-.03-.14-.07-.3-.07-.46-.01-.16,0-.32,.02-.47h0c.01-.08,.02-.14,.04-.22h0c.13-.61,.47-1.12,.91-1.3h0s.09-.03,.13-.04c.11-.03,.23-.04,.34-.02,.13,.02,.25,.08,.36,.16,.15,.12,.28,.3,.37,.5,.03,.08,.07,.16,.09,.25h0v.02h0v.02h0c.01,.05,.02,.11,.03,.16h0c.02,.09,.02,.19,.03,.28,.01,.11,0,.21,0,.32h0c0,.07-.01,.14-.02,.21-.01,.08-.02,.14-.04,.21h0c-.11,.46-.34,.85-.63,1.09t-.02,.02c-.11,.09-.24,.15-.37,.2-.14,.04-.3,.04-.43,0t-.02-.01c-.09-.02-.18-.08-.25-.13-.11-.1-.19-.2-.26-.31h0Z"/>
    <path class="cls-5" d="M244.98,88.82h0s-.01,0-.01,.01c-.02,.25-.09,.5-.16,.72,.01-.02,.02-.04,.02-.07h0s.02-.05,.02-.08c0-.01,.01-.02,.01-.02,0-.01,.01-.02,.01-.02,.01-.03,.02-.08,.03-.11h0s.01-.05,.02-.08h0s.01-.03,.01-.04v-.02s.01-.05,.02-.09c0-.01,.01-.02,.01-.04h0s.01-.09,.02-.13v-.02s0-.01-.01-.01Zm0,0h0s-.01,0-.01,.01c-.02,.25-.09,.5-.16,.72,.01-.02,.02-.04,.02-.07h0s.02-.05,.02-.08c0-.01,.01-.02,.01-.02,0-.01,.01-.02,.01-.02,.01-.03,.02-.08,.03-.11h0s.01-.05,.02-.08h0s.01-.03,.01-.04v-.02s.01-.05,.02-.09c0-.01,.01-.02,.01-.04h0s.01-.09,.02-.13v-.02s0-.01-.01-.01Zm0,0h0s-.01,0-.01,.01c-.02,.25-.09,.5-.16,.72,.01-.02,.02-.04,.02-.07h0s.02-.05,.02-.08c0-.01,.01-.02,.01-.02,0-.01,.01-.02,.01-.02,.01-.03,.02-.08,.03-.11h0s.01-.05,.02-.08h0s.01-.03,.01-.04v-.02s.01-.05,.02-.09c0-.01,.01-.02,.01-.04h0s.01-.09,.02-.13v-.02s0-.01-.01-.01Zm0,0h0s-.01,0-.01,.01c-.02,.25-.09,.5-.16,.72,.01-.02,.02-.04,.02-.07h0s.02-.05,.02-.08c0-.01,.01-.02,.01-.02,0-.01,.01-.02,.01-.02,.01-.03,.02-.08,.03-.11h0s.01-.05,.02-.08h0s.01-.03,.01-.04v-.02s.01-.05,.02-.09c0-.01,.01-.02,.01-.04h0s.01-.09,.02-.13v-.02s0-.01-.01-.01Zm0,0h0s-.01,0-.01,.01c-.02,.25-.09,.5-.16,.72,.01-.02,.02-.04,.02-.07h0s.02-.05,.02-.08c0-.01,.01-.02,.01-.02,0-.01,.01-.02,.01-.02,.01-.03,.02-.08,.03-.11h0s.01-.05,.02-.08h0s.01-.03,.01-.04v-.02s.01-.05,.02-.09c0-.01,.01-.02,.01-.04h0s.01-.09,.02-.13v-.02s0-.01-.01-.01Zm0,0h0s-.01,0-.01,.01c-.02,.25-.09,.5-.16,.72,.01-.02,.02-.04,.02-.07h0s.02-.05,.02-.08c0-.01,.01-.02,.01-.02,0-.01,.01-.02,.01-.02,.01-.03,.02-.08,.03-.11h0s.01-.05,.02-.08h0s.01-.03,.01-.04v-.02s.01-.05,.02-.09c0-.01,.01-.02,.01-.04h0s.01-.09,.02-.13v-.02s0-.01-.01-.01Zm0,0h0s-.01,0-.01,.01c-.02,.25-.09,.5-.16,.72,.01-.02,.02-.04,.02-.07h0s.02-.05,.02-.08c0-.01,.01-.02,.01-.02,0-.01,.01-.02,.01-.02,.01-.03,.02-.08,.03-.11h0s.01-.05,.02-.08h0s.01-.03,.01-.04v-.02s.01-.05,.02-.09c0-.01,.01-.02,.01-.04h0s.01-.09,.02-.13v-.02s0-.01-.01-.01Zm0,0h0s-.01,0-.01,.01c-.02,.25-.09,.5-.16,.72,.01-.02,.02-.04,.02-.07h0s.02-.05,.02-.08c0-.01,.01-.02,.01-.02,0-.01,.01-.02,.01-.02,.01-.03,.02-.08,.03-.11h0s.01-.05,.02-.08h0s.01-.03,.01-.04v-.02s.01-.05,.02-.09c0-.01,.01-.02,.01-.04h0s.01-.09,.02-.13v-.02s0-.01-.01-.01Zm-.42-1.72c-.08-.05-.15-.1-.24-.12-.07-.02-.13-.03-.21-.03-.05,0-.1,.01-.15,.02h0s-.02,.01-.03,.01c-.6,.18-1.08,1.12-1.06,2.1,.01,.6,.21,1.12,.54,1.36,.08,.07,.16,.11,.26,.13,.11,.03,.22,.03,.33,.01h0s.02-.01,.04-.01c.22-.07,.43-.23,.59-.46h0c.16-.23,.3-.53,.38-.84,.03-.14,.07-.31,.08-.46,.01-.08,.01-.14,.01-.22v-.12c-.02-.61-.22-1.12-.54-1.37Zm.23,2.45s0,.01,0,0t0,0s-.01,.03-.02,.03c-.09,.22-.21,.42-.34,.56-.11,.12-.24,.22-.37,.27h-.02s-.03,.01-.04,.02c-.02,0-.04,.01-.05,.01h0c-.18,.03-.34-.01-.48-.12-.28-.22-.47-.68-.49-1.23h0v-.02c-.02-.93,.42-1.83,.99-1.99,.03-.01,.08-.02,.11-.02h0c.08-.01,.14,0,.21,.01,.08,.02,.15,.05,.22,.11h.01c.14,.12,.25,.3,.33,.5,.09,.22,.13,.48,.14,.77v.13h0c0,.08-.01,.15-.01,.23h0c-.02,.26-.08,.51-.16,.73h0Zm.19-.73h0s-.01,0-.01,.01c-.02,.25-.09,.5-.16,.72,.01-.02,.02-.04,.02-.07h0s.02-.05,.02-.08c0-.01,.01-.02,.01-.02,0-.01,.01-.02,.01-.02,.01-.03,.02-.08,.03-.11h0s.01-.05,.02-.08h0s.01-.03,.01-.04v-.02s.01-.05,.02-.09c0-.01,.01-.02,.01-.04h0s.01-.09,.02-.13v-.02s0-.01-.01-.01Zm0,0h0s-.01,0-.01,.01c-.02,.25-.09,.5-.16,.72,.01-.02,.02-.04,.02-.07h0s.02-.05,.02-.08c0-.01,.01-.02,.01-.02,0-.01,.01-.02,.01-.02,.01-.03,.02-.08,.03-.11h0s.01-.05,.02-.08h0s.01-.03,.01-.04v-.02s.01-.05,.02-.09c0-.01,.01-.02,.01-.04h0s.01-.09,.02-.13v-.02s0-.01-.01-.01Zm0,0h0s-.01,0-.01,.01c-.02,.25-.09,.5-.16,.72,.01-.02,.02-.04,.02-.07h0s.02-.05,.02-.08c0-.01,.01-.02,.01-.02,0-.01,.01-.02,.01-.02,.01-.03,.02-.08,.03-.11h0s.01-.05,.02-.08h0s.01-.03,.01-.04v-.02s.01-.05,.02-.09c0-.01,.01-.02,.01-.04h0s.01-.09,.02-.13v-.02s0-.01-.01-.01Zm0,0h0s-.01,0-.01,.01c-.02,.25-.09,.5-.16,.72,.01-.02,.02-.04,.02-.07h0s.02-.05,.02-.08c0-.01,.01-.02,.01-.02,0-.01,.01-.02,.01-.02,.01-.03,.02-.08,.03-.11h0s.01-.05,.02-.08h0s.01-.03,.01-.04v-.02s.01-.05,.02-.09c0-.01,.01-.02,.01-.04h0s.01-.09,.02-.13v-.02s0-.01-.01-.01Zm0,0h0s-.01,0-.01,.01c-.02,.25-.09,.5-.16,.72,.01-.02,.02-.04,.02-.07h0s.02-.05,.02-.08c0-.01,.01-.02,.01-.02,0-.01,.01-.02,.01-.02,.01-.03,.02-.08,.03-.11h0s.01-.05,.02-.08h0s.01-.03,.01-.04v-.02s.01-.05,.02-.09c0-.01,.01-.02,.01-.04h0s.01-.09,.02-.13v-.02s0-.01-.01-.01Zm0,0h0s-.01,0-.01,.01c-.02,.25-.09,.5-.16,.72,.01-.02,.02-.04,.02-.07h0s.02-.05,.02-.08c0-.01,.01-.02,.01-.02,0-.01,.01-.02,.01-.02,.01-.03,.02-.08,.03-.11h0s.01-.05,.02-.08h0s.01-.03,.01-.04v-.02s.01-.05,.02-.09c0-.01,.01-.02,.01-.04h0s.01-.09,.02-.13v-.02s0-.01-.01-.01Zm0,0h0s-.01,0-.01,.01c-.02,.25-.09,.5-.16,.72,.01-.02,.02-.04,.02-.07h0s.02-.05,.02-.08c0-.01,.01-.02,.01-.02,0-.01,.01-.02,.01-.02,.01-.03,.02-.08,.03-.11h0s.01-.05,.02-.08h0s.01-.03,.01-.04v-.02s.01-.05,.02-.09c0-.01,.01-.02,.01-.04h0s.01-.09,.02-.13v-.02s0-.01-.01-.01Z"/>
    <path class="cls-14" d="M244.89,88.84s-.05-.03-.07-.07c-.02-.05,0-.12,.05-.14,.02-.01,.42-.19,.93,.1,.05,.03,.07,.09,.04,.14-.02,.05-.09,.08-.14,.04-.43-.23-.74-.09-.74-.09-.03,.01-.05,.01-.08,.01Z"/>
    <path class="cls-14" d="M249.04,85.42s.86-2.29,2.8-1.48c1.95,.82,1.24,1.88,.94,2.59-.22,.53-1.26,1.18-2.21,.83s-1.53-1.95-1.53-1.95Z"/>
    <path class="cls-14" d="M249.25,93.06s.02,0,.03-.01c.03-.02,.04-.05,.02-.09-.01-.03-.36-.71-1.13-1.13-.03-.02-.07,0-.09,.03s0,.08,.02,.09c.72,.41,1.07,1.07,1.07,1.07,.02,.02,.04,.03,.07,.03Z"/>
    <path class="cls-9" d="M245.73,94.6s-.61,1.9,1.07,1.83c0,0-.82,.99-1.47,.67-.65-.33-.08-.7-.35-.92s-.58-.38-.34-.69,.04-.86,.04-.86c0,0,.39-.46,1.04-.02Z"/>
    <path class="cls-9" d="M245.45,99.25c-.01-.15-.14-.26-.28-.25-.14,.01-.25,.14-.24,.3s.14,.26,.28,.25,.25-.14,.24-.3Z"/>
    <path class="cls-9" d="M244.94,108.17c-.01-.15-.14-.26-.28-.25s-.25,.14-.24,.3c.01,.15,.14,.26,.28,.25,.14-.02,.25-.15,.24-.3Z"/>
    <path class="cls-9" d="M244.66,104.16c-.01-.15-.14-.26-.28-.25s-.25,.14-.24,.3c.01,.15,.14,.26,.28,.25s.25-.14,.24-.3Z"/>
    <path class="cls-4" d="M245.42,91.1c-.24,0-.53-.09-.79-.38-.01-.01-.01-.03,0-.04,.01-.01,.03-.01,.04,0,.63,.7,1.3,.2,1.34,.18,.01-.01,.03-.01,.04,.01,.01,.01,.01,.03-.01,.04,0-.01-.26,.2-.62,.2Z"/>
    <path class="cls-9" d="M249.59,94.94l1.22,.15s.25,.63-.32,.88c-.57,.25-.69,.26-.84,.74-.15,.48-.89,.56-1.15,.42s-.68,.5-1.09,.54c-.42,.03-.71-.72-.59-1.24-.01,0,1.54-.39,2.78-1.49Z"/>
    <path class="cls-14" d="M240.07,103.42h0s-.04-.03-.04-.05c.49-1.72-.19-2.94-.19-2.96-.01-.02,0-.04,.01-.05,.02-.01,.04,0,.05,.01s.7,1.27,.2,3.02c.01,.02-.01,.03-.03,.03Z"/>
    <path class="cls-14" d="M238.1,146.31s.02,2.12-1.08,1.93c-1.24-.23-3.63,.09-2.49,1.04,.66,.55,2.54,.82,3.39,1.03,1.26,.31,2.51,.67,3.15,.1,.71-.62-.08-4.11-.08-4.11,0,0-.76,.38-1.43,.36-.99-.01-1.47-.35-1.47-.35Z"/>
    <path class="cls-8" d="M240.27,115.97s-7.14,4.11-8.91,10.48c-1.74,6.23,4.38,19.1,5.38,20.38,1.01,1.27,5.47,2.08,5.85-.51,.55-3.81-2.93-15.61-2.01-17.11,1.64-2.67,15.23-7.54,15.07-7.13,0,0-.89-5.46-3.91-6.32-3.48-1-8.21-.85-11.46,.21Z"/>
    <path class="cls-14" d="M258.53,152.22s-.21,1.48-1.3,1.77-4.18,.3-3.15,1.39c.59,.62,3.71,.65,4.58,.76,.86,.11,1.64,.57,2.35,.09,.78-.53,.41-3.66,.41-3.66,0,0-.79,.28-1.47,.19-.96-.14-1.41-.54-1.41-.54Z"/>
    <path class="cls-8" d="M243.14,117.32c9.56,24.73,13.71,33.95,14.92,36.03,.79,1.35,5.91,.39,5.5-2.4-.59-4.03-5.36-28.19-7.54-33.25-.96-2.27-14.26-3.97-12.87-.38Z"/>
    <path class="cls-14" d="M246.45,125.88s-.07-.02-.07-.05c-.72-2.77-1.96-3.55-1.97-3.55-.03-.02-.04-.07-.02-.1s.07-.04,.1-.02c.05,.03,1.29,.81,2.04,3.63,.01,.03-.01,.08-.05,.09h-.02Z"/>
  </g>
  <g>
    <path class="cls-14" d="M211.22,98.32c.48,1.78-4.5,2.39-10.07,3.16-5.57,.78-9.97,.6-10.07-.18s4.29-2.4,9.86-3.17c5.57-.78,10.07-.57,10.28,.19Z"/>
    <path class="cls-8" d="M206.12,76.75s-1.66-3.89-8.89-2.58c-10.42,1.87-7.76,11.71-6.14,27.13,0,0,.81-1.34,6.67-2.49,5.99-1.17,12.87-1.29,13.45-.57-.01,.01-1.78-15.7-5.09-21.49Z"/>
    <path class="cls-8" d="M209.36,76.14l-4.93,3.14s-10.16,2.9-12.98,2.93c-2.82,.03-3.93-1.94-3.93-1.94,0,0,2.39-3.71,7.2-5.47,.45-.16,.93-.32,1.42-.44,.83-.21,1.67-.36,2.52-.42,6.4-.42,10.7,2.19,10.7,2.19Z"/>
    <path class="cls-10" d="M199.59,73.92c-.58,1.11-1.95,1.22-3.08,.93-.91-.23-.79-.25-.7-.42,.23-.41,.45-.54,.39-.94l-.07-.54v-.07s-.1-.7-.1-.7l-.15-1.2-.41-3.16,1.47,2.98,.25,.5,.85,1.74c.27,.58,1.52,.88,1.53,.88Z"/>
    <path class="cls-14" d="M197.39,71.77s-.32,.86-1.25,1.18v-.07s-.1-.7-.1-.7c.5-.14,1.35-.42,1.35-.42Z"/>
    <path class="cls-8" d="M199.39,75.08c-8.09-2.01-12.03,4.64-16.36,6.67-4.35,2.04-8.71,2.89-8.71,2.89,0,0-.16,2.97,.61,3.88,0,0,7.32,1.22,11.18-.04,5.53-1.82,9.85-4.84,9.05-4.88,0,0,6.09-8.04,4.23-8.51Z"/>
    <path class="cls-14" d="M191.18,133.66s.02,2.26-1.08,2.04c-1.24-.24-3.63,.09-2.49,1.11,.66,.58,2.54,.86,3.39,1.08,1.26,.32,2.51,.7,3.15,.11,.71-.66-.08-4.34-.08-4.34,0,0-.76,.41-1.43,.38-.97-.03-1.47-.38-1.47-.38Z"/>
    <path class="cls-22" d="M192.3,101.13s-6.09,4.76-7.86,11.49c-1.74,6.59,4.38,20.21,5.38,21.56,1.01,1.35,5.47,2.2,5.85-.55,.55-4.03-2.93-16.51-2.01-18.1,1.64-2.82,13.76-12.55,13.61-12.11,0,0,.85-4.21-2.54-4.05-5.04,.25-9.15,.65-12.41,1.75Z"/>
    <path class="cls-14" d="M211.63,139.91s-.21,1.57-1.3,1.87-4.18,.32-3.15,1.47c.59,.67,3.71,.69,4.58,.8s1.64,.6,2.35,.1c.78-.56,.41-3.86,.41-3.86,0,0-.79,.3-1.47,.2-.96-.15-1.41-.57-1.41-.57Z"/>
    <path class="cls-22" d="M195.66,100.5c9.56,26.15,14.28,38.39,15.49,40.6,.79,1.42,5.91,.42,5.5-2.54-.59-4.26-4.82-33.16-6.12-38.81-.35-1.53-14.87,.74-14.87,.74Z"/>
    <path class="cls-14" d="M199.17,110.15s-.05-.02-.07-.04c-.69-1.95-1.78-3.19-1.8-3.2-.02-.03-.02-.08,.01-.1,.03-.02,.08-.02,.1,.01,.01,.01,1.13,1.27,1.82,3.25,.01,.03-.01,.08-.04,.1,0-.02-.01-.02-.02-.02Z"/>
    <path class="cls-15" d="M189.52,87.12c-.1-1.36-.41-2.47-.9-3.24l.11-.07c.5,.78,.82,1.93,.92,3.3h-.13Z"/>
    <g>
      <path class="cls-23" d="M193.15,66.76s-.19,.78,.01,1.75,1.13-1.42,1.13-1.42l-1.14-.33Z"/>
      <path class="cls-10" d="M193.05,68.78c.22-1.88,1.61-3.25,3.1-3.05,1.49,.2,2.52,1.87,2.29,3.75-.22,1.88-1.61,3.25-3.1,3.05s-2.51-1.87-2.29-3.75Z"/>
      <path class="cls-23" d="M198.5,68.5l-1.31-.13c-.28-.03-.56-.19-.71-.45-.27-.44-.6-.67-1.83-.6-1.55,.08-2.58-.89-2.76-1.74-.18-.86,.61-1.47,1.4-1.05,.79,.41,.44-.6,1.19-.72,1.4-.21,1.67,.92,2.82,.88,1.51-.05,4.21,1.12,2.94,3.91l-1.75-.09Z"/>
      <path class="cls-19" d="M195.25,69.05s-.03-.01-.04-.02c-.02-.02-.01-.07,.01-.08,.01-.01,.34-.28,.73,.01,.02,.02,.03,.05,.01,.08-.02,.02-.04,.02-.08,.01-.28-.12-.59-.01-.6,0-.01,0-.02,0-.03,0Z"/>
      <path class="cls-19" d="M195.62,69.6c-.03,.13-.13,.22-.23,.2-.09-.02-.14-.15-.11-.28,.03-.13,.13-.22,.23-.2s.14,.15,.11,.28Z"/>
      <path class="cls-19" d="M193.55,68.62s-.02-.02-.02-.03c0-.03,.02-.05,.04-.07,.01,0,.36-.15,.51,.24,.01,.02,0,.05-.02,.08s-.04,.01-.07-.01c-.15-.2-.42-.21-.43-.21t-.02,0Z"/>
      <path class="cls-19" d="M193.89,69.24c0,.14-.08,.25-.18,.25s-.18-.11-.18-.25,.08-.25,.18-.25,.18,.11,.18,.25Z"/>
      <path class="cls-23" d="M200.24,68.57s-.9,2.06-2.18,2.22c0,0,1.03-1.58-1.17-2.51,0,0,2.01-.35,3.35,.28Z"/>
      <path class="cls-10" d="M198.43,69.72c-.27,.19-.62,.13-.79-.13-.15-.25-.07-.61,.21-.8s.62-.13,.79,.13c.16,.25,.07,.61-.21,.8Z"/>
      <path class="cls-9" d="M194.21,66.86c-.07-.02-1.7-.51-1.77-1.43-.02-.27,.02-.45,.14-.55,.18-.15,.48-.09,.76-.02,.04,.01,.08,.02,.12,.02v.03s-.09-.02-.13-.03c-.26-.05-.56-.13-.72,.01-.11,.09-.15,.26-.13,.51,.08,.89,1.73,1.39,1.75,1.4v.05Z"/>
      <path class="cls-9" d="M197.43,65.03c-1.28,0-1.92-.76-1.92-.77l.03-.02s.79,.95,2.41,.71v.03c-.19,.03-.36,.04-.53,.04Z"/>
      <path class="cls-14" d="M195.39,70.73s-.02,0-.03-.01c-.6-.31-1.37-.04-1.37-.03-.04,.01-.08-.01-.09-.04-.01-.03,.01-.08,.04-.09s.82-.3,1.49,.04c.03,.02,.04,.07,.03,.1-.02,.01-.04,.03-.08,.03Z"/>
    </g>
  </g>
  <path class="cls-14" d="M43.6,83.79s-.12,2.12-1.22,1.84c-1.23-.32-3.63-.19-2.55,.85,.62,.6,2.49,1.01,3.32,1.27,1.24,.39,2.45,.85,3.13,.34,.76-.57,.21-4.09,.21-4.09,0,0-.78,.32-1.46,.26-.97-.11-1.43-.47-1.43-.47Z"/>
  <path class="cls-8" d="M55.82,53.29s-15.57,4.01-17.77,10.24c-2.16,6.09,3.66,19.32,4.58,20.66,.92,1.35,4.73,1.62,5.28-.94,.8-3.75-1.23-14.4,.74-16.64,2.05-2.34,16.41-4.47,16.22-4.06,.01,0-5.67-9.81-9.05-9.25Z"/>
  <path class="cls-14" d="M66.42,95.03s-.53,1.39,.28,2.21c.81,.82,3.48,2.44,2.07,2.86-.81,.23-3.53-1.37-4.32-1.74-.8-.36-1.7-.36-2.08-1.15-.43-.86,1.39-3.38,1.39-3.38,0,0,.55,.66,1.18,.92,.9,.39,1.48,.28,1.48,.28Z"/>
  <path class="cls-8" d="M56.26,56.52c2.91,26.9,5.34,36.42,6.04,38.76,.45,1.51,5.64,1.9,5.89-.92,.36-4.06,.13-33.66-.8-39.13-.42-2.44-11.55-2.56-11.13,1.28Z"/>
  <path class="cls-13" d="M56.76,34.53c8.3,.5,12.04,8.4,15.82,11.23,3.88,2.9,8.64,6.32,8.64,6.32,0,0,.11,2.98-2.17,3.81,0,0-6.21-1.34-10.94-4.71-4.78-3.42-8.43-7.51-7.66-7.31,.01,0-5.61-9.46-3.69-9.34Z"/>
  <path class="cls-13" d="M45.92,41.52s-.13-4.04,6.59-6.12c5.18-1.61,9.51,.69,11.11,5.32,2.21,6.4,3.24,12,3.21,15.48,0,0-8.2,5.36-18.46-.38,0,0,1.6-3.42-1.04-12.06-.26-.88-1.47-1.5-1.41-2.23Z"/>
  <path class="cls-10" d="M53.42,34.21l.74-1.72,.22-.5,1.28-2.93-.25,3.07-.15,1.84-.04,.58c-.03,.39,.19,.5,.43,.89,.1,.15,.72,1.09-.15,1.36-1.08,.33-2.91-.65-3.54-1.67,.03-.01,1.23-.35,1.47-.9Z"/>
  <path class="cls-8" d="M54.09,35.66s1.16-.8,1.59-.58,.58,1.75,.03,2.06c-.56,.31-2.11-.95-1.62-1.48Z"/>
  <path class="cls-22" d="M56.06,46.41c.09,.16,.03,.36-.12,.45-.15,.09-.35,.03-.44-.12-.09-.16-.08-.36,.08-.45,.22-.13,.39-.03,.48,.12Z"/>
  <path class="cls-22" d="M56.35,51.06c.09,.16,.03,.36-.12,.45-.15,.09-.35,.03-.44-.12-.09-.16-.08-.36,.08-.45,.22-.13,.39-.04,.48,.12Z"/>
  <path class="cls-22" d="M56.71,55.32c.05,.18-.02,.36-.2,.43-.16,.07-.35-.02-.41-.2s-.02-.37,.14-.44c.24-.09,.39,.03,.46,.21Z"/>
  <path class="cls-8" d="M54.76,37.28c-.25,1.84-1.8,9.05-11.09,13.38-.6,.27-1.13,.7-1.52,1.24l-1.6,2.13c-.28,.38-.13,.95,.31,1.12l2.61,.97c.9,.33,1.87,.31,2.75-.08,3.02-1.35,10.6-7.76,9.87-19.4-.03-.49-.39-.09-.85,.08h0c-.25,.07-.44,.28-.47,.56Z"/>
  <path class="cls-14" d="M55.37,37.12c-.27-.02-.51-.16-.53-.18s-.02-.03-.01-.04c.01-.01,.03-.02,.04-.01,0,0,.42,.25,.77,.13,.34-.11,.39-.81,.39-.82,0-.02,.02-.03,.03-.03h0s.03,.02,.03,.03c0,.03-.05,.76-.45,.88-.09,.04-.19,.05-.28,.04Z"/>
  <path class="cls-12" d="M66.16,50.04s-.07-.02-.07-.07c0-.03-.42-3.12-2.01-6.25-.02-.03,0-.08,.03-.1,.03-.02,.08,0,.1,.03,1.61,3.14,2.03,6.26,2.03,6.29,0,.04-.03,.08-.08,.09h0Z"/>
  <path class="cls-12" d="M55.14,35.02s.08-.27,.11-.8l.04-.5c.24-.01,1.69,.85,1.83,1.14s.31,1.65-.12,1.81c-.42,.14-1.6-1.23-1.73-1.36-.13-.13-.13-.28-.13-.28Z"/>
  <g>
    <path class="cls-20" d="M58.66,28.89s0,.78-.41,1.63-.73-1.62-.73-1.62h1.14Z"/>
    <ellipse class="cls-10" cx="55.68" cy="30.45" rx="3.31" ry="2.64" transform="translate(20.27 83.11) rotate(-84.76)"/>
    <path class="cls-14" d="M53.24,29.15l1.27,.21c.27,.04,.57-.03,.77-.23,.36-.34,.71-.47,1.85-.1,1.45,.46,2.63-.18,2.99-.92,.36-.77-.24-1.52-1.07-1.34-.83,.19-.27-.68-.95-.97-1.27-.56-1.77,.43-2.85,.1-1.4-.44-4.2-.03-3.66,2.89l1.65,.36Z"/>
    <path class="cls-19" d="M56.04,30.57s.03,0,.04-.01c.02-.02,.03-.05,.01-.08-.01-.01-.22-.37-.67-.24-.03,.01-.04,.04-.03,.07,.01,.03,.03,.04,.07,.04,.3-.01,.55,.19,.56,.2,0,.01,.01,.01,.02,.02Z"/>
    <path class="cls-19" d="M55.45,30.97c0,.13,.08,.24,.18,.24,.09,0,.16-.11,.16-.24s-.08-.24-.18-.24c-.09,0-.16,.11-.16,.24Z"/>
    <path class="cls-19" d="M57.71,30.7s.02-.01,.03-.03c.01-.02,0-.05-.02-.08-.01-.01-.3-.24-.55,.08-.01,.02-.01,.05,0,.08,.02,.02,.04,.02,.05,.01,.2-.14,.44-.08,.45-.07,.01,.01,.02,.01,.03,.01Z"/>
    <path class="cls-19" d="M57.19,31.15c-.04,.12-.01,.25,.07,.28,.09,.03,.2-.03,.24-.15s.01-.25-.07-.28c-.09-.04-.2,.02-.24,.15Z"/>
    <path class="cls-20" d="M51.57,28.78s.37,2.15,1.54,2.63c0,0-.61-1.73,1.67-2.05,0,0-1.81-.83-3.22-.58Z"/>
    <path class="cls-10" d="M53.02,30.31c.22,.24,.56,.27,.77,.08s.2-.56-.01-.8c-.22-.24-.56-.27-.77-.08-.22,.2-.21,.56,.01,.8Z"/>
    <path class="cls-20" d="M54.79,29.36s-.57,1.55-.33,1.95c.24,.39,2.28,1.11,3.34,.99h0c-.24,1.04-1.17,1.75-2.19,1.65-.34-.03-.67-.13-.99-.28h0c-.65-.32-1.23-.79-1.35-1.52-.03-.22,.51-1.38,.51-1.38,0,0,.27-.69-.03-1.18,0,.01,.58-.3,1.03-.22Z"/>
    <path class="cls-14" d="M58.85,26.57c-.32-.12-.26-.44-.26-.44h.07s-.04,.31,.3,.39v.08s-.08-.02-.1-.03Z"/>
    <path class="cls-9" d="M57.64,28.71v-.03s1.69-.04,1.96-.85c.08-.23,.08-.39,0-.5-.12-.19-.42-.2-.68-.2h-.12v-.03h.12c.27,.01,.58,.02,.71,.22,.08,.12,.08,.3,0,.54-.12,.35-.5,.61-1.11,.76-.45,.1-.88,.11-.89,.11Z"/>
    <path class="cls-9" d="M54.65,26.05s-.07-.02-.1-.04v-.03c1.47,.63,2.42-.04,2.43-.05l.02,.03s-.93,.68-2.35,.1Z"/>
    <path class="cls-10" d="M55.99,32.8c-.35-.14-.56-.37-.57-.38-.02-.02-.02-.07,0-.09,.02-.02,.07-.02,.09,0,0,.01,.49,.57,1.29,.44,.03,0,.07,.02,.07,.05s-.02,.07-.05,.08c-.32,.04-.6-.01-.82-.1Z"/>
  </g>
  <path class="cls-14" d="M56.4,63.97c-.07,0-.13-.05-.14-.12-.16-1.37-1.14-2.49-1.14-2.5-.05-.05-.04-.15,.01-.2,.05-.05,.14-.04,.2,.01,.04,.04,1.04,1.2,1.22,2.65,.01,.08-.04,.15-.12,.15-.01,0-.02,0-.02,0Z"/>
  <path class="cls-24" d="M14.56,63.01c7.53,2.52,15.55,2.07,22.41-2.17,5.88-3.63,9.31-9.02,16.9-9.49,5.66-.35,11.49,.76,16.98,2,20.95,4.75,39.62,16.09,60.12,22.27,20.23,6.09,41.03,10.1,61.57,14.93,20.68,4.85,40.23,13.06,60.78,18.21,.38,.1,.55-.49,.16-.59-20.15-5.05-39.31-13.14-59.59-17.93-20.94-4.95-42.15-9-62.77-15.21-20.1-6.04-38.4-17.03-58.86-21.96-7.47-1.8-17.4-4.25-24.75-.9-4.15,1.88-7.03,5.78-10.85,8.16-6.72,4.16-14.54,4.59-21.94,2.1-.37-.13-.54,.46-.16,.58h0Z"/>
  <path class="cls-1" d="M171.77,88.23s1.11,.78,1.7-.22c.76-1.28,.45-3.72-.03-2.92-.43,.71-.8,1.89-.8,1.89,0,0,.9-3.02,.22-3.05-.68-.03-1.42,2.58-1.42,2.58,0,0,.6-3.05-.03-2.87s-1.32,2.55-1.32,2.55c0,0,.74-2.93,.01-2.7-.73,.23-.82,1.86-1.01,2.53-.18,.63,.16,.99,.78,1.17,0,0,.54,.55,.95,.57,.16,.01,.26,.21,.37,.26,.2,.1,.59,.21,.59,.21Z"/>
  <path class="cls-1" d="M218.37,99.19s1.11,.78,1.7-.22c.76-1.28,.45-3.72-.03-2.92-.43,.71-.8,1.89-.8,1.89,0,0,.9-3.02,.22-3.05-.68-.03-1.42,2.58-1.42,2.58,0,0,.6-3.05-.03-2.87s-1.32,2.55-1.32,2.55c0,0,.74-2.93,.01-2.7s-.82,1.86-1.01,2.53c-.18,.63,.16,.99,.78,1.17,0,0,.54,.55,.95,.57,.16,.01,.26,.21,.37,.26,.2,.1,.59,.21,.59,.21Z"/>
  <path class="cls-10" d="M206.35,91.52c-.65-.33-2.07-.67-2.71-.97-.28-.13-1.27-.53-1.43-.24-.14,.24,.49,.93,.83,1.23-2.52,.45-5.62,2.04-.53,1.4h0c-.43,.1-3.62,.65-3.31,1.37,.23,.53,2.85-.01,3.56-.15t.01,.02c-.71,.21-2.9,.71-2.7,1.23,.26,.68,3.05-.08,3.05-.08,0,0-2.33,.56-1.77,1.17,.32,.34,1.69-.03,2.53-.28h0c.18-.05,.34-.1,.45-.13,.1-.02,.19-.07,.25-.1,1.4-.5,2.21-1.08,2.21-1.08,0,0,1.07-.49,.83-1.81-.15-.84-.99-1.42-1.27-1.57Z"/>
  <path class="cls-8" d="M205.79,91.29c.27-.79,7.06-2.87,7.06-3.66,0-.69-5.62-2.54-5.62-2.54l-1.97-10.12s5.45,.82,10.86,4.84c4.67,3.48,5.58,6.47,4.35,9.38-1.52,3.58-10.82,7.24-12.48,6.51-2.51-1.06-2.46-3.62-2.2-4.42Z"/>
  <g>
    <path class="cls-22" d="M197.38,75.8c.83,1.65,4.48,9.46,14.67,10.5,.66,.07,1.29,.3,1.85,.67l2.21,1.49c.39,.27,.44,.85,.08,1.16l-2.15,1.77c-.73,.61-1.67,.91-2.63,.82-3.3-.28-13.41-4.86-15.7-16.19-.1-.49,.28-.31,.77-.31l.42-.03c.27,0,.36-.13,.48,.12Z"/>
    <path class="cls-22" d="M197.35,74.84s-1.31-.3-1.63,.05,.04,1.81,.65,1.88,1.6-1.64,.99-1.94Z"/>
    <path class="cls-15" d="M196.57,74.55s1.63-.78,1.9-1.42c.28-.65,2.12,.62,2.12,1.05s-2.94,3.1-3.17,2.81c-.22-.27-1.24-1.99-.85-2.44Z"/>
    <path class="cls-15" d="M196.57,74.55s-.3-.62-.21-1c0,0,.05-.32-.2-.27s-1.57,1.19-1.66,1.51c-.1,.32-.01,1.77,.45,1.84s1.42-1.6,1.54-1.76c.11-.15,.08-.32,.08-.32Z"/>
    <path class="cls-14" d="M196.46,76.81c-.36,0-.71-.65-.72-.67l.05-.03s.39,.71,.72,.63c.34-.09,.46-.34,.46-.34l.05,.02s-.13,.28-.5,.37c-.02,.01-.04,.01-.07,.01Z"/>
  </g>
  <path class="cls-14" d="M255.68,104.48s-.02,0-.02-.01l-2.49-1.18s-.04-.05-.03-.08c.01-.03,.05-.04,.08-.03l2.49,1.18s.04,.05,.03,.08c0,.03-.02,.04-.05,.04Z"/>
  <path class="cls-1" d="M122.83,73.67s1.11,.78,1.7-.22c.76-1.28,.45-3.72-.03-2.92-.43,.71-.8,1.89-.8,1.89,0,0,.9-3.02,.22-3.05-.68-.03-1.42,2.58-1.42,2.58,0,0,.6-3.05-.03-2.87s-1.32,2.55-1.32,2.55c0,0,.74-2.93,.01-2.7-.73,.23-.82,1.86-1.01,2.53-.18,.63,.16,.99,.78,1.17,0,0,.54,.55,.95,.57,.16,.01,.26,.21,.37,.26,.2,.1,.59,.21,.59,.21Z"/>
  <path class="cls-10" d="M158.12,83.12s-2.16-2.22-3.26-2.4c-1.11-.18-2.66,.48-1.99,.74,.67,.26,1.6,.35,1.6,.35,0,0-2.01-.09-1.84,.42s1.94,.56,1.94,.56c0,0-2.41,.1-2.09,.51s2.15,.33,2.15,.33c0,0-2.23,.19-1.86,.66,.38,.47,1.85-.16,2.03,.34s1.34,1.16,2.74,.92l.6-2.43Z"/>
  <path class="cls-18" d="M157.65,82.75c.12-.74,4.77-1.74,4.61-2.32-.31-1.06-6.55-3.53-6.55-3.53l-2.7-7.64s5.29,.47,9.8,3.54c5.4,3.67,6.46,7.64,5.12,10.64-1.41,3.19-8.05,4.2-9.62,3.83-2.38-.55-.78-3.78-.66-4.52Z"/>
  <path class="cls-14" d="M159.99,87.26c-.74,0-1.71-.04-2.2-.26-.9-.39-.82-1.39-.82-1.4,0-.03,.03-.05,.07-.05h0s.05,.03,.05,.07-.07,.91,.76,1.27c.84,.37,3.15,.23,3.17,.23h0s.05,.02,.07,.05c0,.03-.02,.07-.05,.07-.05,.01-.48,.03-1.04,.03Z"/>
  <path class="cls-14" d="M157.65,82.82s-.05-.01-.05-.04c-.01-.03,.01-.07,.04-.08,.02-.01,.08-.08,.13-.13,.26-.31,.86-1.03,2.58-1.19,.02,0,.07,.02,.07,.05s-.02,.07-.05,.07c-1.67,.16-2.23,.83-2.51,1.15-.08,.1-.13,.15-.19,.18t-.02,0Z"/>
  <path class="cls-14" d="M160.14,78.95s-.02,0-.02-.01l-2.49-1.18s-.04-.05-.03-.08c.01-.03,.05-.04,.08-.03l2.49,1.18s.04,.05,.03,.08c0,.03-.02,.04-.05,.04Z"/>
  <path class="cls-21" d="M215.47,182.13c-7.13-.03-14.93-.26-23.8-.66-4.07-.18-8.37-.39-12.93-.63-1.87-.1-3.8-.21-5.76-.32h0l-36.01-12.55c-.99-3.71-1.54-7.84-1.84-12.04-.24-2.16-.24-5.59-.24-5.59,0,0,0,.02,.01,.08,.11,.46,.74,3.14,2.18,6.13,1.84,3.83,4.99,8.17,10,8.97,9.29,1.47,22.29-.81,35.05,7.05,9.56,5.87,22.16,6.51,33.33,9.57Z"/>
  <path class="cls-10" d="M154.05,69.41c-.73,1.03-1.61,1.4-2.78,1.49-1.77,.13-1.07-1.83-1.07-1.83,.44-.04,.66-.28,.67-.74v-.56s.01-.27,.01-.27v-.89s.02-.79,.02-.79l.03-3.25,1.04,3.23,.18,.55,.61,1.89c.18,.6,.68,1.05,1.29,1.17t0,0Z"/>
  <path class="cls-14" d="M152.14,66.34s-.46,1-1.27,1.15v-.89c.51-.14,1.27-.26,1.27-.26Z"/>
  <path class="cls-14" d="M154.92,62.99s-.25,.48-.23,1.62c.03,1.66-1.83,1.84-2.16,1.28-.04-.07,.69-2.68,.69-2.68l.62-.19,1.07-.03Z"/>
  <ellipse class="cls-10" cx="151.12" cy="63.03" rx="3.76" ry="2.95" transform="translate(57.48 197.35) rotate(-77.76)"/>
  <path class="cls-14" d="M150.69,59.94c.05,.13-.86,1.88,2.35,3.24,3.23,1.36,2.28-3.39-.16-4.16-3.53-1.11-4.66,1.24-4.54,2.22,.12,.99,2.35-1.3,2.35-1.3Z"/>
  <path class="cls-14" d="M152.84,62.48s.99,1.87,.13,3.26c0,0,1.02-.68,1.12-1.02,.1-.33,.2-1.6,.2-1.6l-1.45-.65Z"/>
  <path class="cls-10" d="M153.44,64.26c-.41,.23-.86,.14-1.02-.2-.16-.34,.03-.81,.43-1.04,.41-.23,.86-.14,1.02,.2,.16,.34-.03,.81-.43,1.04Z"/>
  <path class="cls-19" d="M150.83,63s-.03-.03-.03-.05c0-.03,.02-.08,.05-.08,.02,0,.51-.12,.79,.43,.02,.03,.01,.08-.02,.1-.03,.02-.07,0-.09-.02-.24-.28-.63-.35-.66-.35-.02-.01-.03-.02-.04-.02Z"/>
  <path class="cls-19" d="M151.15,63.88c-.03,.16-.15,.27-.26,.24-.11-.02-.18-.18-.14-.34,.03-.16,.15-.27,.26-.24,.12,.02,.19,.18,.14,.34Z"/>
  <path class="cls-19" d="M148.44,62.72s-.04-.01-.05-.03c-.02-.03-.01-.08,.02-.1,.02-.01,.44-.31,.89,.08,.03,.02,.03,.07,.01,.1-.02,.03-.07,.03-.1,.01-.33-.18-.71-.08-.73-.07,0,.01-.02,.01-.03,.01Z"/>
  <path class="cls-19" d="M149.06,63.4c.02,.16-.04,.31-.15,.33s-.23-.1-.25-.26c-.02-.16,.04-.31,.15-.33,.11-.01,.23,.1,.25,.26Z"/>
  <g class="cls-25">
    <path class="cls-9" d="M152.47,63.28c.04,.93-.44,1.84-1.07,2.03s-1.18-.43-1.23-1.36c-.04-.93,.44-1.84,1.07-2.03,.63-.19,1.18,.43,1.23,1.36Z"/>
  </g>
  <g class="cls-25">
    <path class="cls-9" d="M149.5,63.05c-.05,.92-.57,1.77-1.14,1.92-.57,.14-.99-.49-.93-1.4,.05-.92,.57-1.77,1.14-1.92,.57-.15,.99,.48,.93,1.4Z"/>
  </g>
  <path class="cls-5" d="M152.54,63.14c0-.08-.01-.14-.02-.21h0c-.07-.48-.26-.89-.57-1.12-.24-.18-.51-.23-.8-.15-.05,.02-.12,.03-.16,.07-.45,.21-.8,.73-.94,1.37h0c-.02,.07-.03,.14-.04,.21h0c-.02,.18-.03,.34-.02,.53,.01,.16,.03,.33,.08,.48,.09,.36,.27,.66,.51,.84,.1,.08,.21,.13,.32,.15,.03,.01,.07,.02,.1,.02,.12,.02,.25,.01,.38-.02s.26-.1,.37-.19h.01c.3-.23,.54-.6,.68-1.04h0s.03-.09,.04-.14c.02-.1,.04-.2,.05-.3,.01-.12,.02-.24,.02-.37h0s-.01-.09-.01-.13Zm-2.16,1.63c-.09-.14-.16-.31-.21-.49-.03-.14-.07-.3-.07-.46-.01-.16,0-.32,.02-.47h0c.01-.08,.02-.14,.04-.22h0c.13-.61,.47-1.12,.91-1.31h0s.09-.03,.13-.04c.12-.03,.23-.04,.34-.02,.13,.02,.25,.08,.36,.16,.15,.12,.28,.3,.37,.5,.03,.09,.07,.18,.09,.27h0v.02h0c.01,.05,.02,.1,.03,.15h0c.02,.09,.02,.19,.03,.28,.01,.11,0,.21,0,.32h0c0,.07-.01,.14-.02,.21-.01,.08-.02,.14-.04,.21h0c-.11,.46-.34,.85-.63,1.09t-.02,.02c-.11,.09-.24,.15-.37,.19-.14,.04-.3,.04-.43,0t-.02-.01c-.09-.02-.18-.08-.25-.13-.11-.05-.19-.15-.26-.27t0,0h0Z"/>
  <path class="cls-5" d="M149.45,63.29s-.02,.01-.02,.01c-.02,.26-.09,.51-.18,.73h0s.02-.05,.02-.08h0s.01-.04,.02-.05c0-.01,.01-.03,.01-.04,.01-.02,.01-.04,.02-.07h0s.01-.05,.02-.08c.01-.02,.01-.04,.02-.08,.01-.02,.01-.04,.02-.07,.01-.04,.02-.09,.03-.14s.02-.1,.02-.14t0,0Zm0,0s-.02,.01-.02,.01c-.02,.26-.09,.51-.18,.73h0s.02-.05,.02-.08h0s.01-.04,.02-.05c0-.01,.01-.03,.01-.04,.01-.02,.01-.04,.02-.07h0s.01-.05,.02-.08c.01-.02,.01-.04,.02-.08,.01-.02,.01-.04,.02-.07,.01-.04,.02-.09,.03-.14s.02-.1,.02-.14t0,0Zm0,0s-.02,.01-.02,.01c-.02,.26-.09,.51-.18,.73h0s.02-.05,.02-.08h0s.01-.04,.02-.05c0-.01,.01-.03,.01-.04,.01-.02,.01-.04,.02-.07h0s.01-.05,.02-.08c.01-.02,.01-.04,.02-.08,.01-.02,.01-.04,.02-.07,.01-.04,.02-.09,.03-.14s.02-.1,.02-.14t0,0Zm0,0s-.02,.01-.02,.01c-.02,.26-.09,.51-.18,.73h0s.02-.05,.02-.08h0s.01-.04,.02-.05c0-.01,.01-.03,.01-.04,.01-.02,.01-.04,.02-.07h0s.01-.05,.02-.08c.01-.02,.01-.04,.02-.08,.01-.02,.01-.04,.02-.07,.01-.04,.02-.09,.03-.14s.02-.1,.02-.14t0,0Zm0,0s-.02,.01-.02,.01c-.02,.26-.09,.51-.18,.73h0s.02-.05,.02-.08h0s.01-.04,.02-.05c0-.01,.01-.03,.01-.04,.01-.02,.01-.04,.02-.07h0s.01-.05,.02-.08c.01-.02,.01-.04,.02-.08,.01-.02,.01-.04,.02-.07,.01-.04,.02-.09,.03-.14s.02-.1,.02-.14t0,0Zm0,0s-.02,.01-.02,.01c-.02,.26-.09,.51-.18,.73h0s.02-.05,.02-.08h0s.01-.04,.02-.05c0-.01,.01-.03,.01-.04,.01-.02,.01-.04,.02-.07h0s.01-.05,.02-.08c.01-.02,.01-.04,.02-.08,.01-.02,.01-.04,.02-.07,.01-.04,.02-.09,.03-.14s.02-.1,.02-.14t0,0Zm0,0s-.02,.01-.02,.01c-.02,.26-.09,.51-.18,.73h0s.02-.05,.02-.08h0s.01-.04,.02-.05c0-.01,.01-.03,.01-.04,.01-.02,.01-.04,.02-.07h0s.01-.05,.02-.08c.01-.02,.01-.04,.02-.08,.01-.02,.01-.04,.02-.07,.01-.04,.02-.09,.03-.14s.02-.1,.02-.14t0,0Zm0,0s-.02,.01-.02,.01c-.02,.26-.09,.51-.18,.73h0s.02-.05,.02-.08h0s.01-.04,.02-.05c0-.01,.01-.03,.01-.04,.01-.02,.01-.04,.02-.07h0s.01-.05,.02-.08c.01-.02,.01-.04,.02-.08,.01-.02,.01-.04,.02-.07,.01-.04,.02-.09,.03-.14s.02-.1,.02-.14t0,0Zm-.43-1.72c-.08-.05-.15-.1-.24-.12h0c-.07-.02-.13-.03-.21-.03-.05,0-.1,.01-.15,.02h0s-.02,.01-.04,.01c-.6,.18-1.08,1.12-1.06,2.1,.01,.6,.21,1.12,.54,1.36,.08,.07,.16,.11,.26,.13,.11,.03,.22,.03,.33,.01h0s.03-.01,.04-.01c.22-.07,.43-.23,.59-.46h0c.16-.23,.3-.53,.38-.84,.03-.14,.07-.31,.08-.46,.01-.08,.01-.14,.01-.22h0v-.12c-.01-.61-.21-1.13-.53-1.37Zm.23,2.46h0s-.01,.02-.01,.03c-.09,.22-.21,.42-.34,.56-.11,.12-.24,.22-.37,.27h0s-.01,0-.01,.01c-.02,.01-.03,.01-.05,.02-.02,0-.04,.01-.05,.01h0c-.18,.03-.34-.01-.48-.12-.28-.23-.47-.69-.49-1.25h0c-.02-.94,.42-1.84,.99-2,.03-.01,.07-.02,.11-.02,.08-.01,.14,0,.21,.01,.08,.02,.15,.05,.22,.11h.01c.14,.12,.25,.3,.33,.5,.09,.22,.13,.48,.14,.77v.13c0,.08-.01,.15-.01,.23-.02,.25-.09,.5-.18,.73h0Zm.2-.74s-.02,.01-.02,.01c-.02,.26-.09,.51-.18,.73h0s.02-.05,.02-.08h0s.01-.04,.02-.05c0-.01,.01-.03,.01-.04,.01-.02,.01-.04,.02-.07h0s.01-.05,.02-.08c.01-.02,.01-.04,.02-.08,.01-.02,.01-.04,.02-.07,.01-.04,.02-.09,.03-.14s.02-.1,.02-.14t0,0Zm0,0s-.02,.01-.02,.01c-.02,.26-.09,.51-.18,.73h0s.02-.05,.02-.08h0s.01-.04,.02-.05c0-.01,.01-.03,.01-.04,.01-.02,.01-.04,.02-.07h0s.01-.05,.02-.08c.01-.02,.01-.04,.02-.08,.01-.02,.01-.04,.02-.07,.01-.04,.02-.09,.03-.14s.02-.1,.02-.14t0,0Zm0,0s-.02,.01-.02,.01c-.02,.26-.09,.51-.18,.73h0s.02-.05,.02-.08h0s.01-.04,.02-.05c0-.01,.01-.03,.01-.04,.01-.02,.01-.04,.02-.07h0s.01-.05,.02-.08c.01-.02,.01-.04,.02-.08,.01-.02,.01-.04,.02-.07,.01-.04,.02-.09,.03-.14s.02-.1,.02-.14t0,0Zm0,0s-.02,.01-.02,.01c-.02,.26-.09,.51-.18,.73h0s.02-.05,.02-.08h0s.01-.04,.02-.05c0-.01,.01-.03,.01-.04,.01-.02,.01-.04,.02-.07h0s.01-.05,.02-.08c.01-.02,.01-.04,.02-.08,.01-.02,.01-.04,.02-.07,.01-.04,.02-.09,.03-.14s.02-.1,.02-.14t0,0Zm0,0s-.02,.01-.02,.01c-.02,.26-.09,.51-.18,.73h0s.02-.05,.02-.08h0s.01-.04,.02-.05c0-.01,.01-.03,.01-.04,.01-.02,.01-.04,.02-.07h0s.01-.05,.02-.08c.01-.02,.01-.04,.02-.08,.01-.02,.01-.04,.02-.07,.01-.04,.02-.09,.03-.14s.02-.1,.02-.14t0,0Zm0,0s-.02,.01-.02,.01c-.02,.26-.09,.51-.18,.73h0s.02-.05,.02-.08h0s.01-.04,.02-.05c0-.01,.01-.03,.01-.04,.01-.02,.01-.04,.02-.07h0s.01-.05,.02-.08c.01-.02,.01-.04,.02-.08,.01-.02,.01-.04,.02-.07,.01-.04,.02-.09,.03-.14s.02-.1,.02-.14t0,0Zm0,0s-.02,.01-.02,.01c-.02,.26-.09,.51-.18,.73h0s.02-.05,.02-.08h0s.01-.04,.02-.05c0-.01,.01-.03,.01-.04,.01-.02,.01-.04,.02-.07h0s.01-.05,.02-.08c.01-.02,.01-.04,.02-.08,.01-.02,.01-.04,.02-.07,.01-.04,.02-.09,.03-.14s.02-.1,.02-.14t0,0Z"/>
  <path class="cls-14" d="M149.36,63.3s-.05-.03-.07-.07c-.02-.05,0-.12,.05-.14,.02-.01,.42-.19,.93,.1,.05,.03,.07,.09,.04,.14s-.09,.08-.14,.04c-.43-.23-.74-.09-.74-.09-.03,.02-.05,.02-.08,.01Z"/>
  <path class="cls-14" d="M153.71,67.53s.02,0,.03-.01c.03-.02,.04-.05,.02-.09-.01-.03-.36-.71-1.13-1.13-.03-.02-.07,0-.09,.03-.02,.03,0,.08,.02,.09,.72,.41,1.07,1.07,1.07,1.07,.02,.01,.04,.02,.07,.03Z"/>
  <path class="cls-4" d="M149.07,65.45s-.01,0-.02-.01-.01-.03,0-.04c.49-.62,1.16-.24,1.17-.24,.01,.01,.02,.03,.01,.04-.01,.01-.03,.02-.04,.01-.02-.01-.62-.36-1.08,.22-.01,.01-.02,.02-.03,.02Z"/>
  <path class="cls-24" d="M259.2,111.03c6.49,1.25,4.69,7.33,7.61,11.43,.7,.99,1.6,1.66,2.52,2.46,2.57,2.21,4.2,4.31,4.79,7.74,.07,.38,.66,.22,.59-.16-.33-1.9-.82-3.51-1.96-5.11-2.31-3.26-5.81-4.47-6.9-8.73-1.07-4.2-1.72-7.3-6.49-8.21-.38-.09-.55,.5-.16,.58h0Z"/>
  <path class="cls-10" d="M253.66,108.52s-2.16-2.22-3.26-2.4-2.66,.48-1.99,.74,1.6,.35,1.6,.35c0,0-2.01-.09-1.84,.42,.18,.5,1.94,.56,1.94,.56,0,0-2.41,.1-2.09,.51,.32,.42,2.15,.33,2.15,.33,0,0-2.23,.19-1.86,.66,.38,.47,1.85-.16,2.03,.34s1.34,1.16,2.74,.92l.6-2.43Z"/>
  <path class="cls-17" d="M253.19,108.15c.12-.74,4.77-1.74,4.61-2.32-.31-1.06-6.55-3.53-6.55-3.53l-.31-6.94s2.88-.24,7.39,2.84c5.4,3.67,6.46,7.64,5.12,10.64-1.41,3.19-8.05,4.2-9.62,3.83-2.36-.55-.77-3.78-.65-4.52Z"/>
  <path class="cls-14" d="M255.52,112.66c-.74,0-1.71-.04-2.21-.27-.9-.39-.82-1.39-.82-1.4,0-.03,.03-.05,.07-.05h0s.05,.03,.05,.07-.07,.91,.76,1.27c.85,.37,3.15,.23,3.17,.23h0s.05,.02,.07,.05c0,.03-.02,.07-.05,.07-.04,.02-.47,.04-1.03,.04Z"/>
  <path class="cls-14" d="M253.19,108.22s-.04-.01-.05-.04,.01-.07,.03-.08,.08-.08,.13-.13c.25-.31,.85-1.03,2.58-1.19,.02-.01,.07,.02,.07,.05s-.02,.07-.05,.07c-1.67,.16-2.23,.83-2.51,1.15-.08,.1-.13,.15-.19,.18,0-.01,0,0-.01,0Z"/>
  <path class="cls-1" d="M84.55,58.35s1.32,.68,1.82-.51c.62-1.51-.1-4.14-.5-3.19-.36,.84-.58,2.19-.58,2.19,0,0,.5-3.45-.25-3.37-.76,.07-1.14,3.04-1.14,3.04,0,0,.18-3.43-.49-3.13-.67,.31-1.04,3-1.04,3,0,0,.35-3.33-.42-2.96s-.59,2.17-.69,2.92c-.09,.72,.34,1.05,1.04,1.16,0,0,.67,.51,1.14,.47,.18-.02,.33,.19,.45,.23,.22,.08,.67,.14,.67,.14Z"/>
  <path class="cls-10" d="M52.62,49.7c.58-.3,1.85-.59,2.43-.88,.25-.12,1.14-.47,1.28-.22,.13,.22-.44,.83-.74,1.09,2.26,.41,5.04,1.83,.47,1.26h0c.38,.09,3.25,.58,2.97,1.23-.21,.47-2.55-.01-3.19-.13v.02c.63,.19,2.59,.63,2.42,1.09-.23,.6-2.74-.07-2.74-.07,0,0,2.09,.5,1.6,1.05-.28,.31-1.51-.03-2.27-.25h0c-.16-.04-.3-.09-.41-.12-.09-.02-.16-.05-.23-.09-1.25-.46-1.98-.96-1.98-.96,0,0-.96-.44-.74-1.62,.13-.77,.88-1.28,1.13-1.41Z"/>
  <path class="cls-13" d="M53.28,49.19c-.24-.71-6.55-1.82-6.11-2.8,.46-1,4.64-3.94,4.64-3.94l1.6-8.23s-6.22,.47-9.51,4.92c-3.3,4.46-4.83,7.7-3.71,10.31,1.37,3.21,9.32,5.22,10.81,4.59,2.26-.97,2.53-4.13,2.29-4.84Z"/>
  <path class="cls-12" d="M49.61,54.16c-.49,0-.83-.08-.84-.08-.04-.01-.07-.04-.05-.09,.01-.04,.05-.07,.09-.05,.02,.01,2.27,.5,3.57-1.14,.02-.03,.07-.03,.1-.01,.03,.02,.03,.07,.01,.1-.85,1.07-2.07,1.27-2.87,1.27Z"/>
  <path class="cls-12" d="M53.34,49.5s-.02,0-.04-.01c-.03-.02-.04-.07-.02-.1,0,0,.02-.04,0-.12-.03-.09-.16-.26-.69-.45-.93-.34-4.31-1.46-4.35-1.47-.03-.01-.05-.05-.04-.09s.05-.05,.09-.04,3.42,1.13,4.36,1.47c.45,.16,.71,.35,.78,.55,.04,.13-.01,.22-.02,.23-.01,.02-.03,.03-.05,.03Z"/>
  <path class="cls-12" d="M47.85,45.65s-.04-.01-.05-.02c-.02-.03-.02-.08,.01-.1l1.76-1.5s.08-.02,.1,.01c.02,.03,.02,.08-.01,.1l-1.76,1.5s-.02,.01-.04,.01Z"/>
  <path class="cls-15" d="M205.79,91.33h0s-.04-.03-.04-.05c.1-.45,.67-.86,.69-.89,.02-.01,.04-.01,.05,.01,.01,.02,.01,.04-.01,.05-.01,0-.57,.42-.67,.83,.02,.03,0,.04-.02,.04Z"/>
  <path class="cls-15" d="M208.59,95.87c-.97,0-1.8-.91-1.83-.95-.01-.01-.01-.04,0-.05,.02-.01,.04-.01,.05,0s.95,1.06,1.98,.91c1.04-.15,2-.41,2.01-.41,.02,0,.04,.01,.05,.03,0,.02-.01,.04-.03,.05-.01,0-.97,.25-2.03,.41-.08,.01-.14,.01-.22,.01Z"/>
  <path class="cls-15" d="M212.02,86.34c-1.8-1.57-6.5-3.11-6.75-3.16l.02-.12c.26,.05,4.96,1.58,6.81,3.2l-.08,.09Z"/>
  <path class="cls-7" d="M129.8,43.91s-1.49-2.86-5.25-2.51c-3.77,.36-3.32,3.23-5.11,2.96-1.8-.27-4.3,0-4.84,1.8-.54,1.8-2.96,.81-3.04,2.33s2.78,2.59,6.1,1.26c3.32-1.35,4.93,1.04,9.59,.61,4.66-.44,5.23-.97,7.99-.7s2.69-1.62,1.43-2.88c-1.25-1.25-6.33-1.13-6.86-2.87Z"/>
  <path class="cls-7" d="M240.67,50.03s-2.61-5.01-9.21-4.39c-6.6,.62-5.81,5.66-8.96,5.19s-7.54,0-8.48,3.14c-.94,3.14-5.19,1.41-5.34,4.08s4.87,4.55,10.68,2.2,8.65,1.83,16.82,1.07,9.18-1.7,14.02-1.23c4.84,.47,4.72-2.84,2.52-5.04-2.2-2.2-11.11-1.99-12.05-5.04Z"/>
  <path class="cls-7" d="M170.05,25.59s-3.01-5.8-10.65-5.07c-7.63,.72-6.72,6.54-10.36,6-3.63-.55-8.73,0-9.81,3.63-1.09,3.63-6,1.63-6.17,4.73-.18,3.1,5.64,5.27,12.36,2.54,6.72-2.73,10,2.11,19.44,1.24,9.45-.88,10.62-1.97,16.21-1.42s5.46-3.28,2.91-5.82c-2.55-2.55-12.85-2.31-13.94-5.82Z"/>
  <path class="cls-12" d="M55.28,34.92s-1.35-.61-1.64-1.22c-.31-.6-1.88,.95-1.9,1.37-.05,1.17,2.65,2.5,2.86,2.22,.21-.28,1.08-1.97,.69-2.38Z"/>
</svg>