<?xml version="1.0" encoding="UTF-8"?>
<svg id="_Layer_" data-name="&amp;lt;Layer&amp;gt;" xmlns="http://www.w3.org/2000/svg" viewBox="0 0 279.98 190.97">
  <defs>
    <style>
      .cls-1 {
        fill: #f78978;
      }

      .cls-2 {
        fill: #e96f5f;
      }

      .cls-3 {
        fill: #ffa089;
      }

      .cls-4 {
        fill: #fff;
      }

      .cls-5 {
        fill: #ff8ebf;
      }

      .cls-6 {
        fill: #c33070;
      }

      .cls-7 {
        fill: #8dace2;
      }

      .cls-8 {
        fill: #bbcff8;
      }

      .cls-9 {
        fill: #dae6ff;
      }

      .cls-10 {
        fill: #192948;
      }
    </style>
  </defs>
  <g>
    <path class="cls-9" d="M180.04,184.64l15.64-31.21,.6-1.19,.33-.65,70.97,18.22c15.26-19.06,17.11-52.54,1.86-68.06-12.25-12.47,0-38.18-9.71-62.04C245.59,5.02,187.82-9.76,143.04,6.78,93.45,25.09,67.71,.28,39.02,15.78-10.85,42.73,20.18,89.21,8.35,113.26c-11.69,23.78-16.3,60.93,21.89,71.36,32.58,8.9,101.49,6.7,147.87,3.87l.74-1.48,1.19-2.36Z"/>
    <path class="cls-8" d="M180.45,47.32c1.51,1.79,8.67,4.77,9.19,4.33,.51-.43-1.21-7.99-2.72-9.78-1.51-1.79-4.17-2.01-5.96-.51s-2.01,4.17-.51,5.96Z"/>
    <path class="cls-8" d="M194.23,52.12c-.53,2.33,1.45,10.02,2.11,10.16,.66,.16,5.78-5.91,6.32-8.24,.53-2.33-.92-4.64-3.25-5.17-2.34-.54-4.65,.92-5.18,3.25Z"/>
    <path class="cls-8" d="M186.87,66.3c2.38-.01,9.43-3.67,9.43-4.35s-7.07-4.31-9.46-4.29-4.32,1.95-4.31,4.34c0,2.38,1.95,4.31,4.33,4.31Z"/>
    <path class="cls-8" d="M217.25,90.06c-1.3,3.79,.61,16.98,1.69,17.35s10.73-8.83,12.03-12.61c1.3-3.79-.71-7.92-4.5-9.23-3.78-1.3-7.91,.71-9.22,4.5Z"/>
    <path class="cls-8" d="M202.42,112.39c3.98,.42,16.4-4.42,16.53-5.55,.12-1.14-11.02-8.45-15-8.88-3.99-.42-7.56,2.47-7.98,6.45-.42,3.99,2.47,7.56,6.45,7.98Z"/>
    <path class="cls-8" d="M228.65,104.2c-2.59,4.17-3.85,20.43-2.65,21.17,1.19,.74,15.18-7.65,17.76-11.82s1.29-9.65-2.88-12.22c-4.18-2.59-9.66-1.3-12.23,2.87Z"/>
    <path class="cls-8" d="M207.28,133.55c4.9,.01,19.42-7.44,19.42-8.84s-14.47-8.92-19.38-8.93c-4.9-.01-8.89,3.96-8.9,8.86-.01,4.91,3.96,8.89,8.87,8.9Z"/>
    <path class="cls-8" d="M236.39,123.11c-2.59,4.17-3.85,20.43-2.65,21.17,1.19,.74,15.18-7.65,17.76-11.82s1.29-9.65-2.88-12.22c-4.17-2.59-9.65-1.3-12.23,2.87Z"/>
    <path class="cls-8" d="M215.02,152.46c4.9,.01,19.42-7.44,19.42-8.84s-14.47-8.92-19.38-8.93c-4.9-.01-8.89,3.96-8.9,8.86,0,4.91,3.97,8.89,8.87,8.9Z"/>
    <path class="cls-8" d="M252.14,146.47c-3.98,2.88-11.34,17.43-10.52,18.56,.82,1.14,16.94-1.29,20.92-4.16,3.98-2.88,4.87-8.42,2-12.4-2.88-3.98-8.42-4.88-12.4-2Z"/>
    <path class="cls-8" d="M222,171.21c4.87,.62,20.19-4.96,20.37-6.34s-13.24-10.65-18.11-11.28c-4.87-.62-9.31,2.81-9.94,7.68-.62,4.87,2.81,9.31,7.68,9.94Z"/>
    <path class="cls-8" d="M201.33,63.94c-.54,2.36,1.47,10.17,2.15,10.33s5.88-6.01,6.42-8.38c.54-2.36-.94-4.72-3.31-5.26-2.36-.54-4.72,.94-5.26,3.31Z"/>
    <path class="cls-8" d="M194.19,78.46c2.43-.01,9.58-3.72,9.58-4.42s-7.18-4.37-9.6-4.36c-2.43,.01-4.38,1.98-4.38,4.41,.01,2.43,1.98,4.38,4.41,4.37Z"/>
    <path class="cls-8" d="M209.28,74.82c-1.03,3.28,.9,14.58,1.83,14.87s9.02-7.83,10.06-11.11c1.03-3.28-.78-6.79-4.07-7.84-3.28-1.03-6.79,.79-7.83,4.07Z"/>
    <path class="cls-8" d="M197.58,95.58c3.45-.01,13.62-5.3,13.62-6.27s-10.2-6.22-13.65-6.21c-3.45,.01-6.23,2.81-6.23,6.26,.01,3.44,2.81,6.23,6.26,6.22Z"/>
  </g>
  <g>
    <path class="cls-7" d="M55.01,187.19s-.02,0-.04-.01c-.11-.03-.18-.15-.15-.26,7.53-29.16,14.62-49.83,19.96-58.18,.12-.18,.2-.31,.24-.38,.04-.1,.18-.15,.28-.1s.15,.17,.1,.28c-.04,.09-.12,.22-.26,.43-5.31,8.31-12.38,28.93-19.9,58.06-.04,.11-.13,.17-.22,.17Z"/>
    <path class="cls-7" d="M78.65,127.11c-.63,.93-3.94,2.74-4.2,2.56s.17-3.92,.81-4.86c.63-.93,1.91-1.18,2.84-.55,.93,.63,1.18,1.91,.55,2.84Z"/>
    <path class="cls-7" d="M72.25,130.14c.37,1.09-.18,4.9-.49,5.01-.31,.11-3.09-2.55-3.47-3.65-.38-1.09,.2-2.29,1.3-2.66,1.09-.38,2.28,.2,2.66,1.3Z"/>
    <path class="cls-7" d="M76.53,136.6c-1.15,.12-4.74-1.28-4.78-1.61s3.18-2.44,4.34-2.56c1.15-.12,2.18,.72,2.3,1.87,.12,1.16-.71,2.18-1.87,2.3Z"/>
    <path class="cls-7" d="M63.1,149.64c.83,1.77,.58,8.22,.08,8.45s-5.63-3.7-6.45-5.46c-.83-1.77-.07-3.86,1.69-4.69,1.77-.82,3.86-.07,4.69,1.7Z"/>
    <path class="cls-7" d="M71.41,159.65c-1.9,.4-8.14-1.28-8.26-1.82-.11-.54,4.88-4.65,6.78-5.06,1.9-.4,3.78,.8,4.18,2.7,.4,1.9-.8,3.77-2.7,4.18Z"/>
    <path class="cls-7" d="M58.33,157.05c1.46,1.88,2.91,9.66,2.37,10.07-.54,.42-7.71-2.9-9.17-4.79-1.46-1.88-1.12-4.59,.75-6.05,1.88-1.46,4.59-1.12,6.05,.76Z"/>
    <path class="cls-7" d="M70.16,170.1c-2.36,.26-9.75-2.59-9.83-3.26s6.52-5.05,8.88-5.31c2.36-.26,4.5,1.45,4.76,3.81,.26,2.37-1.45,4.5-3.81,4.76Z"/>
    <path class="cls-7" d="M55.58,166.57c1.46,1.88,2.91,9.66,2.37,10.07-.54,.42-7.71-2.9-9.17-4.79-1.46-1.88-1.12-4.59,.75-6.05,1.88-1.46,4.59-1.12,6.05,.76Z"/>
    <path class="cls-7" d="M67.41,179.62c-2.36,.26-9.75-2.59-9.83-3.26s6.52-5.05,8.88-5.31c2.36-.26,4.5,1.45,4.76,3.81,.26,2.37-1.45,4.5-3.81,4.76Z"/>
    <path class="cls-7" d="M49.18,178.65c2.07,1.18,6.37,7.83,6.04,8.41-.34,.58-8.24,.26-10.31-.92-2.07-1.18-2.79-3.81-1.61-5.88s3.82-2.79,5.88-1.61Z"/>
    <path class="cls-7" d="M65,189.03c-2.32,.55-9.99-1.35-10.15-2.01-.16-.66,5.84-5.82,8.15-6.37,2.32-.55,4.64,.88,5.19,3.19,.55,2.32-.88,4.63-3.19,5.19Z"/>
    <path class="cls-7" d="M69.43,136.2c.38,1.11-.18,4.98-.51,5.09-.31,.11-3.15-2.6-3.53-3.71s.21-2.33,1.33-2.71c1.11-.37,2.33,.21,2.71,1.33Z"/>
    <path class="cls-7" d="M73.62,142.85c-1.17,.12-4.81-1.3-4.85-1.64s3.24-2.48,4.41-2.6c1.17-.12,2.21,.73,2.34,1.9,.12,1.17-.73,2.21-1.9,2.34Z"/>
    <path class="cls-7" d="M66.16,141.87c.67,1.53,.31,7.08-.11,7.27-.44,.19-4.76-3.31-5.43-4.85-.67-1.53,.02-3.32,1.56-3.99,1.53-.66,3.31,.03,3.98,1.56Z"/>
    <path class="cls-7" d="M72.88,151.28c-1.66,.17-6.85-1.86-6.89-2.33-.04-.47,4.6-3.52,6.26-3.7,1.66-.17,3.15,1.03,3.33,2.7,.17,1.66-1.03,3.16-2.7,3.33Z"/>
  </g>
  <g>
    <path class="cls-8" d="M24.9,183.58h-.06c-.17-.02-.29-.17-.27-.34,5.37-43.9,11.73-75.35,17.89-88.53,.13-.29,.24-.51,.27-.61,.06-.16,.22-.25,.38-.2,.16,.06,.25,.22,.2,.38-.04,.13-.13,.35-.29,.67-6.14,13.13-12.48,44.5-17.84,88.35-.01,.15-.13,.26-.28,.27Z"/>
    <path class="cls-8" d="M47.79,91.58c-.74,1.48-5.21,4.76-5.63,4.54-.43-.21-.51-5.75,.25-7.23,.74-1.48,2.55-2.09,4.04-1.35,1.5,.74,2.09,2.55,1.35,4.04Z"/>
    <path class="cls-8" d="M39.06,97.21c.75,1.52,.67,7.17,.25,7.4-.44,.21-5-3.13-5.76-4.64s-.13-3.37,1.38-4.13c1.52-.76,3.36-.15,4.13,1.37Z"/>
    <path class="cls-8" d="M46.53,105.8c-1.65,.39-7.15-.96-7.26-1.43s4.17-4.16,5.82-4.56c1.65-.39,3.32,.63,3.71,2.28,.4,1.65-.62,3.32-2.27,3.71Z"/>
    <path class="cls-8" d="M29.49,127.36c1.54,2.41,2.43,11.86,1.74,12.3s-8.9-4.32-10.44-6.71c-1.54-2.41-.84-5.6,1.56-7.14,2.41-1.55,5.6-.85,7.14,1.55Z"/>
    <path class="cls-8" d="M43.49,140.33c-2.69,.96-12.1-.3-12.37-1.07s6.21-7.7,8.89-8.67c2.69-.96,5.64,.44,6.61,3.13,.96,2.69-.44,5.64-3.14,6.61Z"/>
    <path class="cls-8" d="M23.97,139.05c2.48,2.45,6.09,13.5,5.4,14.21-.7,.71-11.79-2.74-14.28-5.21-2.48-2.45-2.52-6.46-.06-8.95,2.45-2.48,6.45-2.51,8.94-.06Z"/>
    <path class="cls-8" d="M43.7,155.79c-3.4,.83-14.68-1.89-14.93-2.87-.24-.97,8.52-8.6,11.92-9.43s6.81,1.25,7.65,4.64c.83,3.41-1.24,6.82-4.63,7.66Z"/>
    <path class="cls-8" d="M21.78,153.44c2.48,2.45,6.09,13.5,5.4,14.21s-11.79-2.75-14.28-5.21c-2.48-2.45-2.52-6.46-.06-8.95,2.44-2.47,6.45-2.51,8.94-.06Z"/>
    <path class="cls-8" d="M41.5,170.18c-3.4,.83-14.69-1.89-14.93-2.87-.24-.97,8.52-8.6,11.92-9.43s6.81,1.25,7.65,4.64c.84,3.41-1.24,6.82-4.63,7.66Z"/>
    <path class="cls-8" d="M14.8,172.26c3.24,1.33,10.77,10.16,10.4,11.09-.38,.92-11.95,1.95-15.19,.63-3.24-1.33-4.79-5.01-3.46-8.25,1.32-3.24,5.01-4.79,8.25-3.46Z"/>
    <path class="cls-8" d="M39.82,184.34c-3.26,1.25-14.81-.04-15.17-.98-.36-.93,7.39-9.6,10.65-10.85s6.93,.38,8.17,3.65c1.25,3.27-.39,6.93-3.65,8.17Z"/>
    <path class="cls-8" d="M36.12,106.59c.78,1.55,.69,7.3,.25,7.51-.44,.22-5.08-3.17-5.85-4.72-.78-1.55-.15-3.43,1.41-4.19,1.55-.76,3.43-.13,4.19,1.41Z"/>
    <path class="cls-8" d="M43.51,115.46c-1.68,.4-7.26-.97-7.38-1.45s4.24-4.23,5.91-4.63c1.68-.4,3.37,.63,3.77,2.32,.42,1.68-.62,3.36-2.3,3.77Z"/>
    <path class="cls-8" d="M32.45,115.46c1.27,2.1,1.82,10.24,1.23,10.61-.6,.36-7.56-3.9-8.83-6-1.27-2.1-.6-4.83,1.51-6.1,2.09-1.27,4.82-.61,6.09,1.5Z"/>
    <path class="cls-8" d="M44.03,127.87c-2.38,.57-10.32-1.38-10.48-2.06-.17-.69,6.03-6.01,8.41-6.59,2.38-.57,4.79,.9,5.36,3.28,.57,2.39-.9,4.79-3.29,5.36Z"/>
  </g>
  <path class="cls-2" d="M106.42,152.93s3.91-7.63,3.46-10.55c-.44-2.9-2.82-11.16-2.2-14.24,.19-.96,2.21-8.3,4.05-9.3,1.24-.67,3.97,2.1,3.01,5.86-1.66,6.52,.31,10.37,1.39,13.14,1.83,4.72,2.54,7.54,2.6,5.25,0,0-.85-7.07-.52-10.15,.09-.83,1.93-7.22,3.7-7.8,.96-.31,3.95,1.27,2.77,7.14-.78,3.86,1.38,6.39,2.98,9.06,1.37,2.3,8.07,8.16,8.07,8.16l-9.06,6.9-20.25-3.47Z"/>
  <path class="cls-1" d="M100.59,140.47s-4.26-12.09-4.59-17.04c-.12-1.99,.07-8.56,1.7-9.69,2.69-1.88,5.77,2.83,5.49,8.86-.28,5.98,5.54,10.66,8.35,14.6,6.98,9.8,11.19,15.71,11.19,15.71l-22.14-12.43Z"/>
  <path class="cls-5" d="M114.12,97.3c-.9-.9,.9-1.07,.9-2.96v-1.68c0-5.41,1.23-9.89,3.67-13.46,2.45-3.56,6.42-7.06,11.92-10.5,3.09-1.8,5.34-3.26,6.76-4.37s2.43-2.27,3.02-3.47,.9-2.74,.9-4.63c0-3.18-1.18-5.62-3.54-7.34s-5.78-2.57-10.24-2.57c-7.04,0-13.36,1.84-18.93,5.54-1.03,.61-1.72,.9-2.06,.9-.78,0-3.54-1.23-4.06-2.17l-2.9-7.87c-.35-.6-.52-1.11-.52-1.55,0-.78,.47-1.46,1.42-2.06,7.98-5.41,17.9-8.12,29.75-8.12,9.61,0,17.38,2.21,23.31,6.63,5.93,4.42,8.89,10.58,8.89,18.48,0,5.15-1.2,9.4-3.61,12.75-2.41,3.35-6.27,6.52-11.59,9.53-4.2,2.41-7.08,4.63-8.62,6.7-1.55,2.06-2.32,4.68-2.32,7.86v1.42c0,1.89-.43,3.28-1.29,4.18-.85,.9-2.36,1.35-4.51,1.35h-9.66c-2.05-.01-5.78-1.7-6.68-2.6Zm0,20.43c-1.33-1.07,0-1.36,0-3.16v-2.71c0-1.89,.66-3.37,1.99-4.44,1.33-1.07,3.24-1.61,5.73-1.61h7.47c2.57,0,4.53,.54,5.86,1.61,1.33,1.07,2,2.55,2,4.44v2.71c0,1.89-.66,3.35-2,4.37-1.33,1.03-3.28,1.55-5.86,1.55h-7.47c-2.48,0-6.4-1.69-7.72-2.77Z"/>
  <g>
    <path class="cls-3" d="M205.18,158.15c-3.05-.84-5.91-1.64-8.4-2.37-1.38-.4-2.66-.79-3.79-1.14-1.82-.56-3.26-1.05-4.18-1.41-2.37-.93-6.09-1.84-9.15-3.65h0c-2.07-1.23-3.82-2.86-4.63-5.19-2.02-5.78-12.83-16.01-22.6-22.69-5.33-3.64-10.77-9.6-12.74-12.01-1.55-1.9-6.94-10.05-8.99-10.7-1.21-.38-4.14,2.97-4.51,4.88-.79,4.1,2.08,9.29,7.79,17.17,5.44,7.5,6.12,11.85,5.88,15.91-.16,2.64-.7,5.28-3.9,7.66-.38,.28-1.51,1.25-3.15,2.21-3.43,2.02-9.07,4.01-14.59-.4-.07-.06-.13-.1-.2-.16h0c-2.39-1.84-5.43-3-8.17-4.27-2.88-1.33-5.43-2.79-6.59-5.3-1.41-3.06-3.89-5.78-6.45-8.85h0c-1.86-2.21-3.77-4.62-5.34-7.47-3.83-6.94-8.26-6.5-9.79-3.6-.83,1.57,3.02,12.54,3.79,14.08,1.01,2.06,9.25,15.81,11.03,18,4.36,5.42,23.17,21.6,26.76,24.36,6.07,4.69,22.73,5.78,36.52,8.08,.92,.16,1.84,.33,2.77,.51h0c5.04,.99,9.99,2.34,14.83,4.06,1.53,.54,3.05,1.12,4.55,1.73,.67,.28,1.36,.56,2.02,.85,9.67-10.59,16.45-20.69,21.25-30.3Z"/>
    <polygon class="cls-7" points="180.62 190.32 162.42 181.76 179.62 149.57 197.38 154.5 180.62 190.32"/>
    <path class="cls-4" d="M184.3,155.43c.56,.53,1.46,.51,1.99-.06s.51-1.46-.06-1.99-1.46-.51-1.99,.06c-.54,.56-.51,1.46,.06,1.99Z"/>
  </g>
  <path class="cls-6" d="M113.47,96.79c-.9-.9-1.35-2.29-1.35-4.18v-1.68c0-5.41,1.23-9.89,3.67-13.46,2.45-3.56,6.42-7.06,11.92-10.5,3.09-1.8,5.34-3.26,6.76-4.37s2.43-2.27,3.02-3.47,.9-2.74,.9-4.63c0-3.18-1.18-5.62-3.54-7.34s-5.78-2.57-10.24-2.57c-7.04,0-13.36,1.84-18.93,5.54-1.03,.61-1.72,.9-2.06,.9-.78,0-1.42-.47-1.93-1.42l-5.03-8.62c-.35-.6-.52-1.11-.52-1.55,0-.78,.47-1.46,1.42-2.06,7.98-5.41,17.9-8.12,29.75-8.12,9.61,0,17.38,2.21,23.31,6.63,5.93,4.42,8.89,10.58,8.89,18.48,0,5.15-1.2,9.4-3.61,12.75-2.41,3.35-6.27,6.52-11.59,9.53-4.2,2.41-7.08,4.63-8.62,6.7-1.55,2.06-2.32,4.68-2.32,7.86v1.42c0,1.89-.43,3.28-1.29,4.18-.85,.9-2.36,1.35-4.51,1.35h-9.66c-2.05-.02-3.53-.47-4.43-1.37Zm-.26,20.35c-1.33-1.07-1.99-2.51-1.99-4.32v-2.71c0-1.89,.66-3.37,1.99-4.44,1.33-1.07,3.24-1.61,5.73-1.61h7.47c2.57,0,4.53,.54,5.86,1.61,1.33,1.07,2,2.55,2,4.44v2.71c0,1.89-.66,3.35-2,4.37-1.33,1.03-3.28,1.55-5.86,1.55h-7.47c-2.48,0-4.41-.54-5.73-1.61Z"/>
  <path class="cls-3" d="M173.86,142.03c-3.55-5.91-12.9-14.48-21.44-20.33-5.33-3.64-10.77-9.6-12.74-12.01-1.55-1.9-6.94-10.05-8.99-10.7-1.21-.38-4.14,2.97-4.51,4.88-.79,4.1,2.07,9.29,7.79,17.17,5.44,7.5,6.12,11.85,5.88,15.92-.01,.09-.01,.18-.02,.28l34.03,4.79Z"/>
  <path class="cls-4" d="M185.94,37.03l-18.36,6.23c-.92,.31-1.91-.18-2.23-1.1h0c-.31-.92,.18-1.91,1.1-2.23l18.36-6.23c.92-.31,1.91,.18,2.23,1.1h0c.3,.91-.19,1.91-1.1,2.23Z"/>
  <path class="cls-4" d="M166.93,22.71l-5.98,10.86c-.38,.7-1.25,.94-1.95,.56l-.56-.31c-.7-.38-.94-1.25-.56-1.95l5.98-10.86c.38-.7,1.25-.94,1.95-.56l.56,.31c.69,.38,.94,1.25,.56,1.95Z"/>
  <path class="cls-4" d="M149.26,18.45l-.58,8.32c-.04,.65-.61,1.14-1.26,1.09l-1.02-.07c-.65-.04-1.14-.61-1.09-1.26l.58-8.32c.04-.65,.61-1.14,1.26-1.09l1.02,.07c.64,.04,1.14,.61,1.09,1.26Z"/>
  <path class="cls-8" d="M242.1,165.24s.06-.01,.08-.02c.22-.08,.34-.33,.25-.55-21.84-58.13-40.9-98.92-53.66-114.85-.28-.35-.48-.61-.57-.74-.12-.2-.39-.27-.6-.15s-.27,.39-.15,.6c.11,.18,.3,.43,.63,.83,12.7,15.87,31.72,56.57,53.53,114.62,.09,.18,.29,.29,.49,.26Z"/>
  <path class="cls-10" d="M250.16,182.23c6.96-2.23,12.79-6.67,17.4-12.43l-70.97-18.22-.33,.65-.6,1.19-15.64,31.21-1.18,2.36-.74,1.48c27.08-1.65,46.49-3.52,46.49-3.52,7.76,.55,17.53-.15,25.56-2.72Z"/>
</svg>