<svg width="85" height="85" viewBox="0 0 85 85" fill="none" xmlns="http://www.w3.org/2000/svg">
<g filter="url(#filter0_di_836_1245)">
<path fill-rule="evenodd" clip-rule="evenodd" d="M37.5676 15.8451C38.6023 15.5323 39.6971 15.4722 40.7559 15.6526C41.8146 15.8451 42.8252 16.2662 43.6915 16.9159C44.5577 17.5536 45.2555 18.3958 45.7488 19.3583C46.2301 20.3208 46.4827 21.3795 46.4827 22.4623V56.1859C46.4827 57.2687 46.2301 58.3275 45.7488 59.29C45.2676 60.2525 44.5577 61.0947 43.6915 61.7323C42.8252 62.37 41.8266 62.8031 40.7559 62.9956C39.6971 63.1881 38.6023 63.1159 37.5676 62.8031L23.7316 58.6523C22.312 58.2192 21.0607 57.353 20.1704 56.1619C19.2801 54.9708 18.7988 53.515 18.7988 52.0351V26.6131C18.7988 25.1212 19.2801 23.6775 20.1704 22.4864C21.0607 21.2953 22.312 20.417 23.7316 19.9959L37.5676 15.8451ZM48.7807 20.8742C48.7807 20.2606 49.0213 19.6711 49.4545 19.238C49.8876 18.8048 50.4771 18.5642 51.0907 18.5642H58.0087C59.8495 18.5642 61.606 19.2981 62.9054 20.5855C64.2048 21.8848 64.9266 23.6414 64.9266 25.4822V27.7922C64.9266 28.4058 64.686 28.9953 64.2529 29.4284C63.8198 29.8616 63.2302 30.1022 62.6166 30.1022C62.003 30.1022 61.7624 29.9217 61.3293 29.4886C60.8962 29.0555 60.9202 28.5381 60.9202 27.9245L60.7879 25.422C60.7879 24.8084 60.6555 23.8941 60.2224 23.4609C59.7893 23.0278 58.7666 22.7391 58.153 22.7391L51.1749 22.6548C50.5613 22.6548 49.9357 22.6067 49.5026 22.1736C49.0574 21.7525 48.7807 21.4878 48.7807 20.8742ZM62.6166 48.5461C63.2302 48.5461 63.8198 48.7867 64.2529 49.2198C64.686 49.653 64.9266 50.2425 64.9266 50.8561V53.1661C64.9266 54.9948 64.1927 56.7634 62.9054 58.0628C61.606 59.3622 59.8495 60.0841 58.0087 60.0841H51.0907C50.4771 60.0841 49.8876 59.8434 49.4545 59.4103C49.0213 58.9772 48.7807 58.3876 48.7807 57.7741C48.7807 57.1605 48.9973 56.8837 49.4304 56.4506C49.8635 56.0175 50.4771 56.21 51.0787 56.21L57.9485 56.0416C58.5621 56.0416 59.6449 55.6445 60.078 55.2114C60.5112 54.7783 60.6676 53.8639 60.6676 53.2503L60.6916 51.0967C60.6916 50.4831 60.5473 49.653 60.9804 49.2198C61.4135 48.7987 62.003 48.5461 62.6166 48.5461ZM34.9448 37.0201C34.3312 37.0201 33.7416 37.2608 33.3085 37.6939C32.8754 38.127 32.6348 38.7165 32.6348 39.3301C32.6348 39.9437 32.8754 40.5333 33.3085 40.9664C33.7416 41.3995 34.3312 41.6401 34.9448 41.6401C35.5584 41.6401 36.1479 41.3995 36.581 40.9664C37.0141 40.5333 37.2548 39.9437 37.2548 39.3301C37.2548 38.7165 37.0141 38.127 36.581 37.6939C36.1479 37.2608 35.5584 37.0201 34.9448 37.0201Z" fill="#FCDDEC"/>
<path d="M55.6981 45.1411C55.3853 45.1411 55.0845 45.0208 54.8439 44.7922L50.2359 40.1843C50.1156 40.0639 50.0314 39.9316 49.9712 39.7872C49.9111 39.6429 49.875 39.4985 49.875 39.33C49.875 39.33 49.875 39.33 49.875 39.318C49.875 39.1616 49.9111 39.0052 49.9712 38.8608C50.0314 38.7164 50.1156 38.5841 50.2359 38.4638L54.8439 33.8558C55.3131 33.3866 56.0711 33.3866 56.5403 33.8558C57.0095 34.325 57.0095 35.083 56.5403 35.5522L53.9777 38.1149H62.6041C63.2658 38.1149 63.8072 38.6563 63.8072 39.318C63.8072 39.9797 63.2658 40.5211 62.6041 40.5211H53.9777L56.5403 43.0838C57.0095 43.553 57.0095 44.311 56.5403 44.7802C56.3117 45.0208 55.9989 45.1411 55.6981 45.1411Z" fill="#FCDDEC"/>
</g>
<defs>
<filter id="filter0_di_836_1245" x="0" y="0" width="85" height="85" filterUnits="userSpaceOnUse" color-interpolation-filters="sRGB">
<feFlood flood-opacity="0" result="BackgroundImageFix"/>
<feColorMatrix in="SourceAlpha" type="matrix" values="0 0 0 0 0 0 0 0 0 0 0 0 0 0 0 0 0 0 127 0" result="hardAlpha"/>
<feOffset dy="4"/>
<feGaussianBlur stdDeviation="2"/>
<feComposite in2="hardAlpha" operator="out"/>
<feColorMatrix type="matrix" values="0 0 0 0 0 0 0 0 0 0 0 0 0 0 0 0 0 0 0.25 0"/>
<feBlend mode="normal" in2="BackgroundImageFix" result="effect1_dropShadow_836_1245"/>
<feBlend mode="normal" in="SourceGraphic" in2="effect1_dropShadow_836_1245" result="shape"/>
<feColorMatrix in="SourceAlpha" type="matrix" values="0 0 0 0 0 0 0 0 0 0 0 0 0 0 0 0 0 0 127 0" result="hardAlpha"/>
<feOffset dy="4"/>
<feGaussianBlur stdDeviation="3"/>
<feComposite in2="hardAlpha" operator="arithmetic" k2="-1" k3="1"/>
<feColorMatrix type="matrix" values="0 0 0 0 0 0 0 0 0 0 0 0 0 0 0 0 0 0 0.05 0"/>
<feBlend mode="normal" in2="shape" result="effect2_innerShadow_836_1245"/>
</filter>
</defs>
</svg>
