<svg width="87" height="87" viewBox="0 0 87 87" fill="none" xmlns="http://www.w3.org/2000/svg">
<g filter="url(#filter0_i_1016_16812)">
<path fill-rule="evenodd" clip-rule="evenodd" d="M37.927 17.903C39.096 17.5496 40.333 17.4816 41.5293 17.6855C42.7255 17.903 43.8674 18.3788 44.8462 19.1129C45.8249 19.8333 46.6134 20.7849 47.1707 21.8724C47.7145 22.9599 47.9999 24.1561 47.9999 25.3796V63.4829C47.9999 64.7063 47.7145 65.9026 47.1707 66.9901C46.627 68.0776 45.8249 69.0291 44.8462 69.7496C43.8674 70.4701 42.7391 70.9594 41.5293 71.1769C40.333 71.3944 39.096 71.3129 37.927 70.9594L22.2941 66.2696C20.6901 65.7802 19.2763 64.8015 18.2704 63.4557C17.2645 62.1099 16.7207 60.4651 16.7207 58.793V30.0694C16.7207 28.3838 17.2645 26.7526 18.2704 25.4068C19.2763 24.061 20.6901 23.0686 22.2941 22.5929L37.927 17.903ZM50.5963 23.5852C50.5963 22.8919 50.8682 22.2258 51.3576 21.7365C51.847 21.2471 52.513 20.9752 53.2063 20.9752H61.0227C63.1026 20.9752 65.0873 21.8044 66.5554 23.259C68.0235 24.7271 68.8391 26.7118 68.8391 28.7916V31.4016C68.8391 32.0949 68.5673 32.761 68.0779 33.2504C67.5885 33.7397 66.9224 34.0116 66.2291 34.0116C65.5359 34.0116 65.264 33.8077 64.7746 33.3183C64.2852 32.829 64.3124 32.2444 64.3124 31.5511L64.1629 28.7236C64.1629 28.0304 64.0134 26.9972 63.524 26.5079C63.0346 26.0185 61.8791 25.6922 61.1859 25.6922L53.3015 25.5971C52.6082 25.5971 51.9013 25.5427 51.412 25.0533C50.909 24.5776 50.5963 24.2785 50.5963 23.5852ZM66.2291 54.8508C66.9224 54.8508 67.5885 55.1227 68.0779 55.6121C68.5673 56.1015 68.8391 56.7676 68.8391 57.4608V60.0708C68.8391 62.1371 68.0099 64.1354 66.5554 65.6035C65.0873 67.0716 63.1026 67.8872 61.0227 67.8872H53.2063C52.513 67.8872 51.847 67.6154 51.3576 67.126C50.8682 66.6366 50.5963 65.9705 50.5963 65.2772C50.5963 64.584 50.841 64.2713 51.3304 63.7819C51.8198 63.2926 52.513 63.5101 53.1927 63.5101L60.9548 63.3198C61.648 63.3198 62.8715 62.8712 63.3609 62.3818C63.8502 61.8924 64.0269 60.8593 64.0269 60.166L64.0541 57.7327C64.0541 57.0394 63.891 56.1015 64.3804 55.6121C64.8698 55.1363 65.5359 54.8508 66.2291 54.8508ZM34.9635 41.828C34.2702 41.828 33.6041 42.0999 33.1148 42.5893C32.6254 43.0786 32.3535 43.7447 32.3535 44.438C32.3535 45.1313 32.6254 45.7974 33.1148 46.2868C33.6041 46.7761 34.2702 47.048 34.9635 47.048C35.6568 47.048 36.3229 46.7761 36.8123 46.2868C37.3016 45.7974 37.5735 45.1313 37.5735 44.438C37.5735 43.7447 37.3016 43.0786 36.8123 42.5893C36.3229 42.0999 35.6568 41.828 34.9635 41.828Z" fill="white"/>
<path d="M58.4119 51.0038C58.0585 51.0038 57.7186 50.8678 57.4467 50.6096L52.2403 45.4032C52.1044 45.2672 52.0092 45.1177 51.9413 44.9546C51.8733 44.7914 51.8325 44.6283 51.8325 44.438C51.8325 44.438 51.8325 44.438 51.8325 44.4244C51.8325 44.2477 51.8733 44.071 51.9413 43.9078C52.0092 43.7447 52.1044 43.5952 52.2403 43.4592L57.4467 38.2528C57.9769 37.7227 58.8333 37.7227 59.3635 38.2528C59.8936 38.783 59.8936 39.6394 59.3635 40.1696L56.468 43.065H66.2147C66.9624 43.065 67.5741 43.6767 67.5741 44.4244C67.5741 45.1721 66.9624 45.7838 66.2147 45.7838H56.468L59.3635 48.6792C59.8936 49.2094 59.8936 50.0658 59.3635 50.596C59.1052 50.8678 58.7517 51.0038 58.4119 51.0038Z" fill="white"/>
</g>
<defs>
<filter id="filter0_i_1016_16812" x="0" y="0" width="87" height="91" filterUnits="userSpaceOnUse" color-interpolation-filters="sRGB">
<feFlood flood-opacity="0" result="BackgroundImageFix"/>
<feBlend mode="normal" in="SourceGraphic" in2="BackgroundImageFix" result="shape"/>
<feColorMatrix in="SourceAlpha" type="matrix" values="0 0 0 0 0 0 0 0 0 0 0 0 0 0 0 0 0 0 127 0" result="hardAlpha"/>
<feOffset dy="4"/>
<feGaussianBlur stdDeviation="2"/>
<feComposite in2="hardAlpha" operator="arithmetic" k2="-1" k3="1"/>
<feColorMatrix type="matrix" values="0 0 0 0 0 0 0 0 0 0 0 0 0 0 0 0 0 0 0.1 0"/>
<feBlend mode="normal" in2="shape" result="effect1_innerShadow_1016_16812"/>
</filter>
</defs>
</svg>
