<?xml version="1.0" encoding="UTF-8"?><svg id="Calque_1" xmlns="http://www.w3.org/2000/svg" viewBox="0 0 297.64 737.01"><defs><style>.cls-1{fill:#f9bb82;}.cls-2{fill:#6b2627;}.cls-3{fill:#f28e89;}.cls-4{fill:#f5a254;}.cls-5{fill:#fff;}.cls-6{fill:#cbd1df;}.cls-7{fill:#d21e7f;}.cls-8{fill:#17365a;}.cls-9{fill:#a29fcf;}.cls-10{fill:#4d6fa9;}</style></defs><g id="pancarte_1"><path class="cls-1" d="M127.01,270.47s7.95-12.66,19.62-16.96c8.11-2.99,12.4-2.4,13.07,0,.66,2.4-1.8,7.57-1.8,7.57l-30.89,9.4Z"/><path class="cls-2" d="M151.36,333.32c.35,.13,.73,.22,1.12,.25,2.39,.2,4.48-1.67,4.66-4.18l9.92-132.24c.19-2.5-1.6-4.69-3.98-4.89-2.39-.2-4.48,1.67-4.66,4.18l-9.92,132.24c-.16,2.09,1.06,3.97,2.86,4.64Z"/><g id="_Groupe_"><path class="cls-7" d="M259.24,18.26l-167.36-2.23c-3.84-.05-7.24,4.3-7.77,9.92l-17.95,190.63c-.55,5.8,2.15,10.86,6.07,11.38l165.51,21.88c4.02,.53,7.79-3.92,8.35-9.88l19.8-210.28c.58-6.14-2.47-11.37-6.65-11.42Z"/><g><path class="cls-5" d="M130.84,63.78c-2.96-.26-5.26-1.38-6.9-3.38-1.64-2-2.32-4.65-2.04-7.97l1.63-18.86c.34-3.96,1.39-6.93,3.14-8.9,1.75-1.97,4.4-2.8,7.95-2.49,1.94,.17,3.63,.67,5.08,1.51,1.45,.84,2.54,2.01,3.29,3.5,.75,1.49,1.02,3.31,.84,5.47l-.61,7.06-8.13-.7,.52-6.04c.11-1.22,.02-2.06-.25-2.51-.27-.45-.73-.71-1.38-.76-.76-.07-1.29,.17-1.6,.69s-.51,1.25-.58,2.16l-1.77,20.46c-.1,1.13,0,1.94,.29,2.44,.29,.49,.75,.77,1.37,.82,.7,.06,1.21-.18,1.55-.73,.34-.55,.54-1.28,.62-2.19l.64-7.36,8.22,.71-.67,7.73c-.31,3.59-1.44,6.12-3.39,7.58-1.95,1.46-4.55,2.05-7.81,1.77Z"/><path class="cls-5" d="M148.17,35.8l2.01-5.35-2.95-.25,.6-6.92,8.69,.75-.58,6.71-2.86,5.49-4.9-.42Z"/><path class="cls-5" d="M156.93,65.67l3.54-40.88,16.35,1.41-.68,7.9-8.04-.69-.69,7.97,7.71,.67-.66,7.69-7.71-.67-.81,9.36,8.57,.74-.69,7.97-16.89-1.46Z"/><path class="cls-5" d="M187.19,68.66c-3.73-.32-6.34-1.49-7.83-3.49-1.49-2-2.06-5.03-1.71-9.09l.35-4,8.08,.7-.44,5.11c-.08,.94,0,1.7,.24,2.25,.24,.56,.72,.87,1.43,.93,.74,.06,1.28-.11,1.6-.52,.32-.41,.53-1.11,.61-2.1,.11-1.25,.07-2.31-.1-3.18-.17-.87-.54-1.71-1.08-2.53-.55-.82-1.32-1.79-2.31-2.9l-3.37-3.8c-2.52-2.82-3.63-5.9-3.34-9.23,.3-3.48,1.34-6.07,3.12-7.76,1.78-1.69,4.2-2.4,7.26-2.13,3.75,.32,6.32,1.55,7.72,3.69,1.4,2.13,1.92,5.24,1.57,9.31l-8.31-.72,.24-2.81c.05-.56-.07-1-.36-1.34-.29-.34-.71-.53-1.25-.58-.65-.06-1.14,.08-1.48,.42-.33,.34-.52,.79-.57,1.37-.05,.57,.05,1.21,.3,1.9,.25,.69,.8,1.51,1.64,2.46l4.32,4.94c.87,.98,1.65,2,2.35,3.07,.7,1.07,1.24,2.28,1.6,3.65,.37,1.37,.47,3,.3,4.9-.33,3.84-1.3,6.79-2.91,8.84-1.6,2.05-4.17,2.93-7.68,2.62Z"/><path class="cls-5" d="M203.97,69.73l2.86-33.03-4.85-.42,.68-7.85,17.88,1.55-.68,7.85-4.85-.42-2.86,33.03-8.18-.71Z"/><path class="cls-5" d="M140.5,114.81c-3.73-.32-6.34-1.48-7.83-3.48-1.49-2-2.06-5.03-1.71-9.09l.35-4,8.08,.7-.44,5.11c-.08,.95,0,1.7,.24,2.26,.24,.56,.72,.87,1.43,.93,.74,.06,1.28-.11,1.6-.52,.32-.41,.53-1.11,.61-2.1,.11-1.25,.08-2.31-.1-3.18-.17-.87-.54-1.71-1.08-2.53-.55-.82-1.32-1.79-2.31-2.9l-3.37-3.8c-2.52-2.82-3.63-5.9-3.34-9.23,.3-3.48,1.34-6.07,3.12-7.76,1.78-1.69,4.2-2.4,7.26-2.13,3.75,.32,6.32,1.55,7.72,3.69,1.4,2.13,1.92,5.24,1.57,9.31l-8.31-.72,.24-2.81c.05-.56-.07-1-.36-1.34-.29-.34-.71-.53-1.25-.58-.65-.06-1.14,.08-1.48,.42s-.52,.79-.57,1.37c-.05,.57,.05,1.21,.3,1.9,.25,.69,.8,1.51,1.64,2.46l4.32,4.94c.87,.98,1.65,2,2.35,3.07,.7,1.07,1.24,2.28,1.6,3.65,.36,1.37,.47,3,.3,4.91-.33,3.84-1.3,6.79-2.91,8.84s-4.17,2.93-7.68,2.62Z"/><path class="cls-5" d="M160.32,116.52c-1.86-.16-3.25-.67-4.16-1.53-.92-.86-1.49-2-1.73-3.41-.24-1.42-.27-3.05-.11-4.91l2.24-25.94,8.36,.72-2.16,24.97c-.12,1.39-.1,2.38,.07,2.94,.17,.57,.66,.89,1.46,.96,.87,.08,1.45-.26,1.74-1.02,.29-.75,.49-1.74,.6-2.97l2.12-24.55,8.29,.72-3.01,34.84-8.32-.72,.32-3.72c-.64,1.29-1.36,2.25-2.16,2.88-.8,.63-1.98,.88-3.56,.74Zm-3.6-37.92l6.41-8.88,9.48,.82,4.79,9.84-8.34-.72-1.42-6.79-2.57,6.45-8.34-.72Z"/><path class="cls-5" d="M178.51,117.72l3.54-40.88,12.54,1.08c2.09,.18,3.63,.79,4.61,1.84,.99,1.04,1.59,2.44,1.8,4.18s.22,3.77,.02,6.07c-.19,2.23-.63,3.99-1.31,5.27-.68,1.28-1.82,2.11-3.43,2.49,1.26,.38,2.11,1.09,2.54,2.15,.43,1.06,.58,2.39,.44,4l-1.34,15.47-8.06-.7,1.38-16c.1-1.19-.08-1.95-.54-2.28-.46-.33-1.24-.54-2.32-.63l-1.61,18.65-8.27-.71Zm10.54-25.02l1.97,.17c1.13,.1,1.8-1.08,2.01-3.55,.14-1.59,.1-2.65-.1-3.17-.21-.52-.65-.8-1.33-.86l-1.9-.16-.65,7.57Z"/><path class="cls-5" d="M128.52,157.77l2.86-33.03-4.85-.42,.68-7.85,17.88,1.55-.68,7.85-4.85-.42-2.86,33.03-8.18-.71Z"/><path class="cls-5" d="M148.09,130.35l2.01-5.35-2.95-.26,.6-6.92,8.69,.75-.58,6.71-2.86,5.48-4.9-.42Z"/><path class="cls-5" d="M156.85,160.22l3.54-40.88,16.35,1.41-.68,7.9-8.04-.7-.69,7.97,7.71,.67-.66,7.69-7.71-.67-.81,9.36,8.57,.74-.69,7.97-16.89-1.46Z"/><path class="cls-5" d="M187.11,163.21c-3.73-.32-6.34-1.48-7.83-3.48-1.49-2-2.06-5.03-1.71-9.09l.35-4,8.08,.7-.44,5.11c-.08,.95,0,1.7,.24,2.26,.24,.56,.72,.87,1.43,.93,.74,.06,1.28-.11,1.6-.52,.32-.41,.53-1.11,.61-2.1,.11-1.25,.08-2.31-.1-3.18-.17-.87-.54-1.71-1.08-2.53-.55-.82-1.32-1.79-2.31-2.9l-3.37-3.8c-2.52-2.82-3.63-5.9-3.34-9.23,.3-3.48,1.34-6.07,3.12-7.76,1.78-1.69,4.2-2.4,7.26-2.13,3.75,.32,6.32,1.55,7.72,3.69s1.92,5.24,1.57,9.31l-8.32-.72,.24-2.81c.05-.56-.07-1-.36-1.34-.29-.34-.71-.53-1.25-.58-.65-.06-1.14,.08-1.48,.42-.33,.34-.52,.79-.57,1.37-.05,.57,.05,1.21,.3,1.9,.25,.69,.8,1.51,1.64,2.46l4.32,4.94c.87,.98,1.65,2,2.36,3.07,.7,1.07,1.24,2.28,1.6,3.65,.37,1.37,.47,3,.3,4.91-.33,3.84-1.3,6.79-2.91,8.84-1.6,2.05-4.17,2.93-7.68,2.62Z"/><path class="cls-5" d="M133.91,202.98c-3.41-.29-5.83-1.47-7.28-3.52-1.45-2.05-2.01-4.93-1.69-8.65l2.59-29.94,7.94,.69-2.56,29.61c-.06,.68-.08,1.34-.05,1.97,.02,.63,.16,1.16,.4,1.59s.68,.67,1.3,.72c.63,.05,1.11-.1,1.42-.47,.31-.37,.53-.87,.66-1.5s.22-1.28,.28-1.96l2.56-29.61,7.94,.69-2.59,29.94c-.32,3.72-1.37,6.46-3.15,8.23-1.78,1.77-4.37,2.51-7.77,2.22Z"/><path class="cls-5" d="M148.02,203.83l3.54-40.88,8.41,.73,2.07,19.91,1.69-19.58,7.9,.68-3.53,40.88-7.99-.69-2.32-20.79-1.77,20.44-7.99-.69Z"/><path class="cls-5" d="M172.71,205.97l3.53-40.88,16.35,1.41-.68,7.9-8.04-.69-.69,7.97,7.71,.67-.66,7.69-7.71-.67-.81,9.36,8.57,.74-.69,7.97-16.89-1.46Z"/><path class="cls-5" d="M111.34,227.28l1.53-17.74-2.61-.23,.36-4.22,9.6,.83-.36,4.22-2.61-.23-1.53,17.74-4.39-.38Z"/><path class="cls-5" d="M119.18,227.96l4.02-21.77,7.45,.64,.18,22.13-4.15-.36v-3.57l-2.65-.23-.58,3.52-4.27-.37Zm5.46-6.63l2,.17v-11.25l-.19-.02-1.8,11.09Z"/><path class="cls-5" d="M132.71,229.13l1.9-21.95,5.8,.5c1.21,.11,2.15,.46,2.82,1.06s1.11,1.42,1.33,2.44c.22,1.03,.27,2.23,.15,3.61-.12,1.33-.34,2.48-.69,3.44-.34,.96-.87,1.69-1.58,2.17-.71,.48-1.67,.67-2.88,.57l-1.78-.15-.75,8.69-4.32-.37Zm5.41-12.26l.25,.02c.81,.07,1.33-.12,1.56-.56,.22-.44,.37-1.11,.45-2,.07-.83,.04-1.48-.1-1.95-.14-.47-.54-.73-1.21-.79l-.49-.04-.46,5.31Z"/><path class="cls-5" d="M145.31,230.22l1.9-21.95,8.78,.76-.37,4.24-4.32-.37-.37,4.28,4.14,.36-.36,4.13-4.14-.36-.43,5.03,4.6,.4-.37,4.28-9.07-.79Z"/><path class="cls-5" d="M158.24,231.34l1.53-17.74-2.61-.23,.36-4.22,9.6,.83-.36,4.22-2.61-.22-1.53,17.74-4.39-.38Z"/><path class="cls-5" d="M168.88,232.26l1.53-17.74-2.61-.23,.36-4.22,9.6,.83-.36,4.22-2.61-.22-1.53,17.74-4.39-.38Z"/><path class="cls-5" d="M177.64,233.02l1.9-21.95,8.78,.76-.37,4.24-4.32-.37-.37,4.28,4.14,.36-.36,4.13-4.14-.36-.43,5.03,4.6,.4-.37,4.28-9.07-.78Z"/><path class="cls-5" d="M194.93,234.5l.32-3.72,4.47,.39-.32,3.72-4.47-.39Zm1.39-5.89l.51-16.05,4.47,.39-2.25,15.9-2.72-.23Z"/></g><path class="cls-1" d="M55.39,488.41c4.01-36.37,30.02-128.28,41.03-155.38,6.31-15.52,13.25-30.76,20.8-45.66,5.97-11.77,10.42-21.99,23.88-25.51,13.83-3.62,17.92-3.07,21.97-2.32,4.34,.8,8.51,4.88,5.55,11.37,0,0,7.46,1.11,3.72,9.55,0,0,7.96,3.44,1.56,11.35,0,0,3.75,3.29,.11,8.53-2.97,4.28-7.76,5.91-18.6,8.88-7.04,1.93-10.95,4.44-14.16,6.99-3.22,2.56-5.37,6.33-6.1,10.5l-28.12,160.01-51.62,1.69Z"/><g><path class="cls-3" d="M152.87,264.54c-.1,.13-.08,.33,.04,.43,1,.84,1.57,2.25,1.44,3.58-.01,.15,.07,.28,.2,.32,.02,0,.04,.01,.06,.01,.16,.02,.3-.11,.32-.28,.14-1.54-.51-3.16-1.66-4.12-.13-.11-.31-.09-.41,.05Z"/><path class="cls-3" d="M162.55,272.59c.03,.1,.1,.18,.2,.21,.05,.02,.11,.02,.16,0l6.2-1.79s-.05-.01-.07-.02c-.1-.03-.19-.05-.25-.06h-.06c-.06-.02-.11-.03-.11-.03,.07-.15,.12-.29,.18-.43l-6.04,1.74c-.16,.05-.25,.21-.2,.38Z"/><path class="cls-3" d="M169.32,293.05c.02,.11,.1,.2,.2,.23,.05,.02,.1,.02,.15,0l4.6-1.07-.02-.02c-.1-.12-.19-.21-.25-.28l-.03-.03s-.09-.09-.09-.09c.04-.05,.08-.11,.12-.16l-4.47,1.04c-.16,.04-.26,.2-.22,.37Z"/><path class="cls-3" d="M165.79,282.93c.03,.09,.1,.16,.19,.19,.06,.02,.13,.02,.19,0l6.42-2.53h-.02c-.07-.04-.12-.07-.16-.09h-.02l-.05-.03c.08-.18,.13-.34,.2-.51l-6.57,2.59c-.15,.06-.23,.24-.17,.4Z"/><path class="cls-3" d="M156.84,280.83c-.07,.15,0,.34,.14,.41,.01,0,.02,.01,.04,.01,.14,.05,.29-.02,.35-.16,.62-1.41,.37-3.21-.6-4.38-.11-.13-.29-.14-.41-.03-.12,.11-.13,.31-.03,.43,.83,.99,1.04,2.52,.51,3.72Z"/><path class="cls-3" d="M160.17,301.11s.03,.01,.04,.02c.14,.04,.29-.02,.35-.16,.47-1.03,.66-2.22,.51-3.36-.02-.17-.17-.29-.33-.26-.16,.02-.27,.18-.25,.35,.13,1.02-.03,2.08-.46,3.01-.07,.15,0,.34,.14,.41Z"/><path class="cls-3" d="M159.14,291.68h0c.15,.05,.32-.04,.36-.2,.46-1.51,.11-3.24-.9-4.42-.11-.13-.29-.14-.41-.03-.12,.11-.13,.31-.02,.43,.87,1.02,1.17,2.52,.78,3.83-.05,.16,.04,.33,.19,.39Z"/></g><path class="cls-3" d="M127.78,316.44c-.15-.05-.31,.03-.36,.18s.03,.32,.18,.38c2.67,.96,5.48,1.43,8.28,1.43,1.09,0,2.18-.08,3.26-.22,.21-.24,.43-.46,.65-.69-4,.65-8.15,.3-12.01-1.08Z"/></g><g><path class="cls-4" d="M90.22,335.48l5.02-17.96s27.29,1.11,41.49,23.22l-5.47,27.15-41.04-32.41Z"/><path class="cls-10" d="M13.38,695.99s60.26-337.26,71.37-361.18c0,0,25.59,1.95,48.97,26.59,0,0-22.41,256.43-30.55,364.92l-89.79-30.33Z"/><path class="cls-8" d="M126.76,345.55c.06,1.35,.52,2.71,1.38,3.44,1.18,1,2.9,.46,3.73-1.04,.97-1.77,.81-5.34-.77-6.45-2.24-1.57-4.47,.94-4.34,4.05Z"/><path class="cls-9" d="M73.55,377.36c8.62-1.38,16.56-9.11,19.18-19.26-1.05,4.93-1.88,10.03-.91,14.95,1.12,5.67,5.5,10.84,10.21,9.85,2.91-.61,5.26-3.39,6.59-6.6,.89-2.15,1.38-4.5,1.75-6.88-.91,9.09,.88,18.72,5.9,25.46,3.61,4.84,9.01,7.72,14.31,7.8,3.62-26.87,6.15-44.31,6.15-44.31-24.18-21.82-50.64-23.55-50.64-23.55-2.7,4.98-7.22,20.99-12.54,42.55Z"/><g><path class="cls-6" d="M111.36,556.36c-7.27-2.55-13.82-8.6-18.02-16.92-.19-.39-.55-.58-.89-.47-.34,.1-.6,.48-.65,.94-.61,5.76-4.76,10.62-9.66,11.29-4.3,.61-9.05-1.75-13-6.43-3.43-4.06-5.95-9.2-8.69-15.66-.17-.4-.5-.63-.85-.56-.35,.06-.62,.4-.71,.85-1.77,9.87-9.4,17.36-17.01,16.67-.14,.75-.28,1.48-.42,2.2,.08,0,.16,.03,.25,.04,7.75,.71,15.52-6.22,18.23-15.84,2.21,5.03,4.74,10.05,8.06,13.98,4.31,5.1,9.52,7.64,14.3,6.99,4.94-.68,9.23-5.11,10.71-10.73,4.47,7.82,10.98,13.47,18.14,15.91,.07-.75,.13-1.5,.2-2.26Z"/><path class="cls-6" d="M68.82,430.91c8.3,1.22,16.93-3.77,22.14-12.4-.05,4.19,.88,8.31,2.68,11.43,2.74,4.76,7.53,7.1,11.65,5.69,2.6-.89,4.79-3.31,6.06-6.33,1.14,7.4,4.05,14.36,8.24,19.44,.83,1.01,1.73,1.92,2.66,2.78,.09-.83,.19-1.65,.29-2.47-.62-.62-1.23-1.27-1.81-1.97-4.85-5.88-7.86-14.46-8.2-23.17,.01-.49,0-.98-.03-1.46-.04-.6-.36-1.08-.89-1.01-.45,.03-.8,.53-.8,1.13,0,.46,.01,.92,.03,1.37-.16,4.27-2.66,8.38-5.97,9.52-3.47,1.19-7.54-.81-9.88-4.88-2.19-3.81-2.91-9.32-1.87-14.39,.11-.55-.1-1.12-.49-1.34-.39-.21-.85,0-1.06,.49-4.41,10.34-13.68,16.65-22.56,15.34-1.34-.2-2.65-.58-3.94-1.11-.15,.72-.3,1.44-.44,2.17,1.37,.55,2.77,.97,4.2,1.17Z"/><path class="cls-6" d="M52.31,506.08c.08,0,.15,0,.23,0,8.15-.12,16.07-6.44,20.18-15.78,.64,5.57,2,10.41,4.08,14.42,2.98,5.74,7.53,9.57,12.17,10.25,4.43,.64,8.9-1.74,11.55-5.96,1.41,8.72,5.94,16.55,11.98,20.44,.42,.27,.87,.48,1.3,.71,.08-.77,.15-1.54,.23-2.31-.26-.15-.54-.26-.79-.43-6.18-3.98-10.65-12.42-11.38-21.5-.04-.49-.32-.89-.68-.98-.37-.1-.73,.14-.91,.57-1.99,4.91-6.58,7.88-11.12,7.22-4.16-.6-8.26-4.08-10.96-9.29-2.36-4.57-3.74-10.33-4.1-17.13-.03-.52-.32-.95-.71-1.03-.39-.1-.77,.2-.92,.68-3.27,10.4-11.47,17.75-19.95,17.87-.85,.01-1.7-.07-2.54-.2-.14,.73-.28,1.47-.42,2.2,.91,.15,1.83,.25,2.76,.25Z"/><path class="cls-6" d="M114.36,470.13c-.33-.11-.68,.04-.88,.4-4.21,7.27-12.37,9.82-18.57,5.8-6.2-4.01-9.73-14.13-8.03-23.02,.1-.51-.08-1.04-.43-1.28-.35-.24-.78-.13-1.03,.27-6.66,10.46-17.76,15.1-27.72,11.89-.14,.72-.29,1.45-.43,2.17,9.67,3.13,20.37-.71,27.54-9.9-.44,8.85,3.32,17.98,9.37,21.89,6.36,4.11,14.56,2.03,19.48-4.65,.81,4.74,2.43,9.2,4.67,13.03,.12-1.09,.24-2.17,.35-3.25-1.88-3.73-3.18-7.97-3.68-12.43-.05-.45-.29-.81-.62-.92Z"/></g></g></g></svg>