<?xml version="1.0" encoding="UTF-8"?><svg id="Calque_1" xmlns="http://www.w3.org/2000/svg" viewBox="0 0 297.64 737.01"><defs><style>.cls-1{fill:#f9bb82;}.cls-2{fill:#6b2627;}.cls-3{fill:#f28e89;}.cls-4{fill:#f5a254;}.cls-5{fill:#fff;}.cls-6{fill:#cbd1df;}.cls-7{fill:#17365a;}.cls-8{fill:#1d1a38;}.cls-9{fill:#a29fcf;}.cls-10{fill:#4d6fa9;}</style></defs><g id="pancarte_1"><path class="cls-1" d="M132.96,271.31s7.95-12.66,19.62-16.96c8.11-2.99,12.4-2.4,13.07,0,.66,2.4-1.8,7.57-1.8,7.57l-30.89,9.4Z"/><path class="cls-2" d="M157.3,334.17c.35,.13,.73,.22,1.12,.25,2.39,.2,4.48-1.67,4.66-4.18l9.92-132.24c.19-2.5-1.6-4.69-3.98-4.89-2.39-.2-4.48,1.67-4.66,4.18l-9.92,132.24c-.16,2.09,1.06,3.97,2.86,4.64Z"/><g id="_Groupe_"><path class="cls-8" d="M265.19,19.11l-167.36-2.23c-3.84-.05-7.24,4.3-7.77,9.92l-17.95,190.63c-.55,5.8,2.15,10.86,6.07,11.38l165.51,21.88c4.02,.53,7.79-3.92,8.35-9.88l19.8-210.28c.58-6.14-2.47-11.37-6.65-11.42Z"/><path class="cls-1" d="M61.34,489.25c4.01-36.37,30.02-128.28,41.03-155.38,6.31-15.52,13.25-30.76,20.8-45.66,5.97-11.77,10.42-21.99,23.88-25.51,13.83-3.62,17.92-3.07,21.97-2.32,4.34,.8,8.51,4.88,5.55,11.37,0,0,7.46,1.11,3.72,9.55,0,0,7.96,3.44,1.56,11.35,0,0,3.75,3.29,.11,8.53-2.97,4.28-7.76,5.91-18.6,8.88-7.04,1.93-10.95,4.44-14.16,6.99-3.22,2.56-5.37,6.33-6.1,10.5l-28.12,160.01-51.62,1.69Z"/><g><path class="cls-3" d="M158.82,265.38c-.1,.13-.08,.33,.04,.43,1,.84,1.57,2.25,1.44,3.58-.01,.15,.07,.28,.2,.32,.02,0,.04,.01,.06,.01,.16,.02,.3-.11,.32-.28,.14-1.54-.51-3.16-1.66-4.12-.13-.11-.31-.09-.41,.05Z"/><path class="cls-3" d="M168.5,273.43c.03,.1,.1,.18,.2,.21,.05,.02,.11,.02,.16,0l6.2-1.79s-.05-.01-.07-.02c-.1-.03-.19-.05-.25-.06h-.06c-.06-.02-.11-.03-.11-.03,.07-.15,.12-.29,.18-.43l-6.04,1.74c-.16,.05-.25,.21-.2,.38Z"/><path class="cls-3" d="M175.27,293.9c.02,.11,.1,.2,.2,.23,.05,.02,.1,.02,.15,0l4.6-1.07-.02-.02c-.1-.12-.19-.21-.25-.28l-.03-.03s-.09-.09-.09-.09c.04-.05,.08-.11,.12-.16l-4.47,1.04c-.16,.04-.26,.2-.22,.37Z"/><path class="cls-3" d="M171.74,283.77c.03,.09,.1,.16,.19,.19,.06,.02,.13,.02,.19,0l6.42-2.53h-.02c-.07-.04-.12-.07-.16-.09h-.02l-.05-.03c.08-.18,.13-.34,.2-.51l-6.57,2.59c-.15,.06-.23,.24-.17,.4Z"/><path class="cls-3" d="M162.79,281.67c-.07,.15,0,.34,.14,.41,.01,0,.02,.01,.04,.01,.14,.05,.29-.02,.35-.16,.62-1.41,.37-3.21-.6-4.38-.11-.13-.29-.14-.41-.03-.12,.11-.13,.31-.03,.43,.83,.99,1.04,2.52,.51,3.72Z"/><path class="cls-3" d="M166.12,301.96s.03,.01,.04,.02c.14,.04,.29-.02,.35-.16,.47-1.03,.66-2.22,.51-3.36-.02-.17-.17-.29-.33-.26-.16,.02-.27,.18-.25,.35,.13,1.02-.03,2.08-.46,3.01-.07,.15,0,.34,.14,.41Z"/><path class="cls-3" d="M165.09,292.52h0c.15,.05,.32-.04,.36-.2,.46-1.51,.11-3.24-.9-4.42-.11-.13-.29-.14-.41-.03-.12,.11-.13,.31-.02,.43,.87,1.02,1.17,2.52,.78,3.83-.05,.16,.04,.33,.19,.39Z"/></g><path class="cls-3" d="M133.73,317.29c-.15-.05-.31,.03-.36,.18s.03,.32,.18,.38c2.67,.96,5.48,1.43,8.28,1.43,1.09,0,2.18-.08,3.26-.22,.21-.24,.43-.46,.65-.69-4,.65-8.15,.3-12.01-1.08Z"/></g><g><path class="cls-4" d="M96.17,336.33l5.02-17.96s27.29,1.11,41.49,23.22l-5.47,27.15-41.04-32.41Z"/><path class="cls-10" d="M19.33,696.83s60.26-337.26,71.37-361.18c0,0,25.59,1.95,48.97,26.59,0,0-22.41,256.43-30.55,364.92l-89.79-30.33Z"/><path class="cls-7" d="M132.71,346.4c.06,1.35,.52,2.71,1.38,3.44,1.18,1,2.9,.46,3.73-1.04,.97-1.77,.81-5.34-.77-6.45-2.24-1.57-4.47,.94-4.34,4.05Z"/><path class="cls-9" d="M79.5,378.2c8.62-1.38,16.56-9.11,19.18-19.26-1.05,4.93-1.88,10.03-.91,14.95,1.12,5.67,5.5,10.84,10.21,9.85,2.91-.61,5.26-3.39,6.59-6.6,.89-2.15,1.38-4.5,1.75-6.88-.91,9.09,.88,18.72,5.9,25.46,3.61,4.84,9.01,7.72,14.31,7.8,3.62-26.87,6.15-44.31,6.15-44.31-24.18-21.82-50.64-23.55-50.64-23.55-2.7,4.98-7.22,20.99-12.54,42.55Z"/><g><path class="cls-6" d="M117.3,557.21c-7.27-2.55-13.82-8.6-18.02-16.92-.19-.39-.55-.58-.89-.47-.34,.1-.6,.48-.65,.94-.61,5.76-4.76,10.62-9.66,11.29-4.3,.61-9.05-1.75-13-6.43-3.43-4.06-5.95-9.2-8.69-15.66-.17-.4-.5-.63-.85-.56-.35,.06-.62,.4-.71,.85-1.77,9.87-9.4,17.36-17.01,16.67-.14,.75-.28,1.48-.42,2.2,.08,0,.16,.03,.25,.04,7.75,.71,15.52-6.22,18.23-15.84,2.21,5.03,4.74,10.05,8.06,13.98,4.31,5.1,9.52,7.64,14.3,6.99,4.94-.68,9.23-5.11,10.71-10.73,4.47,7.82,10.98,13.47,18.14,15.91,.07-.75,.13-1.5,.2-2.26Z"/><path class="cls-6" d="M74.77,431.76c8.3,1.22,16.93-3.77,22.14-12.4-.05,4.19,.88,8.31,2.68,11.43,2.74,4.76,7.53,7.1,11.65,5.69,2.6-.89,4.79-3.31,6.06-6.33,1.14,7.4,4.05,14.36,8.24,19.44,.83,1.01,1.73,1.92,2.66,2.78,.09-.83,.19-1.65,.29-2.47-.62-.62-1.23-1.27-1.81-1.97-4.85-5.88-7.86-14.46-8.2-23.17,.01-.49,0-.98-.03-1.46-.04-.6-.36-1.08-.89-1.01-.45,.03-.8,.53-.8,1.13,0,.46,.01,.92,.03,1.37-.16,4.27-2.66,8.38-5.97,9.52-3.47,1.19-7.54-.81-9.88-4.88-2.19-3.81-2.91-9.32-1.87-14.39,.11-.55-.1-1.12-.49-1.34-.39-.21-.85,0-1.06,.49-4.41,10.34-13.68,16.65-22.56,15.34-1.34-.2-2.65-.58-3.94-1.11-.15,.72-.3,1.44-.44,2.17,1.37,.55,2.77,.97,4.2,1.17Z"/><path class="cls-6" d="M58.26,506.92c.08,0,.15,0,.23,0,8.15-.12,16.07-6.44,20.18-15.78,.64,5.57,2,10.41,4.08,14.42,2.98,5.74,7.53,9.57,12.17,10.25,4.43,.64,8.9-1.74,11.55-5.96,1.41,8.72,5.94,16.55,11.98,20.44,.42,.27,.87,.48,1.3,.71,.08-.77,.15-1.54,.23-2.31-.26-.15-.54-.26-.79-.43-6.18-3.98-10.65-12.42-11.38-21.5-.04-.49-.32-.89-.68-.98-.37-.1-.73,.14-.91,.57-1.99,4.91-6.58,7.88-11.12,7.22-4.16-.6-8.26-4.08-10.96-9.29-2.36-4.57-3.74-10.33-4.1-17.13-.03-.52-.32-.95-.71-1.03-.39-.1-.77,.2-.92,.68-3.27,10.4-11.47,17.75-19.95,17.87-.85,.01-1.7-.07-2.54-.2-.14,.73-.28,1.47-.42,2.2,.91,.15,1.83,.25,2.76,.25Z"/><path class="cls-6" d="M120.31,470.98c-.33-.11-.68,.04-.88,.4-4.21,7.27-12.37,9.82-18.57,5.8-6.2-4.01-9.73-14.13-8.03-23.02,.1-.51-.08-1.04-.43-1.28-.35-.24-.78-.13-1.03,.27-6.66,10.46-17.76,15.1-27.72,11.89-.14,.72-.29,1.45-.43,2.17,9.67,3.13,20.37-.71,27.54-9.9-.44,8.85,3.32,17.98,9.37,21.89,6.36,4.11,14.56,2.03,19.48-4.65,.81,4.74,2.43,9.2,4.67,13.03,.12-1.09,.24-2.17,.35-3.25-1.88-3.73-3.18-7.97-3.68-12.43-.05-.45-.29-.81-.62-.92Z"/></g></g><g id="hover_1"><g><path class="cls-5" d="M109.21,75.36l5.45-46.08,18.43,2.18-1.05,8.9-9.06-1.07-1.06,8.98,8.69,1.03-1.03,8.67-8.69-1.03-1.25,10.55,9.66,1.14-1.06,8.98-19.04-2.25Z"/><path class="cls-5" d="M143.3,79.82c-4.21-.5-7.12-1.9-8.73-4.22s-2.15-5.76-1.61-10.33l.53-4.5,9.11,1.08-.68,5.76c-.13,1.07-.06,1.92,.19,2.56,.25,.64,.78,1.01,1.58,1.1,.84,.1,1.45-.08,1.83-.53,.38-.45,.64-1.23,.77-2.35,.17-1.41,.17-2.61,0-3.6-.17-.98-.54-1.95-1.13-2.9-.59-.95-1.42-2.07-2.51-3.36l-3.67-4.42c-2.74-3.28-3.9-6.8-3.45-10.55,.46-3.93,1.73-6.81,3.8-8.66,2.07-1.84,4.83-2.56,8.29-2.15,4.22,.5,7.09,1.98,8.59,4.44,1.51,2.46,1.99,5.99,1.44,10.58l-9.37-1.11,.37-3.17c.07-.63-.05-1.14-.36-1.53-.32-.39-.78-.62-1.39-.7-.73-.09-1.29,.06-1.68,.43-.39,.37-.62,.88-.7,1.52-.08,.65,.02,1.37,.28,2.16,.26,.79,.85,1.74,1.76,2.84l4.71,5.74c.94,1.14,1.8,2.32,2.55,3.55,.76,1.23,1.32,2.62,1.68,4.18,.36,1.56,.42,3.41,.17,5.55-.51,4.33-1.71,7.63-3.6,9.89-1.89,2.26-4.81,3.16-8.78,2.69Z"/><path class="cls-5" d="M162.23,81.63l4.4-37.23-5.47-.65,1.05-8.85,20.16,2.38-1.05,8.85-5.47-.65-4.4,37.23-9.22-1.09Z"/><path class="cls-5" d="M181.72,70.42l.72-6.08,13.51,1.6-.72,6.07-13.51-1.6Z"/><path class="cls-5" d="M209.1,87.6c-3.33-.39-5.9-1.75-7.68-4.07-1.79-2.32-2.46-5.34-2.02-9.08l2.51-21.26c.53-4.47,1.82-7.79,3.87-9.95,2.05-2.16,5.08-3.01,9.08-2.54,2.18,.26,4.08,.89,5.68,1.89,1.61,1,2.8,2.36,3.59,4.08,.79,1.71,1.04,3.78,.75,6.21l-.94,7.96-9.16-1.08,.81-6.81c.16-1.38,.1-2.33-.19-2.85-.29-.52-.8-.83-1.54-.91-.86-.1-1.47,.14-1.84,.73-.37,.58-.62,1.39-.74,2.42l-2.73,23.07c-.15,1.27-.07,2.19,.24,2.76,.31,.57,.82,.89,1.52,.98,.79,.09,1.38-.16,1.78-.77s.66-1.43,.78-2.46l.98-8.3,9.27,1.1-1.03,8.72c-.48,4.05-1.85,6.87-4.11,8.45-2.26,1.58-5.22,2.16-8.89,1.72Z"/><path class="cls-5" d="M224.97,89.05l5.45-46.08,18.43,2.18-1.05,8.9-9.06-1.07-1.06,8.98,8.69,1.03-1.03,8.67-8.69-1.03-1.25,10.55,9.66,1.14-1.06,8.98-19.04-2.25Z"/><path class="cls-5" d="M109.18,187.13l12.01-101.56,27.93,3.3c7.31,.86,12.57,3.54,15.78,8.04,3.21,4.5,4.36,10.65,3.43,18.46l-5.62,47.55c-1.14,9.62-3.7,16.84-7.68,21.67-3.98,4.83-10.19,6.75-18.61,5.76l-27.24-3.22Zm22.55-15.53l3.52,.42c3.73,.44,5.81-1.15,6.24-4.76l6.2-52.39c.4-3.38,.21-5.62-.58-6.71-.79-1.09-2.57-1.79-5.34-2.12l-2.25-.27-7.79,65.84Z"/><path class="cls-5" d="M193.31,198.02c-8.46-1-14.41-4.11-17.85-9.34-3.44-5.22-4.61-12.45-3.52-21.69l8.8-74.38,19.73,2.33-8.7,73.57c-.2,1.69-.3,3.33-.29,4.91,0,1.58,.3,2.91,.87,3.99,.57,1.08,1.63,1.71,3.17,1.9,1.58,.19,2.77-.17,3.58-1.07,.81-.9,1.39-2.13,1.75-3.68,.36-1.56,.64-3.18,.84-4.87l8.7-73.57,19.73,2.33-8.8,74.38c-1.09,9.23-3.92,15.99-8.48,20.27-4.56,4.28-11.08,5.92-19.54,4.91Z"/><path class="cls-5" d="M98.38,220.09l2.02-17.07,3.39,.4-.72,6.1,1.61,.19,.72-6.1,3.39,.4-2.02,17.07-3.39-.4,.92-7.74-1.61-.19-.92,7.74-3.39-.4Z"/><path class="cls-5" d="M108.24,221.26l3.67-16.87,5.79,.68-.4,17.26-3.23-.38,.08-2.78-2.06-.24-.54,2.73-3.32-.39Zm4.42-5.03l1.55,.18,.28-8.77-.15-.02-1.68,8.6Z"/><path class="cls-5" d="M118.76,222.5l2.02-17.07,5.24,.62c.87,.1,1.51,.38,1.91,.83,.4,.45,.63,1.04,.7,1.77s.04,1.58-.07,2.54c-.11,.93-.32,1.66-.62,2.19-.3,.53-.79,.86-1.47,1,.52,.17,.87,.48,1.04,.93,.17,.45,.21,1.01,.13,1.68l-.76,6.46-3.37-.4,.79-6.68c.06-.5,0-.82-.2-.96-.19-.14-.51-.24-.96-.3l-.92,7.79-3.45-.41Zm4.74-10.33l.82,.1c.47,.06,.77-.43,.89-1.46,.08-.67,.08-1.11,0-1.33-.08-.22-.26-.35-.55-.38l-.79-.09-.37,3.16Z"/><path class="cls-5" d="M132.6,224.29c-1.23-.15-2.18-.65-2.85-1.51-.66-.86-.91-1.98-.75-3.36l.93-7.88c.2-1.66,.67-2.88,1.43-3.69s1.88-1.11,3.36-.94c.81,.1,1.51,.33,2.11,.7,.59,.37,1.04,.88,1.33,1.51,.29,.63,.39,1.4,.28,2.3l-.35,2.95-3.39-.4,.3-2.52c.06-.51,.04-.86-.07-1.06-.11-.19-.3-.31-.57-.34-.32-.04-.54,.05-.68,.27-.14,.22-.23,.51-.27,.9l-1.01,8.54c-.06,.47-.03,.81,.09,1.02,.12,.21,.3,.33,.56,.36,.29,.04,.51-.06,.66-.29,.15-.22,.24-.53,.29-.91l.36-3.07,3.43,.41-.38,3.23c-.18,1.5-.68,2.54-1.52,3.13-.84,.59-1.93,.8-3.29,.64Z"/><path class="cls-5" d="M138.48,224.83l2.02-17.07,6.83,.81-.39,3.3-3.36-.4-.39,3.33,3.22,.38-.38,3.21-3.22-.38-.46,3.91,3.58,.42-.39,3.33-7.05-.83Zm7.93-16.89l-4.5-1.46,.4-3.37,4.36,2.66-.26,2.16Z"/><path class="cls-5" d="M147.07,225.85l2.02-17.07,3.41,.4-1.67,14.16,3.51,.42-.34,2.91-6.92-.82Z"/><path class="cls-5" d="M155.38,226.83l2.02-17.07,6.83,.81-.39,3.3-3.36-.4-.39,3.33,3.22,.38-.38,3.21-3.22-.38-.46,3.91,3.58,.42-.39,3.33-7.05-.83Z"/><path class="cls-5" d="M163.98,227.85l2.02-17.07,5.2,.62,.2,10.58,2.66-10.24,5.25,.62-2.02,17.07-3.12-.37,1.45-12.3-3.41,12.07-3.06-.36-.62-12.54-1.45,12.3-3.08-.36Z"/><path class="cls-5" d="M179.21,229.65l2.02-17.07,6.83,.81-.39,3.3-3.36-.4-.39,3.33,3.22,.38-.38,3.21-3.22-.38-.46,3.91,3.58,.42-.39,3.33-7.05-.83Z"/><path class="cls-5" d="M187.8,230.67l2.02-17.07,3.51,.42,.6,8.36,.97-8.18,3.3,.39-2.02,17.07-3.34-.39-.7-8.74-1.01,8.53-3.34-.39Z"/><path class="cls-5" d="M199.58,232.06l1.63-13.79-2.03-.24,.39-3.28,7.47,.88-.39,3.28-2.03-.24-1.63,13.79-3.41-.4Z"/><path class="cls-5" d="M211.83,233.5l.34-2.89,3.47,.41-.34,2.89-3.47-.41Zm.63-4.39l.48-4.03c.81,.1,1.51,.14,2.1,.12s1.08-.14,1.49-.37c.4-.23,.73-.61,.97-1.13,.24-.53,.42-1.25,.53-2.18,.05-.42,.04-.8-.03-1.12-.07-.33-.3-.52-.69-.56-.28-.03-.49,.03-.64,.19-.15,.16-.26,.38-.33,.65s-.12,.55-.15,.85l-.17,1.42-3.55-.42,.29-2.46c.15-1.31,.68-2.22,1.59-2.76,.91-.53,2.01-.72,3.33-.57,1.15,.14,2.03,.45,2.65,.94s1.01,1.15,1.2,1.98,.21,1.81,.08,2.95c-.13,1.12-.43,2.1-.9,2.93-.47,.84-1.11,1.46-1.91,1.88-.8,.42-1.77,.56-2.9,.42l-.19,1.65-3.23-.38Z"/></g></g></g></svg>