<?xml version="1.0" encoding="UTF-8"?><svg id="Calque_1" xmlns="http://www.w3.org/2000/svg" viewBox="0 0 275 677.5"><defs><style>.cls-1{fill:#f9b981;}.cls-2,.cls-3{fill:#fff;}.cls-4{fill:#be4520;}.cls-5{fill:#be3271;}.cls-6{fill:#1d1a38;}.cls-3{font-family:Anton-Regular, Anton;font-size:32.82px;isolation:isolate;}</style></defs><g id="pancarte_6"><g><path class="cls-1" d="M185.3,359.5l13-111.5c.3-2.7,.6-5.4,1.1-8.1,1.6-10.2-.5-13.8-2.2-22.3-1.8-9.1,1.5-20.5,1.5-20.5l18.4-2.3,1.4-21.9s5.7,2.2,7.4,2.8,4.9,11.2,8.2,16.7,4.6,7.3,1.5,15.2c-2.4,6.1-9.4,24.6-12.4,32.4-.9,2.4-1.3,4.9-1.1,7.4,1.1,20.6,6,110.7,6,112.2l-42.8-.1h0Z"/><path class="cls-4" d="M224.2,189.1c.1,0,.3-.1,.3-.2s-.1-.3-.2-.3c-3.4-.5-6.6-2-9-4.3-.1-.1-.3-.1-.4,0-.1,.1-.1,.3,0,.4,2.5,2.3,5.8,3.9,9.3,4.4h0Z"/><path class="cls-4" d="M223.3,201c.1,0,.2-.1,.2-.1,.1-.1,0-.3-.1-.4-4.1-2.6-7.2-6.4-8.9-10.9-.1-.1-.2-.2-.4-.2-.1,.1-.2,.2-.2,.4,1.7,4.6,4.9,8.6,9.1,11.2h.3Z"/></g><g><path class="cls-1" d="M93.9,359.5l-11.6-111.4c-.3-2.7-.6-5.4-.9-8.1-1.4-10.2,.4-13.8,1.9-22.3,1.6-9.1-1.4-20.5-1.4-20.5l-16.4-2.3-1.2-21.9s-5.1,2.2-6.5,2.8-4.3,11.2-7.3,16.7-4.1,7.3-1.3,15.2c2.2,6.1,8.4,24.6,11,32.4,.8,2.4,1.1,4.9,1,7.4-1,20.6-5.4,110.7-5.4,112.2l38.1-.2h0Z"/><path class="cls-4" d="M56,189.1c-.1,0-.3-.1-.3-.2s.1-.3,.2-.3c3.4-.5,6.6-2,9-4.3,.1-.1,.3-.1,.4,0s.1,.3,0,.4c-2.4,2.3-5.8,3.9-9.3,4.4,.1,0,0,0,0,0h0Z"/><path class="cls-4" d="M56.9,201c-.1,0-.2-.1-.2-.1-.1-.1,0-.3,.1-.4,4.1-2.6,7.2-6.4,8.9-10.9,.1-.1,.2-.2,.4-.2,.1,.1,.2,.2,.2,.4-1.7,4.6-4.9,8.6-9.1,11.2h-.3Z"/></g><g id="EST-CE_DU_HARCÈLEMENT___hover_6"><path class="cls-6" d="M23,36.8l9.4,151.6c.2,3.6,3,6.4,6.3,6.4H244.8c3.4,0,6.2-2.9,6.3-6.6l5.4-151.6c.1-3.9-2.7-7.1-6.3-7.1H29.2c-3.5,0-6.4,3.3-6.2,7.3h0Z"/><text class="cls-3" transform="translate(40.64 95.61)"><tspan x="0" y="0">EST-CE DU </tspan></text><text class="cls-3" transform="translate(40.64 134.99)"><tspan x="0" y="0">HARCÈLEMENT ?</tspan></text></g><g><path class="cls-5" d="M87.2,236.5c-1.5-.9-3.5-.6-5,.4-1.2,.8-2.1,2-2.9,3.2,.6-1.3,.1-3-1.1-3.9-1.4-1-3.6-.8-4.9,.4-.8,.7-1.3,1.7-1.5,2.7-.4-1.7-1.8-3.1-3.5-3.4-1.9-.3-3.8,1.1-4.5,2.9-.2-1.6-1.6-3.2-3.3-3.1-1.7,.1-3,1.9-2.9,3.6-.4-.8-1.1-1.4-1.9-1.6-1.2-.4-2.7,0-3.6,.9-1.4,1.5-1.2,3.8-.8,5.8,.8,4.1,2,8.1,3.7,11.9,1.1,2.5,2.3,7.2,5.6,7.1,3.7,0,7.7-2,11.4-2.4,1.1-.1,12.6,.2,12.5,.5,2.3-6,3.8-12.3,4.5-18.7,.3-2.1,.2-5-1.8-6.3h0Z"/><path class="cls-5" d="M52.3,647.5l1.4-387.2s8.7-12.2,34.8-5.7l20.2,366c0-.1-56.4,26.9-56.4,26.9Z"/></g><g><path class="cls-5" d="M193,237.1c1.5-1.6,3.5-.9,5,.8,1.2,1.4,2.1,3.3,2.9,5.4-.6-2.1-.1-5,1.1-6.4,1.4-1.7,3.6-1.3,4.9,.7,.8,1.2,1.3,2.8,1.5,4.5,.4-2.8,1.8-5.2,3.5-5.6,1.9-.4,3.8,1.8,4.5,4.8,.2-2.7,1.6-5.2,3.3-5.1,1.7,.2,3,3.2,2.9,6,.4-1.3,1.1-2.3,1.9-2.7,1.2-.7,2.7-.1,3.6,1.6,1.4,2.5,1.2,6.4,.8,9.7-.8,6.8-2.1,13.4-3.7,19.8-1.1,4.2-2.3,11.9-5.6,11.9-3.7,0-7.6-3.4-11.4-4-1.1-.2-12.6,.4-12.5,.8-2.3-10-3.8-20.5-4.5-31.1-.3-4.2-.2-9,1.8-11.1h0Z"/><path class="cls-5" d="M170,647.5l63.7-13.5-7.7-362.9s-9.3-11.8-37.4-5.5"/></g><g><path class="cls-1" d="M83.3,197.1s-1.7-25.1-6.5-26.9c-4.8-1.7-5.9,4.5-5.7,10.6s.7,14.1-1.3,21.9c-2,7.9,14,11.9,13.5-5.6Z"/><g><path class="cls-4" d="M76.7,184.8c-.7,0-1.4-.2-2-.7q-.1-.1,0-.2t.2,0c.9,.7,2.3,.8,3.3,.2,.1,0,.2,0,.2,.1s0,.1-.1,.2c-.5,.3-1.1,.4-1.6,.4h0Z"/><path class="cls-4" d="M77.4,188c-.8,0-1.7-.3-2.3-.8q-.1-.1,0-.2t.2,0c.7,.6,1.7,.9,2.7,.7,.1,0,.2,0,.2,.1s0,.1-.1,.2h-.7Z"/></g><path class="cls-2" d="M72.4,176.1c-.3-1.7-.1-3.4,.1-5.1,.1-1,.3-2.1,1.2-2.7,1-.7,2.4-.2,3.2,.6,.8,.9,1.1,2,1.4,3.2,.3,1.1,.6,2.2,.7,3.4,.1,1.1-.2,2.4-.8,3.3-2.3,3.1-5.2,0-5.8-2.7h0Z"/></g><g><path class="cls-1" d="M196.9,197.1s1.7-25.1,6.5-26.9c4.8-1.7,5.9,4.5,5.7,10.6s-.7,14.1,1.3,21.9c2,7.9-13.9,11.9-13.5-5.6Z"/><g><path class="cls-4" d="M203.6,184.8c.7,0,1.4-.2,2-.7q.1-.1,0-.2t-.2,0c-.9,.7-2.3,.8-3.3,.2q-.1,0-.2,.1,0,.1,.1,.2c.4,.3,1,.4,1.6,.4h0Z"/><path class="cls-4" d="M202.8,188c.8,0,1.7-.3,2.4-.8q.1-.1,0-.2t-.2,0c-.7,.6-1.7,.9-2.7,.7q-.1,0-.2,.1,0,.1,.1,.2h.6Z"/></g><path class="cls-2" d="M207.8,176.1c.3-1.7,.1-3.4-.1-5.1-.1-1-.3-2.1-1.2-2.7-1-.7-2.4-.2-3.2,.6s-1.1,2-1.4,3.2c-.3,1.1-.6,2.2-.7,3.4-.1,1.1,.2,2.4,.8,3.3,2.4,3.1,5.2,0,5.8-2.7h0Z"/></g></g></svg>