<?xml version="1.0" encoding="UTF-8"?><svg id="Calque_1" xmlns="http://www.w3.org/2000/svg" viewBox="0 0 286.3 844.7"><defs><style>.cls-1{fill:#6b2627;}.cls-2{fill:#fff;}.cls-3{fill:#f18982;}.cls-4{fill:#b93b32;}.cls-5{fill:#e0dbc4;}.cls-6{fill:#c9584f;}.cls-7{fill:#1d1a38;}.cls-8{fill:#4d6fa9;}.cls-9{isolation:isolate;}</style></defs><g id="Calque_1-2"><g id="pancarte_7"><path class="cls-1" d="M203.2,396.7c-2.2,.1-4.3-2-4.7-5.1l-29-193.4c-.5-3.4,1.1-6.6,3.6-7.2,2.5-.6,5,1.6,5.5,5l29,193.4c.5,3.4-1.1,6.6-3.6,7.2-.3,0-.6,.1-.8,.1h0Z"/><g id="pencarte_7"><path class="cls-7" d="M61.1,91.5l48.8,177.9c2.5,9.2,11.1,15,19.6,13.1l124.5-26.8c8.8-1.9,14.3-11.1,12.4-20.8L230.6,54.2c-2-9.9-11-16.5-20-14.5l-137.5,29.6c-9.2,2-14.7,12.1-12,22.2Z"/><g class="cls-9"><path class="cls-2" d="M100.03,131.59l-10.02-38.32,15.33-4.01,1.94,7.4-7.53,1.97,1.95,7.47,7.23-1.89,1.89,7.21-7.23,1.89,2.3,8.77,8.03-2.1,1.95,7.47-15.83,4.14Z"/><path class="cls-2" d="M127.57,124.75c-3.5,.92-6.25,.7-8.25-.63-2-1.34-3.5-3.91-4.49-7.71l-.98-3.74,7.58-1.98,1.25,4.79c.23,.89,.55,1.54,.95,1.98,.4,.43,.93,.56,1.6,.38,.7-.18,1.13-.51,1.29-.99,.16-.48,.12-1.18-.12-2.11-.31-1.18-.68-2.13-1.12-2.86-.44-.73-1.04-1.38-1.8-1.95-.76-.57-1.78-1.2-3.04-1.89l-4.29-2.36c-3.2-1.75-5.21-4.19-6.03-7.31-.85-3.26-.75-5.95,.32-8.06,1.07-2.11,3.04-3.54,5.91-4.29,3.51-.92,6.25-.63,8.21,.85,1.96,1.49,3.44,4.14,4.44,7.96l-7.79,2.04-.69-2.63c-.14-.52-.39-.89-.77-1.1-.37-.21-.81-.25-1.32-.12-.61,.16-1.01,.45-1.21,.86-.19,.42-.22,.89-.08,1.43,.14,.54,.44,1.08,.89,1.63,.45,.55,1.22,1.12,2.28,1.71l5.53,3.09c1.11,.61,2.15,1.29,3.14,2.03,.98,.74,1.86,1.68,2.64,2.8,.77,1.12,1.4,2.58,1.86,4.36,.94,3.6,1.02,6.59,.22,8.98-.79,2.39-2.84,4.01-6.13,4.87Z"/><path class="cls-2" d="M142.24,120.54l-8.1-30.96-4.55,1.19-1.93-7.36,16.76-4.39,1.92,7.36-4.55,1.19,8.1,30.96-7.66,2Z"/><path class="cls-2" d="M153.3,105.81l-1.32-5.05,11.23-2.94,1.32,5.05-11.23,2.94Z"/><path class="cls-2" d="M179.47,111.17c-2.77,.73-5.23,.44-7.37-.84-2.14-1.28-3.62-3.48-4.43-6.59l-4.62-17.68c-.97-3.71-.98-6.75-.02-9.11,.96-2.36,3.1-3.97,6.42-4.84,1.81-.47,3.52-.56,5.11-.27,1.59,.3,2.96,1,4.12,2.12,1.16,1.11,2,2.68,2.53,4.7l1.73,6.62-7.62,1.99-1.48-5.66c-.3-1.15-.65-1.88-1.04-2.2-.4-.32-.9-.41-1.51-.25-.71,.19-1.12,.57-1.23,1.15-.11,.58-.06,1.3,.17,2.15l5.02,19.18c.28,1.06,.63,1.77,1.05,2.12,.43,.35,.93,.46,1.51,.3,.65-.17,1.04-.56,1.17-1.17,.13-.61,.08-1.34-.14-2.2l-1.81-6.9,7.71-2.02,1.9,7.25c.88,3.37,.67,6.03-.63,7.99-1.3,1.96-3.48,3.34-6.52,4.14Z"/><path class="cls-2" d="M191.59,107.63l-10.02-38.32,15.33-4.01,1.94,7.4-7.53,1.97,1.95,7.47,7.23-1.89,1.89,7.21-7.23,1.89,2.3,8.77,8.03-2.1,1.95,7.47-15.83,4.14Z"/></g><g class="cls-9"><path class="cls-2" d="M134.82,220.4l-22.09-84.43,23.22-6.07c6.08-1.59,11.09-1.1,15.04,1.47s6.78,7.1,8.48,13.59l10.34,39.53c2.09,8,2.31,14.53,.65,19.61-1.66,5.08-5.99,8.54-13,10.37l-22.64,5.92Zm13.08-19.36l2.93-.77c3.1-.81,4.26-2.72,3.47-5.73l-11.4-43.56c-.74-2.81-1.59-4.53-2.55-5.15-.96-.62-2.6-.63-4.9-.03l-1.87,.49,14.32,54.74Z"/><path class="cls-2" d="M203.88,203.15c-7.04,1.84-12.73,1.22-17.09-1.86s-7.54-8.46-9.55-16.13l-16.18-61.83,16.41-4.29,16,61.16c.37,1.41,.8,2.74,1.3,3.99,.5,1.25,1.14,2.22,1.94,2.9,.79,.68,1.83,.85,3.11,.52,1.31-.34,2.15-1,2.51-1.96,.36-.96,.44-2.12,.25-3.47-.2-1.35-.48-2.73-.85-4.13l-16-61.16,16.41-4.29,16.18,61.83c2.01,7.68,1.87,13.92-.43,18.74-2.29,4.82-6.96,8.15-13.99,9.99Z"/></g><g class="cls-9"><path class="cls-2" d="M136.51,249.96l-3.71-14.19,2.82-.74,1.33,5.07,1.34-.35-1.33-5.07,2.82-.74,3.71,14.19-2.82,.74-1.68-6.43-1.34,.35,1.68,6.43-2.82,.74Z"/><path class="cls-2" d="M144.36,247.9l-2.34-14.55,4.81-1.26,5.06,13.84-2.69,.7-.8-2.24-1.71,.45,.42,2.34-2.76,.72Zm1.95-5.38l1.29-.34-2.51-7.05-.13,.03,1.35,7.36Z"/><path class="cls-2" d="M152.76,245.7l-3.71-14.19,4.35-1.14c.73-.19,1.32-.17,1.77,.06,.46,.23,.83,.63,1.11,1.19,.28,.56,.53,1.24,.74,2.04,.2,.77,.27,1.42,.19,1.93-.08,.51-.36,.93-.86,1.25,.47-.03,.84,.11,1.11,.42,.27,.3,.48,.74,.63,1.29l1.41,5.37-2.8,.73-1.45-5.55c-.11-.41-.26-.65-.46-.7-.2-.05-.48-.03-.86,.07l1.69,6.47-2.87,.75Zm.55-9.69l.69-.18c.39-.1,.48-.58,.25-1.44-.15-.55-.28-.9-.41-1.05s-.32-.19-.55-.13l-.66,.17,.69,2.63Z"/><path class="cls-2" d="M163.97,242.91c-1.03,.27-1.94,.16-2.73-.31-.79-.48-1.34-1.29-1.64-2.44l-1.71-6.55c-.36-1.38-.36-2.5,0-3.37,.35-.87,1.15-1.47,2.38-1.79,.67-.18,1.3-.21,1.89-.1,.59,.11,1.1,.37,1.53,.78,.43,.41,.74,.99,.94,1.74l.64,2.45-2.82,.74-.55-2.1c-.11-.43-.24-.7-.39-.82-.15-.12-.33-.15-.56-.09-.26,.07-.42,.21-.46,.43-.04,.21-.02,.48,.06,.8l1.86,7.1c.1,.39,.23,.65,.39,.78,.16,.13,.34,.17,.56,.11,.24-.06,.39-.21,.43-.43,.05-.22,.03-.5-.05-.81l-.67-2.56,2.85-.75,.7,2.68c.33,1.25,.25,2.23-.23,2.96-.48,.73-1.29,1.24-2.42,1.53Z"/><path class="cls-2" d="M169.5,225.71l-4.03,.24-.73-2.8,4.29,.75,.47,1.8Zm-1.04,15.89l-3.71-14.19,5.68-1.49,.72,2.74-2.79,.73,.72,2.77,2.68-.7,.7,2.67-2.68,.7,.85,3.25,2.97-.78,.72,2.76-5.86,1.53Z"/><path class="cls-2" d="M175.26,239.82l-3.71-14.19,2.84-.74,3.08,11.77,2.92-.76,.63,2.42-5.76,1.51Z"/><path class="cls-2" d="M181.82,238.1l-3.71-14.19,5.68-1.48,.72,2.74-2.79,.73,.72,2.77,2.68-.7,.7,2.67-2.68,.7,.85,3.25,2.97-.78,.72,2.76-5.86,1.53Z"/><path class="cls-2" d="M188.62,236.32l-3.71-14.19,4.32-1.13,3.46,8.34-1.08-8.96,4.36-1.14,3.71,14.19-2.6,.68-2.67-10.22,1.05,10.65-2.55,.67-4.4-9.77,2.67,10.22-2.56,.67Z"/><path class="cls-2" d="M200.94,233.1l-3.71-14.19,5.68-1.49,.72,2.74-2.79,.73,.72,2.77,2.68-.7,.7,2.67-2.68,.7,.85,3.25,2.98-.78,.72,2.76-5.86,1.53Z"/><path class="cls-2" d="M207.74,231.32l-3.71-14.19,2.92-.76,3.08,6.46-1.78-6.8,2.74-.72,3.71,14.19-2.77,.73-3.28-6.72,1.86,7.09-2.77,.73Z"/><path class="cls-2" d="M217.18,228.85l-3-11.46-1.69,.44-.71-2.73,6.21-1.62,.71,2.73-1.69,.44,3,11.46-2.84,.74Z"/><path class="cls-2" d="M225.8,222.68l-.88-3.35c.67-.18,1.24-.36,1.7-.56s.82-.45,1.07-.75c.25-.31,.39-.71,.42-1.2,.03-.5-.06-1.13-.26-1.9-.09-.35-.22-.64-.37-.88-.16-.24-.4-.32-.72-.24-.23,.06-.38,.18-.45,.36-.07,.18-.09,.38-.06,.62,.03,.23,.08,.48,.14,.73l.31,1.18-2.95,.77-.54-2.05c-.28-1.09-.15-1.98,.41-2.69,.55-.71,1.38-1.2,2.47-1.49,.96-.25,1.76-.28,2.4-.08,.64,.2,1.17,.6,1.57,1.2,.41,.6,.73,1.37,.98,2.32,.24,.93,.31,1.8,.2,2.61-.11,.81-.42,1.51-.93,2.09s-1.23,.99-2.17,1.24l.36,1.37-2.68,.7Zm.87,3.68l-.63-2.4,2.89-.76,.63,2.4-2.89,.76Z"/></g></g><g><path class="cls-6" d="M197.2,337.9l-4.2-12.7s-1.6,.8-3.6,1.8c1.2-3.4,1.4-6.6,.3-7.6-1.6-1.4-12.1,5.1-17.7,8.6-3.1,2-6.1,.9-8.6,15.2s-6.8,23.1-6.8,23.1l23.5,16.5c11.3-.9,17.3-9,17.3-9l-6.6-31.9,6.4-4h0Z"/><path class="cls-4" d="M199.4,372.3c2.8-.9,9.4-7.1,11.8-12.6l-3.6-5.3s2.3-1.6,3.4-5.2c1-3.7-4.6-5.6-4.6-5.6,0,0,2.3-1.7,4.1-3.8l-7-7.3s3.3-2.8,4.6-5.6l-11.8,4,.5,25.1,2.6,16.3h0Z"/><path class="cls-6" d="M81,582.7c.6-.9,75.5-216.4,75.5-216.4l23.5,16.5-41,205.8-58-5.9h0Z"/><g><path class="cls-4" d="M185.9,332.8c.1-.1,.1-.3-.1-.4-.1-.1-.3-.1-.4,.1-1.7,2.4-4.5,4.3-7.4,5.1-.1,0-.2,.1-.2,.2v.3c2.8,7.1,2.9,14.5,.3,22.6-.1,.2,0,.3,.2,.4h.1c.1,0,.3-.1,.3-.2,2.5-8.2,2.5-15.6-.2-22.7,2.9-1,5.7-3,7.4-5.4h0Z"/><path class="cls-4" d="M173.5,376.6c-.1-.1-.3-.2-.4-.1-.1,.1-.2,.3-.1,.4,1.5,2.8,4,5,6.9,6.2l.1-.2c.3,0,.6,0,.8-.1-3.1-1.1-5.7-3.3-7.3-6.2h0Z"/><path class="cls-4" d="M182.2,365.1c.7,.2,1.4,.3,2.1,.3,1.2,0,2.5-.3,3.6-.8,.2-.1,.2-.3,.1-.4-.1-.2-.3-.2-.4-.1-1.6,.8-3.5,1-5.3,.5-.2,0-.3,0-.4,.2,0,.1,.1,.3,.3,.3h0Z"/></g></g><g><path class="cls-2" d="M135.2,384.8c-1-2.8-2.3-5.6-2.3-8.6s2.1-6.3,4.7-6c2.9,.4,4.8,4.7,7.7,4.1,2.2-.5,3.7-3.7,5.8-3,1.3,.4,1.9,2,2.1,3.5,.2,1.5,.2,3.1,1,4.3,1.3,2.1,4,1.9,6.3,1.6,2.2-.4,4.9-.5,6.3,1.6,1,1.5,.7,3.8,1.7,5.3,2.5,3.8,9.1-.4,11.6,3.4,1.1,1.7,.8,4.4,2.2,5.9,1.6,1.7,4.9,.9,5.7,3.2,.5,1.5-.6,3.1-1.9,3.6-1.3,.5-2.7,.3-4.1,.3-5.8-.1-8.3,5.5-11,11.3,.3-.7-10.3-7.3-11.1-7.8-3-1.8-6.2-3.1-9.5-4.1-4.5-1.3-12.2,.5-13.1-6-.7-4.3-.7-8.4-2.1-12.6h0Z"/><path class="cls-8" d="M14.4,809.4l121.2-416.5s21.9-2.5,40.1,15.7l-43.7,415.1-117.6-14.3Z"/><path class="cls-5" d="M151.2,407.2c-3.7-1.1-11.2-2.4-18.9-2.9l-.3,.9c6.9,.3,13.1,1.3,19,2.9,8.6,2.4,16.3,6.4,22.9,11.5l.2-1c-6.7-5-14.5-8.7-22.9-11.4h0Z"/><path class="cls-2" d="M161,423.2c-.4,1.3,.3,2.9,1.4,3.5s2.6,0,3.2-1.3c1.7-3.7-3.6-5.9-4.6-2.2Z"/></g><g><g><path class="cls-6" d="M208.1,323c-2.1-1.9-5.2-2.4-7.9-1.4-3.9,1.5-9.7,4.3-10,7.1-.6,4.4,5.8,4.5,10.9,3,4.1-1.1,11.7-4.5,7-8.7h0Z"/><path class="cls-3" d="M197,324.4c.3-.1,.7-.2,1-.1,.5,.1,.9,.4,1.2,.7,.3,.4,.5,.8,.7,1.2,.3,.6,.5,1.2,.6,1.9,.1,.7,0,1.4-.4,1.9-.5,.6-1.2,.8-1.9,.9-1.1,.2-2.2,.3-3.3,.3-.6,0-1.3,0-1.9-.3-.6-.2-1.2-.6-1.5-1.2-.8-1.5,.5-2.6,1.5-3.4,1.1-.7,2.6-1.4,4-1.9h0Z"/><path class="cls-6" d="M203.8,325.8s-.1,0,0,0c-.1,0-.2-.1-.1-.2,.1-.5-.1-1.1-.4-1.4-.1-.1-.1-.2,0-.2s.2-.1,.2,0c.4,.5,.6,1.1,.5,1.7-.1,0-.2,.1-.2,.1h0Z"/><path class="cls-4" d="M205.5,324.5q-.1,0-.1-.1c-.1-.4-.4-.8-.8-1.1-.1,0-.1-.1-.1-.2q.1-.1,.2,0c.4,.3,.8,.7,.9,1.2,.1,.1,0,.1-.1,.2h0Z"/></g><g><path class="cls-6" d="M212,337.9c.4-3.9-3.2-7-7-6.2-4.1,.9-10.8,2.6-13.2,4.3-3.6,2.5-2.1,7.3,7.5,6.8,9.6-.5,12.3-1.8,12.7-4.9h0Z"/><path class="cls-3" d="M193.5,336.4c-.5,.3-1.1,.6-1.4,1.1s-.7,1.1-.6,1.7c.1,.7,.6,1.2,1.2,1.5s1.3,.4,2,.5c1.4,.2,2.8,.2,4.2,.2,.6,0,1.3,0,1.7-.5,.6-.5,.6-1.4,.6-2.1,0-1-.1-1.9-.4-2.8-.2-.6-.6-1.1-1.1-1.4-.6-.4-1-.2-1.6,0-1.7,.4-3.2,1-4.6,1.8h0Z"/><path class="cls-4" d="M206.6,337.6h0c-.1,0-.2-.1-.1-.2,.1-.6-.1-1.2-.5-1.7-.1-.1-.1-.2,0-.2,.1-.1,.2,0,.2,0,.5,.5,.7,1.3,.6,2,0,.1-.1,.1-.2,.1h0Z"/></g><g><path class="cls-6" d="M209.2,343c-3.1-.8-12.5,2.1-15.8,4.2s-1.6,8.2,7.4,6.6c3.9-.7,11.4-.9,11.5-6.2,0-.9,0-1.7-.3-2.5-.5-1.2-1.6-1.8-2.8-2.1h0Z"/><path class="cls-3" d="M195.8,347.1c-1.2,.5-2.4,1.3-2.6,2.6-.1,1.1,.6,2.2,1.6,2.7s2.1,.6,3.2,.6c1.2,0,2.6-.3,3.4-1.2,1.2-1.5,.6-4.1-.8-5.2-1.2-1.1-3.5,0-4.8,.5h0Z"/><path class="cls-4" d="M207.7,348.9s-.1,0,0,0c-.1-.1-.2-.1-.1-.2,.3-.7,.3-1.6-.1-2.3,0-.1,0-.2,.1-.2s.2,0,.2,.1c.4,.8,.4,1.8,.1,2.5-.1,0-.2,.1-.2,.1h0Z"/><path class="cls-4" d="M209,347.9h0c-.1,0-.2-.1-.1-.2,.1-.5,.1-1-.2-1.5,0-.1,0-.2,.1-.2s.2,0,.2,.1c.3,.5,.4,1.2,.2,1.8h-.2Z"/></g><g><path class="cls-6" d="M206.6,354.1c-3.1,.3-10.9,1.7-10.2,6.4,.6,3.9,8.4,1.9,12.1,1.1s5.9-8.1-1.9-7.5h0Z"/><path class="cls-4" d="M208.5,359.8h-.1c-.1,0-.1-.1,0-.2,.4-.5,.5-1.2,.2-1.8,0-.1,0-.2,.1-.2s.2,0,.2,.1c.4,.7,.2,1.6-.2,2.2q-.1-.1-.2-.1h0Z"/><path class="cls-3" d="M198.5,357.8c-.9,.8-1.4,2.3-.7,3.3,.4,.6,1,.9,1.7,1.1s1.4,.1,2.1,0c.9-.1,1.9-.2,2.5-.9,.3-.4,.4-1,.4-1.5,0-1.3-.8-2.8-2-3.4-1.1-.5-3.2,.7-4,1.4h0Z"/></g><g><path class="cls-6" d="M171.9,328c-2.9,1.9-5.8,1.1-8.2,12.8,0,.1,5,.3,5.5,.3,1.9,0,3.8-.2,5.6-.7,2.4-.6,4.6-1.8,6.6-3.2,2.1-1.6,4.1-3.3,5.6-5.4,1.6-2.2,2.7-4.8,3.2-7.5,.2-1.3,.7-3.7-.5-4.8-1.6-1.4-12.2,5-17.8,8.5h0Z"/><path class="cls-3" d="M190.1,320c-.1-.2-.3-.4-.4-.6-1-.9-5.9,1.5-10.7,4.3,.1,.1,.2,.1,.3,.1,.5,.2,1,.2,1.5,.2,3.3,0,6.5-1.3,8.9-3.6,.1,0,.2-.2,.4-.4h0Z"/></g></g></g></g></svg>