<?xml version="1.0" encoding="UTF-8"?><svg id="Calque_1" xmlns="http://www.w3.org/2000/svg" viewBox="0 0 240.9 626.5"><defs><style>.cls-1{fill:#f9bb82;}.cls-2{fill:#6b2627;}.cls-3{fill:#f5a254;}.cls-4{fill:#ef7f75;}.cls-5{fill:#fff;}.cls-6{fill:#f088b6;}.cls-7{fill:#be3271;}.cls-8{fill:#1d1a38;}.cls-9{fill:#1a1732;}.cls-10{isolation:isolate;}</style></defs><g id="Calque_1-2"><g id="pencarte_9"><g id="EST-CE_DU_HARCÈLEMENT___hover_9"><path class="cls-8" d="M31.1,28.1l-14.3,102.6c-.4,2.7,1.5,5.1,4.2,5.4l153,15.4c2.6,.3,5-1.7,5.2-4.4l7.6-103.3c.2-2.6-1.7-4.8-4.2-5L36.3,24.1c-2.5-.3-4.8,1.5-5.2,4Z"/><g class="cls-10"><path class="cls-5" d="M37.09,79.32l1.68-19.81,7.92,.67-.32,3.83-3.89-.33-.33,3.86,3.74,.32-.32,3.73-3.74-.32-.38,4.54,4.16,.35-.33,3.86-8.19-.69Z"/><path class="cls-5" d="M51.27,80.71c-1.81-.15-3.08-.71-3.8-1.68-.72-.97-1-2.44-.84-4.4l.16-1.94,3.92,.33-.21,2.48c-.04,.46,0,.82,.12,1.09,.12,.27,.35,.42,.69,.45,.36,.03,.62-.05,.78-.25,.16-.2,.25-.54,.3-1.02,.05-.61,.03-1.12-.05-1.54-.09-.42-.26-.83-.53-1.22-.27-.4-.64-.86-1.12-1.4l-1.64-1.84c-1.22-1.37-1.77-2.86-1.63-4.47,.14-1.69,.64-2.94,1.5-3.76,.86-.82,2.03-1.17,3.52-1.04,1.82,.15,3.06,.75,3.74,1.78,.68,1.03,.94,2.54,.77,4.51l-4.03-.34,.12-1.36c.02-.27-.04-.49-.18-.65-.14-.16-.34-.26-.61-.28-.32-.03-.55,.04-.71,.21-.16,.16-.25,.38-.28,.66-.02,.28,.03,.58,.15,.92,.12,.33,.39,.73,.79,1.19l2.1,2.39c.42,.47,.8,.97,1.14,1.49s.6,1.11,.78,1.77c.18,.66,.23,1.45,.15,2.38-.16,1.86-.62,3.29-1.4,4.29-.77,1-2.02,1.42-3.72,1.28Z"/><path class="cls-5" d="M58.92,81.17l1.36-16.01-2.35-.2,.32-3.81,8.67,.73-.32,3.81-2.35-.2-1.36,16.01-3.96-.34Z"/><path class="cls-5" d="M66.62,76.05l.22-2.61,5.81,.49-.22,2.61-5.81-.49Z"/><path class="cls-5" d="M78.11,82.98c-1.43-.12-2.55-.66-3.35-1.63-.8-.97-1.13-2.25-.99-3.86l.77-9.14c.16-1.92,.67-3.36,1.52-4.32,.85-.96,2.13-1.36,3.85-1.22,.94,.08,1.76,.32,2.46,.73,.7,.41,1.23,.97,1.6,1.69,.36,.72,.5,1.61,.41,2.65l-.29,3.42-3.94-.33,.25-2.93c.05-.59,0-1-.12-1.22-.13-.22-.36-.34-.67-.37-.37-.03-.63,.08-.78,.34-.15,.26-.25,.61-.28,1.05l-.84,9.92c-.05,.55,0,.94,.14,1.18,.14,.24,.36,.37,.66,.4,.34,.03,.59-.09,.75-.36,.16-.27,.26-.62,.3-1.06l.3-3.57,3.99,.34-.32,3.75c-.15,1.74-.69,2.97-1.64,3.68s-2.21,1-3.78,.86Z"/><path class="cls-5" d="M84.44,83.33l1.68-19.81,7.93,.67-.32,3.83-3.9-.33-.33,3.86,3.74,.32-.32,3.73-3.74-.32-.38,4.54,4.16,.35-.33,3.86-8.19-.69Z"/><path class="cls-5" d="M99.33,84.6l1.68-19.81,5.45,.46c1.43,.12,2.47,.61,3.12,1.46,.65,.85,.92,2.04,.79,3.56l-.79,9.28c-.16,1.88-.61,3.3-1.35,4.26-.74,.97-1.94,1.38-3.58,1.24l-5.31-.45Zm4.28-3.16l.69,.06c.73,.06,1.12-.26,1.18-.97l.87-10.22c.06-.66,0-1.09-.16-1.3-.16-.21-.51-.33-1.05-.38l-.44-.04-1.09,12.85Z"/><path class="cls-5" d="M115.27,86.13c-1.65-.14-2.83-.71-3.53-1.7-.7-.99-.98-2.39-.82-4.19l1.23-14.51,3.85,.33-1.22,14.35c-.03,.33-.04,.65-.02,.96,.01,.31,.08,.56,.2,.77,.12,.21,.33,.32,.63,.35,.31,.03,.54-.05,.69-.23,.15-.18,.26-.42,.32-.73,.06-.3,.1-.62,.13-.95l1.22-14.35,3.85,.33-1.23,14.51c-.15,1.8-.66,3.13-1.52,3.99-.86,.86-2.11,1.22-3.77,1.08Z"/></g><g class="cls-10"><path class="cls-5" d="M34.75,107l1.68-19.81,3.94,.33-.6,7.08,1.87,.16,.6-7.08,3.94,.33-1.68,19.81-3.94-.33,.76-8.98-1.87-.16-.76,8.98-3.94-.33Z"/><path class="cls-5" d="M45.71,107.92l3.59-19.65,6.72,.57,.2,19.97-3.75-.32v-3.22l-2.4-.2-.52,3.18-3.85-.33Zm4.92-5.99l1.8,.15v-10.15l-.19-.02-1.61,10.01Z"/><path class="cls-5" d="M57.44,108.92l1.68-19.81,6.08,.51c1.01,.09,1.76,.38,2.24,.89,.48,.51,.77,1.18,.88,2.02,.11,.84,.11,1.83,.02,2.94-.09,1.08-.3,1.93-.63,2.55-.33,.62-.88,1.02-1.66,1.21,.61,.18,1.02,.53,1.23,1.04,.21,.51,.28,1.16,.22,1.94l-.63,7.5-3.91-.33,.66-7.76c.05-.58-.04-.95-.26-1.11-.22-.16-.6-.26-1.12-.3l-.77,9.04-4.01-.34Zm5.09-12.13l.96,.08c.55,.05,.87-.53,.97-1.72,.07-.77,.05-1.28-.05-1.54-.1-.25-.31-.39-.65-.42l-.92-.08-.31,3.67Z"/><path class="cls-5" d="M73.03,110.42c-1.43-.12-2.55-.67-3.35-1.63-.8-.97-1.13-2.25-.99-3.86l.77-9.14c.16-1.92,.67-3.36,1.52-4.32,.85-.96,2.13-1.36,3.85-1.22,.94,.08,1.76,.32,2.46,.73,.7,.41,1.23,.97,1.6,1.69,.36,.72,.5,1.6,.41,2.65l-.29,3.42-3.94-.33,.25-2.93c.05-.59,0-1-.12-1.22-.13-.22-.36-.34-.67-.37-.37-.03-.63,.08-.78,.34-.15,.26-.24,.6-.28,1.05l-.84,9.92c-.05,.55,0,.94,.14,1.18,.14,.24,.36,.37,.66,.4,.34,.03,.59-.09,.75-.36,.16-.27,.26-.62,.3-1.06l.3-3.57,3.99,.34-.32,3.75c-.15,1.74-.69,2.97-1.64,3.68-.94,.71-2.21,1-3.78,.86Z"/><path class="cls-5" d="M79.36,110.77l1.68-19.81,7.93,.67-.32,3.83-3.9-.33-.33,3.86,3.74,.32-.32,3.73-3.74-.32-.38,4.54,4.16,.35-.33,3.86-8.19-.69Zm8.52-19.84l-5.26-1.51,.33-3.91,5.14,2.91-.21,2.51Z"/><path class="cls-5" d="M88.85,111.58l1.68-19.81,3.96,.34-1.39,16.44,4.08,.35-.29,3.38-8.04-.68Z"/><path class="cls-5" d="M98.02,112.35l1.68-19.81,7.93,.67-.32,3.83-3.9-.33-.33,3.86,3.74,.32-.32,3.73-3.74-.32-.38,4.54,4.16,.35-.33,3.86-8.19-.69Z"/><path class="cls-5" d="M107.51,113.16l1.68-19.81,6.04,.51,.64,12.22,2.68-11.94,6.09,.52-1.68,19.81-3.62-.31,1.21-14.28-3.48,14.08-3.56-.3-1.2-14.48-1.21,14.28-3.58-.3Z"/><path class="cls-5" d="M124.71,114.61l1.68-19.81,7.93,.67-.32,3.83-3.89-.33-.33,3.86,3.74,.32-.32,3.73-3.74-.32-.38,4.54,4.16,.35-.33,3.86-8.19-.69Z"/><path class="cls-5" d="M134.2,115.42l1.68-19.81,4.08,.35,1.02,9.64,.8-9.49,3.83,.32-1.68,19.81-3.87-.33-1.14-10.08-.84,9.91-3.87-.33Z"/><path class="cls-5" d="M147.38,116.53l1.36-16.01-2.35-.2,.32-3.8,8.67,.73-.32,3.81-2.35-.2-1.36,16.01-3.96-.34Z"/><path class="cls-5" d="M160.63,117.64l.29-3.36,4.03,.34-.28,3.36-4.03-.34Zm.56-5.1l.4-4.68c.94,.08,1.75,.1,2.43,.06s1.25-.2,1.71-.48c.46-.28,.82-.73,1.08-1.35,.26-.62,.44-1.47,.53-2.54,.04-.49,.02-.92-.08-1.3-.09-.38-.36-.59-.81-.62-.32-.03-.57,.06-.74,.25s-.29,.45-.35,.76c-.07,.32-.12,.65-.15,.99l-.14,1.64-4.12-.35,.24-2.86c.13-1.52,.71-2.6,1.73-3.25,1.03-.65,2.3-.91,3.82-.78,1.34,.11,2.37,.44,3.1,.99,.73,.54,1.22,1.29,1.46,2.24,.25,.95,.32,2.08,.21,3.41-.11,1.3-.42,2.44-.93,3.42-.51,.99-1.22,1.73-2.13,2.25-.91,.51-2.03,.71-3.34,.6l-.16,1.91-3.75-.32Z"/></g></g><path class="cls-2" d="M82.3,247.7h-1c-2-.3-3.5-2.1-3.2-4.2l14.4-107.9c.3-2,2.2-3.5,4.2-3.2s3.5,2.1,3.2,4.2l-14.4,107.9c-.3,1.7-1.6,3-3.2,3.2h0Z"/><g><path class="cls-1" d="M147.9,336.8c-6.3-25.1-12.9-50.1-18.9-75.3-3.4-14.4-7.5-28.7-12.2-42.8-3.7-11.1-6.1-21.1-17.9-25.8-12.2-4.8-24.5-11.5-28.1-9.3s-4,6.5,1.8,12.9c0,0-6.9-.2-4.8,7.7,0,0-7.7,1.8-3.1,9.6,0,0-3.9,2.3-1.4,7.4,2.1,4.2,6.2,6.3,15.6,10.6,9.4,4.2,15.3,7,19.2,11l6.2,95.8,43.6-1.8h0Z"/><g><g><path class="cls-4" d="M77.7,198.5l-5.7-2.6c.2,.2,.3,.4,.5,.6h-.5l5.4,2.5h.2c.1,0,.2-.1,.2-.1,.1-.2,0-.3-.1-.4h0Z"/><path class="cls-4" d="M64.7,213.8s-.2,.1-.4,.3l4,1.6h.1c.1,0,.2-.1,.2-.2,.1-.1,0-.3-.2-.4l-3.9-1.6q.1,.2,.2,.3h0Z"/><path class="cls-4" d="M67.6,203.7c0,.2,.1,.3,.1,.5,0,0-.1,0-.2,.1l5.5,3.2h.2c.1,0,.2-.1,.2-.1,.1-.1,0-.3-.1-.4l-5.7-3.3h0Z"/></g><g><path class="cls-4" d="M75.7,224c-.1,0-.3-.1-.3-.2-.3-1-.3-2,0-3,0-.1,.2-.2,.3-.2s.2,.2,.2,.3c-.3,.9-.3,1.8,0,2.7,.1,.2,0,.3-.2,.4q0-.1,0,0h0Z"/><path class="cls-4" d="M78.1,215.9c-.2,0-.3-.1-.3-.2-.2-1.4,.4-2.8,1.5-3.7,.1-.1,.3-.1,.4,0s.1,.3,0,.4c-.9,.8-1.4,2-1.3,3.2-.1,.2-.2,.3-.3,.3h0Z"/><path class="cls-4" d="M81.5,207.2c-.1,0-.3-.1-.3-.2-.4-1.3,.1-2.8,1.2-3.7,.1-.1,.3-.1,.4,0s.1,.3,0,.4c-.9,.7-1.3,2-1,3.1,0,.2-.1,.4-.3,.4h0Z"/><path class="cls-4" d="M85.6,196.9s-.1,0,0,0c-.2,0-.3-.1-.3-.3,.1-1.4,.9-2.7,2.1-3.3,.1-.1,.3,0,.4,.1s0,.3-.1,.4c-1,.6-1.8,1.7-1.8,2.9-.1,.1-.2,.2-.3,.2h0Z"/></g><path class="cls-4" d="M101.1,242.7c.7-.1,1.4-.2,2.1-.4,.1,0,.2-.2,.2-.3s-.2-.2-.3-.2c-1.8,.5-3.7,.7-5.5,.4l.6,.6h0c.9,0,1.9,0,2.9-.1h0Z"/></g></g><path class="cls-1" d="M107.7,199c-4.2-7.7-13.2-20.4-19-21.3-5.8-.9-11.7-3.6-11.7,1.1s10.7,6.1,14.7,14.4,16,5.8,16,5.8h0Z"/><g><g><path class="cls-3" d="M98.8,274.8l-3.3-18.2c-.3-1.5,.5-2.9,1.9-3.6,4.2-1.9,13.9-5.4,30-5.4,1.6,0,3,1.1,3.3,2.6l4.5,21.5-36.4,3.1h0Z"/><g><path class="cls-9" d="M106.7,274.1c-.5-7.8-1.8-15.6-3.8-23.2-.1,0-.2,.1-.3,.1,2,7.6,3.2,15.3,3.8,23.2l.3-.1h0Z"/><path class="cls-9" d="M107.7,249.6c-.1,0-.2,0-.3,.1l3.1,24h-.2v.1h.5l-3.1-24.2h0Z"/><path class="cls-9" d="M98.1,252.7c-.1,0-.2,.1-.3,.1l4.3,21.7h.3l-4.3-21.8h0Z"/><path class="cls-9" d="M116.3,272.9h.3l-3.3-24.3h-.3l3.3,24.3Z"/><path class="cls-9" d="M117.7,248h-.3l3.1,24.2h-.1l.2,.7h.3l-3.2-24.9h0Z"/><path class="cls-9" d="M124.2,247.7h-.3l2.8,24h-.2l.2,.7h.3l-2.8-24.7h0Z"/><path class="cls-9" d="M126.8,247.6h-.3l4.1,24.5h.3l-4.1-24.5h0Z"/><path class="cls-9" d="M120.8,247.8h-.3l3.2,23.7h-.2l.2,1.1h.4l-3.3-24.8h0Z"/></g></g><g><path class="cls-7" d="M129.1,610.1l-32.7-335.9s22.3-17.8,40.2-7.7l61.5,343.5-69,.1Z"/><g><path class="cls-6" d="M102.5,336.3l.1,1.9c14.9-4.9,30.8-6.2,46.3-3.7l-.4-2c-6.2-.9-12.4-1.3-18.8-1.1-9.4,.4-18.5,2-27.2,4.9h0Z"/><path class="cls-6" d="M101.6,326.2l.1,2c14.2-5.8,29.9-7.6,45.1-5.4l-.4-2c-8.8-1.1-37,2.3-44.8,5.4h0Z"/><path class="cls-6" d="M117.8,297.1c8.3-.4,16.6,.7,24.8,2l-.5-2c-8.1-1.3-16.2-2.3-24.4-1.9-5.4,.2-12.1,1.1-18.8,3.7l.1,2c6.7-2.6,13.5-3.5,18.8-3.8h0Z"/><path class="cls-6" d="M144.9,310.6l-.4-1.9c-9.4-.7-18.9-.2-28.2,1.7-5.4,1.1-10.8,2.6-15.9,4.6l.1,2c14-5.4,29.4-7.6,44.4-6.4h0Z"/><path class="cls-6" d="M97.7,288.4l.1,1.9c13.7-4,28-5.6,42.3-4.8l-.4-1.9c-14.2-.7-28.7,.9-42,4.8Z"/><path class="cls-6" d="M112.8,272c-5.5,1.5-10.8,3.6-15.8,6.4l.1,2.1c5.1-2.9,10.5-5.2,16.2-6.7,7.9-2.1,16.2-2.8,24.3-2l-.5-1.9c-8.1-.8-16.4-.1-24.3,2.1h0Z"/></g></g></g></g></g></svg>