<?xml version="1.0" encoding="UTF-8"?><svg id="Calque_1" xmlns="http://www.w3.org/2000/svg" viewBox="0 0 314.6 892.9"><defs><style>.cls-1{fill:#f5a254;}.cls-2{fill:#fff;}.cls-3{fill:#c9584f;}.cls-4{fill:#1d1a38;}.cls-5{fill:#5c292f;}.cls-6{fill:#4d6fa9;}.cls-7{fill:#885055;opacity:.2;}.cls-7,.cls-8{isolation:isolate;}</style></defs><g id="Calque_1-2"><g id="pancarte_4"><g id="pencarte_4"><path class="cls-5" d="M88.2,415.7l15.7,3.5L183.6,57.3c1.5-6.7-.8-13-5.2-13.9h0c-4.4-1-9.1,3.7-10.6,10.5L88.2,415.7Z"/><g id="EST-CE_DU_HARCÈLEMENT___hover_4"><polygon class="cls-4" points="30 180.6 271.6 226.7 296.6 86.1 56.9 36.9 30 180.6"/><g class="cls-8"><path class="cls-2" d="M61.51,141.32l5.72-28.25,5.62,1.14-2.04,10.1,2.67,.54,2.04-10.1,5.62,1.14-5.72,28.25-5.62-1.14,2.59-12.81-2.67-.54-2.59,12.81-5.62-1.14Z"/><path class="cls-2" d="M77.15,144.49l8.45-27.7,9.58,1.94-3.04,28.79-5.35-1.08,.52-4.64-3.4-.69-1.28,4.49-5.49-1.11Zm8.08-7.8l2.57,.52,1.67-14.62-.26-.05-3.99,14.15Z"/><path class="cls-2" d="M93.87,147.88l5.72-28.25,8.67,1.75c1.44,.29,2.47,.84,3.07,1.65,.6,.81,.91,1.83,.92,3.06,.01,1.23-.14,2.65-.47,4.24-.31,1.54-.76,2.73-1.33,3.57-.58,.84-1.44,1.33-2.59,1.46,.85,.36,1.38,.93,1.6,1.7s.21,1.72-.01,2.83l-2.17,10.69-5.57-1.13,2.24-11.06c.17-.82,.1-1.37-.19-1.63-.3-.27-.82-.48-1.57-.63l-2.61,12.89-5.71-1.16Zm9.35-16.62l1.37,.28c.78,.16,1.34-.61,1.69-2.32,.22-1.1,.28-1.84,.18-2.22-.1-.38-.39-.61-.86-.71l-1.32-.27-1.06,5.23Z"/><path class="cls-2" d="M116.07,152.64c-2.04-.41-3.56-1.38-4.55-2.91-.99-1.53-1.25-3.43-.79-5.72l2.64-13.03c.56-2.74,1.52-4.73,2.9-5.96,1.38-1.24,3.3-1.6,5.75-1.11,1.34,.27,2.48,.76,3.42,1.46,.94,.7,1.62,1.61,2.02,2.71,.4,1.1,.45,2.39,.15,3.88l-.99,4.88-5.62-1.14,.84-4.17c.17-.85,.18-1.44,.03-1.77-.15-.34-.46-.55-.91-.64-.52-.11-.92,.01-1.17,.36-.26,.34-.45,.83-.58,1.46l-2.86,14.14c-.16,.78-.15,1.36,.01,1.72,.17,.37,.46,.59,.89,.68,.48,.1,.86-.03,1.14-.39,.28-.36,.48-.85,.61-1.48l1.03-5.09,5.68,1.15-1.08,5.35c-.5,2.48-1.49,4.16-2.97,5.02-1.48,.86-3.34,1.07-5.59,.62Z"/><path class="cls-2" d="M125.12,154.21l5.72-28.25,11.3,2.29-1.11,5.46-5.55-1.12-1.11,5.5,5.33,1.08-1.08,5.31-5.33-1.08-1.31,6.47,5.92,1.2-1.11,5.51-11.67-2.36Zm15.57-27.14l-7.32-3.05,1.13-5.57,6.92,5.04-.73,3.58Z"/><path class="cls-2" d="M138.65,156.95l5.72-28.25,5.65,1.14-4.75,23.43,5.81,1.18-.98,4.82-11.46-2.32Z"/><path class="cls-2" d="M151.72,159.59l5.72-28.25,11.3,2.29-1.11,5.46-5.55-1.12-1.11,5.51,5.33,1.08-1.08,5.31-5.33-1.08-1.31,6.47,5.92,1.2-1.11,5.51-11.67-2.36Z"/><path class="cls-2" d="M165.25,162.33l5.72-28.25,8.6,1.74-1.11,17.7,5.85-16.75,8.68,1.76-5.72,28.25-5.17-1.05,4.12-20.35-7.36,19.7-5.07-1.03,.69-21.05-4.12,20.35-5.1-1.03Z"/><path class="cls-2" d="M189.78,167.3l5.72-28.25,11.3,2.29-1.11,5.46-5.55-1.12-1.12,5.5,5.33,1.08-1.08,5.31-5.33-1.08-1.31,6.47,5.92,1.2-1.11,5.51-11.67-2.36Z"/><path class="cls-2" d="M203.31,170.04l5.72-28.25,5.81,1.18-.14,14.06,2.74-13.53,5.46,1.11-5.72,28.25-5.52-1.12,.04-14.7-2.86,14.12-5.52-1.12Z"/><path class="cls-2" d="M222.1,173.85l4.62-22.83-3.35-.68,1.1-5.42,12.36,2.5-1.1,5.42-3.36-.68-4.62,22.83-5.65-1.14Z"/><path class="cls-2" d="M241,177.66l.97-4.78,5.75,1.16-.97,4.78-5.75-1.16Zm1.65-7.25l1.35-6.68c1.34,.27,2.5,.43,3.49,.49,.99,.05,1.83-.08,2.54-.41,.71-.33,1.3-.91,1.78-1.76,.48-.85,.87-2.04,1.18-3.57,.14-.7,.18-1.32,.11-1.88-.07-.56-.43-.91-1.07-1.04-.46-.09-.83-.01-1.1,.24-.27,.25-.48,.6-.64,1.04-.15,.44-.28,.91-.38,1.4l-.47,2.34-5.88-1.19,.83-4.08c.44-2.16,1.45-3.62,3.04-4.39,1.59-.76,3.47-.93,5.64-.49,1.9,.39,3.34,1.03,4.29,1.94,.96,.91,1.54,2.06,1.74,3.47,.2,1.41,.11,3.05-.28,4.95-.38,1.85-1.01,3.44-1.91,4.78-.9,1.33-2.05,2.29-3.45,2.88-1.4,.59-3.04,.69-4.91,.31l-.55,2.73-5.34-1.08Z"/></g><g class="cls-8"><path class="cls-2" d="M69.5,101.87l5.72-28.25,11.3,2.29-1.11,5.46-5.55-1.12-1.11,5.5,5.33,1.08-1.08,5.31-5.33-1.08-1.31,6.47,5.92,1.2-1.11,5.51-11.67-2.36Z"/><path class="cls-2" d="M89.69,106.23c-2.58-.52-4.31-1.54-5.19-3.05-.88-1.52-1.04-3.67-.47-6.48l.56-2.76,5.59,1.13-.72,3.53c-.13,.65-.14,1.18-.01,1.59,.12,.41,.43,.67,.92,.76,.51,.1,.9,.03,1.16-.23,.26-.26,.46-.73,.6-1.42,.18-.87,.24-1.61,.18-2.23-.05-.62-.24-1.23-.55-1.85-.32-.62-.78-1.35-1.38-2.21l-2.05-2.92c-1.53-2.17-2.06-4.41-1.6-6.71,.49-2.41,1.42-4.13,2.79-5.17,1.37-1.04,3.12-1.34,5.24-.91,2.59,.52,4.29,1.59,5.09,3.19,.81,1.6,.93,3.81,.36,6.62l-5.75-1.16,.39-1.94c.08-.38,.03-.71-.15-.97-.18-.26-.45-.43-.83-.5-.45-.09-.8-.03-1.06,.18-.26,.21-.43,.51-.51,.91-.08,.4-.06,.85,.06,1.35,.12,.5,.44,1.12,.95,1.85l2.62,3.79c.53,.75,.99,1.53,1.4,2.33,.41,.8,.68,1.69,.83,2.67,.15,.98,.09,2.13-.18,3.45-.54,2.65-1.45,4.63-2.73,5.94-1.28,1.31-3.14,1.71-5.57,1.22Z"/><path class="cls-2" d="M100.63,108.18l4.62-22.82-3.35-.68,1.1-5.42,12.36,2.5-1.1,5.42-3.35-.68-4.62,22.83-5.65-1.14Z"/><path class="cls-2" d="M112.57,102.09l.75-3.72,8.28,1.68-.75,3.72-8.28-1.68Z"/><path class="cls-2" d="M127.96,113.98c-2.04-.41-3.56-1.38-4.55-2.91-.99-1.53-1.25-3.43-.79-5.72l2.64-13.03c.56-2.74,1.52-4.73,2.9-5.96,1.38-1.24,3.3-1.6,5.75-1.11,1.34,.27,2.48,.76,3.42,1.46,.94,.7,1.62,1.61,2.02,2.71,.4,1.1,.45,2.39,.15,3.88l-.99,4.88-5.62-1.14,.84-4.17c.17-.85,.18-1.44,.03-1.78-.15-.34-.46-.55-.91-.64-.52-.11-.92,.01-1.17,.36-.26,.34-.45,.83-.58,1.46l-2.86,14.14c-.16,.78-.16,1.35,.01,1.72,.17,.37,.46,.59,.89,.68,.48,.1,.86-.03,1.14-.39,.28-.36,.48-.85,.61-1.48l1.03-5.09,5.68,1.15-1.08,5.35c-.5,2.48-1.49,4.16-2.97,5.02s-3.34,1.07-5.59,.61Z"/><path class="cls-2" d="M137.01,115.55l5.72-28.25,11.3,2.29-1.11,5.46-5.55-1.12-1.11,5.5,5.33,1.08-1.08,5.31-5.33-1.08-1.31,6.47,5.92,1.2-1.11,5.51-11.67-2.36Z"/><path class="cls-2" d="M158.25,119.85l5.72-28.25,7.77,1.57c2.03,.41,3.45,1.29,4.25,2.62,.8,1.34,.98,3.09,.54,5.26l-2.68,13.23c-.54,2.67-1.43,4.65-2.66,5.91-1.23,1.27-3.02,1.66-5.36,1.19l-7.58-1.53Zm6.69-3.84l.98,.2c1.04,.21,1.66-.19,1.86-1.19l2.95-14.57c.19-.94,.19-1.57,0-1.9-.2-.32-.68-.56-1.45-.72l-.63-.13-3.71,18.32Z"/><path class="cls-2" d="M180.94,124.71c-2.35-.48-3.95-1.49-4.8-3.04s-1.01-3.6-.49-6.17l4.19-20.69,5.49,1.11-4.15,20.46c-.09,.47-.16,.93-.19,1.37-.03,.44,.02,.82,.15,1.14,.14,.32,.42,.52,.85,.61,.44,.09,.78,.02,1.03-.22,.25-.23,.44-.56,.58-.99,.14-.43,.25-.88,.35-1.35l4.14-20.47,5.49,1.11-4.19,20.69c-.52,2.57-1.47,4.4-2.85,5.5-1.38,1.1-3.25,1.41-5.6,.93Z"/></g></g></g><rect class="cls-7" x="112.49" y="308.95" width="11.5" height="16.1" transform="translate(-216.77 364.29) rotate(-77.58)"/><path class="cls-3" d="M142,407.5c0,18.6,4.5,71.3,4.5,71.3,0,0-43.3,4.9-47.4,1-2.4-2.2,4.7-71.3,4.7-71.3,0,0-18.4-8.9-20.5-17-1.4-5.6,3.1-8.6,3.1-8.6,0,0-4.8-3.1-3.9-9.2,.7-4.7,6.8-6.3,6.8-6.3,0,0-5.3-2.9-4.3-8.5s8.7-7.3,8.7-7.3c0,0-6-5.5-2.6-9.5,5.3-6.2,38.6,5.2,38.6,5.2,0,0,13.8,10.2,16.8,18,0,0,4.4,21.3-4.4,37.6-.1,1.1-.1,2.7-.1,4.6h0Z"/><path class="cls-7" d="M142.1,402.9c-.1,1.1-.1,2.6-.1,4.6-7.5,3.3-19.3,5.6-19.3,5.6l-1.5,16.7s-.5-7-1.4-19c6.5,.3,22.3-7.9,22.3-7.9Z"/><path class="cls-1" d="M96,479l2,395.4h71.4l-21.9-406c.1,0-29.7-10.7-51.5,10.6h0Z"/><path class="cls-6" d="M94.8,468.3c-2.7,2.9-4.3,29.4-.7,30.6,3.6,1.2,54.7-3.1,57.2-4.8,2.4-1.7-1.1-28-3.6-30.7s-47.7-.7-52.9,4.9h0Z"/><path class="cls-2" d="M105.5,483c0,3-1.7,5.4-3.8,5.4s-3.7-2.4-3.7-5.4,1.7-5.4,3.8-5.4,3.7,2.4,3.7,5.4Z"/><path class="cls-7" d="M110,341.9c-.1,0,5.3,.9,5.7,5.5,.3,2.8-1.4,6.1-5.5,5.6,4.7,2.6,5.1,5.6,4.7,7.8-.8,4.7-5.7,6.4-5.7,6.4,0,0,5.5,2.7,4.5,8-1.1,5.9-7.5,6.6-7.5,6.6,0,0,6.7,.6,6.1,6.4-.5,5.8-11.4,7.2-11.4,7.2,0,0,13.5,1,19.3,2.3-5.1-7.8,1.5-24.6,9.4-31.3-9.1-6.5-4.4-19.9-4.4-19.9,0,0-10.1-4.7-15.2-4.6h0Z"/><path class="cls-5" d="M110,341.9c2.8,0,7.1,1.3,10.4,2.6l-6.6,29.8c.2-4.6-4.6-7-4.6-7,0,0,4.9-1.8,5.7-6.4,.4-2.2,.1-5.2-4.7-7.8,4.1,.5,5.9-2.8,5.5-5.6-.7-4.5-5.8-5.6-5.7-5.6h0Z"/><path class="cls-5" d="M109.9,392.1l-6,27.1c-1.5-.1-11,2.5-15.7-3.5,2.8-12.5,4.2-19.4,4.2-19.4,4,.1,8.5-1.9,8.5-1.9,0,0,5.7,.3,9-2.3h0Z"/><path class="cls-5" d="M106.2,381.8s5.4-.6,7.1-5.2l-1.8,8.1c-1.6-2.5-5.3-2.8-5.3-2.9h0Z"/><path class="cls-3" d="M146.5,365.3s-3.6-24-12-27.7-20.7-6-22.4-2.8c-.9,1.7-.5,8,11.5,10.8-1.5,6.9,.6,13.8,.6,13.8,0,0-12.3,9.2-5.3,40.6"/><path class="cls-3" d="M108.8,343.5l-1.1,7s6,1.4,6.7-1.8-2.9-5-5.6-5.2h0Z"/><path class="cls-3" d="M107.2,356.3l-1.6,7.3s6,1.6,7-2.5-5.4-4.8-5.4-4.8Z"/><path class="cls-3" d="M106.3,370.6l-.7,8.2s5.7,.6,6-3.7c.2-4.4-5.3-4.5-5.3-4.5h0Z"/><path class="cls-3" d="M105.6,384.2l-.9,6.7s5.3,.1,5.6-3c.2-3.2-4.7-3.7-4.7-3.7Z"/><path class="cls-3" d="M124.9,335l-2.1,1.4s-8.8-2.2-8.3-3c.6-.8,8.5-1.8,10.4,1.6h0Z"/></g></g></svg>