<?xml version="1.0" encoding="UTF-8"?><svg id="Calque_1" xmlns="http://www.w3.org/2000/svg" viewBox="0 0 334.49 788.03"><defs><style>.cls-1{fill:#f28d5d;}.cls-2{fill:#fdcf77;}.cls-3{fill:#fff;}.cls-4{fill:#f088b6;}.cls-5{fill:#be3271;}.cls-6{fill:#1d1a38;}.cls-7{fill:#ea5258;opacity:.2;}.cls-7,.cls-8{isolation:isolate;}</style></defs><g id="Calque_1-2"><g id="pencarte_3"><path class="cls-1" d="M130.56,338.38c-18.61,25-2.02,36.64-2.02,36.64l32.99-10.35"/><polygon class="cls-6" points="310.35 25.78 309.28 105.43 308.67 150.14 308.08 193.95 64.33 198.07 60.84 99.48 58.3 27.92 152.63 27.12 228.09 26.47 246.76 26.32 310.35 25.78"/><g class="cls-8"><path class="cls-3" d="M70.49,101.42v-34.38h13.75v6.64h-6.76v6.7h6.48v6.46h-6.48v7.87h7.21v6.7h-14.2Z"/><path class="cls-3" d="M95.12,101.73c-3.14,0-5.4-.78-6.79-2.34s-2.08-4.05-2.08-7.46v-3.36h6.8v4.3c0,.79,.12,1.42,.36,1.87,.24,.45,.66,.67,1.26,.67s1.06-.18,1.3-.55c.24-.36,.36-.96,.36-1.8,0-1.05-.1-1.94-.31-2.65-.21-.71-.57-1.39-1.08-2.03-.51-.64-1.23-1.4-2.14-2.26l-3.09-2.93c-2.3-2.17-3.46-4.66-3.46-7.46s.68-5.16,2.04-6.7c1.36-1.54,3.33-2.3,5.91-2.3,3.15,0,5.39,.84,6.71,2.52,1.32,1.68,1.98,4.23,1.98,7.66h-6.99v-2.36c0-.47-.13-.83-.4-1.09-.27-.26-.63-.39-1.08-.39-.55,0-.95,.15-1.2,.46s-.38,.7-.38,1.18,.13,1,.39,1.56c.26,.56,.77,1.2,1.54,1.93l3.96,3.81c.79,.75,1.52,1.55,2.19,2.39s1.2,1.82,1.6,2.93c.4,1.11,.61,2.47,.61,4.07,0,3.23-.6,5.76-1.79,7.59s-3.27,2.74-6.22,2.74Z"/><path class="cls-3" d="M108.36,101.42v-27.77h-4.08v-6.6h15.04v6.6h-4.08v27.77h-6.88Z"/><path class="cls-3" d="M120.88,91.48v-4.53h10.08v4.53h-10.08Z"/><path class="cls-3" d="M141.69,101.73c-2.49,0-4.49-.77-6.01-2.32-1.52-1.55-2.28-3.72-2.28-6.5v-15.86c0-3.33,.66-5.89,1.98-7.66,1.32-1.77,3.47-2.66,6.46-2.66,1.63,0,3.08,.3,4.35,.9s2.27,1.49,3,2.69c.73,1.19,1.09,2.69,1.09,4.5v5.94h-6.84v-5.08c0-1.03-.13-1.72-.39-2.08-.26-.36-.66-.54-1.21-.54-.64,0-1.07,.23-1.29,.69-.22,.46-.33,1.08-.33,1.85v17.21c0,.95,.14,1.62,.42,2.01,.28,.39,.68,.59,1.2,.59,.59,0,1-.24,1.24-.72,.24-.48,.36-1.11,.36-1.88v-6.19h6.91v6.5c0,3.02-.76,5.21-2.29,6.57s-3.65,2.04-6.39,2.04Z"/><path class="cls-3" d="M152.64,101.42v-34.38h13.75v6.64h-6.76v6.7h6.48v6.46h-6.48v7.87h7.21v6.7h-14.2Z"/><path class="cls-3" d="M178.48,101.42v-34.38h9.45c2.47,0,4.34,.69,5.59,2.06s1.88,3.38,1.88,6.03v16.09c0,3.25-.57,5.77-1.71,7.54s-3.13,2.66-5.99,2.66h-9.22Zm6.91-6.07h1.19c1.26,0,1.89-.61,1.89-1.84v-17.73c0-1.15-.15-1.88-.46-2.22s-.93-.5-1.87-.5h-.76v22.29Z"/><path class="cls-3" d="M206.16,101.73c-2.86,0-4.97-.8-6.33-2.41s-2.03-3.97-2.03-7.1v-25.18h6.68v24.9c0,.57,.03,1.12,.1,1.65s.21,.96,.45,1.3,.61,.51,1.13,.51,.92-.17,1.15-.5,.38-.76,.44-1.3,.09-1.09,.09-1.66v-24.9h6.68v25.18c0,3.12-.68,5.49-2.03,7.1s-3.46,2.41-6.33,2.41Z"/></g><g class="cls-8"><path class="cls-3" d="M70.49,149.42v-34.38h6.84v12.29h3.24v-12.29h6.84v34.38h-6.84v-15.59h-3.24v15.59h-6.84Z"/><path class="cls-3" d="M89.52,149.42l3.32-34.38h11.66l3.26,34.38h-6.5l-.49-5.55h-4.14l-.43,5.55h-6.68Zm7.6-11.04h3.12l-1.5-17.48h-.31l-1.31,17.48Z"/><path class="cls-3" d="M109.87,149.42v-34.38h10.55c1.76,0,3.09,.4,3.98,1.2s1.5,1.92,1.81,3.36c.31,1.44,.46,3.13,.46,5.07s-.24,3.37-.71,4.49c-.48,1.12-1.37,1.89-2.69,2.32,1.08,.22,1.84,.76,2.28,1.61,.44,.85,.65,1.96,.65,3.31v13.01h-6.78v-13.46c0-1-.21-1.62-.62-1.87s-1.07-.36-1.98-.36v15.68h-6.95Zm6.99-21.64h1.66c.95,0,1.43-1.04,1.43-3.11,0-1.34-.1-2.22-.31-2.64-.21-.42-.6-.62-1.17-.62h-1.6v6.37Z"/><path class="cls-3" d="M136.94,149.73c-2.49,0-4.49-.77-6.01-2.32-1.52-1.55-2.28-3.72-2.28-6.5v-15.86c0-3.33,.66-5.89,1.98-7.66,1.32-1.77,3.47-2.66,6.46-2.66,1.63,0,3.08,.3,4.35,.9s2.27,1.49,3,2.69c.73,1.19,1.09,2.69,1.09,4.5v5.94h-6.84v-5.08c0-1.03-.13-1.72-.39-2.08-.26-.36-.66-.54-1.21-.54-.64,0-1.07,.23-1.29,.69-.22,.46-.33,1.08-.33,1.85v17.21c0,.95,.14,1.62,.42,2.01,.28,.39,.68,.59,1.2,.59,.59,0,1-.24,1.24-.72,.24-.48,.36-1.11,.36-1.88v-6.19h6.91v6.5c0,3.02-.76,5.21-2.29,6.57s-3.65,2.04-6.39,2.04Z"/><path class="cls-3" d="M147.9,149.42v-34.38h13.75v6.64h-6.76v6.7h6.48v6.46h-6.48v7.87h7.21v6.7h-14.2Zm11.78-35.41l-9.28-1.84v-6.78l9.28,4.26v4.36Z"/><path class="cls-3" d="M164.36,149.42v-34.38h6.87v28.52h7.07v5.86h-13.94Z"/><path class="cls-3" d="M180.26,149.42v-34.38h13.75v6.64h-6.76v6.7h6.48v6.46h-6.48v7.87h7.21v6.7h-14.2Z"/><path class="cls-3" d="M196.72,149.42v-34.38h10.47l2.89,20.96,2.87-20.96h10.57v34.38h-6.29v-24.77l-3.95,24.77h-6.17l-4.18-24.77v24.77h-6.21Z"/><path class="cls-3" d="M226.57,149.42v-34.38h13.75v6.64h-6.76v6.7h6.48v6.46h-6.48v7.87h7.21v6.7h-14.2Z"/><path class="cls-3" d="M243.03,149.42v-34.38h7.07l3.16,16.46v-16.46h6.64v34.38h-6.72l-3.44-17.19v17.19h-6.72Z"/><path class="cls-3" d="M265.9,149.42v-27.77h-4.08v-6.6h15.04v6.6h-4.08v27.77h-6.88Z"/><path class="cls-3" d="M289.11,140.53v-8.12c1.63,0,3.02-.08,4.19-.25s2.12-.53,2.87-1.07,1.3-1.37,1.66-2.48,.54-2.59,.54-4.45c0-.85-.11-1.59-.32-2.23s-.71-.96-1.49-.96c-.56,0-.97,.18-1.23,.54s-.43,.81-.5,1.37-.11,1.13-.11,1.73v2.85h-7.15v-4.96c0-2.63,.84-4.58,2.51-5.85s3.83-1.9,6.47-1.9c2.32,0,4.14,.42,5.48,1.25s2.29,2.05,2.85,3.64,.85,3.54,.85,5.85-.37,4.26-1.1,6.04-1.85,3.16-3.35,4.18-3.39,1.52-5.66,1.52v3.32h-6.5Zm-.21,8.87v-5.82h6.99v5.82h-6.99Z"/></g><path class="cls-2" d="M179.06,195.73s-4.47,7.76-4.55,15.35c-.08,7.61-9.75,13.66-9.75,13.66l-8.5,142.39h-58.28s18.9-129.73,21.91-143.56c-10.33-20.13-16.4-32.93-15.47-36.7,1.92-7.82,5.12-24.18,5.12-24.18,0,0,5.17,.23,7.64,5.35,1.81,3.76,3.28,18.16,3.28,18.16,0,0,3.16,.72,8.08,8.94,7.79-2.91,19.83-2.96,26.91,.75,12.14-1.66,23.61-.18,23.61-.18v.02Z"/><path class="cls-7" d="M179.06,195.73s-4.47,7.76-4.55,15.35c-.08,7.61-9.75,13.66-9.75,13.66h-15.15l-3.88,17.12,.54-18.33s4.66-23.27-17.73-28.38c7.79-2.91,19.83-2.96,26.91,.75,12.14-1.66,23.61-.18,23.61-.18h0Z"/><path class="cls-3" d="M107.69,172.44s-.73-8.4,1.46-12.05c1.46,5.48-1.46,12.05-1.46,12.05Z"/><path class="cls-4" d="M161.53,358.63c-19.03-2.44-29.25-23.88-39.54-38.39l-5.73,28.13-1.92-40.24c-7.43-13.21-11.11-24.33-11.11-24.33l-28.82,449.54,91.46,43.81s-2.68-354.35-4.35-418.51h.01Z"/><path class="cls-5" d="M117.66,236.28s-12.97,15.38,18.76,52.96c20.51,24.29,40.27,16.59,24.58-1.58l-.16,2.68c7.27,18.74-15.07,.25-24.73-12.13-16.16-20.7-18.44-41.94-18.44-41.94h0Z"/></g></g></svg>