<?xml version="1.0" encoding="UTF-8"?><svg id="Calque_1" xmlns="http://www.w3.org/2000/svg" viewBox="0 0 218.3 694.5"><defs><style>.cls-1{fill:#f4f3f4;}.cls-2{fill:#fff;}.cls-3{fill:#f088b6;}.cls-4{fill:#1d1a38;}.cls-5{fill:#a29fcf;}.cls-6{fill:#965e5b;}.cls-7{isolation:isolate;}</style></defs><g id="pancarte_5"><g><polygon class="cls-4" points="202.5 27.7 201.9 45.9 197.7 177.5 178.8 177.1 21 173.8 14.6 25.8 202.5 27.7"/><g id="EST-CE_DU_HARCÈLEMENT___hover_5"><g class="cls-7"><path class="cls-1" d="M37.29,89.92v-20.07h8.03v3.88h-3.94v3.91h3.79v3.77h-3.79v4.59h4.21v3.91h-8.29Z"/><path class="cls-1" d="M51.67,90.1c-1.83,0-3.15-.46-3.96-1.37-.81-.91-1.21-2.36-1.21-4.36v-1.96h3.97v2.51c0,.46,.07,.83,.21,1.09,.14,.26,.39,.39,.74,.39s.62-.11,.76-.32,.21-.56,.21-1.05c0-.62-.06-1.13-.18-1.54s-.33-.81-.63-1.19-.72-.82-1.25-1.32l-1.8-1.71c-1.35-1.27-2.02-2.72-2.02-4.36s.4-3.01,1.19-3.91c.79-.9,1.94-1.35,3.45-1.35,1.84,0,3.15,.49,3.92,1.47s1.16,2.47,1.16,4.47h-4.08v-1.38c0-.27-.08-.49-.23-.64-.16-.15-.37-.23-.63-.23-.32,0-.55,.09-.7,.27s-.22,.41-.22,.69,.08,.58,.23,.91c.15,.33,.45,.7,.9,1.13l2.31,2.22c.46,.44,.89,.91,1.28,1.4,.39,.49,.7,1.06,.93,1.71,.24,.65,.35,1.44,.35,2.38,0,1.88-.35,3.36-1.04,4.43-.7,1.07-1.91,1.6-3.63,1.6Z"/><path class="cls-1" d="M59.4,89.92v-16.21h-2.38v-3.85h8.78v3.85h-2.38v16.21h-4.01Z"/><path class="cls-1" d="M66.7,84.12v-2.64h5.88v2.64h-5.88Z"/><path class="cls-1" d="M78.85,90.1c-1.45,0-2.62-.45-3.51-1.36-.89-.9-1.33-2.17-1.33-3.8v-9.26c0-1.95,.39-3.44,1.16-4.47,.77-1.03,2.03-1.55,3.77-1.55,.95,0,1.8,.17,2.54,.52s1.32,.87,1.75,1.57c.43,.7,.64,1.57,.64,2.63v3.47h-3.99v-2.96c0-.6-.08-1-.23-1.21-.15-.21-.39-.31-.71-.31-.37,0-.62,.13-.75,.4-.13,.27-.19,.63-.19,1.08v10.04c0,.56,.08,.95,.25,1.17,.16,.23,.4,.34,.7,.34,.34,0,.58-.14,.72-.42s.21-.65,.21-1.09v-3.61h4.04v3.8c0,1.76-.44,3.04-1.33,3.84-.89,.79-2.13,1.19-3.73,1.19Z"/><path class="cls-1" d="M85.24,89.92v-20.07h8.03v3.88h-3.94v3.91h3.79v3.77h-3.79v4.59h4.21v3.91h-8.29Z"/><path class="cls-1" d="M100.33,89.92v-20.07h5.52c1.44,0,2.53,.4,3.26,1.2,.73,.8,1.09,1.97,1.09,3.52v9.4c0,1.9-.33,3.37-1,4.4-.67,1.03-1.83,1.55-3.49,1.55h-5.38Zm4.04-3.55h.7c.74,0,1.11-.36,1.11-1.07v-10.35c0-.67-.09-1.1-.27-1.29-.18-.19-.54-.29-1.09-.29h-.44v13.01Z"/><path class="cls-1" d="M116.48,90.1c-1.67,0-2.9-.47-3.69-1.41-.79-.94-1.19-2.32-1.19-4.14v-14.7h3.9v14.54c0,.33,.02,.66,.06,.96s.13,.56,.26,.76c.14,.2,.36,.3,.66,.3s.54-.1,.67-.29c.14-.19,.22-.45,.26-.76s.05-.63,.05-.97v-14.54h3.9v14.7c0,1.82-.4,3.21-1.19,4.14-.79,.94-2.02,1.41-3.69,1.41Z"/></g><g class="cls-7"><path class="cls-1" d="M37.29,117.94v-20.07h3.99v7.17h1.89v-7.17h3.99v20.07h-3.99v-9.1h-1.89v9.1h-3.99Z"/><path class="cls-1" d="M48.39,117.94l1.94-20.07h6.81l1.9,20.07h-3.8l-.29-3.24h-2.42l-.25,3.24h-3.9Zm4.44-6.44h1.82l-.88-10.21h-.18l-.76,10.21Z"/><path class="cls-1" d="M60.27,117.94v-20.07h6.16c1.03,0,1.8,.23,2.33,.7s.88,1.12,1.05,1.96c.18,.84,.27,1.83,.27,2.96s-.14,1.97-.42,2.62c-.28,.65-.8,1.11-1.57,1.36,.63,.13,1.07,.44,1.33,.94,.25,.5,.38,1.14,.38,1.93v7.59h-3.96v-7.86c0-.58-.12-.95-.36-1.09s-.63-.21-1.16-.21v9.16h-4.06Zm4.08-12.63h.97c.55,0,.83-.6,.83-1.81,0-.78-.06-1.3-.18-1.54s-.35-.37-.68-.37h-.93v3.72Z"/><path class="cls-1" d="M76.08,118.12c-1.45,0-2.62-.45-3.51-1.36-.89-.9-1.33-2.17-1.33-3.8v-9.26c0-1.95,.39-3.44,1.16-4.47,.77-1.03,2.03-1.55,3.77-1.55,.95,0,1.8,.17,2.54,.52s1.32,.87,1.75,1.57c.43,.7,.64,1.57,.64,2.63v3.47h-3.99v-2.96c0-.6-.08-1-.23-1.21-.15-.21-.39-.31-.71-.31-.37,0-.62,.13-.75,.4-.13,.27-.19,.63-.19,1.08v10.04c0,.56,.08,.95,.25,1.17,.16,.23,.4,.34,.7,.34,.34,0,.58-.14,.72-.42s.21-.65,.21-1.09v-3.61h4.04v3.8c0,1.76-.44,3.04-1.33,3.84-.89,.79-2.13,1.19-3.73,1.19Z"/><path class="cls-1" d="M82.47,117.94v-20.07h8.03v3.88h-3.94v3.91h3.79v3.77h-3.79v4.59h4.21v3.91h-8.29Zm6.88-20.67l-5.42-1.07v-3.96l5.42,2.49v2.54Z"/><path class="cls-1" d="M92.08,117.94v-20.07h4.01v16.65h4.13v3.42h-8.14Z"/><path class="cls-1" d="M101.36,117.94v-20.07h8.03v3.88h-3.94v3.91h3.79v3.77h-3.79v4.59h4.21v3.91h-8.29Z"/><path class="cls-1" d="M110.98,117.94v-20.07h6.11l1.69,12.23,1.68-12.23h6.17v20.07h-3.67v-14.46l-2.3,14.46h-3.6l-2.44-14.46v14.46h-3.63Z"/><path class="cls-1" d="M128.4,117.94v-20.07h8.03v3.88h-3.95v3.91h3.79v3.77h-3.79v4.59h4.21v3.91h-8.29Z"/><path class="cls-1" d="M138.01,117.94v-20.07h4.13l1.85,9.61v-9.61h3.88v20.07h-3.92l-2.01-10.03v10.03h-3.92Z"/><path class="cls-1" d="M151.36,117.94v-16.21h-2.38v-3.85h8.78v3.85h-2.38v16.21h-4.01Z"/><path class="cls-1" d="M164.9,112.75v-4.74c.95,0,1.77-.05,2.45-.15,.68-.1,1.24-.31,1.68-.63,.44-.32,.76-.8,.97-1.45,.21-.65,.31-1.51,.31-2.6,0-.49-.06-.93-.19-1.3-.13-.37-.42-.56-.87-.56-.33,0-.57,.1-.72,.31s-.25,.47-.29,.8c-.04,.32-.06,.66-.06,1.01v1.67h-4.17v-2.9c0-1.54,.49-2.67,1.46-3.41,.98-.74,2.24-1.11,3.78-1.11,1.35,0,2.42,.24,3.2,.73,.78,.49,1.33,1.2,1.67,2.13,.33,.93,.5,2.07,.5,3.41s-.21,2.49-.64,3.52c-.43,1.03-1.08,1.85-1.96,2.44-.87,.59-1.98,.89-3.31,.89v1.94h-3.8Zm-.12,5.18v-3.4h4.08v3.4h-4.08Z"/></g></g></g><path class="cls-6" d="M150.9,312.7l-58-5.7-9.3-100.9s-10.6-6.6-10.7-14.9c-.1-8.3-5-16.8-5-16.8,0,0,36-7.8,55.2-.6,5.4-9,9.4-13.4,9.4-13.4,0,0-7.5-12.9-6-17.2s9.3-4.5,9.3-4.5c0,0,12.1,22,13.6,26s-5.5,30.8-16.9,40.1c3.4,15.1,18.4,107.9,18.4,107.9h0Z"/><polygon class="cls-3" points="86.5 241.3 97.1 666.4 189.1 622.2 142.9 233.8 86.5 241.3"/><polygon class="cls-5" points="82.4 233.8 82.4 245.5 146.1 241.8 143.2 228.7 82.4 233.8"/><circle class="cls-2" cx="92.4" cy="254.6" r="4.1"/><path class="cls-6" d="M121.6,173.7c-17.5,3.5-19.4,31-19.4,31l-2.4,11.6-3.6-10.3h-14.1s-10.6-6.6-10.7-14.9c-.1-8.3-5-16.8-5-16.8,0,0,36-7.7,55.2-.6h0Z"/></g></svg>