<?xml version="1.0" encoding="UTF-8"?><svg id="Calque_1" xmlns="http://www.w3.org/2000/svg" viewBox="0 0 232.4 731.3"><defs><style>.cls-1{fill:#f9b981;}.cls-2{fill:#6b2627;}.cls-3{fill:#f5a254;}.cls-4{fill:#fff;}.cls-5{fill:#d05a47;}.cls-6{fill:#be3271;}.cls-7{fill:#1d1a38;}.cls-8{fill:#a29fcf;}.cls-9{fill:#813939;}.cls-10{fill:#4d6fa9;}.cls-11{isolation:isolate;}</style></defs><g id="Calque_1-2"><g id="pancarte_8"><g><path class="cls-1" d="M96.2,250.7s16.2-7.5,18.4-16.6h-8.7l-5.8,1.9-2.2,7.1-1.7,7.6h0Z"/><path class="cls-1" d="M37,423.6l16.6-160.4c1.5-14.7,5.3-29.1,11.3-42.5,.9-2,1.8-4.1,2.6-6.4,5.2-13.8,8-12.2,11.5-13.6,6.2-2.5,18-6.9,19.3-5.3,.9,1.2,.2,4.3-1.7,7.5,2.2-.6,3.9-1.1,3.9-1.1l1.9,13.4-7.4,2.9,8.8,24.9s-8.9,14.8-27.1,13.9l3.3,166.7H37Z"/><g><g><path class="cls-9" d="M92.1,208c.1-.1,.1-.3,0-.4-.1-.1-.3-.1-.4,0-2.2,2.1-5.3,3.4-8.4,3.7-.1,0-.2,.1-.2,.1-.1,.1-.1,.2-.1,.2,1.4,7.6,.2,15-3.9,22.6-.1,.2,0,.4,.1,.4h.1c.1,0,.3,0,.3-.2,4.1-7.7,5.4-15.1,4-22.7,3.2-.1,6.3-1.6,8.5-3.7h0Z"/><path class="cls-9" d="M71.6,249.4c-.1-.2-.2-.3-.4-.2-.2,.1-.3,.2-.2,.4,1,3.1,3.1,5.7,5.7,7.5l.2-.2c.3,0,.6,0,.8,.1-2.9-1.7-5.1-4.4-6.1-7.6h0Z"/><path class="cls-9" d="M82.4,239.6c.7,.3,1.3,.5,2.1,.7,1.2,.2,2.5,.2,3.8-.1,.2-.1,.3-.2,.2-.4-.1-.2-.2-.3-.4-.2-1.8,.5-3.7,.3-5.3-.5-.2-.1-.3,0-.4,.1-.3,.1-.2,.3,0,.4h0Z"/></g><g><path class="cls-9" d="M105.4,211.7c-.1,0-.2-.1-.3-.2-.1-.1,0-.3,.1-.4,1.8-.9,3.7-1.6,5.7-2-.1,.1-.3,.2-.4,.3,.6-.1,1.2,0,1.7,.1-2.3,.4-4.6,1.1-6.7,2.2,0-.1-.1-.1-.1,0h0Z"/><path class="cls-9" d="M112.9,219.2c.3,.1,.5,.2,.8,.3-2.5-.2-5.1,.2-7.4,1.2h-.1c-.1,0-.2-.1-.3-.2-.1-.1,0-.3,.2-.4,2.3-1,4.9-1.5,7.4-1.3-.3,.3-.4,.3-.6,.4h0Z"/><path class="cls-9" d="M105,230.9h-.1c-.1,0-.2-.1-.3-.2-.1-.1,0-.3,.1-.4,2.2-1.1,4.6-1.7,7.1-1.9-.4,.2-.8,.4-1.2,.5,.3,0,.6,0,.9,.1-2.3,.3-4.5,.9-6.5,1.9h0Z"/></g></g></g><path class="cls-2" d="M96.1,306.4c-2.1-.3-3.8-2.2-3.8-4.4l-.5-142.7c0-2.5,2-4.5,4.5-4.5s4.5,2,4.5,4.5l.5,142.7c0,2.5-2,4.5-4.5,4.5-.2-.1-.4-.1-.7-.1h0Z"/><g id="EST-CE_DU_HARCÈLEMENT___hover_8"><path class="cls-7" d="M208.5,39.8l7.4,133.5c.2,3.5-3.7,6.5-8.5,6.5H27.2c-4.8,0-8.6-2.9-8.5-6.4L23.1,39.9c.1-3.4,3.9-6.1,8.5-6.1H199.9c4.6,.1,8.4,2.7,8.6,6h0Z"/><g class="cls-11"><path class="cls-4" d="M40.13,101.31v-21.78h8.71v4.21h-4.28v4.24h4.11v4.1h-4.11v4.99h4.57v4.24h-9Z"/><path class="cls-4" d="M55.73,101.51c-1.99,0-3.42-.5-4.3-1.49-.88-.99-1.32-2.57-1.32-4.73v-2.13h4.31v2.72c0,.5,.08,.9,.23,1.18,.15,.28,.42,.43,.8,.43s.67-.12,.82-.35c.15-.23,.23-.61,.23-1.14,0-.67-.07-1.23-.2-1.68-.13-.45-.36-.88-.69-1.29-.33-.41-.78-.88-1.35-1.43l-1.96-1.86c-1.46-1.38-2.19-2.95-2.19-4.73s.43-3.27,1.29-4.24c.86-.97,2.11-1.46,3.74-1.46,2,0,3.41,.53,4.25,1.6,.84,1.06,1.26,2.68,1.26,4.85h-4.43v-1.5c0-.3-.08-.53-.25-.69-.17-.17-.4-.25-.69-.25-.35,0-.6,.1-.76,.29s-.24,.44-.24,.75,.08,.64,.25,.99c.16,.35,.49,.76,.98,1.22l2.51,2.41c.5,.48,.96,.98,1.39,1.52,.42,.53,.76,1.15,1.01,1.86,.26,.71,.38,1.56,.38,2.58,0,2.05-.38,3.65-1.13,4.81-.75,1.16-2.07,1.74-3.94,1.74Z"/><path class="cls-4" d="M64.12,101.31v-17.59h-2.59v-4.18h9.53v4.18h-2.59v17.59h-4.36Z"/><path class="cls-4" d="M72.05,95.01v-2.87h6.38v2.87h-6.38Z"/><path class="cls-4" d="M85.23,101.51c-1.58,0-2.84-.49-3.8-1.47s-1.44-2.35-1.44-4.12v-10.05c0-2.11,.42-3.73,1.26-4.85,.84-1.12,2.2-1.68,4.09-1.68,1.03,0,1.95,.19,2.75,.57s1.44,.95,1.9,1.7,.69,1.71,.69,2.85v3.76h-4.33v-3.22c0-.65-.08-1.09-.25-1.32-.17-.23-.42-.34-.77-.34-.4,0-.68,.15-.82,.44s-.21,.68-.21,1.17v10.9c0,.6,.09,1.03,.27,1.27,.18,.25,.43,.37,.76,.37,.37,0,.63-.15,.79-.46,.15-.31,.23-.7,.23-1.19v-3.92h4.38v4.12c0,1.91-.48,3.3-1.45,4.16-.96,.86-2.31,1.29-4.05,1.29Z"/><path class="cls-4" d="M92.17,101.31v-21.78h8.71v4.21h-4.28v4.24h4.11v4.1h-4.11v4.99h4.57v4.24h-9Z"/><path class="cls-4" d="M108.54,101.31v-21.78h5.99c1.57,0,2.75,.43,3.54,1.3,.79,.87,1.19,2.14,1.19,3.82v10.2c0,2.06-.36,3.65-1.08,4.78s-1.99,1.68-3.79,1.68h-5.84Zm4.38-3.85h.75c.8,0,1.2-.39,1.2-1.16v-11.24c0-.73-.1-1.19-.29-1.4-.19-.21-.59-.32-1.18-.32h-.48v14.12Z"/><path class="cls-4" d="M126.07,101.51c-1.82,0-3.15-.51-4.01-1.53-.86-1.02-1.29-2.52-1.29-4.5v-15.95h4.23v15.78c0,.36,.02,.71,.06,1.05,.04,.33,.14,.61,.29,.82,.15,.21,.39,.32,.72,.32s.58-.11,.73-.32c.15-.21,.24-.49,.28-.82s.06-.69,.06-1.05v-15.78h4.23v15.95c0,1.98-.43,3.48-1.29,4.5-.86,1.02-2.19,1.53-4.01,1.53Z"/></g><g class="cls-11"><path class="cls-4" d="M40.13,131.72v-21.78h4.33v7.78h2.05v-7.78h4.33v21.78h-4.33v-9.87h-2.05v9.87h-4.33Z"/><path class="cls-4" d="M52.18,131.72l2.1-21.78h7.39l2.07,21.78h-4.12l-.31-3.51h-2.62l-.27,3.51h-4.23Zm4.81-6.99h1.98l-.95-11.07h-.2l-.83,11.07Z"/><path class="cls-4" d="M65.07,131.72v-21.78h6.68c1.11,0,1.96,.25,2.52,.76,.57,.51,.95,1.22,1.14,2.13,.19,.91,.29,1.98,.29,3.21s-.15,2.14-.45,2.85c-.3,.71-.87,1.2-1.7,1.47,.68,.14,1.17,.48,1.44,1.02,.28,.54,.41,1.24,.41,2.1v8.24h-4.29v-8.53c0-.63-.13-1.03-.39-1.18-.26-.15-.68-.23-1.26-.23v9.94h-4.4Zm4.43-13.71h1.05c.6,0,.9-.66,.9-1.97,0-.85-.07-1.41-.2-1.67s-.38-.4-.74-.4h-1.01v4.03Z"/><path class="cls-4" d="M82.22,131.92c-1.58,0-2.84-.49-3.8-1.47s-1.44-2.35-1.44-4.12v-10.05c0-2.11,.42-3.73,1.26-4.85,.84-1.12,2.2-1.68,4.09-1.68,1.03,0,1.95,.19,2.75,.57s1.44,.95,1.9,1.7,.69,1.71,.69,2.85v3.76h-4.33v-3.22c0-.65-.08-1.09-.25-1.32-.17-.23-.42-.34-.77-.34-.4,0-.68,.15-.82,.44s-.21,.68-.21,1.17v10.9c0,.6,.09,1.03,.27,1.27,.18,.25,.43,.37,.76,.37,.37,0,.63-.15,.79-.46,.15-.31,.23-.7,.23-1.19v-3.92h4.38v4.12c0,1.91-.48,3.3-1.45,4.16-.96,.86-2.31,1.29-4.05,1.29Z"/><path class="cls-4" d="M89.16,131.72v-21.78h8.71v4.21h-4.28v4.24h4.11v4.1h-4.11v4.99h4.57v4.24h-9Zm7.46-22.43l-5.88-1.16v-4.29l5.88,2.7v2.76Z"/><path class="cls-4" d="M99.59,131.72v-21.78h4.35v18.06h4.48v3.71h-8.83Z"/><path class="cls-4" d="M109.66,131.72v-21.78h8.71v4.21h-4.28v4.24h4.11v4.1h-4.11v4.99h4.57v4.24h-9Z"/><path class="cls-4" d="M120.09,131.72v-21.78h6.63l1.83,13.28,1.82-13.28h6.69v21.78h-3.98v-15.69l-2.5,15.69h-3.91l-2.65-15.69v15.69h-3.93Z"/><path class="cls-4" d="M139,131.72v-21.78h8.71v4.21h-4.28v4.24h4.11v4.1h-4.11v4.99h4.57v4.24h-9Z"/><path class="cls-4" d="M149.43,131.72v-21.78h4.48l2,10.43v-10.43h4.21v21.78h-4.26l-2.18-10.89v10.89h-4.26Z"/><path class="cls-4" d="M163.92,131.72v-17.59h-2.59v-4.18h9.53v4.18h-2.59v17.59h-4.36Z"/><path class="cls-4" d="M178.62,126.09v-5.15c1.03,0,1.92-.05,2.65-.16s1.34-.33,1.82-.68c.47-.35,.82-.87,1.05-1.57,.23-.7,.34-1.64,.34-2.82,0-.54-.07-1.01-.2-1.41-.14-.4-.45-.61-.95-.61-.36,0-.62,.11-.78,.34-.17,.23-.27,.52-.32,.87-.04,.35-.07,.72-.07,1.09v1.81h-4.53v-3.14c0-1.67,.53-2.9,1.59-3.71,1.06-.8,2.43-1.21,4.1-1.21,1.47,0,2.62,.26,3.47,.79,.84,.53,1.45,1.3,1.81,2.31,.36,1.01,.54,2.25,.54,3.71s-.23,2.7-.7,3.82c-.47,1.12-1.17,2-2.12,2.65-.95,.64-2.15,.96-3.59,.96v2.1h-4.12Zm-.14,5.62v-3.69h4.43v3.69h-4.43Z"/></g></g><path class="cls-5" d="M93.4,207.1h0q-.1,0-.1,.1l.1-.1h0Z"/><g><path class="cls-8" d="M79.1,300.4s4.4-20.7,1.8-28.6c-2.7-8-26.7-14.6-30-5.8s-4.1,29.1-4.1,29.1l32.3,5.3h0Z"/><g><path class="cls-10" d="M72.8,295.1c3.8-8.6,5.5-17.9,5.1-27.2l.3,.3c.3,9.3-1.4,18.5-5.2,27.1l-.2-.2h0Z"/><path class="cls-10" d="M55.1,288.9h-.3c-1.1-9-.3-18.2,2.2-27h.3c-2.5,8.7-3.3,17.9-2.2,27h0Z"/><path class="cls-10" d="M64.3,289.6h.1l-.2,1h-.3l2.5-28c.1,0,.2,0,.3,.1l-2.4,26.9h0Z"/><path class="cls-10" d="M59.3,287.2h-.3l2.2-25.4h.3l-2.2,24.6h.1l-.1,.8h0Z"/><path class="cls-10" d="M68.7,289.9l-.3-.1c1.7-8.3,2.9-16.8,3.9-25.2,.1,0,.2,.1,.3,.1-1,8.4-2.3,16.9-3.9,25.2h0Z"/></g><path class="cls-3" d="M83.7,710.3s3.5-378-1.5-406.4c-4.9-28.4-30.5-32.1-37.6-6.1s-28.5,388.8-28.5,388.8l67.6,23.7h0Z"/><g><path class="cls-4" d="M57.3,397.6c-1.5-.7-2.4-2.5-1.9-4.1s2.4-2.6,4-2.2,2.7,2.3,2.2,3.8c.5-1.3,1.1-2.6,1.7-3.9,.3-.6,.6-1.3,1.3-1.3,.4,0,.8,.2,1,.5s.3,.7,.4,1.1c.3,1.5,.3,3.1-.1,4.6,.8-.2,1.5-.5,2.3-.5,1.2-.1,2.4,.1,3.3,.8,.6,.5,1,1.2,1.3,2h-21.7c2-.8,4.2-1.1,6.2-.8h0Z"/><path class="cls-4" d="M81.4,347.7c-1.2-1.3-1.5-3.1-1.6-4.8-.6,.9-1.2,1.8-2,2.4-.9,.6-2.1,.9-3,.4-1.4-.7-1.5-2.7-.7-4s2.2-2.1,3.6-2.8c-1-.5-2.1-1-2.8-1.8-.7-.8-1.1-2.1-.6-3.1,.8-1.4,3-1.4,4.5-.7,1.6,.7,3,1.8,4,3.2,0-1-.1-2,.3-3,.2-.5,.5-1,.9-1.4,.1,5.5,.2,11.1,.3,16.7-1.1,0-2.2-.4-2.9-1.1h0Z"/><path class="cls-4" d="M83.2,314.4c.5,1.4-.9,3-2.4,3s-2.9-1.3-3.1-2.7c-.3-1.5,.4-3,1.4-4.1-1,.6-2.1,1.2-3.3,1.3s-2.5-.7-2.6-1.8c-.1-1.2,1.1-2.2,2.2-2.8,1.2-.6,2.4-1,3.7-1.3-1.1-.3-2.3-.7-3-1.6s-1-2.3-.1-3c.7-.6,1.8-.5,2.6,.1,.8,.5,1.2,1.4,1.6,2.2-.4-1.6-.2-4.6,2.3-3.6h0c.4,3.9,.8,9,1,14.6-.2,0-.3-.2-.3-.3h0Z"/><path class="cls-4" d="M79.7,382.2c-.9-1.6-.8-3.5-.8-5.3-1.1,.9-2.3,1.9-3.7,2.2-1.4,.3-3.2-.2-3.7-1.5-.5-1.2,.2-2.6,1.2-3.4s2.4-1.1,3.7-1.4c-1.7,0-2.5-2.5-1.4-3.8s3.2-1.4,4.7-.7c1.6,.7,2.7,2,3.8,3.3-.3-1.1-.7-2.3-.5-3.5,.1-1,.6-2,1.4-2.5v18.4c-1.7,.8-3.9-.3-4.7-1.8h0Z"/><path class="cls-4" d="M54.7,282.2c1.3,.6,2,2.4,1.5,3.9-.5,1.7-1.9,2.5-3.3,3.5,.5,1,1.9,1.7,2.4,2.9,.6,1.2,.5,2.8-.6,3.6-.9,.7-2.3,.6-3.3,0s-1.7-1.5-2.3-2.5c-.1,1.1-.2,2.2-.7,3.2s-1.4,1.9-2.6,2c-.5,.1-1,0-1.4-.1,.8-3.9,1.6-6.9,2.3-8.6,.8-1.7,1.8-3.2,3-4.5,.2,.6,.3,1.2,.2,1.9,.1-.8,.2-1.7,.4-2.5,1.4-1.2,2.9-2.1,4.4-2.8h0Z"/><path class="cls-4" d="M37.5,366c.2,.3,.4,.7,.5,1l.3,.9c1.1-.4,2.5-.4,3.4,.3,.9,.7,1.2,2,.7,3-.4,.8-1.2,1.3-2.1,1.4,1.9,.2,3.5,1.8,3.7,3.6,.2,2-1.5,4.1-3.5,4.4-1.7,.2-3.5-.8-4.3-2.2,.4-3.8,.8-8,1.3-12.4h0Z"/><path class="cls-4" d="M62.8,319c-.4,1.2-1.8,1.9-3.1,1.7s-2.5-.8-3.6-1.5c.7,.6,1.3,1.4,1.4,2.3s-.5,1.9-1.4,2.1c-.8,.2-1.6-.3-2-.9s-.7-1.4-.9-2.1c.3,1.7-1.2,3.4-3,3.4s-3.3-1.7-3-3.3c.2-1.2,1-2.1,2.1-2.8,1-.6,2.2-.9,3.4-1.2-1.8-.1-3.6-1.4-3.8-3.1-.2-1.8,1.7-3.6,3.6-3.3,1.3,.2,2.3,1.4,2.5,2.6,.1-.8,.4-1.5,.9-2.1,.8-1,2.6-1.4,3.5-.4,.7,.8,.5,1.9,.3,2.9-.2,.7-.5,1.5-.8,2.2,.8,.1,1.5,.2,2.1,.5,1.2,.4,2.2,1.7,1.8,3h0Z"/><path class="cls-4" d="M57.3,359.8c-.7,1-2.1,1.4-3.4,1.1-1.2-.3-2.2-1.2-2.8-2.3-.6-1.1-.9-2.3-1.1-3.5-.9,.7-1.9,1.5-3.1,1.8s-2.6-.2-3.1-1.3c-.5-1.1,.3-2.5,1.5-3s2.4-.6,3.7-.6c-.8-.8-1.6-1.7-1.8-2.8s.2-2.4,1.2-2.9c1.2-.6,2.7,.1,3.5,1.2s1,2.4,1.1,3.7c.1-1.7,.2-3.5,1.3-4.9s3.4-2,4.6-.7c1.1,1.2,.6,3,.1,4.5-.2,.7-.5,1.3-.7,2,.3,.1,.6,.1,.8,.2,1.3,.5,2.5,1.5,2.6,2.9,.1,1.2-.7,2.4-1.9,2.8-.8,.2-1.7,.1-2.4-.4,.4,.6,.4,1.6-.1,2.2h0Z"/></g></g><g><g><path class="cls-1" d="M113.2,201.6c-1.6-2.4-5.5-2-8.1-.6-3.8,1.9-9.4,5.2-9.5,8.1-.2,4.5,6.3,4,11.3,2.1,4-1.6,9.3-5,6.3-9.6h0Z"/><path class="cls-1" d="M96.3,215.2c2.3-2,8.9-4.3,13-5.6,3.8-1.2,6.8,1.6,6.8,5,0,3-1.9,5.4-11.6,6.8s-11.5-3.3-8.2-6.2h0Z"/><path class="cls-1" d="M111.9,219c-3.2-.5-12.4,3.3-15.6,5.7s-.8,8.5,8.1,6c3.8-1.1,11.5-2,11.1-7.3-.1-.9-.2-1.8-.6-2.5-.6-1.3-1.8-1.7-3-1.9h0Z"/><path class="cls-1" d="M107.5,229.5c-3.7,1-12.9,4.5-11,10.1,1.6,4.6,10.6,.4,15-1.3,4.3-1.9,5.4-11.4-4-8.8h0Z"/><path class="cls-6" d="M104.1,204.9s2.4,1.4,.9,4.1c-1.6,2.7-7.3,3.2-8.7,3.3-1.2,0-2.2-1.7-1.7-2.7,.2-.4,.5-.6,.8-.9,1.3-1.2,2.8-2.2,4.4-3.1,1.3-1,2.7-1.6,4.3-.7h0Z"/><path class="cls-6" d="M104.1,214.3s2.6,1.9,.4,4.8c-2.2,2.9-8.9,2.6-10.5,2.4-1.4-.1-2.2-2.3-1.5-3.4,.3-.4,.6-.7,1-.9,1.7-1.2,3.6-2,5.5-2.8,1.8-.8,3.5-1.3,5.1-.1h0Z"/><path class="cls-6" d="M102.8,224.8s2.3,1.7,.3,4.3-7.9,2.3-9.4,2.1c-1.3-.1-2-2-1.3-3,.2-.3,.6-.6,.9-.8,1.5-1,3.2-1.8,4.9-2.5,1.7-.7,3.2-1.2,4.6-.1h0Z"/><path class="cls-6" d="M103.6,234.7s2.2,1.1,.9,3.6-6.5,3.1-7.8,3.2c-1.1,.1-2-1.4-1.6-2.4,.2-.3,.4-.6,.7-.8,1.2-1.1,2.5-2.1,3.9-2.9,1.2-.8,2.4-1.4,3.9-.7Z"/></g><g><path class="cls-1" d="M79.1,200.7c-3.3,1.3-5.9,0-10.5,11.2,0,.1,4.9,1.2,5.4,1.3,1.9,.3,3.8,.4,5.7,.3,2.5-.1,4.9-.9,7.2-2,2.3-1.2,4.7-2.5,6.6-4.4,2-1.9,3.6-4.3,4.6-6.9,.5-1.3,1.4-3.6,.4-4.9-1.5-1.6-13.2,2.9-19.4,5.4h0Z"/><path class="cls-6" d="M86.1,197.9s-.1,2.2,2.9,2c2.5-.2,7.7-2,10.1-4.2,.6-.6,.2-1.6-.6-1.6h0c-1.2,.1-12.4,3.8-12.4,3.8h0Z"/></g></g></g></g></svg>