<?xml version="1.0" encoding="UTF-8"?><svg id="Calque_1" xmlns="http://www.w3.org/2000/svg" viewBox="0 0 323.1 873.1"><defs><style>.cls-1{fill:#f9c4a6;}.cls-2{fill:#f9b981;}.cls-3{fill:#fff;}.cls-4{fill:#ba7c5f;}.cls-5{fill:#1d1a38;}.cls-6{fill:#a29fcf;}.cls-7{fill:#2e307e;}.cls-8{fill:#4d6fa9;}.cls-9{fill:#885055;opacity:.2;}.cls-9,.cls-10{isolation:isolate;}</style></defs><g id="Calque_1-2"><g><g><path class="cls-4" d="M169.5,374h-15.6V47.6c0-6.5,3.5-11.8,7.8-11.8h0c4.3,0,7.8,5.3,7.8,11.8V374h0Z"/><rect class="cls-9" x="153.9" y="257.4" width="15.6" height="11.9"/><g id="EST-CE_DU_HARCÈLEMENT___hover_2"><polygon class="cls-5" points="304.8 221.7 23 217.1 30.2 49.7 298.1 49.7 304.8 221.7"/><g class="cls-10"><path class="cls-3" d="M75.04,124.95v-27.05h10.82v5.23h-5.32v5.27h5.1v5.09h-5.1v6.19h5.67v5.27h-11.17Z"/><path class="cls-3" d="M94.42,125.2c-2.47,0-4.25-.62-5.34-1.84s-1.64-3.19-1.64-5.87v-2.64h5.35v3.38c0,.62,.09,1.11,.28,1.47,.19,.35,.52,.53,.99,.53s.83-.14,1.02-.43c.19-.29,.28-.76,.28-1.41,0-.83-.08-1.52-.25-2.08s-.45-1.09-.85-1.6c-.4-.51-.97-1.1-1.68-1.78l-2.43-2.31c-1.81-1.71-2.72-3.67-2.72-5.87s.54-4.06,1.61-5.27,2.62-1.81,4.65-1.81c2.48,0,4.24,.66,5.28,1.98,1.04,1.32,1.56,3.33,1.56,6.03h-5.5v-1.86c0-.37-.1-.66-.31-.86-.21-.2-.49-.31-.85-.31-.43,0-.75,.12-.95,.36-.2,.24-.3,.55-.3,.93s.1,.79,.31,1.23c.2,.44,.61,.95,1.21,1.52l3.12,3c.62,.59,1.2,1.22,1.72,1.88,.52,.66,.94,1.43,1.26,2.31,.32,.88,.48,1.94,.48,3.2,0,2.54-.47,4.53-1.41,5.97-.94,1.44-2.57,2.16-4.9,2.16Z"/><path class="cls-3" d="M104.84,124.95v-21.86h-3.21v-5.2h11.84v5.2h-3.21v21.86h-5.41Z"/><path class="cls-3" d="M114.7,117.13v-3.57h7.93v3.57h-7.93Z"/><path class="cls-3" d="M131.07,125.2c-1.96,0-3.53-.61-4.73-1.83s-1.79-2.93-1.79-5.12v-12.48c0-2.62,.52-4.63,1.56-6.03,1.04-1.39,2.73-2.09,5.08-2.09,1.28,0,2.42,.24,3.42,.71,1,.47,1.79,1.18,2.36,2.11,.57,.94,.86,2.12,.86,3.54v4.67h-5.38v-4c0-.81-.1-1.36-.31-1.64-.21-.28-.52-.42-.95-.42-.5,0-.84,.18-1.01,.54-.17,.36-.26,.85-.26,1.45v13.54c0,.75,.11,1.28,.33,1.58s.54,.46,.95,.46c.46,0,.79-.19,.98-.57,.19-.38,.28-.87,.28-1.48v-4.87h5.44v5.12c0,2.38-.6,4.1-1.8,5.17-1.2,1.07-2.87,1.61-5.03,1.61Z"/><path class="cls-3" d="M139.69,124.95v-27.05h10.82v5.23h-5.32v5.27h5.1v5.09h-5.1v6.19h5.67v5.27h-11.17Z"/><path class="cls-3" d="M160.02,124.95v-27.05h7.44c1.95,0,3.41,.54,4.4,1.62,.98,1.08,1.48,2.66,1.48,4.74v12.67c0,2.56-.45,4.54-1.34,5.93-.9,1.39-2.47,2.09-4.71,2.09h-7.26Zm5.44-4.78h.94c.99,0,1.49-.48,1.49-1.45v-13.96c0-.9-.12-1.48-.36-1.74-.24-.26-.73-.39-1.47-.39h-.6v17.54Z"/><path class="cls-3" d="M181.81,125.2c-2.25,0-3.91-.63-4.98-1.9-1.07-1.27-1.6-3.13-1.6-5.59v-19.81h5.26v19.6c0,.45,.03,.88,.08,1.3,.05,.42,.17,.76,.35,1.02s.48,.4,.89,.4,.72-.13,.91-.39c.18-.26,.3-.6,.35-1.02s.07-.86,.07-1.31v-19.6h5.26v19.81c0,2.46-.53,4.32-1.6,5.59-1.07,1.27-2.73,1.9-4.98,1.9Z"/></g><g class="cls-10"><path class="cls-3" d="M75.04,162.72v-27.05h5.38v9.67h2.55v-9.67h5.38v27.05h-5.38v-12.27h-2.55v12.27h-5.38Z"/><path class="cls-3" d="M90.01,162.72l2.61-27.05h9.18l2.57,27.05h-5.12l-.38-4.37h-3.26l-.34,4.37h-5.26Zm5.98-8.68h2.46l-1.18-13.76h-.25l-1.03,13.76Z"/><path class="cls-3" d="M106.03,162.72v-27.05h8.3c1.38,0,2.43,.31,3.14,.95,.71,.63,1.18,1.51,1.42,2.64s.36,2.46,.36,3.99-.19,2.65-.56,3.54c-.37,.88-1.08,1.49-2.11,1.83,.85,.17,1.45,.6,1.79,1.27,.34,.67,.52,1.54,.52,2.61v10.24h-5.33v-10.59c0-.79-.16-1.28-.48-1.47-.32-.19-.84-.28-1.56-.28v12.34h-5.47Zm5.5-17.03h1.31c.75,0,1.12-.81,1.12-2.44,0-1.05-.08-1.75-.25-2.07-.16-.33-.47-.49-.92-.49h-1.26v5.01Z"/><path class="cls-3" d="M127.33,162.97c-1.96,0-3.53-.61-4.73-1.83s-1.79-2.93-1.79-5.12v-12.48c0-2.62,.52-4.63,1.56-6.03,1.04-1.39,2.73-2.09,5.08-2.09,1.28,0,2.42,.24,3.42,.71,1,.47,1.79,1.18,2.36,2.11,.57,.94,.86,2.12,.86,3.54v4.67h-5.38v-4c0-.81-.1-1.36-.31-1.64-.21-.28-.52-.42-.95-.42-.5,0-.84,.18-1.01,.54-.17,.36-.26,.85-.26,1.45v13.54c0,.75,.11,1.28,.33,1.58s.54,.46,.95,.46c.46,0,.79-.19,.98-.57,.19-.38,.28-.87,.28-1.48v-4.87h5.44v5.12c0,2.38-.6,4.1-1.8,5.17-1.2,1.07-2.87,1.61-5.03,1.61Z"/><path class="cls-3" d="M135.95,162.72v-27.05h10.82v5.23h-5.32v5.27h5.1v5.09h-5.1v6.19h5.67v5.27h-11.17Zm9.27-27.87l-7.3-1.44v-5.33l7.3,3.35v3.43Z"/><path class="cls-3" d="M148.91,162.72v-27.05h5.41v22.44h5.56v4.61h-10.98Z"/><path class="cls-3" d="M161.42,162.72v-27.05h10.82v5.23h-5.32v5.27h5.1v5.09h-5.1v6.19h5.67v5.27h-11.17Z"/><path class="cls-3" d="M174.38,162.72v-27.05h8.24l2.28,16.49,2.26-16.49h8.32v27.05h-4.95v-19.49l-3.1,19.49h-4.86l-3.29-19.49v19.49h-4.89Z"/><path class="cls-3" d="M197.87,162.72v-27.05h10.82v5.23h-5.32v5.27h5.1v5.09h-5.1v6.19h5.67v5.27h-11.17Z"/><path class="cls-3" d="M210.83,162.72v-27.05h5.56l2.49,12.96v-12.96h5.23v27.05h-5.29l-2.71-13.53v13.53h-5.29Z"/><path class="cls-3" d="M228.83,162.72v-21.86h-3.21v-5.2h11.84v5.2h-3.21v21.86h-5.41Z"/><path class="cls-3" d="M247.09,155.73v-6.39c1.28,0,2.38-.07,3.3-.2s1.67-.42,2.26-.85c.59-.43,1.02-1.08,1.31-1.95,.28-.87,.42-2.04,.42-3.5,0-.67-.08-1.25-.25-1.75s-.56-.75-1.18-.75c-.44,0-.76,.14-.97,.42-.21,.28-.34,.64-.39,1.08-.06,.44-.08,.89-.08,1.36v2.24h-5.63v-3.9c0-2.07,.66-3.6,1.98-4.6,1.32-1,3.01-1.5,5.1-1.5,1.82,0,3.26,.33,4.31,.98,1.05,.66,1.8,1.61,2.24,2.87,.45,1.25,.67,2.79,.67,4.6s-.29,3.36-.87,4.75c-.58,1.39-1.46,2.49-2.64,3.29-1.18,.8-2.67,1.2-4.46,1.2v2.61h-5.12Zm-.17,6.98v-4.58h5.5v4.58h-5.5Z"/></g></g></g><path class="cls-2" d="M124.9,314.2s-8.6,19.2-3.7,36.4c-1.1,15.6-4.3,78.8-4.3,78.8,0,0,41.5,1.1,42.1,0,.5-1.1-2.7-65.5-2.7-65.5,0,0,19.2-4.6,22.9-11.8,2.5-5-1.2-8.8-1.2-8.8,0,0,5.1-2,5.6-7.9,.3-4.6-5.1-7.4-5.1-7.4,0,0,5.6-1.6,5.8-7.1s-6.7-8.7-6.7-8.7c0,0,6.8-4,4.4-8.4-3.7-6.9-37.5-3.1-37.5-3.1,0,0-15.1,6.8-19.6,13.5h0Z"/><polygon class="cls-6" points="189.2 803.6 112.3 844.3 112.3 425.9 163.8 425.9 164.5 437.6 168 493.9 189.2 803.6"/><path class="cls-8" d="M168,467.9c-5.2,1-10.4,1.6-15.7,1.8-13.7,.5-27.9-2.1-40-8.3v-21.8c8.2-2.6,16.9-4.1,25.4-5,8.9-.9,17.9-1.4,26.8-1.5l3.5,34.8h0Z"/><path class="cls-7" d="M112.3,419.7l-2.6,26.5s20,9.3,34.3,9.2,26.8-11.8,26.8-11.8l-6.7-23.9c.1,0-16.6,7-51.8,0h0Z"/><path class="cls-3" d="M124.9,434.6c0,2.7-1.8,5-4,5s-4-2.2-4-5,1.8-5,4-5,4,2.3,4,5Z"/><path class="cls-9" d="M164.3,299.7c.1,0-5.2-.3-6.6,4-.8,2.6,0,6.1,4,6.4-5,1.5-5.9,4.2-6,6.4-.2,4.6,4.1,7.3,4.1,7.3,0,0-5.8,1.4-5.9,6.6-.2,5.8,5.8,7.8,5.8,7.8,0,0-6.4-.9-7.1,4.7-.7,5.6,9.3,9.1,9.3,9.1,0,0-13-1.9-18.7-1.9,6.4-6.3,3.7-23.6-2.4-31.5,10-4.2,8.3-17.9,8.3-17.9,0,0,10.4-2.1,15.2-1h0Z"/><path class="cls-4" d="M164.3,299.7c-2.6-.6-7-.2-10.4,.3v29.5c.8-4.4,5.8-5.7,5.8-5.7,0,0-4.2-2.7-4.1-7.3,.1-2.2,1-4.9,6-6.4-4-.3-5-3.9-4-6.4,1.7-4,6.8-4,6.7-4h0Z"/><path class="cls-4" d="M153.9,347.1v26.9c1.4,.2,9.9,4.7,15.6,0,0-12.4,.1-19.2,.1-19.2-3.8-.7-7.6-3.5-7.6-3.5,0,0-5.4-1-8.1-4.2h0Z"/><path class="cls-4" d="M159.6,338.2s-5-1.7-5.7-6.4v8c2.2-2,5.7-1.6,5.7-1.6h0Z"/><path class="cls-2" d="M124.9,314.2s8.4-22,17.1-23.7c8.7-1.8,20.8-1.4,21.7,2,.5,1.8-1.2,7.7-13.1,7.8,0,6.9-3.4,12.9-3.4,12.9,0,0,9.7,11.2-3.4,39.5"/><path class="cls-1" d="M165.1,301.5l-.4,6.8s-6,0-5.9-3.1,3.7-4.2,6.3-3.7h0Z"/><path class="cls-1" d="M163.9,313.9v7.2s-6,.3-6.1-3.8c-.1-4.1,6.1-3.4,6.1-3.4h0Z"/><path class="cls-1" d="M161.9,327.6l-1,7.9s-5.5-.6-4.9-4.7c.6-4.2,5.9-3.2,5.9-3.2Z"/><path class="cls-1" d="M159.6,340.6l-.5,6.5s-5.1-1-4.6-4c.4-3,5.1-2.5,5.1-2.5h0Z"/><path class="cls-1" d="M151.6,290.1l1.7,1.8s8.8-.2,8.4-1.1c-.3-1-7.5-3.5-10.1-.7h0Z"/></g></g></svg>