<svg width="306" height="211" viewBox="0 0 306 211" fill="none" xmlns="http://www.w3.org/2000/svg">
<rect width="306" height="211" rx="100" fill="#2F2D84"/>
<g clip-path="url(#clip0_798_1690)">
<path d="M223.327 41.512L212 52.8762C208.46 56.4275 202.712 56.4275 199.172 52.8762C195.632 49.3249 195.632 43.5576 199.172 40.0062L210.499 28.642C214.039 25.0907 219.788 25.0907 223.327 28.642C226.867 32.1933 226.867 37.9607 223.327 41.512ZM132.709 132.426L96.4616 168.791C92.9219 172.343 87.1733 172.343 83.6335 168.791C80.0937 165.24 80.0937 159.473 83.6335 155.921L119.881 119.556C123.421 116.005 129.169 116.005 132.709 119.556C136.249 123.107 136.249 128.875 132.709 132.426ZM148.964 62.3654C132.652 62.3654 119.201 74.7524 117.445 90.6339C116.907 95.6341 112.405 99.2139 107.449 98.6741C102.493 98.1343 98.897 93.617 99.4351 88.6451C102.182 63.6438 123.307 44.1826 148.964 44.1826C176.489 44.1826 198.804 66.5701 198.804 94.1852C198.804 107.254 193.792 119.158 185.608 128.079C182.209 131.772 180.68 135.125 180.68 137.937V139.642C180.68 157.228 166.493 171.462 148.964 171.462C143.951 171.462 139.902 167.399 139.902 162.371C139.902 157.342 143.951 153.279 148.964 153.279C156.468 153.279 162.556 147.171 162.556 139.642V137.909C162.556 128.562 167.484 120.976 172.298 115.749C177.509 110.067 180.68 102.509 180.68 94.1852C180.68 76.599 166.493 62.3654 148.964 62.3654ZM148.964 85.0938C143.951 85.0938 139.902 89.1565 139.902 94.1852C139.902 97.9638 136.872 101.004 133.105 101.004C129.339 101.004 126.309 97.9638 126.309 94.1852C126.309 81.6277 136.447 71.4567 148.964 71.4567C161.48 71.4567 171.618 81.6277 171.618 94.1852C171.618 97.9638 168.588 101.004 164.822 101.004C161.056 101.004 158.026 97.9638 158.026 94.1852C158.026 89.1565 153.976 85.0938 148.964 85.0938Z" fill="#FFB7D6"/>
</g>
<path d="M127.98 134.06C130.56 134.06 133.02 133.22 133.02 131.96L134.64 96.26C133.98 94.34 132.48 93.62 130.56 93.62C124.92 93.62 115.8 99.92 114.84 101.48C114.24 101.84 114 102.56 114 103.34C114 105.2 115.56 107.6 118.08 107.6H118.5L122.1 106.28L122.22 130.4C122.28 133.04 125.22 134.06 127.98 134.06ZM151.593 134.06C154.173 134.06 156.633 133.22 156.633 131.96L158.253 96.26C157.593 94.34 156.093 93.62 154.173 93.62C148.533 93.62 139.413 99.92 138.453 101.48C137.853 101.84 137.613 102.56 137.613 103.34C137.613 105.2 139.173 107.6 141.693 107.6H142.113L145.713 106.28L145.833 130.4C145.893 133.04 148.833 134.06 151.593 134.06ZM186.127 134.12C188.767 134.12 191.767 132.86 191.827 130.28L193.387 108.08C193.207 106.52 190.627 105.56 188.047 105.56C185.227 105.56 182.407 106.58 182.227 109.04L182.167 113.12H175.207L184.567 98.54C184.747 98.3 184.807 98.06 184.807 97.76C184.807 95.84 180.907 93.68 178.087 93.68C177.127 93.68 176.347 93.92 175.807 94.46L161.647 114.8C161.347 115.1 161.227 115.52 161.227 116C161.227 116.96 161.767 118.22 162.667 119.3C164.947 122.24 173.407 122.84 180.067 122.84H182.047L181.987 131.72C181.987 133.28 183.967 134.12 186.127 134.12Z" fill="white"/>
<defs>
<clipPath id="clip0_798_1690">
<rect width="144.99" height="145.462" fill="white" transform="translate(81 26)"/>
</clipPath>
</defs>
</svg>
