<svg width="306" height="211" viewBox="0 0 306 211" fill="none" xmlns="http://www.w3.org/2000/svg">
<rect width="306" height="211" rx="100" fill="#DF80A9"/>
<path d="M77.3837 133.848C78.5997 133.848 79.6504 134.077 80.5357 134.536C81.4317 134.984 82.1144 135.629 82.5837 136.472C83.0637 137.315 83.3037 138.307 83.3037 139.448C83.3037 140.589 83.0637 141.581 82.5837 142.424C82.1144 143.256 81.4317 143.896 80.5357 144.344C79.6504 144.781 78.5997 145 77.3837 145H73.9117V133.848H77.3837ZM77.3837 143.8C78.8237 143.8 79.9224 143.421 80.6797 142.664C81.437 141.896 81.8157 140.824 81.8157 139.448C81.8157 138.061 81.4317 136.979 80.6637 136.2C79.9064 135.421 78.813 135.032 77.3837 135.032H75.3677V143.8H77.3837ZM85.9762 134.808C85.6989 134.808 85.4642 134.712 85.2722 134.52C85.0802 134.328 84.9842 134.093 84.9842 133.816C84.9842 133.539 85.0802 133.304 85.2722 133.112C85.4642 132.92 85.6989 132.824 85.9762 132.824C86.2429 132.824 86.4669 132.92 86.6482 133.112C86.8402 133.304 86.9362 133.539 86.9362 133.816C86.9362 134.093 86.8402 134.328 86.6482 134.52C86.4669 134.712 86.2429 134.808 85.9762 134.808ZM86.6802 136.232V145H85.2242V136.232H86.6802ZM92.2657 145.144C91.5937 145.144 90.991 145.032 90.4577 144.808C89.9244 144.573 89.503 144.253 89.1937 143.848C88.8844 143.432 88.7137 142.957 88.6817 142.424H90.1857C90.2284 142.861 90.431 143.219 90.7937 143.496C91.167 143.773 91.6524 143.912 92.2497 143.912C92.8044 143.912 93.2417 143.789 93.5617 143.544C93.8817 143.299 94.0417 142.989 94.0417 142.616C94.0417 142.232 93.871 141.949 93.5297 141.768C93.1884 141.576 92.6604 141.389 91.9457 141.208C91.295 141.037 90.7617 140.867 90.3457 140.696C89.9404 140.515 89.5884 140.253 89.2897 139.912C89.0017 139.56 88.8577 139.101 88.8577 138.536C88.8577 138.088 88.991 137.677 89.2577 137.304C89.5244 136.931 89.903 136.637 90.3937 136.424C90.8844 136.2 91.4444 136.088 92.0737 136.088C93.0444 136.088 93.8284 136.333 94.4257 136.824C95.023 137.315 95.343 137.987 95.3857 138.84H93.9297C93.8977 138.381 93.711 138.013 93.3697 137.736C93.039 137.459 92.591 137.32 92.0257 137.32C91.503 137.32 91.087 137.432 90.7777 137.656C90.4684 137.88 90.3137 138.173 90.3137 138.536C90.3137 138.824 90.4044 139.064 90.5857 139.256C90.7777 139.437 91.0124 139.587 91.2897 139.704C91.5777 139.811 91.9724 139.933 92.4737 140.072C93.103 140.243 93.615 140.413 94.0097 140.584C94.4044 140.744 94.7404 140.989 95.0177 141.32C95.3057 141.651 95.455 142.083 95.4657 142.616C95.4657 143.096 95.3324 143.528 95.0657 143.912C94.799 144.296 94.4204 144.6 93.9297 144.824C93.4497 145.037 92.895 145.144 92.2657 145.144ZM98.9771 137.848C99.2651 137.347 99.6917 136.931 100.257 136.6C100.833 136.259 101.5 136.088 102.257 136.088C103.036 136.088 103.74 136.275 104.369 136.648C105.009 137.021 105.51 137.549 105.873 138.232C106.236 138.904 106.417 139.688 106.417 140.584C106.417 141.469 106.236 142.259 105.873 142.952C105.51 143.645 105.009 144.184 104.369 144.568C103.74 144.952 103.036 145.144 102.257 145.144C101.51 145.144 100.849 144.979 100.273 144.648C99.7077 144.307 99.2757 143.885 98.9771 143.384V149.16H97.5211V136.232H98.9771V137.848ZM104.929 140.584C104.929 139.923 104.796 139.347 104.529 138.856C104.262 138.365 103.9 137.992 103.441 137.736C102.993 137.48 102.497 137.352 101.953 137.352C101.42 137.352 100.924 137.485 100.465 137.752C100.017 138.008 99.6544 138.387 99.3771 138.888C99.1104 139.379 98.9771 139.949 98.9771 140.6C98.9771 141.261 99.1104 141.843 99.3771 142.344C99.6544 142.835 100.017 143.213 100.465 143.48C100.924 143.736 101.42 143.864 101.953 143.864C102.497 143.864 102.993 143.736 103.441 143.48C103.9 143.213 104.262 142.835 104.529 142.344C104.796 141.843 104.929 141.256 104.929 140.584ZM112.158 145.144C111.336 145.144 110.59 144.957 109.918 144.584C109.256 144.211 108.734 143.683 108.35 143C107.976 142.307 107.79 141.507 107.79 140.6C107.79 139.704 107.982 138.915 108.366 138.232C108.76 137.539 109.294 137.011 109.966 136.648C110.638 136.275 111.39 136.088 112.222 136.088C113.054 136.088 113.806 136.275 114.478 136.648C115.15 137.011 115.678 137.533 116.062 138.216C116.456 138.899 116.654 139.693 116.654 140.6C116.654 141.507 116.451 142.307 116.046 143C115.651 143.683 115.112 144.211 114.43 144.584C113.747 144.957 112.99 145.144 112.158 145.144ZM112.158 143.864C112.68 143.864 113.171 143.741 113.63 143.496C114.088 143.251 114.456 142.883 114.734 142.392C115.022 141.901 115.166 141.304 115.166 140.6C115.166 139.896 115.027 139.299 114.75 138.808C114.472 138.317 114.11 137.955 113.662 137.72C113.214 137.475 112.728 137.352 112.206 137.352C111.672 137.352 111.182 137.475 110.734 137.72C110.296 137.955 109.944 138.317 109.678 138.808C109.411 139.299 109.278 139.896 109.278 140.6C109.278 141.315 109.406 141.917 109.662 142.408C109.928 142.899 110.28 143.267 110.718 143.512C111.155 143.747 111.635 143.864 112.158 143.864ZM122.84 136.072C123.907 136.072 124.771 136.397 125.432 137.048C126.093 137.688 126.424 138.616 126.424 139.832V145H124.984V140.04C124.984 139.165 124.765 138.499 124.328 138.04C123.891 137.571 123.293 137.336 122.536 137.336C121.768 137.336 121.155 137.576 120.696 138.056C120.248 138.536 120.024 139.235 120.024 140.152V145H118.568V136.232H120.024V137.48C120.312 137.032 120.701 136.685 121.192 136.44C121.693 136.195 122.243 136.072 122.84 136.072ZM129.554 134.808C129.277 134.808 129.042 134.712 128.85 134.52C128.658 134.328 128.562 134.093 128.562 133.816C128.562 133.539 128.658 133.304 128.85 133.112C129.042 132.92 129.277 132.824 129.554 132.824C129.821 132.824 130.045 132.92 130.226 133.112C130.418 133.304 130.514 133.539 130.514 133.816C130.514 134.093 130.418 134.328 130.226 134.52C130.045 134.712 129.821 134.808 129.554 134.808ZM130.258 136.232V145H128.802V136.232H130.258ZM134.196 137.864C134.494 137.341 134.932 136.915 135.508 136.584C136.084 136.253 136.74 136.088 137.476 136.088C138.265 136.088 138.974 136.275 139.604 136.648C140.233 137.021 140.729 137.549 141.092 138.232C141.454 138.904 141.636 139.688 141.636 140.584C141.636 141.469 141.454 142.259 141.092 142.952C140.729 143.645 140.228 144.184 139.588 144.568C138.958 144.952 138.254 145.144 137.476 145.144C136.718 145.144 136.052 144.979 135.476 144.648C134.91 144.317 134.484 143.896 134.196 143.384V145H132.74V133.16H134.196V137.864ZM140.148 140.584C140.148 139.923 140.014 139.347 139.748 138.856C139.481 138.365 139.118 137.992 138.66 137.736C138.212 137.48 137.716 137.352 137.172 137.352C136.638 137.352 136.142 137.485 135.684 137.752C135.236 138.008 134.873 138.387 134.596 138.888C134.329 139.379 134.196 139.949 134.196 140.6C134.196 141.261 134.329 141.843 134.596 142.344C134.873 142.835 135.236 143.213 135.684 143.48C136.142 143.736 136.638 143.864 137.172 143.864C137.716 143.864 138.212 143.736 138.66 143.48C139.118 143.213 139.481 142.835 139.748 142.344C140.014 141.843 140.148 141.256 140.148 140.584ZM145.008 133.16V145H143.552V133.16H145.008ZM155.49 140.28C155.49 140.557 155.474 140.851 155.442 141.16H148.434C148.487 142.024 148.78 142.701 149.314 143.192C149.858 143.672 150.514 143.912 151.282 143.912C151.911 143.912 152.434 143.768 152.85 143.48C153.276 143.181 153.575 142.787 153.746 142.296H155.314C155.079 143.139 154.61 143.827 153.906 144.36C153.202 144.883 152.327 145.144 151.282 145.144C150.45 145.144 149.703 144.957 149.042 144.584C148.391 144.211 147.879 143.683 147.506 143C147.132 142.307 146.946 141.507 146.946 140.6C146.946 139.693 147.127 138.899 147.49 138.216C147.852 137.533 148.359 137.011 149.01 136.648C149.671 136.275 150.428 136.088 151.282 136.088C152.114 136.088 152.85 136.269 153.49 136.632C154.13 136.995 154.62 137.496 154.962 138.136C155.314 138.765 155.49 139.48 155.49 140.28ZM153.986 139.976C153.986 139.421 153.863 138.947 153.618 138.552C153.372 138.147 153.036 137.843 152.61 137.64C152.194 137.427 151.73 137.32 151.218 137.32C150.482 137.32 149.852 137.555 149.33 138.024C148.818 138.493 148.524 139.144 148.45 139.976H153.986ZM169.677 140.28C169.677 140.557 169.661 140.851 169.629 141.16H162.621C162.675 142.024 162.968 142.701 163.501 143.192C164.045 143.672 164.701 143.912 165.469 143.912C166.099 143.912 166.621 143.768 167.037 143.48C167.464 143.181 167.763 142.787 167.933 142.296H169.501C169.267 143.139 168.797 143.827 168.093 144.36C167.389 144.883 166.515 145.144 165.469 145.144C164.637 145.144 163.891 144.957 163.229 144.584C162.579 144.211 162.067 143.683 161.693 143C161.32 142.307 161.133 141.507 161.133 140.6C161.133 139.693 161.315 138.899 161.677 138.216C162.04 137.533 162.547 137.011 163.197 136.648C163.859 136.275 164.616 136.088 165.469 136.088C166.301 136.088 167.037 136.269 167.677 136.632C168.317 136.995 168.808 137.496 169.149 138.136C169.501 138.765 169.677 139.48 169.677 140.28ZM168.173 139.976C168.173 139.421 168.051 138.947 167.805 138.552C167.56 138.147 167.224 137.843 166.797 137.64C166.381 137.427 165.917 137.32 165.405 137.32C164.669 137.32 164.04 137.555 163.517 138.024C163.005 138.493 162.712 139.144 162.637 139.976H168.173ZM175.871 136.072C176.938 136.072 177.802 136.397 178.463 137.048C179.125 137.688 179.455 138.616 179.455 139.832V145H178.015V140.04C178.015 139.165 177.797 138.499 177.359 138.04C176.922 137.571 176.325 137.336 175.567 137.336C174.799 137.336 174.186 137.576 173.727 138.056C173.279 138.536 173.055 139.235 173.055 140.152V145H171.599V136.232H173.055V137.48C173.343 137.032 173.733 136.685 174.223 136.44C174.725 136.195 175.274 136.072 175.871 136.072ZM185.555 140.584C185.555 139.688 185.737 138.904 186.099 138.232C186.462 137.549 186.958 137.021 187.587 136.648C188.227 136.275 188.937 136.088 189.715 136.088C190.483 136.088 191.15 136.253 191.715 136.584C192.281 136.915 192.702 137.331 192.979 137.832V136.232H194.451V145H192.979V143.368C192.691 143.88 192.259 144.307 191.683 144.648C191.118 144.979 190.457 145.144 189.699 145.144C188.921 145.144 188.217 144.952 187.587 144.568C186.958 144.184 186.462 143.645 186.099 142.952C185.737 142.259 185.555 141.469 185.555 140.584ZM192.979 140.6C192.979 139.939 192.846 139.363 192.579 138.872C192.313 138.381 191.95 138.008 191.491 137.752C191.043 137.485 190.547 137.352 190.003 137.352C189.459 137.352 188.963 137.48 188.515 137.736C188.067 137.992 187.71 138.365 187.443 138.856C187.177 139.347 187.043 139.923 187.043 140.584C187.043 141.256 187.177 141.843 187.443 142.344C187.71 142.835 188.067 143.213 188.515 143.48C188.963 143.736 189.459 143.864 190.003 143.864C190.547 143.864 191.043 143.736 191.491 143.48C191.95 143.213 192.313 142.835 192.579 142.344C192.846 141.843 192.979 141.261 192.979 140.6ZM198.368 137.848C198.656 137.347 199.082 136.931 199.648 136.6C200.224 136.259 200.89 136.088 201.648 136.088C202.426 136.088 203.13 136.275 203.76 136.648C204.4 137.021 204.901 137.549 205.264 138.232C205.626 138.904 205.808 139.688 205.808 140.584C205.808 141.469 205.626 142.259 205.264 142.952C204.901 143.645 204.4 144.184 203.76 144.568C203.13 144.952 202.426 145.144 201.648 145.144C200.901 145.144 200.24 144.979 199.664 144.648C199.098 144.307 198.666 143.885 198.368 143.384V149.16H196.912V136.232H198.368V137.848ZM204.32 140.584C204.32 139.923 204.186 139.347 203.92 138.856C203.653 138.365 203.29 137.992 202.832 137.736C202.384 137.48 201.888 137.352 201.344 137.352C200.81 137.352 200.314 137.485 199.856 137.752C199.408 138.008 199.045 138.387 198.768 138.888C198.501 139.379 198.368 139.949 198.368 140.6C198.368 141.261 198.501 141.843 198.768 142.344C199.045 142.835 199.408 143.213 199.856 143.48C200.314 143.736 200.81 143.864 201.344 143.864C201.888 143.864 202.384 143.736 202.832 143.48C203.29 143.213 203.653 142.835 203.92 142.344C204.186 141.843 204.32 141.256 204.32 140.584ZM209.18 137.848C209.468 137.347 209.895 136.931 210.46 136.6C211.036 136.259 211.703 136.088 212.46 136.088C213.239 136.088 213.943 136.275 214.572 136.648C215.212 137.021 215.714 137.549 216.076 138.232C216.439 138.904 216.62 139.688 216.62 140.584C216.62 141.469 216.439 142.259 216.076 142.952C215.714 143.645 215.212 144.184 214.572 144.568C213.943 144.952 213.239 145.144 212.46 145.144C211.714 145.144 211.052 144.979 210.476 144.648C209.911 144.307 209.479 143.885 209.18 143.384V149.16H207.724V136.232H209.18V137.848ZM215.132 140.584C215.132 139.923 214.999 139.347 214.732 138.856C214.466 138.365 214.103 137.992 213.644 137.736C213.196 137.48 212.7 137.352 212.156 137.352C211.623 137.352 211.127 137.485 210.668 137.752C210.22 138.008 209.858 138.387 209.58 138.888C209.314 139.379 209.18 139.949 209.18 140.6C209.18 141.261 209.314 141.843 209.58 142.344C209.858 142.835 210.22 143.213 210.668 143.48C211.127 143.736 211.623 143.864 212.156 143.864C212.7 143.864 213.196 143.736 213.644 143.48C214.103 143.213 214.466 142.835 214.732 142.344C214.999 141.843 215.132 141.256 215.132 140.584ZM230.802 140.28C230.802 140.557 230.786 140.851 230.754 141.16H223.746C223.8 142.024 224.093 142.701 224.626 143.192C225.17 143.672 225.826 143.912 226.594 143.912C227.224 143.912 227.746 143.768 228.162 143.48C228.589 143.181 228.888 142.787 229.058 142.296H230.626C230.392 143.139 229.922 143.827 229.218 144.36C228.514 144.883 227.64 145.144 226.594 145.144C225.762 145.144 225.016 144.957 224.354 144.584C223.704 144.211 223.192 143.683 222.818 143C222.445 142.307 222.258 141.507 222.258 140.6C222.258 139.693 222.44 138.899 222.802 138.216C223.165 137.533 223.672 137.011 224.322 136.648C224.984 136.275 225.741 136.088 226.594 136.088C227.426 136.088 228.162 136.269 228.802 136.632C229.442 136.995 229.933 137.496 230.274 138.136C230.626 138.765 230.802 139.48 230.802 140.28ZM229.298 139.976C229.298 139.421 229.176 138.947 228.93 138.552C228.685 138.147 228.349 137.843 227.922 137.64C227.506 137.427 227.042 137.32 226.53 137.32C225.794 137.32 225.165 137.555 224.642 138.024C224.13 138.493 223.837 139.144 223.762 139.976H229.298ZM234.5 137.432V142.6C234.5 143.027 234.591 143.331 234.772 143.512C234.954 143.683 235.268 143.768 235.716 143.768H236.788V145H235.476C234.666 145 234.058 144.813 233.652 144.44C233.247 144.067 233.044 143.453 233.044 142.6V137.432H231.908V136.232H233.044V134.024H234.5V136.232H236.788V137.432H234.5ZM72.6954 169.144C72.0234 169.144 71.4207 169.032 70.8874 168.808C70.354 168.573 69.9327 168.253 69.6234 167.848C69.314 167.432 69.1434 166.957 69.1114 166.424H70.6154C70.658 166.861 70.8607 167.219 71.2234 167.496C71.5967 167.773 72.082 167.912 72.6794 167.912C73.234 167.912 73.6714 167.789 73.9914 167.544C74.3114 167.299 74.4714 166.989 74.4714 166.616C74.4714 166.232 74.3007 165.949 73.9594 165.768C73.618 165.576 73.09 165.389 72.3754 165.208C71.7247 165.037 71.1914 164.867 70.7754 164.696C70.37 164.515 70.018 164.253 69.7194 163.912C69.4314 163.56 69.2874 163.101 69.2874 162.536C69.2874 162.088 69.4207 161.677 69.6874 161.304C69.954 160.931 70.3327 160.637 70.8234 160.424C71.314 160.2 71.874 160.088 72.5034 160.088C73.474 160.088 74.258 160.333 74.8554 160.824C75.4527 161.315 75.7727 161.987 75.8154 162.84H74.3594C74.3274 162.381 74.1407 162.013 73.7994 161.736C73.4687 161.459 73.0207 161.32 72.4554 161.32C71.9327 161.32 71.5167 161.432 71.2074 161.656C70.898 161.88 70.7434 162.173 70.7434 162.536C70.7434 162.824 70.834 163.064 71.0154 163.256C71.2074 163.437 71.442 163.587 71.7194 163.704C72.0074 163.811 72.402 163.933 72.9034 164.072C73.5327 164.243 74.0447 164.413 74.4394 164.584C74.834 164.744 75.17 164.989 75.4474 165.32C75.7354 165.651 75.8847 166.083 75.8954 166.616C75.8954 167.096 75.762 167.528 75.4954 167.912C75.2287 168.296 74.85 168.6 74.3594 168.824C73.8794 169.037 73.3247 169.144 72.6954 169.144ZM85.7268 160.232V169H84.2708V167.704C83.9934 168.152 83.6041 168.504 83.1028 168.76C82.6121 169.005 82.0681 169.128 81.4708 169.128C80.7881 169.128 80.1748 168.989 79.6308 168.712C79.0868 168.424 78.6548 167.997 78.3348 167.432C78.0254 166.867 77.8708 166.179 77.8708 165.368V160.232H79.3108V165.176C79.3108 166.04 79.5294 166.707 79.9668 167.176C80.4041 167.635 81.0014 167.864 81.7588 167.864C82.5374 167.864 83.1508 167.624 83.5988 167.144C84.0468 166.664 84.2708 165.965 84.2708 165.048V160.232H85.7268ZM89.6411 161.656C89.8971 161.155 90.2598 160.765 90.7291 160.488C91.2091 160.211 91.7905 160.072 92.4731 160.072V161.576H92.0891C90.4571 161.576 89.6411 162.461 89.6411 164.232V169H88.1851V160.232H89.6411V161.656ZM110.1 160.232L107.364 169H105.86L103.748 162.04L101.636 169H100.132L97.3795 160.232H98.8675L100.884 167.592L103.06 160.232H104.548L106.676 167.608L108.66 160.232H110.1ZM123.225 160.232L120.489 169H118.985L116.873 162.04L114.761 169H113.257L110.505 160.232H111.993L114.009 167.592L116.185 160.232H117.673L119.801 167.608L121.785 160.232H123.225ZM136.35 160.232L133.614 169H132.11L129.998 162.04L127.886 169H126.382L123.63 160.232H125.118L127.134 167.592L129.31 160.232H130.798L132.926 167.608L134.91 160.232H136.35ZM138.259 169.096C137.981 169.096 137.747 169 137.555 168.808C137.363 168.616 137.267 168.381 137.267 168.104C137.267 167.827 137.363 167.592 137.555 167.4C137.747 167.208 137.981 167.112 138.259 167.112C138.525 167.112 138.749 167.208 138.931 167.4C139.123 167.592 139.219 167.827 139.219 168.104C139.219 168.381 139.123 168.616 138.931 168.808C138.749 169 138.525 169.096 138.259 169.096ZM148.93 160.232V169H147.474V167.704C147.197 168.152 146.807 168.504 146.306 168.76C145.815 169.005 145.271 169.128 144.674 169.128C143.991 169.128 143.378 168.989 142.834 168.712C142.29 168.424 141.858 167.997 141.538 167.432C141.229 166.867 141.074 166.179 141.074 165.368V160.232H142.514V165.176C142.514 166.04 142.733 166.707 143.17 167.176C143.607 167.635 144.205 167.864 144.962 167.864C145.741 167.864 146.354 167.624 146.802 167.144C147.25 166.664 147.474 165.965 147.474 165.048V160.232H148.93ZM152.844 161.656C153.1 161.155 153.463 160.765 153.932 160.488C154.412 160.211 154.994 160.072 155.676 160.072V161.576H155.292C153.66 161.576 152.844 162.461 152.844 164.232V169H151.388V160.232H152.844V161.656ZM160.973 160.088C161.73 160.088 162.392 160.253 162.957 160.584C163.533 160.915 163.96 161.331 164.237 161.832V160.232H165.709V169.192C165.709 169.992 165.538 170.701 165.197 171.32C164.856 171.949 164.365 172.44 163.725 172.792C163.096 173.144 162.36 173.32 161.517 173.32C160.365 173.32 159.405 173.048 158.637 172.504C157.869 171.96 157.416 171.219 157.277 170.28H158.717C158.877 170.813 159.208 171.24 159.709 171.56C160.21 171.891 160.813 172.056 161.517 172.056C162.317 172.056 162.968 171.805 163.469 171.304C163.981 170.803 164.237 170.099 164.237 169.192V167.352C163.949 167.864 163.522 168.291 162.957 168.632C162.392 168.973 161.73 169.144 160.973 169.144C160.194 169.144 159.485 168.952 158.845 168.568C158.216 168.184 157.72 167.645 157.357 166.952C156.994 166.259 156.813 165.469 156.813 164.584C156.813 163.688 156.994 162.904 157.357 162.232C157.72 161.549 158.216 161.021 158.845 160.648C159.485 160.275 160.194 160.088 160.973 160.088ZM164.237 164.6C164.237 163.939 164.104 163.363 163.837 162.872C163.57 162.381 163.208 162.008 162.749 161.752C162.301 161.485 161.805 161.352 161.261 161.352C160.717 161.352 160.221 161.48 159.773 161.736C159.325 161.992 158.968 162.365 158.701 162.856C158.434 163.347 158.301 163.923 158.301 164.584C158.301 165.256 158.434 165.843 158.701 166.344C158.968 166.835 159.325 167.213 159.773 167.48C160.221 167.736 160.717 167.864 161.261 167.864C161.805 167.864 162.301 167.736 162.749 167.48C163.208 167.213 163.57 166.835 163.837 166.344C164.104 165.843 164.237 165.261 164.237 164.6ZM176.17 164.28C176.17 164.557 176.154 164.851 176.122 165.16H169.114C169.167 166.024 169.46 166.701 169.994 167.192C170.538 167.672 171.194 167.912 171.962 167.912C172.591 167.912 173.114 167.768 173.53 167.48C173.956 167.181 174.255 166.787 174.426 166.296H175.994C175.759 167.139 175.29 167.827 174.586 168.36C173.882 168.883 173.007 169.144 171.962 169.144C171.13 169.144 170.383 168.957 169.722 168.584C169.071 168.211 168.559 167.683 168.186 167C167.812 166.307 167.626 165.507 167.626 164.6C167.626 163.693 167.807 162.899 168.17 162.216C168.532 161.533 169.039 161.011 169.69 160.648C170.351 160.275 171.108 160.088 171.962 160.088C172.794 160.088 173.53 160.269 174.17 160.632C174.81 160.995 175.3 161.496 175.642 162.136C175.994 162.765 176.17 163.48 176.17 164.28ZM174.666 163.976C174.666 163.421 174.543 162.947 174.298 162.552C174.052 162.147 173.716 161.843 173.29 161.64C172.874 161.427 172.41 161.32 171.898 161.32C171.162 161.32 170.532 161.555 170.01 162.024C169.498 162.493 169.204 163.144 169.13 163.976H174.666ZM182.363 160.072C183.43 160.072 184.294 160.397 184.955 161.048C185.617 161.688 185.947 162.616 185.947 163.832V169H184.507V164.04C184.507 163.165 184.289 162.499 183.851 162.04C183.414 161.571 182.817 161.336 182.059 161.336C181.291 161.336 180.678 161.576 180.219 162.056C179.771 162.536 179.547 163.235 179.547 164.152V169H178.091V160.232H179.547V161.48C179.835 161.032 180.225 160.685 180.715 160.44C181.217 160.195 181.766 160.072 182.363 160.072ZM187.782 164.6C187.782 163.693 187.963 162.904 188.326 162.232C188.688 161.549 189.19 161.021 189.83 160.648C190.48 160.275 191.222 160.088 192.054 160.088C193.131 160.088 194.016 160.349 194.71 160.872C195.414 161.395 195.878 162.12 196.102 163.048H194.534C194.384 162.515 194.091 162.093 193.654 161.784C193.227 161.475 192.694 161.32 192.054 161.32C191.222 161.32 190.55 161.608 190.038 162.184C189.526 162.749 189.27 163.555 189.27 164.6C189.27 165.656 189.526 166.472 190.038 167.048C190.55 167.624 191.222 167.912 192.054 167.912C192.694 167.912 193.227 167.763 193.654 167.464C194.08 167.165 194.374 166.739 194.534 166.184H196.102C195.867 167.08 195.398 167.8 194.694 168.344C193.99 168.877 193.11 169.144 192.054 169.144C191.222 169.144 190.48 168.957 189.83 168.584C189.19 168.211 188.688 167.683 188.326 167C187.963 166.317 187.782 165.517 187.782 164.6ZM206.045 164.28C206.045 164.557 206.029 164.851 205.997 165.16H198.989C199.042 166.024 199.335 166.701 199.869 167.192C200.413 167.672 201.069 167.912 201.837 167.912C202.466 167.912 202.989 167.768 203.405 167.48C203.831 167.181 204.13 166.787 204.301 166.296H205.869C205.634 167.139 205.165 167.827 204.461 168.36C203.757 168.883 202.882 169.144 201.837 169.144C201.005 169.144 200.258 168.957 199.597 168.584C198.946 168.211 198.434 167.683 198.061 167C197.687 166.307 197.501 165.507 197.501 164.6C197.501 163.693 197.682 162.899 198.045 162.216C198.407 161.533 198.914 161.011 199.565 160.648C200.226 160.275 200.983 160.088 201.837 160.088C202.669 160.088 203.405 160.269 204.045 160.632C204.685 160.995 205.175 161.496 205.517 162.136C205.869 162.765 206.045 163.48 206.045 164.28ZM204.541 163.976C204.541 163.421 204.418 162.947 204.173 162.552C203.927 162.147 203.591 161.843 203.165 161.64C202.749 161.427 202.285 161.32 201.773 161.32C201.037 161.32 200.407 161.555 199.885 162.024C199.373 162.493 199.079 163.144 199.005 163.976H204.541ZM207.342 158.76V157.432H210.35V169H208.878V158.76H207.342ZM212.467 158.76V157.432H215.475V169H214.003V158.76H212.467ZM217.624 166.424V165.32L223.24 157.544H224.984V165.16H226.584V166.424H224.984V169H223.544V166.424H217.624ZM223.608 159.064L219.304 165.16H223.608V159.064ZM228.743 169.096C228.466 169.096 228.231 169 228.039 168.808C227.847 168.616 227.751 168.381 227.751 168.104C227.751 167.827 227.847 167.592 228.039 167.4C228.231 167.208 228.466 167.112 228.743 167.112C229.01 167.112 229.234 167.208 229.415 167.4C229.607 167.592 229.703 167.827 229.703 168.104C229.703 168.381 229.607 168.616 229.415 168.808C229.234 169 229.01 169.096 228.743 169.096ZM235.206 161.432H233.366V169H231.91V161.432H230.774V160.232H231.91V159.608C231.91 158.627 232.161 157.912 232.662 157.464C233.174 157.005 233.99 156.776 235.11 156.776V157.992C234.47 157.992 234.017 158.12 233.75 158.376C233.494 158.621 233.366 159.032 233.366 159.608V160.232H235.206V161.432ZM238.36 161.656C238.616 161.155 238.979 160.765 239.448 160.488C239.928 160.211 240.509 160.072 241.192 160.072V161.576H240.808C239.176 161.576 238.36 162.461 238.36 164.232V169H236.904V160.232H238.36V161.656Z" fill="white"/>
<path d="M72.32 58.3711H69.52L63.18 48.7911V58.3711H60.38V44.3911H63.18L69.52 53.9911V44.3911H72.32V58.3711ZM85.547 47.2911V58.3711H82.727V56.9711C82.367 57.4511 81.8937 57.8311 81.307 58.1111C80.7337 58.3778 80.107 58.5111 79.427 58.5111C78.5604 58.5111 77.7937 58.3311 77.127 57.9711C76.4604 57.5978 75.9337 57.0578 75.547 56.3511C75.1737 55.6311 74.987 54.7778 74.987 53.7911V47.2911H77.787V53.3911C77.787 54.2711 78.007 54.9511 78.447 55.4311C78.887 55.8978 79.487 56.1311 80.247 56.1311C81.0204 56.1311 81.627 55.8978 82.067 55.4311C82.507 54.9511 82.727 54.2711 82.727 53.3911V47.2911H85.547ZM102.07 47.1311C103.43 47.1311 104.523 47.5511 105.35 48.3911C106.19 49.2178 106.61 50.3778 106.61 51.8711V58.3711H103.81V52.2511C103.81 51.3844 103.59 50.7244 103.15 50.2711C102.71 49.8044 102.11 49.5711 101.35 49.5711C100.59 49.5711 99.983 49.8044 99.5297 50.2711C99.0897 50.7244 98.8697 51.3844 98.8697 52.2511V58.3711H96.0697V52.2511C96.0697 51.3844 95.8497 50.7244 95.4097 50.2711C94.9697 49.8044 94.3697 49.5711 93.6097 49.5711C92.8364 49.5711 92.223 49.8044 91.7697 50.2711C91.3297 50.7244 91.1097 51.3844 91.1097 52.2511V58.3711H88.3097V47.2911H91.1097V48.6311C91.4697 48.1644 91.9297 47.7978 92.4897 47.5311C93.063 47.2644 93.6897 47.1311 94.3697 47.1311C95.2364 47.1311 96.0097 47.3178 96.6897 47.6911C97.3697 48.0511 97.8964 48.5711 98.2697 49.2511C98.6297 48.6111 99.1497 48.0978 99.8297 47.7111C100.523 47.3244 101.27 47.1311 102.07 47.1311ZM119.567 52.5911C119.567 52.9911 119.54 53.3511 119.487 53.6711H111.387C111.453 54.4711 111.733 55.0978 112.227 55.5511C112.72 56.0044 113.327 56.2311 114.047 56.2311C115.087 56.2311 115.827 55.7844 116.267 54.8911H119.287C118.967 55.9578 118.353 56.8378 117.447 57.5311C116.54 58.2111 115.427 58.5511 114.107 58.5511C113.04 58.5511 112.08 58.3178 111.227 57.8511C110.387 57.3711 109.727 56.6978 109.247 55.8311C108.78 54.9644 108.547 53.9644 108.547 52.8311C108.547 51.6844 108.78 50.6778 109.247 49.8111C109.713 48.9444 110.367 48.2778 111.207 47.8111C112.047 47.3444 113.013 47.1111 114.107 47.1111C115.16 47.1111 116.1 47.3378 116.927 47.7911C117.767 48.2444 118.413 48.8911 118.867 49.7311C119.333 50.5578 119.567 51.5111 119.567 52.5911ZM116.667 51.7911C116.653 51.0711 116.393 50.4978 115.887 50.0711C115.38 49.6311 114.76 49.4111 114.027 49.4111C113.333 49.4111 112.747 49.6244 112.267 50.0511C111.8 50.4644 111.513 51.0444 111.407 51.7911H116.667ZM116.247 44.3711L111.647 46.4711V44.4711L116.247 42.0911V44.3711ZM124.41 49.0111C124.77 48.4244 125.237 47.9644 125.81 47.6311C126.397 47.2978 127.064 47.1311 127.81 47.1311V50.0711H127.07C126.19 50.0711 125.524 50.2778 125.07 50.6911C124.63 51.1044 124.41 51.8244 124.41 52.8511V58.3711H121.61V47.2911H124.41V49.0111ZM134.616 58.5511C133.55 58.5511 132.59 58.3178 131.736 57.8511C130.883 57.3711 130.21 56.6978 129.716 55.8311C129.236 54.9644 128.996 53.9644 128.996 52.8311C128.996 51.6978 129.243 50.6978 129.736 49.8311C130.243 48.9644 130.93 48.2978 131.796 47.8311C132.663 47.3511 133.63 47.1111 134.696 47.1111C135.763 47.1111 136.73 47.3511 137.596 47.8311C138.463 48.2978 139.143 48.9644 139.636 49.8311C140.143 50.6978 140.396 51.6978 140.396 52.8311C140.396 53.9644 140.136 54.9644 139.616 55.8311C139.11 56.6978 138.416 57.3711 137.536 57.8511C136.67 58.3178 135.696 58.5511 134.616 58.5511ZM134.616 56.1111C135.123 56.1111 135.596 55.9911 136.036 55.7511C136.49 55.4978 136.85 55.1244 137.116 54.6311C137.383 54.1378 137.516 53.5378 137.516 52.8311C137.516 51.7778 137.236 50.9711 136.676 50.4111C136.13 49.8378 135.456 49.5511 134.656 49.5511C133.856 49.5511 133.183 49.8378 132.636 50.4111C132.103 50.9711 131.836 51.7778 131.836 52.8311C131.836 53.8844 132.096 54.6978 132.616 55.2711C133.15 55.8311 133.816 56.1111 134.616 56.1111ZM146.496 52.7911C146.496 51.6711 146.716 50.6778 147.156 49.8111C147.609 48.9444 148.223 48.2778 148.996 47.8111C149.769 47.3444 150.629 47.1111 151.576 47.1111C152.296 47.1111 152.983 47.2711 153.636 47.5911C154.289 47.8978 154.809 48.3111 155.196 48.8311V43.5711H158.036V58.3711H155.196V56.7311C154.849 57.2778 154.363 57.7178 153.736 58.0511C153.109 58.3844 152.383 58.5511 151.556 58.5511C150.623 58.5511 149.769 58.3111 148.996 57.8311C148.223 57.3511 147.609 56.6778 147.156 55.8111C146.716 54.9311 146.496 53.9244 146.496 52.7911ZM155.216 52.8311C155.216 52.1511 155.083 51.5711 154.816 51.0911C154.549 50.5978 154.189 50.2244 153.736 49.9711C153.283 49.7044 152.796 49.5711 152.276 49.5711C151.756 49.5711 151.276 49.6978 150.836 49.9511C150.396 50.2044 150.036 50.5778 149.756 51.0711C149.489 51.5511 149.356 52.1244 149.356 52.7911C149.356 53.4578 149.489 54.0444 149.756 54.5511C150.036 55.0444 150.396 55.4244 150.836 55.6911C151.289 55.9578 151.769 56.0911 152.276 56.0911C152.796 56.0911 153.283 55.9644 153.736 55.7111C154.189 55.4444 154.549 55.0711 154.816 54.5911C155.083 54.0978 155.216 53.5111 155.216 52.8311ZM161.331 44.4111H164.271L162.111 49.4511H160.191L161.331 44.4111ZM176.738 47.2911V58.3711H173.918V56.9711C173.558 57.4511 173.085 57.8311 172.498 58.1111C171.925 58.3778 171.298 58.5111 170.618 58.5111C169.752 58.5111 168.985 58.3311 168.318 57.9711C167.652 57.5978 167.125 57.0578 166.738 56.3511C166.365 55.6311 166.178 54.7778 166.178 53.7911V47.2911H168.978V53.3911C168.978 54.2711 169.198 54.9511 169.638 55.4311C170.078 55.8978 170.678 56.1311 171.438 56.1311C172.212 56.1311 172.818 55.8978 173.258 55.4311C173.698 54.9511 173.918 54.2711 173.918 53.3911V47.2911H176.738ZM182.301 49.0111C182.661 48.4244 183.128 47.9644 183.701 47.6311C184.288 47.2978 184.954 47.1311 185.701 47.1311V50.0711H184.961C184.081 50.0711 183.414 50.2778 182.961 50.6911C182.521 51.1044 182.301 51.8244 182.301 52.8511V58.3711H179.501V47.2911H182.301V49.0111ZM191.927 47.1111C192.754 47.1111 193.48 47.2778 194.107 47.6111C194.734 47.9311 195.227 48.3511 195.587 48.8711V47.2911H198.407V58.4511C198.407 59.4778 198.2 60.3911 197.787 61.1911C197.374 62.0044 196.754 62.6444 195.927 63.1111C195.1 63.5911 194.1 63.8311 192.927 63.8311C191.354 63.8311 190.06 63.4644 189.047 62.7311C188.047 61.9978 187.48 60.9978 187.347 59.7311H190.127C190.274 60.2378 190.587 60.6378 191.067 60.9311C191.56 61.2378 192.154 61.3911 192.847 61.3911C193.66 61.3911 194.32 61.1444 194.827 60.6511C195.334 60.1711 195.587 59.4378 195.587 58.4511V56.7311C195.227 57.2511 194.727 57.6844 194.087 58.0311C193.46 58.3778 192.74 58.5511 191.927 58.5511C190.994 58.5511 190.14 58.3111 189.367 57.8311C188.594 57.3511 187.98 56.6778 187.527 55.8111C187.087 54.9311 186.867 53.9244 186.867 52.7911C186.867 51.6711 187.087 50.6778 187.527 49.8111C187.98 48.9444 188.587 48.2778 189.347 47.8111C190.12 47.3444 190.98 47.1111 191.927 47.1111ZM195.587 52.8311C195.587 52.1511 195.454 51.5711 195.187 51.0911C194.92 50.5978 194.56 50.2244 194.107 49.9711C193.654 49.7044 193.167 49.5711 192.647 49.5711C192.127 49.5711 191.647 49.6978 191.207 49.9511C190.767 50.2044 190.407 50.5778 190.127 51.0711C189.86 51.5511 189.727 52.1244 189.727 52.7911C189.727 53.4578 189.86 54.0444 190.127 54.5511C190.407 55.0444 190.767 55.4244 191.207 55.6911C191.66 55.9578 192.14 56.0911 192.647 56.0911C193.167 56.0911 193.654 55.9644 194.107 55.7111C194.56 55.4444 194.92 55.0711 195.187 54.5911C195.454 54.0978 195.587 53.5111 195.587 52.8311ZM211.442 52.5911C211.442 52.9911 211.415 53.3511 211.362 53.6711H203.262C203.328 54.4711 203.608 55.0978 204.102 55.5511C204.595 56.0044 205.202 56.2311 205.922 56.2311C206.962 56.2311 207.702 55.7844 208.142 54.8911H211.162C210.842 55.9578 210.228 56.8378 209.322 57.5311C208.415 58.2111 207.302 58.5511 205.982 58.5511C204.915 58.5511 203.955 58.3178 203.102 57.8511C202.262 57.3711 201.602 56.6978 201.122 55.8311C200.655 54.9644 200.422 53.9644 200.422 52.8311C200.422 51.6844 200.655 50.6778 201.122 49.8111C201.588 48.9444 202.242 48.2778 203.082 47.8111C203.922 47.3444 204.888 47.1111 205.982 47.1111C207.035 47.1111 207.975 47.3378 208.802 47.7911C209.642 48.2444 210.288 48.8911 210.742 49.7311C211.208 50.5578 211.442 51.5111 211.442 52.5911ZM208.542 51.7911C208.528 51.0711 208.268 50.4978 207.762 50.0711C207.255 49.6311 206.635 49.4111 205.902 49.4111C205.208 49.4111 204.622 49.6244 204.142 50.0511C203.675 50.4644 203.388 51.0444 203.282 51.7911H208.542ZM219.625 47.1311C220.945 47.1311 222.012 47.5511 222.825 48.3911C223.639 49.2178 224.045 50.3778 224.045 51.8711V58.3711H221.245V52.2511C221.245 51.3711 221.025 50.6978 220.585 50.2311C220.145 49.7511 219.545 49.5111 218.785 49.5111C218.012 49.5111 217.399 49.7511 216.945 50.2311C216.505 50.6978 216.285 51.3711 216.285 52.2511V58.3711H213.485V47.2911H216.285V48.6711C216.659 48.1911 217.132 47.8178 217.705 47.5511C218.292 47.2711 218.932 47.1311 219.625 47.1311ZM225.988 52.8311C225.988 51.6844 226.221 50.6844 226.688 49.8311C227.155 48.9644 227.801 48.2978 228.628 47.8311C229.455 47.3511 230.401 47.1111 231.468 47.1111C232.841 47.1111 233.975 47.4578 234.868 48.1511C235.775 48.8311 236.381 49.7911 236.688 51.0311H233.668C233.508 50.5511 233.235 50.1778 232.848 49.9111C232.475 49.6311 232.008 49.4911 231.448 49.4911C230.648 49.4911 230.015 49.7844 229.548 50.3711C229.081 50.9444 228.848 51.7644 228.848 52.8311C228.848 53.8844 229.081 54.7044 229.548 55.2911C230.015 55.8644 230.648 56.1511 231.448 56.1511C232.581 56.1511 233.321 55.6444 233.668 54.6311H236.688C236.381 55.8311 235.775 56.7844 234.868 57.4911C233.961 58.1978 232.828 58.5511 231.468 58.5511C230.401 58.5511 229.455 58.3178 228.628 57.8511C227.801 57.3711 227.155 56.7044 226.688 55.8511C226.221 54.9844 225.988 53.9778 225.988 52.8311ZM249.039 52.5911C249.039 52.9911 249.013 53.3511 248.959 53.6711H240.859C240.926 54.4711 241.206 55.0978 241.699 55.5511C242.193 56.0044 242.799 56.2311 243.519 56.2311C244.559 56.2311 245.299 55.7844 245.739 54.8911H248.759C248.439 55.9578 247.826 56.8378 246.919 57.5311C246.013 58.2111 244.899 58.5511 243.579 58.5511C242.513 58.5511 241.553 58.3178 240.699 57.8511C239.859 57.3711 239.199 56.6978 238.719 55.8311C238.253 54.9644 238.019 53.9644 238.019 52.8311C238.019 51.6844 238.253 50.6778 238.719 49.8111C239.186 48.9444 239.839 48.2778 240.679 47.8111C241.519 47.3444 242.486 47.1111 243.579 47.1111C244.633 47.1111 245.573 47.3378 246.399 47.7911C247.239 48.2444 247.886 48.8911 248.339 49.7311C248.806 50.5578 249.039 51.5111 249.039 52.5911ZM246.139 51.7911C246.126 51.0711 245.866 50.4978 245.359 50.0711C244.853 49.6311 244.233 49.4111 243.499 49.4111C242.806 49.4111 242.219 49.6244 241.739 50.0511C241.273 50.4644 240.986 51.0444 240.879 51.7911H246.139Z" fill="white"/>
<path d="M56.3652 79.288C56.3652 79.8853 56.2212 80.4453 55.9332 80.968C55.6559 81.4907 55.2132 81.912 54.6052 82.232C54.0079 82.552 53.2505 82.712 52.3332 82.712H50.4612V87H48.2212V75.832H52.3332C53.1972 75.832 53.9332 75.9813 54.5412 76.28C55.1492 76.5787 55.6025 76.9893 55.9012 77.512C56.2105 78.0347 56.3652 78.6267 56.3652 79.288ZM52.2372 80.904C52.8559 80.904 53.3145 80.7653 53.6132 80.488C53.9119 80.2 54.0612 79.8 54.0612 79.288C54.0612 78.2 53.4532 77.656 52.2372 77.656H50.4612V80.904H52.2372ZM61.8916 87.144C61.0382 87.144 60.2702 86.9573 59.5876 86.584C58.9049 86.2 58.3662 85.6613 57.9716 84.968C57.5876 84.2747 57.3956 83.4747 57.3956 82.568C57.3956 81.6613 57.5929 80.8613 57.9876 80.168C58.3929 79.4747 58.9422 78.9413 59.6356 78.568C60.3289 78.184 61.1022 77.992 61.9556 77.992C62.8089 77.992 63.5822 78.184 64.2756 78.568C64.9689 78.9413 65.5129 79.4747 65.9076 80.168C66.3129 80.8613 66.5156 81.6613 66.5156 82.568C66.5156 83.4747 66.3076 84.2747 65.8916 84.968C65.4862 85.6613 64.9316 86.2 64.2276 86.584C63.5342 86.9573 62.7556 87.144 61.8916 87.144ZM61.8916 85.192C62.2969 85.192 62.6756 85.096 63.0276 84.904C63.3902 84.7013 63.6782 84.4027 63.8916 84.008C64.1049 83.6133 64.2116 83.1333 64.2116 82.568C64.2116 81.7253 63.9876 81.08 63.5396 80.632C63.1022 80.1733 62.5636 79.944 61.9236 79.944C61.2836 79.944 60.7449 80.1733 60.3076 80.632C59.8809 81.08 59.6676 81.7253 59.6676 82.568C59.6676 83.4107 59.8756 84.0613 60.2916 84.52C60.7182 84.968 61.2516 85.192 61.8916 85.192ZM76.5267 78.136V87H74.2707V85.88C73.9827 86.264 73.604 86.568 73.1347 86.792C72.676 87.0053 72.1747 87.112 71.6307 87.112C70.9374 87.112 70.324 86.968 69.7907 86.68C69.2574 86.3813 68.836 85.9493 68.5267 85.384C68.228 84.808 68.0787 84.1253 68.0787 83.336V78.136H70.3187V83.016C70.3187 83.72 70.4947 84.264 70.8467 84.648C71.1987 85.0213 71.6787 85.208 72.2867 85.208C72.9054 85.208 73.3907 85.0213 73.7427 84.648C74.0947 84.264 74.2707 83.72 74.2707 83.016V78.136H76.5267ZM80.9768 79.512C81.2648 79.0427 81.6381 78.6747 82.0968 78.408C82.5661 78.1413 83.0995 78.008 83.6968 78.008V80.36H83.1048C82.4008 80.36 81.8675 80.5253 81.5048 80.856C81.1528 81.1867 80.9768 81.7627 80.9768 82.584V87H78.7368V78.136H80.9768V79.512ZM91.2581 79.416C91.5461 79.0107 91.9407 78.6747 92.4421 78.408C92.9541 78.1307 93.5354 77.992 94.1861 77.992C94.9434 77.992 95.6261 78.1787 96.2341 78.552C96.8527 78.9253 97.3381 79.4587 97.6901 80.152C98.0527 80.8347 98.2341 81.6293 98.2341 82.536C98.2341 83.4427 98.0527 84.248 97.6901 84.952C97.3381 85.6453 96.8527 86.184 96.2341 86.568C95.6261 86.952 94.9434 87.144 94.1861 87.144C93.5354 87.144 92.9594 87.0107 92.4581 86.744C91.9674 86.4773 91.5674 86.1413 91.2581 85.736V91.224H89.0181V78.136H91.2581V79.416ZM95.9461 82.536C95.9461 82.0027 95.8341 81.544 95.6101 81.16C95.3967 80.7653 95.1087 80.4667 94.7461 80.264C94.3941 80.0613 94.0101 79.96 93.5941 79.96C93.1887 79.96 92.8047 80.0667 92.4421 80.28C92.0901 80.4827 91.8021 80.7813 91.5781 81.176C91.3647 81.5707 91.2581 82.0347 91.2581 82.568C91.2581 83.1013 91.3647 83.5653 91.5781 83.96C91.8021 84.3547 92.0901 84.6587 92.4421 84.872C92.8047 85.0747 93.1887 85.176 93.5941 85.176C94.0101 85.176 94.3941 85.0693 94.7461 84.856C95.1087 84.6427 95.3967 84.3387 95.6101 83.944C95.8341 83.5493 95.9461 83.08 95.9461 82.536ZM108.102 82.376C108.102 82.696 108.08 82.984 108.038 83.24H101.558C101.611 83.88 101.835 84.3813 102.23 84.744C102.624 85.1067 103.11 85.288 103.686 85.288C104.518 85.288 105.11 84.9307 105.462 84.216H107.878C107.622 85.0693 107.131 85.7733 106.406 86.328C105.68 86.872 104.79 87.144 103.734 87.144C102.88 87.144 102.112 86.9573 101.43 86.584C100.758 86.2 100.23 85.6613 99.8458 84.968C99.4725 84.2747 99.2858 83.4747 99.2858 82.568C99.2858 81.6507 99.4725 80.8453 99.8458 80.152C100.219 79.4587 100.742 78.9253 101.414 78.552C102.086 78.1787 102.859 77.992 103.734 77.992C104.576 77.992 105.328 78.1733 105.99 78.536C106.662 78.8987 107.179 79.416 107.542 80.088C107.915 80.7493 108.102 81.512 108.102 82.376ZM105.782 81.736C105.771 81.16 105.563 80.7013 105.158 80.36C104.752 80.008 104.256 79.832 103.67 79.832C103.115 79.832 102.646 80.0027 102.262 80.344C101.888 80.6747 101.659 81.1387 101.574 81.736H105.782ZM111.977 79.512C112.265 79.0427 112.638 78.6747 113.097 78.408C113.566 78.1413 114.099 78.008 114.697 78.008V80.36H114.105C113.401 80.36 112.867 80.5253 112.505 80.856C112.153 81.1867 111.977 81.7627 111.977 82.584V87H109.737V78.136H111.977V79.512ZM119.598 87.144C118.872 87.144 118.222 87.016 117.646 86.76C117.07 86.4933 116.611 86.136 116.27 85.688C115.939 85.24 115.758 84.744 115.726 84.2H117.982C118.024 84.5413 118.19 84.824 118.478 85.048C118.776 85.272 119.144 85.384 119.582 85.384C120.008 85.384 120.339 85.2987 120.574 85.128C120.819 84.9573 120.942 84.7387 120.942 84.472C120.942 84.184 120.792 83.9707 120.494 83.832C120.206 83.6827 119.742 83.5227 119.102 83.352C118.44 83.192 117.896 83.0267 117.47 82.856C117.054 82.6853 116.691 82.424 116.382 82.072C116.083 81.72 115.934 81.2453 115.934 80.648C115.934 80.1573 116.072 79.7093 116.35 79.304C116.638 78.8987 117.043 78.5787 117.566 78.344C118.099 78.1093 118.723 77.992 119.438 77.992C120.494 77.992 121.336 78.2587 121.966 78.792C122.595 79.3147 122.942 80.024 123.006 80.92H120.862C120.83 80.568 120.68 80.2907 120.414 80.088C120.158 79.8747 119.811 79.768 119.374 79.768C118.968 79.768 118.654 79.8427 118.43 79.992C118.216 80.1413 118.11 80.3493 118.11 80.616C118.11 80.9147 118.259 81.144 118.558 81.304C118.856 81.4533 119.32 81.608 119.95 81.768C120.59 81.928 121.118 82.0933 121.534 82.264C121.95 82.4347 122.307 82.7013 122.606 83.064C122.915 83.416 123.075 83.8853 123.086 84.472C123.086 84.984 122.942 85.4427 122.654 85.848C122.376 86.2533 121.971 86.5733 121.438 86.808C120.915 87.032 120.302 87.144 119.598 87.144ZM128.86 87.144C128.007 87.144 127.239 86.9573 126.556 86.584C125.874 86.2 125.335 85.6613 124.94 84.968C124.556 84.2747 124.364 83.4747 124.364 82.568C124.364 81.6613 124.562 80.8613 124.956 80.168C125.362 79.4747 125.911 78.9413 126.604 78.568C127.298 78.184 128.071 77.992 128.924 77.992C129.778 77.992 130.551 78.184 131.244 78.568C131.938 78.9413 132.482 79.4747 132.876 80.168C133.282 80.8613 133.484 81.6613 133.484 82.568C133.484 83.4747 133.276 84.2747 132.86 84.968C132.455 85.6613 131.9 86.2 131.196 86.584C130.503 86.9573 129.724 87.144 128.86 87.144ZM128.86 85.192C129.266 85.192 129.644 85.096 129.996 84.904C130.359 84.7013 130.647 84.4027 130.86 84.008C131.074 83.6133 131.18 83.1333 131.18 82.568C131.18 81.7253 130.956 81.08 130.508 80.632C130.071 80.1733 129.532 79.944 128.892 79.944C128.252 79.944 127.714 80.1733 127.276 80.632C126.85 81.08 126.636 81.7253 126.636 82.568C126.636 83.4107 126.844 84.0613 127.26 84.52C127.687 84.968 128.22 85.192 128.86 85.192ZM140.039 78.008C141.095 78.008 141.949 78.344 142.599 79.016C143.25 79.6773 143.575 80.6053 143.575 81.8V87H141.335V82.104C141.335 81.4 141.159 80.8613 140.807 80.488C140.455 80.104 139.975 79.912 139.367 79.912C138.749 79.912 138.258 80.104 137.895 80.488C137.543 80.8613 137.367 81.4 137.367 82.104V87H135.127V78.136H137.367V79.24C137.666 78.856 138.045 78.5573 138.503 78.344C138.973 78.12 139.485 78.008 140.039 78.008ZM150.618 78.008C151.674 78.008 152.527 78.344 153.178 79.016C153.828 79.6773 154.154 80.6053 154.154 81.8V87H151.914V82.104C151.914 81.4 151.738 80.8613 151.386 80.488C151.034 80.104 150.554 79.912 149.946 79.912C149.327 79.912 148.836 80.104 148.474 80.488C148.122 80.8613 147.946 81.4 147.946 82.104V87H145.706V78.136H147.946V79.24C148.244 78.856 148.623 78.5573 149.082 78.344C149.551 78.12 150.063 78.008 150.618 78.008ZM164.524 82.376C164.524 82.696 164.502 82.984 164.46 83.24H157.98C158.033 83.88 158.257 84.3813 158.652 84.744C159.046 85.1067 159.532 85.288 160.108 85.288C160.94 85.288 161.532 84.9307 161.884 84.216H164.3C164.044 85.0693 163.553 85.7733 162.828 86.328C162.102 86.872 161.212 87.144 160.156 87.144C159.302 87.144 158.534 86.9573 157.852 86.584C157.18 86.2 156.652 85.6613 156.268 84.968C155.894 84.2747 155.708 83.4747 155.708 82.568C155.708 81.6507 155.894 80.8453 156.268 80.152C156.641 79.4587 157.164 78.9253 157.836 78.552C158.508 78.1787 159.281 77.992 160.156 77.992C160.998 77.992 161.75 78.1733 162.412 78.536C163.084 78.8987 163.601 79.416 163.964 80.088C164.337 80.7493 164.524 81.512 164.524 82.376ZM162.204 81.736C162.193 81.16 161.985 80.7013 161.58 80.36C161.174 80.008 160.678 79.832 160.092 79.832C159.537 79.832 159.068 80.0027 158.684 80.344C158.31 80.6747 158.081 81.1387 157.996 81.736H162.204ZM169.551 87.144C168.825 87.144 168.175 87.016 167.599 86.76C167.023 86.4933 166.564 86.136 166.223 85.688C165.892 85.24 165.711 84.744 165.679 84.2H167.935C167.977 84.5413 168.143 84.824 168.431 85.048C168.729 85.272 169.097 85.384 169.535 85.384C169.961 85.384 170.292 85.2987 170.527 85.128C170.772 84.9573 170.895 84.7387 170.895 84.472C170.895 84.184 170.745 83.9707 170.447 83.832C170.159 83.6827 169.695 83.5227 169.055 83.352C168.393 83.192 167.849 83.0267 167.423 82.856C167.007 82.6853 166.644 82.424 166.335 82.072C166.036 81.72 165.887 81.2453 165.887 80.648C165.887 80.1573 166.025 79.7093 166.303 79.304C166.591 78.8987 166.996 78.5787 167.519 78.344C168.052 78.1093 168.676 77.992 169.391 77.992C170.447 77.992 171.289 78.2587 171.919 78.792C172.548 79.3147 172.895 80.024 172.959 80.92H170.815C170.783 80.568 170.633 80.2907 170.367 80.088C170.111 79.8747 169.764 79.768 169.327 79.768C168.921 79.768 168.607 79.8427 168.383 79.992C168.169 80.1413 168.063 80.3493 168.063 80.616C168.063 80.9147 168.212 81.144 168.511 81.304C168.809 81.4533 169.273 81.608 169.903 81.768C170.543 81.928 171.071 82.0933 171.487 82.264C171.903 82.4347 172.26 82.7013 172.559 83.064C172.868 83.416 173.028 83.8853 173.039 84.472C173.039 84.984 172.895 85.4427 172.607 85.848C172.329 86.2533 171.924 86.5733 171.391 86.808C170.868 87.032 170.255 87.144 169.551 87.144ZM182.082 87.144C181.357 87.144 180.706 87.016 180.13 86.76C179.554 86.4933 179.095 86.136 178.754 85.688C178.423 85.24 178.242 84.744 178.21 84.2H180.466C180.509 84.5413 180.674 84.824 180.962 85.048C181.261 85.272 181.629 85.384 182.066 85.384C182.493 85.384 182.823 85.2987 183.058 85.128C183.303 84.9573 183.426 84.7387 183.426 84.472C183.426 84.184 183.277 83.9707 182.978 83.832C182.69 83.6827 182.226 83.5227 181.586 83.352C180.925 83.192 180.381 83.0267 179.954 82.856C179.538 82.6853 179.175 82.424 178.866 82.072C178.567 81.72 178.418 81.2453 178.418 80.648C178.418 80.1573 178.557 79.7093 178.834 79.304C179.122 78.8987 179.527 78.5787 180.05 78.344C180.583 78.1093 181.207 77.992 181.922 77.992C182.978 77.992 183.821 78.2587 184.45 78.792C185.079 79.3147 185.426 80.024 185.49 80.92H183.346C183.314 80.568 183.165 80.2907 182.898 80.088C182.642 79.8747 182.295 79.768 181.858 79.768C181.453 79.768 181.138 79.8427 180.914 79.992C180.701 80.1413 180.594 80.3493 180.594 80.616C180.594 80.9147 180.743 81.144 181.042 81.304C181.341 81.4533 181.805 81.608 182.434 81.768C183.074 81.928 183.602 82.0933 184.018 82.264C184.434 82.4347 184.791 82.7013 185.09 83.064C185.399 83.416 185.559 83.8853 185.57 84.472C185.57 84.984 185.426 85.4427 185.138 85.848C184.861 86.2533 184.455 86.5733 183.922 86.808C183.399 87.032 182.786 87.144 182.082 87.144ZM191.345 87.144C190.491 87.144 189.723 86.9573 189.041 86.584C188.358 86.2 187.819 85.6613 187.425 84.968C187.041 84.2747 186.849 83.4747 186.849 82.568C186.849 81.6613 187.046 80.8613 187.441 80.168C187.846 79.4747 188.395 78.9413 189.089 78.568C189.782 78.184 190.555 77.992 191.409 77.992C192.262 77.992 193.035 78.184 193.729 78.568C194.422 78.9413 194.966 79.4747 195.361 80.168C195.766 80.8613 195.969 81.6613 195.969 82.568C195.969 83.4747 195.761 84.2747 195.345 84.968C194.939 85.6613 194.385 86.2 193.681 86.584C192.987 86.9573 192.209 87.144 191.345 87.144ZM191.345 85.192C191.75 85.192 192.129 85.096 192.481 84.904C192.843 84.7013 193.131 84.4027 193.345 84.008C193.558 83.6133 193.665 83.1333 193.665 82.568C193.665 81.7253 193.441 81.08 192.993 80.632C192.555 80.1733 192.017 79.944 191.377 79.944C190.737 79.944 190.198 80.1733 189.761 80.632C189.334 81.08 189.121 81.7253 189.121 82.568C189.121 83.4107 189.329 84.0613 189.745 84.52C190.171 84.968 190.705 85.192 191.345 85.192ZM205.98 78.136V87H203.724V85.88C203.436 86.264 203.057 86.568 202.588 86.792C202.129 87.0053 201.628 87.112 201.084 87.112C200.39 87.112 199.777 86.968 199.244 86.68C198.71 86.3813 198.289 85.9493 197.98 85.384C197.681 84.808 197.532 84.1253 197.532 83.336V78.136H199.772V83.016C199.772 83.72 199.948 84.264 200.3 84.648C200.652 85.0213 201.132 85.208 201.74 85.208C202.358 85.208 202.844 85.0213 203.196 84.648C203.548 84.264 203.724 83.72 203.724 83.016V78.136H205.98ZM210.43 79.512C210.718 79.0427 211.091 78.6747 211.55 78.408C212.019 78.1413 212.553 78.008 213.15 78.008V80.36H212.558C211.854 80.36 211.321 80.5253 210.958 80.856C210.606 81.1867 210.43 81.7627 210.43 82.584V87H208.19V78.136H210.43V79.512ZM214.083 82.536C214.083 81.64 214.259 80.8453 214.611 80.152C214.973 79.4587 215.464 78.9253 216.083 78.552C216.701 78.1787 217.389 77.992 218.147 77.992C218.723 77.992 219.272 78.12 219.795 78.376C220.317 78.6213 220.733 78.952 221.043 79.368V75.16H223.315V87H221.043V85.688C220.765 86.1253 220.376 86.4773 219.875 86.744C219.373 87.0107 218.792 87.144 218.131 87.144C217.384 87.144 216.701 86.952 216.083 86.568C215.464 86.184 214.973 85.6453 214.611 84.952C214.259 84.248 214.083 83.4427 214.083 82.536ZM221.059 82.568C221.059 82.024 220.952 81.56 220.739 81.176C220.525 80.7813 220.237 80.4827 219.875 80.28C219.512 80.0667 219.123 79.96 218.707 79.96C218.291 79.96 217.907 80.0613 217.555 80.264C217.203 80.4667 216.915 80.7653 216.691 81.16C216.477 81.544 216.371 82.0027 216.371 82.536C216.371 83.0693 216.477 83.5387 216.691 83.944C216.915 84.3387 217.203 84.6427 217.555 84.856C217.917 85.0693 218.301 85.176 218.707 85.176C219.123 85.176 219.512 85.0747 219.875 84.872C220.237 84.6587 220.525 84.36 220.739 83.976C220.952 83.5813 221.059 83.112 221.059 82.568ZM233.742 82.376C233.742 82.696 233.721 82.984 233.678 83.24H227.198C227.252 83.88 227.476 84.3813 227.87 84.744C228.265 85.1067 228.75 85.288 229.326 85.288C230.158 85.288 230.75 84.9307 231.102 84.216H233.518C233.262 85.0693 232.772 85.7733 232.046 86.328C231.321 86.872 230.43 87.144 229.374 87.144C228.521 87.144 227.753 86.9573 227.07 86.584C226.398 86.2 225.87 85.6613 225.486 84.968C225.113 84.2747 224.926 83.4747 224.926 82.568C224.926 81.6507 225.113 80.8453 225.486 80.152C225.86 79.4587 226.382 78.9253 227.054 78.552C227.726 78.1787 228.5 77.992 229.374 77.992C230.217 77.992 230.969 78.1733 231.63 78.536C232.302 78.8987 232.82 79.416 233.182 80.088C233.556 80.7493 233.742 81.512 233.742 82.376ZM231.422 81.736C231.412 81.16 231.204 80.7013 230.798 80.36C230.393 80.008 229.897 79.832 229.31 79.832C228.756 79.832 228.286 80.0027 227.902 80.344C227.529 80.6747 227.3 81.1387 227.214 81.736H231.422ZM238.769 87.144C238.044 87.144 237.393 87.016 236.817 86.76C236.241 86.4933 235.783 86.136 235.441 85.688C235.111 85.24 234.929 84.744 234.897 84.2H237.153C237.196 84.5413 237.361 84.824 237.649 85.048C237.948 85.272 238.316 85.384 238.753 85.384C239.18 85.384 239.511 85.2987 239.745 85.128C239.991 84.9573 240.113 84.7387 240.113 84.472C240.113 84.184 239.964 83.9707 239.665 83.832C239.377 83.6827 238.913 83.5227 238.273 83.352C237.612 83.192 237.068 83.0267 236.641 82.856C236.225 82.6853 235.863 82.424 235.553 82.072C235.255 81.72 235.105 81.2453 235.105 80.648C235.105 80.1573 235.244 79.7093 235.521 79.304C235.809 78.8987 236.215 78.5787 236.737 78.344C237.271 78.1093 237.895 77.992 238.609 77.992C239.665 77.992 240.508 78.2587 241.137 78.792C241.767 79.3147 242.113 80.024 242.177 80.92H240.033C240.001 80.568 239.852 80.2907 239.585 80.088C239.329 79.8747 238.983 79.768 238.545 79.768C238.14 79.768 237.825 79.8427 237.601 79.992C237.388 80.1413 237.281 80.3493 237.281 80.616C237.281 80.9147 237.431 81.144 237.729 81.304C238.028 81.4533 238.492 81.608 239.121 81.768C239.761 81.928 240.289 82.0933 240.705 82.264C241.121 82.4347 241.479 82.7013 241.777 83.064C242.087 83.416 242.247 83.8853 242.257 84.472C242.257 84.984 242.113 85.4427 241.825 85.848C241.548 86.2533 241.143 86.5733 240.609 86.808C240.087 87.032 239.473 87.144 238.769 87.144ZM256.149 82.376C256.149 82.696 256.127 82.984 256.085 83.24H249.605C249.658 83.88 249.882 84.3813 250.277 84.744C250.671 85.1067 251.157 85.288 251.733 85.288C252.565 85.288 253.157 84.9307 253.509 84.216H255.925C255.669 85.0693 255.178 85.7733 254.453 86.328C253.727 86.872 252.837 87.144 251.781 87.144C250.927 87.144 250.159 86.9573 249.477 86.584C248.805 86.2 248.277 85.6613 247.893 84.968C247.519 84.2747 247.333 83.4747 247.333 82.568C247.333 81.6507 247.519 80.8453 247.893 80.152C248.266 79.4587 248.789 78.9253 249.461 78.552C250.133 78.1787 250.906 77.992 251.781 77.992C252.623 77.992 253.375 78.1733 254.037 78.536C254.709 78.8987 255.226 79.416 255.589 80.088C255.962 80.7493 256.149 81.512 256.149 82.376ZM253.829 81.736C253.818 81.16 253.61 80.7013 253.205 80.36C252.799 80.008 252.303 79.832 251.717 79.832C251.162 79.832 250.693 80.0027 250.309 80.344C249.935 80.6747 249.706 81.1387 249.621 81.736H253.829ZM260.392 79.976V84.264C260.392 84.5627 260.461 84.7813 260.6 84.92C260.749 85.048 260.994 85.112 261.336 85.112H262.376V87H260.968C259.08 87 258.136 86.0827 258.136 84.248V79.976H257.08V78.136H258.136V75.944H260.392V78.136H262.376V79.976H260.392ZM98.9948 102.008C100.083 102.008 100.957 102.344 101.619 103.016C102.291 103.677 102.627 104.605 102.627 105.8V111H100.387V106.104C100.387 105.411 100.211 104.883 99.8588 104.52C99.5068 104.147 99.0268 103.96 98.4188 103.96C97.8108 103.96 97.3255 104.147 96.9628 104.52C96.6108 104.883 96.4348 105.411 96.4348 106.104V111H94.1948V106.104C94.1948 105.411 94.0188 104.883 93.6668 104.52C93.3148 104.147 92.8348 103.96 92.2268 103.96C91.6081 103.96 91.1175 104.147 90.7548 104.52C90.4028 104.883 90.2268 105.411 90.2268 106.104V111H87.9868V102.136H90.2268V103.208C90.5148 102.835 90.8828 102.541 91.3308 102.328C91.7895 102.115 92.2908 102.008 92.8348 102.008C93.5281 102.008 94.1468 102.157 94.6908 102.456C95.2348 102.744 95.6561 103.16 95.9548 103.704C96.2428 103.192 96.6588 102.781 97.2028 102.472C97.7575 102.163 98.3548 102.008 98.9948 102.008ZM104.176 106.536C104.176 105.64 104.352 104.845 104.704 104.152C105.067 103.459 105.552 102.925 106.16 102.552C106.779 102.179 107.467 101.992 108.224 101.992C108.886 101.992 109.462 102.125 109.952 102.392C110.454 102.659 110.854 102.995 111.152 103.4V102.136H113.408V111H111.152V109.704C110.864 110.12 110.464 110.467 109.952 110.744C109.451 111.011 108.87 111.144 108.208 111.144C107.462 111.144 106.779 110.952 106.16 110.568C105.552 110.184 105.067 109.645 104.704 108.952C104.352 108.248 104.176 107.443 104.176 106.536ZM111.152 106.568C111.152 106.024 111.046 105.56 110.832 105.176C110.619 104.781 110.331 104.483 109.968 104.28C109.606 104.067 109.216 103.96 108.8 103.96C108.384 103.96 108 104.061 107.648 104.264C107.296 104.467 107.008 104.765 106.784 105.16C106.571 105.544 106.464 106.003 106.464 106.536C106.464 107.069 106.571 107.539 106.784 107.944C107.008 108.339 107.296 108.643 107.648 108.856C108.011 109.069 108.395 109.176 108.8 109.176C109.216 109.176 109.606 109.075 109.968 108.872C110.331 108.659 110.619 108.36 110.832 107.976C111.046 107.581 111.152 107.112 111.152 106.568ZM117.836 99.16V111H115.596V99.16H117.836ZM128.289 106.376C128.289 106.696 128.268 106.984 128.225 107.24H121.745C121.799 107.88 122.023 108.381 122.417 108.744C122.812 109.107 123.297 109.288 123.873 109.288C124.705 109.288 125.297 108.931 125.649 108.216H128.065C127.809 109.069 127.319 109.773 126.593 110.328C125.868 110.872 124.977 111.144 123.921 111.144C123.068 111.144 122.3 110.957 121.617 110.584C120.945 110.2 120.417 109.661 120.033 108.968C119.66 108.275 119.473 107.475 119.473 106.568C119.473 105.651 119.66 104.845 120.033 104.152C120.407 103.459 120.929 102.925 121.601 102.552C122.273 102.179 123.047 101.992 123.921 101.992C124.764 101.992 125.516 102.173 126.177 102.536C126.849 102.899 127.367 103.416 127.729 104.088C128.103 104.749 128.289 105.512 128.289 106.376ZM125.969 105.736C125.959 105.16 125.751 104.701 125.345 104.36C124.94 104.008 124.444 103.832 123.857 103.832C123.303 103.832 122.833 104.003 122.449 104.344C122.076 104.675 121.847 105.139 121.761 105.736H125.969ZM134.836 102.008C135.892 102.008 136.746 102.344 137.396 103.016C138.047 103.677 138.372 104.605 138.372 105.8V111H136.132V106.104C136.132 105.4 135.956 104.861 135.604 104.488C135.252 104.104 134.772 103.912 134.164 103.912C133.546 103.912 133.055 104.104 132.692 104.488C132.34 104.861 132.164 105.4 132.164 106.104V111H129.924V102.136H132.164V103.24C132.463 102.856 132.842 102.557 133.3 102.344C133.77 102.12 134.282 102.008 134.836 102.008ZM143.11 103.976V108.264C143.11 108.563 143.18 108.781 143.318 108.92C143.468 109.048 143.713 109.112 144.054 109.112H145.094V111H143.686C141.798 111 140.854 110.083 140.854 108.248V103.976H139.798V102.136H140.854V99.944H143.11V102.136H145.094V103.976H143.11ZM154.946 106.376C154.946 106.696 154.924 106.984 154.882 107.24H148.402C148.455 107.88 148.679 108.381 149.074 108.744C149.468 109.107 149.954 109.288 150.53 109.288C151.362 109.288 151.954 108.931 152.306 108.216H154.722C154.466 109.069 153.975 109.773 153.25 110.328C152.524 110.872 151.634 111.144 150.578 111.144C149.724 111.144 148.956 110.957 148.274 110.584C147.602 110.2 147.074 109.661 146.69 108.968C146.316 108.275 146.13 107.475 146.13 106.568C146.13 105.651 146.316 104.845 146.69 104.152C147.063 103.459 147.586 102.925 148.258 102.552C148.93 102.179 149.703 101.992 150.578 101.992C151.42 101.992 152.172 102.173 152.834 102.536C153.506 102.899 154.023 103.416 154.386 104.088C154.759 104.749 154.946 105.512 154.946 106.376ZM152.626 105.736C152.615 105.16 152.407 104.701 152.002 104.36C151.596 104.008 151.1 103.832 150.514 103.832C149.959 103.832 149.49 104.003 149.106 104.344C148.732 104.675 148.503 105.139 148.418 105.736H152.626ZM161.493 102.008C162.549 102.008 163.402 102.344 164.053 103.016C164.703 103.677 165.029 104.605 165.029 105.8V111H162.789V106.104C162.789 105.4 162.613 104.861 162.261 104.488C161.909 104.104 161.429 103.912 160.821 103.912C160.202 103.912 159.711 104.104 159.349 104.488C158.997 104.861 158.821 105.4 158.821 106.104V111H156.581V102.136H158.821V103.24C159.119 102.856 159.498 102.557 159.957 102.344C160.426 102.12 160.938 102.008 161.493 102.008ZM166.583 106.536C166.583 105.64 166.759 104.845 167.111 104.152C167.473 103.459 167.964 102.925 168.583 102.552C169.201 102.179 169.889 101.992 170.647 101.992C171.223 101.992 171.772 102.12 172.295 102.376C172.817 102.621 173.233 102.952 173.543 103.368V99.16H175.815V111H173.543V109.688C173.265 110.125 172.876 110.477 172.375 110.744C171.873 111.011 171.292 111.144 170.631 111.144C169.884 111.144 169.201 110.952 168.583 110.568C167.964 110.184 167.473 109.645 167.111 108.952C166.759 108.248 166.583 107.443 166.583 106.536ZM173.559 106.568C173.559 106.024 173.452 105.56 173.239 105.176C173.025 104.781 172.737 104.483 172.375 104.28C172.012 104.067 171.623 103.96 171.207 103.96C170.791 103.96 170.407 104.061 170.055 104.264C169.703 104.467 169.415 104.765 169.191 105.16C168.977 105.544 168.871 106.003 168.871 106.536C168.871 107.069 168.977 107.539 169.191 107.944C169.415 108.339 169.703 108.643 170.055 108.856C170.417 109.069 170.801 109.176 171.207 109.176C171.623 109.176 172.012 109.075 172.375 108.872C172.737 108.659 173.025 108.36 173.239 107.976C173.452 107.581 173.559 107.112 173.559 106.568ZM177.426 106.536C177.426 105.64 177.602 104.845 177.954 104.152C178.317 103.459 178.802 102.925 179.41 102.552C180.029 102.179 180.717 101.992 181.474 101.992C182.136 101.992 182.712 102.125 183.202 102.392C183.704 102.659 184.104 102.995 184.402 103.4V102.136H186.658V111H184.402V109.704C184.114 110.12 183.714 110.467 183.202 110.744C182.701 111.011 182.12 111.144 181.458 111.144C180.712 111.144 180.029 110.952 179.41 110.568C178.802 110.184 178.317 109.645 177.954 108.952C177.602 108.248 177.426 107.443 177.426 106.536ZM184.402 106.568C184.402 106.024 184.296 105.56 184.082 105.176C183.869 104.781 183.581 104.483 183.218 104.28C182.856 104.067 182.466 103.96 182.05 103.96C181.634 103.96 181.25 104.061 180.898 104.264C180.546 104.467 180.258 104.765 180.034 105.16C179.821 105.544 179.714 106.003 179.714 106.536C179.714 107.069 179.821 107.539 180.034 107.944C180.258 108.339 180.546 108.643 180.898 108.856C181.261 109.069 181.645 109.176 182.05 109.176C182.466 109.176 182.856 109.075 183.218 108.872C183.581 108.659 183.869 108.36 184.082 107.976C184.296 107.581 184.402 107.112 184.402 106.568ZM193.758 102.008C194.814 102.008 195.668 102.344 196.318 103.016C196.969 103.677 197.294 104.605 197.294 105.8V111H195.054V106.104C195.054 105.4 194.878 104.861 194.526 104.488C194.174 104.104 193.694 103.912 193.086 103.912C192.468 103.912 191.977 104.104 191.614 104.488C191.262 104.861 191.086 105.4 191.086 106.104V111H188.846V102.136H191.086V103.24C191.385 102.856 191.764 102.557 192.222 102.344C192.692 102.12 193.204 102.008 193.758 102.008ZM202.032 103.976V108.264C202.032 108.563 202.102 108.781 202.24 108.92C202.39 109.048 202.635 109.112 202.976 109.112H204.016V111H202.608C200.72 111 199.776 110.083 199.776 108.248V103.976H198.72V102.136H199.776V99.944H202.032V102.136H204.016V103.976H202.032ZM213.867 106.376C213.867 106.696 213.846 106.984 213.803 107.24H207.323C207.377 107.88 207.601 108.381 207.995 108.744C208.39 109.107 208.875 109.288 209.451 109.288C210.283 109.288 210.875 108.931 211.227 108.216H213.643C213.387 109.069 212.897 109.773 212.171 110.328C211.446 110.872 210.555 111.144 209.499 111.144C208.646 111.144 207.878 110.957 207.195 110.584C206.523 110.2 205.995 109.661 205.611 108.968C205.238 108.275 205.051 107.475 205.051 106.568C205.051 105.651 205.238 104.845 205.611 104.152C205.985 103.459 206.507 102.925 207.179 102.552C207.851 102.179 208.625 101.992 209.499 101.992C210.342 101.992 211.094 102.173 211.755 102.536C212.427 102.899 212.945 103.416 213.307 104.088C213.681 104.749 213.867 105.512 213.867 106.376ZM211.547 105.736C211.537 105.16 211.329 104.701 210.923 104.36C210.518 104.008 210.022 103.832 209.435 103.832C208.881 103.832 208.411 104.003 208.027 104.344C207.654 104.675 207.425 105.139 207.339 105.736H211.547ZM218.894 111.144C218.169 111.144 217.518 111.016 216.942 110.76C216.366 110.493 215.908 110.136 215.566 109.688C215.236 109.24 215.054 108.744 215.022 108.2H217.278C217.321 108.541 217.486 108.824 217.774 109.048C218.073 109.272 218.441 109.384 218.878 109.384C219.305 109.384 219.636 109.299 219.87 109.128C220.116 108.957 220.238 108.739 220.238 108.472C220.238 108.184 220.089 107.971 219.79 107.832C219.502 107.683 219.038 107.523 218.398 107.352C217.737 107.192 217.193 107.027 216.766 106.856C216.35 106.685 215.988 106.424 215.678 106.072C215.38 105.72 215.23 105.245 215.23 104.648C215.23 104.157 215.369 103.709 215.646 103.304C215.934 102.899 216.34 102.579 216.862 102.344C217.396 102.109 218.02 101.992 218.734 101.992C219.79 101.992 220.633 102.259 221.262 102.792C221.892 103.315 222.238 104.024 222.302 104.92H220.158C220.126 104.568 219.977 104.291 219.71 104.088C219.454 103.875 219.108 103.768 218.67 103.768C218.265 103.768 217.95 103.843 217.726 103.992C217.513 104.141 217.406 104.349 217.406 104.616C217.406 104.915 217.556 105.144 217.854 105.304C218.153 105.453 218.617 105.608 219.246 105.768C219.886 105.928 220.414 106.093 220.83 106.264C221.246 106.435 221.604 106.701 221.902 107.064C222.212 107.416 222.372 107.885 222.382 108.472C222.382 108.984 222.238 109.443 221.95 109.848C221.673 110.253 221.268 110.573 220.734 110.808C220.212 111.032 219.598 111.144 218.894 111.144Z" fill="white"/>
</svg>
