<svg width="306" height="211" viewBox="0 0 306 211" fill="none" xmlns="http://www.w3.org/2000/svg">
<rect width="306" height="211" rx="100" fill="#DF80A9"/>
<path d="M75.6415 97.848C76.8575 97.848 77.9082 98.0773 78.7935 98.536C79.6895 98.984 80.3722 99.6293 80.8415 100.472C81.3215 101.315 81.5615 102.307 81.5615 103.448C81.5615 104.589 81.3215 105.581 80.8415 106.424C80.3722 107.256 79.6895 107.896 78.7935 108.344C77.9082 108.781 76.8575 109 75.6415 109H72.1695V97.848H75.6415ZM75.6415 107.8C77.0815 107.8 78.1802 107.421 78.9375 106.664C79.6948 105.896 80.0735 104.824 80.0735 103.448C80.0735 102.061 79.6895 100.979 78.9215 100.2C78.1642 99.4213 77.0708 99.032 75.6415 99.032H73.6255V107.8H75.6415ZM91.258 100.232V109H89.802V107.704C89.5247 108.152 89.1353 108.504 88.634 108.76C88.1433 109.005 87.5993 109.128 87.002 109.128C86.3193 109.128 85.706 108.989 85.162 108.712C84.618 108.424 84.186 107.997 83.866 107.432C83.5567 106.867 83.402 106.179 83.402 105.368V100.232H84.842V105.176C84.842 106.04 85.0607 106.707 85.498 107.176C85.9353 107.635 86.5327 107.864 87.29 107.864C88.0687 107.864 88.682 107.624 89.13 107.144C89.578 106.664 89.802 105.965 89.802 105.048V100.232H91.258ZM99.438 97.16V109H97.982V97.16H99.438ZM109.696 100.232V109H108.24V107.704C107.962 108.152 107.573 108.504 107.072 108.76C106.581 109.005 106.037 109.128 105.44 109.128C104.757 109.128 104.144 108.989 103.6 108.712C103.056 108.424 102.624 107.997 102.304 107.432C101.994 106.867 101.84 106.179 101.84 105.368V100.232H103.28V105.176C103.28 106.04 103.498 106.707 103.936 107.176C104.373 107.635 104.97 107.864 105.728 107.864C106.506 107.864 107.12 107.624 107.568 107.144C108.016 106.664 108.24 105.965 108.24 105.048V100.232H109.696ZM116.426 100.072C117.493 100.072 118.357 100.397 119.018 101.048C119.679 101.688 120.01 102.616 120.01 103.832V109H118.57V104.04C118.57 103.165 118.351 102.499 117.914 102.04C117.477 101.571 116.879 101.336 116.122 101.336C115.354 101.336 114.741 101.576 114.282 102.056C113.834 102.536 113.61 103.235 113.61 104.152V109H112.154V100.232H113.61V101.48C113.898 101.032 114.287 100.685 114.778 100.44C115.279 100.195 115.829 100.072 116.426 100.072ZM121.844 104.584C121.844 103.688 122.026 102.904 122.388 102.232C122.751 101.549 123.247 101.021 123.876 100.648C124.516 100.275 125.231 100.088 126.02 100.088C126.703 100.088 127.338 100.248 127.924 100.568C128.511 100.877 128.959 101.288 129.268 101.8V97.16H130.74V109H129.268V107.352C128.98 107.875 128.554 108.307 127.988 108.648C127.423 108.979 126.762 109.144 126.004 109.144C125.226 109.144 124.516 108.952 123.876 108.568C123.247 108.184 122.751 107.645 122.388 106.952C122.026 106.259 121.844 105.469 121.844 104.584ZM129.268 104.6C129.268 103.939 129.135 103.363 128.868 102.872C128.602 102.381 128.239 102.008 127.78 101.752C127.332 101.485 126.836 101.352 126.292 101.352C125.748 101.352 125.252 101.48 124.804 101.736C124.356 101.992 123.999 102.365 123.732 102.856C123.466 103.347 123.332 103.923 123.332 104.584C123.332 105.256 123.466 105.843 123.732 106.344C123.999 106.835 124.356 107.213 124.804 107.48C125.252 107.736 125.748 107.864 126.292 107.864C126.836 107.864 127.332 107.736 127.78 107.48C128.239 107.213 128.602 106.835 128.868 106.344C129.135 105.843 129.268 105.261 129.268 104.6ZM133.953 98.808C133.675 98.808 133.441 98.712 133.249 98.52C133.057 98.328 132.961 98.0933 132.961 97.816C132.961 97.5387 133.057 97.304 133.249 97.112C133.441 96.92 133.675 96.824 133.953 96.824C134.219 96.824 134.443 96.92 134.625 97.112C134.817 97.304 134.913 97.5387 134.913 97.816C134.913 98.0933 134.817 98.328 134.625 98.52C134.443 98.712 134.219 98.808 133.953 98.808ZM134.657 100.232V109H133.201V100.232H134.657ZM140.86 104.584C140.86 103.688 141.041 102.904 141.404 102.232C141.767 101.549 142.263 101.021 142.892 100.648C143.532 100.275 144.241 100.088 145.02 100.088C145.788 100.088 146.455 100.253 147.02 100.584C147.585 100.915 148.007 101.331 148.284 101.832V100.232H149.756V109H148.284V107.368C147.996 107.88 147.564 108.307 146.988 108.648C146.423 108.979 145.761 109.144 145.004 109.144C144.225 109.144 143.521 108.952 142.892 108.568C142.263 108.184 141.767 107.645 141.404 106.952C141.041 106.259 140.86 105.469 140.86 104.584ZM148.284 104.6C148.284 103.939 148.151 103.363 147.884 102.872C147.617 102.381 147.255 102.008 146.796 101.752C146.348 101.485 145.852 101.352 145.308 101.352C144.764 101.352 144.268 101.48 143.82 101.736C143.372 101.992 143.015 102.365 142.748 102.856C142.481 103.347 142.348 103.923 142.348 104.584C142.348 105.256 142.481 105.843 142.748 106.344C143.015 106.835 143.372 107.213 143.82 107.48C144.268 107.736 144.764 107.864 145.308 107.864C145.852 107.864 146.348 107.736 146.796 107.48C147.255 107.213 147.617 106.835 147.884 106.344C148.151 105.843 148.284 105.261 148.284 104.6ZM159.992 100.232V109H158.536V107.704C158.259 108.152 157.87 108.504 157.368 108.76C156.878 109.005 156.334 109.128 155.736 109.128C155.054 109.128 154.44 108.989 153.896 108.712C153.352 108.424 152.92 107.997 152.6 107.432C152.291 106.867 152.136 106.179 152.136 105.368V100.232H153.576V105.176C153.576 106.04 153.795 106.707 154.232 107.176C154.67 107.635 155.267 107.864 156.024 107.864C156.803 107.864 157.416 107.624 157.864 107.144C158.312 106.664 158.536 105.965 158.536 105.048V100.232H159.992ZM169.98 107.656L172.7 100.232H174.252L170.812 109H169.116L165.676 100.232H167.244L169.98 107.656ZM183.685 104.28C183.685 104.557 183.669 104.851 183.637 105.16H176.629C176.682 106.024 176.976 106.701 177.509 107.192C178.053 107.672 178.709 107.912 179.477 107.912C180.106 107.912 180.629 107.768 181.045 107.48C181.472 107.181 181.77 106.787 181.941 106.296H183.509C183.274 107.139 182.805 107.827 182.101 108.36C181.397 108.883 180.522 109.144 179.477 109.144C178.645 109.144 177.898 108.957 177.237 108.584C176.586 108.211 176.074 107.683 175.701 107C175.328 106.307 175.141 105.507 175.141 104.6C175.141 103.693 175.322 102.899 175.685 102.216C176.048 101.533 176.554 101.011 177.205 100.648C177.866 100.275 178.624 100.088 179.477 100.088C180.309 100.088 181.045 100.269 181.685 100.632C182.325 100.995 182.816 101.496 183.157 102.136C183.509 102.765 183.685 103.48 183.685 104.28ZM182.181 103.976C182.181 103.421 182.058 102.947 181.813 102.552C181.568 102.147 181.232 101.843 180.805 101.64C180.389 101.427 179.925 101.32 179.413 101.32C178.677 101.32 178.048 101.555 177.525 102.024C177.013 102.493 176.72 103.144 176.645 103.976H182.181ZM189.879 100.072C190.946 100.072 191.81 100.397 192.471 101.048C193.132 101.688 193.463 102.616 193.463 103.832V109H192.023V104.04C192.023 103.165 191.804 102.499 191.367 102.04C190.93 101.571 190.332 101.336 189.575 101.336C188.807 101.336 188.194 101.576 187.735 102.056C187.287 102.536 187.063 103.235 187.063 104.152V109H185.607V100.232H187.063V101.48C187.351 101.032 187.74 100.685 188.231 100.44C188.732 100.195 189.282 100.072 189.879 100.072ZM195.297 104.584C195.297 103.688 195.479 102.904 195.841 102.232C196.204 101.549 196.7 101.021 197.329 100.648C197.969 100.275 198.684 100.088 199.473 100.088C200.156 100.088 200.791 100.248 201.377 100.568C201.964 100.877 202.412 101.288 202.721 101.8V97.16H204.193V109H202.721V107.352C202.433 107.875 202.007 108.307 201.441 108.648C200.876 108.979 200.215 109.144 199.457 109.144C198.679 109.144 197.969 108.952 197.329 108.568C196.7 108.184 196.204 107.645 195.841 106.952C195.479 106.259 195.297 105.469 195.297 104.584ZM202.721 104.6C202.721 103.939 202.588 103.363 202.321 102.872C202.055 102.381 201.692 102.008 201.233 101.752C200.785 101.485 200.289 101.352 199.745 101.352C199.201 101.352 198.705 101.48 198.257 101.736C197.809 101.992 197.452 102.365 197.185 102.856C196.919 103.347 196.785 103.923 196.785 104.584C196.785 105.256 196.919 105.843 197.185 106.344C197.452 106.835 197.809 107.213 198.257 107.48C198.705 107.736 199.201 107.864 199.745 107.864C200.289 107.864 200.785 107.736 201.233 107.48C201.692 107.213 202.055 106.835 202.321 106.344C202.588 105.843 202.721 105.261 202.721 104.6ZM208.11 101.656C208.366 101.155 208.729 100.765 209.198 100.488C209.678 100.211 210.259 100.072 210.942 100.072V101.576H210.558C208.926 101.576 208.11 102.461 208.11 104.232V109H206.654V100.232H208.11V101.656ZM220.623 104.28C220.623 104.557 220.607 104.851 220.575 105.16H213.567C213.62 106.024 213.913 106.701 214.447 107.192C214.991 107.672 215.647 107.912 216.415 107.912C217.044 107.912 217.567 107.768 217.983 107.48C218.409 107.181 218.708 106.787 218.879 106.296H220.447C220.212 107.139 219.743 107.827 219.039 108.36C218.335 108.883 217.46 109.144 216.415 109.144C215.583 109.144 214.836 108.957 214.175 108.584C213.524 108.211 213.012 107.683 212.639 107C212.265 106.307 212.079 105.507 212.079 104.6C212.079 103.693 212.26 102.899 212.623 102.216C212.985 101.533 213.492 101.011 214.143 100.648C214.804 100.275 215.561 100.088 216.415 100.088C217.247 100.088 217.983 100.269 218.623 100.632C219.263 100.995 219.753 101.496 220.095 102.136C220.447 102.765 220.623 103.48 220.623 104.28ZM219.119 103.976C219.119 103.421 218.996 102.947 218.751 102.552C218.505 102.147 218.169 101.843 217.743 101.64C217.327 101.427 216.863 101.32 216.351 101.32C215.615 101.32 214.985 101.555 214.463 102.024C213.951 102.493 213.657 103.144 213.583 103.976H219.119ZM222.001 104.584C222.001 103.688 222.182 102.904 222.545 102.232C222.907 101.549 223.403 101.021 224.033 100.648C224.673 100.275 225.387 100.088 226.177 100.088C226.859 100.088 227.494 100.248 228.081 100.568C228.667 100.877 229.115 101.288 229.425 101.8V97.16H230.897V109H229.425V107.352C229.137 107.875 228.71 108.307 228.145 108.648C227.579 108.979 226.918 109.144 226.161 109.144C225.382 109.144 224.673 108.952 224.033 108.568C223.403 108.184 222.907 107.645 222.545 106.952C222.182 106.259 222.001 105.469 222.001 104.584ZM229.425 104.6C229.425 103.939 229.291 103.363 229.025 102.872C228.758 102.381 228.395 102.008 227.937 101.752C227.489 101.485 226.993 101.352 226.449 101.352C225.905 101.352 225.409 101.48 224.961 101.736C224.513 101.992 224.155 102.365 223.889 102.856C223.622 103.347 223.489 103.923 223.489 104.584C223.489 105.256 223.622 105.843 223.889 106.344C224.155 106.835 224.513 107.213 224.961 107.48C225.409 107.736 225.905 107.864 226.449 107.864C226.993 107.864 227.489 107.736 227.937 107.48C228.395 107.213 228.758 106.835 229.025 106.344C229.291 105.843 229.425 105.261 229.425 104.6ZM234.109 98.808C233.832 98.808 233.597 98.712 233.405 98.52C233.213 98.328 233.117 98.0933 233.117 97.816C233.117 97.5387 233.213 97.304 233.405 97.112C233.597 96.92 233.832 96.824 234.109 96.824C234.376 96.824 234.6 96.92 234.781 97.112C234.973 97.304 235.069 97.5387 235.069 97.816C235.069 98.0933 234.973 98.328 234.781 98.52C234.6 98.712 234.376 98.808 234.109 98.808ZM234.813 100.232V109H233.357V100.232H234.813ZM52.0318 128.584C52.0318 127.688 52.2131 126.904 52.5758 126.232C52.9384 125.549 53.4344 125.021 54.0638 124.648C54.7038 124.275 55.4184 124.088 56.2078 124.088C56.8904 124.088 57.5251 124.248 58.1118 124.568C58.6984 124.877 59.1464 125.288 59.4558 125.8V121.16H60.9278V133H59.4558V131.352C59.1678 131.875 58.7411 132.307 58.1758 132.648C57.6104 132.979 56.9491 133.144 56.1918 133.144C55.4131 133.144 54.7038 132.952 54.0638 132.568C53.4344 132.184 52.9384 131.645 52.5758 130.952C52.2131 130.259 52.0318 129.469 52.0318 128.584ZM59.4558 128.6C59.4558 127.939 59.3224 127.363 59.0558 126.872C58.7891 126.381 58.4264 126.008 57.9678 125.752C57.5198 125.485 57.0238 125.352 56.4798 125.352C55.9358 125.352 55.4398 125.48 54.9918 125.736C54.5438 125.992 54.1864 126.365 53.9198 126.856C53.6531 127.347 53.5198 127.923 53.5198 128.584C53.5198 129.256 53.6531 129.843 53.9198 130.344C54.1864 130.835 54.5438 131.213 54.9918 131.48C55.4398 131.736 55.9358 131.864 56.4798 131.864C57.0238 131.864 57.5198 131.736 57.9678 131.48C58.4264 131.213 58.7891 130.835 59.0558 130.344C59.3224 129.843 59.4558 129.261 59.4558 128.6ZM71.3883 128.28C71.3883 128.557 71.3723 128.851 71.3403 129.16H64.3323C64.3856 130.024 64.6789 130.701 65.2123 131.192C65.7563 131.672 66.4123 131.912 67.1803 131.912C67.8096 131.912 68.3323 131.768 68.7483 131.48C69.1749 131.181 69.4736 130.787 69.6443 130.296H71.2123C70.9776 131.139 70.5083 131.827 69.8043 132.36C69.1003 132.883 68.2256 133.144 67.1803 133.144C66.3483 133.144 65.6016 132.957 64.9403 132.584C64.2896 132.211 63.7776 131.683 63.4043 131C63.0309 130.307 62.8443 129.507 62.8443 128.6C62.8443 127.693 63.0256 126.899 63.3883 126.216C63.7509 125.533 64.2576 125.011 64.9083 124.648C65.5696 124.275 66.3269 124.088 67.1803 124.088C68.0123 124.088 68.7483 124.269 69.3883 124.632C70.0283 124.995 70.5189 125.496 70.8603 126.136C71.2123 126.765 71.3883 127.48 71.3883 128.28ZM69.8843 127.976C69.8843 127.421 69.7616 126.947 69.5163 126.552C69.2709 126.147 68.9349 125.843 68.5083 125.64C68.0923 125.427 67.6283 125.32 67.1163 125.32C66.3803 125.32 65.7509 125.555 65.2283 126.024C64.7163 126.493 64.4229 127.144 64.3483 127.976H69.8843ZM79.2078 129.896C79.3144 130.504 79.5598 130.973 79.9438 131.304C80.3384 131.635 80.8664 131.8 81.5278 131.8C82.4131 131.8 83.0638 131.453 83.4798 130.76C83.9064 130.067 84.1091 128.899 84.0878 127.256C83.8638 127.736 83.4904 128.115 82.9678 128.392C82.4451 128.659 81.8638 128.792 81.2238 128.792C80.5091 128.792 79.8691 128.648 79.3038 128.36C78.7491 128.061 78.3118 127.629 77.9918 127.064C77.6718 126.499 77.5118 125.816 77.5118 125.016C77.5118 123.875 77.8424 122.957 78.5038 122.264C79.1651 121.56 80.1038 121.208 81.3198 121.208C82.8131 121.208 83.8584 121.693 84.4558 122.664C85.0638 123.635 85.3678 125.08 85.3678 127C85.3678 128.344 85.2451 129.453 84.9998 130.328C84.7651 131.203 84.3598 131.869 83.7838 132.328C83.2184 132.787 82.4398 133.016 81.4478 133.016C80.3598 133.016 79.5118 132.723 78.9038 132.136C78.2958 131.549 77.9491 130.803 77.8638 129.896H79.2078ZM81.4638 127.56C82.1784 127.56 82.7651 127.341 83.2238 126.904C83.6824 126.456 83.9118 125.853 83.9118 125.096C83.9118 124.296 83.6878 123.651 83.2398 123.16C82.7918 122.669 82.1624 122.424 81.3518 122.424C80.6051 122.424 80.0078 122.659 79.5598 123.128C79.1224 123.597 78.9038 124.216 78.9038 124.984C78.9038 125.763 79.1224 126.387 79.5598 126.856C79.9971 127.325 80.6318 127.56 81.4638 127.56ZM92.0059 124.072C92.6672 124.072 93.2645 124.216 93.7979 124.504C94.3312 124.781 94.7472 125.203 95.0459 125.768C95.3552 126.333 95.5099 127.021 95.5099 127.832V133H94.0699V128.04C94.0699 127.165 93.8512 126.499 93.4139 126.04C92.9765 125.571 92.3792 125.336 91.6219 125.336C90.8539 125.336 90.2405 125.576 89.7819 126.056C89.3339 126.536 89.1099 127.235 89.1099 128.152V133H87.6539V121.16H89.1099V125.48C89.3979 125.032 89.7925 124.685 90.2939 124.44C90.8059 124.195 91.3765 124.072 92.0059 124.072ZM101.61 128.584C101.61 127.688 101.791 126.904 102.154 126.232C102.517 125.549 103.013 125.021 103.642 124.648C104.282 124.275 104.991 124.088 105.77 124.088C106.538 124.088 107.205 124.253 107.77 124.584C108.335 124.915 108.757 125.331 109.034 125.832V124.232H110.506V133H109.034V131.368C108.746 131.88 108.314 132.307 107.738 132.648C107.173 132.979 106.511 133.144 105.754 133.144C104.975 133.144 104.271 132.952 103.642 132.568C103.013 132.184 102.517 131.645 102.154 130.952C101.791 130.259 101.61 129.469 101.61 128.584ZM109.034 128.6C109.034 127.939 108.901 127.363 108.634 126.872C108.367 126.381 108.005 126.008 107.546 125.752C107.098 125.485 106.602 125.352 106.058 125.352C105.514 125.352 105.018 125.48 104.57 125.736C104.122 125.992 103.765 126.365 103.498 126.856C103.231 127.347 103.098 127.923 103.098 128.584C103.098 129.256 103.231 129.843 103.498 130.344C103.765 130.835 104.122 131.213 104.57 131.48C105.018 131.736 105.514 131.864 106.058 131.864C106.602 131.864 107.098 131.736 107.546 131.48C108.005 131.213 108.367 130.835 108.634 130.344C108.901 129.843 109.034 129.261 109.034 128.6ZM107.898 122.488V123.576L104.49 121.752V120.488L107.898 122.488ZM116.816 131.832C118.171 130.744 119.232 129.853 120 129.16C120.768 128.456 121.413 127.725 121.936 126.968C122.469 126.2 122.736 125.448 122.736 124.712C122.736 124.019 122.565 123.475 122.224 123.08C121.893 122.675 121.355 122.472 120.608 122.472C119.883 122.472 119.317 122.701 118.912 123.16C118.517 123.608 118.304 124.211 118.272 124.968H116.864C116.907 123.773 117.269 122.851 117.952 122.2C118.635 121.549 119.515 121.224 120.592 121.224C121.691 121.224 122.56 121.528 123.2 122.136C123.851 122.744 124.176 123.581 124.176 124.648C124.176 125.533 123.909 126.397 123.376 127.24C122.853 128.072 122.256 128.808 121.584 129.448C120.912 130.077 120.053 130.813 119.008 131.656H124.512V132.872H116.816V131.832ZM126.195 127.096C126.195 125.261 126.494 123.832 127.091 122.808C127.688 121.773 128.734 121.256 130.227 121.256C131.71 121.256 132.75 121.773 133.347 122.808C133.944 123.832 134.243 125.261 134.243 127.096C134.243 128.963 133.944 130.413 133.347 131.448C132.75 132.483 131.71 133 130.227 133C128.734 133 127.688 132.483 127.091 131.448C126.494 130.413 126.195 128.963 126.195 127.096ZM132.803 127.096C132.803 126.168 132.739 125.384 132.611 124.744C132.494 124.093 132.243 123.571 131.859 123.176C131.486 122.781 130.942 122.584 130.227 122.584C129.502 122.584 128.947 122.781 128.563 123.176C128.19 123.571 127.939 124.093 127.811 124.744C127.694 125.384 127.635 126.168 127.635 127.096C127.635 128.056 127.694 128.861 127.811 129.512C127.939 130.163 128.19 130.685 128.563 131.08C128.947 131.475 129.502 131.672 130.227 131.672C130.942 131.672 131.486 131.475 131.859 131.08C132.243 130.685 132.494 130.163 132.611 129.512C132.739 128.861 132.803 128.056 132.803 127.096ZM140.834 124.072C141.495 124.072 142.093 124.216 142.626 124.504C143.159 124.781 143.575 125.203 143.874 125.768C144.183 126.333 144.338 127.021 144.338 127.832V133H142.898V128.04C142.898 127.165 142.679 126.499 142.242 126.04C141.805 125.571 141.207 125.336 140.45 125.336C139.682 125.336 139.069 125.576 138.61 126.056C138.162 126.536 137.938 127.235 137.938 128.152V133H136.482V121.16H137.938V125.48C138.226 125.032 138.621 124.685 139.122 124.44C139.634 124.195 140.205 124.072 140.834 124.072ZM148.22 130.984L146.428 135.288H145.452L146.62 130.984H148.22ZM162.154 128.28C162.154 128.557 162.138 128.851 162.106 129.16H155.098C155.151 130.024 155.445 130.701 155.978 131.192C156.522 131.672 157.178 131.912 157.946 131.912C158.575 131.912 159.098 131.768 159.514 131.48C159.941 131.181 160.239 130.787 160.41 130.296H161.978C161.743 131.139 161.274 131.827 160.57 132.36C159.866 132.883 158.991 133.144 157.946 133.144C157.114 133.144 156.367 132.957 155.706 132.584C155.055 132.211 154.543 131.683 154.17 131C153.797 130.307 153.61 129.507 153.61 128.6C153.61 127.693 153.791 126.899 154.154 126.216C154.517 125.533 155.023 125.011 155.674 124.648C156.335 124.275 157.093 124.088 157.946 124.088C158.778 124.088 159.514 124.269 160.154 124.632C160.794 124.995 161.285 125.496 161.626 126.136C161.978 126.765 162.154 127.48 162.154 128.28ZM160.65 127.976C160.65 127.421 160.527 126.947 160.282 126.552C160.037 126.147 159.701 125.843 159.274 125.64C158.858 125.427 158.394 125.32 157.882 125.32C157.146 125.32 156.517 125.555 155.994 126.024C155.482 126.493 155.189 127.144 155.114 127.976H160.65ZM165.852 125.432V130.6C165.852 131.027 165.942 131.331 166.124 131.512C166.305 131.683 166.62 131.768 167.068 131.768H168.14V133H166.828C166.017 133 165.409 132.813 165.004 132.44C164.598 132.067 164.396 131.453 164.396 130.6V125.432H163.26V124.232H164.396V122.024H165.852V124.232H168.14V125.432H165.852ZM175.626 121.16V133H174.17V121.16H175.626ZM186.107 128.28C186.107 128.557 186.091 128.851 186.059 129.16H179.051C179.104 130.024 179.398 130.701 179.931 131.192C180.475 131.672 181.131 131.912 181.899 131.912C182.528 131.912 183.051 131.768 183.467 131.48C183.894 131.181 184.192 130.787 184.363 130.296H185.931C185.696 131.139 185.227 131.827 184.523 132.36C183.819 132.883 182.944 133.144 181.899 133.144C181.067 133.144 180.32 132.957 179.659 132.584C179.008 132.211 178.496 131.683 178.123 131C177.75 130.307 177.563 129.507 177.563 128.6C177.563 127.693 177.744 126.899 178.107 126.216C178.47 125.533 178.976 125.011 179.627 124.648C180.288 124.275 181.046 124.088 181.899 124.088C182.731 124.088 183.467 124.269 184.107 124.632C184.747 124.995 185.238 125.496 185.579 126.136C185.931 126.765 186.107 127.48 186.107 128.28ZM184.603 127.976C184.603 127.421 184.48 126.947 184.235 126.552C183.99 126.147 183.654 125.843 183.227 125.64C182.811 125.427 182.347 125.32 181.835 125.32C181.099 125.32 180.47 125.555 179.947 126.024C179.435 126.493 179.142 127.144 179.067 127.976H184.603ZM195.399 133.144C194.727 133.144 194.124 133.032 193.591 132.808C193.057 132.573 192.636 132.253 192.327 131.848C192.017 131.432 191.847 130.957 191.815 130.424H193.319C193.361 130.861 193.564 131.219 193.927 131.496C194.3 131.773 194.785 131.912 195.383 131.912C195.937 131.912 196.375 131.789 196.695 131.544C197.015 131.299 197.175 130.989 197.175 130.616C197.175 130.232 197.004 129.949 196.663 129.768C196.321 129.576 195.793 129.389 195.079 129.208C194.428 129.037 193.895 128.867 193.479 128.696C193.073 128.515 192.721 128.253 192.423 127.912C192.135 127.56 191.991 127.101 191.991 126.536C191.991 126.088 192.124 125.677 192.391 125.304C192.657 124.931 193.036 124.637 193.527 124.424C194.017 124.2 194.577 124.088 195.207 124.088C196.177 124.088 196.961 124.333 197.559 124.824C198.156 125.315 198.476 125.987 198.519 126.84H197.063C197.031 126.381 196.844 126.013 196.503 125.736C196.172 125.459 195.724 125.32 195.159 125.32C194.636 125.32 194.22 125.432 193.911 125.656C193.601 125.88 193.447 126.173 193.447 126.536C193.447 126.824 193.537 127.064 193.719 127.256C193.911 127.437 194.145 127.587 194.423 127.704C194.711 127.811 195.105 127.933 195.607 128.072C196.236 128.243 196.748 128.413 197.143 128.584C197.537 128.744 197.873 128.989 198.151 129.32C198.439 129.651 198.588 130.083 198.599 130.616C198.599 131.096 198.465 131.528 198.199 131.912C197.932 132.296 197.553 132.6 197.063 132.824C196.583 133.037 196.028 133.144 195.399 133.144ZM200.11 128.584C200.11 127.688 200.291 126.904 200.654 126.232C201.017 125.549 201.513 125.021 202.142 124.648C202.782 124.275 203.491 124.088 204.27 124.088C205.038 124.088 205.705 124.253 206.27 124.584C206.835 124.915 207.257 125.331 207.534 125.832V124.232H209.006V133H207.534V131.368C207.246 131.88 206.814 132.307 206.238 132.648C205.673 132.979 205.011 133.144 204.254 133.144C203.475 133.144 202.771 132.952 202.142 132.568C201.513 132.184 201.017 131.645 200.654 130.952C200.291 130.259 200.11 129.469 200.11 128.584ZM207.534 128.6C207.534 127.939 207.401 127.363 207.134 126.872C206.867 126.381 206.505 126.008 206.046 125.752C205.598 125.485 205.102 125.352 204.558 125.352C204.014 125.352 203.518 125.48 203.07 125.736C202.622 125.992 202.265 126.365 201.998 126.856C201.731 127.347 201.598 127.923 201.598 128.584C201.598 129.256 201.731 129.843 201.998 130.344C202.265 130.835 202.622 131.213 203.07 131.48C203.518 131.736 204.014 131.864 204.558 131.864C205.102 131.864 205.598 131.736 206.046 131.48C206.505 131.213 206.867 130.835 207.134 130.344C207.401 129.843 207.534 129.261 207.534 128.6ZM222.01 124.072C222.693 124.072 223.301 124.216 223.834 124.504C224.368 124.781 224.789 125.203 225.098 125.768C225.408 126.333 225.562 127.021 225.562 127.832V133H224.122V128.04C224.122 127.165 223.904 126.499 223.466 126.04C223.04 125.571 222.458 125.336 221.722 125.336C220.965 125.336 220.362 125.581 219.914 126.072C219.466 126.552 219.242 127.251 219.242 128.168V133H217.802V128.04C217.802 127.165 217.584 126.499 217.146 126.04C216.72 125.571 216.138 125.336 215.402 125.336C214.645 125.336 214.042 125.581 213.594 126.072C213.146 126.552 212.922 127.251 212.922 128.168V133H211.466V124.232H212.922V125.496C213.21 125.037 213.594 124.685 214.074 124.44C214.565 124.195 215.104 124.072 215.69 124.072C216.426 124.072 217.077 124.237 217.642 124.568C218.208 124.899 218.629 125.384 218.906 126.024C219.152 125.405 219.557 124.925 220.122 124.584C220.688 124.243 221.317 124.072 222.01 124.072ZM235.951 128.28C235.951 128.557 235.935 128.851 235.903 129.16H228.895C228.948 130.024 229.241 130.701 229.775 131.192C230.319 131.672 230.975 131.912 231.743 131.912C232.372 131.912 232.895 131.768 233.311 131.48C233.737 131.181 234.036 130.787 234.207 130.296H235.775C235.54 131.139 235.071 131.827 234.367 132.36C233.663 132.883 232.788 133.144 231.743 133.144C230.911 133.144 230.164 132.957 229.503 132.584C228.852 132.211 228.34 131.683 227.967 131C227.593 130.307 227.407 129.507 227.407 128.6C227.407 127.693 227.588 126.899 227.951 126.216C228.313 125.533 228.82 125.011 229.471 124.648C230.132 124.275 230.889 124.088 231.743 124.088C232.575 124.088 233.311 124.269 233.951 124.632C234.591 124.995 235.081 125.496 235.423 126.136C235.775 126.765 235.951 127.48 235.951 128.28ZM234.447 127.976C234.447 127.421 234.324 126.947 234.079 126.552C233.833 126.147 233.497 125.843 233.071 125.64C232.655 125.427 232.191 125.32 231.679 125.32C230.943 125.32 230.313 125.555 229.791 126.024C229.279 126.493 228.985 127.144 228.911 127.976H234.447ZM237.329 128.584C237.329 127.688 237.51 126.904 237.873 126.232C238.235 125.549 238.731 125.021 239.361 124.648C240.001 124.275 240.715 124.088 241.505 124.088C242.187 124.088 242.822 124.248 243.409 124.568C243.995 124.877 244.443 125.288 244.753 125.8V121.16H246.225V133H244.753V131.352C244.465 131.875 244.038 132.307 243.473 132.648C242.907 132.979 242.246 133.144 241.489 133.144C240.71 133.144 240.001 132.952 239.361 132.568C238.731 132.184 238.235 131.645 237.873 130.952C237.51 130.259 237.329 129.469 237.329 128.584ZM244.753 128.6C244.753 127.939 244.619 127.363 244.353 126.872C244.086 126.381 243.723 126.008 243.265 125.752C242.817 125.485 242.321 125.352 241.777 125.352C241.233 125.352 240.737 125.48 240.289 125.736C239.841 125.992 239.483 126.365 239.217 126.856C238.95 127.347 238.817 127.923 238.817 128.584C238.817 129.256 238.95 129.843 239.217 130.344C239.483 130.835 239.841 131.213 240.289 131.48C240.737 131.736 241.233 131.864 241.777 131.864C242.321 131.864 242.817 131.736 243.265 131.48C243.723 131.213 244.086 130.835 244.353 130.344C244.619 129.843 244.753 129.261 244.753 128.6ZM249.437 122.808C249.16 122.808 248.925 122.712 248.733 122.52C248.541 122.328 248.445 122.093 248.445 121.816C248.445 121.539 248.541 121.304 248.733 121.112C248.925 120.92 249.16 120.824 249.437 120.824C249.704 120.824 249.928 120.92 250.109 121.112C250.301 121.304 250.397 121.539 250.397 121.816C250.397 122.093 250.301 122.328 250.109 122.52C249.928 122.712 249.704 122.808 249.437 122.808ZM250.141 124.232V133H248.685V124.232H250.141ZM70.0708 152.584C70.0708 151.688 70.2521 150.904 70.6148 150.232C70.9775 149.549 71.4735 149.021 72.1028 148.648C72.7428 148.275 73.4575 148.088 74.2468 148.088C74.9295 148.088 75.5641 148.248 76.1508 148.568C76.7375 148.877 77.1855 149.288 77.4948 149.8V145.16H78.9668V157H77.4948V155.352C77.2068 155.875 76.7801 156.307 76.2148 156.648C75.6495 156.979 74.9881 157.144 74.2308 157.144C73.4521 157.144 72.7428 156.952 72.1028 156.568C71.4735 156.184 70.9775 155.645 70.6148 154.952C70.2521 154.259 70.0708 153.469 70.0708 152.584ZM77.4948 152.6C77.4948 151.939 77.3615 151.363 77.0948 150.872C76.8281 150.381 76.4655 150.008 76.0068 149.752C75.5588 149.485 75.0628 149.352 74.5188 149.352C73.9748 149.352 73.4788 149.48 73.0308 149.736C72.5828 149.992 72.2255 150.365 71.9588 150.856C71.6921 151.347 71.5588 151.923 71.5588 152.584C71.5588 153.256 71.6921 153.843 71.9588 154.344C72.2255 154.835 72.5828 155.213 73.0308 155.48C73.4788 155.736 73.9748 155.864 74.5188 155.864C75.0628 155.864 75.5588 155.736 76.0068 155.48C76.4655 155.213 76.8281 154.835 77.0948 154.344C77.3615 153.843 77.4948 153.261 77.4948 152.6ZM89.4273 152.28C89.4273 152.557 89.4113 152.851 89.3793 153.16H82.3713C82.4246 154.024 82.718 154.701 83.2513 155.192C83.7953 155.672 84.4513 155.912 85.2193 155.912C85.8486 155.912 86.3713 155.768 86.7873 155.48C87.214 155.181 87.5126 154.787 87.6833 154.296H89.2513C89.0166 155.139 88.5473 155.827 87.8433 156.36C87.1393 156.883 86.2646 157.144 85.2193 157.144C84.3873 157.144 83.6406 156.957 82.9793 156.584C82.3286 156.211 81.8166 155.683 81.4433 155C81.07 154.307 80.8833 153.507 80.8833 152.6C80.8833 151.693 81.0646 150.899 81.4273 150.216C81.79 149.533 82.2966 149.011 82.9473 148.648C83.6086 148.275 84.366 148.088 85.2193 148.088C86.0513 148.088 86.7873 148.269 87.4273 148.632C88.0673 148.995 88.558 149.496 88.8993 150.136C89.2513 150.765 89.4273 151.48 89.4273 152.28ZM87.9233 151.976C87.9233 151.421 87.8006 150.947 87.5553 150.552C87.31 150.147 86.974 149.843 86.5473 149.64C86.1313 149.427 85.6673 149.32 85.1553 149.32C84.4193 149.32 83.79 149.555 83.2673 150.024C82.7553 150.493 82.462 151.144 82.3873 151.976H87.9233ZM97.2468 153.896C97.3535 154.504 97.5988 154.973 97.9828 155.304C98.3775 155.635 98.9055 155.8 99.5668 155.8C100.452 155.8 101.103 155.453 101.519 154.76C101.945 154.067 102.148 152.899 102.127 151.256C101.903 151.736 101.529 152.115 101.007 152.392C100.484 152.659 99.9028 152.792 99.2628 152.792C98.5481 152.792 97.9081 152.648 97.3428 152.36C96.7881 152.061 96.3508 151.629 96.0308 151.064C95.7108 150.499 95.5508 149.816 95.5508 149.016C95.5508 147.875 95.8815 146.957 96.5428 146.264C97.2041 145.56 98.1428 145.208 99.3588 145.208C100.852 145.208 101.897 145.693 102.495 146.664C103.103 147.635 103.407 149.08 103.407 151C103.407 152.344 103.284 153.453 103.039 154.328C102.804 155.203 102.399 155.869 101.823 156.328C101.257 156.787 100.479 157.016 99.4868 157.016C98.3988 157.016 97.5508 156.723 96.9428 156.136C96.3348 155.549 95.9881 154.803 95.9028 153.896H97.2468ZM99.5028 151.56C100.217 151.56 100.804 151.341 101.263 150.904C101.721 150.456 101.951 149.853 101.951 149.096C101.951 148.296 101.727 147.651 101.279 147.16C100.831 146.669 100.201 146.424 99.3908 146.424C98.6441 146.424 98.0468 146.659 97.5988 147.128C97.1615 147.597 96.9428 148.216 96.9428 148.984C96.9428 149.763 97.1615 150.387 97.5988 150.856C98.0361 151.325 98.6708 151.56 99.5028 151.56ZM110.045 148.072C110.706 148.072 111.304 148.216 111.837 148.504C112.37 148.781 112.786 149.203 113.085 149.768C113.394 150.333 113.549 151.021 113.549 151.832V157H112.109V152.04C112.109 151.165 111.89 150.499 111.453 150.04C111.016 149.571 110.418 149.336 109.661 149.336C108.893 149.336 108.28 149.576 107.821 150.056C107.373 150.536 107.149 151.235 107.149 152.152V157H105.693V145.16H107.149V149.48C107.437 149.032 107.832 148.685 108.333 148.44C108.845 148.195 109.416 148.072 110.045 148.072ZM119.649 152.584C119.649 151.688 119.83 150.904 120.193 150.232C120.556 149.549 121.052 149.021 121.681 148.648C122.321 148.275 123.03 148.088 123.809 148.088C124.577 148.088 125.244 148.253 125.809 148.584C126.374 148.915 126.796 149.331 127.073 149.832V148.232H128.545V157H127.073V155.368C126.785 155.88 126.353 156.307 125.777 156.648C125.212 156.979 124.55 157.144 123.793 157.144C123.014 157.144 122.31 156.952 121.681 156.568C121.052 156.184 120.556 155.645 120.193 154.952C119.83 154.259 119.649 153.469 119.649 152.584ZM127.073 152.6C127.073 151.939 126.94 151.363 126.673 150.872C126.406 150.381 126.044 150.008 125.585 149.752C125.137 149.485 124.641 149.352 124.097 149.352C123.553 149.352 123.057 149.48 122.609 149.736C122.161 149.992 121.804 150.365 121.537 150.856C121.27 151.347 121.137 151.923 121.137 152.584C121.137 153.256 121.27 153.843 121.537 154.344C121.804 154.835 122.161 155.213 122.609 155.48C123.057 155.736 123.553 155.864 124.097 155.864C124.641 155.864 125.137 155.736 125.585 155.48C126.044 155.213 126.406 154.835 126.673 154.344C126.94 153.843 127.073 153.261 127.073 152.6ZM125.937 146.488V147.576L122.529 145.752V144.488L125.937 146.488ZM134.647 146.76V145.432H137.655V157H136.183V146.76H134.647ZM142.268 150.984C141.671 150.749 141.212 150.408 140.892 149.96C140.572 149.512 140.412 148.968 140.412 148.328C140.412 147.752 140.556 147.235 140.844 146.776C141.132 146.307 141.559 145.939 142.124 145.672C142.7 145.395 143.393 145.256 144.204 145.256C145.015 145.256 145.703 145.395 146.268 145.672C146.844 145.939 147.276 146.307 147.564 146.776C147.863 147.235 148.012 147.752 148.012 148.328C148.012 148.947 147.847 149.491 147.516 149.96C147.185 150.419 146.732 150.76 146.156 150.984C146.817 151.187 147.34 151.544 147.724 152.056C148.119 152.557 148.316 153.165 148.316 153.88C148.316 154.573 148.145 155.181 147.804 155.704C147.463 156.216 146.977 156.616 146.348 156.904C145.729 157.181 145.015 157.32 144.204 157.32C143.393 157.32 142.679 157.181 142.06 156.904C141.452 156.616 140.977 156.216 140.636 155.704C140.295 155.181 140.124 154.573 140.124 153.88C140.124 153.165 140.316 152.552 140.7 152.04C141.084 151.528 141.607 151.176 142.268 150.984ZM146.604 148.504C146.604 147.853 146.391 147.352 145.964 147C145.537 146.648 144.951 146.472 144.204 146.472C143.468 146.472 142.887 146.648 142.46 147C142.033 147.352 141.82 147.859 141.82 148.52C141.82 149.117 142.039 149.597 142.476 149.96C142.924 150.323 143.5 150.504 144.204 150.504C144.919 150.504 145.495 150.323 145.932 149.96C146.38 149.587 146.604 149.101 146.604 148.504ZM144.204 151.624C143.415 151.624 142.769 151.811 142.268 152.184C141.767 152.547 141.516 153.096 141.516 153.832C141.516 154.515 141.756 155.064 142.236 155.48C142.727 155.896 143.383 156.104 144.204 156.104C145.025 156.104 145.676 155.896 146.156 155.48C146.636 155.064 146.876 154.515 146.876 153.832C146.876 153.117 146.631 152.573 146.14 152.2C145.649 151.816 145.004 151.624 144.204 151.624ZM154.842 148.072C155.503 148.072 156.1 148.216 156.634 148.504C157.167 148.781 157.583 149.203 157.882 149.768C158.191 150.333 158.346 151.021 158.346 151.832V157H156.906V152.04C156.906 151.165 156.687 150.499 156.25 150.04C155.812 149.571 155.215 149.336 154.458 149.336C153.69 149.336 153.076 149.576 152.618 150.056C152.17 150.536 151.946 151.235 151.946 152.152V157H150.49V145.16H151.946V149.48C152.234 149.032 152.628 148.685 153.13 148.44C153.642 148.195 154.212 148.072 154.842 148.072ZM161.188 157.096C160.911 157.096 160.676 157 160.484 156.808C160.292 156.616 160.196 156.381 160.196 156.104C160.196 155.827 160.292 155.592 160.484 155.4C160.676 155.208 160.911 155.112 161.188 155.112C161.455 155.112 161.679 155.208 161.86 155.4C162.052 155.592 162.148 155.827 162.148 156.104C162.148 156.381 162.052 156.616 161.86 156.808C161.679 157 161.455 157.096 161.188 157.096ZM174.941 154.52H170.077L169.181 157H167.645L171.677 145.912H173.357L177.373 157H175.837L174.941 154.52ZM174.525 153.336L172.509 147.704L170.493 153.336H174.525ZM186.906 148.232V157H185.45V155.704C185.173 156.152 184.784 156.504 184.282 156.76C183.792 157.005 183.248 157.128 182.65 157.128C181.968 157.128 181.354 156.989 180.81 156.712C180.266 156.424 179.834 155.997 179.514 155.432C179.205 154.867 179.05 154.179 179.05 153.368V148.232H180.49V153.176C180.49 154.04 180.709 154.707 181.146 155.176C181.584 155.635 182.181 155.864 182.938 155.864C183.717 155.864 184.33 155.624 184.778 155.144C185.226 154.664 185.45 153.965 185.45 153.048V148.232H186.906ZM192.469 157.144C191.797 157.144 191.194 157.032 190.661 156.808C190.127 156.573 189.706 156.253 189.397 155.848C189.087 155.432 188.917 154.957 188.885 154.424H190.389C190.431 154.861 190.634 155.219 190.997 155.496C191.37 155.773 191.855 155.912 192.453 155.912C193.007 155.912 193.445 155.789 193.765 155.544C194.085 155.299 194.245 154.989 194.245 154.616C194.245 154.232 194.074 153.949 193.733 153.768C193.391 153.576 192.863 153.389 192.149 153.208C191.498 153.037 190.965 152.867 190.549 152.696C190.143 152.515 189.791 152.253 189.493 151.912C189.205 151.56 189.061 151.101 189.061 150.536C189.061 150.088 189.194 149.677 189.461 149.304C189.727 148.931 190.106 148.637 190.597 148.424C191.087 148.2 191.647 148.088 192.277 148.088C193.247 148.088 194.031 148.333 194.629 148.824C195.226 149.315 195.546 149.987 195.589 150.84H194.133C194.101 150.381 193.914 150.013 193.573 149.736C193.242 149.459 192.794 149.32 192.229 149.32C191.706 149.32 191.29 149.432 190.981 149.656C190.671 149.88 190.517 150.173 190.517 150.536C190.517 150.824 190.607 151.064 190.789 151.256C190.981 151.437 191.215 151.587 191.493 151.704C191.781 151.811 192.175 151.933 192.677 152.072C193.306 152.243 193.818 152.413 194.213 152.584C194.607 152.744 194.943 152.989 195.221 153.32C195.509 153.651 195.658 154.083 195.669 154.616C195.669 155.096 195.535 155.528 195.269 155.912C195.002 156.296 194.623 156.6 194.133 156.824C193.653 157.037 193.098 157.144 192.469 157.144ZM200.828 157.144C200.156 157.144 199.554 157.032 199.02 156.808C198.487 156.573 198.066 156.253 197.756 155.848C197.447 155.432 197.276 154.957 197.244 154.424H198.748C198.791 154.861 198.994 155.219 199.356 155.496C199.73 155.773 200.215 155.912 200.812 155.912C201.367 155.912 201.804 155.789 202.124 155.544C202.444 155.299 202.604 154.989 202.604 154.616C202.604 154.232 202.434 153.949 202.092 153.768C201.751 153.576 201.223 153.389 200.508 153.208C199.858 153.037 199.324 152.867 198.908 152.696C198.503 152.515 198.151 152.253 197.852 151.912C197.564 151.56 197.42 151.101 197.42 150.536C197.42 150.088 197.554 149.677 197.82 149.304C198.087 148.931 198.466 148.637 198.956 148.424C199.447 148.2 200.007 148.088 200.636 148.088C201.607 148.088 202.391 148.333 202.988 148.824C203.586 149.315 203.906 149.987 203.948 150.84H202.492C202.46 150.381 202.274 150.013 201.932 149.736C201.602 149.459 201.154 149.32 200.588 149.32C200.066 149.32 199.65 149.432 199.34 149.656C199.031 149.88 198.876 150.173 198.876 150.536C198.876 150.824 198.967 151.064 199.148 151.256C199.34 151.437 199.575 151.587 199.852 151.704C200.14 151.811 200.535 151.933 201.036 152.072C201.666 152.243 202.178 152.413 202.572 152.584C202.967 152.744 203.303 152.989 203.58 153.32C203.868 153.651 204.018 154.083 204.028 154.616C204.028 155.096 203.895 155.528 203.628 155.912C203.362 156.296 202.983 156.6 202.492 156.824C202.012 157.037 201.458 157.144 200.828 157.144ZM206.836 146.808C206.558 146.808 206.324 146.712 206.132 146.52C205.94 146.328 205.844 146.093 205.844 145.816C205.844 145.539 205.94 145.304 206.132 145.112C206.324 144.92 206.558 144.824 206.836 144.824C207.102 144.824 207.326 144.92 207.508 145.112C207.7 145.304 207.796 145.539 207.796 145.816C207.796 146.093 207.7 146.328 207.508 146.52C207.326 146.712 207.102 146.808 206.836 146.808ZM207.54 148.232V157H206.084V148.232H207.54ZM217.391 157.144C216.719 157.144 216.116 157.032 215.583 156.808C215.049 156.573 214.628 156.253 214.319 155.848C214.009 155.432 213.839 154.957 213.807 154.424H215.311C215.353 154.861 215.556 155.219 215.919 155.496C216.292 155.773 216.777 155.912 217.375 155.912C217.929 155.912 218.367 155.789 218.687 155.544C219.007 155.299 219.167 154.989 219.167 154.616C219.167 154.232 218.996 153.949 218.655 153.768C218.313 153.576 217.785 153.389 217.071 153.208C216.42 153.037 215.887 152.867 215.471 152.696C215.065 152.515 214.713 152.253 214.415 151.912C214.127 151.56 213.983 151.101 213.983 150.536C213.983 150.088 214.116 149.677 214.383 149.304C214.649 148.931 215.028 148.637 215.519 148.424C216.009 148.2 216.569 148.088 217.199 148.088C218.169 148.088 218.953 148.333 219.551 148.824C220.148 149.315 220.468 149.987 220.511 150.84H219.055C219.023 150.381 218.836 150.013 218.495 149.736C218.164 149.459 217.716 149.32 217.151 149.32C216.628 149.32 216.212 149.432 215.903 149.656C215.593 149.88 215.439 150.173 215.439 150.536C215.439 150.824 215.529 151.064 215.711 151.256C215.903 151.437 216.137 151.587 216.415 151.704C216.703 151.811 217.097 151.933 217.599 152.072C218.228 152.243 218.74 152.413 219.135 152.584C219.529 152.744 219.865 152.989 220.143 153.32C220.431 153.651 220.58 154.083 220.591 154.616C220.591 155.096 220.457 155.528 220.191 155.912C219.924 156.296 219.545 156.6 219.055 156.824C218.575 157.037 218.02 157.144 217.391 157.144ZM230.422 148.232V157H228.966V155.704C228.689 156.152 228.299 156.504 227.798 156.76C227.307 157.005 226.763 157.128 226.166 157.128C225.483 157.128 224.87 156.989 224.326 156.712C223.782 156.424 223.35 155.997 223.03 155.432C222.721 154.867 222.566 154.179 222.566 153.368V148.232H224.006V153.176C224.006 154.04 224.225 154.707 224.662 155.176C225.099 155.635 225.697 155.864 226.454 155.864C227.233 155.864 227.846 155.624 228.294 155.144C228.742 154.664 228.966 153.965 228.966 153.048V148.232H230.422ZM234.336 149.656C234.592 149.155 234.955 148.765 235.424 148.488C235.904 148.211 236.486 148.072 237.168 148.072V149.576H236.784C235.152 149.576 234.336 150.461 234.336 152.232V157H232.88V148.232H234.336V149.656ZM68.6221 169.928V181H67.1661V172.744L63.4861 181H62.4621L58.7661 172.728V181H57.3101V169.928H58.8781L62.9741 179.08L67.0701 169.928H68.6221ZM79.0914 176.28C79.0914 176.557 79.0754 176.851 79.0434 177.16H72.0354C72.0887 178.024 72.382 178.701 72.9154 179.192C73.4594 179.672 74.1154 179.912 74.8834 179.912C75.5127 179.912 76.0354 179.768 76.4514 179.48C76.878 179.181 77.1767 178.787 77.3474 178.296H78.9154C78.6807 179.139 78.2114 179.827 77.5074 180.36C76.8034 180.883 75.9287 181.144 74.8834 181.144C74.0514 181.144 73.3047 180.957 72.6434 180.584C71.9927 180.211 71.4807 179.683 71.1074 179C70.734 178.307 70.5474 177.507 70.5474 176.6C70.5474 175.693 70.7287 174.899 71.0914 174.216C71.454 173.533 71.9607 173.011 72.6114 172.648C73.2727 172.275 74.03 172.088 74.8834 172.088C75.7154 172.088 76.4514 172.269 77.0914 172.632C77.7314 172.995 78.222 173.496 78.5634 174.136C78.9154 174.765 79.0914 175.48 79.0914 176.28ZM77.5874 175.976C77.5874 175.421 77.4647 174.947 77.2194 174.552C76.974 174.147 76.638 173.843 76.2114 173.64C75.7954 173.427 75.3314 173.32 74.8194 173.32C74.0834 173.32 73.454 173.555 72.9314 174.024C72.4194 174.493 72.126 175.144 72.0514 175.976H77.5874ZM84.1173 181.144C83.4453 181.144 82.8426 181.032 82.3093 180.808C81.7759 180.573 81.3546 180.253 81.0453 179.848C80.7359 179.432 80.5653 178.957 80.5333 178.424H82.0373C82.0799 178.861 82.2826 179.219 82.6453 179.496C83.0186 179.773 83.5039 179.912 84.1013 179.912C84.6559 179.912 85.0933 179.789 85.4133 179.544C85.7333 179.299 85.8933 178.989 85.8933 178.616C85.8933 178.232 85.7226 177.949 85.3813 177.768C85.0399 177.576 84.5119 177.389 83.7973 177.208C83.1466 177.037 82.6133 176.867 82.1973 176.696C81.7919 176.515 81.4399 176.253 81.1413 175.912C80.8533 175.56 80.7093 175.101 80.7093 174.536C80.7093 174.088 80.8426 173.677 81.1093 173.304C81.3759 172.931 81.7546 172.637 82.2453 172.424C82.7359 172.2 83.2959 172.088 83.9253 172.088C84.8959 172.088 85.6799 172.333 86.2773 172.824C86.8746 173.315 87.1946 173.987 87.2373 174.84H85.7813C85.7493 174.381 85.5626 174.013 85.2213 173.736C84.8906 173.459 84.4426 173.32 83.8773 173.32C83.3546 173.32 82.9386 173.432 82.6293 173.656C82.3199 173.88 82.1653 174.173 82.1653 174.536C82.1653 174.824 82.2559 175.064 82.4373 175.256C82.6293 175.437 82.8639 175.587 83.1413 175.704C83.4293 175.811 83.8239 175.933 84.3253 176.072C84.9546 176.243 85.4666 176.413 85.8613 176.584C86.2559 176.744 86.5919 176.989 86.8693 177.32C87.1573 177.651 87.3066 178.083 87.3173 178.616C87.3173 179.096 87.1839 179.528 86.9173 179.912C86.6506 180.296 86.2719 180.6 85.7813 180.824C85.3013 181.037 84.7466 181.144 84.1173 181.144ZM92.4766 181.144C91.8046 181.144 91.202 181.032 90.6686 180.808C90.1353 180.573 89.714 180.253 89.4046 179.848C89.0953 179.432 88.9246 178.957 88.8926 178.424H90.3966C90.4393 178.861 90.642 179.219 91.0046 179.496C91.378 179.773 91.8633 179.912 92.4606 179.912C93.0153 179.912 93.4526 179.789 93.7726 179.544C94.0926 179.299 94.2526 178.989 94.2526 178.616C94.2526 178.232 94.082 177.949 93.7406 177.768C93.3993 177.576 92.8713 177.389 92.1566 177.208C91.506 177.037 90.9726 176.867 90.5566 176.696C90.1513 176.515 89.7993 176.253 89.5006 175.912C89.2126 175.56 89.0686 175.101 89.0686 174.536C89.0686 174.088 89.202 173.677 89.4686 173.304C89.7353 172.931 90.114 172.637 90.6046 172.424C91.0953 172.2 91.6553 172.088 92.2846 172.088C93.2553 172.088 94.0393 172.333 94.6366 172.824C95.234 173.315 95.554 173.987 95.5966 174.84H94.1406C94.1086 174.381 93.922 174.013 93.5806 173.736C93.25 173.459 92.802 173.32 92.2366 173.32C91.714 173.32 91.298 173.432 90.9886 173.656C90.6793 173.88 90.5246 174.173 90.5246 174.536C90.5246 174.824 90.6153 175.064 90.7966 175.256C90.9886 175.437 91.2233 175.587 91.5006 175.704C91.7886 175.811 92.1833 175.933 92.6846 176.072C93.314 176.243 93.826 176.413 94.2206 176.584C94.6153 176.744 94.9513 176.989 95.2286 177.32C95.5166 177.651 95.666 178.083 95.6766 178.616C95.6766 179.096 95.5433 179.528 95.2766 179.912C95.01 180.296 94.6313 180.6 94.1406 180.824C93.6606 181.037 93.106 181.144 92.4766 181.144ZM105.732 176.28C105.732 176.557 105.716 176.851 105.684 177.16H98.676C98.7293 178.024 99.0227 178.701 99.556 179.192C100.1 179.672 100.756 179.912 101.524 179.912C102.153 179.912 102.676 179.768 103.092 179.48C103.519 179.181 103.817 178.787 103.988 178.296H105.556C105.321 179.139 104.852 179.827 104.148 180.36C103.444 180.883 102.569 181.144 101.524 181.144C100.692 181.144 99.9453 180.957 99.284 180.584C98.6333 180.211 98.1213 179.683 97.748 179C97.3747 178.307 97.188 177.507 97.188 176.6C97.188 175.693 97.3693 174.899 97.732 174.216C98.0947 173.533 98.6013 173.011 99.252 172.648C99.9133 172.275 100.671 172.088 101.524 172.088C102.356 172.088 103.092 172.269 103.732 172.632C104.372 172.995 104.863 173.496 105.204 174.136C105.556 174.765 105.732 175.48 105.732 176.28ZM104.228 175.976C104.228 175.421 104.105 174.947 103.86 174.552C103.615 174.147 103.279 173.843 102.852 173.64C102.436 173.427 101.972 173.32 101.46 173.32C100.724 173.32 100.095 173.555 99.572 174.024C99.06 174.493 98.7667 175.144 98.692 175.976H104.228ZM111.926 172.072C112.993 172.072 113.857 172.397 114.518 173.048C115.179 173.688 115.51 174.616 115.51 175.832V181H114.07V176.04C114.07 175.165 113.851 174.499 113.414 174.04C112.977 173.571 112.379 173.336 111.622 173.336C110.854 173.336 110.241 173.576 109.782 174.056C109.334 174.536 109.11 175.235 109.11 176.152V181H107.654V172.232H109.11V173.48C109.398 173.032 109.787 172.685 110.278 172.44C110.779 172.195 111.329 172.072 111.926 172.072ZM121.504 172.088C122.262 172.088 122.923 172.253 123.488 172.584C124.064 172.915 124.491 173.331 124.768 173.832V172.232H126.24V181.192C126.24 181.992 126.07 182.701 125.728 183.32C125.387 183.949 124.896 184.44 124.256 184.792C123.627 185.144 122.891 185.32 122.048 185.32C120.896 185.32 119.936 185.048 119.168 184.504C118.4 183.96 117.947 183.219 117.808 182.28H119.248C119.408 182.813 119.739 183.24 120.24 183.56C120.742 183.891 121.344 184.056 122.048 184.056C122.848 184.056 123.499 183.805 124 183.304C124.512 182.803 124.768 182.099 124.768 181.192V179.352C124.48 179.864 124.054 180.291 123.488 180.632C122.923 180.973 122.262 181.144 121.504 181.144C120.726 181.144 120.016 180.952 119.376 180.568C118.747 180.184 118.251 179.645 117.888 178.952C117.526 178.259 117.344 177.469 117.344 176.584C117.344 175.688 117.526 174.904 117.888 174.232C118.251 173.549 118.747 173.021 119.376 172.648C120.016 172.275 120.726 172.088 121.504 172.088ZM124.768 176.6C124.768 175.939 124.635 175.363 124.368 174.872C124.102 174.381 123.739 174.008 123.28 173.752C122.832 173.485 122.336 173.352 121.792 173.352C121.248 173.352 120.752 173.48 120.304 173.736C119.856 173.992 119.499 174.365 119.232 174.856C118.966 175.347 118.832 175.923 118.832 176.584C118.832 177.256 118.966 177.843 119.232 178.344C119.499 178.835 119.856 179.213 120.304 179.48C120.752 179.736 121.248 179.864 121.792 179.864C122.336 179.864 122.832 179.736 123.28 179.48C123.739 179.213 124.102 178.835 124.368 178.344C124.635 177.843 124.768 177.261 124.768 176.6ZM136.701 176.28C136.701 176.557 136.685 176.851 136.653 177.16H129.645C129.698 178.024 129.991 178.701 130.525 179.192C131.069 179.672 131.725 179.912 132.493 179.912C133.122 179.912 133.645 179.768 134.061 179.48C134.487 179.181 134.786 178.787 134.957 178.296H136.525C136.29 179.139 135.821 179.827 135.117 180.36C134.413 180.883 133.538 181.144 132.493 181.144C131.661 181.144 130.914 180.957 130.253 180.584C129.602 180.211 129.09 179.683 128.717 179C128.343 178.307 128.157 177.507 128.157 176.6C128.157 175.693 128.338 174.899 128.701 174.216C129.063 173.533 129.57 173.011 130.221 172.648C130.882 172.275 131.639 172.088 132.493 172.088C133.325 172.088 134.061 172.269 134.701 172.632C135.341 172.995 135.831 173.496 136.173 174.136C136.525 174.765 136.701 175.48 136.701 176.28ZM135.197 175.976C135.197 175.421 135.074 174.947 134.829 174.552C134.583 174.147 134.247 173.843 133.821 173.64C133.405 173.427 132.941 173.32 132.429 173.32C131.693 173.32 131.063 173.555 130.541 174.024C130.029 174.493 129.735 175.144 129.661 175.976H135.197ZM140.079 173.656C140.335 173.155 140.697 172.765 141.167 172.488C141.647 172.211 142.228 172.072 142.911 172.072V173.576H142.527C140.895 173.576 140.079 174.461 140.079 176.232V181H138.623V172.232H140.079V173.656ZM156.857 176.28C156.857 176.557 156.841 176.851 156.809 177.16H149.801C149.854 178.024 150.148 178.701 150.681 179.192C151.225 179.672 151.881 179.912 152.649 179.912C153.278 179.912 153.801 179.768 154.217 179.48C154.644 179.181 154.942 178.787 155.113 178.296H156.681C156.446 179.139 155.977 179.827 155.273 180.36C154.569 180.883 153.694 181.144 152.649 181.144C151.817 181.144 151.07 180.957 150.409 180.584C149.758 180.211 149.246 179.683 148.873 179C148.5 178.307 148.313 177.507 148.313 176.6C148.313 175.693 148.494 174.899 148.857 174.216C149.22 173.533 149.726 173.011 150.377 172.648C151.038 172.275 151.796 172.088 152.649 172.088C153.481 172.088 154.217 172.269 154.857 172.632C155.497 172.995 155.988 173.496 156.329 174.136C156.681 174.765 156.857 175.48 156.857 176.28ZM155.353 175.976C155.353 175.421 155.23 174.947 154.985 174.552C154.74 174.147 154.404 173.843 153.977 173.64C153.561 173.427 153.097 173.32 152.585 173.32C151.849 173.32 151.22 173.555 150.697 174.024C150.185 174.493 149.892 175.144 149.817 175.976H155.353ZM160.555 173.432V178.6C160.555 179.027 160.646 179.331 160.827 179.512C161.008 179.683 161.323 179.768 161.771 179.768H162.843V181H161.531C160.72 181 160.112 180.813 159.707 180.44C159.302 180.067 159.099 179.453 159.099 178.6V173.432H157.963V172.232H159.099V170.024H160.555V172.232H162.843V173.432H160.555ZM182.889 169.848L179.657 181H178.025L175.433 172.024L172.745 181L171.129 181.016L168.009 169.848H169.561L171.993 179.304L174.681 169.848H176.313L178.873 179.272L181.321 169.848H182.889ZM188.834 172.072C189.495 172.072 190.093 172.216 190.626 172.504C191.159 172.781 191.575 173.203 191.874 173.768C192.183 174.333 192.338 175.021 192.338 175.832V181H190.898V176.04C190.898 175.165 190.679 174.499 190.242 174.04C189.805 173.571 189.207 173.336 188.45 173.336C187.682 173.336 187.069 173.576 186.61 174.056C186.162 174.536 185.938 175.235 185.938 176.152V181H184.482V169.16H185.938V173.48C186.226 173.032 186.621 172.685 187.122 172.44C187.634 172.195 188.205 172.072 188.834 172.072ZM194.172 176.584C194.172 175.688 194.354 174.904 194.716 174.232C195.079 173.549 195.575 173.021 196.204 172.648C196.844 172.275 197.554 172.088 198.332 172.088C199.1 172.088 199.767 172.253 200.332 172.584C200.898 172.915 201.319 173.331 201.596 173.832V172.232H203.068V181H201.596V179.368C201.308 179.88 200.876 180.307 200.3 180.648C199.735 180.979 199.074 181.144 198.316 181.144C197.538 181.144 196.834 180.952 196.204 180.568C195.575 180.184 195.079 179.645 194.716 178.952C194.354 178.259 194.172 177.469 194.172 176.584ZM201.596 176.6C201.596 175.939 201.463 175.363 201.196 174.872C200.93 174.381 200.567 174.008 200.108 173.752C199.66 173.485 199.164 173.352 198.62 173.352C198.076 173.352 197.58 173.48 197.132 173.736C196.684 173.992 196.327 174.365 196.06 174.856C195.794 175.347 195.66 175.923 195.66 176.584C195.66 177.256 195.794 177.843 196.06 178.344C196.327 178.835 196.684 179.213 197.132 179.48C197.58 179.736 198.076 179.864 198.62 179.864C199.164 179.864 199.66 179.736 200.108 179.48C200.567 179.213 200.93 178.835 201.196 178.344C201.463 177.843 201.596 177.261 201.596 176.6ZM207.305 173.432V178.6C207.305 179.027 207.396 179.331 207.577 179.512C207.758 179.683 208.073 179.768 208.521 179.768H209.593V181H208.281C207.47 181 206.862 180.813 206.457 180.44C206.052 180.067 205.849 179.453 205.849 178.6V173.432H204.713V172.232H205.849V170.024H207.305V172.232H209.593V173.432H207.305ZM214.461 181.144C213.789 181.144 213.186 181.032 212.653 180.808C212.12 180.573 211.698 180.253 211.389 179.848C211.08 179.432 210.909 178.957 210.877 178.424H212.381C212.424 178.861 212.626 179.219 212.989 179.496C213.362 179.773 213.848 179.912 214.445 179.912C215 179.912 215.437 179.789 215.757 179.544C216.077 179.299 216.237 178.989 216.237 178.616C216.237 178.232 216.066 177.949 215.725 177.768C215.384 177.576 214.856 177.389 214.141 177.208C213.49 177.037 212.957 176.867 212.541 176.696C212.136 176.515 211.784 176.253 211.485 175.912C211.197 175.56 211.053 175.101 211.053 174.536C211.053 174.088 211.186 173.677 211.453 173.304C211.72 172.931 212.098 172.637 212.589 172.424C213.08 172.2 213.64 172.088 214.269 172.088C215.24 172.088 216.024 172.333 216.621 172.824C217.218 173.315 217.538 173.987 217.581 174.84H216.125C216.093 174.381 215.906 174.013 215.565 173.736C215.234 173.459 214.786 173.32 214.221 173.32C213.698 173.32 213.282 173.432 212.973 173.656C212.664 173.88 212.509 174.173 212.509 174.536C212.509 174.824 212.6 175.064 212.781 175.256C212.973 175.437 213.208 175.587 213.485 175.704C213.773 175.811 214.168 175.933 214.669 176.072C215.298 176.243 215.81 176.413 216.205 176.584C216.6 176.744 216.936 176.989 217.213 177.32C217.501 177.651 217.65 178.083 217.661 178.616C217.661 179.096 217.528 179.528 217.261 179.912C216.994 180.296 216.616 180.6 216.125 180.824C215.645 181.037 215.09 181.144 214.461 181.144ZM219.172 176.584C219.172 175.688 219.354 174.904 219.716 174.232C220.079 173.549 220.575 173.021 221.204 172.648C221.844 172.275 222.554 172.088 223.332 172.088C224.1 172.088 224.767 172.253 225.332 172.584C225.898 172.915 226.319 173.331 226.596 173.832V172.232H228.068V181H226.596V179.368C226.308 179.88 225.876 180.307 225.3 180.648C224.735 180.979 224.074 181.144 223.316 181.144C222.538 181.144 221.834 180.952 221.204 180.568C220.575 180.184 220.079 179.645 219.716 178.952C219.354 178.259 219.172 177.469 219.172 176.584ZM226.596 176.6C226.596 175.939 226.463 175.363 226.196 174.872C225.93 174.381 225.567 174.008 225.108 173.752C224.66 173.485 224.164 173.352 223.62 173.352C223.076 173.352 222.58 173.48 222.132 173.736C221.684 173.992 221.327 174.365 221.06 174.856C220.794 175.347 220.66 175.923 220.66 176.584C220.66 177.256 220.794 177.843 221.06 178.344C221.327 178.835 221.684 179.213 222.132 179.48C222.58 179.736 223.076 179.864 223.62 179.864C224.164 179.864 224.66 179.736 225.108 179.48C225.567 179.213 225.93 178.835 226.196 178.344C226.463 177.843 226.596 177.261 226.596 176.6ZM231.985 173.848C232.273 173.347 232.7 172.931 233.265 172.6C233.841 172.259 234.508 172.088 235.265 172.088C236.044 172.088 236.748 172.275 237.377 172.648C238.017 173.021 238.518 173.549 238.881 174.232C239.244 174.904 239.425 175.688 239.425 176.584C239.425 177.469 239.244 178.259 238.881 178.952C238.518 179.645 238.017 180.184 237.377 180.568C236.748 180.952 236.044 181.144 235.265 181.144C234.518 181.144 233.857 180.979 233.281 180.648C232.716 180.307 232.284 179.885 231.985 179.384V185.16H230.529V172.232H231.985V173.848ZM237.937 176.584C237.937 175.923 237.804 175.347 237.537 174.856C237.27 174.365 236.908 173.992 236.449 173.736C236.001 173.48 235.505 173.352 234.961 173.352C234.428 173.352 233.932 173.485 233.473 173.752C233.025 174.008 232.662 174.387 232.385 174.888C232.118 175.379 231.985 175.949 231.985 176.6C231.985 177.261 232.118 177.843 232.385 178.344C232.662 178.835 233.025 179.213 233.473 179.48C233.932 179.736 234.428 179.864 234.961 179.864C235.505 179.864 236.001 179.736 236.449 179.48C236.908 179.213 237.27 178.835 237.537 178.344C237.804 177.843 237.937 177.256 237.937 176.584ZM242.797 173.848C243.085 173.347 243.512 172.931 244.077 172.6C244.653 172.259 245.32 172.088 246.077 172.088C246.856 172.088 247.56 172.275 248.189 172.648C248.829 173.021 249.331 173.549 249.693 174.232C250.056 174.904 250.237 175.688 250.237 176.584C250.237 177.469 250.056 178.259 249.693 178.952C249.331 179.645 248.829 180.184 248.189 180.568C247.56 180.952 246.856 181.144 246.077 181.144C245.331 181.144 244.669 180.979 244.093 180.648C243.528 180.307 243.096 179.885 242.797 179.384V185.16H241.341V172.232H242.797V173.848ZM248.749 176.584C248.749 175.923 248.616 175.347 248.349 174.856C248.083 174.365 247.72 173.992 247.261 173.736C246.813 173.48 246.317 173.352 245.773 173.352C245.24 173.352 244.744 173.485 244.285 173.752C243.837 174.008 243.475 174.387 243.197 174.888C242.931 175.379 242.797 175.949 242.797 176.6C242.797 177.261 242.931 177.843 243.197 178.344C243.475 178.835 243.837 179.213 244.285 179.48C244.744 179.736 245.24 179.864 245.773 179.864C246.317 179.864 246.813 179.736 247.261 179.48C247.72 179.213 248.083 178.835 248.349 178.344C248.616 177.843 248.749 177.256 248.749 176.584Z" fill="white"/>
<path d="M65.5206 43.121C64.5472 43.121 63.6672 42.9543 62.8806 42.621C62.1072 42.2876 61.4939 41.8076 61.0406 41.181C60.5872 40.5543 60.3539 39.8143 60.3406 38.961H63.3406C63.3806 39.5343 63.5806 39.9876 63.9406 40.321C64.3139 40.6543 64.8206 40.821 65.4606 40.821C66.1139 40.821 66.6272 40.6676 67.0006 40.361C67.3739 40.041 67.5606 39.6276 67.5606 39.121C67.5606 38.7076 67.4339 38.3676 67.1806 38.101C66.9272 37.8343 66.6072 37.6276 66.2206 37.481C65.8472 37.321 65.3272 37.1476 64.6606 36.961C63.7539 36.6943 63.0139 36.4343 62.4406 36.181C61.8806 35.9143 61.3939 35.521 60.9806 35.001C60.5806 34.4676 60.3806 33.761 60.3806 32.881C60.3806 32.0543 60.5872 31.3343 61.0006 30.721C61.4139 30.1076 61.9939 29.641 62.7406 29.321C63.4872 28.9876 64.3406 28.821 65.3006 28.821C66.7406 28.821 67.9072 29.1743 68.8006 29.881C69.7072 30.5743 70.2072 31.5476 70.3006 32.801H67.2206C67.1939 32.321 66.9872 31.9276 66.6006 31.621C66.2272 31.301 65.7272 31.141 65.1006 31.141C64.5539 31.141 64.1139 31.281 63.7806 31.561C63.4606 31.841 63.3006 32.2476 63.3006 32.781C63.3006 33.1543 63.4206 33.4676 63.6606 33.721C63.9139 33.961 64.2206 34.161 64.5806 34.321C64.9539 34.4676 65.4739 34.641 66.1406 34.841C67.0472 35.1076 67.7872 35.3743 68.3606 35.641C68.9339 35.9076 69.4272 36.3076 69.8406 36.841C70.2539 37.3743 70.4606 38.0743 70.4606 38.941C70.4606 39.6876 70.2672 40.381 69.8806 41.021C69.4939 41.661 68.9272 42.1743 68.1806 42.561C67.4339 42.9343 66.5472 43.121 65.5206 43.121ZM74.3081 30.581C73.8147 30.581 73.4014 30.4276 73.0681 30.121C72.7481 29.801 72.5881 29.4076 72.5881 28.941C72.5881 28.4743 72.7481 28.0876 73.0681 27.781C73.4014 27.461 73.8147 27.301 74.3081 27.301C74.8014 27.301 75.2081 27.461 75.5281 27.781C75.8614 28.0876 76.0281 28.4743 76.0281 28.941C76.0281 29.4076 75.8614 29.801 75.5281 30.121C75.2081 30.4276 74.8014 30.581 74.3081 30.581ZM75.6881 31.901V42.981H72.8881V31.901H75.6881ZM82.7945 31.721C83.6211 31.721 84.3478 31.8876 84.9745 32.221C85.6011 32.541 86.0945 32.961 86.4545 33.481V31.901H89.2745V43.061C89.2745 44.0876 89.0678 45.001 88.6545 45.801C88.2411 46.6143 87.6211 47.2543 86.7945 47.721C85.9678 48.201 84.9678 48.441 83.7945 48.441C82.2211 48.441 80.9278 48.0743 79.9145 47.341C78.9145 46.6076 78.3478 45.6076 78.2145 44.341H80.9945C81.1411 44.8476 81.4545 45.2476 81.9345 45.541C82.4278 45.8476 83.0211 46.001 83.7145 46.001C84.5278 46.001 85.1878 45.7543 85.6945 45.261C86.2011 44.781 86.4545 44.0476 86.4545 43.061V41.341C86.0945 41.861 85.5945 42.2943 84.9545 42.641C84.3278 42.9876 83.6078 43.161 82.7945 43.161C81.8611 43.161 81.0078 42.921 80.2345 42.441C79.4611 41.961 78.8478 41.2876 78.3945 40.421C77.9545 39.541 77.7345 38.5343 77.7345 37.401C77.7345 36.281 77.9545 35.2876 78.3945 34.421C78.8478 33.5543 79.4545 32.8876 80.2145 32.421C80.9878 31.9543 81.8478 31.721 82.7945 31.721ZM86.4545 37.441C86.4545 36.761 86.3211 36.181 86.0545 35.701C85.7878 35.2076 85.4278 34.8343 84.9745 34.581C84.5211 34.3143 84.0345 34.181 83.5145 34.181C82.9945 34.181 82.5145 34.3076 82.0745 34.561C81.6345 34.8143 81.2745 35.1876 80.9945 35.681C80.7278 36.161 80.5945 36.7343 80.5945 37.401C80.5945 38.0676 80.7278 38.6543 80.9945 39.161C81.2745 39.6543 81.6345 40.0343 82.0745 40.301C82.5278 40.5676 83.0078 40.701 83.5145 40.701C84.0345 40.701 84.5211 40.5743 84.9745 40.321C85.4278 40.0543 85.7878 39.681 86.0545 39.201C86.3211 38.7076 86.4545 38.121 86.4545 37.441ZM98.1492 31.741C99.4692 31.741 100.536 32.161 101.349 33.001C102.162 33.8276 102.569 34.9876 102.569 36.481V42.981H99.7692V36.861C99.7692 35.981 99.5492 35.3076 99.1092 34.841C98.6692 34.361 98.0692 34.121 97.3092 34.121C96.5358 34.121 95.9225 34.361 95.4692 34.841C95.0292 35.3076 94.8092 35.981 94.8092 36.861V42.981H92.0092V31.901H94.8092V33.281C95.1825 32.801 95.6558 32.4276 96.2292 32.161C96.8158 31.881 97.4558 31.741 98.1492 31.741ZM104.512 37.401C104.512 36.281 104.732 35.2876 105.172 34.421C105.625 33.5543 106.232 32.8876 106.992 32.421C107.765 31.9543 108.625 31.721 109.572 31.721C110.398 31.721 111.118 31.8876 111.732 32.221C112.358 32.5543 112.858 32.9743 113.232 33.481V31.901H116.052V42.981H113.232V41.361C112.872 41.881 112.372 42.3143 111.732 42.661C111.105 42.9943 110.378 43.161 109.552 43.161C108.618 43.161 107.765 42.921 106.992 42.441C106.232 41.961 105.625 41.2876 105.172 40.421C104.732 39.541 104.512 38.5343 104.512 37.401ZM113.232 37.441C113.232 36.761 113.098 36.181 112.832 35.701C112.565 35.2076 112.205 34.8343 111.752 34.581C111.298 34.3143 110.812 34.181 110.292 34.181C109.772 34.181 109.292 34.3076 108.852 34.561C108.412 34.8143 108.052 35.1876 107.772 35.681C107.505 36.161 107.372 36.7343 107.372 37.401C107.372 38.0676 107.505 38.6543 107.772 39.161C108.052 39.6543 108.412 40.0343 108.852 40.301C109.305 40.5676 109.785 40.701 110.292 40.701C110.812 40.701 111.298 40.5743 111.752 40.321C112.205 40.0543 112.565 39.681 112.832 39.201C113.098 38.7076 113.232 38.121 113.232 37.441ZM121.587 28.181V42.981H118.787V28.181H121.587ZM134.653 37.201C134.653 37.601 134.626 37.961 134.573 38.281H126.473C126.54 39.081 126.82 39.7076 127.313 40.161C127.806 40.6143 128.413 40.841 129.133 40.841C130.173 40.841 130.913 40.3943 131.353 39.501H134.373C134.053 40.5676 133.44 41.4476 132.533 42.141C131.626 42.821 130.513 43.161 129.193 43.161C128.126 43.161 127.166 42.9276 126.313 42.461C125.473 41.981 124.813 41.3076 124.333 40.441C123.866 39.5743 123.633 38.5743 123.633 37.441C123.633 36.2943 123.866 35.2876 124.333 34.421C124.8 33.5543 125.453 32.8876 126.293 32.421C127.133 31.9543 128.1 31.721 129.193 31.721C130.246 31.721 131.186 31.9476 132.013 32.401C132.853 32.8543 133.5 33.501 133.953 34.341C134.42 35.1676 134.653 36.121 134.653 37.201ZM131.753 36.401C131.74 35.681 131.48 35.1076 130.973 34.681C130.466 34.241 129.846 34.021 129.113 34.021C128.42 34.021 127.833 34.2343 127.353 34.661C126.886 35.0743 126.6 35.6543 126.493 36.401H131.753ZM139.497 33.621C139.857 33.0343 140.323 32.5743 140.897 32.241C141.483 31.9076 142.15 31.741 142.897 31.741V34.681H142.157C141.277 34.681 140.61 34.8876 140.157 35.301C139.717 35.7143 139.497 36.4343 139.497 37.461V42.981H136.697V31.901H139.497V33.621ZM160.008 31.901V42.981H157.188V41.581C156.828 42.061 156.355 42.441 155.768 42.721C155.195 42.9876 154.568 43.121 153.888 43.121C153.022 43.121 152.255 42.941 151.588 42.581C150.922 42.2076 150.395 41.6676 150.008 40.961C149.635 40.241 149.448 39.3876 149.448 38.401V31.901H152.248V38.001C152.248 38.881 152.468 39.561 152.908 40.041C153.348 40.5076 153.948 40.741 154.708 40.741C155.482 40.741 156.088 40.5076 156.528 40.041C156.968 39.561 157.188 38.881 157.188 38.001V31.901H160.008ZM168.911 31.741C170.231 31.741 171.298 32.161 172.111 33.001C172.924 33.8276 173.331 34.9876 173.331 36.481V42.981H170.531V36.861C170.531 35.981 170.311 35.3076 169.871 34.841C169.431 34.361 168.831 34.121 168.071 34.121C167.298 34.121 166.684 34.361 166.231 34.841C165.791 35.3076 165.571 35.981 165.571 36.861V42.981H162.771V31.901H165.571V33.281C165.944 32.801 166.418 32.4276 166.991 32.161C167.578 31.881 168.218 31.741 168.911 31.741ZM180.039 37.441C180.039 36.2943 180.272 35.2943 180.739 34.441C181.206 33.5743 181.852 32.9076 182.679 32.441C183.506 31.961 184.452 31.721 185.519 31.721C186.892 31.721 188.026 32.0676 188.919 32.761C189.826 33.441 190.432 34.401 190.739 35.641H187.719C187.559 35.161 187.286 34.7876 186.899 34.521C186.526 34.241 186.059 34.101 185.499 34.101C184.699 34.101 184.066 34.3943 183.599 34.981C183.132 35.5543 182.899 36.3743 182.899 37.441C182.899 38.4943 183.132 39.3143 183.599 39.901C184.066 40.4743 184.699 40.761 185.499 40.761C186.632 40.761 187.372 40.2543 187.719 39.241H190.739C190.432 40.441 189.826 41.3943 188.919 42.101C188.012 42.8076 186.879 43.161 185.519 43.161C184.452 43.161 183.506 42.9276 182.679 42.461C181.852 41.981 181.206 41.3143 180.739 40.461C180.272 39.5943 180.039 38.5876 180.039 37.441ZM192.07 37.401C192.07 36.281 192.29 35.2876 192.73 34.421C193.184 33.5543 193.79 32.8876 194.55 32.421C195.324 31.9543 196.184 31.721 197.13 31.721C197.957 31.721 198.677 31.8876 199.29 32.221C199.917 32.5543 200.417 32.9743 200.79 33.481V31.901H203.61V42.981H200.79V41.361C200.43 41.881 199.93 42.3143 199.29 42.661C198.664 42.9943 197.937 43.161 197.11 43.161C196.177 43.161 195.324 42.921 194.55 42.441C193.79 41.961 193.184 41.2876 192.73 40.421C192.29 39.541 192.07 38.5343 192.07 37.401ZM200.79 37.441C200.79 36.761 200.657 36.181 200.39 35.701C200.124 35.2076 199.764 34.8343 199.31 34.581C198.857 34.3143 198.37 34.181 197.85 34.181C197.33 34.181 196.85 34.3076 196.41 34.561C195.97 34.8143 195.61 35.1876 195.33 35.681C195.064 36.161 194.93 36.7343 194.93 37.401C194.93 38.0676 195.064 38.6543 195.33 39.161C195.61 39.6543 195.97 40.0343 196.41 40.301C196.864 40.5676 197.344 40.701 197.85 40.701C198.37 40.701 198.857 40.5743 199.31 40.321C199.764 40.0543 200.124 39.681 200.39 39.201C200.657 38.7076 200.79 38.121 200.79 37.441ZM210.585 43.161C209.678 43.161 208.865 43.001 208.145 42.681C207.425 42.3476 206.852 41.901 206.425 41.341C206.012 40.781 205.785 40.161 205.745 39.481H208.565C208.618 39.9076 208.825 40.261 209.185 40.541C209.558 40.821 210.018 40.961 210.565 40.961C211.098 40.961 211.512 40.8543 211.805 40.641C212.112 40.4276 212.265 40.1543 212.265 39.821C212.265 39.461 212.078 39.1943 211.705 39.021C211.345 38.8343 210.765 38.6343 209.965 38.421C209.138 38.221 208.458 38.0143 207.925 37.801C207.405 37.5876 206.952 37.261 206.565 36.821C206.192 36.381 206.005 35.7876 206.005 35.041C206.005 34.4276 206.178 33.8676 206.525 33.361C206.885 32.8543 207.392 32.4543 208.045 32.161C208.712 31.8676 209.492 31.721 210.385 31.721C211.705 31.721 212.758 32.0543 213.545 32.721C214.332 33.3743 214.765 34.261 214.845 35.381H212.165C212.125 34.941 211.938 34.5943 211.605 34.341C211.285 34.0743 210.852 33.941 210.305 33.941C209.798 33.941 209.405 34.0343 209.125 34.221C208.858 34.4076 208.725 34.6676 208.725 35.001C208.725 35.3743 208.912 35.661 209.285 35.861C209.658 36.0476 210.238 36.241 211.025 36.441C211.825 36.641 212.485 36.8476 213.005 37.061C213.525 37.2743 213.972 37.6076 214.345 38.061C214.732 38.501 214.932 39.0876 214.945 39.821C214.945 40.461 214.765 41.0343 214.405 41.541C214.058 42.0476 213.552 42.4476 212.885 42.741C212.232 43.021 211.465 43.161 210.585 43.161ZM221.289 37.401C221.289 36.281 221.509 35.2876 221.949 34.421C222.402 33.5543 223.016 32.8876 223.789 32.421C224.562 31.9543 225.422 31.721 226.369 31.721C227.089 31.721 227.776 31.881 228.429 32.201C229.082 32.5076 229.602 32.921 229.989 33.441V28.181H232.829V42.981H229.989V41.341C229.642 41.8876 229.156 42.3276 228.529 42.661C227.902 42.9943 227.176 43.161 226.349 43.161C225.416 43.161 224.562 42.921 223.789 42.441C223.016 41.961 222.402 41.2876 221.949 40.421C221.509 39.541 221.289 38.5343 221.289 37.401ZM230.009 37.441C230.009 36.761 229.876 36.181 229.609 35.701C229.342 35.2076 228.982 34.8343 228.529 34.581C228.076 34.3143 227.589 34.181 227.069 34.181C226.549 34.181 226.069 34.3076 225.629 34.561C225.189 34.8143 224.829 35.1876 224.549 35.681C224.282 36.161 224.149 36.7343 224.149 37.401C224.149 38.0676 224.282 38.6543 224.549 39.161C224.829 39.6543 225.189 40.0343 225.629 40.301C226.082 40.5676 226.562 40.701 227.069 40.701C227.589 40.701 228.076 40.5743 228.529 40.321C228.982 40.0543 229.342 39.681 229.609 39.201C229.876 38.7076 230.009 38.121 230.009 37.441ZM245.864 37.201C245.864 37.601 245.837 37.961 245.784 38.281H237.684C237.751 39.081 238.031 39.7076 238.524 40.161C239.017 40.6143 239.624 40.841 240.344 40.841C241.384 40.841 242.124 40.3943 242.564 39.501H245.584C245.264 40.5676 244.651 41.4476 243.744 42.141C242.837 42.821 241.724 43.161 240.404 43.161C239.337 43.161 238.377 42.9276 237.524 42.461C236.684 41.981 236.024 41.3076 235.544 40.441C235.077 39.5743 234.844 38.5743 234.844 37.441C234.844 36.2943 235.077 35.2876 235.544 34.421C236.011 33.5543 236.664 32.8876 237.504 32.421C238.344 31.9543 239.311 31.721 240.404 31.721C241.457 31.721 242.397 31.9476 243.224 32.401C244.064 32.8543 244.711 33.501 245.164 34.341C245.631 35.1676 245.864 36.121 245.864 37.201ZM242.964 36.401C242.951 35.681 242.691 35.1076 242.184 34.681C241.677 34.241 241.057 34.021 240.324 34.021C239.631 34.021 239.044 34.2343 238.564 34.661C238.097 35.0743 237.811 35.6543 237.704 36.401H242.964ZM58.8087 67.441C58.8087 66.2943 59.042 65.2943 59.5087 64.441C59.9754 63.5743 60.622 62.9076 61.4487 62.441C62.2754 61.961 63.222 61.721 64.2887 61.721C65.662 61.721 66.7954 62.0676 67.6887 62.761C68.5954 63.441 69.202 64.401 69.5087 65.641H66.4887C66.3287 65.161 66.0554 64.7876 65.6687 64.521C65.2954 64.241 64.8287 64.101 64.2687 64.101C63.4687 64.101 62.8354 64.3943 62.3687 64.981C61.902 65.5543 61.6687 66.3743 61.6687 67.441C61.6687 68.4943 61.902 69.3143 62.3687 69.901C62.8354 70.4743 63.4687 70.761 64.2687 70.761C65.402 70.761 66.142 70.2543 66.4887 69.241H69.5087C69.202 70.441 68.5954 71.3943 67.6887 72.101C66.782 72.8076 65.6487 73.161 64.2887 73.161C63.222 73.161 62.2754 72.9276 61.4487 72.461C60.622 71.981 59.9754 71.3143 59.5087 70.461C59.042 69.5943 58.8087 68.5876 58.8087 67.441ZM82.1599 61.901L75.2999 78.221H72.3199L74.7199 72.701L70.2799 61.901H73.4199L76.2799 69.641L79.1799 61.901H82.1599ZM86.4693 63.521C86.8293 62.9876 87.3227 62.5543 87.9493 62.221C88.5893 61.8876 89.316 61.721 90.1293 61.721C91.076 61.721 91.9293 61.9543 92.6893 62.421C93.4627 62.8876 94.0693 63.5543 94.5093 64.421C94.9627 65.2743 95.1893 66.2676 95.1893 67.401C95.1893 68.5343 94.9627 69.541 94.5093 70.421C94.0693 71.2876 93.4627 71.961 92.6893 72.441C91.9293 72.921 91.076 73.161 90.1293 73.161C89.3027 73.161 88.576 73.001 87.9493 72.681C87.336 72.3476 86.8427 71.921 86.4693 71.401V72.981H83.6693V58.181H86.4693V63.521ZM92.3293 67.401C92.3293 66.7343 92.1893 66.161 91.9093 65.681C91.6427 65.1876 91.2827 64.8143 90.8293 64.561C90.3893 64.3076 89.9093 64.181 89.3893 64.181C88.8827 64.181 88.4027 64.3143 87.9493 64.581C87.5093 64.8343 87.1493 65.2076 86.8693 65.701C86.6027 66.1943 86.4693 66.7743 86.4693 67.441C86.4693 68.1076 86.6027 68.6876 86.8693 69.181C87.1493 69.6743 87.5093 70.0543 87.9493 70.321C88.4027 70.5743 88.8827 70.701 89.3893 70.701C89.9093 70.701 90.3893 70.5676 90.8293 70.301C91.2827 70.0343 91.6427 69.6543 91.9093 69.161C92.1893 68.6676 92.3293 68.081 92.3293 67.401ZM107.524 67.201C107.524 67.601 107.497 67.961 107.444 68.281H99.344C99.4107 69.081 99.6907 69.7076 100.184 70.161C100.677 70.6143 101.284 70.841 102.004 70.841C103.044 70.841 103.784 70.3943 104.224 69.501H107.244C106.924 70.5676 106.311 71.4476 105.404 72.141C104.497 72.821 103.384 73.161 102.064 73.161C100.997 73.161 100.037 72.9276 99.184 72.461C98.344 71.981 97.684 71.3076 97.204 70.441C96.7373 69.5743 96.504 68.5743 96.504 67.441C96.504 66.2943 96.7373 65.2876 97.204 64.421C97.6707 63.5543 98.324 62.8876 99.164 62.421C100.004 61.9543 100.971 61.721 102.064 61.721C103.117 61.721 104.057 61.9476 104.884 62.401C105.724 62.8543 106.371 63.501 106.824 64.341C107.291 65.1676 107.524 66.121 107.524 67.201ZM104.624 66.401C104.611 65.681 104.351 65.1076 103.844 64.681C103.337 64.241 102.717 64.021 101.984 64.021C101.291 64.021 100.704 64.2343 100.224 64.661C99.7573 65.0743 99.4707 65.6543 99.364 66.401H104.624ZM112.368 63.621C112.728 63.0343 113.194 62.5743 113.768 62.241C114.354 61.9076 115.021 61.741 115.768 61.741V64.681H115.028C114.148 64.681 113.481 64.8876 113.028 65.301C112.588 65.7143 112.368 66.4343 112.368 67.461V72.981H109.568V61.901H112.368V63.621ZM123.894 61.741C124.734 61.741 125.48 61.9276 126.134 62.301C126.787 62.661 127.294 63.201 127.654 63.921C128.027 64.6276 128.214 65.481 128.214 66.481V72.981H125.414V66.861C125.414 65.981 125.194 65.3076 124.754 64.841C124.314 64.361 123.714 64.121 122.954 64.121C122.18 64.121 121.567 64.361 121.114 64.841C120.674 65.3076 120.454 65.981 120.454 66.861V72.981H117.654V58.181H120.454V63.281C120.814 62.801 121.294 62.4276 121.894 62.161C122.494 61.881 123.16 61.741 123.894 61.741ZM130.156 67.401C130.156 66.281 130.376 65.2876 130.816 64.421C131.27 63.5543 131.876 62.8876 132.636 62.421C133.41 61.9543 134.27 61.721 135.216 61.721C136.043 61.721 136.763 61.8876 137.376 62.221C138.003 62.5543 138.503 62.9743 138.876 63.481V61.901H141.696V72.981H138.876V71.361C138.516 71.881 138.016 72.3143 137.376 72.661C136.75 72.9943 136.023 73.161 135.196 73.161C134.263 73.161 133.41 72.921 132.636 72.441C131.876 71.961 131.27 71.2876 130.816 70.421C130.376 69.541 130.156 68.5343 130.156 67.401ZM138.876 67.441C138.876 66.761 138.743 66.181 138.476 65.701C138.21 65.2076 137.85 64.8343 137.396 64.581C136.943 64.3143 136.456 64.181 135.936 64.181C135.416 64.181 134.936 64.3076 134.496 64.561C134.056 64.8143 133.696 65.1876 133.416 65.681C133.15 66.161 133.016 66.7343 133.016 67.401C133.016 68.0676 133.15 68.6543 133.416 69.161C133.696 69.6543 134.056 70.0343 134.496 70.301C134.95 70.5676 135.43 70.701 135.936 70.701C136.456 70.701 136.943 70.5743 137.396 70.321C137.85 70.0543 138.21 69.681 138.476 69.201C138.743 68.7076 138.876 68.121 138.876 67.441ZM147.231 63.621C147.591 63.0343 148.058 62.5743 148.631 62.241C149.218 61.9076 149.884 61.741 150.631 61.741V64.681H149.891C149.011 64.681 148.344 64.8876 147.891 65.301C147.451 65.7143 147.231 66.4343 147.231 67.461V72.981H144.431V61.901H147.231V63.621ZM151.797 67.441C151.797 66.2943 152.03 65.2943 152.497 64.441C152.964 63.5743 153.61 62.9076 154.437 62.441C155.264 61.961 156.21 61.721 157.277 61.721C158.65 61.721 159.784 62.0676 160.677 62.761C161.584 63.441 162.19 64.401 162.497 65.641H159.477C159.317 65.161 159.044 64.7876 158.657 64.521C158.284 64.241 157.817 64.101 157.257 64.101C156.457 64.101 155.824 64.3943 155.357 64.981C154.89 65.5543 154.657 66.3743 154.657 67.441C154.657 68.4943 154.89 69.3143 155.357 69.901C155.824 70.4743 156.457 70.761 157.257 70.761C158.39 70.761 159.13 70.2543 159.477 69.241H162.497C162.19 70.441 161.584 71.3943 160.677 72.101C159.77 72.8076 158.637 73.161 157.277 73.161C156.21 73.161 155.264 72.9276 154.437 72.461C153.61 71.981 152.964 71.3143 152.497 70.461C152.03 69.5943 151.797 68.5876 151.797 67.441ZM174.848 67.201C174.848 67.601 174.822 67.961 174.768 68.281H166.668C166.735 69.081 167.015 69.7076 167.508 70.161C168.002 70.6143 168.608 70.841 169.328 70.841C170.368 70.841 171.108 70.3943 171.548 69.501H174.568C174.248 70.5676 173.635 71.4476 172.728 72.141C171.822 72.821 170.708 73.161 169.388 73.161C168.322 73.161 167.362 72.9276 166.508 72.461C165.668 71.981 165.008 71.3076 164.528 70.441C164.062 69.5743 163.828 68.5743 163.828 67.441C163.828 66.2943 164.062 65.2876 164.528 64.421C164.995 63.5543 165.648 62.8876 166.488 62.421C167.328 61.9543 168.295 61.721 169.388 61.721C170.442 61.721 171.382 61.9476 172.208 62.401C173.048 62.8543 173.695 63.501 174.148 64.341C174.615 65.1676 174.848 66.121 174.848 67.201ZM171.948 66.401C171.935 65.681 171.675 65.1076 171.168 64.681C170.662 64.241 170.042 64.021 169.308 64.021C168.615 64.021 168.028 64.2343 167.548 64.661C167.082 65.0743 166.795 65.6543 166.688 66.401H171.948ZM171.528 59.081V61.081L166.928 58.981V56.701L171.528 59.081ZM179.692 58.181V72.981H176.892V58.181H179.692ZM192.758 67.201C192.758 67.601 192.732 67.961 192.678 68.281H184.578C184.645 69.081 184.925 69.7076 185.418 70.161C185.912 70.6143 186.518 70.841 187.238 70.841C188.278 70.841 189.018 70.3943 189.458 69.501H192.478C192.158 70.5676 191.545 71.4476 190.638 72.141C189.732 72.821 188.618 73.161 187.298 73.161C186.232 73.161 185.272 72.9276 184.418 72.461C183.578 71.981 182.918 71.3076 182.438 70.441C181.972 69.5743 181.738 68.5743 181.738 67.441C181.738 66.2943 181.972 65.2876 182.438 64.421C182.905 63.5543 183.558 62.8876 184.398 62.421C185.238 61.9543 186.205 61.721 187.298 61.721C188.352 61.721 189.292 61.9476 190.118 62.401C190.958 62.8543 191.605 63.501 192.058 64.341C192.525 65.1676 192.758 66.121 192.758 67.201ZM189.858 66.401C189.845 65.681 189.585 65.1076 189.078 64.681C188.572 64.241 187.952 64.021 187.218 64.021C186.525 64.021 185.938 64.2343 185.458 64.661C184.992 65.0743 184.705 65.6543 184.598 66.401H189.858ZM208.562 61.741C209.922 61.741 211.015 62.161 211.842 63.001C212.682 63.8276 213.102 64.9876 213.102 66.481V72.981H210.302V66.861C210.302 65.9943 210.082 65.3343 209.642 64.881C209.202 64.4143 208.602 64.181 207.842 64.181C207.082 64.181 206.475 64.4143 206.022 64.881C205.582 65.3343 205.362 65.9943 205.362 66.861V72.981H202.562V66.861C202.562 65.9943 202.342 65.3343 201.902 64.881C201.462 64.4143 200.862 64.181 200.102 64.181C199.329 64.181 198.715 64.4143 198.262 64.881C197.822 65.3343 197.602 65.9943 197.602 66.861V72.981H194.802V61.901H197.602V63.241C197.962 62.7743 198.422 62.4076 198.982 62.141C199.555 61.8743 200.182 61.741 200.862 61.741C201.729 61.741 202.502 61.9276 203.182 62.301C203.862 62.661 204.389 63.181 204.762 63.861C205.122 63.221 205.642 62.7076 206.322 62.321C207.015 61.9343 207.762 61.741 208.562 61.741ZM226.059 67.201C226.059 67.601 226.032 67.961 225.979 68.281H217.879C217.946 69.081 218.226 69.7076 218.719 70.161C219.212 70.6143 219.819 70.841 220.539 70.841C221.579 70.841 222.319 70.3943 222.759 69.501H225.779C225.459 70.5676 224.846 71.4476 223.939 72.141C223.032 72.821 221.919 73.161 220.599 73.161C219.532 73.161 218.572 72.9276 217.719 72.461C216.879 71.981 216.219 71.3076 215.739 70.441C215.272 69.5743 215.039 68.5743 215.039 67.441C215.039 66.2943 215.272 65.2876 215.739 64.421C216.206 63.5543 216.859 62.8876 217.699 62.421C218.539 61.9543 219.506 61.721 220.599 61.721C221.652 61.721 222.592 61.9476 223.419 62.401C224.259 62.8543 224.906 63.501 225.359 64.341C225.826 65.1676 226.059 66.121 226.059 67.201ZM223.159 66.401C223.146 65.681 222.886 65.1076 222.379 64.681C221.872 64.241 221.252 64.021 220.519 64.021C219.826 64.021 219.239 64.2343 218.759 64.661C218.292 65.0743 218.006 65.6543 217.899 66.401H223.159ZM234.243 61.741C235.563 61.741 236.63 62.161 237.443 63.001C238.256 63.8276 238.663 64.9876 238.663 66.481V72.981H235.863V66.861C235.863 65.981 235.643 65.3076 235.203 64.841C234.763 64.361 234.163 64.121 233.403 64.121C232.63 64.121 232.016 64.361 231.563 64.841C231.123 65.3076 230.903 65.981 230.903 66.861V72.981H228.103V61.901H230.903V63.281C231.276 62.801 231.75 62.4276 232.323 62.161C232.91 61.881 233.55 61.741 234.243 61.741ZM244.586 64.201V69.561C244.586 69.9343 244.672 70.2076 244.846 70.381C245.032 70.541 245.339 70.621 245.766 70.621H247.066V72.981H245.306C242.946 72.981 241.766 71.8343 241.766 69.541V64.201H240.446V61.901H241.766V59.161H244.586V61.901H247.066V64.201H244.586Z" fill="white"/>
</svg>
