<svg width="306" height="211" viewBox="0 0 306 211" fill="none" xmlns="http://www.w3.org/2000/svg">
<rect width="306" height="211" rx="100" fill="#2F2D84"/>
<path d="M119.494 171.656C115.841 171.656 112.715 170.366 110.116 167.786C107.512 165.201 106.21 162.095 106.21 158.469V39.7812C106.21 36.1547 107.512 33.049 110.116 30.4643C112.715 27.8839 115.841 26.5938 119.494 26.5938H185.914C189.567 26.5938 192.696 27.8839 195.299 30.4643C197.899 33.049 199.198 36.1547 199.198 39.7812V158.469C199.198 162.095 197.899 165.201 195.299 167.786C192.696 170.366 189.567 171.656 185.914 171.656H119.494ZM152.704 155.172C154.586 155.172 156.165 154.539 157.44 153.273C158.711 152.011 159.346 150.446 159.346 148.578C159.346 146.71 158.711 145.145 157.44 143.883C156.165 142.617 154.586 141.984 152.704 141.984C150.822 141.984 149.246 142.617 147.975 143.883C146.7 145.145 146.062 146.71 146.062 148.578C146.062 150.446 146.7 152.011 147.975 153.273C149.246 154.539 150.822 155.172 152.704 155.172ZM119.494 125.5H185.914V59.5625H119.494V125.5Z" fill="#FFB7D6"/>
<path d="M111.84 125.12C114.72 125.12 117.48 124.28 119.76 122.42C122.16 120.38 122.94 118.52 123.54 115.4C123.66 114.62 123.72 113.84 123.72 113.06L123.66 111.32C123.48 109.88 122.94 108.38 122.04 106.88C121.14 105.38 119.76 104 117.84 102.8C119.7 101.54 121.02 100.22 121.74 98.84C122.4 97.58 122.7 96.38 122.7 95.24V94.94C122.7 93.74 122.46 92.66 122.04 91.64C121.62 90.68 121.2 89.9 120.78 89.36C120.36 88.82 120.12 88.52 120.12 88.46L119.1 87.56C118.44 87.02 117.48 86.42 116.1 85.82C114.78 85.22 113.22 84.86 111.36 84.74L110.16 84.68C106.02 84.68 101.7 86.36 98.4 88.82C97.44 89.66 97.08 90.8 97.08 92C97.08 94.82 99.12 97.88 101.28 97.88C101.76 97.88 102.24 97.7 102.72 97.34C104.16 96.26 106.26 95.18 108.24 95.18C109.26 95.18 110.28 95.54 111.06 96.32L111.3 96.92C111.42 97.1 111.42 97.28 111.42 97.52C111.42 97.7 111.42 97.88 111.3 98.12C111.06 98.6 110.58 98.96 109.74 99.26C109.2 99.44 108.48 99.56 107.46 99.56L105.48 99.44C103.26 99.68 102.18 101.72 102.18 103.7C102.18 105.62 103.14 107.42 105 107.42C105.84 107.36 106.62 107.3 107.34 107.3C108.12 107.3 108.84 107.36 109.38 107.48C112.14 108.08 113.34 109.7 113.34 111.14C113.34 112.34 112.5 113.48 111.12 113.9C110.64 114.02 110.22 114.08 109.8 114.08C107.76 114.08 106.44 112.64 104.88 111.14C104.4 110.66 103.86 110.12 103.2 109.64C102.84 109.4 102.42 109.28 102 109.28C99.48 109.28 96 112.88 96 116.36C96 117.92 96.66 119.42 98.4 120.56C101.04 122.36 102.24 122.72 104.4 123.5C107.04 124.46 109.32 125 111.3 125.12H111.84ZM140.683 125C149.203 125 156.763 115.94 157.543 104.84C157.603 104.18 157.603 103.52 157.603 102.86C157.603 92.6 151.603 84.62 143.623 84.62C135.163 84.62 127.543 93.68 126.763 104.84C126.703 105.5 126.703 106.16 126.703 106.82C126.703 117.02 132.703 125 140.683 125ZM140.563 114.32C140.263 114.32 139.903 114.26 139.603 114.2C137.083 113.6 135.583 110.72 135.583 107.12C135.583 105.92 135.763 104.66 136.123 103.34C137.383 98.66 140.683 95.3 143.743 95.3C144.103 95.3 144.403 95.36 144.703 95.42C147.223 96.08 148.723 98.96 148.723 102.56C148.723 103.76 148.603 105.02 148.243 106.28C146.923 110.96 143.623 114.32 140.563 114.32ZM174.609 125.06C177.189 125.06 179.649 124.22 179.649 122.96L181.269 87.26C180.609 85.34 179.109 84.62 177.189 84.62C171.549 84.62 162.429 90.92 161.469 92.48C160.869 92.84 160.629 93.56 160.629 94.34C160.629 96.2 162.189 98.6 164.709 98.6H165.129L168.729 97.28L168.849 121.4C168.909 124.04 171.849 125.06 174.609 125.06ZM196.962 125.12C198.402 125.12 199.782 124.94 201.102 124.58C202.362 124.28 203.622 123.86 204.702 123.32C205.782 122.72 206.742 122.12 207.462 121.4C209.022 119.96 210.102 118.46 210.822 116.9C211.482 115.34 211.842 113.78 211.902 112.28V111.74C211.902 110.42 211.722 109.16 211.302 107.96C210.282 105.2 208.962 103.22 206.382 101.96C207.522 100.82 208.422 99.68 209.082 98.48C209.742 97.16 210.162 95.9 210.342 94.58L210.462 93.14C210.462 92.36 210.342 91.64 210.222 90.92C209.562 88.04 208.362 86.24 205.422 85.22C204.522 84.92 203.562 84.74 202.482 84.68H202.062C201.102 84.68 200.022 84.86 198.942 85.1C197.682 85.46 196.422 85.94 195.282 86.54C194.082 87.2 193.062 87.92 192.102 88.7C191.142 89.54 190.362 90.44 189.702 91.46C188.982 92.42 188.502 93.5 188.202 94.58C187.962 95.36 187.842 96.2 187.842 97.04L187.902 97.94C188.022 99.08 188.322 100.22 188.922 101.36C189.402 102.32 190.062 103.04 190.782 103.64C189.942 104.18 189.222 104.72 188.502 105.38C187.422 106.34 186.582 107.42 185.862 108.56C185.142 109.76 184.662 110.96 184.422 112.22C184.302 112.82 184.242 113.48 184.242 114.08C184.242 114.8 184.302 115.46 184.482 116.18C184.722 117.56 185.322 118.94 186.222 120.26C187.002 121.46 187.962 122.42 189.102 123.14C190.302 123.86 191.502 124.4 192.882 124.7C193.962 125 195.162 125.12 196.302 125.12H196.962ZM197.802 99.86C197.202 99.86 196.602 99.62 196.182 99.14C195.762 98.72 195.522 98 195.522 97.04V96.74C195.522 95.48 195.822 94.46 196.422 93.56C197.022 92.72 197.682 92.06 198.402 91.64C199.002 91.28 199.662 91.1 200.262 91.1L200.682 91.16C201.402 91.22 201.942 91.64 202.302 92.36C202.422 92.66 202.542 92.96 202.602 93.32L202.662 94.16V94.52C202.602 94.94 202.542 95.48 202.302 95.96C202.122 96.5 201.822 97.1 201.462 97.76C201.042 98.36 200.502 98.9 199.842 99.26C199.182 99.68 198.462 99.86 197.802 99.86ZM197.022 118.46C196.242 118.46 195.522 118.16 194.862 117.62C194.262 117.02 193.842 116.12 193.782 114.74L193.722 113.9C193.722 112.82 193.962 111.86 194.502 111.08C195.102 110.06 195.882 109.28 196.722 108.8C197.502 108.38 198.282 108.2 199.122 108.2H199.482C200.382 108.32 201.102 108.8 201.642 109.64C201.822 110 202.002 110.36 202.122 110.78C202.242 111.2 202.362 111.68 202.362 112.22C202.362 112.7 202.302 113.3 202.122 113.9C201.942 114.56 201.702 115.22 201.282 116C200.862 116.72 200.262 117.32 199.482 117.8C198.642 118.22 197.862 118.46 197.022 118.46Z" fill="white"/>
</svg>
