<svg width="306" height="211" viewBox="0 0 306 211" fill="none" xmlns="http://www.w3.org/2000/svg">
<rect width="306" height="211" rx="100" fill="#DF80A9"/>
<path d="M79.0457 51.14C78.0724 51.14 77.1924 50.9733 76.4057 50.64C75.6324 50.3067 75.019 49.8267 74.5657 49.2C74.1124 48.5733 73.879 47.8333 73.8657 46.98H76.8657C76.9057 47.5533 77.1057 48.0067 77.4657 48.34C77.839 48.6733 78.3457 48.84 78.9857 48.84C79.639 48.84 80.1524 48.6867 80.5257 48.38C80.899 48.06 81.0857 47.6467 81.0857 47.14C81.0857 46.7267 80.959 46.3867 80.7057 46.12C80.4524 45.8533 80.1324 45.6467 79.7457 45.5C79.3724 45.34 78.8524 45.1667 78.1857 44.98C77.279 44.7133 76.539 44.4533 75.9657 44.2C75.4057 43.9333 74.919 43.54 74.5057 43.02C74.1057 42.4867 73.9057 41.78 73.9057 40.9C73.9057 40.0733 74.1124 39.3533 74.5257 38.74C74.939 38.1267 75.519 37.66 76.2657 37.34C77.0124 37.0067 77.8657 36.84 78.8257 36.84C80.2657 36.84 81.4324 37.1933 82.3257 37.9C83.2324 38.5933 83.7324 39.5667 83.8257 40.82H80.7457C80.719 40.34 80.5124 39.9467 80.1257 39.64C79.7524 39.32 79.2524 39.16 78.6257 39.16C78.079 39.16 77.639 39.3 77.3057 39.58C76.9857 39.86 76.8257 40.2667 76.8257 40.8C76.8257 41.1733 76.9457 41.4867 77.1857 41.74C77.439 41.98 77.7457 42.18 78.1057 42.34C78.479 42.4867 78.999 42.66 79.6657 42.86C80.5724 43.1267 81.3124 43.3933 81.8857 43.66C82.459 43.9267 82.9524 44.3267 83.3657 44.86C83.779 45.3933 83.9857 46.0933 83.9857 46.96C83.9857 47.7067 83.7924 48.4 83.4057 49.04C83.019 49.68 82.4524 50.1933 81.7057 50.58C80.959 50.9533 80.0724 51.14 79.0457 51.14ZM87.8332 38.6C87.3399 38.6 86.9265 38.4467 86.5932 38.14C86.2732 37.82 86.1132 37.4267 86.1132 36.96C86.1132 36.4933 86.2732 36.1067 86.5932 35.8C86.9265 35.48 87.3399 35.32 87.8332 35.32C88.3265 35.32 88.7332 35.48 89.0532 35.8C89.3865 36.1067 89.5532 36.4933 89.5532 36.96C89.5532 37.4267 89.3865 37.82 89.0532 38.14C88.7332 38.4467 88.3265 38.6 87.8332 38.6ZM89.2132 39.92V51H86.4132V39.92H89.2132ZM96.3196 39.74C97.1463 39.74 97.8729 39.9067 98.4996 40.24C99.1263 40.56 99.6196 40.98 99.9796 41.5V39.92H102.8V51.08C102.8 52.1067 102.593 53.02 102.18 53.82C101.766 54.6333 101.146 55.2733 100.32 55.74C99.4929 56.22 98.4929 56.46 97.3196 56.46C95.7463 56.46 94.4529 56.0933 93.4396 55.36C92.4396 54.6267 91.8729 53.6267 91.7396 52.36H94.5196C94.6663 52.8667 94.9796 53.2667 95.4596 53.56C95.9529 53.8667 96.5463 54.02 97.2396 54.02C98.0529 54.02 98.7129 53.7733 99.2196 53.28C99.7263 52.8 99.9796 52.0667 99.9796 51.08V49.36C99.6196 49.88 99.1196 50.3133 98.4796 50.66C97.8529 51.0067 97.1329 51.18 96.3196 51.18C95.3863 51.18 94.5329 50.94 93.7596 50.46C92.9863 49.98 92.3729 49.3067 91.9196 48.44C91.4796 47.56 91.2596 46.5533 91.2596 45.42C91.2596 44.3 91.4796 43.3067 91.9196 42.44C92.3729 41.5733 92.9796 40.9067 93.7396 40.44C94.5129 39.9733 95.3729 39.74 96.3196 39.74ZM99.9796 45.46C99.9796 44.78 99.8463 44.2 99.5796 43.72C99.3129 43.2267 98.9529 42.8533 98.4996 42.6C98.0463 42.3333 97.5596 42.2 97.0396 42.2C96.5196 42.2 96.0396 42.3267 95.5996 42.58C95.1596 42.8333 94.7996 43.2067 94.5196 43.7C94.2529 44.18 94.1196 44.7533 94.1196 45.42C94.1196 46.0867 94.2529 46.6733 94.5196 47.18C94.7996 47.6733 95.1596 48.0533 95.5996 48.32C96.0529 48.5867 96.5329 48.72 97.0396 48.72C97.5596 48.72 98.0463 48.5933 98.4996 48.34C98.9529 48.0733 99.3129 47.7 99.5796 47.22C99.8463 46.7267 99.9796 46.14 99.9796 45.46ZM111.674 39.76C112.994 39.76 114.061 40.18 114.874 41.02C115.688 41.8467 116.094 43.0067 116.094 44.5V51H113.294V44.88C113.294 44 113.074 43.3267 112.634 42.86C112.194 42.38 111.594 42.14 110.834 42.14C110.061 42.14 109.448 42.38 108.994 42.86C108.554 43.3267 108.334 44 108.334 44.88V51H105.534V39.92H108.334V41.3C108.708 40.82 109.181 40.4467 109.754 40.18C110.341 39.9 110.981 39.76 111.674 39.76ZM118.037 45.42C118.037 44.3 118.257 43.3067 118.697 42.44C119.15 41.5733 119.757 40.9067 120.517 40.44C121.29 39.9733 122.15 39.74 123.097 39.74C123.924 39.74 124.644 39.9067 125.257 40.24C125.884 40.5733 126.384 40.9933 126.757 41.5V39.92H129.577V51H126.757V49.38C126.397 49.9 125.897 50.3333 125.257 50.68C124.63 51.0133 123.904 51.18 123.077 51.18C122.144 51.18 121.29 50.94 120.517 50.46C119.757 49.98 119.15 49.3067 118.697 48.44C118.257 47.56 118.037 46.5533 118.037 45.42ZM126.757 45.46C126.757 44.78 126.624 44.2 126.357 43.72C126.09 43.2267 125.73 42.8533 125.277 42.6C124.824 42.3333 124.337 42.2 123.817 42.2C123.297 42.2 122.817 42.3267 122.377 42.58C121.937 42.8333 121.577 43.2067 121.297 43.7C121.03 44.18 120.897 44.7533 120.897 45.42C120.897 46.0867 121.03 46.6733 121.297 47.18C121.577 47.6733 121.937 48.0533 122.377 48.32C122.83 48.5867 123.31 48.72 123.817 48.72C124.337 48.72 124.824 48.5933 125.277 48.34C125.73 48.0733 126.09 47.7 126.357 47.22C126.624 46.7267 126.757 46.14 126.757 45.46ZM135.112 36.2V51H132.312V36.2H135.112ZM148.178 45.22C148.178 45.62 148.151 45.98 148.098 46.3H139.998C140.065 47.1 140.345 47.7267 140.838 48.18C141.331 48.6333 141.938 48.86 142.658 48.86C143.698 48.86 144.438 48.4133 144.878 47.52H147.898C147.578 48.5867 146.965 49.4667 146.058 50.16C145.151 50.84 144.038 51.18 142.718 51.18C141.651 51.18 140.691 50.9467 139.838 50.48C138.998 50 138.338 49.3267 137.858 48.46C137.391 47.5933 137.158 46.5933 137.158 45.46C137.158 44.3133 137.391 43.3067 137.858 42.44C138.325 41.5733 138.978 40.9067 139.818 40.44C140.658 39.9733 141.625 39.74 142.718 39.74C143.771 39.74 144.711 39.9667 145.538 40.42C146.378 40.8733 147.025 41.52 147.478 42.36C147.945 43.1867 148.178 44.14 148.178 45.22ZM145.278 44.42C145.265 43.7 145.005 43.1267 144.498 42.7C143.991 42.26 143.371 42.04 142.638 42.04C141.945 42.04 141.358 42.2533 140.878 42.68C140.411 43.0933 140.125 43.6733 140.018 44.42H145.278ZM153.022 41.64C153.382 41.0533 153.848 40.5933 154.422 40.26C155.008 39.9267 155.675 39.76 156.422 39.76V42.7H155.682C154.802 42.7 154.135 42.9067 153.682 43.32C153.242 43.7333 153.022 44.4533 153.022 45.48V51H150.222V39.92H153.022V41.64ZM173.533 39.92V51H170.713V49.6C170.353 50.08 169.88 50.46 169.293 50.74C168.72 51.0067 168.093 51.14 167.413 51.14C166.547 51.14 165.78 50.96 165.113 50.6C164.447 50.2267 163.92 49.6867 163.533 48.98C163.16 48.26 162.973 47.4067 162.973 46.42V39.92H165.773V46.02C165.773 46.9 165.993 47.58 166.433 48.06C166.873 48.5267 167.473 48.76 168.233 48.76C169.007 48.76 169.613 48.5267 170.053 48.06C170.493 47.58 170.713 46.9 170.713 46.02V39.92H173.533ZM182.436 39.76C183.756 39.76 184.823 40.18 185.636 41.02C186.449 41.8467 186.856 43.0067 186.856 44.5V51H184.056V44.88C184.056 44 183.836 43.3267 183.396 42.86C182.956 42.38 182.356 42.14 181.596 42.14C180.823 42.14 180.209 42.38 179.756 42.86C179.316 43.3267 179.096 44 179.096 44.88V51H176.296V39.92H179.096V41.3C179.469 40.82 179.943 40.4467 180.516 40.18C181.103 39.9 181.743 39.76 182.436 39.76ZM193.564 45.46C193.564 44.3133 193.798 43.3133 194.264 42.46C194.731 41.5933 195.378 40.9267 196.204 40.46C197.031 39.98 197.978 39.74 199.044 39.74C200.418 39.74 201.551 40.0867 202.444 40.78C203.351 41.46 203.958 42.42 204.264 43.66H201.244C201.084 43.18 200.811 42.8067 200.424 42.54C200.051 42.26 199.584 42.12 199.024 42.12C198.224 42.12 197.591 42.4133 197.124 43C196.658 43.5733 196.424 44.3933 196.424 45.46C196.424 46.5133 196.658 47.3333 197.124 47.92C197.591 48.4933 198.224 48.78 199.024 48.78C200.158 48.78 200.898 48.2733 201.244 47.26H204.264C203.958 48.46 203.351 49.4133 202.444 50.12C201.538 50.8267 200.404 51.18 199.044 51.18C197.978 51.18 197.031 50.9467 196.204 50.48C195.378 50 194.731 49.3333 194.264 48.48C193.798 47.6133 193.564 46.6067 193.564 45.46ZM205.596 45.42C205.596 44.3 205.816 43.3067 206.256 42.44C206.709 41.5733 207.316 40.9067 208.076 40.44C208.849 39.9733 209.709 39.74 210.656 39.74C211.482 39.74 212.202 39.9067 212.816 40.24C213.442 40.5733 213.942 40.9933 214.316 41.5V39.92H217.136V51H214.316V49.38C213.956 49.9 213.456 50.3333 212.816 50.68C212.189 51.0133 211.462 51.18 210.636 51.18C209.702 51.18 208.849 50.94 208.076 50.46C207.316 49.98 206.709 49.3067 206.256 48.44C205.816 47.56 205.596 46.5533 205.596 45.42ZM214.316 45.46C214.316 44.78 214.182 44.2 213.916 43.72C213.649 43.2267 213.289 42.8533 212.836 42.6C212.382 42.3333 211.896 42.2 211.376 42.2C210.856 42.2 210.376 42.3267 209.936 42.58C209.496 42.8333 209.136 43.2067 208.856 43.7C208.589 44.18 208.456 44.7533 208.456 45.42C208.456 46.0867 208.589 46.6733 208.856 47.18C209.136 47.6733 209.496 48.0533 209.936 48.32C210.389 48.5867 210.869 48.72 211.376 48.72C211.896 48.72 212.382 48.5933 212.836 48.34C213.289 48.0733 213.649 47.7 213.916 47.22C214.182 46.7267 214.316 46.14 214.316 45.46ZM224.11 51.18C223.204 51.18 222.39 51.02 221.67 50.7C220.95 50.3667 220.377 49.92 219.95 49.36C219.537 48.8 219.31 48.18 219.27 47.5H222.09C222.144 47.9267 222.35 48.28 222.71 48.56C223.084 48.84 223.544 48.98 224.09 48.98C224.624 48.98 225.037 48.8733 225.33 48.66C225.637 48.4467 225.79 48.1733 225.79 47.84C225.79 47.48 225.604 47.2133 225.23 47.04C224.87 46.8533 224.29 46.6533 223.49 46.44C222.664 46.24 221.984 46.0333 221.45 45.82C220.93 45.6067 220.477 45.28 220.09 44.84C219.717 44.4 219.53 43.8067 219.53 43.06C219.53 42.4467 219.704 41.8867 220.05 41.38C220.41 40.8733 220.917 40.4733 221.57 40.18C222.237 39.8867 223.017 39.74 223.91 39.74C225.23 39.74 226.284 40.0733 227.07 40.74C227.857 41.3933 228.29 42.28 228.37 43.4H225.69C225.65 42.96 225.464 42.6133 225.13 42.36C224.81 42.0933 224.377 41.96 223.83 41.96C223.324 41.96 222.93 42.0533 222.65 42.24C222.384 42.4267 222.25 42.6867 222.25 43.02C222.25 43.3933 222.437 43.68 222.81 43.88C223.184 44.0667 223.764 44.26 224.55 44.46C225.35 44.66 226.01 44.8667 226.53 45.08C227.05 45.2933 227.497 45.6267 227.87 46.08C228.257 46.52 228.457 47.1067 228.47 47.84C228.47 48.48 228.29 49.0533 227.93 49.56C227.584 50.0667 227.077 50.4667 226.41 50.76C225.757 51.04 224.99 51.18 224.11 51.18ZM70.7323 75.42C70.7323 74.3 70.9523 73.3067 71.3923 72.44C71.8456 71.5733 72.4589 70.9067 73.2323 70.44C74.0056 69.9733 74.8656 69.74 75.8123 69.74C76.5323 69.74 77.2189 69.9 77.8723 70.22C78.5256 70.5267 79.0456 70.94 79.4323 71.46V66.2H82.2723V81H79.4323V79.36C79.0856 79.9067 78.5989 80.3467 77.9723 80.68C77.3456 81.0133 76.6189 81.18 75.7923 81.18C74.8589 81.18 74.0056 80.94 73.2323 80.46C72.4589 79.98 71.8456 79.3067 71.3923 78.44C70.9523 77.56 70.7323 76.5533 70.7323 75.42ZM79.4523 75.46C79.4523 74.78 79.3189 74.2 79.0523 73.72C78.7856 73.2267 78.4256 72.8533 77.9723 72.6C77.5189 72.3333 77.0323 72.2 76.5123 72.2C75.9923 72.2 75.5123 72.3267 75.0723 72.58C74.6323 72.8333 74.2723 73.2067 73.9923 73.7C73.7256 74.18 73.5923 74.7533 73.5923 75.42C73.5923 76.0867 73.7256 76.6733 73.9923 77.18C74.2723 77.6733 74.6323 78.0533 75.0723 78.32C75.5256 78.5867 76.0056 78.72 76.5123 78.72C77.0323 78.72 77.5189 78.5933 77.9723 78.34C78.4256 78.0733 78.7856 77.7 79.0523 77.22C79.3189 76.7267 79.4523 76.14 79.4523 75.46ZM95.307 75.22C95.307 75.62 95.2803 75.98 95.227 76.3H87.127C87.1936 77.1 87.4736 77.7267 87.967 78.18C88.4603 78.6333 89.067 78.86 89.787 78.86C90.827 78.86 91.567 78.4133 92.007 77.52H95.027C94.707 78.5867 94.0936 79.4667 93.187 80.16C92.2803 80.84 91.167 81.18 89.847 81.18C88.7803 81.18 87.8203 80.9467 86.967 80.48C86.127 80 85.467 79.3267 84.987 78.46C84.5203 77.5933 84.287 76.5933 84.287 75.46C84.287 74.3133 84.5203 73.3067 84.987 72.44C85.4536 71.5733 86.107 70.9067 86.947 70.44C87.787 69.9733 88.7536 69.74 89.847 69.74C90.9003 69.74 91.8403 69.9667 92.667 70.42C93.507 70.8733 94.1536 71.52 94.607 72.36C95.0736 73.1867 95.307 74.14 95.307 75.22ZM92.407 74.42C92.3936 73.7 92.1336 73.1267 91.627 72.7C91.1203 72.26 90.5003 72.04 89.767 72.04C89.0736 72.04 88.487 72.2533 88.007 72.68C87.5403 73.0933 87.2536 73.6733 87.147 74.42H92.407ZM108.356 69.76C109.196 69.76 109.943 69.9467 110.596 70.32C111.25 70.68 111.756 71.22 112.116 71.94C112.49 72.6467 112.676 73.5 112.676 74.5V81H109.876V74.88C109.876 74 109.656 73.3267 109.216 72.86C108.776 72.38 108.176 72.14 107.416 72.14C106.643 72.14 106.03 72.38 105.576 72.86C105.136 73.3267 104.916 74 104.916 74.88V81H102.116V66.2H104.916V71.3C105.276 70.82 105.756 70.4467 106.356 70.18C106.956 69.9 107.623 69.76 108.356 69.76ZM114.619 75.42C114.619 74.3 114.839 73.3067 115.279 72.44C115.732 71.5733 116.339 70.9067 117.099 70.44C117.872 69.9733 118.732 69.74 119.679 69.74C120.506 69.74 121.226 69.9067 121.839 70.24C122.466 70.5733 122.966 70.9933 123.339 71.5V69.92H126.159V81H123.339V79.38C122.979 79.9 122.479 80.3333 121.839 80.68C121.212 81.0133 120.486 81.18 119.659 81.18C118.726 81.18 117.872 80.94 117.099 80.46C116.339 79.98 115.732 79.3067 115.279 78.44C114.839 77.56 114.619 76.5533 114.619 75.42ZM123.339 75.46C123.339 74.78 123.206 74.2 122.939 73.72C122.672 73.2267 122.312 72.8533 121.859 72.6C121.406 72.3333 120.919 72.2 120.399 72.2C119.879 72.2 119.399 72.3267 118.959 72.58C118.519 72.8333 118.159 73.2067 117.879 73.7C117.612 74.18 117.479 74.7533 117.479 75.42C117.479 76.0867 117.612 76.6733 117.879 77.18C118.159 77.6733 118.519 78.0533 118.959 78.32C119.412 78.5867 119.892 78.72 120.399 78.72C120.919 78.72 121.406 78.5933 121.859 78.34C122.312 78.0733 122.672 77.7 122.939 77.22C123.206 76.7267 123.339 76.14 123.339 75.46ZM131.694 71.64C132.054 71.0533 132.52 70.5933 133.094 70.26C133.68 69.9267 134.347 69.76 135.094 69.76V72.7H134.354C133.474 72.7 132.807 72.9067 132.354 73.32C131.914 73.7333 131.694 74.4533 131.694 75.48V81H128.894V69.92H131.694V71.64ZM136.26 75.46C136.26 74.3133 136.493 73.3133 136.96 72.46C137.426 71.5933 138.073 70.9267 138.9 70.46C139.726 69.98 140.673 69.74 141.74 69.74C143.113 69.74 144.246 70.0867 145.14 70.78C146.046 71.46 146.653 72.42 146.96 73.66H143.94C143.78 73.18 143.506 72.8067 143.12 72.54C142.746 72.26 142.28 72.12 141.72 72.12C140.92 72.12 140.286 72.4133 139.82 73C139.353 73.5733 139.12 74.3933 139.12 75.46C139.12 76.5133 139.353 77.3333 139.82 77.92C140.286 78.4933 140.92 78.78 141.72 78.78C142.853 78.78 143.593 78.2733 143.94 77.26H146.96C146.653 78.46 146.046 79.4133 145.14 80.12C144.233 80.8267 143.1 81.18 141.74 81.18C140.673 81.18 139.726 80.9467 138.9 80.48C138.073 80 137.426 79.3333 136.96 78.48C136.493 77.6133 136.26 76.6067 136.26 75.46ZM159.311 75.22C159.311 75.62 159.284 75.98 159.231 76.3H151.131C151.198 77.1 151.478 77.7267 151.971 78.18C152.464 78.6333 153.071 78.86 153.791 78.86C154.831 78.86 155.571 78.4133 156.011 77.52H159.031C158.711 78.5867 158.098 79.4667 157.191 80.16C156.284 80.84 155.171 81.18 153.851 81.18C152.784 81.18 151.824 80.9467 150.971 80.48C150.131 80 149.471 79.3267 148.991 78.46C148.524 77.5933 148.291 76.5933 148.291 75.46C148.291 74.3133 148.524 73.3067 148.991 72.44C149.458 71.5733 150.111 70.9067 150.951 70.44C151.791 69.9733 152.758 69.74 153.851 69.74C154.904 69.74 155.844 69.9667 156.671 70.42C157.511 70.8733 158.158 71.52 158.611 72.36C159.078 73.1867 159.311 74.14 159.311 75.22ZM156.411 74.42C156.398 73.7 156.138 73.1267 155.631 72.7C155.124 72.26 154.504 72.04 153.771 72.04C153.078 72.04 152.491 72.2533 152.011 72.68C151.544 73.0933 151.258 73.6733 151.151 74.42H156.411ZM155.991 67.1V69.1L151.391 67V64.72L155.991 67.1ZM164.155 66.2V81H161.355V66.2H164.155ZM177.221 75.22C177.221 75.62 177.194 75.98 177.141 76.3H169.041C169.108 77.1 169.388 77.7267 169.881 78.18C170.374 78.6333 170.981 78.86 171.701 78.86C172.741 78.86 173.481 78.4133 173.921 77.52H176.941C176.621 78.5867 176.008 79.4667 175.101 80.16C174.194 80.84 173.081 81.18 171.761 81.18C170.694 81.18 169.734 80.9467 168.881 80.48C168.041 80 167.381 79.3267 166.901 78.46C166.434 77.5933 166.201 76.5933 166.201 75.46C166.201 74.3133 166.434 73.3067 166.901 72.44C167.368 71.5733 168.021 70.9067 168.861 70.44C169.701 69.9733 170.668 69.74 171.761 69.74C172.814 69.74 173.754 69.9667 174.581 70.42C175.421 70.8733 176.068 71.52 176.521 72.36C176.988 73.1867 177.221 74.14 177.221 75.22ZM174.321 74.42C174.308 73.7 174.048 73.1267 173.541 72.7C173.034 72.26 172.414 72.04 171.681 72.04C170.988 72.04 170.401 72.2533 169.921 72.68C169.454 73.0933 169.168 73.6733 169.061 74.42H174.321ZM193.025 69.76C194.385 69.76 195.478 70.18 196.305 71.02C197.145 71.8467 197.565 73.0067 197.565 74.5V81H194.765V74.88C194.765 74.0133 194.545 73.3533 194.105 72.9C193.665 72.4333 193.065 72.2 192.305 72.2C191.545 72.2 190.938 72.4333 190.485 72.9C190.045 73.3533 189.825 74.0133 189.825 74.88V81H187.025V74.88C187.025 74.0133 186.805 73.3533 186.365 72.9C185.925 72.4333 185.325 72.2 184.565 72.2C183.791 72.2 183.178 72.4333 182.725 72.9C182.285 73.3533 182.065 74.0133 182.065 74.88V81H179.265V69.92H182.065V71.26C182.425 70.7933 182.885 70.4267 183.445 70.16C184.018 69.8933 184.645 69.76 185.325 69.76C186.191 69.76 186.965 69.9467 187.645 70.32C188.325 70.68 188.851 71.2 189.225 71.88C189.585 71.24 190.105 70.7267 190.785 70.34C191.478 69.9533 192.225 69.76 193.025 69.76ZM210.522 75.22C210.522 75.62 210.495 75.98 210.442 76.3H202.342C202.408 77.1 202.688 77.7267 203.182 78.18C203.675 78.6333 204.282 78.86 205.002 78.86C206.042 78.86 206.782 78.4133 207.222 77.52H210.242C209.922 78.5867 209.308 79.4667 208.402 80.16C207.495 80.84 206.382 81.18 205.062 81.18C203.995 81.18 203.035 80.9467 202.182 80.48C201.342 80 200.682 79.3267 200.202 78.46C199.735 77.5933 199.502 76.5933 199.502 75.46C199.502 74.3133 199.735 73.3067 200.202 72.44C200.668 71.5733 201.322 70.9067 202.162 70.44C203.002 69.9733 203.968 69.74 205.062 69.74C206.115 69.74 207.055 69.9667 207.882 70.42C208.722 70.8733 209.368 71.52 209.822 72.36C210.288 73.1867 210.522 74.14 210.522 75.22ZM207.622 74.42C207.608 73.7 207.348 73.1267 206.842 72.7C206.335 72.26 205.715 72.04 204.982 72.04C204.288 72.04 203.702 72.2533 203.222 72.68C202.755 73.0933 202.468 73.6733 202.362 74.42H207.622ZM218.706 69.76C220.026 69.76 221.092 70.18 221.906 71.02C222.719 71.8467 223.126 73.0067 223.126 74.5V81H220.326V74.88C220.326 74 220.106 73.3267 219.666 72.86C219.226 72.38 218.626 72.14 217.866 72.14C217.092 72.14 216.479 72.38 216.026 72.86C215.586 73.3267 215.366 74 215.366 74.88V81H212.566V69.92H215.366V71.3C215.739 70.82 216.212 70.4467 216.786 70.18C217.372 69.9 218.012 69.76 218.706 69.76ZM229.048 72.22V77.58C229.048 77.9533 229.135 78.2267 229.308 78.4C229.495 78.56 229.802 78.64 230.228 78.64H231.528V81H229.768C227.408 81 226.228 79.8533 226.228 77.56V72.22H224.908V69.92H226.228V67.18H229.048V69.92H231.528V72.22H229.048Z" fill="white"/>
<path d="M54.5868 110.848C55.8028 110.848 56.8535 111.077 57.7388 111.536C58.6348 111.984 59.3175 112.629 59.7868 113.472C60.2668 114.315 60.5068 115.307 60.5068 116.448C60.5068 117.589 60.2668 118.581 59.7868 119.424C59.3175 120.256 58.6348 120.896 57.7388 121.344C56.8535 121.781 55.8028 122 54.5868 122H51.1148V110.848H54.5868ZM54.5868 120.8C56.0268 120.8 57.1255 120.421 57.8828 119.664C58.6401 118.896 59.0188 117.824 59.0188 116.448C59.0188 115.061 58.6348 113.979 57.8668 113.2C57.1095 112.421 56.0161 112.032 54.5868 112.032H52.5708V120.8H54.5868ZM70.2033 113.232V122H68.7473V120.704C68.47 121.152 68.0806 121.504 67.5793 121.76C67.0886 122.005 66.5446 122.128 65.9473 122.128C65.2646 122.128 64.6513 121.989 64.1073 121.712C63.5633 121.424 63.1313 120.997 62.8113 120.432C62.502 119.867 62.3473 119.179 62.3473 118.368V113.232H63.7873V118.176C63.7873 119.04 64.006 119.707 64.4433 120.176C64.8806 120.635 65.478 120.864 66.2353 120.864C67.014 120.864 67.6273 120.624 68.0753 120.144C68.5233 119.664 68.7473 118.965 68.7473 118.048V113.232H70.2033ZM78.3833 110.16V122H76.9273V110.16H78.3833ZM88.6408 113.232V122H87.1848V120.704C86.9075 121.152 86.5181 121.504 86.0168 121.76C85.5261 122.005 84.9821 122.128 84.3848 122.128C83.7021 122.128 83.0888 121.989 82.5448 121.712C82.0008 121.424 81.5688 120.997 81.2488 120.432C80.9395 119.867 80.7848 119.179 80.7848 118.368V113.232H82.2248V118.176C82.2248 119.04 82.4435 119.707 82.8808 120.176C83.3181 120.635 83.9155 120.864 84.6728 120.864C85.4515 120.864 86.0648 120.624 86.5128 120.144C86.9608 119.664 87.1848 118.965 87.1848 118.048V113.232H88.6408ZM95.3712 113.072C96.4379 113.072 97.3019 113.397 97.9632 114.048C98.6245 114.688 98.9552 115.616 98.9552 116.832V122H97.5152V117.04C97.5152 116.165 97.2965 115.499 96.8592 115.04C96.4219 114.571 95.8245 114.336 95.0672 114.336C94.2992 114.336 93.6859 114.576 93.2272 115.056C92.7792 115.536 92.5552 116.235 92.5552 117.152V122H91.0992V113.232H92.5552V114.48C92.8432 114.032 93.2325 113.685 93.7232 113.44C94.2245 113.195 94.7739 113.072 95.3712 113.072ZM100.79 117.584C100.79 116.688 100.971 115.904 101.334 115.232C101.696 114.549 102.192 114.021 102.822 113.648C103.462 113.275 104.176 113.088 104.966 113.088C105.648 113.088 106.283 113.248 106.87 113.568C107.456 113.877 107.904 114.288 108.214 114.8V110.16H109.686V122H108.214V120.352C107.926 120.875 107.499 121.307 106.934 121.648C106.368 121.979 105.707 122.144 104.95 122.144C104.171 122.144 103.462 121.952 102.822 121.568C102.192 121.184 101.696 120.645 101.334 119.952C100.971 119.259 100.79 118.469 100.79 117.584ZM108.214 117.6C108.214 116.939 108.08 116.363 107.814 115.872C107.547 115.381 107.184 115.008 106.726 114.752C106.278 114.485 105.782 114.352 105.238 114.352C104.694 114.352 104.198 114.48 103.75 114.736C103.302 114.992 102.944 115.365 102.678 115.856C102.411 116.347 102.278 116.923 102.278 117.584C102.278 118.256 102.411 118.843 102.678 119.344C102.944 119.835 103.302 120.213 103.75 120.48C104.198 120.736 104.694 120.864 105.238 120.864C105.782 120.864 106.278 120.736 106.726 120.48C107.184 120.213 107.547 119.835 107.814 119.344C108.08 118.843 108.214 118.261 108.214 117.6ZM112.898 111.808C112.621 111.808 112.386 111.712 112.194 111.52C112.002 111.328 111.906 111.093 111.906 110.816C111.906 110.539 112.002 110.304 112.194 110.112C112.386 109.92 112.621 109.824 112.898 109.824C113.165 109.824 113.389 109.92 113.57 110.112C113.762 110.304 113.858 110.539 113.858 110.816C113.858 111.093 113.762 111.328 113.57 111.52C113.389 111.712 113.165 111.808 112.898 111.808ZM113.602 113.232V122H112.146V113.232H113.602ZM119.805 117.584C119.805 116.688 119.987 115.904 120.349 115.232C120.712 114.549 121.208 114.021 121.837 113.648C122.477 113.275 123.187 113.088 123.965 113.088C124.733 113.088 125.4 113.253 125.965 113.584C126.531 113.915 126.952 114.331 127.229 114.832V113.232H128.701V122H127.229V120.368C126.941 120.88 126.509 121.307 125.933 121.648C125.368 121.979 124.707 122.144 123.949 122.144C123.171 122.144 122.467 121.952 121.837 121.568C121.208 121.184 120.712 120.645 120.349 119.952C119.987 119.259 119.805 118.469 119.805 117.584ZM127.229 117.6C127.229 116.939 127.096 116.363 126.829 115.872C126.563 115.381 126.2 115.008 125.741 114.752C125.293 114.485 124.797 114.352 124.253 114.352C123.709 114.352 123.213 114.48 122.765 114.736C122.317 114.992 121.96 115.365 121.693 115.856C121.427 116.347 121.293 116.923 121.293 117.584C121.293 118.256 121.427 118.843 121.693 119.344C121.96 119.835 122.317 120.213 122.765 120.48C123.213 120.736 123.709 120.864 124.253 120.864C124.797 120.864 125.293 120.736 125.741 120.48C126.2 120.213 126.563 119.835 126.829 119.344C127.096 118.843 127.229 118.261 127.229 117.6ZM138.938 113.232V122H137.482V120.704C137.204 121.152 136.815 121.504 136.314 121.76C135.823 122.005 135.279 122.128 134.682 122.128C133.999 122.128 133.386 121.989 132.842 121.712C132.298 121.424 131.866 120.997 131.546 120.432C131.236 119.867 131.082 119.179 131.082 118.368V113.232H132.522V118.176C132.522 119.04 132.74 119.707 133.178 120.176C133.615 120.635 134.212 120.864 134.97 120.864C135.748 120.864 136.362 120.624 136.81 120.144C137.258 119.664 137.482 118.965 137.482 118.048V113.232H138.938ZM148.926 120.656L151.646 113.232H153.198L149.758 122H148.062L144.622 113.232H146.19L148.926 120.656ZM162.63 117.28C162.63 117.557 162.614 117.851 162.582 118.16H155.574C155.628 119.024 155.921 119.701 156.454 120.192C156.998 120.672 157.654 120.912 158.422 120.912C159.052 120.912 159.574 120.768 159.99 120.48C160.417 120.181 160.716 119.787 160.886 119.296H162.454C162.22 120.139 161.75 120.827 161.046 121.36C160.342 121.883 159.468 122.144 158.422 122.144C157.59 122.144 156.844 121.957 156.182 121.584C155.532 121.211 155.02 120.683 154.646 120C154.273 119.307 154.086 118.507 154.086 117.6C154.086 116.693 154.268 115.899 154.63 115.216C154.993 114.533 155.5 114.011 156.15 113.648C156.812 113.275 157.569 113.088 158.422 113.088C159.254 113.088 159.99 113.269 160.63 113.632C161.27 113.995 161.761 114.496 162.102 115.136C162.454 115.765 162.63 116.48 162.63 117.28ZM161.126 116.976C161.126 116.421 161.004 115.947 160.758 115.552C160.513 115.147 160.177 114.843 159.75 114.64C159.334 114.427 158.87 114.32 158.358 114.32C157.622 114.32 156.993 114.555 156.47 115.024C155.958 115.493 155.665 116.144 155.59 116.976H161.126ZM168.824 113.072C169.891 113.072 170.755 113.397 171.416 114.048C172.078 114.688 172.408 115.616 172.408 116.832V122H170.968V117.04C170.968 116.165 170.75 115.499 170.312 115.04C169.875 114.571 169.278 114.336 168.52 114.336C167.752 114.336 167.139 114.576 166.68 115.056C166.232 115.536 166.008 116.235 166.008 117.152V122H164.552V113.232H166.008V114.48C166.296 114.032 166.686 113.685 167.176 113.44C167.678 113.195 168.227 113.072 168.824 113.072ZM174.243 117.584C174.243 116.688 174.424 115.904 174.787 115.232C175.149 114.549 175.645 114.021 176.275 113.648C176.915 113.275 177.629 113.088 178.419 113.088C179.101 113.088 179.736 113.248 180.323 113.568C180.909 113.877 181.357 114.288 181.667 114.8V110.16H183.139V122H181.667V120.352C181.379 120.875 180.952 121.307 180.387 121.648C179.821 121.979 179.16 122.144 178.403 122.144C177.624 122.144 176.915 121.952 176.275 121.568C175.645 121.184 175.149 120.645 174.787 119.952C174.424 119.259 174.243 118.469 174.243 117.584ZM181.667 117.6C181.667 116.939 181.533 116.363 181.267 115.872C181 115.381 180.637 115.008 180.179 114.752C179.731 114.485 179.235 114.352 178.691 114.352C178.147 114.352 177.651 114.48 177.203 114.736C176.755 114.992 176.397 115.365 176.131 115.856C175.864 116.347 175.731 116.923 175.731 117.584C175.731 118.256 175.864 118.843 176.131 119.344C176.397 119.835 176.755 120.213 177.203 120.48C177.651 120.736 178.147 120.864 178.691 120.864C179.235 120.864 179.731 120.736 180.179 120.48C180.637 120.213 181 119.835 181.267 119.344C181.533 118.843 181.667 118.261 181.667 117.6ZM187.055 114.656C187.311 114.155 187.674 113.765 188.143 113.488C188.623 113.211 189.205 113.072 189.887 113.072V114.576H189.503C187.871 114.576 187.055 115.461 187.055 117.232V122H185.599V113.232H187.055V114.656ZM199.568 117.28C199.568 117.557 199.552 117.851 199.52 118.16H192.512C192.565 119.024 192.859 119.701 193.392 120.192C193.936 120.672 194.592 120.912 195.36 120.912C195.989 120.912 196.512 120.768 196.928 120.48C197.355 120.181 197.653 119.787 197.824 119.296H199.392C199.157 120.139 198.688 120.827 197.984 121.36C197.28 121.883 196.405 122.144 195.36 122.144C194.528 122.144 193.781 121.957 193.12 121.584C192.469 121.211 191.957 120.683 191.584 120C191.211 119.307 191.024 118.507 191.024 117.6C191.024 116.693 191.205 115.899 191.568 115.216C191.931 114.533 192.437 114.011 193.088 113.648C193.749 113.275 194.507 113.088 195.36 113.088C196.192 113.088 196.928 113.269 197.568 113.632C198.208 113.995 198.699 114.496 199.04 115.136C199.392 115.765 199.568 116.48 199.568 117.28ZM198.064 116.976C198.064 116.421 197.941 115.947 197.696 115.552C197.451 115.147 197.115 114.843 196.688 114.64C196.272 114.427 195.808 114.32 195.296 114.32C194.56 114.32 193.931 114.555 193.408 115.024C192.896 115.493 192.603 116.144 192.528 116.976H198.064ZM200.946 117.584C200.946 116.688 201.127 115.904 201.49 115.232C201.852 114.549 202.348 114.021 202.978 113.648C203.618 113.275 204.332 113.088 205.122 113.088C205.804 113.088 206.439 113.248 207.026 113.568C207.612 113.877 208.06 114.288 208.37 114.8V110.16H209.842V122H208.37V120.352C208.082 120.875 207.655 121.307 207.09 121.648C206.524 121.979 205.863 122.144 205.106 122.144C204.327 122.144 203.618 121.952 202.978 121.568C202.348 121.184 201.852 120.645 201.49 119.952C201.127 119.259 200.946 118.469 200.946 117.584ZM208.37 117.6C208.37 116.939 208.236 116.363 207.97 115.872C207.703 115.381 207.34 115.008 206.882 114.752C206.434 114.485 205.938 114.352 205.394 114.352C204.85 114.352 204.354 114.48 203.906 114.736C203.458 114.992 203.1 115.365 202.834 115.856C202.567 116.347 202.434 116.923 202.434 117.584C202.434 118.256 202.567 118.843 202.834 119.344C203.1 119.835 203.458 120.213 203.906 120.48C204.354 120.736 204.85 120.864 205.394 120.864C205.938 120.864 206.434 120.736 206.882 120.48C207.34 120.213 207.703 119.835 207.97 119.344C208.236 118.843 208.37 118.261 208.37 117.6ZM213.054 111.808C212.777 111.808 212.542 111.712 212.35 111.52C212.158 111.328 212.062 111.093 212.062 110.816C212.062 110.539 212.158 110.304 212.35 110.112C212.542 109.92 212.777 109.824 213.054 109.824C213.321 109.824 213.545 109.92 213.726 110.112C213.918 110.304 214.014 110.539 214.014 110.816C214.014 111.093 213.918 111.328 213.726 111.52C213.545 111.712 213.321 111.808 213.054 111.808ZM213.758 113.232V122H212.302V113.232H213.758ZM217.744 119.984L215.952 124.288H214.976L216.144 119.984H217.744ZM226.781 122.144C226.109 122.144 225.507 122.032 224.973 121.808C224.44 121.573 224.019 121.253 223.709 120.848C223.4 120.432 223.229 119.957 223.197 119.424H224.701C224.744 119.861 224.947 120.219 225.309 120.496C225.683 120.773 226.168 120.912 226.765 120.912C227.32 120.912 227.757 120.789 228.077 120.544C228.397 120.299 228.557 119.989 228.557 119.616C228.557 119.232 228.387 118.949 228.045 118.768C227.704 118.576 227.176 118.389 226.461 118.208C225.811 118.037 225.277 117.867 224.861 117.696C224.456 117.515 224.104 117.253 223.805 116.912C223.517 116.56 223.373 116.101 223.373 115.536C223.373 115.088 223.507 114.677 223.773 114.304C224.04 113.931 224.419 113.637 224.909 113.424C225.4 113.2 225.96 113.088 226.589 113.088C227.56 113.088 228.344 113.333 228.941 113.824C229.539 114.315 229.859 114.987 229.901 115.84H228.445C228.413 115.381 228.227 115.013 227.885 114.736C227.555 114.459 227.107 114.32 226.541 114.32C226.019 114.32 225.603 114.432 225.293 114.656C224.984 114.88 224.829 115.173 224.829 115.536C224.829 115.824 224.92 116.064 225.101 116.256C225.293 116.437 225.528 116.587 225.805 116.704C226.093 116.811 226.488 116.933 226.989 117.072C227.619 117.243 228.131 117.413 228.525 117.584C228.92 117.744 229.256 117.989 229.533 118.32C229.821 118.651 229.971 119.083 229.981 119.616C229.981 120.096 229.848 120.528 229.581 120.912C229.315 121.296 228.936 121.6 228.445 121.824C227.965 122.037 227.411 122.144 226.781 122.144ZM231.493 117.584C231.493 116.688 231.674 115.904 232.037 115.232C232.399 114.549 232.895 114.021 233.525 113.648C234.165 113.275 234.874 113.088 235.653 113.088C236.421 113.088 237.087 113.253 237.653 113.584C238.218 113.915 238.639 114.331 238.917 114.832V113.232H240.389V122H238.917V120.368C238.629 120.88 238.197 121.307 237.621 121.648C237.055 121.979 236.394 122.144 235.637 122.144C234.858 122.144 234.154 121.952 233.525 121.568C232.895 121.184 232.399 120.645 232.037 119.952C231.674 119.259 231.493 118.469 231.493 117.584ZM238.917 117.6C238.917 116.939 238.783 116.363 238.517 115.872C238.25 115.381 237.887 115.008 237.429 114.752C236.981 114.485 236.485 114.352 235.941 114.352C235.397 114.352 234.901 114.48 234.453 114.736C234.005 114.992 233.647 115.365 233.381 115.856C233.114 116.347 232.981 116.923 232.981 117.584C232.981 118.256 233.114 118.843 233.381 119.344C233.647 119.835 234.005 120.213 234.453 120.48C234.901 120.736 235.397 120.864 235.941 120.864C236.485 120.864 236.981 120.736 237.429 120.48C237.887 120.213 238.25 119.835 238.517 119.344C238.783 118.843 238.917 118.261 238.917 117.6ZM250.625 113.232V122H249.169V120.704C248.892 121.152 248.503 121.504 248.001 121.76C247.511 122.005 246.967 122.128 246.369 122.128C245.687 122.128 245.073 121.989 244.529 121.712C243.985 121.424 243.553 120.997 243.233 120.432C242.924 119.867 242.769 119.179 242.769 118.368V113.232H244.209V118.176C244.209 119.04 244.428 119.707 244.865 120.176C245.303 120.635 245.9 120.864 246.657 120.864C247.436 120.864 248.049 120.624 248.497 120.144C248.945 119.664 249.169 118.965 249.169 118.048V113.232H250.625ZM256.652 114.432H254.812V122H253.356V114.432H252.22V113.232H253.356V112.608C253.356 111.627 253.606 110.912 254.108 110.464C254.62 110.005 255.436 109.776 256.556 109.776V110.992C255.916 110.992 255.462 111.12 255.196 111.376C254.94 111.621 254.812 112.032 254.812 112.608V113.232H256.652V114.432ZM57.8051 135.808C57.5277 135.808 57.2931 135.712 57.1011 135.52C56.9197 135.328 56.8291 135.093 56.8291 134.816C56.8291 134.539 56.9197 134.304 57.1011 134.112C57.2931 133.92 57.5277 133.824 57.8051 133.824C58.0824 133.824 58.3117 133.92 58.4931 134.112C58.6851 134.304 58.7811 134.539 58.7811 134.816C58.7811 135.093 58.6851 135.328 58.4931 135.52C58.3117 135.712 58.0824 135.808 57.8051 135.808ZM58.5251 147.904C58.5251 148.683 58.3277 149.253 57.9331 149.616C57.5384 149.979 56.9624 150.16 56.2051 150.16H55.3571V148.928H55.9651C56.3704 148.928 56.6531 148.848 56.8131 148.688C56.9837 148.528 57.0691 148.256 57.0691 147.872V137.232H58.5251V147.904ZM64.8138 146.144C63.9925 146.144 63.2458 145.957 62.5738 145.584C61.9125 145.211 61.3898 144.683 61.0058 144C60.6325 143.307 60.4458 142.507 60.4458 141.6C60.4458 140.704 60.6378 139.915 61.0218 139.232C61.4165 138.539 61.9498 138.011 62.6218 137.648C63.2938 137.275 64.0458 137.088 64.8778 137.088C65.7098 137.088 66.4618 137.275 67.1338 137.648C67.8058 138.011 68.3338 138.533 68.7178 139.216C69.1125 139.899 69.3098 140.693 69.3098 141.6C69.3098 142.507 69.1071 143.307 68.7018 144C68.3071 144.683 67.7685 145.211 67.0858 145.584C66.4031 145.957 65.6458 146.144 64.8138 146.144ZM64.8138 144.864C65.3365 144.864 65.8271 144.741 66.2858 144.496C66.7445 144.251 67.1125 143.883 67.3898 143.392C67.6778 142.901 67.8218 142.304 67.8218 141.6C67.8218 140.896 67.6831 140.299 67.4058 139.808C67.1285 139.317 66.7658 138.955 66.3178 138.72C65.8698 138.475 65.3845 138.352 64.8618 138.352C64.3285 138.352 63.8378 138.475 63.3898 138.72C62.9525 138.955 62.6005 139.317 62.3338 139.808C62.0671 140.299 61.9338 140.896 61.9338 141.6C61.9338 142.315 62.0618 142.917 62.3178 143.408C62.5845 143.899 62.9365 144.267 63.3738 144.512C63.8111 144.747 64.2911 144.864 64.8138 144.864ZM79.0002 137.232V146H77.5442V144.704C77.2669 145.152 76.8775 145.504 76.3762 145.76C75.8855 146.005 75.3415 146.128 74.7442 146.128C74.0615 146.128 73.4482 145.989 72.9042 145.712C72.3602 145.424 71.9282 144.997 71.6082 144.432C71.2989 143.867 71.1442 143.179 71.1442 142.368V137.232H72.5842V142.176C72.5842 143.04 72.8029 143.707 73.2402 144.176C73.6775 144.635 74.2749 144.864 75.0322 144.864C75.8109 144.864 76.4242 144.624 76.8722 144.144C77.3202 143.664 77.5442 142.965 77.5442 142.048V137.232H79.0002ZM82.9146 138.656C83.1706 138.155 83.5332 137.765 84.0026 137.488C84.4826 137.211 85.0639 137.072 85.7466 137.072V138.576H85.3626C83.7306 138.576 82.9146 139.461 82.9146 141.232V146H81.4586V137.232H82.9146V138.656ZM90.5313 146.144C89.8593 146.144 89.2566 146.032 88.7233 145.808C88.19 145.573 87.7686 145.253 87.4593 144.848C87.15 144.432 86.9793 143.957 86.9473 143.424H88.4513C88.494 143.861 88.6966 144.219 89.0593 144.496C89.4326 144.773 89.918 144.912 90.5153 144.912C91.07 144.912 91.5073 144.789 91.8273 144.544C92.1473 144.299 92.3073 143.989 92.3073 143.616C92.3073 143.232 92.1366 142.949 91.7953 142.768C91.454 142.576 90.926 142.389 90.2113 142.208C89.5606 142.037 89.0273 141.867 88.6113 141.696C88.206 141.515 87.854 141.253 87.5553 140.912C87.2673 140.56 87.1233 140.101 87.1233 139.536C87.1233 139.088 87.2566 138.677 87.5233 138.304C87.79 137.931 88.1686 137.637 88.6593 137.424C89.15 137.2 89.71 137.088 90.3393 137.088C91.31 137.088 92.094 137.333 92.6913 137.824C93.2886 138.315 93.6086 138.987 93.6513 139.84H92.1953C92.1633 139.381 91.9766 139.013 91.6353 138.736C91.3046 138.459 90.8566 138.32 90.2913 138.32C89.7686 138.32 89.3526 138.432 89.0433 138.656C88.734 138.88 88.5793 139.173 88.5793 139.536C88.5793 139.824 88.67 140.064 88.8513 140.256C89.0433 140.437 89.278 140.587 89.5553 140.704C89.8433 140.811 90.238 140.933 90.7393 141.072C91.3686 141.243 91.8806 141.413 92.2753 141.584C92.67 141.744 93.006 141.989 93.2833 142.32C93.5713 142.651 93.7206 143.083 93.7313 143.616C93.7313 144.096 93.598 144.528 93.3313 144.912C93.0646 145.296 92.686 145.6 92.1953 145.824C91.7153 146.037 91.1606 146.144 90.5313 146.144ZM103.62 138.432H101.78V146H100.324V138.432H99.1883V137.232H100.324V136.608C100.324 135.627 100.575 134.912 101.076 134.464C101.588 134.005 102.404 133.776 103.524 133.776V134.992C102.884 134.992 102.431 135.12 102.164 135.376C101.908 135.621 101.78 136.032 101.78 136.608V137.232H103.62V138.432ZM113.318 141.28C113.318 141.557 113.302 141.851 113.27 142.16H106.262C106.315 143.024 106.609 143.701 107.142 144.192C107.686 144.672 108.342 144.912 109.11 144.912C109.739 144.912 110.262 144.768 110.678 144.48C111.105 144.181 111.403 143.787 111.574 143.296H113.142C112.907 144.139 112.438 144.827 111.734 145.36C111.03 145.883 110.155 146.144 109.11 146.144C108.278 146.144 107.531 145.957 106.87 145.584C106.219 145.211 105.707 144.683 105.334 144C104.961 143.307 104.774 142.507 104.774 141.6C104.774 140.693 104.955 139.899 105.318 139.216C105.681 138.533 106.187 138.011 106.838 137.648C107.499 137.275 108.257 137.088 109.11 137.088C109.942 137.088 110.678 137.269 111.318 137.632C111.958 137.995 112.449 138.496 112.79 139.136C113.142 139.765 113.318 140.48 113.318 141.28ZM111.814 140.976C111.814 140.421 111.691 139.947 111.446 139.552C111.201 139.147 110.865 138.843 110.438 138.64C110.022 138.427 109.558 138.32 109.046 138.32C108.31 138.32 107.681 138.555 107.158 139.024C106.646 139.493 106.353 140.144 106.278 140.976H111.814ZM110.614 134.752L107.206 136.576V135.488L110.614 133.488V134.752ZM116.696 138.656C116.952 138.155 117.314 137.765 117.784 137.488C118.264 137.211 118.845 137.072 119.528 137.072V138.576H119.144C117.512 138.576 116.696 139.461 116.696 141.232V146H115.24V137.232H116.696V138.656ZM121.961 135.808C121.683 135.808 121.449 135.712 121.257 135.52C121.065 135.328 120.969 135.093 120.969 134.816C120.969 134.539 121.065 134.304 121.257 134.112C121.449 133.92 121.683 133.824 121.961 133.824C122.227 133.824 122.451 133.92 122.633 134.112C122.825 134.304 122.921 134.539 122.921 134.816C122.921 135.093 122.825 135.328 122.633 135.52C122.451 135.712 122.227 135.808 121.961 135.808ZM122.665 137.232V146H121.209V137.232H122.665ZM133.146 141.28C133.146 141.557 133.13 141.851 133.098 142.16H126.09C126.143 143.024 126.437 143.701 126.97 144.192C127.514 144.672 128.17 144.912 128.938 144.912C129.567 144.912 130.09 144.768 130.506 144.48C130.933 144.181 131.231 143.787 131.402 143.296H132.97C132.735 144.139 132.266 144.827 131.562 145.36C130.858 145.883 129.983 146.144 128.938 146.144C128.106 146.144 127.359 145.957 126.698 145.584C126.047 145.211 125.535 144.683 125.162 144C124.789 143.307 124.602 142.507 124.602 141.6C124.602 140.693 124.783 139.899 125.146 139.216C125.509 138.533 126.015 138.011 126.666 137.648C127.327 137.275 128.085 137.088 128.938 137.088C129.77 137.088 130.506 137.269 131.146 137.632C131.786 137.995 132.277 138.496 132.618 139.136C132.97 139.765 133.146 140.48 133.146 141.28ZM131.642 140.976C131.642 140.421 131.519 139.947 131.274 139.552C131.029 139.147 130.693 138.843 130.266 138.64C129.85 138.427 129.386 138.32 128.874 138.32C128.138 138.32 127.509 138.555 126.986 139.024C126.474 139.493 126.181 140.144 126.106 140.976H131.642ZM130.442 134.752L127.034 136.576V135.488L130.442 133.488V134.752ZM138.172 146.144C137.5 146.144 136.897 146.032 136.364 145.808C135.831 145.573 135.409 145.253 135.1 144.848C134.791 144.432 134.62 143.957 134.588 143.424H136.092C136.135 143.861 136.337 144.219 136.7 144.496C137.073 144.773 137.559 144.912 138.156 144.912C138.711 144.912 139.148 144.789 139.468 144.544C139.788 144.299 139.948 143.989 139.948 143.616C139.948 143.232 139.777 142.949 139.436 142.768C139.095 142.576 138.567 142.389 137.852 142.208C137.201 142.037 136.668 141.867 136.252 141.696C135.847 141.515 135.495 141.253 135.196 140.912C134.908 140.56 134.764 140.101 134.764 139.536C134.764 139.088 134.897 138.677 135.164 138.304C135.431 137.931 135.809 137.637 136.3 137.424C136.791 137.2 137.351 137.088 137.98 137.088C138.951 137.088 139.735 137.333 140.332 137.824C140.929 138.315 141.249 138.987 141.292 139.84H139.836C139.804 139.381 139.617 139.013 139.276 138.736C138.945 138.459 138.497 138.32 137.932 138.32C137.409 138.32 136.993 138.432 136.684 138.656C136.375 138.88 136.22 139.173 136.22 139.536C136.22 139.824 136.311 140.064 136.492 140.256C136.684 140.437 136.919 140.587 137.196 140.704C137.484 140.811 137.879 140.933 138.38 141.072C139.009 141.243 139.521 141.413 139.916 141.584C140.311 141.744 140.647 141.989 140.924 142.32C141.212 142.651 141.361 143.083 141.372 143.616C141.372 144.096 141.239 144.528 140.972 144.912C140.705 145.296 140.327 145.6 139.836 145.824C139.356 146.037 138.801 146.144 138.172 146.144ZM144.931 143.984L143.139 148.288H142.163L143.331 143.984H144.931ZM150.321 141.584C150.321 140.688 150.502 139.904 150.865 139.232C151.227 138.549 151.723 138.021 152.353 137.648C152.993 137.275 153.707 137.088 154.497 137.088C155.179 137.088 155.814 137.248 156.401 137.568C156.987 137.877 157.435 138.288 157.745 138.8V134.16H159.217V146H157.745V144.352C157.457 144.875 157.03 145.307 156.465 145.648C155.899 145.979 155.238 146.144 154.481 146.144C153.702 146.144 152.993 145.952 152.353 145.568C151.723 145.184 151.227 144.645 150.865 143.952C150.502 143.259 150.321 142.469 150.321 141.584ZM157.745 141.6C157.745 140.939 157.611 140.363 157.345 139.872C157.078 139.381 156.715 139.008 156.257 138.752C155.809 138.485 155.313 138.352 154.769 138.352C154.225 138.352 153.729 138.48 153.281 138.736C152.833 138.992 152.475 139.365 152.209 139.856C151.942 140.347 151.809 140.923 151.809 141.584C151.809 142.256 151.942 142.843 152.209 143.344C152.475 143.835 152.833 144.213 153.281 144.48C153.729 144.736 154.225 144.864 154.769 144.864C155.313 144.864 155.809 144.736 156.257 144.48C156.715 144.213 157.078 143.835 157.345 143.344C157.611 142.843 157.745 142.261 157.745 141.6ZM169.677 141.28C169.677 141.557 169.661 141.851 169.629 142.16H162.621C162.675 143.024 162.968 143.701 163.501 144.192C164.045 144.672 164.701 144.912 165.469 144.912C166.099 144.912 166.621 144.768 167.037 144.48C167.464 144.181 167.763 143.787 167.933 143.296H169.501C169.267 144.139 168.797 144.827 168.093 145.36C167.389 145.883 166.515 146.144 165.469 146.144C164.637 146.144 163.891 145.957 163.229 145.584C162.579 145.211 162.067 144.683 161.693 144C161.32 143.307 161.133 142.507 161.133 141.6C161.133 140.693 161.315 139.899 161.677 139.216C162.04 138.533 162.547 138.011 163.197 137.648C163.859 137.275 164.616 137.088 165.469 137.088C166.301 137.088 167.037 137.269 167.677 137.632C168.317 137.995 168.808 138.496 169.149 139.136C169.501 139.765 169.677 140.48 169.677 141.28ZM168.173 140.976C168.173 140.421 168.051 139.947 167.805 139.552C167.56 139.147 167.224 138.843 166.797 138.64C166.381 138.427 165.917 138.32 165.405 138.32C164.669 138.32 164.04 138.555 163.517 139.024C163.005 139.493 162.712 140.144 162.637 140.976H168.173ZM177.497 142.896C177.603 143.504 177.849 143.973 178.233 144.304C178.627 144.635 179.155 144.8 179.817 144.8C180.702 144.8 181.353 144.453 181.769 143.76C182.195 143.067 182.398 141.899 182.377 140.256C182.153 140.736 181.779 141.115 181.257 141.392C180.734 141.659 180.153 141.792 179.513 141.792C178.798 141.792 178.158 141.648 177.593 141.36C177.038 141.061 176.601 140.629 176.281 140.064C175.961 139.499 175.801 138.816 175.801 138.016C175.801 136.875 176.131 135.957 176.793 135.264C177.454 134.56 178.393 134.208 179.609 134.208C181.102 134.208 182.147 134.693 182.745 135.664C183.353 136.635 183.657 138.08 183.657 140C183.657 141.344 183.534 142.453 183.289 143.328C183.054 144.203 182.649 144.869 182.073 145.328C181.507 145.787 180.729 146.016 179.737 146.016C178.649 146.016 177.801 145.723 177.193 145.136C176.585 144.549 176.238 143.803 176.153 142.896H177.497ZM179.753 140.56C180.467 140.56 181.054 140.341 181.513 139.904C181.971 139.456 182.201 138.853 182.201 138.096C182.201 137.296 181.977 136.651 181.529 136.16C181.081 135.669 180.451 135.424 179.641 135.424C178.894 135.424 178.297 135.659 177.849 136.128C177.411 136.597 177.193 137.216 177.193 137.984C177.193 138.763 177.411 139.387 177.849 139.856C178.286 140.325 178.921 140.56 179.753 140.56ZM190.295 137.072C190.956 137.072 191.554 137.216 192.087 137.504C192.62 137.781 193.036 138.203 193.335 138.768C193.644 139.333 193.799 140.021 193.799 140.832V146H192.359V141.04C192.359 140.165 192.14 139.499 191.703 139.04C191.266 138.571 190.668 138.336 189.911 138.336C189.143 138.336 188.53 138.576 188.071 139.056C187.623 139.536 187.399 140.235 187.399 141.152V146H185.943V134.16H187.399V138.48C187.687 138.032 188.082 137.685 188.583 137.44C189.095 137.195 189.666 137.072 190.295 137.072ZM199.899 141.584C199.899 140.688 200.08 139.904 200.443 139.232C200.806 138.549 201.302 138.021 201.931 137.648C202.571 137.275 203.28 137.088 204.059 137.088C204.827 137.088 205.494 137.253 206.059 137.584C206.624 137.915 207.046 138.331 207.323 138.832V137.232H208.795V146H207.323V144.368C207.035 144.88 206.603 145.307 206.027 145.648C205.462 145.979 204.8 146.144 204.043 146.144C203.264 146.144 202.56 145.952 201.931 145.568C201.302 145.184 200.806 144.645 200.443 143.952C200.08 143.259 199.899 142.469 199.899 141.584ZM207.323 141.6C207.323 140.939 207.19 140.363 206.923 139.872C206.656 139.381 206.294 139.008 205.835 138.752C205.387 138.485 204.891 138.352 204.347 138.352C203.803 138.352 203.307 138.48 202.859 138.736C202.411 138.992 202.054 139.365 201.787 139.856C201.52 140.347 201.387 140.923 201.387 141.584C201.387 142.256 201.52 142.843 201.787 143.344C202.054 143.835 202.411 144.213 202.859 144.48C203.307 144.736 203.803 144.864 204.347 144.864C204.891 144.864 205.387 144.736 205.835 144.48C206.294 144.213 206.656 143.835 206.923 143.344C207.19 142.843 207.323 142.261 207.323 141.6ZM206.187 135.488V136.576L202.779 134.752V133.488L206.187 135.488ZM215.105 144.832C216.46 143.744 217.521 142.853 218.289 142.16C219.057 141.456 219.702 140.725 220.225 139.968C220.758 139.2 221.025 138.448 221.025 137.712C221.025 137.019 220.854 136.475 220.513 136.08C220.182 135.675 219.644 135.472 218.897 135.472C218.172 135.472 217.606 135.701 217.201 136.16C216.806 136.608 216.593 137.211 216.561 137.968H215.153C215.196 136.773 215.558 135.851 216.241 135.2C216.924 134.549 217.804 134.224 218.881 134.224C219.98 134.224 220.849 134.528 221.489 135.136C222.14 135.744 222.465 136.581 222.465 137.648C222.465 138.533 222.198 139.397 221.665 140.24C221.142 141.072 220.545 141.808 219.873 142.448C219.201 143.077 218.342 143.813 217.297 144.656H222.801V145.872H215.105V144.832ZM224.484 140.096C224.484 138.261 224.783 136.832 225.38 135.808C225.978 134.773 227.023 134.256 228.516 134.256C229.999 134.256 231.039 134.773 231.636 135.808C232.234 136.832 232.532 138.261 232.532 140.096C232.532 141.963 232.234 143.413 231.636 144.448C231.039 145.483 229.999 146 228.516 146C227.023 146 225.978 145.483 225.38 144.448C224.783 143.413 224.484 141.963 224.484 140.096ZM231.092 140.096C231.092 139.168 231.028 138.384 230.9 137.744C230.783 137.093 230.532 136.571 230.148 136.176C229.775 135.781 229.231 135.584 228.516 135.584C227.791 135.584 227.236 135.781 226.852 136.176C226.479 136.571 226.228 137.093 226.1 137.744C225.983 138.384 225.924 139.168 225.924 140.096C225.924 141.056 225.983 141.861 226.1 142.512C226.228 143.163 226.479 143.685 226.852 144.08C227.236 144.475 227.791 144.672 228.516 144.672C229.231 144.672 229.775 144.475 230.148 144.08C230.532 143.685 230.783 143.163 230.9 142.512C231.028 141.861 231.092 141.056 231.092 140.096ZM239.123 137.072C239.784 137.072 240.382 137.216 240.915 137.504C241.448 137.781 241.864 138.203 242.163 138.768C242.472 139.333 242.627 140.021 242.627 140.832V146H241.187V141.04C241.187 140.165 240.968 139.499 240.531 139.04C240.094 138.571 239.496 138.336 238.739 138.336C237.971 138.336 237.358 138.576 236.899 139.056C236.451 139.536 236.227 140.235 236.227 141.152V146H234.771V134.16H236.227V138.48C236.515 138.032 236.91 137.685 237.411 137.44C237.923 137.195 238.494 137.072 239.123 137.072ZM246.509 143.984L244.717 148.288H243.741L244.909 143.984H246.509ZM64.6304 165.28C64.6304 165.557 64.6144 165.851 64.5824 166.16H57.5744C57.6278 167.024 57.9211 167.701 58.4544 168.192C58.9984 168.672 59.6544 168.912 60.4224 168.912C61.0518 168.912 61.5744 168.768 61.9904 168.48C62.4171 168.181 62.7158 167.787 62.8864 167.296H64.4544C64.2198 168.139 63.7504 168.827 63.0464 169.36C62.3424 169.883 61.4678 170.144 60.4224 170.144C59.5904 170.144 58.8438 169.957 58.1824 169.584C57.5318 169.211 57.0198 168.683 56.6464 168C56.2731 167.307 56.0864 166.507 56.0864 165.6C56.0864 164.693 56.2678 163.899 56.6304 163.216C56.9931 162.533 57.4998 162.011 58.1504 161.648C58.8118 161.275 59.5691 161.088 60.4224 161.088C61.2544 161.088 61.9904 161.269 62.6304 161.632C63.2704 161.995 63.7611 162.496 64.1024 163.136C64.4544 163.765 64.6304 164.48 64.6304 165.28ZM63.1264 164.976C63.1264 164.421 63.0038 163.947 62.7584 163.552C62.5131 163.147 62.1771 162.843 61.7504 162.64C61.3344 162.427 60.8704 162.32 60.3584 162.32C59.6224 162.32 58.9931 162.555 58.4704 163.024C57.9584 163.493 57.6651 164.144 57.5904 164.976H63.1264ZM68.3283 162.432V167.6C68.3283 168.027 68.419 168.331 68.6003 168.512C68.7816 168.683 69.0963 168.768 69.5443 168.768H70.6163V170H69.3043C68.4936 170 67.8856 169.813 67.4803 169.44C67.075 169.067 66.8723 168.453 66.8723 167.6V162.432H65.7363V161.232H66.8723V159.024H68.3283V161.232H70.6163V162.432H68.3283ZM78.1021 158.16V170H76.6461V158.16H78.1021ZM88.5836 165.28C88.5836 165.557 88.5676 165.851 88.5356 166.16H81.5276C81.5809 167.024 81.8742 167.701 82.4076 168.192C82.9516 168.672 83.6076 168.912 84.3756 168.912C85.0049 168.912 85.5276 168.768 85.9436 168.48C86.3702 168.181 86.6689 167.787 86.8396 167.296H88.4076C88.1729 168.139 87.7036 168.827 86.9996 169.36C86.2956 169.883 85.4209 170.144 84.3756 170.144C83.5436 170.144 82.7969 169.957 82.1356 169.584C81.4849 169.211 80.9729 168.683 80.5996 168C80.2262 167.307 80.0396 166.507 80.0396 165.6C80.0396 164.693 80.2209 163.899 80.5836 163.216C80.9462 162.533 81.4529 162.011 82.1036 161.648C82.7649 161.275 83.5222 161.088 84.3756 161.088C85.2076 161.088 85.9436 161.269 86.5836 161.632C87.2236 161.995 87.7142 162.496 88.0556 163.136C88.4076 163.765 88.5836 164.48 88.5836 165.28ZM87.0796 164.976C87.0796 164.421 86.9569 163.947 86.7116 163.552C86.4662 163.147 86.1302 162.843 85.7036 162.64C85.2876 162.427 84.8236 162.32 84.3116 162.32C83.5756 162.32 82.9462 162.555 82.4236 163.024C81.9116 163.493 81.6182 164.144 81.5436 164.976H87.0796ZM97.8751 170.144C97.2031 170.144 96.6004 170.032 96.0671 169.808C95.5337 169.573 95.1124 169.253 94.8031 168.848C94.4937 168.432 94.3231 167.957 94.2911 167.424H95.7951C95.8377 167.861 96.0404 168.219 96.4031 168.496C96.7764 168.773 97.2617 168.912 97.8591 168.912C98.4137 168.912 98.8511 168.789 99.1711 168.544C99.4911 168.299 99.6511 167.989 99.6511 167.616C99.6511 167.232 99.4804 166.949 99.1391 166.768C98.7977 166.576 98.2697 166.389 97.5551 166.208C96.9044 166.037 96.3711 165.867 95.9551 165.696C95.5497 165.515 95.1977 165.253 94.8991 164.912C94.6111 164.56 94.4671 164.101 94.4671 163.536C94.4671 163.088 94.6004 162.677 94.8671 162.304C95.1337 161.931 95.5124 161.637 96.0031 161.424C96.4937 161.2 97.0537 161.088 97.6831 161.088C98.6537 161.088 99.4377 161.333 100.035 161.824C100.632 162.315 100.952 162.987 100.995 163.84H99.5391C99.5071 163.381 99.3204 163.013 98.9791 162.736C98.6484 162.459 98.2004 162.32 97.6351 162.32C97.1124 162.32 96.6964 162.432 96.3871 162.656C96.0777 162.88 95.9231 163.173 95.9231 163.536C95.9231 163.824 96.0137 164.064 96.1951 164.256C96.3871 164.437 96.6217 164.587 96.8991 164.704C97.1871 164.811 97.5817 164.933 98.0831 165.072C98.7124 165.243 99.2244 165.413 99.6191 165.584C100.014 165.744 100.35 165.989 100.627 166.32C100.915 166.651 101.064 167.083 101.075 167.616C101.075 168.096 100.942 168.528 100.675 168.912C100.408 169.296 100.03 169.6 99.5391 169.824C99.0591 170.037 98.5044 170.144 97.8751 170.144ZM102.586 165.584C102.586 164.688 102.768 163.904 103.13 163.232C103.493 162.549 103.989 162.021 104.618 161.648C105.258 161.275 105.968 161.088 106.746 161.088C107.514 161.088 108.181 161.253 108.746 161.584C109.312 161.915 109.733 162.331 110.01 162.832V161.232H111.482V170H110.01V168.368C109.722 168.88 109.29 169.307 108.714 169.648C108.149 169.979 107.488 170.144 106.73 170.144C105.952 170.144 105.248 169.952 104.618 169.568C103.989 169.184 103.493 168.645 103.13 167.952C102.768 167.259 102.586 166.469 102.586 165.584ZM110.01 165.6C110.01 164.939 109.877 164.363 109.61 163.872C109.344 163.381 108.981 163.008 108.522 162.752C108.074 162.485 107.578 162.352 107.034 162.352C106.49 162.352 105.994 162.48 105.546 162.736C105.098 162.992 104.741 163.365 104.474 163.856C104.208 164.347 104.074 164.923 104.074 165.584C104.074 166.256 104.208 166.843 104.474 167.344C104.741 167.835 105.098 168.213 105.546 168.48C105.994 168.736 106.49 168.864 107.034 168.864C107.578 168.864 108.074 168.736 108.522 168.48C108.981 168.213 109.344 167.835 109.61 167.344C109.877 166.843 110.01 166.261 110.01 165.6ZM124.487 161.072C125.17 161.072 125.778 161.216 126.311 161.504C126.844 161.781 127.266 162.203 127.575 162.768C127.884 163.333 128.039 164.021 128.039 164.832V170H126.599V165.04C126.599 164.165 126.38 163.499 125.943 163.04C125.516 162.571 124.935 162.336 124.199 162.336C123.442 162.336 122.839 162.581 122.391 163.072C121.943 163.552 121.719 164.251 121.719 165.168V170H120.279V165.04C120.279 164.165 120.06 163.499 119.623 163.04C119.196 162.571 118.615 162.336 117.879 162.336C117.122 162.336 116.519 162.581 116.071 163.072C115.623 163.552 115.399 164.251 115.399 165.168V170H113.943V161.232H115.399V162.496C115.687 162.037 116.071 161.685 116.551 161.44C117.042 161.195 117.58 161.072 118.167 161.072C118.903 161.072 119.554 161.237 120.119 161.568C120.684 161.899 121.106 162.384 121.383 163.024C121.628 162.405 122.034 161.925 122.599 161.584C123.164 161.243 123.794 161.072 124.487 161.072ZM138.427 165.28C138.427 165.557 138.411 165.851 138.379 166.16H131.371C131.425 167.024 131.718 167.701 132.251 168.192C132.795 168.672 133.451 168.912 134.219 168.912C134.849 168.912 135.371 168.768 135.787 168.48C136.214 168.181 136.513 167.787 136.683 167.296H138.251C138.017 168.139 137.547 168.827 136.843 169.36C136.139 169.883 135.265 170.144 134.219 170.144C133.387 170.144 132.641 169.957 131.979 169.584C131.329 169.211 130.817 168.683 130.443 168C130.07 167.307 129.883 166.507 129.883 165.6C129.883 164.693 130.065 163.899 130.427 163.216C130.79 162.533 131.297 162.011 131.947 161.648C132.609 161.275 133.366 161.088 134.219 161.088C135.051 161.088 135.787 161.269 136.427 161.632C137.067 161.995 137.558 162.496 137.899 163.136C138.251 163.765 138.427 164.48 138.427 165.28ZM136.923 164.976C136.923 164.421 136.801 163.947 136.555 163.552C136.31 163.147 135.974 162.843 135.547 162.64C135.131 162.427 134.667 162.32 134.155 162.32C133.419 162.32 132.79 162.555 132.267 163.024C131.755 163.493 131.462 164.144 131.387 164.976H136.923ZM139.805 165.584C139.805 164.688 139.987 163.904 140.349 163.232C140.712 162.549 141.208 162.021 141.837 161.648C142.477 161.275 143.192 161.088 143.981 161.088C144.664 161.088 145.299 161.248 145.885 161.568C146.472 161.877 146.92 162.288 147.229 162.8V158.16H148.701V170H147.229V168.352C146.941 168.875 146.515 169.307 145.949 169.648C145.384 169.979 144.723 170.144 143.965 170.144C143.187 170.144 142.477 169.952 141.837 169.568C141.208 169.184 140.712 168.645 140.349 167.952C139.987 167.259 139.805 166.469 139.805 165.584ZM147.229 165.6C147.229 164.939 147.096 164.363 146.829 163.872C146.563 163.381 146.2 163.008 145.741 162.752C145.293 162.485 144.797 162.352 144.253 162.352C143.709 162.352 143.213 162.48 142.765 162.736C142.317 162.992 141.96 163.365 141.693 163.856C141.427 164.347 141.293 164.923 141.293 165.584C141.293 166.256 141.427 166.843 141.693 167.344C141.96 167.835 142.317 168.213 142.765 168.48C143.213 168.736 143.709 168.864 144.253 168.864C144.797 168.864 145.293 168.736 145.741 168.48C146.2 168.213 146.563 167.835 146.829 167.344C147.096 166.843 147.229 166.261 147.229 165.6ZM151.914 159.808C151.636 159.808 151.402 159.712 151.21 159.52C151.018 159.328 150.922 159.093 150.922 158.816C150.922 158.539 151.018 158.304 151.21 158.112C151.402 157.92 151.636 157.824 151.914 157.824C152.18 157.824 152.404 157.92 152.586 158.112C152.778 158.304 152.874 158.539 152.874 158.816C152.874 159.093 152.778 159.328 152.586 159.52C152.404 159.712 152.18 159.808 151.914 159.808ZM152.618 161.232V170H151.162V161.232H152.618ZM158.821 165.584C158.821 164.688 159.002 163.904 159.365 163.232C159.727 162.549 160.223 162.021 160.853 161.648C161.493 161.275 162.207 161.088 162.997 161.088C163.679 161.088 164.314 161.248 164.901 161.568C165.487 161.877 165.935 162.288 166.245 162.8V158.16H167.717V170H166.245V168.352C165.957 168.875 165.53 169.307 164.965 169.648C164.399 169.979 163.738 170.144 162.981 170.144C162.202 170.144 161.493 169.952 160.853 169.568C160.223 169.184 159.727 168.645 159.365 167.952C159.002 167.259 158.821 166.469 158.821 165.584ZM166.245 165.6C166.245 164.939 166.111 164.363 165.845 163.872C165.578 163.381 165.215 163.008 164.757 162.752C164.309 162.485 163.813 162.352 163.269 162.352C162.725 162.352 162.229 162.48 161.781 162.736C161.333 162.992 160.975 163.365 160.709 163.856C160.442 164.347 160.309 164.923 160.309 165.584C160.309 166.256 160.442 166.843 160.709 167.344C160.975 167.835 161.333 168.213 161.781 168.48C162.229 168.736 162.725 168.864 163.269 168.864C163.813 168.864 164.309 168.736 164.757 168.48C165.215 168.213 165.578 167.835 165.845 167.344C166.111 166.843 166.245 166.261 166.245 165.6ZM178.177 165.28C178.177 165.557 178.161 165.851 178.129 166.16H171.121C171.175 167.024 171.468 167.701 172.001 168.192C172.545 168.672 173.201 168.912 173.969 168.912C174.599 168.912 175.121 168.768 175.537 168.48C175.964 168.181 176.263 167.787 176.433 167.296H178.001C177.767 168.139 177.297 168.827 176.593 169.36C175.889 169.883 175.015 170.144 173.969 170.144C173.137 170.144 172.391 169.957 171.729 169.584C171.079 169.211 170.567 168.683 170.193 168C169.82 167.307 169.633 166.507 169.633 165.6C169.633 164.693 169.815 163.899 170.177 163.216C170.54 162.533 171.047 162.011 171.697 161.648C172.359 161.275 173.116 161.088 173.969 161.088C174.801 161.088 175.537 161.269 176.177 161.632C176.817 161.995 177.308 162.496 177.649 163.136C178.001 163.765 178.177 164.48 178.177 165.28ZM176.673 164.976C176.673 164.421 176.551 163.947 176.305 163.552C176.06 163.147 175.724 162.843 175.297 162.64C174.881 162.427 174.417 162.32 173.905 162.32C173.169 162.32 172.54 162.555 172.017 163.024C171.505 163.493 171.212 164.144 171.137 164.976H176.673ZM185.997 166.896C186.103 167.504 186.349 167.973 186.733 168.304C187.127 168.635 187.655 168.8 188.317 168.8C189.202 168.8 189.853 168.453 190.269 167.76C190.695 167.067 190.898 165.899 190.877 164.256C190.653 164.736 190.279 165.115 189.757 165.392C189.234 165.659 188.653 165.792 188.013 165.792C187.298 165.792 186.658 165.648 186.093 165.36C185.538 165.061 185.101 164.629 184.781 164.064C184.461 163.499 184.301 162.816 184.301 162.016C184.301 160.875 184.631 159.957 185.293 159.264C185.954 158.56 186.893 158.208 188.109 158.208C189.602 158.208 190.647 158.693 191.245 159.664C191.853 160.635 192.157 162.08 192.157 164C192.157 165.344 192.034 166.453 191.789 167.328C191.554 168.203 191.149 168.869 190.573 169.328C190.007 169.787 189.229 170.016 188.237 170.016C187.149 170.016 186.301 169.723 185.693 169.136C185.085 168.549 184.738 167.803 184.653 166.896H185.997ZM188.253 164.56C188.967 164.56 189.554 164.341 190.013 163.904C190.471 163.456 190.701 162.853 190.701 162.096C190.701 161.296 190.477 160.651 190.029 160.16C189.581 159.669 188.951 159.424 188.141 159.424C187.394 159.424 186.797 159.659 186.349 160.128C185.911 160.597 185.693 161.216 185.693 161.984C185.693 162.763 185.911 163.387 186.349 163.856C186.786 164.325 187.421 164.56 188.253 164.56ZM198.795 161.072C199.456 161.072 200.054 161.216 200.587 161.504C201.12 161.781 201.536 162.203 201.835 162.768C202.144 163.333 202.299 164.021 202.299 164.832V170H200.859V165.04C200.859 164.165 200.64 163.499 200.203 163.04C199.766 162.571 199.168 162.336 198.411 162.336C197.643 162.336 197.03 162.576 196.571 163.056C196.123 163.536 195.899 164.235 195.899 165.152V170H194.443V158.16H195.899V162.48C196.187 162.032 196.582 161.685 197.083 161.44C197.595 161.195 198.166 161.072 198.795 161.072ZM208.399 165.584C208.399 164.688 208.58 163.904 208.943 163.232C209.306 162.549 209.802 162.021 210.431 161.648C211.071 161.275 211.78 161.088 212.559 161.088C213.327 161.088 213.994 161.253 214.559 161.584C215.124 161.915 215.546 162.331 215.823 162.832V161.232H217.295V170H215.823V168.368C215.535 168.88 215.103 169.307 214.527 169.648C213.962 169.979 213.3 170.144 212.543 170.144C211.764 170.144 211.06 169.952 210.431 169.568C209.802 169.184 209.306 168.645 208.943 167.952C208.58 167.259 208.399 166.469 208.399 165.584ZM215.823 165.6C215.823 164.939 215.69 164.363 215.423 163.872C215.156 163.381 214.794 163.008 214.335 162.752C213.887 162.485 213.391 162.352 212.847 162.352C212.303 162.352 211.807 162.48 211.359 162.736C210.911 162.992 210.554 163.365 210.287 163.856C210.02 164.347 209.887 164.923 209.887 165.584C209.887 166.256 210.02 166.843 210.287 167.344C210.554 167.835 210.911 168.213 211.359 168.48C211.807 168.736 212.303 168.864 212.847 168.864C213.391 168.864 213.887 168.736 214.335 168.48C214.794 168.213 215.156 167.835 215.423 167.344C215.69 166.843 215.823 166.261 215.823 165.6ZM214.687 159.488V160.576L211.279 158.752V157.488L214.687 159.488ZM223.397 159.76V158.432H226.405V170H224.933V159.76H223.397ZM231.018 163.984C230.421 163.749 229.962 163.408 229.642 162.96C229.322 162.512 229.162 161.968 229.162 161.328C229.162 160.752 229.306 160.235 229.594 159.776C229.882 159.307 230.309 158.939 230.874 158.672C231.45 158.395 232.143 158.256 232.954 158.256C233.765 158.256 234.453 158.395 235.018 158.672C235.594 158.939 236.026 159.307 236.314 159.776C236.613 160.235 236.762 160.752 236.762 161.328C236.762 161.947 236.597 162.491 236.266 162.96C235.935 163.419 235.482 163.76 234.906 163.984C235.567 164.187 236.09 164.544 236.474 165.056C236.869 165.557 237.066 166.165 237.066 166.88C237.066 167.573 236.895 168.181 236.554 168.704C236.213 169.216 235.727 169.616 235.098 169.904C234.479 170.181 233.765 170.32 232.954 170.32C232.143 170.32 231.429 170.181 230.81 169.904C230.202 169.616 229.727 169.216 229.386 168.704C229.045 168.181 228.874 167.573 228.874 166.88C228.874 166.165 229.066 165.552 229.45 165.04C229.834 164.528 230.357 164.176 231.018 163.984ZM235.354 161.504C235.354 160.853 235.141 160.352 234.714 160C234.287 159.648 233.701 159.472 232.954 159.472C232.218 159.472 231.637 159.648 231.21 160C230.783 160.352 230.57 160.859 230.57 161.52C230.57 162.117 230.789 162.597 231.226 162.96C231.674 163.323 232.25 163.504 232.954 163.504C233.669 163.504 234.245 163.323 234.682 162.96C235.13 162.587 235.354 162.101 235.354 161.504ZM232.954 164.624C232.165 164.624 231.519 164.811 231.018 165.184C230.517 165.547 230.266 166.096 230.266 166.832C230.266 167.515 230.506 168.064 230.986 168.48C231.477 168.896 232.133 169.104 232.954 169.104C233.775 169.104 234.426 168.896 234.906 168.48C235.386 168.064 235.626 167.515 235.626 166.832C235.626 166.117 235.381 165.573 234.89 165.2C234.399 164.816 233.754 164.624 232.954 164.624ZM243.592 161.072C244.253 161.072 244.85 161.216 245.384 161.504C245.917 161.781 246.333 162.203 246.632 162.768C246.941 163.333 247.096 164.021 247.096 164.832V170H245.656V165.04C245.656 164.165 245.437 163.499 245 163.04C244.562 162.571 243.965 162.336 243.208 162.336C242.44 162.336 241.826 162.576 241.368 163.056C240.92 163.536 240.696 164.235 240.696 165.152V170H239.24V158.16H240.696V162.48C240.984 162.032 241.378 161.685 241.88 161.44C242.392 161.195 242.962 161.072 243.592 161.072ZM249.938 170.096C249.661 170.096 249.426 170 249.234 169.808C249.042 169.616 248.946 169.381 248.946 169.104C248.946 168.827 249.042 168.592 249.234 168.4C249.426 168.208 249.661 168.112 249.938 168.112C250.205 168.112 250.429 168.208 250.61 168.4C250.802 168.592 250.898 168.827 250.898 169.104C250.898 169.381 250.802 169.616 250.61 169.808C250.429 170 250.205 170.096 249.938 170.096Z" fill="white"/>
</svg>
