<svg width="306" height="211" viewBox="0 0 306 211" fill="none" xmlns="http://www.w3.org/2000/svg">
<rect width="306" height="210.299" rx="100" fill="#2F2D84"/>
<path d="M188.512 96.3653L173.9 81.8591C172.04 80.0128 171.509 77.4412 172.239 75.1334C174.697 67.7484 176.025 59.8359 176.025 51.5938C176.025 47.9672 179.014 45 182.667 45H205.914C209.567 45 212.556 47.9672 212.556 51.5938C212.556 113.509 162.011 163.688 99.642 163.688C95.9889 163.688 93 160.72 93 157.094V134.082C93 130.455 95.9889 127.488 99.642 127.488C107.878 127.488 115.915 126.169 123.354 123.729C125.679 122.938 128.336 123.532 130.129 125.312L144.741 139.818C163.538 130.257 178.948 115.026 188.512 96.3653Z" fill="#FFB7D6"/>
<path d="M103.84 124.12C106.72 124.12 109.48 123.28 111.76 121.42C114.16 119.38 114.94 117.52 115.54 114.4C115.66 113.62 115.72 112.84 115.72 112.06L115.66 110.32C115.48 108.88 114.94 107.38 114.04 105.88C113.14 104.38 111.76 103 109.84 101.8C111.7 100.54 113.02 99.22 113.74 97.84C114.4 96.58 114.7 95.38 114.7 94.24V93.94C114.7 92.74 114.46 91.66 114.04 90.64C113.62 89.68 113.2 88.9 112.78 88.36C112.36 87.82 112.12 87.52 112.12 87.46L111.1 86.56C110.44 86.02 109.48 85.42 108.1 84.82C106.78 84.22 105.22 83.86 103.36 83.74L102.16 83.68C98.02 83.68 93.7 85.36 90.4 87.82C89.44 88.66 89.08 89.8 89.08 91C89.08 93.82 91.12 96.88 93.28 96.88C93.76 96.88 94.24 96.7 94.72 96.34C96.16 95.26 98.26 94.18 100.24 94.18C101.26 94.18 102.28 94.54 103.06 95.32L103.3 95.92C103.42 96.1 103.42 96.28 103.42 96.52C103.42 96.7 103.42 96.88 103.3 97.12C103.06 97.6 102.58 97.96 101.74 98.26C101.2 98.44 100.48 98.56 99.46 98.56L97.48 98.44C95.26 98.68 94.18 100.72 94.18 102.7C94.18 104.62 95.14 106.42 97 106.42C97.84 106.36 98.62 106.3 99.34 106.3C100.12 106.3 100.84 106.36 101.38 106.48C104.14 107.08 105.34 108.7 105.34 110.14C105.34 111.34 104.5 112.48 103.12 112.9C102.64 113.02 102.22 113.08 101.8 113.08C99.76 113.08 98.44 111.64 96.88 110.14C96.4 109.66 95.86 109.12 95.2 108.64C94.84 108.4 94.42 108.28 94 108.28C91.48 108.28 88 111.88 88 115.36C88 116.92 88.66 118.42 90.4 119.56C93.04 121.36 94.24 121.72 96.4 122.5C99.04 123.46 101.32 124 103.3 124.12H103.84ZM132.683 124C141.203 124 148.763 114.94 149.543 103.84C149.603 103.18 149.603 102.52 149.603 101.86C149.603 91.6 143.603 83.62 135.623 83.62C127.163 83.62 119.543 92.68 118.763 103.84C118.703 104.5 118.703 105.16 118.703 105.82C118.703 116.02 124.703 124 132.683 124ZM132.563 113.32C132.263 113.32 131.903 113.26 131.603 113.2C129.083 112.6 127.583 109.72 127.583 106.12C127.583 104.92 127.763 103.66 128.123 102.34C129.383 97.66 132.683 94.3 135.743 94.3C136.103 94.3 136.403 94.36 136.703 94.42C139.223 95.08 140.723 97.96 140.723 101.56C140.723 102.76 140.603 104.02 140.243 105.28C138.923 109.96 135.623 113.32 132.563 113.32ZM159.169 124.12L179.029 123.04C181.309 123.04 182.269 120.1 182.269 117.1C182.269 113.98 181.249 110.92 179.509 110.92L167.329 112.42C169.249 111.1 171.229 109.66 173.149 108.16C175.069 106.66 176.749 104.98 178.069 103.24C179.869 100.9 180.649 98.5 180.649 96.16C180.649 92.08 178.129 88.3 174.109 85.6C172.969 84.82 171.649 84.28 170.029 83.92C169.189 83.74 168.289 83.62 167.449 83.62C162.349 83.62 157.309 86.74 153.709 90.4C152.989 91.54 152.689 92.68 152.689 93.82C152.689 96.58 154.549 99.04 156.949 99.64C157.369 99.76 157.669 99.82 158.029 99.82C159.709 99.82 160.489 98.5 161.509 97.9C163.189 96.94 164.389 96.22 166.789 95.5C167.149 95.44 167.449 95.38 167.749 95.38C168.229 95.38 168.589 95.5 168.769 95.86C168.889 95.98 168.889 96.16 168.889 96.34C168.889 96.64 168.829 96.94 168.589 97.36C168.229 97.96 167.689 98.68 166.909 99.52L164.209 102.16C163.129 103.18 162.049 104.14 160.969 105.22C159.829 106.24 158.749 107.32 157.669 108.4C156.649 109.48 155.689 110.5 154.909 111.52C154.129 112.6 153.529 113.56 153.109 114.52C152.749 115.3 152.629 116.14 152.629 117.04C152.629 120.52 155.269 124.12 159.169 124.12ZM199.246 124C207.766 124 215.326 114.94 216.106 103.84C216.166 103.18 216.166 102.52 216.166 101.86C216.166 91.6 210.166 83.62 202.186 83.62C193.726 83.62 186.106 92.68 185.326 103.84C185.266 104.5 185.266 105.16 185.266 105.82C185.266 116.02 191.266 124 199.246 124ZM199.126 113.32C198.826 113.32 198.466 113.26 198.166 113.2C195.646 112.6 194.146 109.72 194.146 106.12C194.146 104.92 194.326 103.66 194.686 102.34C195.946 97.66 199.246 94.3 202.306 94.3C202.666 94.3 202.966 94.36 203.266 94.42C205.786 95.08 207.286 97.96 207.286 101.56C207.286 102.76 207.166 104.02 206.806 105.28C205.486 109.96 202.186 113.32 199.126 113.32Z" fill="white"/>
</svg>
