<svg width="306" height="211" viewBox="0 0 306 211" fill="none" xmlns="http://www.w3.org/2000/svg">
<rect width="306" height="211" rx="100" fill="#DF80A9"/>
<path d="M69.9007 123.848V125.032H66.8607V135H65.4047V125.032H62.3487V123.848H69.9007ZM79.6929 130.28C79.6929 130.557 79.6769 130.851 79.6449 131.16H72.6369C72.6903 132.024 72.9836 132.701 73.5169 133.192C74.0609 133.672 74.7169 133.912 75.4849 133.912C76.1143 133.912 76.6369 133.768 77.0529 133.48C77.4796 133.181 77.7783 132.787 77.9489 132.296H79.5169C79.2823 133.139 78.8129 133.827 78.1089 134.36C77.4049 134.883 76.5303 135.144 75.4849 135.144C74.6529 135.144 73.9063 134.957 73.2449 134.584C72.5943 134.211 72.0823 133.683 71.7089 133C71.3356 132.307 71.1489 131.507 71.1489 130.6C71.1489 129.693 71.3303 128.899 71.6929 128.216C72.0556 127.533 72.5623 127.011 73.2129 126.648C73.8743 126.275 74.6316 126.088 75.4849 126.088C76.3169 126.088 77.0529 126.269 77.6929 126.632C78.3329 126.995 78.8236 127.496 79.1649 128.136C79.5169 128.765 79.6929 129.48 79.6929 130.28ZM78.1889 129.976C78.1889 129.421 78.0663 128.947 77.8209 128.552C77.5756 128.147 77.2396 127.843 76.8129 127.64C76.3969 127.427 75.9329 127.32 75.4209 127.32C74.6849 127.32 74.0556 127.555 73.5329 128.024C73.0209 128.493 72.7276 129.144 72.6529 129.976H78.1889ZM76.9889 123.752L73.5809 125.576V124.488L76.9889 122.488V123.752ZM83.0708 123.16V135H81.6148V123.16H83.0708ZM93.5523 130.28C93.5523 130.557 93.5363 130.851 93.5043 131.16H86.4963C86.5496 132.024 86.843 132.701 87.3763 133.192C87.9203 133.672 88.5763 133.912 89.3443 133.912C89.9736 133.912 90.4963 133.768 90.9123 133.48C91.339 133.181 91.6376 132.787 91.8083 132.296H93.3763C93.1416 133.139 92.6723 133.827 91.9683 134.36C91.2643 134.883 90.3896 135.144 89.3443 135.144C88.5123 135.144 87.7656 134.957 87.1043 134.584C86.4536 134.211 85.9416 133.683 85.5683 133C85.195 132.307 85.0083 131.507 85.0083 130.6C85.0083 129.693 85.1896 128.899 85.5523 128.216C85.915 127.533 86.4216 127.011 87.0723 126.648C87.7336 126.275 88.491 126.088 89.3443 126.088C90.1763 126.088 90.9123 126.269 91.5523 126.632C92.1923 126.995 92.683 127.496 93.0243 128.136C93.3763 128.765 93.5523 129.48 93.5523 130.28ZM92.0483 129.976C92.0483 129.421 91.9256 128.947 91.6803 128.552C91.435 128.147 91.099 127.843 90.6723 127.64C90.2563 127.427 89.7923 127.32 89.2803 127.32C88.5443 127.32 87.915 127.555 87.3923 128.024C86.8803 128.493 86.587 129.144 86.5123 129.976H92.0483ZM90.8483 123.752L87.4403 125.576V124.488L90.8483 122.488V123.752ZM94.9302 130.6C94.9302 129.693 95.1115 128.904 95.4742 128.232C95.8369 127.549 96.3382 127.021 96.9782 126.648C97.6289 126.275 98.3702 126.088 99.2022 126.088C100.28 126.088 101.165 126.349 101.858 126.872C102.562 127.395 103.026 128.12 103.25 129.048H101.682C101.533 128.515 101.24 128.093 100.802 127.784C100.376 127.475 99.8422 127.32 99.2022 127.32C98.3702 127.32 97.6982 127.608 97.1862 128.184C96.6742 128.749 96.4182 129.555 96.4182 130.6C96.4182 131.656 96.6742 132.472 97.1862 133.048C97.6982 133.624 98.3702 133.912 99.2022 133.912C99.8422 133.912 100.376 133.763 100.802 133.464C101.229 133.165 101.522 132.739 101.682 132.184H103.25C103.016 133.08 102.546 133.8 101.842 134.344C101.138 134.877 100.258 135.144 99.2022 135.144C98.3702 135.144 97.6289 134.957 96.9782 134.584C96.3382 134.211 95.8369 133.683 95.4742 133C95.1115 132.317 94.9302 131.517 94.9302 130.6ZM109.545 126.072C110.206 126.072 110.804 126.216 111.337 126.504C111.87 126.781 112.286 127.203 112.585 127.768C112.894 128.333 113.049 129.021 113.049 129.832V135H111.609V130.04C111.609 129.165 111.39 128.499 110.953 128.04C110.516 127.571 109.918 127.336 109.161 127.336C108.393 127.336 107.78 127.576 107.321 128.056C106.873 128.536 106.649 129.235 106.649 130.152V135H105.193V123.16H106.649V127.48C106.937 127.032 107.332 126.685 107.833 126.44C108.345 126.195 108.916 126.072 109.545 126.072ZM114.883 130.584C114.883 129.688 115.065 128.904 115.427 128.232C115.79 127.549 116.286 127.021 116.915 126.648C117.555 126.275 118.265 126.088 119.043 126.088C119.811 126.088 120.478 126.253 121.043 126.584C121.609 126.915 122.03 127.331 122.307 127.832V126.232H123.779V135H122.307V133.368C122.019 133.88 121.587 134.307 121.011 134.648C120.446 134.979 119.785 135.144 119.027 135.144C118.249 135.144 117.545 134.952 116.915 134.568C116.286 134.184 115.79 133.645 115.427 132.952C115.065 132.259 114.883 131.469 114.883 130.584ZM122.307 130.6C122.307 129.939 122.174 129.363 121.907 128.872C121.641 128.381 121.278 128.008 120.819 127.752C120.371 127.485 119.875 127.352 119.331 127.352C118.787 127.352 118.291 127.48 117.843 127.736C117.395 127.992 117.038 128.365 116.771 128.856C116.505 129.347 116.371 129.923 116.371 130.584C116.371 131.256 116.505 131.843 116.771 132.344C117.038 132.835 117.395 133.213 117.843 133.48C118.291 133.736 118.787 133.864 119.331 133.864C119.875 133.864 120.371 133.736 120.819 133.48C121.278 133.213 121.641 132.835 121.907 132.344C122.174 131.843 122.307 131.261 122.307 130.6ZM127.696 127.656C127.952 127.155 128.314 126.765 128.784 126.488C129.264 126.211 129.845 126.072 130.528 126.072V127.576H130.144C128.512 127.576 127.696 128.461 127.696 130.232V135H126.24V126.232H127.696V127.656ZM135.825 126.088C136.582 126.088 137.243 126.253 137.809 126.584C138.385 126.915 138.811 127.331 139.089 127.832V126.232H140.561V135.192C140.561 135.992 140.39 136.701 140.049 137.32C139.707 137.949 139.217 138.44 138.577 138.792C137.947 139.144 137.211 139.32 136.369 139.32C135.217 139.32 134.257 139.048 133.489 138.504C132.721 137.96 132.267 137.219 132.129 136.28H133.569C133.729 136.813 134.059 137.24 134.561 137.56C135.062 137.891 135.665 138.056 136.369 138.056C137.169 138.056 137.819 137.805 138.321 137.304C138.833 136.803 139.089 136.099 139.089 135.192V133.352C138.801 133.864 138.374 134.291 137.809 134.632C137.243 134.973 136.582 135.144 135.825 135.144C135.046 135.144 134.337 134.952 133.697 134.568C133.067 134.184 132.571 133.645 132.209 132.952C131.846 132.259 131.665 131.469 131.665 130.584C131.665 129.688 131.846 128.904 132.209 128.232C132.571 127.549 133.067 127.021 133.697 126.648C134.337 126.275 135.046 126.088 135.825 126.088ZM139.089 130.6C139.089 129.939 138.955 129.363 138.689 128.872C138.422 128.381 138.059 128.008 137.601 127.752C137.153 127.485 136.657 127.352 136.113 127.352C135.569 127.352 135.073 127.48 134.625 127.736C134.177 127.992 133.819 128.365 133.553 128.856C133.286 129.347 133.153 129.923 133.153 130.584C133.153 131.256 133.286 131.843 133.553 132.344C133.819 132.835 134.177 133.213 134.625 133.48C135.073 133.736 135.569 133.864 136.113 133.864C136.657 133.864 137.153 133.736 137.601 133.48C138.059 133.213 138.422 132.835 138.689 132.344C138.955 131.843 139.089 131.261 139.089 130.6ZM151.021 130.28C151.021 130.557 151.005 130.851 150.973 131.16H143.965C144.018 132.024 144.312 132.701 144.845 133.192C145.389 133.672 146.045 133.912 146.813 133.912C147.442 133.912 147.965 133.768 148.381 133.48C148.808 133.181 149.106 132.787 149.277 132.296H150.845C150.61 133.139 150.141 133.827 149.437 134.36C148.733 134.883 147.858 135.144 146.813 135.144C145.981 135.144 145.234 134.957 144.573 134.584C143.922 134.211 143.41 133.683 143.037 133C142.664 132.307 142.477 131.507 142.477 130.6C142.477 129.693 142.658 128.899 143.021 128.216C143.384 127.533 143.89 127.011 144.541 126.648C145.202 126.275 145.96 126.088 146.813 126.088C147.645 126.088 148.381 126.269 149.021 126.632C149.661 126.995 150.152 127.496 150.493 128.136C150.845 128.765 151.021 129.48 151.021 130.28ZM149.517 129.976C149.517 129.421 149.394 128.947 149.149 128.552C148.904 128.147 148.568 127.843 148.141 127.64C147.725 127.427 147.261 127.32 146.749 127.32C146.013 127.32 145.384 127.555 144.861 128.024C144.349 128.493 144.056 129.144 143.981 129.976H149.517ZM152.399 130.584C152.399 129.688 152.58 128.904 152.943 128.232C153.306 127.549 153.802 127.021 154.431 126.648C155.071 126.275 155.78 126.088 156.559 126.088C157.327 126.088 157.994 126.253 158.559 126.584C159.124 126.915 159.546 127.331 159.823 127.832V126.232H161.295V135H159.823V133.368C159.535 133.88 159.103 134.307 158.527 134.648C157.962 134.979 157.3 135.144 156.543 135.144C155.764 135.144 155.06 134.952 154.431 134.568C153.802 134.184 153.306 133.645 152.943 132.952C152.58 132.259 152.399 131.469 152.399 130.584ZM159.823 130.6C159.823 129.939 159.69 129.363 159.423 128.872C159.156 128.381 158.794 128.008 158.335 127.752C157.887 127.485 157.391 127.352 156.847 127.352C156.303 127.352 155.807 127.48 155.359 127.736C154.911 127.992 154.554 128.365 154.287 128.856C154.02 129.347 153.887 129.923 153.887 130.584C153.887 131.256 154.02 131.843 154.287 132.344C154.554 132.835 154.911 133.213 155.359 133.48C155.807 133.736 156.303 133.864 156.847 133.864C157.391 133.864 157.887 133.736 158.335 133.48C158.794 133.213 159.156 132.835 159.423 132.344C159.69 131.843 159.823 131.261 159.823 130.6ZM165.211 127.864C165.51 127.341 165.947 126.915 166.523 126.584C167.099 126.253 167.755 126.088 168.491 126.088C169.281 126.088 169.99 126.275 170.619 126.648C171.249 127.021 171.745 127.549 172.107 128.232C172.47 128.904 172.651 129.688 172.651 130.584C172.651 131.469 172.47 132.259 172.107 132.952C171.745 133.645 171.243 134.184 170.603 134.568C169.974 134.952 169.27 135.144 168.491 135.144C167.734 135.144 167.067 134.979 166.491 134.648C165.926 134.317 165.499 133.896 165.211 133.384V135H163.755V123.16H165.211V127.864ZM171.163 130.584C171.163 129.923 171.03 129.347 170.763 128.856C170.497 128.365 170.134 127.992 169.675 127.736C169.227 127.48 168.731 127.352 168.187 127.352C167.654 127.352 167.158 127.485 166.699 127.752C166.251 128.008 165.889 128.387 165.611 128.888C165.345 129.379 165.211 129.949 165.211 130.6C165.211 131.261 165.345 131.843 165.611 132.344C165.889 132.835 166.251 133.213 166.699 133.48C167.158 133.736 167.654 133.864 168.187 133.864C168.731 133.864 169.227 133.736 169.675 133.48C170.134 133.213 170.497 132.835 170.763 132.344C171.03 131.843 171.163 131.256 171.163 130.584ZM176.024 123.16V135H174.568V123.16H176.024ZM186.505 130.28C186.505 130.557 186.489 130.851 186.457 131.16H179.449C179.503 132.024 179.796 132.701 180.329 133.192C180.873 133.672 181.529 133.912 182.297 133.912C182.927 133.912 183.449 133.768 183.865 133.48C184.292 133.181 184.591 132.787 184.761 132.296H186.329C186.095 133.139 185.625 133.827 184.921 134.36C184.217 134.883 183.343 135.144 182.297 135.144C181.465 135.144 180.719 134.957 180.057 134.584C179.407 134.211 178.895 133.683 178.521 133C178.148 132.307 177.961 131.507 177.961 130.6C177.961 129.693 178.143 128.899 178.505 128.216C178.868 127.533 179.375 127.011 180.025 126.648C180.687 126.275 181.444 126.088 182.297 126.088C183.129 126.088 183.865 126.269 184.505 126.632C185.145 126.995 185.636 127.496 185.977 128.136C186.329 128.765 186.505 129.48 186.505 130.28ZM185.001 129.976C185.001 129.421 184.879 128.947 184.633 128.552C184.388 128.147 184.052 127.843 183.625 127.64C183.209 127.427 182.745 127.32 182.233 127.32C181.497 127.32 180.868 127.555 180.345 128.024C179.833 128.493 179.54 129.144 179.465 129.976H185.001ZM195.797 135.144C195.125 135.144 194.522 135.032 193.989 134.808C193.456 134.573 193.034 134.253 192.725 133.848C192.416 133.432 192.245 132.957 192.213 132.424H193.717C193.76 132.861 193.962 133.219 194.325 133.496C194.698 133.773 195.184 133.912 195.781 133.912C196.336 133.912 196.773 133.789 197.093 133.544C197.413 133.299 197.573 132.989 197.573 132.616C197.573 132.232 197.402 131.949 197.061 131.768C196.72 131.576 196.192 131.389 195.477 131.208C194.826 131.037 194.293 130.867 193.877 130.696C193.472 130.515 193.12 130.253 192.821 129.912C192.533 129.56 192.389 129.101 192.389 128.536C192.389 128.088 192.522 127.677 192.789 127.304C193.056 126.931 193.434 126.637 193.925 126.424C194.416 126.2 194.976 126.088 195.605 126.088C196.576 126.088 197.36 126.333 197.957 126.824C198.554 127.315 198.874 127.987 198.917 128.84H197.461C197.429 128.381 197.242 128.013 196.901 127.736C196.57 127.459 196.122 127.32 195.557 127.32C195.034 127.32 194.618 127.432 194.309 127.656C194 127.88 193.845 128.173 193.845 128.536C193.845 128.824 193.936 129.064 194.117 129.256C194.309 129.437 194.544 129.587 194.821 129.704C195.109 129.811 195.504 129.933 196.005 130.072C196.634 130.243 197.146 130.413 197.541 130.584C197.936 130.744 198.272 130.989 198.549 131.32C198.837 131.651 198.986 132.083 198.997 132.616C198.997 133.096 198.864 133.528 198.597 133.912C198.33 134.296 197.952 134.6 197.461 134.824C196.981 135.037 196.426 135.144 195.797 135.144ZM208.828 126.232V135H207.372V133.704C207.095 134.152 206.706 134.504 206.204 134.76C205.714 135.005 205.17 135.128 204.572 135.128C203.89 135.128 203.276 134.989 202.732 134.712C202.188 134.424 201.756 133.997 201.436 133.432C201.127 132.867 200.972 132.179 200.972 131.368V126.232H202.412V131.176C202.412 132.04 202.631 132.707 203.068 133.176C203.506 133.635 204.103 133.864 204.86 133.864C205.639 133.864 206.252 133.624 206.7 133.144C207.148 132.664 207.372 131.965 207.372 131.048V126.232H208.828ZM212.743 127.656C212.999 127.155 213.361 126.765 213.831 126.488C214.311 126.211 214.892 126.072 215.575 126.072V127.576H215.191C213.559 127.576 212.743 128.461 212.743 130.232V135H211.287V126.232H212.743V127.656ZM222.273 124.808C221.996 124.808 221.761 124.712 221.569 124.52C221.377 124.328 221.281 124.093 221.281 123.816C221.281 123.539 221.377 123.304 221.569 123.112C221.761 122.92 221.996 122.824 222.273 122.824C222.54 122.824 222.764 122.92 222.945 123.112C223.137 123.304 223.233 123.539 223.233 123.816C223.233 124.093 223.137 124.328 222.945 124.52C222.764 124.712 222.54 124.808 222.273 124.808ZM222.977 126.232V135H221.521V126.232H222.977ZM230.515 135.112C229.48 135.112 228.536 134.872 227.683 134.392C226.829 133.901 226.152 133.224 225.651 132.36C225.16 131.485 224.915 130.504 224.915 129.416C224.915 128.328 225.16 127.352 225.651 126.488C226.152 125.613 226.829 124.936 227.683 124.456C228.536 123.965 229.48 123.72 230.515 123.72C231.56 123.72 232.509 123.965 233.363 124.456C234.216 124.936 234.888 125.608 235.379 126.472C235.869 127.336 236.115 128.317 236.115 129.416C236.115 130.515 235.869 131.496 235.379 132.36C234.888 133.224 234.216 133.901 233.363 134.392C232.509 134.872 231.56 135.112 230.515 135.112ZM230.515 133.848C231.293 133.848 231.992 133.667 232.611 133.304C233.24 132.941 233.731 132.424 234.083 131.752C234.445 131.08 234.627 130.301 234.627 129.416C234.627 128.52 234.445 127.741 234.083 127.08C233.731 126.408 233.245 125.891 232.627 125.528C232.008 125.165 231.304 124.984 230.515 124.984C229.725 124.984 229.021 125.165 228.403 125.528C227.784 125.891 227.293 126.408 226.931 127.08C226.579 127.741 226.403 128.52 226.403 129.416C226.403 130.301 226.579 131.08 226.931 131.752C227.293 132.424 227.784 132.941 228.403 133.304C229.032 133.667 229.736 133.848 230.515 133.848ZM241.573 135.112C240.837 135.112 240.175 134.984 239.589 134.728C239.013 134.461 238.559 134.099 238.229 133.64C237.898 133.171 237.727 132.632 237.717 132.024H239.269C239.322 132.547 239.535 132.989 239.909 133.352C240.293 133.704 240.847 133.88 241.573 133.88C242.266 133.88 242.81 133.709 243.205 133.368C243.61 133.016 243.813 132.568 243.813 132.024C243.813 131.597 243.695 131.251 243.461 130.984C243.226 130.717 242.933 130.515 242.581 130.376C242.229 130.237 241.754 130.088 241.157 129.928C240.421 129.736 239.829 129.544 239.381 129.352C238.943 129.16 238.565 128.861 238.245 128.456C237.935 128.04 237.781 127.485 237.781 126.792C237.781 126.184 237.935 125.645 238.245 125.176C238.554 124.707 238.986 124.344 239.541 124.088C240.106 123.832 240.751 123.704 241.477 123.704C242.522 123.704 243.375 123.965 244.037 124.488C244.709 125.011 245.087 125.704 245.173 126.568H243.573C243.519 126.141 243.295 125.768 242.901 125.448C242.506 125.117 241.983 124.952 241.333 124.952C240.725 124.952 240.229 125.112 239.845 125.432C239.461 125.741 239.269 126.179 239.269 126.744C239.269 127.149 239.381 127.48 239.605 127.736C239.839 127.992 240.122 128.189 240.453 128.328C240.794 128.456 241.269 128.605 241.877 128.776C242.613 128.979 243.205 129.181 243.653 129.384C244.101 129.576 244.485 129.88 244.805 130.296C245.125 130.701 245.285 131.256 245.285 131.96C245.285 132.504 245.141 133.016 244.853 133.496C244.565 133.976 244.138 134.365 243.573 134.664C243.007 134.963 242.341 135.112 241.573 135.112ZM105.779 154.28C105.779 154.557 105.763 154.851 105.731 155.16H98.7229C98.7762 156.024 99.0695 156.701 99.6029 157.192C100.147 157.672 100.803 157.912 101.571 157.912C102.2 157.912 102.723 157.768 103.139 157.48C103.566 157.181 103.864 156.787 104.035 156.296H105.603C105.368 157.139 104.899 157.827 104.195 158.36C103.491 158.883 102.616 159.144 101.571 159.144C100.739 159.144 99.9922 158.957 99.3309 158.584C98.6802 158.211 98.1682 157.683 97.7949 157C97.4215 156.307 97.2349 155.507 97.2349 154.6C97.2349 153.693 97.4162 152.899 97.7789 152.216C98.1415 151.533 98.6482 151.011 99.2989 150.648C99.9602 150.275 100.718 150.088 101.571 150.088C102.403 150.088 103.139 150.269 103.779 150.632C104.419 150.995 104.91 151.496 105.251 152.136C105.603 152.765 105.779 153.48 105.779 154.28ZM104.275 153.976C104.275 153.421 104.152 152.947 103.907 152.552C103.662 152.147 103.326 151.843 102.899 151.64C102.483 151.427 102.019 151.32 101.507 151.32C100.771 151.32 100.142 151.555 99.6189 152.024C99.1069 152.493 98.8135 153.144 98.7389 153.976H104.275ZM109.477 151.432V156.6C109.477 157.027 109.567 157.331 109.749 157.512C109.93 157.683 110.245 157.768 110.693 157.768H111.765V159H110.453C109.642 159 109.034 158.813 108.629 158.44C108.223 158.067 108.021 157.453 108.021 156.6V151.432H106.885V150.232H108.021V148.024H109.477V150.232H111.765V151.432H109.477ZM126.243 151.08C125.933 150.429 125.485 149.928 124.899 149.576C124.312 149.213 123.629 149.032 122.851 149.032C122.072 149.032 121.368 149.213 120.739 149.576C120.12 149.928 119.629 150.44 119.267 151.112C118.915 151.773 118.739 152.541 118.739 153.416C118.739 154.291 118.915 155.059 119.267 155.72C119.629 156.381 120.12 156.893 120.739 157.256C121.368 157.608 122.072 157.784 122.851 157.784C123.939 157.784 124.835 157.459 125.539 156.808C126.243 156.157 126.653 155.277 126.771 154.168H122.323V152.984H128.323V154.104C128.237 155.021 127.949 155.864 127.459 156.632C126.968 157.389 126.323 157.992 125.523 158.44C124.723 158.877 123.832 159.096 122.851 159.096C121.816 159.096 120.872 158.856 120.019 158.376C119.165 157.885 118.488 157.208 117.987 156.344C117.496 155.48 117.251 154.504 117.251 153.416C117.251 152.328 117.496 151.352 117.987 150.488C118.488 149.613 119.165 148.936 120.019 148.456C120.872 147.965 121.816 147.72 122.851 147.72C124.035 147.72 125.08 148.013 125.987 148.6C126.904 149.187 127.571 150.013 127.987 151.08H126.243ZM134.072 159.144C133.25 159.144 132.504 158.957 131.832 158.584C131.17 158.211 130.648 157.683 130.264 157C129.89 156.307 129.704 155.507 129.704 154.6C129.704 153.704 129.896 152.915 130.28 152.232C130.674 151.539 131.208 151.011 131.88 150.648C132.552 150.275 133.304 150.088 134.136 150.088C134.968 150.088 135.72 150.275 136.392 150.648C137.064 151.011 137.592 151.533 137.976 152.216C138.37 152.899 138.568 153.693 138.568 154.6C138.568 155.507 138.365 156.307 137.96 157C137.565 157.683 137.026 158.211 136.344 158.584C135.661 158.957 134.904 159.144 134.072 159.144ZM134.072 157.864C134.594 157.864 135.085 157.741 135.544 157.496C136.002 157.251 136.37 156.883 136.648 156.392C136.936 155.901 137.08 155.304 137.08 154.6C137.08 153.896 136.941 153.299 136.664 152.808C136.386 152.317 136.024 151.955 135.576 151.72C135.128 151.475 134.642 151.352 134.12 151.352C133.586 151.352 133.096 151.475 132.648 151.72C132.21 151.955 131.858 152.317 131.592 152.808C131.325 153.299 131.192 153.896 131.192 154.6C131.192 155.315 131.32 155.917 131.576 156.408C131.842 156.899 132.194 157.267 132.632 157.512C133.069 157.747 133.549 157.864 134.072 157.864ZM144.306 159.144C143.485 159.144 142.738 158.957 142.066 158.584C141.405 158.211 140.882 157.683 140.498 157C140.125 156.307 139.938 155.507 139.938 154.6C139.938 153.704 140.13 152.915 140.514 152.232C140.909 151.539 141.442 151.011 142.114 150.648C142.786 150.275 143.538 150.088 144.37 150.088C145.202 150.088 145.954 150.275 146.626 150.648C147.298 151.011 147.826 151.533 148.21 152.216C148.605 152.899 148.802 153.693 148.802 154.6C148.802 155.507 148.599 156.307 148.194 157C147.799 157.683 147.261 158.211 146.578 158.584C145.895 158.957 145.138 159.144 144.306 159.144ZM144.306 157.864C144.829 157.864 145.319 157.741 145.778 157.496C146.237 157.251 146.605 156.883 146.882 156.392C147.17 155.901 147.314 155.304 147.314 154.6C147.314 153.896 147.175 153.299 146.898 152.808C146.621 152.317 146.258 151.955 145.81 151.72C145.362 151.475 144.877 151.352 144.354 151.352C143.821 151.352 143.33 151.475 142.882 151.72C142.445 151.955 142.093 152.317 141.826 152.808C141.559 153.299 141.426 153.896 141.426 154.6C141.426 155.315 141.554 155.917 141.81 156.408C142.077 156.899 142.429 157.267 142.866 157.512C143.303 157.747 143.783 157.864 144.306 157.864ZM154.332 150.088C155.09 150.088 155.751 150.253 156.316 150.584C156.892 150.915 157.319 151.331 157.596 151.832V150.232H159.068V159.192C159.068 159.992 158.898 160.701 158.556 161.32C158.215 161.949 157.724 162.44 157.084 162.792C156.455 163.144 155.719 163.32 154.876 163.32C153.724 163.32 152.764 163.048 151.996 162.504C151.228 161.96 150.775 161.219 150.636 160.28H152.076C152.236 160.813 152.567 161.24 153.068 161.56C153.57 161.891 154.172 162.056 154.876 162.056C155.676 162.056 156.327 161.805 156.828 161.304C157.34 160.803 157.596 160.099 157.596 159.192V157.352C157.308 157.864 156.882 158.291 156.316 158.632C155.751 158.973 155.09 159.144 154.332 159.144C153.554 159.144 152.844 158.952 152.204 158.568C151.575 158.184 151.079 157.645 150.716 156.952C150.354 156.259 150.172 155.469 150.172 154.584C150.172 153.688 150.354 152.904 150.716 152.232C151.079 151.549 151.575 151.021 152.204 150.648C152.844 150.275 153.554 150.088 154.332 150.088ZM157.596 154.6C157.596 153.939 157.463 153.363 157.196 152.872C156.93 152.381 156.567 152.008 156.108 151.752C155.66 151.485 155.164 151.352 154.62 151.352C154.076 151.352 153.58 151.48 153.132 151.736C152.684 151.992 152.327 152.365 152.06 152.856C151.794 153.347 151.66 153.923 151.66 154.584C151.66 155.256 151.794 155.843 152.06 156.344C152.327 156.835 152.684 157.213 153.132 157.48C153.58 157.736 154.076 157.864 154.62 157.864C155.164 157.864 155.66 157.736 156.108 157.48C156.567 157.213 156.93 156.835 157.196 156.344C157.463 155.843 157.596 155.261 157.596 154.6ZM162.985 147.16V159H161.529V147.16H162.985ZM173.466 154.28C173.466 154.557 173.45 154.851 173.418 155.16H166.41C166.464 156.024 166.757 156.701 167.29 157.192C167.834 157.672 168.49 157.912 169.258 157.912C169.888 157.912 170.41 157.768 170.826 157.48C171.253 157.181 171.552 156.787 171.722 156.296H173.29C173.056 157.139 172.586 157.827 171.882 158.36C171.178 158.883 170.304 159.144 169.258 159.144C168.426 159.144 167.68 158.957 167.018 158.584C166.368 158.211 165.856 157.683 165.482 157C165.109 156.307 164.922 155.507 164.922 154.6C164.922 153.693 165.104 152.899 165.466 152.216C165.829 151.533 166.336 151.011 166.986 150.648C167.648 150.275 168.405 150.088 169.258 150.088C170.09 150.088 170.826 150.269 171.466 150.632C172.106 150.995 172.597 151.496 172.938 152.136C173.29 152.765 173.466 153.48 173.466 154.28ZM171.962 153.976C171.962 153.421 171.84 152.947 171.594 152.552C171.349 152.147 171.013 151.843 170.586 151.64C170.17 151.427 169.706 151.32 169.194 151.32C168.458 151.32 167.829 151.555 167.306 152.024C166.794 152.493 166.501 153.144 166.426 153.976H171.962ZM187.11 151.112C187.11 152.04 186.79 152.813 186.15 153.432C185.521 154.04 184.555 154.344 183.254 154.344H181.11V159H179.654V147.848H183.254C184.513 147.848 185.467 148.152 186.118 148.76C186.779 149.368 187.11 150.152 187.11 151.112ZM183.254 153.144C184.065 153.144 184.662 152.968 185.046 152.616C185.43 152.264 185.622 151.763 185.622 151.112C185.622 149.736 184.833 149.048 183.254 149.048H181.11V153.144H183.254ZM190.376 147.16V159H188.92V147.16H190.376ZM192.313 154.584C192.313 153.688 192.494 152.904 192.857 152.232C193.22 151.549 193.716 151.021 194.345 150.648C194.985 150.275 195.694 150.088 196.473 150.088C197.241 150.088 197.908 150.253 198.473 150.584C199.038 150.915 199.46 151.331 199.737 151.832V150.232H201.209V159H199.737V157.368C199.449 157.88 199.017 158.307 198.441 158.648C197.876 158.979 197.214 159.144 196.457 159.144C195.678 159.144 194.974 158.952 194.345 158.568C193.716 158.184 193.22 157.645 192.857 156.952C192.494 156.259 192.313 155.469 192.313 154.584ZM199.737 154.6C199.737 153.939 199.604 153.363 199.337 152.872C199.07 152.381 198.708 152.008 198.249 151.752C197.801 151.485 197.305 151.352 196.761 151.352C196.217 151.352 195.721 151.48 195.273 151.736C194.825 151.992 194.468 152.365 194.201 152.856C193.934 153.347 193.801 153.923 193.801 154.584C193.801 155.256 193.934 155.843 194.201 156.344C194.468 156.835 194.825 157.213 195.273 157.48C195.721 157.736 196.217 157.864 196.761 157.864C197.305 157.864 197.801 157.736 198.249 157.48C198.708 157.213 199.07 156.835 199.337 156.344C199.604 155.843 199.737 155.261 199.737 154.6ZM211.222 150.232L205.942 163.128H204.438L206.166 158.904L202.63 150.232H204.246L206.998 157.336L209.718 150.232H211.222Z" fill="white"/>
<path d="M66.5232 65.9129C65.5499 65.9129 64.6699 65.7463 63.8832 65.4129C63.1099 65.0796 62.4965 64.5996 62.0432 63.9729C61.5899 63.3463 61.3565 62.6063 61.3432 61.7529H64.3432C64.3832 62.3263 64.5832 62.7796 64.9432 63.1129C65.3165 63.4463 65.8232 63.6129 66.4632 63.6129C67.1165 63.6129 67.6299 63.4596 68.0032 63.1529C68.3765 62.8329 68.5632 62.4196 68.5632 61.9129C68.5632 61.4996 68.4365 61.1596 68.1832 60.8929C67.9299 60.6263 67.6099 60.4196 67.2232 60.2729C66.8499 60.1129 66.3299 59.9396 65.6632 59.7529C64.7565 59.4863 64.0165 59.2263 63.4432 58.9729C62.8832 58.7063 62.3965 58.3129 61.9832 57.7929C61.5832 57.2596 61.3832 56.5529 61.3832 55.6729C61.3832 54.8463 61.5899 54.1263 62.0032 53.5129C62.4165 52.8996 62.9965 52.4329 63.7432 52.1129C64.4899 51.7796 65.3432 51.6129 66.3032 51.6129C67.7432 51.6129 68.9099 51.9663 69.8032 52.6729C70.7099 53.3663 71.2099 54.3396 71.3032 55.5929H68.2232C68.1965 55.1129 67.9899 54.7196 67.6032 54.4129C67.2299 54.0929 66.7299 53.9329 66.1032 53.9329C65.5565 53.9329 65.1165 54.0729 64.7832 54.3529C64.4632 54.6329 64.3032 55.0396 64.3032 55.5729C64.3032 55.9463 64.4232 56.2596 64.6632 56.5129C64.9165 56.7529 65.2232 56.9529 65.5832 57.1129C65.9565 57.2596 66.4765 57.4329 67.1432 57.6329C68.0499 57.8996 68.7899 58.1663 69.3632 58.4329C69.9365 58.6996 70.4299 59.0996 70.8432 59.6329C71.2565 60.1663 71.4632 60.8663 71.4632 61.7329C71.4632 62.4796 71.2699 63.1729 70.8832 63.8129C70.4965 64.4529 69.9299 64.9663 69.1832 65.3529C68.4365 65.7263 67.5499 65.9129 66.5232 65.9129ZM75.3107 53.3729C74.8174 53.3729 74.404 53.2196 74.0707 52.9129C73.7507 52.5929 73.5907 52.1996 73.5907 51.7329C73.5907 51.2663 73.7507 50.8796 74.0707 50.5729C74.404 50.2529 74.8174 50.0929 75.3107 50.0929C75.804 50.0929 76.2107 50.2529 76.5307 50.5729C76.864 50.8796 77.0307 51.2663 77.0307 51.7329C77.0307 52.1996 76.864 52.5929 76.5307 52.9129C76.2107 53.2196 75.804 53.3729 75.3107 53.3729ZM76.6907 54.6929V65.7729H73.8907V54.6929H76.6907ZM83.7971 54.5129C84.6238 54.5129 85.3504 54.6796 85.9771 55.0129C86.6038 55.3329 87.0971 55.7529 87.4571 56.2729V54.6929H90.2771V65.8529C90.2771 66.8796 90.0704 67.7929 89.6571 68.5929C89.2438 69.4063 88.6238 70.0463 87.7971 70.5129C86.9704 70.9929 85.9704 71.2329 84.7971 71.2329C83.2238 71.2329 81.9304 70.8663 80.9171 70.1329C79.9171 69.3996 79.3504 68.3996 79.2171 67.1329H81.9971C82.1438 67.6396 82.4571 68.0396 82.9371 68.3329C83.4304 68.6396 84.0238 68.7929 84.7171 68.7929C85.5304 68.7929 86.1904 68.5463 86.6971 68.0529C87.2038 67.5729 87.4571 66.8396 87.4571 65.8529V64.1329C87.0971 64.6529 86.5971 65.0863 85.9571 65.4329C85.3304 65.7796 84.6104 65.9529 83.7971 65.9529C82.8638 65.9529 82.0104 65.7129 81.2371 65.2329C80.4638 64.7529 79.8504 64.0796 79.3971 63.2129C78.9571 62.3329 78.7371 61.3263 78.7371 60.1929C78.7371 59.0729 78.9571 58.0796 79.3971 57.2129C79.8504 56.3463 80.4571 55.6796 81.2171 55.2129C81.9904 54.7463 82.8504 54.5129 83.7971 54.5129ZM87.4571 60.2329C87.4571 59.5529 87.3238 58.9729 87.0571 58.4929C86.7904 57.9996 86.4304 57.6263 85.9771 57.3729C85.5238 57.1063 85.0371 56.9729 84.5171 56.9729C83.9971 56.9729 83.5171 57.0996 83.0771 57.3529C82.6371 57.6063 82.2771 57.9796 81.9971 58.4729C81.7304 58.9529 81.5971 59.5263 81.5971 60.1929C81.5971 60.8596 81.7304 61.4463 81.9971 61.9529C82.2771 62.4463 82.6371 62.8263 83.0771 63.0929C83.5304 63.3596 84.0104 63.4929 84.5171 63.4929C85.0371 63.4929 85.5238 63.3663 85.9771 63.1129C86.4304 62.8463 86.7904 62.4729 87.0571 61.9929C87.3238 61.4996 87.4571 60.9129 87.4571 60.2329ZM99.1518 54.5329C100.472 54.5329 101.538 54.9529 102.352 55.7929C103.165 56.6196 103.572 57.7796 103.572 59.2729V65.7729H100.772V59.6529C100.772 58.7729 100.552 58.0996 100.112 57.6329C99.6718 57.1529 99.0718 56.9129 98.3118 56.9129C97.5384 56.9129 96.9251 57.1529 96.4718 57.6329C96.0318 58.0996 95.8118 58.7729 95.8118 59.6529V65.7729H93.0118V54.6929H95.8118V56.0729C96.1851 55.5929 96.6584 55.2196 97.2318 54.9529C97.8184 54.6729 98.4584 54.5329 99.1518 54.5329ZM105.514 60.1929C105.514 59.0729 105.734 58.0796 106.174 57.2129C106.628 56.3463 107.234 55.6796 107.994 55.2129C108.768 54.7463 109.628 54.5129 110.574 54.5129C111.401 54.5129 112.121 54.6796 112.734 55.0129C113.361 55.3463 113.861 55.7663 114.234 56.2729V54.6929H117.054V65.7729H114.234V64.1529C113.874 64.6729 113.374 65.1063 112.734 65.4529C112.108 65.7863 111.381 65.9529 110.554 65.9529C109.621 65.9529 108.768 65.7129 107.994 65.2329C107.234 64.7529 106.628 64.0796 106.174 63.2129C105.734 62.3329 105.514 61.3263 105.514 60.1929ZM114.234 60.2329C114.234 59.5529 114.101 58.9729 113.834 58.4929C113.568 57.9996 113.208 57.6263 112.754 57.3729C112.301 57.1063 111.814 56.9729 111.294 56.9729C110.774 56.9729 110.294 57.0996 109.854 57.3529C109.414 57.6063 109.054 57.9796 108.774 58.4729C108.508 58.9529 108.374 59.5263 108.374 60.1929C108.374 60.8596 108.508 61.4463 108.774 61.9529C109.054 62.4463 109.414 62.8263 109.854 63.0929C110.308 63.3596 110.788 63.4929 111.294 63.4929C111.814 63.4929 112.301 63.3663 112.754 63.1129C113.208 62.8463 113.568 62.4729 113.834 61.9929C114.101 61.4996 114.234 60.9129 114.234 60.2329ZM122.589 50.9729V65.7729H119.789V50.9729H122.589ZM135.656 59.9929C135.656 60.3929 135.629 60.7529 135.576 61.0729H127.476C127.542 61.8729 127.822 62.4996 128.316 62.9529C128.809 63.4063 129.416 63.6329 130.136 63.6329C131.176 63.6329 131.916 63.1863 132.356 62.2929H135.376C135.056 63.3596 134.442 64.2396 133.536 64.9329C132.629 65.6129 131.516 65.9529 130.196 65.9529C129.129 65.9529 128.169 65.7196 127.316 65.2529C126.476 64.7729 125.816 64.0996 125.336 63.2329C124.869 62.3663 124.636 61.3663 124.636 60.2329C124.636 59.0863 124.869 58.0796 125.336 57.2129C125.802 56.3463 126.456 55.6796 127.296 55.2129C128.136 54.7463 129.102 54.5129 130.196 54.5129C131.249 54.5129 132.189 54.7396 133.016 55.1929C133.856 55.6463 134.502 56.2929 134.956 57.1329C135.422 57.9596 135.656 58.9129 135.656 59.9929ZM132.756 59.1929C132.742 58.4729 132.482 57.8996 131.976 57.4729C131.469 57.0329 130.849 56.8129 130.116 56.8129C129.422 56.8129 128.836 57.0263 128.356 57.4529C127.889 57.8663 127.602 58.4463 127.496 59.1929H132.756ZM140.499 56.4129C140.859 55.8263 141.326 55.3663 141.899 55.0329C142.486 54.6996 143.153 54.5329 143.899 54.5329V57.4729H143.159C142.279 57.4729 141.613 57.6796 141.159 58.0929C140.719 58.5063 140.499 59.2263 140.499 60.2529V65.7729H137.699V54.6929H140.499V56.4129ZM161.011 54.6929V65.7729H158.191V64.3729C157.831 64.8529 157.358 65.2329 156.771 65.5129C156.198 65.7796 155.571 65.9129 154.891 65.9129C154.024 65.9129 153.258 65.7329 152.591 65.3729C151.924 64.9996 151.398 64.4596 151.011 63.7529C150.638 63.0329 150.451 62.1796 150.451 61.1929V54.6929H153.251V60.7929C153.251 61.6729 153.471 62.3529 153.911 62.8329C154.351 63.2996 154.951 63.5329 155.711 63.5329C156.484 63.5329 157.091 63.2996 157.531 62.8329C157.971 62.3529 158.191 61.6729 158.191 60.7929V54.6929H161.011ZM169.914 54.5329C171.234 54.5329 172.3 54.9529 173.114 55.7929C173.927 56.6196 174.334 57.7796 174.334 59.2729V65.7729H171.534V59.6529C171.534 58.7729 171.314 58.0996 170.874 57.6329C170.434 57.1529 169.834 56.9129 169.074 56.9129C168.3 56.9129 167.687 57.1529 167.234 57.6329C166.794 58.0996 166.574 58.7729 166.574 59.6529V65.7729H163.774V54.6929H166.574V56.0729C166.947 55.5929 167.42 55.2196 167.994 54.9529C168.58 54.6729 169.22 54.5329 169.914 54.5329ZM181.042 60.2329C181.042 59.0863 181.275 58.0863 181.742 57.2329C182.208 56.3663 182.855 55.6996 183.682 55.2329C184.508 54.7529 185.455 54.5129 186.522 54.5129C187.895 54.5129 189.028 54.8596 189.922 55.5529C190.828 56.2329 191.435 57.1929 191.742 58.4329H188.722C188.562 57.9529 188.288 57.5796 187.902 57.3129C187.528 57.0329 187.062 56.8929 186.502 56.8929C185.702 56.8929 185.068 57.1863 184.602 57.7729C184.135 58.3463 183.902 59.1663 183.902 60.2329C183.902 61.2863 184.135 62.1063 184.602 62.6929C185.068 63.2663 185.702 63.5529 186.502 63.5529C187.635 63.5529 188.375 63.0463 188.722 62.0329H191.742C191.435 63.2329 190.828 64.1863 189.922 64.8929C189.015 65.5996 187.882 65.9529 186.522 65.9529C185.455 65.9529 184.508 65.7196 183.682 65.2529C182.855 64.7729 182.208 64.1063 181.742 63.2529C181.275 62.3863 181.042 61.3796 181.042 60.2329ZM193.073 60.1929C193.073 59.0729 193.293 58.0796 193.733 57.2129C194.186 56.3463 194.793 55.6796 195.553 55.2129C196.326 54.7463 197.186 54.5129 198.133 54.5129C198.96 54.5129 199.68 54.6796 200.293 55.0129C200.92 55.3463 201.42 55.7663 201.793 56.2729V54.6929H204.613V65.7729H201.793V64.1529C201.433 64.6729 200.933 65.1063 200.293 65.4529C199.666 65.7863 198.94 65.9529 198.113 65.9529C197.18 65.9529 196.326 65.7129 195.553 65.2329C194.793 64.7529 194.186 64.0796 193.733 63.2129C193.293 62.3329 193.073 61.3263 193.073 60.1929ZM201.793 60.2329C201.793 59.5529 201.66 58.9729 201.393 58.4929C201.126 57.9996 200.766 57.6263 200.313 57.3729C199.86 57.1063 199.373 56.9729 198.853 56.9729C198.333 56.9729 197.853 57.0996 197.413 57.3529C196.973 57.6063 196.613 57.9796 196.333 58.4729C196.066 58.9529 195.933 59.5263 195.933 60.1929C195.933 60.8596 196.066 61.4463 196.333 61.9529C196.613 62.4463 196.973 62.8263 197.413 63.0929C197.866 63.3596 198.346 63.4929 198.853 63.4929C199.373 63.4929 199.86 63.3663 200.313 63.1129C200.766 62.8463 201.126 62.4729 201.393 61.9929C201.66 61.4996 201.793 60.9129 201.793 60.2329ZM211.588 65.9529C210.681 65.9529 209.868 65.7929 209.148 65.4729C208.428 65.1396 207.854 64.6929 207.428 64.1329C207.014 63.5729 206.788 62.9529 206.748 62.2729H209.568C209.621 62.6996 209.828 63.0529 210.188 63.3329C210.561 63.6129 211.021 63.7529 211.568 63.7529C212.101 63.7529 212.514 63.6463 212.808 63.4329C213.114 63.2196 213.268 62.9463 213.268 62.6129C213.268 62.2529 213.081 61.9863 212.708 61.8129C212.348 61.6263 211.768 61.4263 210.968 61.2129C210.141 61.0129 209.461 60.8063 208.928 60.5929C208.408 60.3796 207.954 60.0529 207.568 59.6129C207.194 59.1729 207.008 58.5796 207.008 57.8329C207.008 57.2196 207.181 56.6596 207.528 56.1529C207.888 55.6463 208.394 55.2463 209.048 54.9529C209.714 54.6596 210.494 54.5129 211.388 54.5129C212.708 54.5129 213.761 54.8463 214.548 55.5129C215.334 56.1663 215.768 57.0529 215.848 58.1729H213.168C213.128 57.7329 212.941 57.3863 212.608 57.1329C212.288 56.8663 211.854 56.7329 211.308 56.7329C210.801 56.7329 210.408 56.8263 210.128 57.0129C209.861 57.1996 209.728 57.4596 209.728 57.7929C209.728 58.1663 209.914 58.4529 210.288 58.6529C210.661 58.8396 211.241 59.0329 212.028 59.2329C212.828 59.4329 213.488 59.6396 214.008 59.8529C214.528 60.0663 214.974 60.3996 215.348 60.8529C215.734 61.2929 215.934 61.8796 215.948 62.6129C215.948 63.2529 215.768 63.8263 215.408 64.3329C215.061 64.8396 214.554 65.2396 213.888 65.5329C213.234 65.8129 212.468 65.9529 211.588 65.9529ZM222.292 60.1929C222.292 59.0729 222.512 58.0796 222.952 57.2129C223.405 56.3463 224.018 55.6796 224.792 55.2129C225.565 54.7463 226.425 54.5129 227.372 54.5129C228.092 54.5129 228.778 54.6729 229.432 54.9929C230.085 55.2996 230.605 55.7129 230.992 56.2329V50.9729H233.832V65.7729H230.992V64.1329C230.645 64.6796 230.158 65.1196 229.532 65.4529C228.905 65.7863 228.178 65.9529 227.352 65.9529C226.418 65.9529 225.565 65.7129 224.792 65.2329C224.018 64.7529 223.405 64.0796 222.952 63.2129C222.512 62.3329 222.292 61.3263 222.292 60.1929ZM231.012 60.2329C231.012 59.5529 230.878 58.9729 230.612 58.4929C230.345 57.9996 229.985 57.6263 229.532 57.3729C229.078 57.1063 228.592 56.9729 228.072 56.9729C227.552 56.9729 227.072 57.0996 226.632 57.3529C226.192 57.6063 225.832 57.9796 225.552 58.4729C225.285 58.9529 225.152 59.5263 225.152 60.1929C225.152 60.8596 225.285 61.4463 225.552 61.9529C225.832 62.4463 226.192 62.8263 226.632 63.0929C227.085 63.3596 227.565 63.4929 228.072 63.4929C228.592 63.4929 229.078 63.3663 229.532 63.1129C229.985 62.8463 230.345 62.4729 230.612 61.9929C230.878 61.4996 231.012 60.9129 231.012 60.2329ZM246.866 59.9929C246.866 60.3929 246.84 60.7529 246.786 61.0729H238.686C238.753 61.8729 239.033 62.4996 239.526 62.9529C240.02 63.4063 240.626 63.6329 241.346 63.6329C242.386 63.6329 243.126 63.1863 243.566 62.2929H246.586C246.266 63.3596 245.653 64.2396 244.746 64.9329C243.84 65.6129 242.726 65.9529 241.406 65.9529C240.34 65.9529 239.38 65.7196 238.526 65.2529C237.686 64.7729 237.026 64.0996 236.546 63.2329C236.08 62.3663 235.846 61.3663 235.846 60.2329C235.846 59.0863 236.08 58.0796 236.546 57.2129C237.013 56.3463 237.666 55.6796 238.506 55.2129C239.346 54.7463 240.313 54.5129 241.406 54.5129C242.46 54.5129 243.4 54.7396 244.226 55.1929C245.066 55.6463 245.713 56.2929 246.166 57.1329C246.633 57.9596 246.866 58.9129 246.866 59.9929ZM243.966 59.1929C243.953 58.4729 243.693 57.8996 243.186 57.4729C242.68 57.0329 242.06 56.8129 241.326 56.8129C240.633 56.8129 240.046 57.0263 239.566 57.4529C239.1 57.8663 238.813 58.4463 238.706 59.1929H243.966ZM59.8113 90.2329C59.8113 89.0863 60.0446 88.0863 60.5113 87.2329C60.978 86.3663 61.6246 85.6996 62.4513 85.2329C63.278 84.7529 64.2246 84.5129 65.2913 84.5129C66.6646 84.5129 67.798 84.8596 68.6913 85.5529C69.598 86.2329 70.2046 87.1929 70.5113 88.4329H67.4913C67.3313 87.9529 67.058 87.5796 66.6713 87.3129C66.298 87.0329 65.8313 86.8929 65.2713 86.8929C64.4713 86.8929 63.838 87.1863 63.3713 87.7729C62.9046 88.3463 62.6713 89.1663 62.6713 90.2329C62.6713 91.2863 62.9046 92.1063 63.3713 92.6929C63.838 93.2663 64.4713 93.5529 65.2713 93.5529C66.4046 93.5529 67.1446 93.0463 67.4913 92.0329H70.5113C70.2046 93.2329 69.598 94.1863 68.6913 94.8929C67.7846 95.5996 66.6513 95.9529 65.2913 95.9529C64.2246 95.9529 63.278 95.7196 62.4513 95.2529C61.6246 94.7729 60.978 94.1063 60.5113 93.2529C60.0446 92.3863 59.8113 91.3796 59.8113 90.2329ZM83.1626 84.6929L76.3026 101.013H73.3226L75.7226 95.4929L71.2826 84.6929H74.4226L77.2826 92.4329L80.1826 84.6929H83.1626ZM87.4719 86.3129C87.8319 85.7796 88.3253 85.3463 88.9519 85.0129C89.5919 84.6796 90.3186 84.5129 91.1319 84.5129C92.0786 84.5129 92.9319 84.7463 93.6919 85.2129C94.4653 85.6796 95.0719 86.3463 95.5119 87.2129C95.9653 88.0663 96.1919 89.0596 96.1919 90.1929C96.1919 91.3263 95.9653 92.3329 95.5119 93.2129C95.0719 94.0796 94.4653 94.7529 93.6919 95.2329C92.9319 95.7129 92.0786 95.9529 91.1319 95.9529C90.3053 95.9529 89.5786 95.7929 88.9519 95.4729C88.3386 95.1396 87.8453 94.7129 87.4719 94.1929V95.7729H84.6719V80.9729H87.4719V86.3129ZM93.3319 90.1929C93.3319 89.5263 93.1919 88.9529 92.9119 88.4729C92.6453 87.9796 92.2853 87.6063 91.8319 87.3529C91.3919 87.0996 90.9119 86.9729 90.3919 86.9729C89.8853 86.9729 89.4053 87.1063 88.9519 87.3729C88.5119 87.6263 88.1519 87.9996 87.8719 88.4929C87.6053 88.9863 87.4719 89.5663 87.4719 90.2329C87.4719 90.8996 87.6053 91.4796 87.8719 91.9729C88.1519 92.4663 88.5119 92.8463 88.9519 93.1129C89.4053 93.3663 89.8853 93.4929 90.3919 93.4929C90.9119 93.4929 91.3919 93.3596 91.8319 93.0929C92.2853 92.8263 92.6453 92.4463 92.9119 91.9529C93.1919 91.4596 93.3319 90.8729 93.3319 90.1929ZM108.527 89.9929C108.527 90.3929 108.5 90.7529 108.447 91.0729H100.347C100.413 91.8729 100.693 92.4996 101.187 92.9529C101.68 93.4063 102.287 93.6329 103.007 93.6329C104.047 93.6329 104.787 93.1863 105.227 92.2929H108.247C107.927 93.3596 107.313 94.2396 106.407 94.9329C105.5 95.6129 104.387 95.9529 103.067 95.9529C102 95.9529 101.04 95.7196 100.187 95.2529C99.3466 94.7729 98.6866 94.0996 98.2066 93.2329C97.74 92.3663 97.5066 91.3663 97.5066 90.2329C97.5066 89.0863 97.74 88.0796 98.2066 87.2129C98.6733 86.3463 99.3266 85.6796 100.167 85.2129C101.007 84.7463 101.973 84.5129 103.067 84.5129C104.12 84.5129 105.06 84.7396 105.887 85.1929C106.727 85.6463 107.373 86.2929 107.827 87.1329C108.293 87.9596 108.527 88.9129 108.527 89.9929ZM105.627 89.1929C105.613 88.4729 105.353 87.8996 104.847 87.4729C104.34 87.0329 103.72 86.8129 102.987 86.8129C102.293 86.8129 101.707 87.0263 101.227 87.4529C100.76 87.8663 100.473 88.4463 100.367 89.1929H105.627ZM113.37 86.4129C113.73 85.8263 114.197 85.3663 114.77 85.0329C115.357 84.6996 116.024 84.5329 116.77 84.5329V87.4729H116.03C115.15 87.4729 114.484 87.6796 114.03 88.0929C113.59 88.5063 113.37 89.2263 113.37 90.2529V95.7729H110.57V84.6929H113.37V86.4129ZM124.896 84.5329C125.736 84.5329 126.483 84.7196 127.136 85.0929C127.79 85.4529 128.296 85.9929 128.656 86.7129C129.03 87.4196 129.216 88.2729 129.216 89.2729V95.7729H126.416V89.6529C126.416 88.7729 126.196 88.0996 125.756 87.6329C125.316 87.1529 124.716 86.9129 123.956 86.9129C123.183 86.9129 122.57 87.1529 122.116 87.6329C121.676 88.0996 121.456 88.7729 121.456 89.6529V95.7729H118.656V80.9729H121.456V86.0729C121.816 85.5929 122.296 85.2196 122.896 84.9529C123.496 84.6729 124.163 84.5329 124.896 84.5329ZM131.159 90.1929C131.159 89.0729 131.379 88.0796 131.819 87.2129C132.272 86.3463 132.879 85.6796 133.639 85.2129C134.412 84.7463 135.272 84.5129 136.219 84.5129C137.046 84.5129 137.766 84.6796 138.379 85.0129C139.006 85.3463 139.506 85.7663 139.879 86.2729V84.6929H142.699V95.7729H139.879V94.1529C139.519 94.6729 139.019 95.1063 138.379 95.4529C137.752 95.7863 137.026 95.9529 136.199 95.9529C135.266 95.9529 134.412 95.7129 133.639 95.2329C132.879 94.7529 132.272 94.0796 131.819 93.2129C131.379 92.3329 131.159 91.3263 131.159 90.1929ZM139.879 90.2329C139.879 89.5529 139.746 88.9729 139.479 88.4929C139.212 87.9996 138.852 87.6263 138.399 87.3729C137.946 87.1063 137.459 86.9729 136.939 86.9729C136.419 86.9729 135.939 87.0996 135.499 87.3529C135.059 87.6063 134.699 87.9796 134.419 88.4729C134.152 88.9529 134.019 89.5263 134.019 90.1929C134.019 90.8596 134.152 91.4463 134.419 91.9529C134.699 92.4463 135.059 92.8263 135.499 93.0929C135.952 93.3596 136.432 93.4929 136.939 93.4929C137.459 93.4929 137.946 93.3663 138.399 93.1129C138.852 92.8463 139.212 92.4729 139.479 91.9929C139.746 91.4996 139.879 90.9129 139.879 90.2329ZM148.234 86.4129C148.594 85.8263 149.06 85.3663 149.634 85.0329C150.22 84.6996 150.887 84.5329 151.634 84.5329V87.4729H150.894C150.014 87.4729 149.347 87.6796 148.894 88.0929C148.454 88.5063 148.234 89.2263 148.234 90.2529V95.7729H145.434V84.6929H148.234V86.4129ZM152.8 90.2329C152.8 89.0863 153.033 88.0863 153.5 87.2329C153.966 86.3663 154.613 85.6996 155.44 85.2329C156.266 84.7529 157.213 84.5129 158.28 84.5129C159.653 84.5129 160.786 84.8596 161.68 85.5529C162.586 86.2329 163.193 87.1929 163.5 88.4329H160.48C160.32 87.9529 160.046 87.5796 159.66 87.3129C159.286 87.0329 158.82 86.8929 158.26 86.8929C157.46 86.8929 156.826 87.1863 156.36 87.7729C155.893 88.3463 155.66 89.1663 155.66 90.2329C155.66 91.2863 155.893 92.1063 156.36 92.6929C156.826 93.2663 157.46 93.5529 158.26 93.5529C159.393 93.5529 160.133 93.0463 160.48 92.0329H163.5C163.193 93.2329 162.586 94.1863 161.68 94.8929C160.773 95.5996 159.64 95.9529 158.28 95.9529C157.213 95.9529 156.266 95.7196 155.44 95.2529C154.613 94.7729 153.966 94.1063 153.5 93.2529C153.033 92.3863 152.8 91.3796 152.8 90.2329ZM175.851 89.9929C175.851 90.3929 175.824 90.7529 175.771 91.0729H167.671C167.738 91.8729 168.018 92.4996 168.511 92.9529C169.004 93.4063 169.611 93.6329 170.331 93.6329C171.371 93.6329 172.111 93.1863 172.551 92.2929H175.571C175.251 93.3596 174.638 94.2396 173.731 94.9329C172.824 95.6129 171.711 95.9529 170.391 95.9529C169.324 95.9529 168.364 95.7196 167.511 95.2529C166.671 94.7729 166.011 94.0996 165.531 93.2329C165.064 92.3663 164.831 91.3663 164.831 90.2329C164.831 89.0863 165.064 88.0796 165.531 87.2129C165.998 86.3463 166.651 85.6796 167.491 85.2129C168.331 84.7463 169.298 84.5129 170.391 84.5129C171.444 84.5129 172.384 84.7396 173.211 85.1929C174.051 85.6463 174.698 86.2929 175.151 87.1329C175.618 87.9596 175.851 88.9129 175.851 89.9929ZM172.951 89.1929C172.938 88.4729 172.678 87.8996 172.171 87.4729C171.664 87.0329 171.044 86.8129 170.311 86.8129C169.618 86.8129 169.031 87.0263 168.551 87.4529C168.084 87.8663 167.798 88.4463 167.691 89.1929H172.951ZM172.531 81.8729V83.8729L167.931 81.7729V79.4929L172.531 81.8729ZM180.695 80.9729V95.7729H177.895V80.9729H180.695ZM193.761 89.9929C193.761 90.3929 193.734 90.7529 193.681 91.0729H185.581C185.648 91.8729 185.928 92.4996 186.421 92.9529C186.914 93.4063 187.521 93.6329 188.241 93.6329C189.281 93.6329 190.021 93.1863 190.461 92.2929H193.481C193.161 93.3596 192.548 94.2396 191.641 94.9329C190.734 95.6129 189.621 95.9529 188.301 95.9529C187.234 95.9529 186.274 95.7196 185.421 95.2529C184.581 94.7729 183.921 94.0996 183.441 93.2329C182.974 92.3663 182.741 91.3663 182.741 90.2329C182.741 89.0863 182.974 88.0796 183.441 87.2129C183.908 86.3463 184.561 85.6796 185.401 85.2129C186.241 84.7463 187.208 84.5129 188.301 84.5129C189.354 84.5129 190.294 84.7396 191.121 85.1929C191.961 85.6463 192.608 86.2929 193.061 87.1329C193.528 87.9596 193.761 88.9129 193.761 89.9929ZM190.861 89.1929C190.848 88.4729 190.588 87.8996 190.081 87.4729C189.574 87.0329 188.954 86.8129 188.221 86.8129C187.528 86.8129 186.941 87.0263 186.461 87.4529C185.994 87.8663 185.708 88.4463 185.601 89.1929H190.861ZM209.565 84.5329C210.925 84.5329 212.018 84.9529 212.845 85.7929C213.685 86.6196 214.105 87.7796 214.105 89.2729V95.7729H211.305V89.6529C211.305 88.7863 211.085 88.1263 210.645 87.6729C210.205 87.2063 209.605 86.9729 208.845 86.9729C208.085 86.9729 207.478 87.2063 207.025 87.6729C206.585 88.1263 206.365 88.7863 206.365 89.6529V95.7729H203.565V89.6529C203.565 88.7863 203.345 88.1263 202.905 87.6729C202.465 87.2063 201.865 86.9729 201.105 86.9729C200.331 86.9729 199.718 87.2063 199.265 87.6729C198.825 88.1263 198.605 88.7863 198.605 89.6529V95.7729H195.805V84.6929H198.605V86.0329C198.965 85.5663 199.425 85.1996 199.985 84.9329C200.558 84.6663 201.185 84.5329 201.865 84.5329C202.731 84.5329 203.505 84.7196 204.185 85.0929C204.865 85.4529 205.391 85.9729 205.765 86.6529C206.125 86.0129 206.645 85.4996 207.325 85.1129C208.018 84.7263 208.765 84.5329 209.565 84.5329ZM227.062 89.9929C227.062 90.3929 227.035 90.7529 226.982 91.0729H218.882C218.948 91.8729 219.228 92.4996 219.722 92.9529C220.215 93.4063 220.822 93.6329 221.542 93.6329C222.582 93.6329 223.322 93.1863 223.762 92.2929H226.782C226.462 93.3596 225.848 94.2396 224.942 94.9329C224.035 95.6129 222.922 95.9529 221.602 95.9529C220.535 95.9529 219.575 95.7196 218.722 95.2529C217.882 94.7729 217.222 94.0996 216.742 93.2329C216.275 92.3663 216.042 91.3663 216.042 90.2329C216.042 89.0863 216.275 88.0796 216.742 87.2129C217.208 86.3463 217.862 85.6796 218.702 85.2129C219.542 84.7463 220.508 84.5129 221.602 84.5129C222.655 84.5129 223.595 84.7396 224.422 85.1929C225.262 85.6463 225.908 86.2929 226.362 87.1329C226.828 87.9596 227.062 88.9129 227.062 89.9929ZM224.162 89.1929C224.148 88.4729 223.888 87.8996 223.382 87.4729C222.875 87.0329 222.255 86.8129 221.522 86.8129C220.828 86.8129 220.242 87.0263 219.762 87.4529C219.295 87.8663 219.008 88.4463 218.902 89.1929H224.162ZM235.246 84.5329C236.566 84.5329 237.632 84.9529 238.446 85.7929C239.259 86.6196 239.666 87.7796 239.666 89.2729V95.7729H236.866V89.6529C236.866 88.7729 236.646 88.0996 236.206 87.6329C235.766 87.1529 235.166 86.9129 234.406 86.9129C233.632 86.9129 233.019 87.1529 232.566 87.6329C232.126 88.0996 231.906 88.7729 231.906 89.6529V95.7729H229.106V84.6929H231.906V86.0729C232.279 85.5929 232.752 85.2196 233.326 84.9529C233.912 84.6729 234.552 84.5329 235.246 84.5329ZM245.588 86.9929V92.3529C245.588 92.7263 245.675 92.9996 245.848 93.1729C246.035 93.3329 246.342 93.4129 246.768 93.4129H248.068V95.7729H246.308C243.948 95.7729 242.768 94.6263 242.768 92.3329V86.9929H241.448V84.6929H242.768V81.9529H245.588V84.6929H248.068V86.9929H245.588Z" fill="white"/>
</svg>
