<svg width="306" height="211" viewBox="0 0 306 211" fill="none" xmlns="http://www.w3.org/2000/svg">
<rect width="306" height="211" rx="100" fill="#2F2D84"/>
<path d="M146.243 30C155.177 30 162.772 32.8947 169.028 38.6842C175.28 44.4781 178.405 51.5119 178.405 59.7857C178.405 65.3016 177.007 70.182 174.21 74.427C171.408 78.6765 168.042 82.0698 164.111 84.6071V59.7857C164.111 55.1524 162.384 51.2361 158.929 48.0369C155.475 44.8377 151.246 43.2381 146.243 43.2381C141.24 43.2381 137.012 44.8377 133.557 48.0369C130.103 51.2361 128.375 55.1524 128.375 59.7857V84.6071C124.325 82.0698 120.93 78.6213 118.191 74.2616C115.451 69.9062 114.081 65.081 114.081 59.7857C114.081 51.5119 117.207 44.4781 123.458 38.6842C129.714 32.8947 137.309 30 146.243 30ZM142.312 169C140.287 169 138.472 168.669 136.866 168.007C135.256 167.345 133.736 166.352 132.306 165.029L98 133.423L103.896 127.796C104.73 127.024 105.714 126.473 106.848 126.142C107.977 125.811 109.197 125.756 110.508 125.976L135.523 130.94V59.7857C135.523 57.0278 136.566 54.6846 138.653 52.7563C140.735 50.8235 143.265 49.8571 146.243 49.8571C149.221 49.8571 151.751 50.8235 153.834 52.7563C155.92 54.6846 156.964 57.0278 156.964 59.7857V99.5H161.252C162.324 99.5 163.425 99.6103 164.554 99.831C165.688 100.052 166.732 100.383 167.685 100.824L199.132 114.393C201.991 115.606 204.107 117.482 205.479 120.019C206.846 122.556 207.292 125.259 206.815 128.127L202.348 157.582C201.872 160.781 200.264 163.484 197.524 165.69C194.784 167.897 191.687 169 188.233 169H142.312Z" fill="#FFB7D6"/>
<path d="M79.64 118.48C67.64 96.16 63.98 85.48 59.6 86.02C55.22 85.48 51.56 96.16 39.56 118.48C36.56 125.8 49.1 130.72 52.7 123.22L54.5 116.44L59.6 116.26L64.7 116.44L66.5 123.22C70.1 130.72 82.64 125.8 79.64 118.48ZM62.24 107.92C53.66 110.14 56.18 109.78 59.48 100.36C59.78 99.7 59.96 99.76 60.2 100.24L62.6 107.14C62.84 107.8 62.9 107.8 62.24 107.92ZM88.7703 127.12C91.4103 127.12 94.2303 124.84 94.4703 120.4L94.5903 115.66C101.13 114.4 106.95 110.32 109.89 104.26C110.79 102.46 111.39 100.72 111.69 98.92C111.81 98.14 111.87 97.36 111.87 96.64C111.87 95.68 111.75 94.78 111.57 93.88C111.21 92.26 110.55 90.88 109.53 89.68C108.51 88.54 107.13 87.64 105.45 87.04C104.07 86.56 101.01 86.2 97.5903 86.2C90.9903 86.2 83.0703 87.46 83.0703 91.3L83.6703 120.76C83.7303 125.08 86.1903 127.12 88.7703 127.12ZM94.1703 105.16L93.2703 105.04L93.9303 98.26C94.5303 97.84 95.1903 97.48 95.8503 97.3C96.4503 97.12 97.0503 97 97.5303 97C99.2103 97 100.41 97.96 100.41 99.58C100.41 101.62 98.3703 104.02 95.8503 104.86C95.2503 105.04 94.6503 105.16 94.1703 105.16ZM120.587 127.12C123.227 127.12 126.047 124.84 126.287 120.4L126.407 115.66C132.947 114.4 138.767 110.32 141.707 104.26C142.607 102.46 143.207 100.72 143.507 98.92C143.627 98.14 143.687 97.36 143.687 96.64C143.687 95.68 143.567 94.78 143.387 93.88C143.027 92.26 142.367 90.88 141.347 89.68C140.327 88.54 138.947 87.64 137.267 87.04C135.887 86.56 132.827 86.2 129.407 86.2C122.807 86.2 114.887 87.46 114.887 91.3L115.487 120.76C115.547 125.08 118.007 127.12 120.587 127.12ZM125.987 105.16L125.087 105.04L125.747 98.26C126.347 97.84 127.007 97.48 127.667 97.3C128.267 97.12 128.867 97 129.347 97C131.027 97 132.227 97.96 132.227 99.58C132.227 101.62 130.187 104.02 127.667 104.86C127.067 105.04 126.467 105.16 125.987 105.16ZM162.543 127.12C165.423 127.12 168.183 126.28 170.463 124.42C172.863 122.38 173.643 120.52 174.243 117.4C174.363 116.62 174.423 115.84 174.423 115.06L174.363 113.32C174.183 111.88 173.643 110.38 172.743 108.88C171.843 107.38 170.463 106 168.543 104.8C170.403 103.54 171.723 102.22 172.443 100.84C173.103 99.58 173.403 98.38 173.403 97.24V96.94C173.403 95.74 173.163 94.66 172.743 93.64C172.323 92.68 171.903 91.9 171.483 91.36C171.063 90.82 170.823 90.52 170.823 90.46L169.803 89.56C169.143 89.02 168.183 88.42 166.803 87.82C165.483 87.22 163.923 86.86 162.063 86.74L160.863 86.68C156.723 86.68 152.403 88.36 149.103 90.82C148.143 91.66 147.783 92.8 147.783 94C147.783 96.82 149.823 99.88 151.983 99.88C152.463 99.88 152.943 99.7 153.423 99.34C154.863 98.26 156.963 97.18 158.943 97.18C159.963 97.18 160.983 97.54 161.763 98.32L162.003 98.92C162.123 99.1 162.123 99.28 162.123 99.52C162.123 99.7 162.123 99.88 162.003 100.12C161.763 100.6 161.283 100.96 160.443 101.26C159.903 101.44 159.183 101.56 158.163 101.56L156.183 101.44C153.963 101.68 152.883 103.72 152.883 105.7C152.883 107.62 153.843 109.42 155.703 109.42C156.543 109.36 157.323 109.3 158.043 109.3C158.823 109.3 159.543 109.36 160.083 109.48C162.843 110.08 164.043 111.7 164.043 113.14C164.043 114.34 163.203 115.48 161.823 115.9C161.343 116.02 160.923 116.08 160.503 116.08C158.463 116.08 157.143 114.64 155.583 113.14C155.103 112.66 154.563 112.12 153.903 111.64C153.543 111.4 153.123 111.28 152.703 111.28C150.183 111.28 146.703 114.88 146.703 118.36C146.703 119.92 147.363 121.42 149.103 122.56C151.743 124.36 152.943 124.72 155.103 125.5C157.743 126.46 160.023 127 162.003 127.12H162.543ZM191.386 127C199.906 127 207.466 117.94 208.246 106.84C208.306 106.18 208.306 105.52 208.306 104.86C208.306 94.6 202.306 86.62 194.326 86.62C185.866 86.62 178.246 95.68 177.466 106.84C177.406 107.5 177.406 108.16 177.406 108.82C177.406 119.02 183.406 127 191.386 127ZM191.266 116.32C190.966 116.32 190.606 116.26 190.306 116.2C187.786 115.6 186.286 112.72 186.286 109.12C186.286 107.92 186.466 106.66 186.826 105.34C188.086 100.66 191.386 97.3 194.446 97.3C194.806 97.3 195.106 97.36 195.406 97.42C197.926 98.08 199.426 100.96 199.426 104.56C199.426 105.76 199.306 107.02 198.946 108.28C197.626 112.96 194.326 116.32 191.266 116.32ZM225.312 127.06C227.892 127.06 230.352 126.22 230.352 124.96L231.972 89.26C231.312 87.34 229.812 86.62 227.892 86.62C222.252 86.62 213.132 92.92 212.172 94.48C211.572 94.84 211.332 95.56 211.332 96.34C211.332 98.2 212.892 100.6 215.412 100.6H215.832L219.432 99.28L219.552 123.4C219.612 126.04 222.552 127.06 225.312 127.06ZM247.665 127.12C249.105 127.12 250.485 126.94 251.805 126.58C253.065 126.28 254.325 125.86 255.405 125.32C256.485 124.72 257.445 124.12 258.165 123.4C259.725 121.96 260.805 120.46 261.525 118.9C262.185 117.34 262.545 115.78 262.605 114.28V113.74C262.605 112.42 262.425 111.16 262.005 109.96C260.985 107.2 259.665 105.22 257.085 103.96C258.225 102.82 259.125 101.68 259.785 100.48C260.445 99.16 260.865 97.9 261.045 96.58L261.165 95.14C261.165 94.36 261.045 93.64 260.925 92.92C260.265 90.04 259.065 88.24 256.125 87.22C255.225 86.92 254.265 86.74 253.185 86.68H252.765C251.805 86.68 250.725 86.86 249.645 87.1C248.385 87.46 247.125 87.94 245.985 88.54C244.785 89.2 243.765 89.92 242.805 90.7C241.845 91.54 241.065 92.44 240.405 93.46C239.685 94.42 239.205 95.5 238.905 96.58C238.665 97.36 238.545 98.2 238.545 99.04L238.605 99.94C238.725 101.08 239.025 102.22 239.625 103.36C240.105 104.32 240.765 105.04 241.485 105.64C240.645 106.18 239.925 106.72 239.205 107.38C238.125 108.34 237.285 109.42 236.565 110.56C235.845 111.76 235.365 112.96 235.125 114.22C235.005 114.82 234.945 115.48 234.945 116.08C234.945 116.8 235.005 117.46 235.185 118.18C235.425 119.56 236.025 120.94 236.925 122.26C237.705 123.46 238.665 124.42 239.805 125.14C241.005 125.86 242.205 126.4 243.585 126.7C244.665 127 245.865 127.12 247.005 127.12H247.665ZM248.505 101.86C247.905 101.86 247.305 101.62 246.885 101.14C246.465 100.72 246.225 100 246.225 99.04V98.74C246.225 97.48 246.525 96.46 247.125 95.56C247.725 94.72 248.385 94.06 249.105 93.64C249.705 93.28 250.365 93.1 250.965 93.1L251.385 93.16C252.105 93.22 252.645 93.64 253.005 94.36C253.125 94.66 253.245 94.96 253.305 95.32L253.365 96.16V96.52C253.305 96.94 253.245 97.48 253.005 97.96C252.825 98.5 252.525 99.1 252.165 99.76C251.745 100.36 251.205 100.9 250.545 101.26C249.885 101.68 249.165 101.86 248.505 101.86ZM247.725 120.46C246.945 120.46 246.225 120.16 245.565 119.62C244.965 119.02 244.545 118.12 244.485 116.74L244.425 115.9C244.425 114.82 244.665 113.86 245.205 113.08C245.805 112.06 246.585 111.28 247.425 110.8C248.205 110.38 248.985 110.2 249.825 110.2H250.185C251.085 110.32 251.805 110.8 252.345 111.64C252.525 112 252.705 112.36 252.825 112.78C252.945 113.2 253.065 113.68 253.065 114.22C253.065 114.7 253.005 115.3 252.825 115.9C252.645 116.56 252.405 117.22 251.985 118C251.565 118.72 250.965 119.32 250.185 119.8C249.345 120.22 248.565 120.46 247.725 120.46Z" fill="white"/>
</svg>
