<svg width="50" height="50" viewBox="0 0 50 50" fill="none" xmlns="http://www.w3.org/2000/svg">
<path d="M19.5998 39.5999L33.5998 26C34.2998 25.2999 34.2998 24.1 33.5998 23.4L19.5998 9.79995C19.1998 9.39995 18.5998 9.19995 17.9998 9.19995C17.3998 9.19995 16.8998 9.49995 16.4998 9.89995C16.0998 10.3 15.8998 10.9 15.8998 11.5C15.8998 12.1 16.1998 12.6 16.5998 13L27.3998 23.4C28.0998 24.1 28.0998 25.2999 27.3998 26L16.4998 36.5C16.0998 36.9 15.7998 37.5 15.7998 38C15.7998 38.6 15.9998 39.0999 16.3998 39.5999C16.7998 39.9999 17.3998 40.2999 17.8998 40.2999C18.5998 40.2999 19.0998 39.9999 19.5998 39.5999Z" fill="#2F2D84"/>
<path d="M14.7998 38.1C14.7998 38 14.7998 38 14.7998 38.1C14.7998 37.2 15.1998 36.4 15.7998 35.8L26.5998 25.4C26.7998 25.2 26.8998 25 26.8998 24.8C26.8998 24.6 26.7998 24.4 26.5998 24.2L15.7998 13.8C15.1998 13.2 14.7998 12.4 14.7998 11.6C14.7998 10.7 15.0998 9.90005 15.6998 9.30005C16.2998 8.70005 17.0998 8.30005 17.8998 8.30005C18.6998 8.30005 19.5998 8.60005 20.1998 9.20005L34.1998 22.8C34.7998 23.3 35.0998 24.1 35.0998 24.8C35.0998 25.6 34.7998 26.3 34.1998 26.8L20.1998 40.4001C19.5998 41 18.7998 41.3 17.8998 41.3C17.0998 41.3 16.1998 40.9 15.6998 40.3C15.1998 39.7 14.7998 38.9 14.7998 38.1ZM33.1998 24.7001C33.1998 24.5 33.0998 24.3 32.8998 24.1L18.8998 10.5C18.6998 10.3 18.3998 10.2 17.9998 10.2C17.6998 10.2 17.3998 10.3 17.1998 10.6C16.9998 10.8 16.8998 11.1 16.8998 11.5C16.8998 11.8 16.9998 12.1 17.2998 12.3L27.9998 22.7C28.5998 23.2 28.8998 24.0001 28.8998 24.7001C28.8998 25.5 28.5998 26.2001 27.9998 26.7001L17.1998 37.2001C16.9998 37.4001 16.7998 37.7001 16.7998 38C16.7998 38.3 16.8998 38.6001 17.0998 38.9001C17.2998 39.1001 17.5998 39.3 17.8998 39.3C18.1998 39.3 18.3998 39.2001 18.6998 39L18.7998 38.9001L32.7998 25.3C33.0998 25.2 33.1998 25 33.1998 24.7001Z" fill="#2F2D84"/>
</svg>
