<svg width="92" height="94" viewBox="0 0 92 94" fill="none" xmlns="http://www.w3.org/2000/svg">
<path d="M44.2039 72.7559C42.7517 72.7559 41.2996 72.1919 40.392 71.0639C37.3061 67.6799 22.603 50.7599 22.603 37.9759C22.603 26.3199 32.2236 16.7319 44.0224 16.7319C56.0027 16.7319 65.6233 26.3199 65.6233 37.9759C65.6233 51.8879 48.0158 70.8759 47.8343 71.0639C46.9267 72.0039 45.6561 72.7559 44.2039 72.7559ZM44.2039 24.2519C36.3985 24.2519 30.0453 30.4559 30.0453 37.9759C30.0453 45.4959 38.7583 57.5279 44.3854 64.1079C48.9234 58.8439 58.544 46.0599 58.544 37.9759C58.3625 30.4559 52.0093 24.2519 44.2039 24.2519Z" fill="#2F2D84"/>
<path d="M44.2039 46.06C40.2104 46.06 36.7615 43.24 36.217 39.292C35.8539 37.224 36.3985 35.156 37.4876 33.464C38.7583 31.584 40.755 30.456 42.9332 30.08C47.2897 29.328 51.4647 32.336 52.1908 36.848C52.5538 38.916 52.0092 40.984 50.9201 42.676C49.6495 44.556 47.6527 45.684 45.4745 46.06C45.1115 46.06 44.5669 46.06 44.2039 46.06ZM44.2039 33.652C44.0224 33.652 43.6593 33.652 43.4778 33.652C42.2071 33.84 41.118 34.592 40.3919 35.532C39.8474 36.472 39.4843 37.6 39.6659 38.54C40.0289 40.984 42.3887 42.488 44.9299 42.112C46.2006 41.924 47.2897 41.172 48.0158 40.232C48.5603 39.292 48.9234 38.164 48.7419 37.224C48.3788 35.156 46.3821 33.652 44.2039 33.652Z" fill="#2F2D84"/>
</svg>
