<?xml version="1.0" encoding="UTF-8"?>
<svg xmlns="http://www.w3.org/2000/svg" viewBox="0 0 256.5 231.38">
  <defs>
    <style>
      .cls-1 {
        fill: #f6efef;
      }

      .cls-2 {
        fill: #f7f0ef;
      }

      .cls-3 {
        fill: #e99469;
      }

      .cls-4 {
        fill: #fff;
      }

      .cls-5 {
        fill: #752a78;
      }

      .cls-6 {
        fill: #861c55;
      }

      .cls-7 {
        fill: #333f77;
      }

      .cls-8 {
        fill: #8d92a6;
      }

      .cls-9 {
        fill: #c09da7;
      }

      .cls-10 {
        fill: #d8845b;
      }

      .cls-11 {
        fill: #c01c74;
      }

      .cls-12 {
        fill: #b11c6c;
      }

      .cls-13 {
        fill: #aa1c68;
      }

      .cls-14 {
        fill: #1e2237;
      }

      .cls-15 {
        fill: #8b2852;
      }

      .cls-16 {
        fill: #6d4886;
      }

      .cls-17 {
        fill: #562058;
      }

      .cls-18 {
        fill: #642368;
      }

      .cls-19 {
        fill: #5c2d7a;
      }

      .cls-20 {
        fill: #3a4887;
      }

      .cls-21 {
        fill: #591b5e;
      }
    </style>
  </defs>
  <g id="Ombre_BULLEE" data-name="Ombre BULLEE">
    <path class="cls-14" d="M27.08,167.15c-.4-.4,6.53-3.74,11.53-5.28,11.32-3.49,12.45-5.64,17.38-8.91,12.45-8.24,16.34-11.74,21.77-12.35,1.81-.21,3.74,.65,11.74-.23s8.83-1.54,10.55-2.13c3.04-1.04,3.69-1.22,9.61-3.61,4.43-1.79,6.58-3.01,9.03-3.35,8.52-1.19,6.77-.68,15.58-2,5.69-.85,8.64-1.24,12.48-2.48,5.96-1.93,8.12-3.81,13.74-6.87,10.19-5.55,14.08-5.7,18.84-7.23,2.5-.8,10.81-4.52,12.23-5.19,.49-.24-3.02-1.22-2.62-2.07,.46-.99-.05-.9-.19-.93-11.95-2.44-16.24-4.66-24-7.94-4.99-2.11-7.83-2.11-8.9-2.32-3.76-.76-7.45-2.53-7.55-2.32-.68,1.48-1.76,2.4-3.29,2.52-1.09,.08-2.18-.68-2.35-1.73-.32-1.89,1.66-5.06,4.48-6.4,1.53-.73,3.07-.64,4.74-.19,2.81,.76,4.98,1.68,5.52,1.79,8.27,1.74,15.02,3.24,22.26,5.27,4.42,1.24,8.95,2.58,11.81,4.16,.19,.1,.22-.6,.58-.53,.5,.1,4.11,1.21,5.95,1.26,5.42,.15,6.69-.8,11.47,.24s8.88,3.69,10.11,4.6c.24,.18,2.31-.71,2.21-.92-1.55-3.36-1.05-6.24,1.85-8.65,2.24-1.85,3.48-2.77,4.84-3.06,1.58-.34,1.53-.02,3.34-.39,2.6-.53,3.11-1,5.13-1.65,.25-.08,.53,.05,.48-.26-.08-.52-.1-1.33-.1-1.69,0-.19,1,.03,1.02-.06,.09-.52-1.81-2.34-1.68-2.95,.06-.3,5.81-.09,7.7,.72,.16,.07,.57-.79,.57-1.04,0-.12,3.93,.43,6.87,3.84,2.66,3.08,2.85,6.85,2.85,6.85,.83-.33,.64-1.84,.98-1.89,.23-.03,1.68,5.31,.11,8.49-.69,1.41-1.97,3-1.88,3.16,.6,1.08,1.6,.88,1.6,.88-.18,.63-1.29-.17-2.75,1.21-3.14,2.96-8.5,6.43-8.65,6.41,0,0-.37-1.35,.26-1.82,.32-.24-5.25,.13-7.5,1.11-1.4,.61-3.59-1.05-2.98-3.26,.1-.35-3.44-.32-5.37,3.68-.71,1.47,1.55,5.56,1.27,8.03-.1,.92-.71,1.24-.63,1.87,2.42,19-6.19,28.06-6.19,28.06-5.65,8.97-6.55,8.93-9.68,21.61-.14,.57,.85,12.16,0,30.77-.13,2.82-3.58,14.05-4.87,29.05-.19,2.17-2.57-6.41-9.06-10.98-8.6-6.05-15.52-4.69-18.52-4.58-6.81,.26-10.84-.45-14.39,.58-1.67,.49-10.72,7.54-10.32,6.39,.76-2.19,3.54-10.36,8.19-17.68,4.68-7.36,5.39-6.8,8.77-12.39,4.33-7.13,7.96-12.44,9.34-22.5,1.5-10.98,2.9-18.39,2.9-18.39-9.24-.53-11.2-2.04-15.27-5.44-.73-.61-5.26,.49-8.71-4.13-.32-.43-9.02-.5-9.55-.19-12.58,7.24-19.38,7.3-28.13,11.29-5.27,2.4-14.15,6.91-30.23,9.11-9.87,1.35-14.68-.15-19.21-.15-1.08,0,6.46-3.5,12.6-4.65,7.53-1.4,10.89-2.21,14.19-3.35,15.51-5.38,19.9-8.5,24.19-11.42,1.76-1.19-21.92,3.06-45.29,6.9-7.78,1.28-7.37,1.9-19.55,8.06-13.1,6.63-26.06,16.79-33.3,9.61Z"/>
  </g>
  <g id="BULLEE">
    <polygon id="cou" class="cls-10" points="38.03 29.8 37.79 39.6 46.94 34.3 46.33 23.42 38.03 29.8"/>
    <path id="cha" class="cls-16" d="M63.16,153.91c-1.13,1.61-1.6,4.16-3.05,4.16-1.6,0-2.18-1.02-4.94-.15-2.61,.82-5.29,7.12-3.73,7.31,6.1,.73,12.54-.15,22.55-6.82,.73-.48-.87-3-1.45-5.42-.72-3.01-7.5-1.79-9.39,.92Z"/>
    <path id="bnade_chaussure" data-name="bnade chaussure" class="cls-15" d="M51.74,163.44c-.32,.01-.18,1.4,0,1.4,11.47,.03,16.7-3.14,21.58-6.63,.29-.21-.1-1.35-.1-1.35-2.02,1.5-4.17,4.07-9.44,5.52-2.91,.8-6.82,.82-12.05,1.06Z"/>
    <path id="plastique_chaussure_droite" data-name="plastique chaussure droite" class="cls-4" d="M59.31,158.65c-.69-.24-2-.69-3.8,.02-1.92,.76-3.59,3.74-3.39,3.75,5.13,.22,9.61-.78,11.03-.63,.23,.02-2.16-2.56-3.85-3.15Z"/>
    <path id="lacet_chaussure_droit" data-name="lacet chaussure droit" class="cls-4" d="M61.49,157.25c-.15-.38,.69-.57,.75-.56,1.13,.21,2.01,1.26,2.23,1.84,.11,.29-.37,.47-.41,.46-1.34-.2-2.29-1.01-2.56-1.74Z"/>
    <path id="chaussure" class="cls-16" d="M25.41,162.63c-3.32,1.01-3.42,2.68-6.84,3.81-.55,.18-.32-.77-7.19-.55-2.66,.09-4.34,6.82-2.94,7.55,3.71,1.93,19.47,.56,25.68-2.13,2.12-.92-1.1-3.1,1.29-6.58,1.83-2.66-7.1-2.98-10-2.1Z"/>
    <path id="chaussure_bande" data-name="chaussure bande" class="cls-15" d="M8.54,171.63c-.51-.03-.09,.95,.03,1,5.48,2.06,19.4,1.27,24.61-1.45,.13-.07,.35-1.06-.06-.9-3.94,1.48-15.03,1.84-24.58,1.35Z"/>
    <path id="plastique_chaussure" data-name="plastique chaussure" class="cls-2" d="M9.25,171.02c-1.13-.23,.17-3.91,1.64-4.24,2.94-.66,5.25-.27,6.42-.05,2.26,.42,3.59,3.56,3.45,3.9-.29,.71-7.37,1.22-11.52,.39Z"/>
    <path id="lacet_1" data-name="lacet 1" class="cls-2" d="M20,165.86c-.28,.54,.71,1.79,1.74,1.95,.4,.06,1.03,.14,.85-.2-.46-.86-.51-1.18-1.56-1.91-.04-.03-.83-.23-1.03,.16Z"/>
    <path id="lacet_2" data-name="lacet 2" class="cls-2" d="M22.96,164.57c-.15-.34,.65-.56,.74-.48,.9,.74,1.45,1.1,2.26,1.87,.16,.15,.1,.78-.19,.81-.94,.07-2.36-1.18-2.81-2.19Z"/>
    <path id="jambe_droite" data-name="jambe droite" class="cls-18" d="M34.23,89.24c.02-1.09,17.73-2.35,17.73-2.35,7.55,5.55,.73,29.5,7.03,37.74,2.52,3.29,15.3,23.64,15.32,30,0,.81-11.77,3.52-13.71,.52-.26-.41-.48-3.58-.48-7.81,0-1.17-4.81-4.71-14.23-25.48-1-2.2-11.91-19.37-11.66-32.62Z"/>
    <path id="ombre_jambe" data-name="ombre jambe" class="cls-17" d="M48.25,105.76c.91-1.07,6.42-8.97,7.4-6.44,.34,.87,.53,21.82,2.47,23.85,4.02,4.22,7.34,12.37,9.42,15.71,5.3,8.5,7.59,15.41,6.5,15.98s-5.6,1.69-7.44,1.55c-2.91-.23-.14-5.66-2-12.34-.76-2.74-1.35-2.78-6.87-12.1-2.97-5.01-4.45-7.52-5.81-10.35-2.89-6.04-6.13-12.98-3.68-15.87Z"/>
    <path id="jambe_gauche" data-name="jambe gauche" class="cls-5" d="M37.58,85.41c-.76-7.95,22.27-4.45,21.61,1.24-.96,8.31-14.88,40.09-16.32,42.7-.52,.94-.44,5.61-.87,7.84-1.06,5.46-1.94,8.1-1.94,8.1-.12,.73-.69,2.08-1.19,4.39-.78,3.59-.67,5.28-1.1,7.48-1.52,7.7-1.39,12.65-3.55,11.52-3.4-1.79-5.71-3.04-11.45-5.45-2.91-1.22-1-6.93,1-8.85,1.35-1.3,2.53-.13,2.95-1.79,1.6-6.29,3.68-11.08,4.66-16.45,.42-2.31-1.28-6.86-1.29-7.74-.13-10.35,8.97-27.39,7.48-42.97Z"/>
    <path id="pli_jambe" data-name="pli jambe" class="cls-21" d="M53,88.05l-6.18,19.78c-2.04,6.6-4.17,13.18-6.1,19.79-.2,.86-.62,1.72-1.1,2.45-.67,.88-.53,1.21-.31,2.15,.15,.58,.43,1.23,.65,1.8,.11,.25,.13,.52,.07,.79-.68,4.29-2.14,8.42-3.41,12.54-1.15,4.09-2.9,8.23-2.62,12.52,.18,.82,.42,1.79,0,2.6-.39,.87-1.31,1.18-1.91,1.76-.62,.65-1.23,1.17-1.17,2.18-.1-1.02,.46-1.55,1.09-2.26,.61-.62,1.49-.97,1.81-1.76,.38-.82,.11-1.63-.09-2.47-.45-4.35,1.3-8.6,2.37-12.73,1.19-4.14,2.65-8.21,3.28-12.46,.04-.28,.05-.23-.04-.47-.4-1.16-1.33-2.82-.65-3.99,.57-.88,1.12-1.79,1.36-2.82,2-6.64,4.11-13.2,6.27-19.77,1.6-4.89,4.97-14.76,6.69-19.62h0Z"/>
    <path id="sac" class="cls-20" d="M56.43,33.39c12.42,5.61,18.41,12.93,18.41,12.93,.48,1.97-2.45,1.78-2.06,2.23,2.07,2.39,2.27,9.65,2.06,16.97-.02,.7-.8,11.78-5.55,19.23-.49,.76-4.39,2.41-6.39,1.26-4.43-2.57,7.86-17.5,2.06-32.87-3.06-8.12-11.9-15.94-9.41-19.36,.18-.24,.7-.45,.87-.37Z"/>
    <path id="ombre_sac_bas" data-name="ombre sac bas" class="cls-7" d="M74.58,61.58c-.1-.76-7.21,20.32-15.24,18.82-1.43-.27-.94,5.57,1.31,6.29,3.15,1.02,7.61-1.11,7.79-1.35,5.03-6.53,6.68-19.58,6.15-23.76Z"/>
    <path id="ombre_sac" data-name="ombre sac" class="cls-7" d="M55.87,34.5c.18-.38,.48-.86,.71-.71,7.32,4.65,18.45,11.77,18,12.87-.29,.7-1.37,1.23-1.97,1.9-.52,.58,.81,1.65,.45,2,0,0-19.21-11.93-17.19-16.06Z"/>
    <path id="teeshirt" class="cls-11" d="M46.73,29.71c.58,2.61-1.93,4.66-8.18,8.4-1.1,.66-.58-3.65-.84-3.59-1.64,.39-4.3,2.65-5.9,4.81-3.07,4.16-2.19,5.64-5.42,10.55-1.88,2.86-2.77,3.25-2.81,4.84-.08,3.53,4.72,6.48,6.39,6.58,.17,0,3.18-2.8,2.73-2.44-.24,.19,.5,7.71,.56,8.93,.16,3.34,.13,9.6,.1,14.03,0,.8-.99,6.8-.7,7.12,2.42,2.61,22.99-.72,27.7-3.25,8.89-4.78,2.5-16.86-3.82-29.25-.63-1.23,9.94-4.72,9.36-1.94-.09,.42,1.26-1.35,1.02-1.57-.24-.22-.43-8.56-8.66-17.06-1.43-1.48-11.6-6.53-11.52-6.16Z"/>
    <path id="ombre_teeshirt" data-name="ombre teeshirt" class="cls-12" d="M52.32,47.54l-10.16,42,3.18-.33,4.65-.77c3.56-.57,.89-.05,4.16-.75l3.55-.98c.33-.09,.65-.22,.95-.38l2.18-1.03c.14-.07,.23-.21,.21-.37l-2.77-25.54-5.95-11.85Z"/>
    <path id="ombre_teeshirt-2" data-name="ombre teeshirt" class="cls-13" d="M60,70.25c-.13-1.03-21.85,9.09-22.15,9.97-.11,.34,1.02,3.1,1.02,3.1-.21,.56-1.01,.61-.87,1.06,.34,1.11,2.26,5.4,2.61,5.39,7.58-.24,20.37-4.01,22.55-4.68,.54-.17-2.59-10.23-3.16-14.84Z"/>
    <path id="laniere_sac" data-name="laniere sac" class="cls-20" d="M51.76,30.78c-1.41,.05-4.19,3.94-4.93,5.92-.81,2.16-.2,7.61,0,9.81,.02,.18,.95,.07,1.55,.19,0,0,.71,3.55,1.61,8.94,.81,4.83,1.31,11.03,3.42,17.39s1.02,10.76,4.06,12.9c1.51,1.07,3.44,2.55,4.16,.58,1.03-2.81,1.3-25.29-2.42-25.23-1.87,.03-2.33,5.1-3.03,6.71-.23,.52-5.52-20.61-4.84-21.55,.25-.34,.99-.02,.99-.1,0-1.23-1.28-6.48-.06-9.1,.99-2.12,3.81-3.26,4.45-3.55,.81-.37-3.26-2.98-4.98-2.92Z"/>
    <path id="ombre_laniere" data-name="ombre  laniere" class="cls-7" d="M46.41,39.02c2.68,3.52,5.9,6.68,5.9,6.68,.29-.29-1.23-4.84-.06-8.23,.86-2.52,3.32-3.1,4.42-3.77,.89-.55-3.65-3.48-5.03-2.81-2.84,1.39-5.72,7.48-5.23,8.13Z"/>
    <path id="feuille_livre_bleu" data-name="feuille livre bleu" class="cls-2" d="M40.35,82.37l1.48-.94c.97,1.45,5.45,11.29,6.19,12.84,.22,.47-.87,.94-.97,.71-.55-1.26-5.19-10.19-6.71-12.61Z"/>
    <path id="livre_bleu" data-name="livre bleu" class="cls-8" d="M41.61,81.12c-.15-.35,13.55-8.35,14.1-8.16,1.52,.52,8.04,14.2,7.65,14.55-1.99,1.71-11.16,7.52-15.71,8.42-.99,.2-7.39-12.65-7.65-13.55-.05-.16,.27-.34,.52-.32,.17,.01,5.88,11.56,6.61,12.45,.04,.05,.61,.07,.61-.26,0-.63-4.85-10.09-6.13-13.13Z"/>
    <path id="feuille_livre" data-name="feuille livre" class="cls-1" d="M42.77,80.34c-.2-.48,1.13-1.35,1.13-1.35,.07,.48,2.78,4.51,6.17,12.35,.15,.35,.16,1.14-.19,1.56-.27,.32-1.05,.22-1.18,.09-.46-.44-4.19-8.56-5.93-12.65Z"/>
    <path id="livre" class="cls-9" d="M57.01,72.04c-.13-.24-13.53,6.47-13.24,6.93,1.42,2.29,5.55,10.66,5.65,11.21,.01,.07,.47,.67,.58,1.55,.04,.31-.02,.8-.39,.94-.63,.23-.8,.07-1-.13-1.06-1.08-2.09-4.47-2.58-5.52-1.16-2.48-3.21-6.81-3.29-7.02-.03-.07-.23,.53-.15,.68,1.07,1.95,4.41,11.05,6.32,12.53,.9,.7,3.17-.59,7.01-2.62,4.37-2.31,7.13-3.3,7.24-4.76,.1-1.29-4.45-10.71-6.15-13.79Z"/>
    <path id="bras_droit" data-name="bras droit" class="cls-3" d="M24.32,57.09c-.66-.34-15.72,17.39-19.03,21.48-.67,.83-1.6,1.42-2.45,2.06-1.71,1.3-2.49,1.62-2.7,2.63-.24,1.13-.09,2.55,0,2.83,.84,2.71,3.13,3.68,4.97,3.25,.43-.1,.05-1.77,.05-1.77-.63-.77-3.23-1.88-2.25-2.15,.86-.24,1.99-.47,3.44-1.38,1.63-1.02,2-3.03,2.64-3.27,5.59-2.06,21.56-19.6,20.54-19.81-1-.21-4.78-3.66-5.19-3.87Z"/>
    <path id="bras_gauche" data-name="bras gauche" class="cls-3" d="M58.71,83.91c.59-1.99,.68-19.74,.52-21.35-.23-2.3-2.77-5.68-2.71-6.36,.04-.44,2.03-1.55,4.29-2.21,2.52-.74,4.57-.69,4.78-.47,1.36,1.45,2.76,18.92-1.97,32.06,0,0-1.77,6.7-5.12,7.95-2.07,.78-2.64,.97-2.64,.97-1.09,.15-1.12,0-2.2,.17-1,.16-1.52,1.38-2.18,1.48-.64,.09-2.29-.58-1.74-.97,1.91-1.35,3.8-5.66,3.07-5.78-.43-.07-2.08,.56-3.8,.99-.67,.17-1.52-1.19-.9-1.39,7.12-2.24,9.75-2.24,10.6-5.1Z"/>
    <path id="visage" class="cls-3" d="M31.17,10.34c-1.81,2.31,.15,6.24-.29,7.74-.68,2.35-1.19,2.84-1.31,5.03-.04,.73-.24,4.21,1.74,6.48,1.29,1.48,3.82,3.06,6.24,2.52,2.35-.53,3.87-1.92,5.81-3.39s2.47-4.89,3.18-4.74c.91,.2,1.14,.92,2.04,.67,1.4-.39,1.86-2.57,1.89-2.71,.35-1.78-.41-3.26-1.6-5.37-2.58-4.61-3.88-6.92-4.55-7.4-4.12-2.99-10.92-1.7-13.16,1.16Z"/>
    <path id="cheveux" class="cls-19" d="M43.8,11.96c-.7,0-4.9,3.23-8.97,2.19-.38-.1,1.82-.94,2.24-1.87,.27-.6-4.07,3.22-9.06,1.85-.18-.05,.77-1.29,1.21-1.48,.31-.14-3.17,1.58-3.16,1.27,.08-6.01,5.87-8.82,5.53-8.73-1.33,.38-3.32,1.85-2.94,1.52,.11-.1,1.11-8.67,13.77-4.14,1.72,.62-3.24-2.39-3.24-2.39,.94-.49,6.17-.4,9.88,5.87,.38,.64,1.04-.71,1.21-.93,.23-.3-.36,2.78-.21,2.83,2.32,.77,3.21,8.66,2.83,8.9-.19,.12-.53-.31-1.26-.9-.62-.51,0,1.29-1.32,3.53-.06,.1-2.1-3.35-3.55,1.35-.44,1.43-2.41,.65-2.37,.36,.4-3.15,1.92-6.11,2.35-6.63,.08-.1,.29,.18-1.81,.26-.59,.02,.73-.8,.29-.94-.77-.24-3.15-.18-2.6-.4,.44-.18,1.34-1.52,1.16-1.52Z"/>
    <path id="ombre_teeshirt-3" data-name="ombre teeshirt" class="cls-12" d="M25.86,58.27s7.87-13.47,7.78-12.44c-.6,6.4,.66,9.79-.44,12.7-.26,.69-2.67,2.57-3.43,2.74-.68,.15-2.74-1.74-3.9-3Z"/>
    <path id="pli" class="cls-6" d="M33.33,45.31c.46,8.59,.31,17.66,.34,26.27-1.4-8.67-1.25-17.55-.34-26.27h0Z"/>
    <g>
      <path id="pli-2" data-name="pli" class="cls-6" d="M65.89,54.5c.45,.24,.98-1.49,.91-1.42-.43,.39-.74,1.38-.73,1.17,.02-1.12-3.67-1.3-5.41-.66-.96,.36-5.68,2.57-3.81,3.5l.64-.77c.47-.64,1.09-1.16,1.8-1.52,1.08-.53,2.47-1.07,3.76-1.19,.39-.04,.79,.05,1.15,.19l1.69,.7Z"/>
      <path class="cls-6" d="M56.87,57.25l-.09-.04c-.35-.17-.51-.4-.5-.69,.07-1.2,3.77-2.84,4.33-3.04,1.4-.52,4.24-.53,5.22,.17,.12,.09,.22,.18,.27,.29,.14-.29,.35-.71,.61-.95l.08-.08,.09,.07c.16,.14-.32,1.13-.46,1.35-.25,.35-.45,.35-.58,.28l-1.69-.7c-.39-.15-.77-.21-1.09-.18-1.36,.13-2.77,.71-3.71,1.17-.68,.34-1.29,.85-1.76,1.48l-.71,.85Zm6.27-3.9c-.88,0-1.79,.12-2.45,.36-.99,.36-4.11,1.91-4.16,2.82,0,.15,.08,.29,.28,.4l.58-.69c.49-.66,1.12-1.2,1.84-1.55,.96-.48,2.4-1.07,3.8-1.2,.36-.03,.78,.03,1.21,.19l1.71,.71s.03,.01,.06,0l-.06-.02v-.13c0-.15-.08-.28-.25-.4-.46-.33-1.48-.5-2.54-.5Z"/>
    </g>
    <g>
      <path id="pli-3" data-name="pli" class="cls-6" d="M51.87,46.95c1.55,3.11,2.32,6.81,4.65,9.32"/>
      <path id="pli-4" data-name="pli" class="cls-6" d="M51.87,46.95c1.87,2.97,2.54,6.48,4.65,9.32-2.66-2.41-3.41-6.1-4.65-9.32h0Z"/>
    </g>
    <path id="col_2" data-name="col 2" class="cls-6" d="M36.39,35.29c-.44,1.71-1.36,4.1,.07,5.54,1.16,.88,2.92,.64,3.95-.34,3.42-2.76,6.62-5.95,9.03-9.63-1.98,3.41-4.81,6.27-7.72,8.9-.81,.59-1.49,1.36-2.47,1.67-4.45,.91-4.03-3.24-2.86-6.13h0Z"/>
    <path id="col" class="cls-6" d="M37.91,34.5c0-.1-.91,.27-1.26,1.04-.41,.89-.35,3.36,.19,4.23,.27,.43,1.52,1.23,3.1-.35,3.78-3.78,8.16-7.32,8.16-9.13,0-.29-1.38-.61-1.38-.61,0,.11-.01,1.62-.06,1.68-2.38,2.83-4.61,4.53-8.2,6.83-.09,.06-.6-.23-.61-1,0-1.2,.05-2.14,.06-2.68Z"/>
    <path class="cls-10" d="M8.96,80.77s7.91-6.24,16.9-22.43c.1-.18,3.68,2.82,3.6,2.94-2.61,3.97-15.41,17.39-20.5,19.49Z"/>
  </g>
</svg>