<svg width="850" height="253" viewBox="0 0 850 253" fill="none" xmlns="http://www.w3.org/2000/svg">
<path d="M17.2805 247.525C5.41051 245.935 -0.479493 195.065 0.0305071 139.825C0.420507 98.2955 4.4205 54.1955 12.4105 27.9455C18.1105 9.45548 48.6205 -0.264524 77.6505 0.00547599C98.1105 0.195476 117.701 5.19547 127.561 15.6755C130.851 19.4055 134.391 24.2655 137.381 29.8555C140.651 35.8155 142.521 42.1355 143.001 49.9255L143.241 54.7555C143.181 61.0555 142.02 67.7155 139.73 75.1155C136.87 84.3555 131.251 94.6755 122.851 106.105C134.391 114.745 142.311 124.445 146.921 134.515C151.801 144.575 154.201 154.605 154.661 164.255L154.881 171.295C154.261 238.415 106.011 252.435 62.6105 252.025C45.7205 251.865 29.7105 249.865 17.2805 247.525ZM73.6305 104.525C83.8905 102.025 92.5505 91.7155 92.6405 81.7055C92.7205 72.8155 86.7005 67.1855 78.6805 67.1155L73.9705 67.8155L71.4805 68.5455L71.1405 104.885L73.6305 104.525ZM73.6605 191.315C88.0605 188.475 100.071 175.975 100.181 164.115C100.281 153.725 92.0505 146.615 80.4405 146.505L74.3405 147.185C73.2405 147.175 72.1305 147.525 71.0205 147.895L70.3305 191.645L73.6605 191.315Z" fill="#FF8EBF"/>
<path d="M205.851 244.336C195.801 242.756 187.651 239.356 181.121 234.376C174.601 229.626 169.981 223.516 166.991 215.816C163.731 207.436 163.181 199.296 163.181 190.696V182.536C163.461 178.926 163.461 173.936 163.721 167.596C163.721 161.266 164.001 152.656 164.541 141.796L165.901 102.646C165.901 96.3056 177.041 92.6855 188.731 92.6855C201.781 92.6855 215.911 97.2056 215.911 108.306L215.641 111.246C215.101 119.406 208.301 151.996 208.301 176.666C208.301 191.156 210.751 203.146 218.081 205.636C219.981 206.316 221.611 206.536 223.241 206.536C236.561 206.536 239.831 183.906 239.831 160.806C239.831 139.536 237.111 117.806 236.841 113.276C237.381 103.776 248.251 99.0155 260.211 99.0155C269.991 99.0155 280.051 102.186 285.221 108.526C285.761 125.496 286.581 139.076 286.851 149.486L287.671 185.936C287.671 192.726 287.391 199.516 285.771 206.306C284.691 212.636 282.231 218.296 278.701 223.276C275.171 228.256 270.281 232.556 264.291 236.176C258.041 239.796 250.701 242.286 241.461 243.866C233.851 244.996 227.051 245.446 220.801 245.446C215.361 245.466 210.471 245.236 205.851 244.336Z" fill="#FF8EBF"/>
<path d="M296.341 233.385L295.241 78.8253C295.241 63.0653 311.831 56.1553 327.861 56.1553C337.601 56.1553 347.201 58.8653 352.441 63.8853C355.081 66.4153 356.381 70.0353 356.201 73.6853L351.091 178.645C351.091 183.065 353.581 185.275 357.171 185.275C358.091 185.275 359.011 185.175 359.911 184.985L400.861 176.155C402.241 175.875 403.631 175.605 405.001 175.605C416.621 175.605 425.181 188.325 425.181 202.145C425.181 206.835 424.761 217.285 422.551 221.715C416.251 235.025 416.581 236.875 403.551 240.535C402.511 240.825 401.441 240.995 400.361 241.025L309.601 243.615L306.371 243.855C305.951 243.885 305.521 243.905 305.091 243.895C298.671 243.685 296.341 240.355 296.341 233.385Z" fill="#FF8EBF"/>
<path d="M434.871 233.385L433.771 78.8253C433.771 63.0653 450.361 56.1553 466.401 56.1553C479.941 56.1553 493.211 61.4053 494.871 70.8153L489.621 178.645C489.621 183.065 492.111 185.275 495.701 185.275H497.081L539.38 176.155C540.76 175.875 542.151 175.605 543.521 175.605C555.141 175.605 563.721 188.325 563.721 202.145C563.721 206.165 563.941 223.805 562.611 231.585C562.301 233.375 561.181 234.945 559.531 235.715C550.871 239.785 544.61 238.705 531.63 240.235L448.141 243.615L444.271 243.895C437.361 243.895 434.871 240.575 434.871 233.385Z" fill="#FF8EBF"/>
<path d="M577.441 238.206C573.851 227.676 572.181 203.966 572.181 178.286C572.181 152.836 573.851 125.406 577.441 107.846C579.931 95.3358 673.941 95.7758 690.801 94.6758C696.891 94.6758 700.761 101.926 700.761 110.256C700.761 118.566 696.941 128.106 686.881 132.976C684.971 133.896 682.911 134.456 680.801 134.706L630.531 140.766C628.591 141.206 626.941 143.626 626.941 146.256C626.941 148.666 628.591 151.086 633.291 151.306L670.901 148.896C675.591 148.896 678.361 155.696 678.361 162.946C678.361 171.506 674.771 180.726 666.741 180.726L629.971 184.016C626.651 185.116 625.261 187.526 625.261 189.936C625.261 193.006 627.201 195.856 631.341 196.296L690.521 187.956C701.021 187.956 706.831 199.146 706.831 210.996C706.831 221.156 702.561 231.796 693.691 236.286C691.491 237.396 689.041 237.956 686.571 238.156C673.081 239.226 633.151 243.476 605.631 243.476C590.161 243.466 578.541 242.156 577.441 238.206Z" fill="#FF8EBF"/>
<path d="M720.26 237.645C716.66 227.195 715 203.685 715 178.215C715 152.965 716.65 125.755 720.26 108.345C722.75 95.9352 816.761 96.3752 833.621 95.2852C839.711 95.2852 843.581 102.475 843.581 110.745C843.581 119.305 839.451 129.205 828.481 133.825C827.111 134.405 825.66 134.745 824.201 134.925L773.351 141.005C771.411 141.435 769.75 143.845 769.75 146.445C769.75 148.835 771.421 151.235 776.111 151.455L813.721 149.065C818.431 149.065 821.181 155.805 821.181 162.995C821.181 171.485 817.59 180.635 809.57 180.635L772.791 183.895C769.471 184.985 768.081 187.375 768.081 189.775C768.081 192.825 770.021 195.655 774.171 196.085L831.661 188.055C833.291 187.825 834.951 187.805 836.551 188.195C845.021 190.215 849.651 200.185 849.651 210.685C849.651 220.765 845.38 231.325 836.5 235.775C834.29 236.885 831.871 237.435 829.421 237.625C815.981 238.675 775.991 242.905 748.451 242.905C732.98 242.865 721.36 241.565 720.26 237.645Z" fill="#FF8EBF"/>
<path d="M81.8903 8.02549C81.9503 7.56549 99.0503 5.70548 113.91 15.5455C120.05 19.6055 126.96 26.2755 126.55 28.0655C126.43 28.5955 125.73 29.7955 124.28 29.5755C118.01 28.6155 112 23.2955 108.7 19.5055C98.8303 8.12548 81.8303 8.50549 81.8903 8.02549Z" fill="white"/>
<path d="M128.43 31.5459L127.82 32.1259C126.86 32.7659 125.18 35.0759 125.88 35.9959L126.94 37.7059C127.98 39.0659 130.8 38.7359 132.43 38.3759C132.79 38.2959 133.02 38.2659 133.36 38.0359L133.61 37.6059C133.87 36.7459 133.74 35.8859 133.28 35.1259L132.98 34.6459C132.07 32.9159 130.06 30.4659 128.43 31.5459Z" fill="white"/>
<path d="M180.16 207.976C179.54 208.326 181.69 217.146 187.97 224.636C197.19 235.616 211.95 239.636 212.92 237.606C213.88 235.606 211.54 234.486 209.78 233.366C202.12 228.486 197.36 226.516 191.18 222.236C182.96 216.536 180.78 207.626 180.16 207.976Z" fill="white"/>
<path d="M176.39 198.785L176.56 198.725C178.12 198.155 179.84 198.945 180.43 200.495L180.81 201.475C181.43 203.105 180.63 204.935 179 205.565L178.6 205.725C177.07 206.325 175.35 205.535 174.8 203.995L174.43 202.965C173.82 201.265 174.7 199.405 176.39 198.785Z" fill="white"/>
<path d="M325.14 60.8051C325.29 60.3651 347.85 63.3251 350.82 74.8051C351.04 75.6351 350.42 84.0151 348.59 83.6451C346.37 83.1951 346.31 80.7551 346.18 80.3551C344.45 75.0851 345.5 73.6151 341.86 69.3151C335.76 62.1351 325.04 61.1251 325.14 60.8051Z" fill="white"/>
<path d="M529.861 184.925C529.941 184.465 552.701 184.225 557.251 195.175C557.581 195.965 558.151 204.355 556.281 204.235C554.021 204.095 553.621 201.695 553.431 201.315C550.971 196.345 551.811 194.735 547.601 190.995C540.561 184.755 529.801 185.255 529.861 184.925Z" fill="white"/>
<path d="M667.451 98.3656C667.541 97.9056 690.301 98.0656 694.661 109.096C694.981 109.896 695.391 118.286 693.531 118.146C691.271 117.966 690.911 115.556 690.731 115.176C688.361 110.156 689.231 108.576 685.081 104.756C678.161 98.3756 667.381 98.6856 667.451 98.3656Z" fill="white"/>
<path d="M812.981 195.366C813.041 194.906 835.761 193.606 840.821 204.336C841.191 205.116 842.141 213.466 840.271 213.436C838.011 213.406 837.491 211.026 837.291 210.656C834.601 205.806 835.371 204.166 830.991 200.616C823.661 194.696 812.941 195.696 812.981 195.366Z" fill="white"/>
<path d="M346.241 87.5459L346.411 87.4859C347.971 86.9159 349.691 87.7059 350.281 89.2559L350.661 90.2359C351.281 91.8659 350.481 93.6959 348.851 94.3259L348.451 94.4859C346.921 95.0859 345.201 94.2959 344.651 92.7559L344.281 91.7259C343.671 90.0259 344.541 88.1559 346.241 87.5459Z" fill="white"/>
<path d="M554.62 207.646L554.79 207.586C556.35 207.016 558.07 207.805 558.66 209.355L559.04 210.336C559.66 211.966 558.86 213.796 557.23 214.426L556.83 214.586C555.3 215.186 553.58 214.395 553.03 212.855L552.66 211.825C552.05 210.125 552.93 208.256 554.62 207.646Z" fill="white"/>
<path d="M687.54 120.325L687.71 120.265C689.27 119.695 690.99 120.485 691.58 122.035L691.96 123.015C692.58 124.645 691.78 126.475 690.15 127.105L689.75 127.265C688.22 127.865 686.5 127.075 685.95 125.535L685.58 124.505C684.97 122.805 685.85 120.935 687.54 120.325Z" fill="white"/>
<path d="M838.9 215.365L839.07 215.305C840.63 214.735 842.35 215.525 842.94 217.075L843.32 218.055C843.94 219.685 843.14 221.515 841.51 222.145L841.11 222.305C839.58 222.905 837.86 222.115 837.31 220.575L836.94 219.545C836.33 217.845 837.2 215.975 838.9 215.365Z" fill="white"/>
</svg>
